<svg id="Layer_1" data-name="Layer 1" viewBox="0 0 628 698" xmlns="http://www.w3.org/2000/svg">
<g clip-path="url(#clip0_884_2837)">
<path d="M123.707 277.406L200.448 273.878L186.501 348.894L123.707 277.406Z" fill="#EBEBEB"/>
<path d="M176.889 323.466L148.289 290.905L16.7363 406.663L45.3362 439.225L176.889 323.466Z" fill="#EBEBEB"/>
<path d="M436.719 161.483L513.46 157.955L499.512 232.971L436.719 161.483Z" fill="#EBEBEB"/>
<path d="M489.897 207.538L461.297 174.976L329.744 290.735L358.344 323.296L489.897 207.538Z" fill="#EBEBEB"/>
<path d="M142.91 178.91L192.136 176.644L183.203 224.774L142.91 178.91Z" fill="#F5F5F5"/>
<path d="M177.027 208.458L158.68 187.569L74.2754 261.84L92.6231 282.729L177.027 208.458Z" fill="#F5F5F5"/>
<path d="M563.414 181.541L612.655 179.275L603.707 227.405L563.414 181.541Z" fill="#F5F5F5"/>
<path d="M597.521 211.098L579.173 190.209L494.768 264.48L513.116 285.368L597.521 211.098Z" fill="#F5F5F5"/>
<path d="M451.334 577.743H380.715C378.676 577.743 377.023 579.398 377.023 581.439V599.854C377.023 601.895 378.676 603.55 380.715 603.55H451.334C453.373 603.55 455.026 601.895 455.026 599.854V581.439C455.026 579.398 453.373 577.743 451.334 577.743Z" fill="#EBEBEB"/>
<path d="M470.097 577.865C470.766 577.792 471.413 577.579 471.996 577.241C472.697 576.805 473.232 576.147 473.515 575.371C473.738 574.281 473.8 573.164 473.698 572.056C473.698 569.486 473.698 566.368 473.698 562.764C473.698 560.955 473.698 559.024 473.698 556.971C473.831 555.967 473.667 554.947 473.227 554.036C472.963 553.589 472.602 553.208 472.171 552.921C471.739 552.634 471.248 552.448 470.735 552.378L399.646 552.454C398.869 552.456 398.118 552.732 397.524 553.232C396.929 553.733 396.53 554.426 396.394 555.191C396.288 556.712 396.394 558.583 396.394 560.24C396.394 563.626 396.394 566.962 396.394 570.246V572.695C396.351 573.467 396.386 574.241 396.501 575.006C396.688 575.702 397.096 576.318 397.663 576.763C398.23 577.207 398.926 577.455 399.646 577.47H408.883L440.789 577.546L462.363 577.667L468.213 577.743L462.363 577.819L440.789 577.941L408.883 578.032H399.631C398.744 578.015 397.888 577.708 397.191 577.16C396.495 576.611 395.996 575.849 395.771 574.991C395.625 574.163 395.574 573.321 395.619 572.482V560.027C395.619 558.309 395.619 556.697 395.619 554.857C395.781 553.905 396.274 553.04 397.011 552.417C397.747 551.794 398.681 551.451 399.646 551.45C427.434 551.45 452.533 551.45 470.826 551.603C471.418 551.691 471.982 551.912 472.476 552.249C472.971 552.586 473.383 553.031 473.682 553.549C473.972 554.047 474.148 554.602 474.199 555.176C474.199 555.754 474.199 556.241 474.199 556.697C474.199 558.75 474.199 560.681 474.199 562.491C474.199 566.095 474.199 569.212 474.199 571.782C474.283 572.919 474.196 574.062 473.941 575.173C473.642 575.979 473.073 576.657 472.33 577.089C471.869 577.368 471.348 577.535 470.811 577.576C470.595 577.72 470.352 577.818 470.097 577.865Z" fill="#E0E0E0"/>
<path d="M74.6929 115.117H4.07477C2.03576 115.117 0.382812 116.771 0.382812 118.812V137.228C0.382812 139.268 2.03576 140.923 4.07477 140.923H74.6929C76.7319 140.923 78.3849 139.268 78.3849 137.228V118.812C78.3849 116.771 76.7319 115.117 74.6929 115.117Z" fill="#F5F5F5"/>
<path d="M113.694 115.117C114.366 115.055 115.015 114.842 115.593 114.493C116.297 114.061 116.833 113.401 117.112 112.623C117.336 111.533 117.397 110.416 117.294 109.308C117.294 106.743 117.294 103.646 117.294 100.016C117.294 98.2066 117.294 96.2753 117.294 94.2224C117.428 93.219 117.264 92.1985 116.823 91.2874C116.559 90.8449 116.2 90.4666 115.771 90.1799C115.343 89.8933 114.856 89.7054 114.347 89.6299L43.0602 89.7211C42.283 89.73 41.5333 90.0097 40.9399 90.5121C40.3465 91.0144 39.9465 91.708 39.8088 92.4736C39.7025 93.9943 39.8088 95.8495 39.8088 97.5223C39.8088 100.898 39.8088 104.244 39.8088 107.513V109.946C39.765 110.719 39.8007 111.493 39.9152 112.258C40.1019 112.955 40.5091 113.574 41.076 114.021C41.6428 114.467 42.3389 114.719 43.0602 114.737H52.2977L84.2035 114.813L105.763 114.949L111.612 115.026H113.131C113.303 115.007 113.476 115.007 113.648 115.026C113.477 115.048 113.303 115.048 113.131 115.026H111.612H105.763L84.2035 115.147L52.2977 115.238H43.0602C42.1738 115.221 41.3174 114.915 40.6209 114.366C39.9244 113.817 39.4259 113.055 39.2011 112.197C39.0549 111.369 39.0039 110.527 39.0492 109.688V97.5071C39.0492 95.7735 39.0492 94.1616 39.0492 92.3215C39.2129 91.3733 39.7043 90.5127 40.4374 89.8901C41.1705 89.2676 42.0988 88.9225 43.0602 88.9152C70.8638 88.9152 95.9478 88.9152 114.24 89.0824C114.831 89.1685 115.395 89.3868 115.889 89.7212C116.384 90.0556 116.797 90.4974 117.097 91.0137C117.386 91.5116 117.563 92.0671 117.613 92.6409C117.613 93.2187 117.613 93.7054 117.613 94.1616C117.613 96.2145 117.613 98.1458 117.613 99.9554C117.613 103.575 117.613 106.672 117.613 109.247C117.698 110.389 117.611 111.537 117.355 112.653C117.048 113.454 116.481 114.129 115.745 114.569C115.284 114.851 114.763 115.018 114.225 115.056C114.051 115.097 113.873 115.118 113.694 115.117Z" fill="#E0E0E0"/>
<path d="M624.019 623.79H553.401C551.362 623.79 549.709 625.444 549.709 627.485V645.901C549.709 647.942 551.362 649.596 553.401 649.596H624.019C626.058 649.596 627.711 647.942 627.711 645.901V627.485C627.711 625.444 626.058 623.79 624.019 623.79Z" fill="#EBEBEB"/>
<path d="M609.768 456.422C610.442 456.368 611.093 456.154 611.667 455.799C612.368 455.369 612.904 454.715 613.187 453.943C613.404 452.847 613.461 451.725 613.354 450.613C613.354 448.058 613.354 444.941 613.354 441.337C613.354 439.527 613.354 437.581 613.354 435.543C613.491 434.533 613.322 433.505 612.868 432.593C612.608 432.147 612.25 431.767 611.821 431.483C611.391 431.198 610.902 431.016 610.391 430.95L539.302 431.026C538.525 431.026 537.772 431.3 537.177 431.801C536.582 432.302 536.183 432.997 536.051 433.764C535.944 435.284 536.051 437.155 536.051 438.812V451.252C536.007 452.029 536.042 452.808 536.157 453.578C536.344 454.272 536.749 454.886 537.313 455.33C537.877 455.774 538.569 456.024 539.287 456.042H548.524L580.506 456.133L602.065 456.255H607.93H609.449C609.626 456.232 609.804 456.232 609.981 456.255H609.449H607.93L602.065 456.331L580.506 456.468L548.524 456.544H539.272C538.386 456.524 537.531 456.217 536.835 455.668C536.139 455.119 535.64 454.359 535.413 453.502C535.271 452.669 535.225 451.822 535.276 450.978V448.545C535.276 445.26 535.276 441.925 535.276 438.539C535.276 436.82 535.276 435.208 535.276 433.353C535.444 432.403 535.941 431.542 536.68 430.921C537.419 430.301 538.353 429.961 539.317 429.962C567.106 429.962 592.205 429.962 610.482 430.114C611.077 430.198 611.645 430.418 612.143 430.755C612.641 431.092 613.055 431.539 613.354 432.06C613.638 432.554 613.809 433.105 613.855 433.672C613.855 434.25 613.855 434.737 613.855 435.269C613.855 437.307 613.855 439.253 613.855 441.063C613.855 444.667 613.855 447.785 613.855 450.339C613.935 451.482 613.843 452.63 613.582 453.746C613.294 454.553 612.728 455.232 611.986 455.662C611.525 455.941 611.005 456.107 610.467 456.148C610.252 456.279 610.015 456.372 609.768 456.422Z" fill="#E0E0E0"/>
<path d="M132.124 522.481C132.798 522.431 133.45 522.217 134.023 521.858C134.729 521.435 135.267 520.779 135.542 520.002C135.752 518.905 135.808 517.785 135.709 516.672C135.709 514.117 135.709 511 135.709 507.396C135.709 505.586 135.709 503.655 135.709 501.602C135.839 500.592 135.67 499.566 135.223 498.652C134.964 498.206 134.606 497.826 134.176 497.542C133.747 497.257 133.258 497.075 132.747 497.009L61.6575 497.085C60.8793 497.082 60.1251 497.355 59.5295 497.856C58.934 498.358 58.5358 499.055 58.4061 499.823C58.2998 501.343 58.4061 503.214 58.4061 504.871V517.326C58.3473 518.098 58.383 518.874 58.5125 519.637C58.6946 520.333 59.0989 520.951 59.6639 521.395C60.2289 521.84 60.9236 522.088 61.6423 522.101H70.8798L102.786 522.192L124.345 522.314H130.209H131.729C131.9 522.29 132.074 522.29 132.245 522.314C132.074 522.334 131.9 522.334 131.729 522.314H130.209H124.345L102.786 522.451L70.8798 522.527H61.4296C60.5433 522.509 59.6868 522.203 58.9903 521.654C58.2938 521.105 57.7953 520.344 57.5705 519.485C57.4294 518.657 57.3835 517.815 57.4338 516.976V514.528C57.4338 511.243 57.4338 507.913 57.4338 504.522C57.4338 502.803 57.4338 501.191 57.4338 499.336C57.6045 498.387 58.1024 497.528 58.8408 496.908C59.5793 496.288 60.5115 495.947 61.4752 495.945C89.2636 495.945 114.363 495.945 132.64 496.097C133.233 496.181 133.799 496.401 134.294 496.738C134.789 497.076 135.201 497.522 135.497 498.044C135.795 498.537 135.972 499.095 136.013 499.671C136.013 500.233 136.013 500.72 136.013 501.191C136.013 503.244 136.013 505.176 136.013 506.985C136.013 510.589 136.013 513.707 136.013 516.261C136.137 517.54 136.045 518.831 135.74 520.078C135.466 520.872 134.93 521.548 134.22 521.994C133.758 522.271 133.238 522.438 132.701 522.481C132.509 522.505 132.315 522.505 132.124 522.481Z" fill="#E0E0E0"/>
<path d="M585.017 121.169C585.688 121.105 586.337 120.892 586.916 120.546C587.621 120.113 588.156 119.454 588.436 118.675C588.652 117.584 588.713 116.468 588.618 115.36C588.618 112.79 588.618 109.688 588.542 106.069C588.542 104.259 588.542 102.328 588.542 100.275C588.678 99.2698 588.509 98.2471 588.056 97.3398C587.783 96.8793 587.405 96.4894 586.954 96.2015C586.503 95.9136 585.99 95.7357 585.458 95.6823H514.369C513.59 95.6853 512.837 95.9628 512.242 96.4662C511.648 96.9696 511.249 97.6666 511.117 98.4347C511.011 99.9554 511.117 101.811 511.117 103.468V115.923C511.073 116.695 511.109 117.469 511.224 118.234C511.407 118.931 511.812 119.548 512.376 119.995C512.94 120.442 513.634 120.694 514.353 120.713H523.591H555.573L577.132 120.85H582.996H584.516C584.687 120.831 584.861 120.831 585.032 120.85C584.861 120.872 584.687 120.872 584.516 120.85H582.996H577.132L555.573 120.971L523.591 121.063H514.338C513.453 121.043 512.597 120.736 511.901 120.187C511.205 119.638 510.706 118.878 510.479 118.021C510.345 117.192 510.299 116.351 510.342 115.512V103.544C510.342 101.826 510.266 100.214 510.342 98.3739C510.507 97.4231 511 96.5606 511.736 95.9377C512.473 95.3148 513.405 94.9713 514.369 94.9675C542.157 94.9675 567.256 94.9675 585.534 95.1348C586.143 95.2054 586.728 95.4166 587.242 95.7517C587.756 96.0868 588.185 96.5367 588.496 97.0661C588.786 97.564 588.962 98.1195 589.013 98.6932C589.013 99.2711 589.013 99.7577 589.013 100.214C589.013 102.267 589.013 104.198 589.013 106.008C589.013 109.627 589.013 112.729 589.013 115.299C589.092 116.442 589 117.59 588.739 118.706C588.442 119.508 587.879 120.184 587.144 120.622C586.683 120.901 586.162 121.067 585.625 121.108C585.426 121.157 585.222 121.177 585.017 121.169Z" fill="#E0E0E0"/>
<path d="M308.015 646.251H237.397C235.358 646.251 233.705 647.905 233.705 649.946V668.362C233.705 670.403 235.358 672.057 237.397 672.057H308.015C310.054 672.057 311.707 670.403 311.707 668.362V649.946C311.707 647.905 310.054 646.251 308.015 646.251Z" fill="#EBEBEB"/>
<path d="M609.677 0.243286H539.059C537.02 0.243286 535.367 1.89773 535.367 3.93858V22.3542C535.367 24.3951 537.02 26.0495 539.059 26.0495H609.677C611.716 26.0495 613.369 24.3951 613.369 22.3542V3.93858C613.369 1.89773 611.716 0.243286 609.677 0.243286Z" fill="#F5F5F5"/>
<path d="M0.519531 695.248H0.914553H2.13002H6.8703L25.2389 694.959L93.7604 694.731L93.2742 695.232C93.2742 676.117 93.2742 654.417 93.1527 630.588V629.979H93.7604L200.812 629.858L200.067 630.588C200.067 611.488 200.067 591.399 200.067 570.733V569.957H320.626L319.836 570.748C319.836 547.284 319.836 524.336 319.836 502.089V501.313H320.611L441.245 501.404L440.561 502.089C440.637 459.083 440.683 421.157 440.744 389.846V389.298H441.245L517.029 389.542L537.251 389.663L542.462 389.739H543.784C543.935 389.72 544.089 389.72 544.24 389.739H543.784H542.462H537.251L517.029 389.876L441.245 390.12L441.762 389.603C441.762 420.914 441.868 458.84 441.944 501.845V502.53H441.245L320.611 502.621L321.385 501.845C321.385 524.093 321.385 547.04 321.385 570.505V571.295H300.525H200.812L201.572 570.535C201.572 591.201 201.572 611.29 201.572 630.39V631.12H200.842L93.7908 631.013L94.4137 630.39C94.4137 654.219 94.3226 675.919 94.2922 695.035V695.536H93.7908L25.2693 695.308L6.90069 695.172H2.1604H0.94494C0.809181 695.223 0.664852 695.249 0.519531 695.248Z" fill="#263238"/>
<path d="M30.4051 619.319C32.1829 620.159 33.7725 621.351 35.078 622.822C36.3835 624.294 37.3781 626.014 38.0017 627.881C39.2227 631.614 39.5659 635.58 39.0044 639.468C38.1536 646.996 33.8843 654.584 29.296 660.591C22.9604 655.071 21.517 645.384 21.0764 640.487C20.3927 632.686 23.9024 618.163 30.4658 619.319" fill="#FF6420"/>
<path d="M36.5883 673C36.1578 670.851 36.302 668.627 37.0064 666.552C37.7107 664.477 38.9502 662.625 40.5993 661.184C42.2727 659.776 44.2089 658.715 46.2955 658.062C48.382 657.41 50.5774 657.178 52.7539 657.382C53.7641 657.369 54.7648 657.578 55.6861 657.993C56.6073 658.408 57.4266 659.019 58.0868 659.785C58.5787 660.593 58.8465 661.518 58.8626 662.464C58.8786 663.41 58.6423 664.344 58.1779 665.168C57.2173 666.801 55.8513 668.158 54.2125 669.107C48.7277 672.544 42.7872 674.87 36.5883 673Z" fill="#FF6420"/>
<path d="M28.4746 696.069C28.499 695.555 28.5754 695.046 28.7025 694.548C28.9 693.468 29.1583 692.069 29.4622 690.381C30.1678 685.728 31.6197 681.219 33.7618 677.03C35.996 672.85 39.2992 669.339 43.3336 666.856C44.5625 666.13 45.8732 665.554 47.2383 665.138C47.6062 665.017 47.9818 664.92 48.3626 664.849C48.4932 664.825 48.6269 664.825 48.7576 664.849C46.9402 665.474 45.1894 666.279 43.5311 667.251C39.6354 669.786 36.4423 673.265 34.248 677.364C32.1429 681.466 30.6581 685.858 29.842 690.396C29.4622 692.145 29.1431 693.56 28.9 694.533C28.8067 695.057 28.6642 695.571 28.4746 696.069Z" fill="#263238"/>
<path d="M28.704 630.618C28.7632 630.836 28.7938 631.061 28.7952 631.287C28.7952 631.789 28.7952 632.443 28.9016 633.234C28.9927 634.921 29.0991 637.355 29.1902 640.366C29.3877 646.448 29.5397 654.721 29.4941 663.921C29.4485 673.121 29.2358 681.455 28.9927 687.477C28.856 690.518 28.7496 692.921 28.6433 694.609C28.6433 695.4 28.5369 696.038 28.5065 696.54C28.5029 696.77 28.4775 696.999 28.4306 697.224C28.3981 696.997 28.3981 696.767 28.4306 696.54C28.4306 696.038 28.4306 695.4 28.4306 694.594C28.4306 692.845 28.5217 690.427 28.5977 687.462C28.7496 681.379 28.9167 673.121 28.9471 663.921C28.9775 654.721 28.9471 646.403 28.7952 640.381C28.7952 637.415 28.7952 634.998 28.6888 633.234C28.6888 632.443 28.6888 631.804 28.6888 631.302C28.6805 631.074 28.6855 630.846 28.704 630.618Z" fill="#263238"/>
<path d="M25.6339 677.577C24.8694 673.023 23.0318 668.716 20.2735 665.014C17.5151 661.311 13.9154 658.32 9.77221 656.287C7.66035 655.284 4.89519 654.615 3.16316 656.196C1.43113 657.778 1.81096 660.591 2.66178 662.781C4.51308 667.318 7.6654 671.206 11.7212 673.953C15.777 676.7 20.5547 678.183 25.4516 678.216" fill="#FF6420"/>
<path d="M10.7899 663.404C11.2574 663.561 11.71 663.759 12.1421 663.997C12.663 664.237 13.1702 664.507 13.6614 664.803C14.2235 665.168 14.9072 665.503 15.5909 666.02C16.354 666.533 17.0893 667.086 17.7939 667.677C18.6165 668.349 19.4026 669.065 20.1489 669.821C21.8519 671.561 23.3506 673.489 24.6157 675.57C25.8515 677.669 26.8405 679.904 27.5632 682.23C27.8708 683.229 28.1194 684.244 28.3077 685.272C28.4846 686.182 28.6114 687.1 28.6875 688.024C28.7938 688.861 28.7635 689.636 28.7938 690.305C28.8356 690.877 28.8356 691.452 28.7938 692.024C28.7905 692.534 28.7397 693.043 28.6419 693.544C28.5052 693.544 28.7331 691.446 28.3532 688.115C28.2623 687.21 28.1151 686.311 27.9126 685.424C27.7083 684.397 27.4496 683.382 27.1378 682.382C26.3965 680.104 25.4134 677.912 24.2055 675.843C22.9541 673.805 21.4926 671.904 19.845 670.171C19.0702 669.396 18.3257 668.65 17.566 668.027C16.8064 667.403 16.0467 666.841 15.4238 666.339C12.6738 664.392 10.7443 663.511 10.7899 663.404Z" fill="#263238"/>
<path d="M378.193 81.9352L391.472 75.5787C395.145 64.3226 402.891 54.8485 413.188 49.0187C423.485 43.1889 435.589 41.4251 447.119 44.0739C458.65 46.7227 468.774 53.5926 475.5 63.3331C482.227 73.0737 485.071 84.9804 483.472 96.7129C481.873 108.445 475.947 119.155 466.86 126.736C457.772 134.318 446.18 138.223 434.362 137.684C422.544 137.145 411.355 132.201 402.994 123.824C394.632 115.447 389.704 104.242 389.178 92.4128L378.193 81.9352Z" fill="white"/>
<path d="M378.194 81.9352L378.862 82.6195L380.913 84.6268C382.782 86.4517 385.471 89.1129 389.057 92.5497C389.088 92.5785 389.128 92.5946 389.171 92.5946C389.213 92.5946 389.254 92.5785 389.285 92.5497H388.966C389.269 100.434 391.536 108.118 395.559 114.904C396.818 117.039 398.24 119.072 399.814 120.987C401.523 122.995 403.382 124.871 405.374 126.598C409.744 130.396 414.776 133.355 420.218 135.327C426.464 137.579 433.11 138.505 439.732 138.047C446.355 137.589 452.811 135.756 458.687 132.666C465.181 129.237 470.785 124.337 475.05 118.356C479.574 112.129 482.487 104.877 483.528 97.2486L483.908 94.3289L483.999 91.4091V89.8885L483.908 88.3678L483.741 85.4784C483.635 84.5204 483.452 83.5776 483.316 82.6195C483.193 81.6723 483.015 80.733 482.784 79.8062C482.365 77.9537 481.827 76.1302 481.173 74.3469C477.665 64.5373 471.04 56.1496 462.314 50.4693C453.587 44.7891 443.24 42.1298 432.859 42.8989C427.067 43.332 421.403 44.8215 416.146 47.2937C413.754 48.4209 411.453 49.7327 409.264 51.2171C407.271 52.6618 405.364 54.2206 403.551 55.8857C397.845 61.3361 393.598 68.1338 391.199 75.6547V75.5635L381.308 80.4145L378.816 81.6615L377.996 82.0721C377.996 82.0721 378.315 81.9504 378.892 81.6767L381.475 80.4753L391.336 75.9132C391.357 75.9067 391.377 75.895 391.393 75.879C391.409 75.8631 391.42 75.8435 391.427 75.822C393.886 68.4111 398.146 61.7277 403.825 56.3723C405.63 54.7437 407.527 53.2205 409.507 51.8102C411.677 50.3599 413.952 49.0738 416.313 47.9628C424.914 43.9814 434.512 42.6818 443.86 44.2331C453.208 45.7844 461.874 50.1148 468.73 56.6612C473.99 61.6382 478.057 67.7415 480.626 74.5142C481.242 76.2707 481.75 78.0634 482.146 79.8823C482.371 80.7993 482.543 81.7285 482.662 82.6651C482.799 83.5928 482.981 84.5204 483.072 85.4632L483.24 88.3221L483.331 89.7516V91.181L483.24 94.0552L482.875 96.9293C481.847 104.438 478.988 111.577 474.549 117.717C470.348 123.599 464.84 128.425 458.459 131.814C452.672 134.867 446.315 136.684 439.79 137.15C433.265 137.616 426.714 136.721 420.552 134.521C415.179 132.588 410.204 129.687 405.876 125.959C403.903 124.259 402.06 122.414 400.361 120.439C398.791 118.579 397.374 116.596 396.122 114.509C392.106 107.801 389.8 100.208 389.406 92.3976C389.406 92.3763 389.402 92.3552 389.393 92.3357C389.385 92.3162 389.372 92.2986 389.356 92.2843C389.341 92.27 389.322 92.2591 389.302 92.2524C389.282 92.2457 389.26 92.2434 389.239 92.2455C389.204 92.2474 389.171 92.2601 389.144 92.2819C389.116 92.3038 389.097 92.3336 389.087 92.3672L389.361 92.2912L381.156 84.5812L379.014 82.5891L378.194 81.9352Z" fill="#263238"/>
<path d="M436.627 120.607C452.075 120.607 464.598 108.072 464.598 92.6105C464.598 77.1488 452.075 64.6145 436.627 64.6145C421.179 64.6145 408.656 77.1488 408.656 92.6105C408.656 108.072 421.179 120.607 436.627 120.607Z" fill="#FF6420"/>
<path opacity="0.3" d="M436.627 120.607C452.075 120.607 464.598 108.072 464.598 92.6105C464.598 77.1488 452.075 64.6145 436.627 64.6145C421.179 64.6145 408.656 77.1488 408.656 92.6105C408.656 108.072 421.179 120.607 436.627 120.607Z" fill="black"/>
<path d="M447.211 115.405C461.51 109.553 468.362 93.2069 462.515 78.8954C456.668 64.5838 440.337 57.7261 426.038 63.5782C411.74 69.4303 404.888 85.7761 410.735 100.088C416.582 114.399 432.913 121.257 447.211 115.405Z" fill="#FF6420"/>
<path d="M449.884 102.784C457.2 95.4617 457.2 83.5898 449.884 76.2674C442.568 68.945 430.707 68.9449 423.391 76.2673C416.075 83.5898 416.075 95.4617 423.391 102.784C430.707 110.107 442.568 110.107 449.884 102.784Z" fill="white"/>
<path d="M436.626 98.6933C441.686 98.6933 445.788 94.5878 445.788 89.5235C445.788 84.4591 441.686 80.3536 436.626 80.3536C431.567 80.3536 427.465 84.4591 427.465 89.5235C427.465 94.5878 431.567 98.6933 436.626 98.6933Z" fill="#FF6420"/>
<path d="M456.119 69.0245L455.359 63.0481L461.437 56.5396L461.877 62.9873L456.119 69.0245Z" fill="#455A64"/>
<path d="M469.155 64.2647L463.002 63.7629L456.818 69.7088L463.002 70.3779L469.155 64.2647Z" fill="#455A64"/>
<path opacity="0.3" d="M437.857 89.3866L459.249 72.9935C458.441 71.8338 457.542 70.7405 456.56 69.724L437.857 87.9267V89.3866Z" fill="black"/>
<path d="M462.12 62.0901L453.414 70.8037L439.603 84.6269L436.428 87.8051C436.303 88.0172 436.251 88.265 436.282 88.5094C436.313 88.7539 436.424 88.9812 436.598 89.1554C436.772 89.3296 436.999 89.4409 437.244 89.4718C437.488 89.5027 437.735 89.4513 437.947 89.3258L446.714 80.597L460.524 66.7739L463.7 63.5956C464.703 62.592 463.138 61.0408 462.181 62.0749L462.12 62.0901Z" fill="#263238"/>
<path d="M301.559 103.848L307.423 39.538C308.335 23.4643 318.453 10.6448 334.467 11.983L335.986 12.1959C343.132 13.2285 349.628 16.9146 354.183 22.5215C358.737 28.1284 361.017 35.2454 360.569 42.4578C359.688 56.3874 358.548 71.7464 357.394 79.1218C354.887 94.2831 339.329 94.4656 339.329 94.4656C339.329 94.4656 338.281 103.788 337.81 108.304L335.88 118.797L328.04 114.828L301.559 103.848Z" fill="#FFBF9D"/>
<path d="M339.328 93.9334C332.275 92.8915 325.668 89.8463 320.291 85.159C320.291 85.159 323.421 97.3246 338.857 98.161L339.328 93.9334Z" fill="#FF9A6C"/>
<path d="M353.716 55.6119C353.636 56.1814 353.337 56.6973 352.883 57.0495C352.429 57.4018 351.855 57.5626 351.285 57.4975C351.005 57.4804 350.732 57.4072 350.481 57.2825C350.23 57.1577 350.006 56.9839 349.823 56.7713C349.641 56.5586 349.502 56.3115 349.417 56.0444C349.331 55.7774 349.3 55.4959 349.325 55.2165C349.401 54.6471 349.696 54.1299 350.147 53.7749C350.598 53.4199 351.17 53.2551 351.74 53.3156C352.022 53.3328 352.298 53.4063 352.55 53.5318C352.803 53.6573 353.028 53.8323 353.212 54.0464C353.397 54.2604 353.536 54.5092 353.622 54.7781C353.709 55.047 353.74 55.3305 353.716 55.6119Z" fill="#263238"/>
<path d="M356.285 48.1452C355.966 48.3885 354.492 46.9286 352.152 46.6245C349.812 46.3204 347.913 47.2176 347.7 46.883C347.488 46.5485 347.944 46.2747 348.764 45.8337C349.88 45.271 351.146 45.0742 352.38 45.2711C353.593 45.4204 354.727 45.9532 355.616 46.7918C356.269 47.4761 356.437 48.0235 356.285 48.1452Z" fill="#263238"/>
<path d="M333.252 52.8442C333.216 53.1298 333.124 53.4057 332.982 53.6559C332.84 53.9061 332.65 54.1258 332.422 54.3023C332.195 54.4789 331.935 54.6088 331.658 54.6848C331.381 54.7608 331.091 54.7813 330.806 54.745C330.525 54.7299 330.251 54.6582 329.999 54.5341C329.747 54.4101 329.522 54.2362 329.339 54.0231C329.156 53.81 329.018 53.562 328.933 53.2941C328.848 53.0261 328.819 52.7438 328.846 52.464C328.918 51.893 329.212 51.3734 329.664 51.0176C330.116 50.6619 330.69 50.4986 331.261 50.5631C331.543 50.5785 331.819 50.6501 332.072 50.7738C332.326 50.8975 332.552 51.0707 332.737 51.2834C332.923 51.496 333.064 51.7436 333.152 52.0117C333.241 52.2798 333.274 52.5628 333.252 52.8442Z" fill="#263238"/>
<path d="M333.249 45.3624C332.93 45.6057 331.457 44.1458 329.117 43.8417C326.777 43.5376 324.878 44.4348 324.665 44.1154C324.453 43.7961 324.908 43.4919 325.744 43.0509C326.858 42.4991 328.115 42.3027 329.345 42.4883C330.559 42.6476 331.695 43.1787 332.596 44.009C333.249 44.7085 333.356 45.256 333.249 45.3624Z" fill="#263238"/>
<path d="M339.023 64.6144C340.315 64.4195 341.626 64.3736 342.928 64.4775C343.536 64.4775 344.128 64.4775 344.28 64.0821C344.417 63.4687 344.369 62.8286 344.144 62.2421C343.779 60.7214 343.414 59.1095 343.019 57.4215C341.5 50.5631 340.497 44.967 340.771 44.9061C341.044 44.8453 342.503 50.3502 344.022 57.2086C344.387 58.8966 344.736 60.5085 345.055 62.0444C345.344 62.8192 345.344 63.6723 345.055 64.4471C344.938 64.6448 344.777 64.8133 344.584 64.9397C344.392 65.0662 344.174 65.1473 343.946 65.177C343.603 65.2152 343.256 65.2152 342.913 65.177C341.597 65.1647 340.289 64.9754 339.023 64.6144Z" fill="#263238"/>
<path d="M335.029 38.1238C334.618 38.6865 332.431 37.7285 329.665 37.257C326.9 36.7856 324.53 36.8921 324.348 36.2382C324.257 35.934 324.803 35.4626 325.867 35.1129C327.242 34.6994 328.695 34.6212 330.106 34.8848C331.508 35.1184 332.839 35.6698 333.995 36.4967C334.861 37.2266 335.211 37.8653 335.029 38.1238Z" fill="#263238"/>
<path d="M357.378 41.2565C356.831 41.7279 354.977 40.9219 352.683 40.6026C350.389 40.2832 348.383 40.4049 348.019 39.7814C347.852 39.4925 348.232 38.9906 349.143 38.5953C350.397 38.1166 351.756 37.9853 353.078 38.2151C354.4 38.3812 355.651 38.9072 356.694 39.7358C357.439 40.4353 357.636 41.0588 357.378 41.2565Z" fill="#263238"/>
<path d="M307.012 50.4263C306.769 50.2742 296.97 45.8642 295.8 56.2961C294.63 66.7281 305.402 65.8005 305.447 65.5116C305.493 65.2226 307.012 50.4263 307.012 50.4263Z" fill="#FFBF9D"/>
<path d="M302.697 61.1776C302.697 61.1776 302.5 61.2841 302.166 61.3905C301.711 61.5266 301.222 61.4831 300.798 61.2689C300.168 60.7617 299.684 60.0959 299.395 59.3396C299.107 58.5833 299.025 57.7638 299.157 56.9653C299.235 56.0649 299.51 55.1926 299.963 54.4105C300.097 54.0957 300.305 53.818 300.57 53.6009C300.834 53.3838 301.147 53.2338 301.482 53.1635C301.698 53.1276 301.92 53.1709 302.107 53.2854C302.294 53.3999 302.433 53.578 302.5 53.787C302.606 54.0912 302.5 54.2889 302.5 54.3193C302.5 54.3497 302.743 54.1672 302.713 53.7262C302.676 53.4609 302.553 53.215 302.363 53.0267C302.235 52.9005 302.083 52.8018 301.916 52.7364C301.749 52.6711 301.57 52.6405 301.391 52.6465C300.949 52.6797 300.523 52.8275 300.155 53.0755C299.788 53.3235 299.491 53.6631 299.294 54.0607C298.751 54.9178 298.423 55.8933 298.337 56.9044C298.17 59.0334 299.036 61.132 300.494 61.7403C300.767 61.8532 301.061 61.9036 301.356 61.8878C301.65 61.872 301.937 61.7904 302.196 61.649C302.637 61.4209 302.728 61.1928 302.697 61.1776Z" fill="#FF9A6C"/>
<path d="M383.1 30.201C382.961 29.5891 382.605 29.0486 382.097 28.6803C380.932 27.9905 379.607 27.6183 378.253 27.6006C374.919 27.1572 371.729 25.9612 368.925 24.103C370.019 23.7088 371.045 23.1443 371.964 22.4302C372.937 21.7164 373.696 20.7495 374.16 19.6343C374.623 18.5192 374.773 17.2983 374.592 16.1041C374.563 15.8813 374.486 15.6675 374.365 15.4782C374.244 15.2889 374.083 15.1287 373.893 15.0092C373.225 14.7203 372.556 15.3134 372.024 15.8C371.325 16.5507 370.438 17.1004 369.455 17.3919C368.471 17.6834 367.428 17.706 366.433 17.4576C365.045 17.2046 363.732 16.6434 362.589 15.8152C362.545 15.7623 362.504 15.7064 362.468 15.6479L361.055 13.8535C357.56 9.42829 354.522 6.32606 351.149 4.56206C345.319 1.64895 338.805 0.381896 332.309 0.897176C326.809 1.70315 321.522 5.45927 320.155 10.873C317.45 7.99883 312.968 7.51221 309.155 8.56149H309.063C304.84 9.54994 302.044 13.5798 300.373 17.5944C300.282 17.8073 300.206 18.0354 300.115 18.2483C298.497 20.2895 296.413 21.9115 294.037 22.9777C293.627 23.1602 293.141 23.3883 293.05 23.8293C293.035 24.0543 293.079 24.2793 293.177 24.4821C293.276 24.6848 293.426 24.8582 293.612 24.985C294.534 25.7632 295.62 26.3244 296.787 26.6274C296.317 27.5808 295.758 28.4871 295.116 29.3342C294.569 30.0489 293.931 30.8549 294.235 31.7673C294.381 32.0882 294.624 32.3556 294.929 32.5327C295.233 32.7097 295.586 32.7877 295.937 32.7558C296.637 32.6852 297.316 32.4676 297.927 32.1171L296.195 35.1585C297.641 35.5779 299.166 35.6508 300.646 35.3714C301.072 39.3404 300.905 46.5941 301.604 49.3314C304.369 49.6963 305.083 49.4682 306.435 50.0917C308.182 50.8977 307.119 54.0455 309.595 53.3916C310.841 53.0723 313.211 48.7231 313.758 47.537C317.354 39.6719 319.219 31.1253 319.228 22.4759C321.122 20.8873 323.304 19.679 325.654 18.9174L325.457 19.0543C329.909 18.0658 334.922 17.1534 338.766 19.617C341.805 21.5482 343.233 25.0306 345.284 27.92C347.005 30.5334 349.259 32.7522 351.899 34.4298C354.539 36.1074 357.504 37.2057 360.599 37.6524C360.675 42.3514 359.991 49.9397 359.718 54.2889L364.397 46.0619C364.747 45.5905 365.051 45.1038 365.354 44.6324L365.446 44.4804C365.907 43.6763 366.414 42.8995 366.965 42.1537C367.43 42.5432 368.011 42.7661 368.617 42.7871C369.223 42.808 369.818 42.6258 370.309 42.2694C370.799 41.913 371.157 41.4028 371.324 40.8198C371.492 40.2368 371.46 39.6144 371.234 39.0515C370.928 38.4893 370.539 37.9766 370.08 37.5308C370.551 38.099 371.161 38.537 371.85 38.8031C372.538 39.0693 373.284 39.1548 374.015 39.0515C374.742 38.9147 375.405 38.5433 375.901 37.9941C376.398 37.4449 376.701 36.7481 376.765 36.0101C376.764 35.5081 376.631 35.0151 376.381 34.5802C376.13 34.1453 375.77 33.7837 375.336 33.5313C377.221 33.8978 379.172 33.6967 380.943 32.9535C382.128 32.4973 383.389 31.6153 383.1 30.201Z" fill="#263238"/>
<path d="M324.788 13.1388C324.193 13.5093 323.624 13.9209 323.086 14.3706C321.709 15.7029 320.699 17.3686 320.154 19.2064C319.746 20.4572 319.466 21.7463 319.319 23.0537C319.151 24.468 319.091 26.0039 319.015 27.6158C318.969 29.3067 318.817 30.9929 318.559 32.6645C318.411 33.5509 318.197 34.4252 317.921 35.2801C317.67 36.1985 317.195 37.0399 316.538 37.7285C316.237 37.9966 315.872 38.1822 315.478 38.2675C315.084 38.3528 314.674 38.3347 314.29 38.2151C313.555 37.9825 312.916 37.5184 312.466 36.8921C311.767 35.6493 311.411 34.2428 311.433 32.8166L311.752 32.8927C311.159 34.0094 310.407 35.034 309.519 35.934C308.669 36.7621 307.53 37.2257 306.343 37.2266C305.806 37.2119 305.281 37.0545 304.824 36.7704C304.393 36.4804 304.06 36.067 303.867 35.5843C303.692 35.14 303.635 34.6582 303.7 34.1852C303.769 33.7406 303.995 33.3357 304.338 33.0447L304.475 33.212C303.446 34.1554 302.229 34.8706 300.904 35.3106C300.449 35.4626 300.084 35.5387 299.841 35.5995C299.715 35.6194 299.587 35.6194 299.461 35.5995L299.826 35.493C300.053 35.417 300.418 35.3258 300.859 35.1585C302.146 34.6843 303.324 33.955 304.323 33.0143L304.475 33.1664C304.187 33.4627 303.997 33.8409 303.932 34.2491C303.866 34.6574 303.929 35.0759 304.11 35.4474C304.297 35.8704 304.596 36.2335 304.976 36.4967C305.405 36.7481 305.892 36.8843 306.389 36.8921C307.492 36.8724 308.547 36.4319 309.337 35.6603C310.192 34.7849 310.919 33.7914 311.494 32.7102L311.767 32.254V32.7862C311.755 34.1475 312.095 35.4887 312.755 36.6792C313.157 37.2439 313.734 37.6607 314.396 37.8653C314.72 37.9711 315.067 37.9889 315.401 37.9168C315.735 37.8446 316.043 37.6852 316.295 37.4547C316.908 36.8097 317.347 36.0196 317.571 35.1585C317.848 34.3242 318.061 33.4702 318.209 32.6037C318.474 30.9429 318.632 29.2666 318.68 27.5854C318.772 26.0647 318.848 24.4528 319.015 23.0233C319.183 21.6941 319.484 20.3849 319.911 19.1151C320.481 17.2594 321.529 15.5864 322.95 14.2641C323.494 13.7867 324.116 13.4061 324.788 13.1388Z" fill="#455A64"/>
<path d="M370.551 33.4553L370.415 33.5466L370.004 33.7899C369.782 33.9221 369.548 34.034 369.306 34.1244C369.017 34.2461 368.698 34.3982 368.318 34.5198C366.154 35.2125 363.852 35.3587 361.618 34.9456C358.293 34.3393 355.212 32.7872 352.745 30.4748C349.782 27.6171 347.431 24.1871 345.832 20.3925C344.936 18.4004 344.313 16.3931 343.431 14.5226C342.718 12.6995 341.746 10.9888 340.545 9.44352C339.456 8.05944 338.041 6.96739 336.427 6.26526C335.693 5.95897 334.912 5.77902 334.118 5.73302C333.39 5.68728 332.658 5.74358 331.945 5.90029C330.711 6.15872 329.546 6.6771 328.527 7.42099C327.761 7.99763 327.089 8.69026 326.537 9.47393C326.092 10.1653 325.74 10.9116 325.488 11.6941C325.488 11.6941 325.488 11.6942 325.488 11.5269L325.61 11.0707C325.799 10.4837 326.06 9.92196 326.385 9.3979C326.925 8.58193 327.597 7.86231 328.375 7.26892C329.399 6.46713 330.587 5.90117 331.854 5.61136C332.592 5.45122 333.348 5.3848 334.103 5.41367C334.926 5.46681 335.735 5.64632 336.503 5.94592C338.212 6.66725 339.707 7.81363 340.849 9.27624C342.109 10.8249 343.133 12.5519 343.887 14.401C344.693 16.3019 345.407 18.294 346.288 20.2709C347.839 24.0159 350.122 27.4128 353.003 30.2619C355.418 32.547 358.432 34.0976 361.694 34.7327C363.89 35.162 366.158 35.0525 368.303 34.4134C369.069 34.1345 369.82 33.8147 370.551 33.4553Z" fill="#455A64"/>
<path d="M372.753 26.9011C372.561 27.0275 372.358 27.1345 372.145 27.2204C371.591 27.4801 371.017 27.6938 370.428 27.8591C369.553 28.1179 368.659 28.3061 367.754 28.4218C365.527 28.6871 363.269 28.5009 361.115 27.8743C360.237 27.6255 359.383 27.2998 358.562 26.9011C358.006 26.6351 357.473 26.3249 356.967 25.9735C356.767 25.8619 356.583 25.7238 356.42 25.5629C356.42 25.5629 357.256 26.0495 358.669 26.6578C359.485 27.0201 360.329 27.32 361.191 27.555C362.252 27.8302 363.335 28.0184 364.427 28.1176C365.524 28.2096 366.627 28.2096 367.724 28.1176C368.616 28.0276 369.499 27.87 370.367 27.6462C371.811 27.2356 372.753 26.8402 372.753 26.9011Z" fill="#455A64"/>
<path d="M338.068 71.7769C337.977 71.3815 335.409 72.0962 332.978 70.393C330.547 68.6899 330.076 65.831 329.711 65.9374C329.347 66.0438 329.377 66.6978 329.711 67.8535C330.104 69.3707 331.019 70.7007 332.294 71.6096C333.521 72.4755 335.033 72.8349 336.518 72.6133C337.566 72.4156 338.128 71.9441 338.068 71.7769Z" fill="#263238"/>
<path d="M266.917 94.4961C263.81 93.2814 260.409 93.0307 257.158 93.7766C253.906 94.5224 250.954 96.2302 248.685 98.678C240.618 107.331 210.9 165.163 206.98 176.081C200.553 194.026 214.425 209.37 225.972 209.993C237.518 210.617 282.703 196.079 282.703 196.079L272.858 170.136L243.991 172.432L266.401 127.48L266.917 94.4961Z" fill="#455A64"/>
<path d="M316.324 145.409C316.324 145.409 327.446 201.827 332.733 206.389C338.02 210.951 379.832 229.701 379.832 229.701L392.366 209.309L359.078 189.038L358.926 146.2C358.577 134.125 353.745 126.552 348.215 122.507L316.324 145.409Z" fill="#455A64"/>
<path d="M339.845 106.951L332.248 116.698L327.629 104.624L301.057 87.364L293.308 94.8002C293.308 94.8002 263.514 95.3781 261.584 96.838C257.3 100.077 249.43 148.374 249.43 148.374L234.328 239.464C233.052 243.114 245.723 245.669 253.061 247.463L320.671 257.15C320.671 257.15 328.723 259.066 331.002 254.108C332.841 250.109 336.685 208.047 340.574 185.069C341.607 178.986 342.534 157.27 342.534 157.27L350.055 123.678L341.911 117.595L339.845 106.951Z" fill="#455A64"/>
<path d="M254.489 151.674C254.195 152.777 253.767 153.84 253.213 154.837C252.316 156.753 251.04 159.399 249.597 162.228C248.153 165.056 246.786 167.672 245.783 169.527C245.308 170.566 244.706 171.542 243.99 172.432C244.306 171.334 244.739 170.274 245.282 169.269C246.163 167.353 247.439 164.707 248.882 161.878C250.326 159.05 251.693 156.449 252.696 154.594C253.186 153.558 253.787 152.579 254.489 151.674Z" fill="#263238"/>
<path d="M326.109 104.928C325.29 106.004 324.396 107.02 323.435 107.969C321.703 109.81 319.226 112.38 316.309 115.36L316.081 115.588L315.808 115.39C313.924 113.961 311.888 112.349 309.73 110.6C305.066 106.707 301.07 102.997 298.259 100.107C296.862 98.7085 295.752 97.5375 295.008 96.7011C294.585 96.3066 294.217 95.8564 293.914 95.3629C294.388 95.691 294.826 96.0682 295.221 96.4882L298.654 99.7121C301.541 102.419 305.598 106.114 310.247 109.992C312.313 111.726 314.334 113.353 316.187 114.813H315.701C318.664 111.862 321.216 109.369 323.039 107.62C323.988 106.641 325.015 105.741 326.109 104.928Z" fill="#263238"/>
<path d="M346.681 137.076C346.632 141.222 346.323 145.362 345.754 149.469C345.459 153.608 344.891 157.723 344.053 161.787C344.101 157.635 344.411 153.491 344.98 149.378C345.274 145.244 345.842 141.134 346.681 137.076Z" fill="#263238"/>
<path d="M377.082 202.466C377.082 202.466 385.378 188.49 387.125 189.053C388.872 189.616 389.768 193.22 388.72 195.896C387.672 198.573 384.739 209.309 384.739 209.309L377.082 202.466Z" fill="#FFBF9D"/>
<path d="M379.849 445.686L371.614 482.867C371.614 482.867 407.06 501.009 406.209 508.019L333.145 497.374L343.613 438.904L379.849 445.686Z" fill="#455A64"/>
<path d="M349.737 475.583C348.995 475.672 348.313 476.032 347.82 476.593C347.327 477.154 347.057 477.877 347.063 478.624C347.125 479.378 347.475 480.079 348.042 480.581C348.608 481.083 349.346 481.346 350.101 481.316C350.883 481.222 351.602 480.843 352.121 480.25C352.639 479.658 352.921 478.895 352.912 478.107C352.767 477.346 352.338 476.668 351.711 476.213C351.084 475.758 350.307 475.56 349.539 475.659" fill="white"/>
<path d="M333.145 497.359L334.208 491.459L404.401 504.233C405.088 504.729 405.64 505.39 406.006 506.155C406.372 506.921 406.541 507.765 406.497 508.612L333.145 497.359Z" fill="white"/>
<path d="M372.861 482.715C372.785 483.065 370.977 482.897 369.032 483.719C367.087 484.54 365.872 485.863 365.568 485.665C365.264 485.467 366.176 483.506 368.607 482.624C371.038 481.742 372.998 482.411 372.861 482.715Z" fill="#263238"/>
<path d="M379.894 487.277C379.894 487.627 378.268 487.946 376.78 489.223C375.291 490.501 374.668 492.037 374.318 491.945C373.969 491.854 374.106 489.816 375.974 488.265C377.843 486.714 379.94 486.927 379.894 487.277Z" fill="#263238"/>
<path d="M382.537 497.268C382.203 497.268 382.036 495.428 383.297 493.649C384.558 491.869 386.335 491.398 386.472 491.733C386.609 492.067 385.348 492.904 384.33 494.379C383.312 495.854 382.902 497.268 382.537 497.268Z" fill="#263238"/>
<path d="M373.801 474.032C373.589 474.336 372.054 473.545 370.018 473.302C367.982 473.058 366.311 473.423 366.19 473.074C366.068 472.724 367.785 471.751 370.185 472.055C372.586 472.359 374.029 473.788 373.801 474.032Z" fill="#263238"/>
<path d="M378.208 453.046L376.75 459.676L341.137 452.772L342.185 446.75L378.208 453.046Z" fill="black"/>
<path d="M263.666 512.946L258.956 550.736C258.956 550.736 295.951 565.471 295.754 572.542L222.006 568.741L226.898 509.586L263.666 512.946Z" fill="#455A64"/>
<path d="M236.501 545.535C235.777 545.691 235.135 546.107 234.696 546.703C234.257 547.3 234.05 548.036 234.115 548.774C234.239 549.506 234.639 550.162 235.233 550.607C235.827 551.051 236.569 551.25 237.306 551.161C238.077 551 238.761 550.557 239.224 549.919C239.687 549.281 239.897 548.494 239.813 547.709C239.596 546.963 239.102 546.329 238.432 545.936C237.763 545.543 236.968 545.421 236.212 545.596" fill="white"/>
<path d="M222.006 568.741L222.507 562.78L293.581 568.862C294.314 569.296 294.928 569.906 295.369 570.635C295.809 571.365 296.061 572.193 296.103 573.044L222.006 568.741Z" fill="white"/>
<path d="M260.17 550.492C260.17 550.842 258.316 550.842 256.447 551.846C254.579 552.849 253.5 554.279 253.196 554.096C252.892 553.914 253.591 551.907 255.87 550.736C258.149 549.565 260.322 550.143 260.17 550.492Z" fill="#263238"/>
<path d="M267.6 554.355C267.6 554.705 266.081 555.176 264.698 556.59C263.315 558.005 262.844 559.632 262.495 559.525C262.146 559.419 262.085 557.427 263.802 555.708C265.518 553.99 267.63 554.005 267.6 554.355Z" fill="#263238"/>
<path d="M271.171 563.981C270.836 563.981 270.487 562.186 271.596 560.301C272.705 558.415 274.437 557.776 274.635 558.096C274.832 558.415 273.632 559.358 272.751 560.924C271.87 562.491 271.535 563.981 271.171 563.981Z" fill="#263238"/>
<path d="M260.323 541.733C260.156 542.052 258.546 541.414 256.51 541.368C254.474 541.323 252.818 541.824 252.666 541.505C252.514 541.186 254.185 539.984 256.54 540.106C258.895 540.228 260.506 541.475 260.323 541.733Z" fill="#263238"/>
<path d="M262.724 520.428L261.888 527.165L225.789 523.622L226.275 517.539L262.724 520.428Z" fill="black"/>
<path d="M227.914 67.6935C229.627 52.2426 218.501 38.3276 203.064 36.6136C187.627 34.8996 173.724 46.0356 172.012 61.4866C170.299 76.9376 181.425 90.8526 196.862 92.5666C212.299 94.2806 226.202 83.1445 227.914 67.6935Z" fill="#FF6420"/>
<path d="M542.218 389.846L514.156 324.638L226.715 51.3843L188.777 93.3403L474.699 364.526L542.218 389.846Z" fill="#FF6420"/>
<path d="M474.699 364.526C475.14 361.743 477.556 359.797 480.199 360.785C478.766 358.565 478.065 355.952 478.193 353.312C478.322 350.672 479.274 348.139 480.916 346.07C482.558 344 484.807 342.498 487.347 341.774C489.886 341.05 492.588 341.141 495.073 342.035C494.542 339.48 494.698 336.83 495.526 334.355C496.353 331.88 497.823 329.669 499.784 327.949C501.745 326.229 504.127 325.062 506.687 324.565C509.247 324.069 511.893 324.262 514.354 325.125L542.218 389.846L474.699 364.526Z" fill="white"/>
<path d="M530.93 363.614C530.93 363.614 517.696 360.572 514.566 379.475L542.218 389.846L530.93 363.614Z" fill="#263238"/>
<path opacity="0.3" d="M495.073 342.035L210.062 73.5256L227.992 52.6769L514.156 324.638L514.354 325.125C512.296 324.389 510.097 324.139 507.927 324.395C505.065 324.727 502.357 325.866 500.117 327.68C497.388 329.902 495.564 333.043 494.982 336.515C494.669 338.345 494.701 340.217 495.073 342.035Z" fill="black"/>
<path opacity="0.3" d="M480.2 360.785L193.564 88.2004L188.809 93.7206L474.7 364.405C474.817 363.3 475.341 362.278 476.169 361.539C476.998 360.799 478.072 360.395 479.182 360.405C479.532 360.5 479.873 360.628 480.2 360.785Z" fill="black"/>
<path d="M510.161 346.095C510.097 345.978 510.011 345.874 509.906 345.791C509.802 345.707 509.682 345.645 509.554 345.609C509.189 345.503 508.797 345.539 508.457 345.707C508.117 345.876 507.852 346.167 507.715 346.521C507.345 347.689 507.345 348.942 507.715 350.11C507.893 350.84 508.297 351.495 508.87 351.98C509.176 352.256 509.548 352.449 509.949 352.539C510.351 352.63 510.769 352.616 511.164 352.498C511.584 352.32 511.962 352.057 512.273 351.724C512.584 351.391 512.823 350.997 512.972 350.566C513.344 349.621 513.58 348.628 513.671 347.616C513.947 345.381 513.756 343.113 513.109 340.955C512.954 340.386 512.68 339.856 512.305 339.4C511.931 338.944 511.464 338.572 510.936 338.309C510.357 338.111 509.738 338.058 509.134 338.157C508.529 338.255 507.959 338.5 507.472 338.872C506.523 339.787 505.765 340.883 505.243 342.094C504.722 343.306 504.446 344.609 504.433 345.928C504.225 348.501 504.727 351.081 505.884 353.388C507.042 355.694 508.81 357.638 510.997 359.006C511.492 359.27 512.042 359.417 512.603 359.435C513.164 359.454 513.721 359.343 514.233 359.113C515.195 358.625 516.028 357.916 516.664 357.044C517.826 355.461 518.748 353.713 519.399 351.859C520.344 349.156 520.746 346.293 520.584 343.434C520.508 342.415 520.401 341.64 520.31 341.123C520.219 340.606 520.189 340.317 520.189 340.317C520.469 341.31 520.653 342.329 520.736 343.358C520.96 346.246 520.593 349.149 519.657 351.889C519.015 353.78 518.093 355.564 516.922 357.181C516.257 358.103 515.382 358.854 514.37 359.371C513.811 359.625 513.201 359.747 512.587 359.728C511.974 359.71 511.373 359.551 510.83 359.265C508.569 357.872 506.738 355.881 505.54 353.511C504.341 351.141 503.821 348.484 504.038 345.837C504.134 344.451 504.437 343.088 504.935 341.792C505.39 340.498 506.201 339.36 507.275 338.507C507.811 338.094 508.443 337.822 509.112 337.716C509.78 337.609 510.465 337.672 511.103 337.899C511.682 338.178 512.194 338.58 512.603 339.076C513.012 339.572 513.309 340.151 513.473 340.773C514.129 342.986 514.315 345.312 514.02 347.601C513.927 348.647 513.676 349.672 513.276 350.642C513.108 351.112 512.842 351.54 512.496 351.899C512.151 352.258 511.733 352.54 511.27 352.726C510.832 352.846 510.37 352.855 509.927 352.751C509.484 352.647 509.073 352.435 508.733 352.133C508.135 351.598 507.716 350.892 507.533 350.11C507.182 348.896 507.225 347.603 507.654 346.415C507.813 346.038 508.107 345.734 508.478 345.563C508.849 345.391 509.27 345.364 509.66 345.487C510.116 345.746 510.161 346.111 510.161 346.095Z" fill="white"/>
<path d="M502.821 374.426C502.821 374.426 503.171 373.696 503.52 372.297C503.977 370.3 504.028 368.232 503.672 366.214C503.123 363.235 502.225 360.331 500.998 357.562C499.432 354.159 498.437 350.521 498.05 346.795C497.881 343.01 498.833 339.259 500.785 336.013C502.381 333.38 504.605 331.186 507.258 329.626C509.029 328.57 510.965 327.819 512.985 327.406C513.72 327.243 514.467 327.146 515.219 327.117L514.657 327.224C514.277 327.224 513.715 327.376 513.016 327.543C511.033 328.022 509.136 328.807 507.394 329.87C504.805 331.434 502.64 333.612 501.089 336.211C499.198 339.395 498.279 343.064 498.445 346.765C498.825 350.446 499.8 354.041 501.332 357.409C502.555 360.207 503.432 363.143 503.945 366.153C504.269 368.179 504.176 370.248 503.672 372.236C503.488 373.001 503.202 373.738 502.821 374.426Z" fill="white"/>
<path d="M487.158 369.529C488.431 368.897 489.422 367.813 489.939 366.488C490.97 363.191 491.482 359.754 491.458 356.299C491.541 352.843 491.307 349.387 490.759 345.974C490.546 344.666 490.334 343.617 490.197 342.932C490.094 342.559 490.028 342.178 489.999 341.792C489.999 341.792 490.136 342.187 490.349 342.902C490.561 343.617 490.789 344.666 491.033 345.943C492.005 351.258 492.128 356.694 491.397 362.048C491.231 363.614 490.848 365.149 490.258 366.61C489.844 367.604 489.159 368.463 488.283 369.088C487.938 369.304 487.557 369.453 487.158 369.529Z" fill="white"/>
<path d="M482.524 344.468C482.893 345.155 483.188 345.879 483.405 346.628C484.076 348.423 484.336 350.345 484.165 352.254C484.081 353.22 483.784 354.154 483.295 354.99C482.807 355.827 482.138 356.544 481.339 357.09C480.849 357.409 480.302 357.631 479.728 357.744C479.333 357.82 479.105 357.744 479.105 357.744C479.844 357.548 480.547 357.235 481.187 356.816C481.921 356.267 482.531 355.569 482.977 354.767C483.422 353.965 483.692 353.077 483.77 352.163C483.926 350.315 483.714 348.454 483.147 346.688C482.895 345.962 482.687 345.22 482.524 344.468Z" fill="white"/>
<path d="M511.771 378.654L511.65 378.334C511.574 378.121 511.452 377.817 511.346 377.422C511.182 376.932 511.11 376.417 511.133 375.901C511.216 375.21 511.461 374.548 511.847 373.97C512.779 372.48 513.794 371.043 514.886 369.666C516.118 367.913 517.206 366.062 518.137 364.131C519.784 360.592 521.141 356.925 522.194 353.167C522.574 351.92 522.908 350.794 523.212 349.76C523.318 349.335 523.455 348.918 523.622 348.513C523.568 348.95 523.482 349.382 523.364 349.806C523.166 350.612 522.862 351.798 522.467 353.243C521.475 357.045 520.142 360.75 518.487 364.313C517.553 366.265 516.444 368.128 515.175 369.879C513.989 371.491 512.804 372.829 512.045 374.107C511.702 374.575 511.47 375.116 511.367 375.688C511.264 376.26 511.294 376.848 511.452 377.407C511.587 377.814 511.694 378.231 511.771 378.654Z" fill="white"/>
<path d="M215.142 39.5508L175.156 79.8105C174.594 80.3764 174.597 81.2911 175.162 81.8536L187.564 94.1934C188.13 94.7559 189.044 94.7532 189.606 94.1874L229.591 53.9277C230.153 53.3618 230.15 52.4471 229.585 51.8846L217.183 39.5448C216.617 38.9823 215.704 38.985 215.142 39.5508Z" fill="#E0E0E0"/>
<path d="M229.602 53.939C229.674 53.8314 229.74 53.7197 229.8 53.6045C229.888 53.4348 229.941 53.2485 229.954 53.0574C229.967 52.8663 229.941 52.6746 229.876 52.4944C229.724 52.0078 229.131 51.6428 228.615 51.0801L226.716 49.2401L221.519 44.1762L218.283 41.0587L217.417 40.1919C217.181 39.8949 216.873 39.6644 216.521 39.5228C216.353 39.4723 216.176 39.4598 216.002 39.4861C215.829 39.5124 215.664 39.5769 215.518 39.6749C215.26 39.8726 214.926 40.268 214.622 40.5569C204.564 50.7304 190.738 64.7208 175.454 80.095C175.278 80.2714 175.172 80.5043 175.152 80.7522C175.133 81.0001 175.202 81.2468 175.347 81.4484C175.697 81.859 176.259 82.3761 176.715 82.8323L179.556 85.6608L185.086 91.2417L187.79 93.9334C187.946 94.1097 188.155 94.2304 188.385 94.2771C188.616 94.3238 188.855 94.2938 189.067 94.1919C189.166 94.1386 189.258 94.0721 189.34 93.9942L189.674 93.6596L190.328 93.0058L195.433 87.881L213.224 70.1193L225.211 58.2274L228.417 55.0187L229.283 54.2128L229.602 53.939C229.53 54.056 229.443 54.1633 229.344 54.2584L228.524 55.1404L225.379 58.4403L213.573 70.5146C208.544 75.5938 202.589 81.6309 195.98 88.3372C194.324 90.01 192.637 91.7284 190.89 93.4772L190.237 94.1311L189.918 94.4656C189.775 94.6074 189.611 94.7255 189.431 94.8154C189.076 94.9878 188.676 95.0425 188.288 94.9713C187.9 94.9002 187.545 94.7071 187.274 94.42L184.569 91.7284L179.024 86.2234L176.183 83.3949C175.697 82.8931 175.256 82.5129 174.663 81.8742C174.416 81.5174 174.3 81.0855 174.337 80.6526C174.373 80.2197 174.558 79.8129 174.861 79.502L214.196 40.0703C214.507 39.7374 214.837 39.4226 215.184 39.1274C215.406 38.9826 215.657 38.8885 215.92 38.8517C216.182 38.8149 216.45 38.8364 216.703 38.9145C217.129 39.0951 217.505 39.3769 217.797 39.7357L218.648 40.6025L221.838 43.8264L226.943 48.9968L228.797 50.8824C229.298 51.4603 229.876 51.8405 230.043 52.4031C230.101 52.6031 230.118 52.8129 230.091 53.0196C230.065 53.2263 229.997 53.4253 229.891 53.6045C229.826 53.7399 229.727 53.8555 229.602 53.939Z" fill="#263238"/>
<path d="M179.98 75.5482C182.621 77.5395 185.1 79.7361 187.395 82.1176C189.876 84.3168 192.183 86.7065 194.292 89.2649C191.639 87.2784 189.149 85.0815 186.848 82.6955C184.376 80.4964 182.079 78.1067 179.98 75.5482Z" fill="#263238"/>
<path d="M194.734 59.7329C197.498 61.766 200.137 63.9649 202.635 66.3175C205.295 68.4683 207.831 70.7682 210.231 73.2063C207.33 71.3759 204.612 69.2675 202.118 66.9106C199.44 64.7524 196.968 62.3495 194.734 59.7329Z" fill="#263238"/>
<path d="M227.34 56.0528C224.636 54.0705 222.095 51.8736 219.743 49.4834C217.19 47.2849 214.813 44.8901 212.633 42.3209C215.332 44.3149 217.872 46.5164 220.229 48.9055C222.78 51.1012 225.157 53.4907 227.34 56.0528Z" fill="#263238"/>
<path d="M319.152 143.599C319.152 143.599 305.615 145.12 301.558 145.637C297.501 146.154 292.047 147.325 290.148 150.549C289.373 151.857 277.507 169.238 277.507 169.238L272.949 170.516L280.196 190.467L292.457 184.385C292.457 184.385 296.62 179.701 299.948 175.26C303.275 170.82 304.278 169.178 304.278 169.178C304.278 169.178 316.432 169.74 318.878 167.657C319.262 167.224 319.514 166.691 319.606 166.12C319.697 165.549 319.624 164.964 319.395 164.433L306.177 163.277C306.177 163.277 320.55 163.277 322.889 161.65C323.086 161.509 323.273 161.357 323.452 161.194C323.751 160.873 323.95 160.47 324.024 160.037C324.098 159.604 324.044 159.158 323.868 158.755C323.692 158.353 323.402 158.01 323.033 157.771C322.665 157.531 322.235 157.405 321.795 157.407L306.314 157.301C306.314 157.301 324.09 155.689 324.545 153.697C324.606 153.375 324.646 153.05 324.667 152.724C324.686 152.422 324.642 152.12 324.538 151.837C324.433 151.554 324.27 151.295 324.06 151.079C323.849 150.863 323.596 150.693 323.316 150.581C323.036 150.468 322.735 150.416 322.434 150.427L307.924 150.884C307.924 150.884 321.963 148.648 322.099 146.671C322.373 142.946 319.152 143.599 319.152 143.599Z" fill="#FFBF9D"/>
<path d="M227.414 182.149C229.293 179.41 231.753 177.121 234.618 175.444C237.484 173.766 240.684 172.743 243.99 172.447L273.526 169.299L282.368 196.976L239.948 208.031" fill="#455A64"/>
<path d="M239.948 208.031C240.197 207.899 240.463 207.802 240.739 207.742L243.078 207.073L251.875 204.671L282.262 196.611L282.003 197.098L276.701 180.552C275.485 176.735 274.3 172.949 273.146 169.421L273.556 169.695L254.017 171.717L245.631 172.584C243.227 172.712 240.85 173.162 238.566 173.922C235.297 175.029 232.324 176.871 229.875 179.305C228.174 181.039 227.49 182.195 227.414 182.149C227.559 181.857 227.726 181.578 227.915 181.313C228.447 180.539 229.036 179.807 229.678 179.123C232.093 176.561 235.082 174.612 238.399 173.435C240.712 172.615 243.123 172.104 245.57 171.915L253.941 170.987L273.48 168.858H273.799L273.89 169.162C275.045 172.736 276.23 176.462 277.445 180.279C279.299 186.072 281.077 191.653 282.717 196.824L282.839 197.219L282.459 197.31L252.073 205.096L243.23 207.286L240.845 207.849C240.553 207.939 240.253 208 239.948 208.031Z" fill="#263238"/>
<path d="M385.79 201.994C385.79 201.994 394.283 199.09 396.531 200.626C397.935 201.623 398.996 203.031 399.57 204.655C399.57 204.655 404.766 204.655 403.216 210.115C403.216 210.115 407.774 211.042 406.392 216.35C406.392 216.35 409.734 216.258 408.139 220.668C406.544 225.078 399.722 233.838 398.157 235.009C394.921 237.457 394.024 233.579 394.814 231.967C395.604 230.355 400.102 222.022 400.102 222.022C400.102 222.022 392.368 234.187 389.755 232.165C388.236 231.009 388.585 229.215 390.56 225.641C391.928 223.162 394.434 218.266 394.434 218.266L388.357 225.778C388.106 226.098 387.767 226.338 387.383 226.47C386.998 226.603 386.584 226.621 386.189 226.523C385.794 226.425 385.436 226.215 385.158 225.918C384.879 225.621 384.693 225.251 384.62 224.85C384.511 224.076 384.616 223.287 384.924 222.569C386.181 219.694 387.707 216.945 389.482 214.357L384.544 219.208C384.282 219.468 383.968 219.67 383.623 219.801C383.278 219.931 382.909 219.988 382.541 219.966C382.172 219.944 381.813 219.846 381.485 219.676C381.157 219.506 380.869 219.269 380.639 218.98C380.297 218.597 380.078 218.119 380.011 217.609C379.943 217.1 380.03 216.581 380.259 216.121C381.611 213.399 389.147 205.477 389.147 205.477L385.79 201.994Z" fill="#FFBF9D"/>
<path d="M239.463 241.928C239.463 241.928 232.413 277.36 239.584 292.795C246.755 308.23 265.565 315.605 285.164 321.688C311.312 329.702 356.496 354.596 356.496 354.596C356.496 354.596 350.647 380.448 346.788 395.837C343.081 410.664 332.719 464.634 332.719 464.634L380.258 471.203L414.155 349.106C414.155 349.106 423.62 324.03 403.048 311.591C385.424 300.946 323.101 258.823 323.101 258.823L318.27 247.646L239.463 241.928Z" fill="#263238"/>
<path d="M240.329 284.112L249.171 304.413L237.138 400.825C237.138 400.825 226.837 432.517 224.558 449.244C222.279 465.972 217.25 533.339 217.25 533.339H263.848C263.848 533.339 271.08 451.373 285.118 426.753C296.133 407.364 303.608 373.62 304.064 371.415C304.52 369.21 320.777 315.149 320.777 315.149L297.987 268.266L240.329 284.112Z" fill="#263238"/>
<path d="M372.905 343.297C369.9 344.774 366.979 346.413 364.153 348.209C361.504 350.238 358.968 352.411 356.557 354.718C357.011 353.823 357.611 353.011 358.334 352.315C359.962 350.538 361.781 348.947 363.758 347.571C365.734 346.189 367.859 345.036 370.094 344.134C370.977 343.698 371.927 343.415 372.905 343.297Z" fill="#455A64"/>
<path d="M380.229 471.188L379.393 471.112L376.947 470.808L367.512 469.576L332.659 464.892H332.37V464.603C335.059 450.507 338.28 433.733 342.109 415.089C343.066 410.421 344.069 405.646 345.148 400.78L348.627 385.892C351.012 375.78 353.473 365.287 355.996 354.52L356.193 354.946C352.714 353.045 348.946 351.053 345.148 349.061C334.512 343.526 324.12 338.416 313.895 333.641C304.117 329.015 294.053 325.018 283.767 321.673C273.891 318.632 264.547 315.21 256.556 310.526C252.666 308.317 249.089 305.596 245.921 302.436C243.001 299.499 240.651 296.044 238.992 292.248C237.624 288.746 236.779 285.062 236.486 281.314C236.318 279.55 236.166 277.831 236.151 276.174C236.136 274.516 236.151 272.889 236.151 271.323C236.251 265.994 236.631 260.674 237.291 255.386C237.807 251.037 238.354 247.676 238.81 245.41C239.023 244.285 239.19 243.433 239.311 242.825C239.433 242.217 239.509 241.958 239.509 241.958C239.509 241.958 239.509 242.262 239.387 242.84C239.266 243.418 239.16 244.361 238.977 245.425C238.628 247.706 238.126 251.082 237.655 255.432C237.184 259.781 236.713 265.118 236.653 271.338C236.653 272.859 236.653 274.501 236.744 276.143C236.835 277.786 236.926 279.504 237.108 281.253C237.413 284.947 238.263 288.575 239.631 292.019C241.271 295.744 243.596 299.128 246.483 301.995C249.619 305.106 253.155 307.786 256.996 309.964C264.942 314.526 274.241 317.917 284.101 320.974C294.424 324.307 304.523 328.299 314.336 332.926C324.576 337.64 335.044 342.826 345.634 348.361C349.447 350.353 353.23 352.346 356.694 354.262L356.968 354.398L356.892 354.687C354.355 365.469 351.878 375.977 349.493 386.075L345.998 400.947C344.889 405.798 343.887 410.573 342.96 415.226C339.101 433.855 335.819 450.628 333.054 464.71L332.826 464.391L367.634 469.318L377.053 470.686L379.499 471.051C379.955 471.112 380.229 471.188 380.229 471.188Z" fill="#455A64"/>
</g>
<defs>
<clipPath id="clip0_884_2837">
<rect width="628" height="698" fill="white"/>
</clipPath>
</defs>
</svg>
