<svg width="940" height="1105" viewBox="0 0 940 1105" fill="none" xmlns="http://www.w3.org/2000/svg">
<circle cx="416.5" cy="261.5" r="261.5" fill="url(#paint0_radial_10123_23875)"/>
<path d="M27.216 110.304V116.88H18.288V144H10.08V116.88H1.152V110.304H27.216ZM35.4634 114.432C34.0234 114.432 32.8394 114.016 31.9114 113.184C31.0154 112.32 30.5674 111.264 30.5674 110.016C30.5674 108.736 31.0154 107.68 31.9114 106.848C32.8394 105.984 34.0234 105.552 35.4634 105.552C36.8714 105.552 38.0234 105.984 38.9194 106.848C39.8474 107.68 40.3114 108.736 40.3114 110.016C40.3114 111.264 39.8474 112.32 38.9194 113.184C38.0234 114.016 36.8714 114.432 35.4634 114.432ZM39.5434 117.216V144H31.3354V117.216H39.5434ZM79.6676 116.928C82.9956 116.928 85.6356 117.936 87.5876 119.952C89.5716 121.968 90.5636 124.768 90.5636 128.352V144H82.4036V129.456C82.4036 127.728 81.9396 126.4 81.0116 125.472C80.1156 124.512 78.8676 124.032 77.2676 124.032C75.6676 124.032 74.4036 124.512 73.4756 125.472C72.5796 126.4 72.1316 127.728 72.1316 129.456V144H63.9716V129.456C63.9716 127.728 63.5076 126.4 62.5796 125.472C61.6836 124.512 60.4356 124.032 58.8356 124.032C57.2356 124.032 55.9716 124.512 55.0436 125.472C54.1476 126.4 53.6996 127.728 53.6996 129.456V144H45.4916V117.216H53.6996V120.576C54.5316 119.456 55.6196 118.576 56.9636 117.936C58.3076 117.264 59.8276 116.928 61.5236 116.928C63.5396 116.928 65.3316 117.36 66.8996 118.224C68.4996 119.088 69.7476 120.32 70.6436 121.92C71.5716 120.448 72.8356 119.248 74.4356 118.32C76.0356 117.392 77.7796 116.928 79.6676 116.928ZM121.552 130.176C121.552 130.944 121.504 131.744 121.408 132.576H102.832C102.96 134.24 103.488 135.52 104.416 136.416C105.376 137.28 106.544 137.712 107.92 137.712C109.968 137.712 111.392 136.848 112.192 135.12H120.928C120.48 136.88 119.664 138.464 118.48 139.872C117.328 141.28 115.872 142.384 114.112 143.184C112.352 143.984 110.384 144.384 108.208 144.384C105.584 144.384 103.248 143.824 101.2 142.704C99.1521 141.584 97.5521 139.984 96.4001 137.904C95.2481 135.824 94.6721 133.392 94.6721 130.608C94.6721 127.824 95.2321 125.392 96.3521 123.312C97.5041 121.232 99.1041 119.632 101.152 118.512C103.2 117.392 105.552 116.832 108.208 116.832C110.8 116.832 113.104 117.376 115.12 118.464C117.136 119.552 118.704 121.104 119.824 123.12C120.976 125.136 121.552 127.488 121.552 130.176ZM113.152 128.016C113.152 126.608 112.672 125.488 111.712 124.656C110.752 123.824 109.552 123.408 108.112 123.408C106.736 123.408 105.568 123.808 104.608 124.608C103.68 125.408 103.104 126.544 102.88 128.016H113.152ZM134.09 108.48V144H125.882V108.48H134.09ZM144.167 114.432C142.727 114.432 141.543 114.016 140.615 113.184C139.719 112.32 139.271 111.264 139.271 110.016C139.271 108.736 139.719 107.68 140.615 106.848C141.543 105.984 142.727 105.552 144.167 105.552C145.575 105.552 146.727 105.984 147.623 106.848C148.551 107.68 149.015 108.736 149.015 110.016C149.015 111.264 148.551 112.32 147.623 113.184C146.727 114.016 145.575 114.432 144.167 114.432ZM148.247 117.216V144H140.039V117.216H148.247ZM170.515 116.928C173.651 116.928 176.147 117.952 178.003 120C179.891 122.016 180.835 124.8 180.835 128.352V144H172.675V129.456C172.675 127.664 172.211 126.272 171.283 125.28C170.355 124.288 169.107 123.792 167.539 123.792C165.971 123.792 164.723 124.288 163.795 125.28C162.867 126.272 162.403 127.664 162.403 129.456V144H154.195V117.216H162.403V120.768C163.235 119.584 164.355 118.656 165.763 117.984C167.171 117.28 168.755 116.928 170.515 116.928ZM211.786 130.176C211.786 130.944 211.739 131.744 211.643 132.576H193.067C193.195 134.24 193.723 135.52 194.651 136.416C195.611 137.28 196.779 137.712 198.155 137.712C200.203 137.712 201.627 136.848 202.427 135.12H211.163C210.715 136.88 209.899 138.464 208.715 139.872C207.563 141.28 206.107 142.384 204.347 143.184C202.587 143.984 200.619 144.384 198.443 144.384C195.819 144.384 193.483 143.824 191.435 142.704C189.387 141.584 187.787 139.984 186.635 137.904C185.483 135.824 184.907 133.392 184.907 130.608C184.907 127.824 185.467 125.392 186.587 123.312C187.739 121.232 189.339 119.632 191.387 118.512C193.435 117.392 195.787 116.832 198.443 116.832C201.035 116.832 203.339 117.376 205.355 118.464C207.371 119.552 208.939 121.104 210.059 123.12C211.211 125.136 211.786 127.488 211.786 130.176ZM203.387 128.016C203.387 126.608 202.907 125.488 201.947 124.656C200.987 123.824 199.787 123.408 198.347 123.408C196.971 123.408 195.803 123.808 194.843 124.608C193.915 125.408 193.339 126.544 193.115 128.016H203.387Z" fill="#262626"/>
<path d="M595.168 144.336C592.704 144.336 590.496 143.936 588.544 143.136C586.592 142.336 585.024 141.152 583.84 139.584C582.688 138.016 582.08 136.128 582.016 133.92H590.752C590.88 135.168 591.312 136.128 592.048 136.8C592.784 137.44 593.744 137.76 594.928 137.76C596.144 137.76 597.104 137.488 597.808 136.944C598.512 136.368 598.864 135.584 598.864 134.592C598.864 133.76 598.576 133.072 598 132.528C597.456 131.984 596.768 131.536 595.936 131.184C595.136 130.832 593.984 130.432 592.48 129.984C590.304 129.312 588.528 128.64 587.152 127.968C585.776 127.296 584.592 126.304 583.6 124.992C582.608 123.68 582.112 121.968 582.112 119.856C582.112 116.72 583.248 114.272 585.52 112.512C587.792 110.72 590.752 109.824 594.4 109.824C598.112 109.824 601.104 110.72 603.376 112.512C605.648 114.272 606.864 116.736 607.024 119.904H598.144C598.08 118.816 597.68 117.968 596.944 117.36C596.208 116.72 595.264 116.4 594.112 116.4C593.12 116.4 592.32 116.672 591.712 117.216C591.104 117.728 590.8 118.48 590.8 119.472C590.8 120.56 591.312 121.408 592.336 122.016C593.36 122.624 594.96 123.28 597.136 123.984C599.312 124.72 601.072 125.424 602.416 126.096C603.792 126.768 604.976 127.744 605.968 129.024C606.96 130.304 607.456 131.952 607.456 133.968C607.456 135.888 606.96 137.632 605.968 139.2C605.008 140.768 603.6 142.016 601.744 142.944C599.888 143.872 597.696 144.336 595.168 144.336ZM610.875 130.56C610.875 127.808 611.387 125.392 612.411 123.312C613.467 121.232 614.891 119.632 616.683 118.512C618.475 117.392 620.475 116.832 622.683 116.832C624.571 116.832 626.219 117.216 627.627 117.984C629.067 118.752 630.171 119.76 630.939 121.008V117.216H639.147V144H630.939V140.208C630.139 141.456 629.019 142.464 627.579 143.232C626.171 144 624.523 144.384 622.635 144.384C620.459 144.384 618.475 143.824 616.683 142.704C614.891 141.552 613.467 139.936 612.411 137.856C611.387 135.744 610.875 133.312 610.875 130.56ZM630.939 130.608C630.939 128.56 630.363 126.944 629.211 125.76C628.091 124.576 626.715 123.984 625.083 123.984C623.451 123.984 622.059 124.576 620.907 125.76C619.787 126.912 619.227 128.512 619.227 130.56C619.227 132.608 619.787 134.24 620.907 135.456C622.059 136.64 623.451 137.232 625.083 137.232C626.715 137.232 628.091 136.64 629.211 135.456C630.363 134.272 630.939 132.656 630.939 130.608ZM660.013 137.04V144H655.837C652.861 144 650.541 143.28 648.877 141.84C647.213 140.368 646.381 137.984 646.381 134.688V124.032H643.117V117.216H646.381V110.688H654.589V117.216H659.965V124.032H654.589V134.784C654.589 135.584 654.781 136.16 655.165 136.512C655.549 136.864 656.189 137.04 657.085 137.04H660.013ZM691.033 117.216V144H682.825V140.352C681.993 141.536 680.857 142.496 679.417 143.232C678.009 143.936 676.441 144.288 674.713 144.288C672.665 144.288 670.857 143.84 669.289 142.944C667.721 142.016 666.505 140.688 665.641 138.96C664.777 137.232 664.345 135.2 664.345 132.864V117.216H672.505V131.76C672.505 133.552 672.969 134.944 673.897 135.936C674.825 136.928 676.073 137.424 677.641 137.424C679.241 137.424 680.505 136.928 681.433 135.936C682.361 134.944 682.825 133.552 682.825 131.76V117.216H691.033ZM719.293 144.336C716.829 144.336 714.621 143.936 712.669 143.136C710.717 142.336 709.149 141.152 707.965 139.584C706.813 138.016 706.205 136.128 706.141 133.92H714.877C715.005 135.168 715.437 136.128 716.173 136.8C716.909 137.44 717.869 137.76 719.053 137.76C720.269 137.76 721.229 137.488 721.933 136.944C722.637 136.368 722.989 135.584 722.989 134.592C722.989 133.76 722.701 133.072 722.125 132.528C721.581 131.984 720.893 131.536 720.061 131.184C719.261 130.832 718.109 130.432 716.605 129.984C714.429 129.312 712.653 128.64 711.277 127.968C709.901 127.296 708.717 126.304 707.725 124.992C706.733 123.68 706.237 121.968 706.237 119.856C706.237 116.72 707.373 114.272 709.645 112.512C711.917 110.72 714.877 109.824 718.525 109.824C722.237 109.824 725.229 110.72 727.501 112.512C729.773 114.272 730.989 116.736 731.149 119.904H722.269C722.205 118.816 721.805 117.968 721.069 117.36C720.333 116.72 719.389 116.4 718.237 116.4C717.245 116.4 716.445 116.672 715.837 117.216C715.229 117.728 714.925 118.48 714.925 119.472C714.925 120.56 715.437 121.408 716.461 122.016C717.485 122.624 719.085 123.28 721.261 123.984C723.437 124.72 725.197 125.424 726.541 126.096C727.917 126.768 729.101 127.744 730.093 129.024C731.085 130.304 731.581 131.952 731.581 133.968C731.581 135.888 731.085 137.632 730.093 139.2C729.133 140.768 727.725 142.016 725.869 142.944C724.013 143.872 721.821 144.336 719.293 144.336ZM761.88 130.176C761.88 130.944 761.832 131.744 761.736 132.576H743.16C743.288 134.24 743.816 135.52 744.744 136.416C745.704 137.28 746.872 137.712 748.248 137.712C750.296 137.712 751.72 136.848 752.52 135.12H761.256C760.808 136.88 759.992 138.464 758.808 139.872C757.656 141.28 756.2 142.384 754.44 143.184C752.68 143.984 750.712 144.384 748.536 144.384C745.912 144.384 743.576 143.824 741.528 142.704C739.48 141.584 737.88 139.984 736.728 137.904C735.576 135.824 735 133.392 735 130.608C735 127.824 735.56 125.392 736.68 123.312C737.832 121.232 739.432 119.632 741.48 118.512C743.528 117.392 745.88 116.832 748.536 116.832C751.128 116.832 753.432 117.376 755.448 118.464C757.464 119.552 759.032 121.104 760.152 123.12C761.304 125.136 761.88 127.488 761.88 130.176ZM753.48 128.016C753.48 126.608 753 125.488 752.04 124.656C751.08 123.824 749.88 123.408 748.44 123.408C747.064 123.408 745.896 123.808 744.936 124.608C744.008 125.408 743.432 126.544 743.208 128.016H753.48ZM800.386 116.928C803.714 116.928 806.354 117.936 808.306 119.952C810.29 121.968 811.282 124.768 811.282 128.352V144H803.122V129.456C803.122 127.728 802.658 126.4 801.73 125.472C800.834 124.512 799.586 124.032 797.986 124.032C796.386 124.032 795.122 124.512 794.194 125.472C793.298 126.4 792.85 127.728 792.85 129.456V144H784.69V129.456C784.69 127.728 784.226 126.4 783.298 125.472C782.402 124.512 781.154 124.032 779.554 124.032C777.954 124.032 776.69 124.512 775.762 125.472C774.866 126.4 774.418 127.728 774.418 129.456V144H766.21V117.216H774.418V120.576C775.25 119.456 776.338 118.576 777.682 117.936C779.026 117.264 780.546 116.928 782.242 116.928C784.258 116.928 786.05 117.36 787.618 118.224C789.218 119.088 790.466 120.32 791.362 121.92C792.29 120.448 793.554 119.248 795.154 118.32C796.754 117.392 798.498 116.928 800.386 116.928ZM842.271 130.176C842.271 130.944 842.223 131.744 842.127 132.576H823.551C823.679 134.24 824.207 135.52 825.135 136.416C826.095 137.28 827.263 137.712 828.639 137.712C830.687 137.712 832.111 136.848 832.911 135.12H841.647C841.199 136.88 840.383 138.464 839.199 139.872C838.047 141.28 836.591 142.384 834.831 143.184C833.071 143.984 831.103 144.384 828.927 144.384C826.303 144.384 823.967 143.824 821.919 142.704C819.871 141.584 818.271 139.984 817.119 137.904C815.967 135.824 815.391 133.392 815.391 130.608C815.391 127.824 815.951 125.392 817.071 123.312C818.223 121.232 819.823 119.632 821.871 118.512C823.919 117.392 826.271 116.832 828.927 116.832C831.519 116.832 833.823 117.376 835.839 118.464C837.855 119.552 839.423 121.104 840.543 123.12C841.695 125.136 842.271 127.488 842.271 130.176ZM833.871 128.016C833.871 126.608 833.391 125.488 832.431 124.656C831.471 123.824 830.271 123.408 828.831 123.408C827.455 123.408 826.287 123.808 825.327 124.608C824.399 125.408 823.823 126.544 823.599 128.016H833.871ZM857.497 144.384C855.161 144.384 853.081 143.984 851.257 143.184C849.433 142.384 847.993 141.296 846.937 139.92C845.881 138.512 845.289 136.944 845.161 135.216H853.273C853.369 136.144 853.801 136.896 854.569 137.472C855.337 138.048 856.281 138.336 857.401 138.336C858.425 138.336 859.209 138.144 859.753 137.76C860.329 137.344 860.617 136.816 860.617 136.176C860.617 135.408 860.217 134.848 859.417 134.496C858.617 134.112 857.321 133.696 855.529 133.248C853.609 132.8 852.009 132.336 850.729 131.856C849.449 131.344 848.345 130.56 847.417 129.504C846.489 128.416 846.025 126.96 846.025 125.136C846.025 123.6 846.441 122.208 847.273 120.96C848.137 119.68 849.385 118.672 851.017 117.936C852.681 117.2 854.649 116.832 856.921 116.832C860.281 116.832 862.921 117.664 864.841 119.328C866.793 120.992 867.913 123.2 868.201 125.952H860.617C860.489 125.024 860.073 124.288 859.369 123.744C858.697 123.2 857.801 122.928 856.681 122.928C855.721 122.928 854.985 123.12 854.473 123.504C853.961 123.856 853.705 124.352 853.705 124.992C853.705 125.76 854.105 126.336 854.905 126.72C855.737 127.104 857.017 127.488 858.745 127.872C860.729 128.384 862.345 128.896 863.593 129.408C864.841 129.888 865.929 130.688 866.857 131.808C867.817 132.896 868.313 134.368 868.345 136.224C868.345 137.792 867.897 139.2 867.001 140.448C866.137 141.664 864.873 142.624 863.209 143.328C861.577 144.032 859.673 144.384 857.497 144.384ZM888.295 137.04V144H884.119C881.143 144 878.823 143.28 877.159 141.84C875.495 140.368 874.663 137.984 874.663 134.688V124.032H871.399V117.216H874.663V110.688H882.871V117.216H888.247V124.032H882.871V134.784C882.871 135.584 883.063 136.16 883.447 136.512C883.831 136.864 884.471 137.04 885.367 137.04H888.295ZM918.115 130.176C918.115 130.944 918.067 131.744 917.971 132.576H899.395C899.523 134.24 900.051 135.52 900.979 136.416C901.939 137.28 903.107 137.712 904.483 137.712C906.531 137.712 907.955 136.848 908.755 135.12H917.491C917.043 136.88 916.227 138.464 915.043 139.872C913.891 141.28 912.435 142.384 910.675 143.184C908.915 143.984 906.947 144.384 904.771 144.384C902.147 144.384 899.811 143.824 897.763 142.704C895.715 141.584 894.115 139.984 892.963 137.904C891.811 135.824 891.235 133.392 891.235 130.608C891.235 127.824 891.795 125.392 892.915 123.312C894.067 121.232 895.667 119.632 897.715 118.512C899.763 117.392 902.115 116.832 904.771 116.832C907.363 116.832 909.667 117.376 911.683 118.464C913.699 119.552 915.267 121.104 916.387 123.12C917.539 125.136 918.115 127.488 918.115 130.176ZM909.715 128.016C909.715 126.608 909.235 125.488 908.275 124.656C907.315 123.824 906.115 123.408 904.675 123.408C903.299 123.408 902.131 123.808 901.171 124.608C900.243 125.408 899.667 126.544 899.443 128.016H909.715ZM930.653 121.68C931.613 120.208 932.813 119.056 934.253 118.224C935.693 117.36 937.293 116.928 939.053 116.928V125.616H936.797C934.749 125.616 933.213 126.064 932.189 126.96C931.165 127.824 930.653 129.36 930.653 131.568V144H922.445V117.216H930.653V121.68Z" fill="#262626"/>
<rect x="374" y="182" width="85" height="923" rx="42.5" fill="url(#paint1_linear_10123_23875)" fill-opacity="0.3"/>
<path d="M418 279.997C417.999 279.168 417.326 278.498 416.498 278.499C415.669 278.5 414.999 279.173 415 280.001L418 279.997ZM415 280.001L415.014 289.876L418.014 289.872L418 279.997L415 280.001ZM415.043 309.626L415.072 329.376L418.072 329.372L418.043 309.622L415.043 309.626ZM415.1 349.126L415.129 368.876L418.129 368.872L418.1 349.122L415.1 349.126ZM415.157 388.626L415.186 408.376L418.186 408.372L418.157 388.622L415.157 388.626ZM415.215 428.126L415.243 447.876L418.243 447.872L418.215 428.122L415.215 428.126ZM415.272 467.626L415.301 487.376L418.301 487.372L418.272 467.622L415.272 467.626ZM415.329 507.126L415.358 526.876L418.358 526.872L418.329 507.122L415.329 507.126ZM415.386 546.626L415.415 566.376L418.415 566.372L418.386 546.622L415.386 546.626ZM415.444 586.126L415.472 605.876L418.472 605.872L418.444 586.122L415.444 586.126ZM415.501 625.626L415.53 645.376L418.53 645.372L418.501 625.622L415.501 625.626ZM415.558 665.126L415.587 684.876L418.587 684.872L418.558 665.122L415.558 665.126ZM415.615 704.626L415.644 724.376L418.644 724.372L418.615 704.622L415.615 704.626ZM415.673 744.126L415.701 763.876L418.701 763.872L418.673 744.122L415.673 744.126ZM415.73 783.626L415.759 803.376L418.759 803.371L418.73 783.621L415.73 783.626ZM415.787 823.126L415.816 842.876L418.816 842.871L418.787 823.121L415.787 823.126ZM415.844 862.626L415.873 882.376L418.873 882.371L418.844 862.621L415.844 862.626ZM415.902 902.126L415.93 921.876L418.93 921.871L418.902 902.121L415.902 902.126ZM415.959 941.626L415.988 961.376L418.987 961.371L418.959 941.621L415.959 941.626ZM416.016 981.126L416.045 1000.88L419.045 1000.87L419.016 981.121L416.016 981.126ZM416.073 1020.63L416.102 1040.38L419.102 1040.37L419.073 1020.62L416.073 1020.63ZM416.131 1060.13L416.145 1070L419.145 1070L419.131 1060.12L416.131 1060.13Z" fill="#FF6420"/>
<circle cx="417" cy="370" r="20" fill="#FF6420" stroke="#FFA680" stroke-width="10"/>
<path d="M510.137 363.308C509.897 362.3 509.477 361.544 508.877 361.04C508.301 360.536 507.461 360.284 506.357 360.284C504.701 360.284 503.477 360.956 502.685 362.3C501.917 363.62 501.521 365.78 501.497 368.78C502.073 367.82 502.913 367.076 504.017 366.548C505.121 365.996 506.321 365.72 507.617 365.72C509.177 365.72 510.557 366.056 511.757 366.728C512.957 367.4 513.893 368.384 514.565 369.68C515.237 370.952 515.573 372.488 515.573 374.288C515.573 375.992 515.225 377.516 514.529 378.86C513.857 380.18 512.861 381.212 511.541 381.956C510.221 382.7 508.649 383.072 506.825 383.072C504.329 383.072 502.361 382.52 500.921 381.416C499.505 380.312 498.509 378.776 497.933 376.808C497.381 374.816 497.105 372.368 497.105 369.464C497.105 365.072 497.861 361.76 499.373 359.528C500.885 357.272 503.273 356.144 506.537 356.144C509.057 356.144 511.013 356.828 512.405 358.196C513.797 359.564 514.601 361.268 514.817 363.308H510.137ZM506.465 369.86C505.193 369.86 504.125 370.232 503.261 370.976C502.397 371.72 501.965 372.8 501.965 374.216C501.965 375.632 502.361 376.748 503.153 377.564C503.969 378.38 505.109 378.788 506.573 378.788C507.869 378.788 508.889 378.392 509.633 377.6C510.401 376.808 510.785 375.74 510.785 374.396C510.785 373.004 510.413 371.9 509.669 371.084C508.949 370.268 507.881 369.86 506.465 369.86ZM522.365 383.252C521.453 383.252 520.697 382.976 520.097 382.424C519.521 381.848 519.233 381.14 519.233 380.3C519.233 379.46 519.521 378.764 520.097 378.212C520.697 377.636 521.453 377.348 522.365 377.348C523.253 377.348 523.985 377.636 524.561 378.212C525.137 378.764 525.425 379.46 525.425 380.3C525.425 381.14 525.137 381.848 524.561 382.424C523.985 382.976 523.253 383.252 522.365 383.252ZM550.16 383.252C548.408 383.252 546.824 382.952 545.408 382.352C544.016 381.752 542.912 380.888 542.096 379.76C541.28 378.632 540.86 377.3 540.836 375.764H546.236C546.308 376.796 546.668 377.612 547.316 378.212C547.988 378.812 548.9 379.112 550.052 379.112C551.228 379.112 552.152 378.836 552.824 378.284C553.496 377.708 553.832 376.964 553.832 376.052C553.832 375.308 553.604 374.696 553.148 374.216C552.692 373.736 552.116 373.364 551.42 373.1C550.748 372.812 549.812 372.5 548.612 372.164C546.98 371.684 545.648 371.216 544.616 370.76C543.608 370.28 542.732 369.572 541.988 368.636C541.268 367.676 540.908 366.404 540.908 364.82C540.908 363.332 541.28 362.036 542.024 360.932C542.768 359.828 543.812 358.988 545.156 358.412C546.5 357.812 548.036 357.512 549.764 357.512C552.356 357.512 554.456 358.148 556.064 359.42C557.696 360.668 558.596 362.42 558.764 364.676H553.22C553.172 363.812 552.8 363.104 552.104 362.552C551.432 361.976 550.532 361.688 549.404 361.688C548.42 361.688 547.628 361.94 547.028 362.444C546.452 362.948 546.164 363.68 546.164 364.64C546.164 365.312 546.38 365.876 546.812 366.332C547.268 366.764 547.82 367.124 548.468 367.412C549.14 367.676 550.076 367.988 551.276 368.348C552.908 368.828 554.24 369.308 555.272 369.788C556.304 370.268 557.192 370.988 557.936 371.948C558.68 372.908 559.052 374.168 559.052 375.728C559.052 377.072 558.704 378.32 558.008 379.472C557.312 380.624 556.292 381.548 554.948 382.244C553.604 382.916 552.008 383.252 550.16 383.252ZM565.978 360.68C565.09 360.68 564.346 360.404 563.746 359.852C563.17 359.276 562.882 358.568 562.882 357.728C562.882 356.888 563.17 356.192 563.746 355.64C564.346 355.064 565.09 354.776 565.978 354.776C566.866 354.776 567.598 355.064 568.174 355.64C568.774 356.192 569.074 356.888 569.074 357.728C569.074 358.568 568.774 359.276 568.174 359.852C567.598 360.404 566.866 360.68 565.978 360.68ZM568.462 363.056V383H563.422V363.056H568.462ZM572.145 372.956C572.145 370.94 572.541 369.152 573.333 367.592C574.149 366.032 575.253 364.832 576.645 363.992C578.037 363.152 579.585 362.732 581.289 362.732C582.585 362.732 583.821 363.02 584.997 363.596C586.173 364.148 587.109 364.892 587.805 365.828V356.36H592.917V383H587.805V380.048C587.181 381.032 586.305 381.824 585.177 382.424C584.049 383.024 582.741 383.324 581.253 383.324C579.573 383.324 578.037 382.892 576.645 382.028C575.253 381.164 574.149 379.952 573.333 378.392C572.541 376.808 572.145 374.996 572.145 372.956ZM587.841 373.028C587.841 371.804 587.601 370.76 587.121 369.896C586.641 369.008 585.993 368.336 585.177 367.88C584.361 367.4 583.485 367.16 582.549 367.16C581.613 367.16 580.749 367.388 579.957 367.844C579.165 368.3 578.517 368.972 578.013 369.86C577.533 370.724 577.293 371.756 577.293 372.956C577.293 374.156 577.533 375.212 578.013 376.124C578.517 377.012 579.165 377.696 579.957 378.176C580.773 378.656 581.637 378.896 582.549 378.896C583.485 378.896 584.361 378.668 585.177 378.212C585.993 377.732 586.641 377.06 587.121 376.196C587.601 375.308 587.841 374.252 587.841 373.028ZM596.543 372.956C596.543 370.94 596.939 369.152 597.731 367.592C598.547 366.032 599.639 364.832 601.007 363.992C602.399 363.152 603.947 362.732 605.651 362.732C607.139 362.732 608.435 363.032 609.539 363.632C610.667 364.232 611.567 364.988 612.239 365.9V363.056H617.315V383H612.239V380.084C611.591 381.02 610.691 381.8 609.539 382.424C608.411 383.024 607.103 383.324 605.615 383.324C603.935 383.324 602.399 382.892 601.007 382.028C599.639 381.164 598.547 379.952 597.731 378.392C596.939 376.808 596.543 374.996 596.543 372.956ZM612.239 373.028C612.239 371.804 611.999 370.76 611.519 369.896C611.039 369.008 610.391 368.336 609.575 367.88C608.759 367.4 607.883 367.16 606.947 367.16C606.011 367.16 605.147 367.388 604.355 367.844C603.563 368.3 602.915 368.972 602.411 369.86C601.931 370.724 601.691 371.756 601.691 372.956C601.691 374.156 601.931 375.212 602.411 376.124C602.915 377.012 603.563 377.696 604.355 378.176C605.171 378.656 606.035 378.896 606.947 378.896C607.883 378.896 608.759 378.668 609.575 378.212C610.391 377.732 611.039 377.06 611.519 376.196C611.999 375.308 612.239 374.252 612.239 373.028ZM633.29 362.768C635.666 362.768 637.586 363.524 639.05 365.036C640.514 366.524 641.246 368.612 641.246 371.3V383H636.206V371.984C636.206 370.4 635.81 369.188 635.018 368.348C634.226 367.484 633.146 367.052 631.778 367.052C630.386 367.052 629.282 367.484 628.466 368.348C627.674 369.188 627.278 370.4 627.278 371.984V383H622.238V363.056H627.278V365.54C627.95 364.676 628.802 364.004 629.834 363.524C630.89 363.02 632.042 362.768 633.29 362.768ZM653.851 362.732C655.339 362.732 656.647 363.032 657.775 363.632C658.903 364.208 659.791 364.964 660.439 365.9V363.056H665.515V383.144C665.515 384.992 665.143 386.636 664.399 388.076C663.655 389.54 662.539 390.692 661.051 391.532C659.563 392.396 657.763 392.828 655.651 392.828C652.819 392.828 650.491 392.168 648.667 390.848C646.867 389.528 645.847 387.728 645.607 385.448H650.611C650.875 386.36 651.439 387.08 652.303 387.608C653.191 388.16 654.259 388.436 655.507 388.436C656.971 388.436 658.159 387.992 659.071 387.104C659.983 386.24 660.439 384.92 660.439 383.144V380.048C659.791 380.984 658.891 381.764 657.739 382.388C656.611 383.012 655.315 383.324 653.851 383.324C652.171 383.324 650.635 382.892 649.243 382.028C647.851 381.164 646.747 379.952 645.931 378.392C645.139 376.808 644.743 374.996 644.743 372.956C644.743 370.94 645.139 369.152 645.931 367.592C646.747 366.032 647.839 364.832 649.207 363.992C650.599 363.152 652.147 362.732 653.851 362.732ZM660.439 373.028C660.439 371.804 660.199 370.76 659.719 369.896C659.239 369.008 658.591 368.336 657.775 367.88C656.959 367.4 656.083 367.16 655.147 367.16C654.211 367.16 653.347 367.388 652.555 367.844C651.763 368.3 651.115 368.972 650.611 369.86C650.131 370.724 649.891 371.756 649.891 372.956C649.891 374.156 650.131 375.212 650.611 376.124C651.115 377.012 651.763 377.696 652.555 378.176C653.371 378.656 654.235 378.896 655.147 378.896C656.083 378.896 656.959 378.668 657.775 378.212C658.591 377.732 659.239 377.06 659.719 376.196C660.199 375.308 660.439 374.252 660.439 373.028ZM687.691 383.252C685.939 383.252 684.355 382.952 682.939 382.352C681.547 381.752 680.443 380.888 679.627 379.76C678.811 378.632 678.391 377.3 678.367 375.764H683.767C683.839 376.796 684.199 377.612 684.847 378.212C685.519 378.812 686.431 379.112 687.583 379.112C688.759 379.112 689.683 378.836 690.355 378.284C691.027 377.708 691.363 376.964 691.363 376.052C691.363 375.308 691.135 374.696 690.679 374.216C690.223 373.736 689.647 373.364 688.951 373.1C688.279 372.812 687.343 372.5 686.143 372.164C684.511 371.684 683.179 371.216 682.147 370.76C681.139 370.28 680.263 369.572 679.519 368.636C678.799 367.676 678.439 366.404 678.439 364.82C678.439 363.332 678.811 362.036 679.555 360.932C680.299 359.828 681.343 358.988 682.687 358.412C684.031 357.812 685.567 357.512 687.295 357.512C689.887 357.512 691.987 358.148 693.595 359.42C695.227 360.668 696.127 362.42 696.295 364.676H690.751C690.703 363.812 690.331 363.104 689.635 362.552C688.963 361.976 688.063 361.688 686.935 361.688C685.951 361.688 685.159 361.94 684.559 362.444C683.983 362.948 683.695 363.68 683.695 364.64C683.695 365.312 683.911 365.876 684.343 366.332C684.799 366.764 685.351 367.124 685.999 367.412C686.671 367.676 687.607 367.988 688.807 368.348C690.439 368.828 691.771 369.308 692.803 369.788C693.835 370.268 694.723 370.988 695.467 371.948C696.211 372.908 696.583 374.168 696.583 375.728C696.583 377.072 696.235 378.32 695.539 379.472C694.843 380.624 693.823 381.548 692.479 382.244C691.135 382.916 689.539 383.252 687.691 383.252ZM712.761 383L705.993 374.504V383H700.953V356.36H705.993V371.516L712.689 363.056H719.241L710.457 373.064L719.313 383H712.761ZM727.016 366.152C727.664 365.096 728.504 364.268 729.536 363.668C730.592 363.068 731.792 362.768 733.136 362.768V368.06H731.804C730.22 368.06 729.02 368.432 728.204 369.176C727.412 369.92 727.016 371.216 727.016 373.064V383H721.976V363.056H727.016V366.152ZM739.087 360.68C738.199 360.68 737.455 360.404 736.855 359.852C736.279 359.276 735.991 358.568 735.991 357.728C735.991 356.888 736.279 356.192 736.855 355.64C737.455 355.064 738.199 354.776 739.087 354.776C739.975 354.776 740.707 355.064 741.283 355.64C741.883 356.192 742.183 356.888 742.183 357.728C742.183 358.568 741.883 359.276 741.283 359.852C740.707 360.404 739.975 360.68 739.087 360.68ZM741.571 363.056V383H736.531V363.056H741.571ZM751.59 365.936C752.238 365.024 753.126 364.268 754.254 363.668C755.406 363.044 756.714 362.732 758.178 362.732C759.882 362.732 761.418 363.152 762.786 363.992C764.178 364.832 765.27 366.032 766.062 367.592C766.878 369.128 767.286 370.916 767.286 372.956C767.286 374.996 766.878 376.808 766.062 378.392C765.27 379.952 764.178 381.164 762.786 382.028C761.418 382.892 759.882 383.324 758.178 383.324C756.714 383.324 755.418 383.024 754.29 382.424C753.186 381.824 752.286 381.068 751.59 380.156V392.504H746.55V363.056H751.59V365.936ZM762.138 372.956C762.138 371.756 761.886 370.724 761.382 369.86C760.902 368.972 760.254 368.3 759.438 367.844C758.646 367.388 757.782 367.16 756.846 367.16C755.934 367.16 755.07 367.4 754.254 367.88C753.462 368.336 752.814 369.008 752.31 369.896C751.83 370.784 751.59 371.828 751.59 373.028C751.59 374.228 751.83 375.272 752.31 376.16C752.814 377.048 753.462 377.732 754.254 378.212C755.07 378.668 755.934 378.896 756.846 378.896C757.782 378.896 758.646 378.656 759.438 378.176C760.254 377.696 760.902 377.012 761.382 376.124C761.886 375.236 762.138 374.18 762.138 372.956ZM778.581 383.324C776.949 383.324 775.485 383.036 774.189 382.46C772.893 381.86 771.861 381.056 771.093 380.048C770.349 379.04 769.941 377.924 769.869 376.7H774.945C775.041 377.468 775.413 378.104 776.061 378.608C776.733 379.112 777.561 379.364 778.545 379.364C779.505 379.364 780.249 379.172 780.777 378.788C781.329 378.404 781.605 377.912 781.605 377.312C781.605 376.664 781.269 376.184 780.597 375.872C779.949 375.536 778.905 375.176 777.465 374.792C775.977 374.432 774.753 374.06 773.793 373.676C772.857 373.292 772.041 372.704 771.345 371.912C770.673 371.12 770.337 370.052 770.337 368.708C770.337 367.604 770.649 366.596 771.273 365.684C771.921 364.772 772.833 364.052 774.009 363.524C775.209 362.996 776.613 362.732 778.221 362.732C780.597 362.732 782.493 363.332 783.909 364.532C785.325 365.708 786.105 367.304 786.249 369.32H781.425C781.353 368.528 781.017 367.904 780.417 367.448C779.841 366.968 779.061 366.728 778.077 366.728C777.165 366.728 776.457 366.896 775.953 367.232C775.473 367.568 775.233 368.036 775.233 368.636C775.233 369.308 775.569 369.824 776.241 370.184C776.913 370.52 777.957 370.868 779.373 371.228C780.813 371.588 782.001 371.96 782.937 372.344C783.873 372.728 784.677 373.328 785.349 374.144C786.045 374.936 786.405 375.992 786.429 377.312C786.429 378.464 786.105 379.496 785.457 380.408C784.833 381.32 783.921 382.04 782.721 382.568C781.545 383.072 780.165 383.324 778.581 383.324ZM793.122 360.68C792.234 360.68 791.49 360.404 790.89 359.852C790.314 359.276 790.026 358.568 790.026 357.728C790.026 356.888 790.314 356.192 790.89 355.64C791.49 355.064 792.234 354.776 793.122 354.776C794.01 354.776 794.742 355.064 795.318 355.64C795.918 356.192 796.218 356.888 796.218 357.728C796.218 358.568 795.918 359.276 795.318 359.852C794.742 360.404 794.01 360.68 793.122 360.68ZM795.606 363.056V383H790.566V363.056H795.606Z" fill="#E64600"/>
<circle cx="417" cy="615" r="20" fill="#FF6420" stroke="#FFA680" stroke-width="10"/>
<path d="M495.54 622.888V618.928L507.312 602.08H513.18V618.496H516.348V622.888H513.18V628H508.14V622.888H495.54ZM508.464 607.48L501.084 618.496H508.464V607.48ZM522.365 628.252C521.453 628.252 520.697 627.976 520.097 627.424C519.521 626.848 519.233 626.14 519.233 625.3C519.233 624.46 519.521 623.764 520.097 623.212C520.697 622.636 521.453 622.348 522.365 622.348C523.253 622.348 523.985 622.636 524.561 623.212C525.137 623.764 525.425 624.46 525.425 625.3C525.425 626.14 525.137 626.848 524.561 627.424C523.985 627.976 523.253 628.252 522.365 628.252ZM553.148 628.252C550.796 628.252 548.636 627.7 546.668 626.596C544.7 625.492 543.14 623.968 541.988 622.024C540.836 620.056 540.26 617.836 540.26 615.364C540.26 612.916 540.836 610.72 541.988 608.776C543.14 606.808 544.7 605.272 546.668 604.168C548.636 603.064 550.796 602.512 553.148 602.512C555.524 602.512 557.684 603.064 559.628 604.168C561.596 605.272 563.144 606.808 564.272 608.776C565.424 610.72 566 612.916 566 615.364C566 617.836 565.424 620.056 564.272 622.024C563.144 623.968 561.596 625.492 559.628 626.596C557.66 627.7 555.5 628.252 553.148 628.252ZM553.148 623.752C554.66 623.752 555.992 623.416 557.144 622.744C558.296 622.048 559.196 621.064 559.844 619.792C560.492 618.52 560.816 617.044 560.816 615.364C560.816 613.684 560.492 612.22 559.844 610.972C559.196 609.7 558.296 608.728 557.144 608.056C555.992 607.384 554.66 607.048 553.148 607.048C551.636 607.048 550.292 607.384 549.116 608.056C547.964 608.728 547.064 609.7 546.416 610.972C545.768 612.22 545.444 613.684 545.444 615.364C545.444 617.044 545.768 618.52 546.416 619.792C547.064 621.064 547.964 622.048 549.116 622.744C550.292 623.416 551.636 623.752 553.148 623.752ZM574.79 601.36V628H569.75V601.36H574.79ZM578.473 617.956C578.473 615.94 578.869 614.152 579.661 612.592C580.477 611.032 581.569 609.832 582.937 608.992C584.329 608.152 585.877 607.732 587.581 607.732C589.069 607.732 590.365 608.032 591.469 608.632C592.597 609.232 593.497 609.988 594.169 610.9V608.056H599.245V628H594.169V625.084C593.521 626.02 592.621 626.8 591.469 627.424C590.341 628.024 589.033 628.324 587.545 628.324C585.865 628.324 584.329 627.892 582.937 627.028C581.569 626.164 580.477 624.952 579.661 623.392C578.869 621.808 578.473 619.996 578.473 617.956ZM594.169 618.028C594.169 616.804 593.929 615.76 593.449 614.896C592.969 614.008 592.321 613.336 591.505 612.88C590.689 612.4 589.813 612.16 588.877 612.16C587.941 612.16 587.077 612.388 586.285 612.844C585.493 613.3 584.845 613.972 584.341 614.86C583.861 615.724 583.621 616.756 583.621 617.956C583.621 619.156 583.861 620.212 584.341 621.124C584.845 622.012 585.493 622.696 586.285 623.176C587.101 623.656 587.965 623.896 588.877 623.896C589.813 623.896 590.689 623.668 591.505 623.212C592.321 622.732 592.969 622.06 593.449 621.196C593.929 620.308 594.169 619.252 594.169 618.028ZM615.4 607.768C616.912 607.768 618.256 608.104 619.432 608.776C620.608 609.424 621.52 610.396 622.168 611.692C622.84 612.964 623.176 614.5 623.176 616.3V628H618.136V616.984C618.136 615.4 617.74 614.188 616.948 613.348C616.156 612.484 615.076 612.052 613.708 612.052C612.316 612.052 611.212 612.484 610.396 613.348C609.604 614.188 609.208 615.4 609.208 616.984V628H604.168V601.36H609.208V610.54C609.856 609.676 610.72 609.004 611.8 608.524C612.88 608.02 614.08 607.768 615.4 607.768ZM645.331 602.872C647.971 602.872 650.287 603.388 652.279 604.42C654.295 605.452 655.843 606.928 656.923 608.848C658.027 610.744 658.579 612.952 658.579 615.472C658.579 617.992 658.027 620.2 656.923 622.096C655.843 623.968 654.295 625.42 652.279 626.452C650.287 627.484 647.971 628 645.331 628H636.547V602.872H645.331ZM645.151 623.716C647.791 623.716 649.831 622.996 651.271 621.556C652.711 620.116 653.431 618.088 653.431 615.472C653.431 612.856 652.711 610.816 651.271 609.352C649.831 607.864 647.791 607.12 645.151 607.12H641.587V623.716H645.151ZM661.055 617.956C661.055 615.94 661.451 614.152 662.243 612.592C663.059 611.032 664.151 609.832 665.519 608.992C666.911 608.152 668.459 607.732 670.163 607.732C671.651 607.732 672.947 608.032 674.051 608.632C675.179 609.232 676.079 609.988 676.751 610.9V608.056H681.827V628H676.751V625.084C676.103 626.02 675.203 626.8 674.051 627.424C672.923 628.024 671.615 628.324 670.127 628.324C668.447 628.324 666.911 627.892 665.519 627.028C664.151 626.164 663.059 624.952 662.243 623.392C661.451 621.808 661.055 619.996 661.055 617.956ZM676.751 618.028C676.751 616.804 676.511 615.76 676.031 614.896C675.551 614.008 674.903 613.336 674.087 612.88C673.271 612.4 672.395 612.16 671.459 612.16C670.523 612.16 669.659 612.388 668.867 612.844C668.075 613.3 667.427 613.972 666.923 614.86C666.443 615.724 666.203 616.756 666.203 617.956C666.203 619.156 666.443 620.212 666.923 621.124C667.427 622.012 668.075 622.696 668.867 623.176C669.683 623.656 670.547 623.896 671.459 623.896C672.395 623.896 673.271 623.668 674.087 623.212C674.903 622.732 675.551 622.06 676.031 621.196C676.511 620.308 676.751 619.252 676.751 618.028ZM692.618 612.196V621.844C692.618 622.516 692.774 623.008 693.086 623.32C693.422 623.608 693.974 623.752 694.742 623.752H697.082V628H693.914C689.666 628 687.542 625.936 687.542 621.808V612.196H685.166V608.056H687.542V603.124H692.618V608.056H697.082V612.196H692.618ZM699.411 617.956C699.411 615.94 699.807 614.152 700.599 612.592C701.415 611.032 702.507 609.832 703.875 608.992C705.267 608.152 706.815 607.732 708.519 607.732C710.007 607.732 711.303 608.032 712.407 608.632C713.535 609.232 714.435 609.988 715.107 610.9V608.056H720.183V628H715.107V625.084C714.459 626.02 713.559 626.8 712.407 627.424C711.279 628.024 709.971 628.324 708.483 628.324C706.803 628.324 705.267 627.892 703.875 627.028C702.507 626.164 701.415 624.952 700.599 623.392C699.807 621.808 699.411 619.996 699.411 617.956ZM715.107 618.028C715.107 616.804 714.867 615.76 714.387 614.896C713.907 614.008 713.259 613.336 712.443 612.88C711.627 612.4 710.751 612.16 709.815 612.16C708.879 612.16 708.015 612.388 707.223 612.844C706.431 613.3 705.783 613.972 705.279 614.86C704.799 615.724 704.559 616.756 704.559 617.956C704.559 619.156 704.799 620.212 705.279 621.124C705.783 622.012 706.431 622.696 707.223 623.176C708.039 623.656 708.903 623.896 709.815 623.896C710.751 623.896 711.627 623.668 712.443 623.212C713.259 622.732 713.907 622.06 714.387 621.196C714.867 620.308 715.107 619.252 715.107 618.028Z" fill="#E64600"/>
<circle cx="417" cy="857" r="20" fill="#FF6420" stroke="#FFA680" stroke-width="10"/>
<path d="M500.469 864.312C502.773 862.392 504.609 860.796 505.977 859.524C507.345 858.228 508.485 856.884 509.397 855.492C510.309 854.1 510.765 852.732 510.765 851.388C510.765 850.164 510.477 849.204 509.901 848.508C509.325 847.812 508.437 847.464 507.237 847.464C506.037 847.464 505.113 847.872 504.465 848.688C503.817 849.48 503.481 850.572 503.457 851.964H498.561C498.657 849.084 499.509 846.9 501.117 845.412C502.749 843.924 504.813 843.18 507.309 843.18C510.045 843.18 512.145 843.912 513.609 845.376C515.073 846.816 515.805 848.724 515.805 851.1C515.805 852.972 515.301 854.76 514.293 856.464C513.285 858.168 512.133 859.656 510.837 860.928C509.541 862.176 507.849 863.688 505.761 865.464H516.381V869.64H498.597V865.896L500.469 864.312ZM522.365 870.252C521.453 870.252 520.697 869.976 520.097 869.424C519.521 868.848 519.233 868.14 519.233 867.3C519.233 866.46 519.521 865.764 520.097 865.212C520.697 864.636 521.453 864.348 522.365 864.348C523.253 864.348 523.985 864.636 524.561 865.212C525.137 865.764 525.425 866.46 525.425 867.3C525.425 868.14 525.137 868.848 524.561 869.424C523.985 869.976 523.253 870.252 522.365 870.252ZM559.808 852.648C559.808 853.992 559.484 855.252 558.836 856.428C558.212 857.604 557.216 858.552 555.848 859.272C554.504 859.992 552.8 860.352 550.736 860.352H546.524V870H541.484V844.872H550.736C552.68 844.872 554.336 845.208 555.704 845.88C557.072 846.552 558.092 847.476 558.764 848.652C559.46 849.828 559.808 851.16 559.808 852.648ZM550.52 856.284C551.912 856.284 552.944 855.972 553.616 855.348C554.288 854.7 554.624 853.8 554.624 852.648C554.624 850.2 553.256 848.976 550.52 848.976H546.524V856.284H550.52ZM568.426 853.152C569.074 852.096 569.914 851.268 570.946 850.668C572.002 850.068 573.202 849.768 574.546 849.768V855.06H573.214C571.63 855.06 570.43 855.432 569.614 856.176C568.822 856.92 568.426 858.216 568.426 860.064V870H563.386V850.056H568.426V853.152ZM586.797 870.324C584.877 870.324 583.149 869.904 581.613 869.064C580.077 868.2 578.865 866.988 577.977 865.428C577.113 863.868 576.681 862.068 576.681 860.028C576.681 857.988 577.125 856.188 578.013 854.628C578.925 853.068 580.161 851.868 581.721 851.028C583.281 850.164 585.021 849.732 586.941 849.732C588.861 849.732 590.601 850.164 592.161 851.028C593.721 851.868 594.945 853.068 595.833 854.628C596.745 856.188 597.201 857.988 597.201 860.028C597.201 862.068 596.733 863.868 595.797 865.428C594.885 866.988 593.637 868.2 592.053 869.064C590.493 869.904 588.741 870.324 586.797 870.324ZM586.797 865.932C587.709 865.932 588.561 865.716 589.353 865.284C590.169 864.828 590.817 864.156 591.297 863.268C591.777 862.38 592.017 861.3 592.017 860.028C592.017 858.132 591.513 856.68 590.505 855.672C589.521 854.64 588.309 854.124 586.869 854.124C585.429 854.124 584.217 854.64 583.233 855.672C582.273 856.68 581.793 858.132 581.793 860.028C581.793 861.924 582.261 863.388 583.197 864.42C584.157 865.428 585.357 865.932 586.797 865.932ZM605.938 852.936C606.586 852.024 607.474 851.268 608.602 850.668C609.754 850.044 611.062 849.732 612.526 849.732C614.23 849.732 615.766 850.152 617.134 850.992C618.526 851.832 619.618 853.032 620.41 854.592C621.226 856.128 621.634 857.916 621.634 859.956C621.634 861.996 621.226 863.808 620.41 865.392C619.618 866.952 618.526 868.164 617.134 869.028C615.766 869.892 614.23 870.324 612.526 870.324C611.062 870.324 609.766 870.024 608.638 869.424C607.534 868.824 606.634 868.068 605.938 867.156V879.504H600.898V850.056H605.938V852.936ZM616.486 859.956C616.486 858.756 616.234 857.724 615.73 856.86C615.25 855.972 614.602 855.3 613.786 854.844C612.994 854.388 612.13 854.16 611.194 854.16C610.282 854.16 609.418 854.4 608.602 854.88C607.81 855.336 607.162 856.008 606.658 856.896C606.178 857.784 605.938 858.828 605.938 860.028C605.938 861.228 606.178 862.272 606.658 863.16C607.162 864.048 607.81 864.732 608.602 865.212C609.418 865.668 610.282 865.896 611.194 865.896C612.13 865.896 612.994 865.656 613.786 865.176C614.602 864.696 615.25 864.012 615.73 863.124C616.234 862.236 616.486 861.18 616.486 859.956ZM634.153 870.324C632.233 870.324 630.505 869.904 628.969 869.064C627.433 868.2 626.221 866.988 625.333 865.428C624.469 863.868 624.037 862.068 624.037 860.028C624.037 857.988 624.481 856.188 625.369 854.628C626.281 853.068 627.517 851.868 629.077 851.028C630.637 850.164 632.377 849.732 634.297 849.732C636.217 849.732 637.957 850.164 639.517 851.028C641.077 851.868 642.301 853.068 643.189 854.628C644.101 856.188 644.557 857.988 644.557 860.028C644.557 862.068 644.089 863.868 643.152 865.428C642.241 866.988 640.993 868.2 639.409 869.064C637.849 869.904 636.097 870.324 634.153 870.324ZM634.153 865.932C635.065 865.932 635.917 865.716 636.709 865.284C637.525 864.828 638.173 864.156 638.653 863.268C639.133 862.38 639.373 861.3 639.373 860.028C639.373 858.132 638.869 856.68 637.861 855.672C636.877 854.64 635.665 854.124 634.225 854.124C632.785 854.124 631.573 854.64 630.589 855.672C629.629 856.68 629.149 858.132 629.149 860.028C629.149 861.924 629.617 863.388 630.553 864.42C631.513 865.428 632.713 865.932 634.153 865.932ZM655.886 870.324C654.254 870.324 652.79 870.036 651.494 869.46C650.198 868.86 649.166 868.056 648.398 867.048C647.654 866.04 647.246 864.924 647.174 863.7H652.25C652.346 864.468 652.718 865.104 653.366 865.608C654.038 866.112 654.866 866.364 655.85 866.364C656.81 866.364 657.554 866.172 658.082 865.788C658.634 865.404 658.91 864.912 658.91 864.312C658.91 863.664 658.574 863.184 657.902 862.872C657.254 862.536 656.21 862.176 654.77 861.792C653.282 861.432 652.058 861.06 651.098 860.676C650.162 860.292 649.346 859.704 648.65 858.912C647.978 858.12 647.642 857.052 647.642 855.708C647.642 854.604 647.954 853.596 648.578 852.684C649.226 851.772 650.138 851.052 651.314 850.524C652.514 849.996 653.918 849.732 655.526 849.732C657.902 849.732 659.798 850.332 661.214 851.532C662.63 852.708 663.41 854.304 663.554 856.32H658.73C658.658 855.528 658.322 854.904 657.722 854.448C657.146 853.968 656.366 853.728 655.382 853.728C654.47 853.728 653.762 853.896 653.258 854.232C652.778 854.568 652.538 855.036 652.538 855.636C652.538 856.308 652.874 856.824 653.546 857.184C654.218 857.52 655.262 857.868 656.678 858.228C658.118 858.588 659.306 858.96 660.242 859.344C661.178 859.728 661.982 860.328 662.654 861.144C663.35 861.936 663.71 862.992 663.734 864.312C663.734 865.464 663.41 866.496 662.762 867.408C662.138 868.32 661.226 869.04 660.026 869.568C658.85 870.072 657.47 870.324 655.886 870.324ZM666.575 859.956C666.575 857.94 666.971 856.152 667.763 854.592C668.579 853.032 669.671 851.832 671.039 850.992C672.431 850.152 673.979 849.732 675.683 849.732C677.171 849.732 678.467 850.032 679.571 850.632C680.699 851.232 681.599 851.988 682.271 852.9V850.056H687.347V870H682.271V867.084C681.623 868.02 680.723 868.8 679.571 869.424C678.443 870.024 677.135 870.324 675.647 870.324C673.967 870.324 672.431 869.892 671.039 869.028C669.671 868.164 668.579 866.952 667.763 865.392C666.971 863.808 666.575 861.996 666.575 859.956ZM682.271 860.028C682.271 858.804 682.031 857.76 681.551 856.896C681.071 856.008 680.423 855.336 679.607 854.88C678.791 854.4 677.915 854.16 676.979 854.16C676.043 854.16 675.179 854.388 674.387 854.844C673.595 855.3 672.947 855.972 672.443 856.86C671.963 857.724 671.723 858.756 671.723 859.956C671.723 861.156 671.963 862.212 672.443 863.124C672.947 864.012 673.595 864.696 674.387 865.176C675.203 865.656 676.067 865.896 676.979 865.896C677.915 865.896 678.791 865.668 679.607 865.212C680.423 864.732 681.071 864.06 681.551 863.196C682.031 862.308 682.271 861.252 682.271 860.028ZM697.309 843.36V870H692.269V843.36H697.309Z" fill="#E64600"/>
<circle cx="417" cy="492" r="20" fill="#FF6420" stroke="#FFA680" stroke-width="10"/>
<path d="M78.0286 481.112H66.3646V487.268C66.8686 486.644 67.5886 486.14 68.5246 485.756C69.4606 485.348 70.4566 485.144 71.5126 485.144C73.4326 485.144 75.0046 485.564 76.2286 486.404C77.4526 487.244 78.3406 488.324 78.8926 489.644C79.4446 490.94 79.7206 492.332 79.7206 493.82C79.7206 496.58 78.9286 498.8 77.3446 500.48C75.7846 502.16 73.5526 503 70.6486 503C67.9126 503 65.7286 502.316 64.0966 500.948C62.4646 499.58 61.5406 497.792 61.3246 495.584H66.2206C66.4366 496.544 66.9166 497.312 67.6606 497.888C68.4286 498.464 69.4006 498.752 70.5766 498.752C71.9926 498.752 73.0606 498.308 73.7806 497.42C74.5006 496.532 74.8606 495.356 74.8606 493.892C74.8606 492.404 74.4886 491.276 73.7446 490.508C73.0246 489.716 71.9566 489.32 70.5406 489.32C69.5326 489.32 68.6926 489.572 68.0206 490.076C67.3486 490.58 66.8686 491.252 66.5806 492.092H61.7566V476.684H78.0286V481.112ZM86.3646 503.252C85.4526 503.252 84.6966 502.976 84.0966 502.424C83.5206 501.848 83.2326 501.14 83.2326 500.3C83.2326 499.46 83.5206 498.764 84.0966 498.212C84.6966 497.636 85.4526 497.348 86.3646 497.348C87.2526 497.348 87.9846 497.636 88.5606 498.212C89.1366 498.764 89.4246 499.46 89.4246 500.3C89.4246 501.14 89.1366 501.848 88.5606 502.424C87.9846 502.976 87.2526 503.252 86.3646 503.252ZM123.808 485.648C123.808 486.992 123.484 488.252 122.836 489.428C122.212 490.604 121.216 491.552 119.848 492.272C118.504 492.992 116.8 493.352 114.736 493.352H110.524V503H105.484V477.872H114.736C116.68 477.872 118.336 478.208 119.704 478.88C121.072 479.552 122.092 480.476 122.764 481.652C123.46 482.828 123.808 484.16 123.808 485.648ZM114.52 489.284C115.912 489.284 116.944 488.972 117.616 488.348C118.288 487.7 118.624 486.8 118.624 485.648C118.624 483.2 117.256 481.976 114.52 481.976H110.524V489.284H114.52ZM145.926 492.596C145.926 493.316 145.878 493.964 145.782 494.54H131.202C131.322 495.98 131.826 497.108 132.714 497.924C133.602 498.74 134.694 499.148 135.99 499.148C137.862 499.148 139.194 498.344 139.986 496.736H145.422C144.846 498.656 143.742 500.24 142.11 501.488C140.478 502.712 138.474 503.324 136.098 503.324C134.178 503.324 132.45 502.904 130.914 502.064C129.402 501.2 128.214 499.988 127.35 498.428C126.51 496.868 126.09 495.068 126.09 493.028C126.09 490.964 126.51 489.152 127.35 487.592C128.19 486.032 129.366 484.832 130.878 483.992C132.39 483.152 134.13 482.732 136.098 482.732C137.994 482.732 139.686 483.14 141.174 483.956C142.686 484.772 143.85 485.936 144.666 487.448C145.506 488.936 145.926 490.652 145.926 492.596ZM140.706 491.156C140.682 489.86 140.214 488.828 139.302 488.06C138.39 487.268 137.274 486.872 135.954 486.872C134.706 486.872 133.65 487.256 132.786 488.024C131.946 488.768 131.43 489.812 131.238 491.156H140.706ZM174.373 482.768C176.821 482.768 178.789 483.524 180.277 485.036C181.789 486.524 182.545 488.612 182.545 491.3V503H177.505V491.984C177.505 490.424 177.109 489.236 176.317 488.42C175.525 487.58 174.445 487.16 173.077 487.16C171.709 487.16 170.617 487.58 169.801 488.42C169.009 489.236 168.613 490.424 168.613 491.984V503H163.573V491.984C163.573 490.424 163.177 489.236 162.385 488.42C161.593 487.58 160.513 487.16 159.145 487.16C157.753 487.16 156.649 487.58 155.833 488.42C155.041 489.236 154.645 490.424 154.645 491.984V503H149.605V483.056H154.645V485.468C155.293 484.628 156.121 483.968 157.129 483.488C158.161 483.008 159.289 482.768 160.513 482.768C162.073 482.768 163.465 483.104 164.689 483.776C165.913 484.424 166.861 485.36 167.533 486.584C168.181 485.432 169.117 484.508 170.341 483.812C171.589 483.116 172.933 482.768 174.373 482.768ZM192.368 485.972C193.016 485.012 193.904 484.232 195.032 483.632C196.184 483.032 197.492 482.732 198.956 482.732C200.66 482.732 202.196 483.152 203.564 483.992C204.956 484.832 206.048 486.032 206.84 487.592C207.656 489.128 208.064 490.916 208.064 492.956C208.064 494.996 207.656 496.808 206.84 498.392C206.048 499.952 204.956 501.164 203.564 502.028C202.196 502.892 200.66 503.324 198.956 503.324C197.468 503.324 196.16 503.036 195.032 502.46C193.928 501.86 193.04 501.092 192.368 500.156V503H187.328V476.36H192.368V485.972ZM202.916 492.956C202.916 491.756 202.664 490.724 202.16 489.86C201.68 488.972 201.032 488.3 200.216 487.844C199.424 487.388 198.56 487.16 197.624 487.16C196.712 487.16 195.848 487.4 195.032 487.88C194.24 488.336 193.592 489.008 193.088 489.896C192.608 490.784 192.368 491.828 192.368 493.028C192.368 494.228 192.608 495.272 193.088 496.16C193.592 497.048 194.24 497.732 195.032 498.212C195.848 498.668 196.712 498.896 197.624 498.896C198.56 498.896 199.424 498.656 200.216 498.176C201.032 497.696 201.68 497.012 202.16 496.124C202.664 495.236 202.916 494.18 202.916 492.956ZM210.43 492.956C210.43 490.94 210.826 489.152 211.618 487.592C212.434 486.032 213.526 484.832 214.894 483.992C216.286 483.152 217.834 482.732 219.538 482.732C221.026 482.732 222.322 483.032 223.426 483.632C224.554 484.232 225.454 484.988 226.126 485.9V483.056H231.202V503H226.126V500.084C225.478 501.02 224.578 501.8 223.426 502.424C222.298 503.024 220.99 503.324 219.502 503.324C217.822 503.324 216.286 502.892 214.894 502.028C213.526 501.164 212.434 499.952 211.618 498.392C210.826 496.808 210.43 494.996 210.43 492.956ZM226.126 493.028C226.126 491.804 225.886 490.76 225.406 489.896C224.926 489.008 224.278 488.336 223.462 487.88C222.646 487.4 221.77 487.16 220.834 487.16C219.898 487.16 219.034 487.388 218.242 487.844C217.45 488.3 216.802 488.972 216.298 489.86C215.818 490.724 215.578 491.756 215.578 492.956C215.578 494.156 215.818 495.212 216.298 496.124C216.802 497.012 217.45 497.696 218.242 498.176C219.058 498.656 219.922 498.896 220.834 498.896C221.77 498.896 222.646 498.668 223.462 498.212C224.278 497.732 224.926 497.06 225.406 496.196C225.886 495.308 226.126 494.252 226.126 493.028ZM247.357 482.768C248.869 482.768 250.213 483.104 251.389 483.776C252.565 484.424 253.477 485.396 254.125 486.692C254.797 487.964 255.133 489.5 255.133 491.3V503H250.093V491.984C250.093 490.4 249.697 489.188 248.905 488.348C248.113 487.484 247.033 487.052 245.665 487.052C244.273 487.052 243.169 487.484 242.353 488.348C241.561 489.188 241.165 490.4 241.165 491.984V503H236.125V476.36H241.165V485.54C241.813 484.676 242.677 484.004 243.757 483.524C244.837 483.02 246.037 482.768 247.357 482.768ZM258.629 492.956C258.629 490.94 259.025 489.152 259.817 487.592C260.633 486.032 261.725 484.832 263.093 483.992C264.485 483.152 266.033 482.732 267.737 482.732C269.225 482.732 270.521 483.032 271.625 483.632C272.753 484.232 273.653 484.988 274.325 485.9V483.056H279.401V503H274.325V500.084C273.677 501.02 272.777 501.8 271.625 502.424C270.497 503.024 269.189 503.324 267.701 503.324C266.021 503.324 264.485 502.892 263.093 502.028C261.725 501.164 260.633 499.952 259.817 498.392C259.025 496.808 258.629 494.996 258.629 492.956ZM274.325 493.028C274.325 491.804 274.085 490.76 273.605 489.896C273.125 489.008 272.477 488.336 271.661 487.88C270.845 487.4 269.969 487.16 269.033 487.16C268.097 487.16 267.233 487.388 266.441 487.844C265.649 488.3 265.001 488.972 264.497 489.86C264.017 490.724 263.777 491.756 263.777 492.956C263.777 494.156 264.017 495.212 264.497 496.124C265.001 497.012 265.649 497.696 266.441 498.176C267.257 498.656 268.121 498.896 269.033 498.896C269.969 498.896 270.845 498.668 271.661 498.212C272.477 497.732 273.125 497.06 273.605 496.196C274.085 495.308 274.325 494.252 274.325 493.028ZM291.956 503.324C290.324 503.324 288.86 503.036 287.564 502.46C286.268 501.86 285.236 501.056 284.468 500.048C283.724 499.04 283.316 497.924 283.244 496.7H288.32C288.416 497.468 288.788 498.104 289.436 498.608C290.108 499.112 290.936 499.364 291.92 499.364C292.88 499.364 293.624 499.172 294.152 498.788C294.704 498.404 294.98 497.912 294.98 497.312C294.98 496.664 294.644 496.184 293.972 495.872C293.324 495.536 292.28 495.176 290.84 494.792C289.352 494.432 288.128 494.06 287.168 493.676C286.232 493.292 285.416 492.704 284.72 491.912C284.048 491.12 283.712 490.052 283.712 488.708C283.712 487.604 284.024 486.596 284.648 485.684C285.296 484.772 286.208 484.052 287.384 483.524C288.584 482.996 289.988 482.732 291.596 482.732C293.972 482.732 295.868 483.332 297.284 484.532C298.7 485.708 299.48 487.304 299.624 489.32H294.8C294.728 488.528 294.392 487.904 293.792 487.448C293.216 486.968 292.436 486.728 291.452 486.728C290.54 486.728 289.832 486.896 289.328 487.232C288.848 487.568 288.608 488.036 288.608 488.636C288.608 489.308 288.944 489.824 289.616 490.184C290.288 490.52 291.332 490.868 292.748 491.228C294.188 491.588 295.376 491.96 296.312 492.344C297.248 492.728 298.052 493.328 298.724 494.144C299.42 494.936 299.78 495.992 299.804 497.312C299.804 498.464 299.48 499.496 298.832 500.408C298.208 501.32 297.296 502.04 296.096 502.568C294.92 503.072 293.54 503.324 291.956 503.324ZM302.645 492.956C302.645 490.94 303.041 489.152 303.833 487.592C304.649 486.032 305.741 484.832 307.109 483.992C308.501 483.152 310.049 482.732 311.753 482.732C313.241 482.732 314.537 483.032 315.641 483.632C316.769 484.232 317.669 484.988 318.341 485.9V483.056H323.417V503H318.341V500.084C317.693 501.02 316.793 501.8 315.641 502.424C314.513 503.024 313.205 503.324 311.717 503.324C310.037 503.324 308.501 502.892 307.109 502.028C305.741 501.164 304.649 499.952 303.833 498.392C303.041 496.808 302.645 494.996 302.645 492.956ZM318.341 493.028C318.341 491.804 318.101 490.76 317.621 489.896C317.141 489.008 316.493 488.336 315.677 487.88C314.861 487.4 313.985 487.16 313.049 487.16C312.113 487.16 311.249 487.388 310.457 487.844C309.665 488.3 309.017 488.972 308.513 489.86C308.033 490.724 307.793 491.756 307.793 492.956C307.793 494.156 308.033 495.212 308.513 496.124C309.017 497.012 309.665 497.696 310.457 498.176C311.273 498.656 312.137 498.896 313.049 498.896C313.985 498.896 314.861 498.668 315.677 498.212C316.493 497.732 317.141 497.06 317.621 496.196C318.101 495.308 318.341 494.252 318.341 493.028ZM339.391 482.768C341.767 482.768 343.687 483.524 345.151 485.036C346.615 486.524 347.347 488.612 347.347 491.3V503H342.307V491.984C342.307 490.4 341.911 489.188 341.119 488.348C340.327 487.484 339.247 487.052 337.879 487.052C336.487 487.052 335.383 487.484 334.567 488.348C333.775 489.188 333.379 490.4 333.379 491.984V503H328.339V483.056H333.379V485.54C334.051 484.676 334.903 484.004 335.935 483.524C336.991 483.02 338.143 482.768 339.391 482.768Z" fill="#E64600"/>
<circle cx="417" cy="734" r="20" fill="#FF6420" stroke="#FFA680" stroke-width="10"/>
<path d="M17.0778 725.668C17.1978 723.268 18.0378 721.42 19.5978 720.124C21.1818 718.804 23.2578 718.144 25.8258 718.144C27.5778 718.144 29.0778 718.456 30.3258 719.08C31.5738 719.68 32.5098 720.508 33.1338 721.564C33.7818 722.596 34.1058 723.772 34.1058 725.092C34.1058 726.604 33.7098 727.888 32.9178 728.944C32.1498 729.976 31.2258 730.672 30.1458 731.032V731.176C31.5378 731.608 32.6178 732.376 33.3858 733.48C34.1778 734.584 34.5738 736 34.5738 737.728C34.5738 739.168 34.2378 740.452 33.5658 741.58C32.9178 742.708 31.9458 743.596 30.6498 744.244C29.3778 744.868 27.8418 745.18 26.0418 745.18C23.3298 745.18 21.1218 744.496 19.4178 743.128C17.7138 741.76 16.8138 739.744 16.7178 737.08H21.6138C21.6618 738.256 22.0578 739.204 22.8018 739.924C23.5698 740.62 24.6138 740.968 25.9338 740.968C27.1578 740.968 28.0938 740.632 28.7418 739.96C29.4138 739.264 29.7498 738.376 29.7498 737.296C29.7498 735.856 29.2938 734.824 28.3818 734.2C27.4698 733.576 26.0538 733.264 24.1338 733.264H23.0898V729.124H24.1338C27.5418 729.124 29.2458 727.984 29.2458 725.704C29.2458 724.672 28.9338 723.868 28.3098 723.292C27.7098 722.716 26.8338 722.428 25.6818 722.428C24.5538 722.428 23.6778 722.74 23.0538 723.364C22.4538 723.964 22.1058 724.732 22.0098 725.668H17.0778ZM41.3646 745.252C40.4526 745.252 39.6966 744.976 39.0966 744.424C38.5206 743.848 38.2326 743.14 38.2326 742.3C38.2326 741.46 38.5206 740.764 39.0966 740.212C39.6966 739.636 40.4526 739.348 41.3646 739.348C42.2526 739.348 42.9846 739.636 43.5606 740.212C44.1366 740.764 44.4246 741.46 44.4246 742.3C44.4246 743.14 44.1366 743.848 43.5606 744.424C42.9846 744.976 42.2526 745.252 41.3646 745.252ZM69.16 745.252C67.408 745.252 65.824 744.952 64.408 744.352C63.016 743.752 61.912 742.888 61.096 741.76C60.28 740.632 59.86 739.3 59.836 737.764H65.236C65.308 738.796 65.668 739.612 66.316 740.212C66.988 740.812 67.9 741.112 69.052 741.112C70.228 741.112 71.152 740.836 71.824 740.284C72.496 739.708 72.832 738.964 72.832 738.052C72.832 737.308 72.604 736.696 72.148 736.216C71.692 735.736 71.116 735.364 70.42 735.1C69.748 734.812 68.812 734.5 67.612 734.164C65.98 733.684 64.648 733.216 63.616 732.76C62.608 732.28 61.732 731.572 60.988 730.636C60.268 729.676 59.908 728.404 59.908 726.82C59.908 725.332 60.28 724.036 61.024 722.932C61.768 721.828 62.812 720.988 64.156 720.412C65.5 719.812 67.036 719.512 68.764 719.512C71.356 719.512 73.456 720.148 75.064 721.42C76.696 722.668 77.596 724.42 77.764 726.676H72.22C72.172 725.812 71.8 725.104 71.104 724.552C70.432 723.976 69.532 723.688 68.404 723.688C67.42 723.688 66.628 723.94 66.028 724.444C65.452 724.948 65.164 725.68 65.164 726.64C65.164 727.312 65.38 727.876 65.812 728.332C66.268 728.764 66.82 729.124 67.468 729.412C68.14 729.676 69.076 729.988 70.276 730.348C71.908 730.828 73.24 731.308 74.272 731.788C75.304 732.268 76.192 732.988 76.936 733.948C77.68 734.908 78.052 736.168 78.052 737.728C78.052 739.072 77.704 740.32 77.008 741.472C76.312 742.624 75.292 743.548 73.948 744.244C72.604 744.916 71.008 745.252 69.16 745.252ZM93.6535 724.768C95.1655 724.768 96.5095 725.104 97.6855 725.776C98.8615 726.424 99.7735 727.396 100.422 728.692C101.094 729.964 101.43 731.5 101.43 733.3V745H96.3895V733.984C96.3895 732.4 95.9935 731.188 95.2015 730.348C94.4095 729.484 93.3295 729.052 91.9615 729.052C90.5695 729.052 89.4655 729.484 88.6495 730.348C87.8575 731.188 87.4615 732.4 87.4615 733.984V745H82.4215V718.36H87.4615V727.54C88.1095 726.676 88.9735 726.004 90.0535 725.524C91.1335 725.02 92.3335 724.768 93.6535 724.768ZM104.926 734.956C104.926 732.94 105.322 731.152 106.114 729.592C106.93 728.032 108.022 726.832 109.39 725.992C110.782 725.152 112.33 724.732 114.034 724.732C115.522 724.732 116.818 725.032 117.922 725.632C119.05 726.232 119.95 726.988 120.622 727.9V725.056H125.698V745H120.622V742.084C119.974 743.02 119.074 743.8 117.922 744.424C116.794 745.024 115.486 745.324 113.998 745.324C112.318 745.324 110.782 744.892 109.39 744.028C108.022 743.164 106.93 741.952 106.114 740.392C105.322 738.808 104.926 736.996 104.926 734.956ZM120.622 735.028C120.622 733.804 120.382 732.76 119.902 731.896C119.422 731.008 118.774 730.336 117.958 729.88C117.142 729.4 116.266 729.16 115.33 729.16C114.394 729.16 113.53 729.388 112.738 729.844C111.946 730.3 111.298 730.972 110.794 731.86C110.314 732.724 110.074 733.756 110.074 734.956C110.074 736.156 110.314 737.212 110.794 738.124C111.298 739.012 111.946 739.696 112.738 740.176C113.554 740.656 114.418 740.896 115.33 740.896C116.266 740.896 117.142 740.668 117.958 740.212C118.774 739.732 119.422 739.06 119.902 738.196C120.382 737.308 120.622 736.252 120.622 735.028ZM135.661 728.152C136.309 727.096 137.149 726.268 138.181 725.668C139.237 725.068 140.437 724.768 141.781 724.768V730.06H140.449C138.865 730.06 137.665 730.432 136.849 731.176C136.057 731.92 135.661 733.216 135.661 735.064V745H130.621V725.056H135.661V728.152ZM147.731 722.68C146.843 722.68 146.099 722.404 145.499 721.852C144.923 721.276 144.635 720.568 144.635 719.728C144.635 718.888 144.923 718.192 145.499 717.64C146.099 717.064 146.843 716.776 147.731 716.776C148.619 716.776 149.351 717.064 149.927 717.64C150.527 718.192 150.827 718.888 150.827 719.728C150.827 720.568 150.527 721.276 149.927 721.852C149.351 722.404 148.619 722.68 147.731 722.68ZM150.215 725.056V745H145.175V725.056H150.215ZM166.247 724.768C168.623 724.768 170.543 725.524 172.007 727.036C173.471 728.524 174.203 730.612 174.203 733.3V745H169.163V733.984C169.163 732.4 168.767 731.188 167.975 730.348C167.183 729.484 166.103 729.052 164.735 729.052C163.343 729.052 162.239 729.484 161.423 730.348C160.631 731.188 160.235 732.4 160.235 733.984V745H155.195V725.056H160.235V727.54C160.907 726.676 161.759 726.004 162.791 725.524C163.847 725.02 164.999 724.768 166.247 724.768ZM186.808 724.732C188.296 724.732 189.604 725.032 190.732 725.632C191.86 726.208 192.748 726.964 193.396 727.9V725.056H198.472V745.144C198.472 746.992 198.1 748.636 197.356 750.076C196.612 751.54 195.496 752.692 194.008 753.532C192.52 754.396 190.72 754.828 188.608 754.828C185.776 754.828 183.448 754.168 181.624 752.848C179.824 751.528 178.804 749.728 178.564 747.448H183.568C183.832 748.36 184.396 749.08 185.26 749.608C186.148 750.16 187.216 750.436 188.464 750.436C189.928 750.436 191.116 749.992 192.028 749.104C192.94 748.24 193.396 746.92 193.396 745.144V742.048C192.748 742.984 191.848 743.764 190.696 744.388C189.568 745.012 188.272 745.324 186.808 745.324C185.128 745.324 183.592 744.892 182.2 744.028C180.808 743.164 179.704 741.952 178.888 740.392C178.096 738.808 177.7 736.996 177.7 734.956C177.7 732.94 178.096 731.152 178.888 729.592C179.704 728.032 180.796 726.832 182.164 725.992C183.556 725.152 185.104 724.732 186.808 724.732ZM193.396 735.028C193.396 733.804 193.156 732.76 192.676 731.896C192.196 731.008 191.548 730.336 190.732 729.88C189.916 729.4 189.04 729.16 188.104 729.16C187.168 729.16 186.304 729.388 185.512 729.844C184.72 730.3 184.072 730.972 183.568 731.86C183.088 732.724 182.848 733.756 182.848 734.956C182.848 736.156 183.088 737.212 183.568 738.124C184.072 739.012 184.72 739.696 185.512 740.176C186.328 740.656 187.192 740.896 188.104 740.896C189.04 740.896 189.916 740.668 190.732 740.212C191.548 739.732 192.196 739.06 192.676 738.196C193.156 737.308 193.396 736.252 193.396 735.028ZM220.648 745.252C218.896 745.252 217.312 744.952 215.896 744.352C214.504 743.752 213.4 742.888 212.584 741.76C211.768 740.632 211.348 739.3 211.324 737.764H216.724C216.796 738.796 217.156 739.612 217.804 740.212C218.476 740.812 219.388 741.112 220.54 741.112C221.716 741.112 222.64 740.836 223.312 740.284C223.984 739.708 224.32 738.964 224.32 738.052C224.32 737.308 224.092 736.696 223.636 736.216C223.18 735.736 222.604 735.364 221.908 735.1C221.236 734.812 220.3 734.5 219.1 734.164C217.468 733.684 216.136 733.216 215.104 732.76C214.096 732.28 213.22 731.572 212.476 730.636C211.756 729.676 211.396 728.404 211.396 726.82C211.396 725.332 211.768 724.036 212.512 722.932C213.256 721.828 214.3 720.988 215.644 720.412C216.988 719.812 218.524 719.512 220.252 719.512C222.844 719.512 224.944 720.148 226.552 721.42C228.184 722.668 229.084 724.42 229.252 726.676H223.708C223.66 725.812 223.288 725.104 222.592 724.552C221.92 723.976 221.02 723.688 219.892 723.688C218.908 723.688 218.116 723.94 217.516 724.444C216.94 724.948 216.652 725.68 216.652 726.64C216.652 727.312 216.868 727.876 217.3 728.332C217.756 728.764 218.308 729.124 218.956 729.412C219.628 729.676 220.564 729.988 221.764 730.348C223.396 730.828 224.728 731.308 225.76 731.788C226.792 732.268 227.68 732.988 228.424 733.948C229.168 734.908 229.54 736.168 229.54 737.728C229.54 739.072 229.192 740.32 228.496 741.472C227.8 742.624 226.78 743.548 225.436 744.244C224.092 744.916 222.496 745.252 220.648 745.252ZM252.45 734.596C252.45 735.316 252.402 735.964 252.306 736.54H237.726C237.846 737.98 238.35 739.108 239.238 739.924C240.126 740.74 241.218 741.148 242.514 741.148C244.386 741.148 245.718 740.344 246.51 738.736H251.946C251.37 740.656 250.266 742.24 248.634 743.488C247.002 744.712 244.998 745.324 242.622 745.324C240.702 745.324 238.974 744.904 237.438 744.064C235.926 743.2 234.738 741.988 233.874 740.428C233.034 738.868 232.614 737.068 232.614 735.028C232.614 732.964 233.034 731.152 233.874 729.592C234.714 728.032 235.89 726.832 237.402 725.992C238.914 725.152 240.654 724.732 242.622 724.732C244.518 724.732 246.21 725.14 247.698 725.956C249.21 726.772 250.374 727.936 251.19 729.448C252.03 730.936 252.45 732.652 252.45 734.596ZM247.23 733.156C247.206 731.86 246.738 730.828 245.826 730.06C244.914 729.268 243.798 728.872 242.478 728.872C241.23 728.872 240.174 729.256 239.31 730.024C238.47 730.768 237.954 731.812 237.762 733.156H247.23ZM263.761 745.324C262.129 745.324 260.665 745.036 259.369 744.46C258.073 743.86 257.041 743.056 256.273 742.048C255.529 741.04 255.121 739.924 255.049 738.7H260.125C260.221 739.468 260.593 740.104 261.241 740.608C261.913 741.112 262.741 741.364 263.725 741.364C264.685 741.364 265.429 741.172 265.957 740.788C266.509 740.404 266.785 739.912 266.785 739.312C266.785 738.664 266.449 738.184 265.777 737.872C265.129 737.536 264.085 737.176 262.645 736.792C261.157 736.432 259.933 736.06 258.973 735.676C258.037 735.292 257.221 734.704 256.525 733.912C255.853 733.12 255.517 732.052 255.517 730.708C255.517 729.604 255.829 728.596 256.453 727.684C257.101 726.772 258.013 726.052 259.189 725.524C260.389 724.996 261.793 724.732 263.401 724.732C265.777 724.732 267.673 725.332 269.089 726.532C270.505 727.708 271.285 729.304 271.429 731.32H266.605C266.533 730.528 266.197 729.904 265.597 729.448C265.021 728.968 264.241 728.728 263.257 728.728C262.345 728.728 261.637 728.896 261.133 729.232C260.653 729.568 260.413 730.036 260.413 730.636C260.413 731.308 260.749 731.824 261.421 732.184C262.093 732.52 263.137 732.868 264.553 733.228C265.993 733.588 267.181 733.96 268.117 734.344C269.053 734.728 269.857 735.328 270.529 736.144C271.225 736.936 271.585 737.992 271.609 739.312C271.609 740.464 271.285 741.496 270.637 742.408C270.013 743.32 269.101 744.04 267.901 744.568C266.725 745.072 265.345 745.324 263.761 745.324ZM283.378 745.324C281.746 745.324 280.282 745.036 278.986 744.46C277.69 743.86 276.658 743.056 275.89 742.048C275.146 741.04 274.738 739.924 274.666 738.7H279.742C279.838 739.468 280.21 740.104 280.858 740.608C281.53 741.112 282.358 741.364 283.342 741.364C284.302 741.364 285.046 741.172 285.574 740.788C286.126 740.404 286.402 739.912 286.402 739.312C286.402 738.664 286.066 738.184 285.394 737.872C284.746 737.536 283.702 737.176 282.262 736.792C280.774 736.432 279.55 736.06 278.59 735.676C277.654 735.292 276.838 734.704 276.142 733.912C275.47 733.12 275.134 732.052 275.134 730.708C275.134 729.604 275.446 728.596 276.07 727.684C276.718 726.772 277.63 726.052 278.806 725.524C280.006 724.996 281.41 724.732 283.018 724.732C285.394 724.732 287.29 725.332 288.706 726.532C290.122 727.708 290.902 729.304 291.046 731.32H286.222C286.15 730.528 285.814 729.904 285.214 729.448C284.638 728.968 283.858 728.728 282.874 728.728C281.962 728.728 281.254 728.896 280.75 729.232C280.27 729.568 280.03 730.036 280.03 730.636C280.03 731.308 280.366 731.824 281.038 732.184C281.71 732.52 282.754 732.868 284.17 733.228C285.61 733.588 286.798 733.96 287.734 734.344C288.67 734.728 289.474 735.328 290.146 736.144C290.842 736.936 291.202 737.992 291.226 739.312C291.226 740.464 290.902 741.496 290.254 742.408C289.63 743.32 288.718 744.04 287.518 744.568C286.342 745.072 284.962 745.324 283.378 745.324ZM297.919 722.68C297.031 722.68 296.287 722.404 295.687 721.852C295.111 721.276 294.823 720.568 294.823 719.728C294.823 718.888 295.111 718.192 295.687 717.64C296.287 717.064 297.031 716.776 297.919 716.776C298.807 716.776 299.539 717.064 300.115 717.64C300.715 718.192 301.015 718.888 301.015 719.728C301.015 720.568 300.715 721.276 300.115 721.852C299.539 722.404 298.807 722.68 297.919 722.68ZM300.403 725.056V745H295.363V725.056H300.403ZM314.238 745.324C312.318 745.324 310.59 744.904 309.054 744.064C307.518 743.2 306.306 741.988 305.418 740.428C304.554 738.868 304.122 737.068 304.122 735.028C304.122 732.988 304.566 731.188 305.454 729.628C306.366 728.068 307.602 726.868 309.162 726.028C310.722 725.164 312.462 724.732 314.382 724.732C316.302 724.732 318.042 725.164 319.602 726.028C321.162 726.868 322.386 728.068 323.274 729.628C324.186 731.188 324.642 732.988 324.642 735.028C324.642 737.068 324.174 738.868 323.238 740.428C322.326 741.988 321.078 743.2 319.494 744.064C317.934 744.904 316.182 745.324 314.238 745.324ZM314.238 740.932C315.15 740.932 316.002 740.716 316.794 740.284C317.61 739.828 318.258 739.156 318.738 738.268C319.218 737.38 319.458 736.3 319.458 735.028C319.458 733.132 318.954 731.68 317.946 730.672C316.962 729.64 315.75 729.124 314.31 729.124C312.87 729.124 311.658 729.64 310.674 730.672C309.714 731.68 309.234 733.132 309.234 735.028C309.234 736.924 309.702 738.388 310.638 739.42C311.598 740.428 312.798 740.932 314.238 740.932ZM339.391 724.768C341.767 724.768 343.687 725.524 345.151 727.036C346.615 728.524 347.347 730.612 347.347 733.3V745H342.307V733.984C342.307 732.4 341.911 731.188 341.119 730.348C340.327 729.484 339.247 729.052 337.879 729.052C336.487 729.052 335.383 729.484 334.567 730.348C333.775 731.188 333.379 732.4 333.379 733.984V745H328.339V725.056H333.379V727.54C334.051 726.676 334.903 726.004 335.935 725.524C336.991 725.02 338.143 724.768 339.391 724.768Z" fill="#E64600"/>
<circle cx="417" cy="1020" r="20" fill="#FF6420" stroke="#FFA680" stroke-width="10"/>
<path d="M130.902 1009.4V1004.76H139.578V1031H134.394V1009.4H130.902ZM147.365 1031.25C146.453 1031.25 145.697 1030.98 145.097 1030.42C144.521 1029.85 144.233 1029.14 144.233 1028.3C144.233 1027.46 144.521 1026.76 145.097 1026.21C145.697 1025.64 146.453 1025.35 147.365 1025.35C148.253 1025.35 148.985 1025.64 149.561 1026.21C150.137 1026.76 150.425 1027.46 150.425 1028.3C150.425 1029.14 150.137 1029.85 149.561 1030.42C148.985 1030.98 148.253 1031.25 147.365 1031.25ZM184.808 1013.65C184.808 1014.99 184.484 1016.25 183.836 1017.43C183.212 1018.6 182.216 1019.55 180.848 1020.27C179.504 1020.99 177.8 1021.35 175.736 1021.35H171.524V1031H166.484V1005.87H175.736C177.68 1005.87 179.336 1006.21 180.704 1006.88C182.072 1007.55 183.092 1008.48 183.764 1009.65C184.46 1010.83 184.808 1012.16 184.808 1013.65ZM175.52 1017.28C176.912 1017.28 177.944 1016.97 178.616 1016.35C179.288 1015.7 179.624 1014.8 179.624 1013.65C179.624 1011.2 178.256 1009.98 175.52 1009.98H171.524V1017.28H175.52ZM206.926 1020.6C206.926 1021.32 206.878 1021.96 206.782 1022.54H192.202C192.322 1023.98 192.826 1025.11 193.714 1025.92C194.602 1026.74 195.694 1027.15 196.99 1027.15C198.862 1027.15 200.194 1026.34 200.986 1024.74H206.422C205.846 1026.66 204.742 1028.24 203.11 1029.49C201.478 1030.71 199.474 1031.32 197.098 1031.32C195.178 1031.32 193.45 1030.9 191.914 1030.06C190.402 1029.2 189.214 1027.99 188.35 1026.43C187.51 1024.87 187.09 1023.07 187.09 1021.03C187.09 1018.96 187.51 1017.15 188.35 1015.59C189.19 1014.03 190.366 1012.83 191.878 1011.99C193.39 1011.15 195.13 1010.73 197.098 1010.73C198.994 1010.73 200.686 1011.14 202.174 1011.96C203.686 1012.77 204.85 1013.94 205.666 1015.45C206.506 1016.94 206.926 1018.65 206.926 1020.6ZM201.706 1019.16C201.682 1017.86 201.214 1016.83 200.302 1016.06C199.39 1015.27 198.274 1014.87 196.954 1014.87C195.706 1014.87 194.65 1015.26 193.786 1016.02C192.946 1016.77 192.43 1017.81 192.238 1019.16H201.706ZM215.645 1014.15C216.293 1013.1 217.133 1012.27 218.165 1011.67C219.221 1011.07 220.421 1010.77 221.765 1010.77V1016.06H220.433C218.849 1016.06 217.649 1016.43 216.833 1017.18C216.041 1017.92 215.645 1019.22 215.645 1021.06V1031H210.605V1011.06H215.645V1014.15ZM232.792 1031.32C231.16 1031.32 229.696 1031.04 228.4 1030.46C227.104 1029.86 226.072 1029.06 225.304 1028.05C224.56 1027.04 224.152 1025.92 224.08 1024.7H229.156C229.252 1025.47 229.624 1026.1 230.272 1026.61C230.944 1027.11 231.772 1027.36 232.756 1027.36C233.716 1027.36 234.46 1027.17 234.988 1026.79C235.54 1026.4 235.816 1025.91 235.816 1025.31C235.816 1024.66 235.48 1024.18 234.808 1023.87C234.16 1023.54 233.116 1023.18 231.676 1022.79C230.188 1022.43 228.964 1022.06 228.004 1021.68C227.068 1021.29 226.252 1020.7 225.556 1019.91C224.884 1019.12 224.548 1018.05 224.548 1016.71C224.548 1015.6 224.86 1014.6 225.484 1013.68C226.132 1012.77 227.044 1012.05 228.22 1011.52C229.42 1011 230.824 1010.73 232.432 1010.73C234.808 1010.73 236.704 1011.33 238.12 1012.53C239.536 1013.71 240.316 1015.3 240.46 1017.32H235.636C235.564 1016.53 235.228 1015.9 234.628 1015.45C234.052 1014.97 233.272 1014.73 232.288 1014.73C231.376 1014.73 230.668 1014.9 230.164 1015.23C229.684 1015.57 229.444 1016.04 229.444 1016.64C229.444 1017.31 229.78 1017.82 230.452 1018.18C231.124 1018.52 232.168 1018.87 233.584 1019.23C235.024 1019.59 236.212 1019.96 237.148 1020.34C238.084 1020.73 238.888 1021.33 239.56 1022.14C240.256 1022.94 240.616 1023.99 240.64 1025.31C240.64 1026.46 240.316 1027.5 239.668 1028.41C239.044 1029.32 238.132 1030.04 236.932 1030.57C235.756 1031.07 234.376 1031.32 232.792 1031.32ZM247.333 1008.68C246.445 1008.68 245.701 1008.4 245.101 1007.85C244.525 1007.28 244.237 1006.57 244.237 1005.73C244.237 1004.89 244.525 1004.19 245.101 1003.64C245.701 1003.06 246.445 1002.78 247.333 1002.78C248.221 1002.78 248.953 1003.06 249.529 1003.64C250.129 1004.19 250.429 1004.89 250.429 1005.73C250.429 1006.57 250.129 1007.28 249.529 1007.85C248.953 1008.4 248.221 1008.68 247.333 1008.68ZM249.817 1011.06V1031H244.777V1011.06H249.817ZM253.5 1020.96C253.5 1018.94 253.896 1017.15 254.688 1015.59C255.505 1014.03 256.597 1012.83 257.965 1011.99C259.357 1011.15 260.905 1010.73 262.609 1010.73C264.097 1010.73 265.393 1011.03 266.497 1011.63C267.625 1012.23 268.525 1012.99 269.197 1013.9V1011.06H274.273V1031H269.197V1028.08C268.549 1029.02 267.649 1029.8 266.497 1030.42C265.369 1031.02 264.061 1031.32 262.573 1031.32C260.893 1031.32 259.357 1030.89 257.965 1030.03C256.597 1029.16 255.505 1027.95 254.688 1026.39C253.896 1024.81 253.5 1023 253.5 1020.96ZM269.197 1021.03C269.197 1019.8 268.957 1018.76 268.477 1017.9C267.997 1017.01 267.349 1016.34 266.533 1015.88C265.717 1015.4 264.841 1015.16 263.905 1015.16C262.969 1015.16 262.105 1015.39 261.312 1015.84C260.521 1016.3 259.873 1016.97 259.369 1017.86C258.889 1018.72 258.649 1019.76 258.649 1020.96C258.649 1022.16 258.889 1023.21 259.369 1024.12C259.873 1025.01 260.521 1025.7 261.312 1026.18C262.129 1026.66 262.993 1026.9 263.905 1026.9C264.841 1026.9 265.717 1026.67 266.533 1026.21C267.349 1025.73 267.997 1025.06 268.477 1024.2C268.957 1023.31 269.197 1022.25 269.197 1021.03ZM284.235 1013.94C284.883 1013.02 285.771 1012.27 286.899 1011.67C288.051 1011.04 289.359 1010.73 290.823 1010.73C292.527 1010.73 294.063 1011.15 295.431 1011.99C296.823 1012.83 297.915 1014.03 298.707 1015.59C299.523 1017.13 299.931 1018.92 299.931 1020.96C299.931 1023 299.523 1024.81 298.707 1026.39C297.915 1027.95 296.823 1029.16 295.431 1030.03C294.063 1030.89 292.527 1031.32 290.823 1031.32C289.359 1031.32 288.063 1031.02 286.935 1030.42C285.831 1029.82 284.931 1029.07 284.235 1028.16V1040.5H279.195V1011.06H284.235V1013.94ZM294.783 1020.96C294.783 1019.76 294.531 1018.72 294.027 1017.86C293.547 1016.97 292.899 1016.3 292.083 1015.84C291.291 1015.39 290.427 1015.16 289.491 1015.16C288.579 1015.16 287.715 1015.4 286.899 1015.88C286.107 1016.34 285.459 1017.01 284.955 1017.9C284.475 1018.78 284.235 1019.83 284.235 1021.03C284.235 1022.23 284.475 1023.27 284.955 1024.16C285.459 1025.05 286.107 1025.73 286.899 1026.21C287.715 1026.67 288.579 1026.9 289.491 1026.9C290.427 1026.9 291.291 1026.66 292.083 1026.18C292.899 1025.7 293.547 1025.01 294.027 1024.12C294.531 1023.24 294.783 1022.18 294.783 1020.96ZM302.297 1020.96C302.297 1018.94 302.693 1017.15 303.485 1015.59C304.301 1014.03 305.393 1012.83 306.761 1011.99C308.153 1011.15 309.701 1010.73 311.405 1010.73C312.893 1010.73 314.189 1011.03 315.293 1011.63C316.421 1012.23 317.321 1012.99 317.993 1013.9V1011.06H323.069V1031H317.993V1028.08C317.345 1029.02 316.445 1029.8 315.293 1030.42C314.165 1031.02 312.857 1031.32 311.369 1031.32C309.689 1031.32 308.153 1030.89 306.761 1030.03C305.393 1029.16 304.301 1027.95 303.485 1026.39C302.693 1024.81 302.297 1023 302.297 1020.96ZM317.993 1021.03C317.993 1019.8 317.753 1018.76 317.273 1017.9C316.793 1017.01 316.145 1016.34 315.329 1015.88C314.513 1015.4 313.637 1015.16 312.701 1015.16C311.765 1015.16 310.901 1015.39 310.109 1015.84C309.317 1016.3 308.669 1016.97 308.165 1017.86C307.685 1018.72 307.445 1019.76 307.445 1020.96C307.445 1022.16 307.685 1023.21 308.165 1024.12C308.669 1025.01 309.317 1025.7 310.109 1026.18C310.925 1026.66 311.789 1026.9 312.701 1026.9C313.637 1026.9 314.513 1026.67 315.329 1026.21C316.145 1025.73 316.793 1025.06 317.273 1024.2C317.753 1023.31 317.993 1022.25 317.993 1021.03ZM339.044 1010.77C341.42 1010.77 343.34 1011.52 344.804 1013.04C346.268 1014.52 347 1016.61 347 1019.3V1031H341.96V1019.98C341.96 1018.4 341.564 1017.19 340.772 1016.35C339.98 1015.48 338.9 1015.05 337.532 1015.05C336.14 1015.05 335.036 1015.48 334.22 1016.35C333.428 1017.19 333.032 1018.4 333.032 1019.98V1031H327.992V1011.06H333.032V1013.54C333.704 1012.68 334.556 1012 335.588 1011.52C336.644 1011.02 337.796 1010.77 339.044 1010.77Z" fill="#E64600"/>
<path d="M478.171 149.434C474.555 99.6938 462.722 68.7178 450.541 49.611C443.496 38.5606 436.392 31.5753 430.846 27.287C428.079 25.1476 425.717 23.6925 423.967 22.7433C423.093 22.269 422.372 21.9215 421.831 21.6784C421.494 21.5268 421.152 21.3811 420.806 21.2511L420.79 21.2451C418.376 20.3508 416.707 20.6174 414.238 21.919C413.716 22.1942 413.017 22.5852 412.169 23.1121C410.473 24.1661 408.18 25.7618 405.503 28.0577C400.139 32.6583 393.287 40.0241 386.602 51.3783C375.069 70.9666 364.198 102.139 362.031 151.004L340.441 178.132L340.386 178.201C335.274 184.785 332.558 192.916 332.684 201.256L333.415 249.719C333.463 252.881 335.529 255.661 338.544 256.62C341.559 257.579 344.846 256.503 346.705 253.947L362.904 231.681C365.295 228.394 368.979 225.713 373.831 223.162C376.941 221.527 379.859 220.252 382.951 218.902C383.889 218.492 384.853 218.071 385.834 217.635C396.225 223.787 408.755 226.653 421.24 226.483C433.723 226.314 446.158 223.111 456.358 216.681C457.349 217.089 458.315 217.479 459.264 217.862C462.404 219.13 465.366 220.326 468.528 221.877C473.455 224.294 477.219 226.874 479.708 230.095L496.573 251.912C498.508 254.416 501.827 255.403 504.812 254.362C507.797 253.322 509.778 250.487 509.73 247.325L508.998 198.863C508.872 190.522 505.911 182.468 500.603 176.026L478.171 149.434ZM441.141 111.252C441.386 127.481 431.717 140.771 419.545 140.936C407.373 141.101 397.307 128.079 397.062 111.85C396.817 95.6213 406.486 82.3312 418.658 82.1659C430.83 82.0007 440.896 95.0229 441.141 111.252Z" fill="#FF6420"/>
<path d="M421.351 233.83C432.364 233.68 443.353 232.019 453.357 228.782C452.531 250.397 424.895 299.911 422.349 299.946C419.779 299.981 386.548 250.387 387.361 229.091C397.951 232.445 409.663 233.988 421.351 233.83Z" fill="#FF6420"/>
<defs>
<radialGradient id="paint0_radial_10123_23875" cx="0" cy="0" r="1" gradientUnits="userSpaceOnUse" gradientTransform="translate(416.5 261.5) rotate(90) scale(261.5)">
<stop stop-color="#FFD9C9"/>
<stop offset="1" stop-color="#FFE3D8" stop-opacity="0"/>
</radialGradient>
<linearGradient id="paint1_linear_10123_23875" x1="416.5" y1="182" x2="416.5" y2="1105" gradientUnits="userSpaceOnUse">
<stop stop-color="#FF6420"/>
<stop offset="1" stop-color="#FFA680"/>
</linearGradient>
</defs>
</svg>
