<svg width="400" height="384" viewBox="0 0 400 384" fill="none" xmlns="http://www.w3.org/2000/svg">
<path d="M400 383.28C400 383.416 310.45 383.516 200.009 383.516C89.5683 383.516 0 383.416 0 383.28C0 383.145 89.5321 383.045 200.009 383.045C310.486 383.045 400 383.154 400 383.28Z" fill="#263238"/>
<path d="M57.4445 359.754C58.3505 356.42 56.1128 353.077 53.6668 350.695C51.2209 348.312 48.2947 346.12 47.0174 342.922C44.9519 337.74 47.724 331.036 44.209 326.715C42.1345 324.178 38.4202 323.327 36.5812 320.609C35.7309 319.111 35.1686 317.467 34.9234 315.762C32.9686 307.156 28.735 299.233 22.6663 292.824C22.2572 300.491 23.9187 308.126 27.4767 314.929C28.899 317.647 30.6565 320.292 31.1004 323.327C31.8704 328.246 29.1164 333.292 30.3303 338.148C31.7164 343.674 37.922 347.379 38.2119 353.068C38.4655 357.879 34.2711 362.127 34.5882 366.911C34.8422 368.959 35.5848 370.916 36.7533 372.618C40.4676 378.805 45.9394 383.063 54.2195 382.927L64.3658 383.281L57.4445 359.754Z" fill="#FF6420"/>
<g opacity="0.3">
<path d="M57.4455 359.754C58.3514 356.42 56.1138 353.077 53.6678 350.695C51.2218 348.312 48.2957 346.12 47.0184 342.922C44.9529 337.74 47.725 331.036 44.21 326.715C42.1355 324.178 38.4212 323.327 36.5822 320.609C35.7319 319.111 35.1696 317.467 34.9243 315.762C32.9696 307.156 28.736 299.233 22.6672 292.824C22.2581 300.491 23.9197 308.126 27.4777 314.929C28.9 317.647 30.6575 320.292 31.1014 323.327C31.8714 328.246 29.1174 333.292 30.3313 338.148C31.7174 343.674 37.9229 347.379 38.2128 353.068C38.4665 357.879 34.2721 362.127 34.5891 366.911C34.8432 368.959 35.5858 370.916 36.7543 372.618C40.4686 378.805 45.9403 383.063 54.2204 382.927L64.3667 383.281L57.4455 359.754Z" fill="black"/>
</g>
<path d="M66.4142 383.489C67.3435 383.633 68.2906 383.614 69.2135 383.435C70.3342 383.264 71.4355 382.985 72.502 382.601C73.9749 382.089 75.3525 381.336 76.5787 380.373C77.3164 379.78 77.8928 379.01 78.2546 378.135C78.5577 377.155 78.7164 376.136 78.7257 375.109C78.7461 374.013 78.8278 372.918 78.9703 371.83C79.1612 370.672 79.5799 369.564 80.2024 368.569C81.3982 366.467 83.3912 364.474 84.0253 361.62C84.6595 358.767 84.2246 355.777 83.7536 352.733C83.2825 349.689 82.8476 346.392 83.9891 343.203C85.1306 340.014 87.3048 337.16 88.4191 333.591C89.5333 330.022 89.0079 326.09 89.2434 322.258C89.313 320.312 89.7623 318.397 90.5661 316.623C91.3814 314.811 92.5229 313.135 93.4107 311.251C95.2225 307.428 95.5305 303.098 96.0197 298.849C96.2643 296.711 96.4999 294.546 96.7445 292.372C96.8987 290.174 97.2781 287.997 97.8769 285.876C98.5642 283.739 99.3748 281.642 100.305 279.598C100.784 278.541 101.177 277.448 101.482 276.328C101.653 275.169 101.762 274.002 101.809 272.831C101.917 270.487 101.826 268.139 101.537 265.81C101.265 263.473 100.839 261.154 100.586 258.807C100.586 258.662 100.586 258.527 100.586 258.4L100.531 257.938L100.124 258.137C97.9816 259.236 96.1216 260.814 94.688 262.748C93.282 264.642 92.1504 266.725 91.327 268.936C89.633 273.293 89.026 277.859 88.1744 282.216C87.3229 286.574 86.2358 290.859 84.0072 294.483C82.8929 296.294 81.5431 297.943 80.3835 299.701C79.1244 301.416 78.264 303.39 77.8651 305.48C77.2581 309.775 79.6226 313.543 79.1334 317.348C78.9126 319.212 78.2948 321.007 77.3215 322.611C76.4156 324.233 75.3194 325.737 74.2867 327.241C73.2399 328.716 72.3302 330.283 71.5689 331.924C70.8524 333.53 70.429 335.251 70.3188 337.006C70.0742 340.431 70.5543 343.674 70.3188 346.736C70.0359 349.655 69.1833 352.489 67.8094 355.08C66.5864 357.571 65.2184 359.827 64.077 362.019C63.5062 363.106 62.9718 364.175 62.5369 365.253C62.1254 366.288 61.8218 367.363 61.631 368.46C61.3278 370.376 61.3034 372.326 61.5585 374.249C61.8247 376.93 62.8281 379.486 64.4575 381.632C64.7066 381.956 64.9823 382.26 65.2818 382.538C65.4819 382.748 65.7036 382.936 65.9432 383.1C66.3237 383.381 66.523 383.507 66.523 383.507C65.7987 382.935 65.1395 382.285 64.5571 381.569C63.0018 379.415 62.0622 376.878 61.8393 374.231C61.6087 372.332 61.6514 370.41 61.9662 368.523C62.1569 367.453 62.4606 366.405 62.8721 365.398C63.3311 364.308 63.8482 363.244 64.4212 362.209C65.5717 360.035 66.9487 357.788 68.1989 355.279C69.6139 352.648 70.4945 349.763 70.7898 346.79C71.0616 343.665 70.5905 340.404 70.8442 337.07C70.9609 335.371 71.3748 333.706 72.0672 332.151C72.8332 330.544 73.7428 329.01 74.7849 327.567C75.8177 326.063 76.9139 324.559 77.856 322.901C78.8901 321.236 79.5514 319.366 79.7947 317.42C80.2839 313.371 77.9376 309.584 78.5445 305.589C78.9416 303.591 79.7736 301.704 80.9814 300.063C82.132 298.333 83.4908 296.684 84.6051 294.827C86.9152 291.103 88.0295 286.737 88.872 282.361C89.7145 277.986 90.3396 273.456 92.0065 269.18C92.8082 267.031 93.9092 265.006 95.2769 263.165C96.6559 261.309 98.4447 259.796 100.504 258.744L100.042 258.481C100.042 258.617 100.042 258.753 100.087 258.898C100.341 261.272 100.767 263.591 100.993 265.91C101.279 268.202 101.367 270.515 101.256 272.822C101.21 273.956 101.107 275.087 100.948 276.21C100.655 277.294 100.273 278.351 99.8065 279.372C98.8716 281.438 98.055 283.555 97.3605 285.713C96.7567 287.867 96.3742 290.077 96.219 292.308C95.9835 294.492 95.7389 296.657 95.5033 298.795C95.0141 303.062 94.6971 307.319 92.9668 311.007C92.0609 312.818 90.9737 314.549 90.1312 316.397C89.3021 318.237 88.8405 320.222 88.7724 322.24C88.5459 326.154 89.0532 329.986 87.9933 333.446C86.9333 336.907 84.732 339.788 83.6177 343.058C82.5034 346.328 82.9111 349.789 83.4003 352.824C83.8895 355.859 84.3786 358.848 83.7264 361.539C83.0741 364.229 81.2079 366.241 79.994 368.397C79.354 369.435 78.926 370.589 78.7348 371.794C78.5979 372.894 78.5253 374.001 78.5173 375.109C78.5188 376.11 78.3723 377.105 78.0825 378.063C77.7469 378.893 77.208 379.625 76.5153 380.192C75.3219 381.154 73.9783 381.913 72.5383 382.438C71.4858 382.844 70.3967 383.147 69.286 383.344C68.6072 383.467 67.9194 383.534 67.2296 383.544C66.6588 383.489 66.4142 383.489 66.4142 383.489Z" fill="#263238"/>
<path d="M98.4639 263.998C98.4155 264.095 98.3819 264.199 98.3642 264.306L98.1468 265.212C97.9475 266.018 97.7029 267.223 97.3224 268.727C96.9419 270.231 96.0088 271.934 95.2207 274.027C94.2976 276.383 93.4933 278.783 92.8109 281.22C92.0318 283.938 91.3524 286.927 90.6277 290.152C90.0118 293.587 88.9202 296.92 87.3845 300.054C86.551 301.703 85.5726 303.37 84.8751 305.2C84.1436 307.068 83.6534 309.023 83.4165 311.016C82.9012 315.143 82.1695 319.24 81.2242 323.291C79.195 331.598 77.2563 339.516 75.4897 346.727C73.7232 353.938 72.0563 360.388 70.6793 365.842C69.3023 371.295 68.2605 375.644 67.4995 378.751C67.1462 380.237 66.8654 381.406 66.6661 382.266C66.5845 382.638 66.5121 382.937 66.4577 383.172C66.4477 383.278 66.4477 383.384 66.4577 383.489C66.5103 383.395 66.55 383.295 66.5755 383.19C66.6389 382.946 66.7295 382.656 66.8382 382.284C67.0647 381.442 67.3818 380.273 67.7894 378.797C68.6047 375.716 69.7553 371.341 71.1776 365.951C72.5999 360.56 74.2577 354.038 76.1148 346.872C77.972 339.706 79.8563 331.734 81.9037 323.418C82.8429 319.356 83.5566 315.246 84.0416 311.106C84.2731 309.161 84.7479 307.253 85.4549 305.426C86.1705 303.614 87.0855 301.993 87.919 300.326C89.7308 297.019 90.4465 293.468 91.1622 290.27C91.8778 287.072 92.512 284.046 93.2548 281.347C93.9977 278.647 94.7768 276.237 95.5559 274.154C96.335 272.07 97.1956 270.349 97.567 268.791C97.9384 267.232 98.1106 266.073 98.2736 265.239C98.334 264.865 98.3884 264.563 98.4367 264.333C98.4639 264.107 98.482 263.998 98.4639 263.998Z" fill="#263238"/>
<path d="M68.2076 383.534C74.8299 379.594 76.7323 367.635 73.9693 360.442C71.2062 353.249 66.3686 346.672 65.6257 338.999C65.0459 333.102 66.9846 327.05 65.6257 321.289C63.7686 313.507 56.177 307.482 56.2676 299.483C56.3129 294.999 58.8676 290.777 58.6592 286.293C58.4146 280.803 54.193 276.436 51.584 271.599C47.5798 264.179 47.3171 255.419 45.9491 247.139C44.5812 238.859 41.4195 229.927 34.0454 225.841C32.9582 232.898 31.1011 237.736 31.6809 247.293C31.8983 250.726 35.8844 257.258 36.4279 264.823C36.7541 269.352 36.9715 273.827 37.2523 278.321C37.5331 282.814 37.8049 287.163 39.3722 291.257C40.577 294.401 42.5066 297.255 43.4035 300.498C45.0795 306.595 42.869 313.181 44.2279 319.377C45.3784 324.613 49.0021 329.116 49.745 334.424C50.7777 341.88 45.9582 349.635 48.4223 356.746C49.6544 360.279 52.5533 363.088 53.3777 366.757C54.0209 369.583 53.3233 372.582 53.9031 375.417C54.809 380.001 63.5602 383.571 68.2257 383.272" fill="#FF6420"/>
<path d="M35.856 232.807C35.8436 232.94 35.8436 233.073 35.856 233.206C35.856 233.505 35.9465 233.885 36.0009 234.366C36.1549 235.389 36.327 236.884 36.6713 238.823C37.0155 240.761 38.0483 242.954 38.8455 245.599C39.6427 248.244 40.5305 251.27 41.2734 254.658C42.0162 258.046 42.6685 261.824 43.3298 265.873C43.9911 269.923 44.7159 274.335 46.727 278.556C47.6329 280.667 48.7019 282.787 49.4448 285.052C50.2059 287.37 50.6746 289.774 50.8399 292.209C51.2102 297.374 51.8604 302.515 52.7876 307.609C54.8169 318.063 56.7465 328.02 58.504 337.088C60.2614 346.156 62.028 354.246 63.4412 361.095C64.8545 367.943 66.014 373.415 66.8203 377.274L67.7262 381.668C67.8349 382.139 67.9165 382.511 67.9889 382.801C68.0135 382.933 68.0498 383.064 68.0977 383.19C68.1137 383.058 68.1137 382.924 68.0977 382.792C68.0433 382.493 67.9799 382.121 67.8984 381.641C67.6991 380.59 67.4182 379.104 67.0649 377.22C66.3039 373.352 65.2531 367.826 63.8851 361.004C62.5172 354.183 60.8956 346.002 59.0928 336.97C57.29 327.938 55.4691 317.946 53.4308 307.5C52.5031 302.406 51.8499 297.265 51.474 292.1C51.3016 289.615 50.8177 287.162 50.0336 284.798C49.2273 282.497 48.1674 280.368 47.2343 278.266C45.2413 274.108 44.5166 269.769 43.8281 265.738C43.1396 261.706 42.4782 257.919 41.6901 254.513C40.9019 251.107 40.0413 248.063 39.1535 245.454C38.2657 242.845 37.2782 240.635 36.8796 238.741C36.481 236.848 36.2908 235.326 36.1006 234.32C36.01 233.849 35.9375 233.469 35.8831 233.17C35.8812 233.049 35.8722 232.928 35.856 232.807Z" fill="#263238"/>
<path d="M355.339 43.5604H351.716C351.718 43.9714 351.638 44.3787 351.48 44.7582C351.323 45.1378 351.09 45.4817 350.797 45.7698C350.504 46.0579 350.156 46.2842 349.774 46.4353C349.392 46.5864 348.983 46.6593 348.572 46.6496C347.965 46.6714 347.367 46.5033 346.86 46.1687C346.354 45.8342 345.964 45.3499 345.746 44.7834C345.555 44.3116 345.478 43.8014 345.522 43.2944C345.566 42.7874 345.73 42.2981 345.999 41.8663C346.615 40.8517 347.956 39.9367 350.384 40.3625V32.2092H346.824V36.9744C345.363 37.4045 344.083 38.302 343.182 39.5294C342.28 40.7567 341.806 42.246 341.832 43.7688C341.832 49.0412 346.561 50.2642 348.59 50.2642C350.139 50.3005 355.412 49.929 355.339 43.5604Z" fill="#FF6420"/>
<path d="M346.797 30.5603H350.411V27.1812H346.797V30.5603Z" fill="#FF6420"/>
<path d="M375.098 38.7408C375.11 38.587 375.11 38.4326 375.098 38.2788C375.098 37.9527 375.098 37.5088 375.098 36.938C375.098 36.6481 375.098 36.313 375.052 35.9506C375.007 35.5882 374.953 35.1896 374.889 34.7729C374.826 34.3562 374.762 33.867 374.69 33.3868L374.309 31.8468C373.636 29.1945 372.535 26.67 371.048 24.3729C368.889 20.971 365.979 18.1094 362.541 16.0081C359.103 13.9068 355.23 12.6217 351.217 12.2517C350.013 12.1453 348.802 12.1211 347.594 12.1792C346.987 12.1792 346.362 12.1792 345.782 12.297L343.916 12.5778C341.355 13.0537 338.877 13.899 336.56 15.0872C334.14 16.3676 331.916 17.9874 329.956 19.8977C327.948 21.9322 326.27 24.2673 324.982 26.8189C323.596 29.4494 322.688 32.3051 322.3 35.253C322.187 35.9999 322.124 36.7535 322.11 37.5088C322.05 38.2651 322.035 39.0244 322.065 39.7826C322.262 44.6424 323.781 49.3563 326.459 53.4167V53.1359C325.199 56.2794 323.958 59.3686 322.744 62.3763L322.527 62.9289L323.098 62.7658L332.972 60.0481L332.737 59.9937C336.062 62.5114 339.936 64.2063 344.043 64.94C345.947 65.2951 347.889 65.4137 349.822 65.2933C350.755 65.2794 351.685 65.1916 352.604 65.0306L353.953 64.8223C354.397 64.7407 354.859 64.6048 355.258 64.5052C361.343 62.9632 366.68 59.3054 370.314 54.1868C371.67 52.3011 372.758 50.2372 373.548 48.0537C373.721 47.5735 373.884 47.1478 374.038 46.6767C374.192 46.2056 374.273 45.7708 374.373 45.3631C374.472 44.9554 374.581 44.5387 374.672 44.1582C374.762 43.7777 374.79 43.4063 374.844 43.053C374.925 42.3554 375.052 41.7394 375.079 41.2412C375.107 40.7429 375.079 40.2628 375.079 39.8823C375.079 39.5018 375.079 39.2663 375.079 39.0579C375.079 38.8495 375.079 38.7771 375.079 38.7771C375.066 38.8701 375.066 38.9648 375.079 39.0579C375.079 39.2663 375.079 39.538 375.016 39.8823C374.953 40.2265 374.962 40.7067 374.925 41.2321C374.889 41.7575 374.753 42.3736 374.645 43.0439C373.78 48.0578 371.479 52.713 368.02 56.4439C364.561 60.1749 360.093 62.8211 355.158 64.0613C354.732 64.1609 354.307 64.2878 353.872 64.3693L352.54 64.5686C351.642 64.7186 350.733 64.8003 349.822 64.8132C347.924 64.9133 346.02 64.7886 344.151 64.4418C340.141 63.7038 336.359 62.0378 333.108 59.577L332.999 59.4864H332.864L322.98 62.2042L323.324 62.5937L327.047 53.3624L327.102 53.2174L327.02 53.0815C325.236 50.3826 323.971 47.375 323.288 44.2126C322.975 42.7454 322.787 41.2544 322.726 39.7554C322.696 39.0154 322.711 38.2742 322.772 37.5359C322.777 36.7987 322.838 36.0628 322.953 35.3346C323.301 32.4557 324.156 29.6615 325.48 27.0816C326.739 24.588 328.374 22.3026 330.327 20.3053C332.246 18.43 334.424 16.8405 336.795 15.5855C339.061 14.4069 341.488 13.5675 343.997 13.0942L345.809 12.8134C346.416 12.7228 347.023 12.7318 347.621 12.6866C348.802 12.6304 349.985 12.6516 351.163 12.75C355.109 13.0954 358.925 14.3355 362.32 16.3762C365.716 18.4168 368.601 21.2043 370.758 24.5269C372.253 26.784 373.373 29.2681 374.074 31.883L374.481 33.4049C374.563 33.8851 374.636 34.3109 374.708 34.7638C374.78 35.2168 374.835 35.5792 374.898 35.9415C374.962 36.3039 374.944 36.63 374.971 36.9199C374.971 37.4816 375.043 37.9255 375.07 38.2516C375.053 38.4151 375.062 38.5803 375.098 38.7408Z" fill="#263238"/>
<path d="M104.942 145.576H157.259C157.259 145.576 157.259 101.648 202.908 100.868C226.616 100.452 238.91 115.988 243.91 127.883C249.708 141.698 247.951 157.443 240.178 170.262C231.309 184.893 212.194 199.596 176.936 193.381L176.6 309.946H228.338V240.842C228.338 240.842 300.893 222.09 300.893 142.097C300.893 65.592 239.027 49.068 205.771 47.999C187.272 47.4101 180.568 46.6129 157.685 49.8652C128.523 54.0324 104.326 87.8957 104.942 145.576Z" fill="#FF6420"/>
<path d="M228.962 334.243H176.455V383.28H228.962V334.243Z" fill="#FF6420"/>
<path opacity="0.1" d="M228.962 334.243H176.455V383.28H228.962V334.243Z" fill="black"/>
<path opacity="0.1" d="M104.942 145.576H157.259C157.259 145.576 157.259 101.648 202.908 100.868C226.616 100.452 238.91 115.988 243.91 127.883C249.708 141.698 247.951 157.443 240.178 170.262C231.309 184.893 212.194 199.596 176.936 193.381L176.6 309.946H228.338V240.842C228.338 240.842 300.893 222.09 300.893 142.097C300.893 65.592 239.027 49.068 205.771 47.999C187.272 47.4101 180.568 46.6129 157.685 49.8652C128.523 54.0324 104.326 87.8957 104.942 145.576Z" fill="black"/>
<path d="M83.2634 145.576H135.589C135.589 145.576 135.589 101.648 181.239 100.869C204.947 100.452 217.24 115.989 222.232 127.883C228.039 141.699 226.281 157.443 218.508 170.262C209.639 184.893 190.189 198.192 154.931 192.004V309.946H206.668V240.842C206.668 240.842 279.223 222.09 279.223 142.097C279.223 65.5922 210.609 47.8271 181.248 47.8271C158.79 47.8543 82.2759 53.2808 83.2634 145.576Z" fill="#FF6420"/>
<path opacity="0.3" d="M83.2634 145.576H135.589C135.589 145.576 135.589 101.648 181.239 100.869C204.947 100.452 217.24 115.989 222.232 127.883C228.039 141.699 226.281 157.443 218.508 170.262C209.639 184.893 190.189 198.192 154.931 192.004V309.946H206.668V240.842C206.668 240.842 279.223 222.09 279.223 142.097C279.223 65.5922 210.609 47.8271 181.248 47.8271C158.79 47.8543 82.2759 53.2808 83.2634 145.576Z" fill="black"/>
<path d="M207.293 334.243H154.786V383.28H207.293V334.243Z" fill="#FF6420"/>
<path opacity="0.3" d="M207.293 334.243H154.786V383.28H207.293V334.243Z" fill="black"/>
<path d="M187.146 101.104C186.886 101.126 186.626 101.126 186.367 101.104C185.85 101.104 185.107 100.932 184.138 100.923C181.397 100.788 178.65 100.903 175.93 101.267C171.897 101.778 167.929 102.71 164.09 104.048C161.827 104.839 159.623 105.79 157.495 106.893C155.194 108.042 153.028 109.443 151.036 111.069C149.057 112.71 147.284 114.584 145.754 116.65C144.304 118.56 142.982 120.563 141.795 122.647C139.814 126.196 138.243 129.958 137.112 133.862C136.345 136.497 135.817 139.195 135.535 141.925C135.427 142.885 135.399 143.646 135.372 144.153C135.373 144.415 135.349 144.676 135.3 144.932C135.276 144.673 135.276 144.413 135.3 144.153C135.3 143.637 135.3 142.876 135.381 141.907C135.59 139.148 136.072 136.417 136.822 133.753C137.911 129.804 139.462 125.998 141.442 122.411C142.631 120.305 143.96 118.28 145.419 116.351C146.961 114.251 148.756 112.349 150.764 110.689C152.78 109.04 154.974 107.621 157.305 106.458C159.446 105.335 161.665 104.366 163.945 103.559C167.819 102.226 171.825 101.315 175.894 100.841C178.632 100.505 181.397 100.441 184.147 100.651C184.894 100.699 185.639 100.79 186.376 100.923C186.636 100.965 186.893 101.026 187.146 101.104Z" fill="#263238"/>
<path d="M265.979 91.7821C265.979 91.7821 265.916 91.7187 265.807 91.5828C265.698 91.4469 265.535 91.2114 265.354 90.9487L263.624 88.5027C263.252 87.9772 262.854 87.3703 262.382 86.7452L260.752 84.7612L258.886 82.4692C258.206 81.672 257.409 80.902 256.612 80.0595C255.815 79.217 254.999 78.3201 254.075 77.4595C253.151 76.5989 252.164 75.7201 251.149 74.8142C250.642 74.3613 250.143 73.9083 249.6 73.4282L247.915 72.0965C246.764 71.1905 245.623 70.2846 244.382 69.3787C238.972 65.5083 233.234 62.1193 227.233 59.2505L222.459 57.0944L217.721 55.2826C216.171 54.6394 214.595 54.1864 213.073 53.6791C211.551 53.1718 210.066 52.6554 208.544 52.3021L204.213 51.1697C202.809 50.7983 201.414 50.5718 200.082 50.2638C198.751 49.9558 197.464 49.684 196.205 49.53L192.581 49.0046C190.289 48.615 188.188 48.5335 186.358 48.3523C185.452 48.2798 184.546 48.1802 183.794 48.1439L181.638 48.0896L178.648 47.9899H177.869H177.606C177.693 47.9763 177.782 47.9763 177.869 47.9899H178.648H181.638H183.803C184.591 47.9899 185.452 48.0986 186.376 48.162C188.188 48.3161 190.326 48.3795 192.618 48.7509L196.241 49.2401C197.5 49.385 198.787 49.7112 200.128 49.9558C201.468 50.2004 202.845 50.454 204.286 50.8617L208.634 51.985C210.138 52.3293 211.624 52.891 213.164 53.353C214.704 53.815 216.271 54.2589 217.82 54.9474L222.585 56.7592L227.387 58.9244C233.42 61.7997 239.18 65.2137 244.599 69.125C245.849 70.031 246.991 71.0003 248.141 71.8972L249.826 73.1202C250.37 73.5731 250.868 74.0261 251.376 74.5153L254.293 77.233C255.199 78.139 256.014 79.0449 256.82 79.8693C257.626 80.6936 258.396 81.4999 259.076 82.3062L260.888 84.6163L262.5 86.6274C262.962 87.2616 263.352 87.8776 263.714 88.4393C264.421 89.4992 264.973 90.3326 265.363 90.9305L265.789 91.5919C265.86 91.6468 265.924 91.7107 265.979 91.7821Z" fill="#263238"/>
<path d="M260.524 204.116C260.416 204.312 260.286 204.495 260.135 204.66L258.884 206.136C258.368 206.798 257.716 207.586 256.91 208.465C256.103 209.343 255.243 210.376 254.192 211.445C253.141 212.514 252.018 213.71 250.74 214.915C249.463 216.12 248.077 217.388 246.6 218.711C240.123 224.364 233.024 229.26 225.438 233.305C223.68 234.211 222.023 235.117 220.419 235.814C218.816 236.512 217.321 237.228 215.944 237.807C214.567 238.387 213.299 238.867 212.193 239.293C211.088 239.719 210.119 240.063 209.322 240.317L207.51 240.906C207.299 240.989 207.081 241.05 206.857 241.087C207.053 240.975 207.259 240.884 207.473 240.815L209.285 240.145C210.073 239.864 211.025 239.501 212.121 239.048C213.217 238.596 214.485 238.143 215.844 237.499C217.203 236.856 218.707 236.249 220.274 235.461C221.841 234.673 223.517 233.839 225.266 232.924C228.717 231.022 232.441 228.793 236.2 226.221C239.96 223.648 243.339 220.939 246.346 218.384C247.823 217.08 249.236 215.857 250.496 214.625C251.755 213.393 252.933 212.279 253.974 211.21C255.016 210.141 255.931 209.153 256.746 208.283C257.562 207.414 258.232 206.653 258.776 206.019L260.044 204.578C260.191 204.412 260.352 204.257 260.524 204.116Z" fill="#263238"/>
<path d="M205.753 305.833C205.618 305.833 205.509 291.284 205.509 273.338C205.509 255.391 205.618 240.833 205.753 240.833C205.889 240.833 205.989 255.382 205.989 273.338C205.989 291.293 205.88 305.833 205.753 305.833Z" fill="#263238"/>
<path d="M207.746 379.955C207.61 379.955 207.511 369.746 207.511 357.153C207.511 344.561 207.61 334.342 207.746 334.342C207.882 334.342 207.982 344.552 207.982 357.153C207.982 369.755 207.873 379.955 207.746 379.955Z" fill="#263238"/>
<path d="M259.248 138.628C258.342 140.44 261.721 141.925 263.669 142.514C265.656 143.002 267.712 143.143 269.748 142.931C272.465 142.786 275.246 142.532 277.593 141.192C279.648 139.919 281.29 138.078 282.322 135.892C283.339 133.713 284.143 131.441 284.722 129.107C284.722 129.107 263.315 130.502 259.248 138.628Z" fill="#FF6420"/>
<g opacity="0.4">
<path d="M259.248 138.628C258.342 140.44 261.721 141.925 263.669 142.514C265.656 143.002 267.712 143.143 269.748 142.931C272.465 142.786 275.246 142.532 277.593 141.192C279.648 139.919 281.29 138.078 282.322 135.892C283.339 133.713 284.143 131.441 284.722 129.107C284.722 129.107 263.315 130.502 259.248 138.628Z" fill="black"/>
</g>
<path d="M319.709 132.83C323.238 135.333 327.467 136.659 331.794 136.617C333.868 136.732 335.913 136.088 337.546 134.805C338.244 134.162 338.769 133.346 339.485 132.73C339.974 132.314 340.545 131.997 341.007 131.553C341.251 131.343 341.439 131.076 341.554 130.775C341.669 130.475 341.709 130.151 341.668 129.831C341.489 129.045 341.048 128.342 340.418 127.838C337.963 126.443 335.028 126.498 332.201 126.561C329.373 126.684 326.578 127.23 323.912 128.183C321.72 128.926 319.428 129.995 318.313 131.988" fill="#FF6420"/>
<g opacity="0.4">
<path d="M341.67 129.832C341.35 129.068 340.786 128.431 340.067 128.02C337.612 126.625 335.03 126.498 332.203 126.561C329.375 126.684 326.58 127.23 323.914 128.183C321.722 128.926 319.43 129.995 318.315 131.988L319.711 132.83C323.24 135.334 327.469 136.659 331.796 136.617C333.87 136.733 335.915 136.088 337.548 134.805C338.246 134.162 338.771 133.347 339.487 132.731C339.976 132.314 340.547 131.997 341.009 131.553C341.253 131.343 341.441 131.076 341.556 130.776C341.671 130.475 341.711 130.151 341.67 129.832Z" fill="black"/>
</g>
<path d="M277.91 165.343L323.07 165.941C323.162 165.941 323.252 165.919 323.334 165.878C323.417 165.836 323.488 165.776 323.542 165.702C323.597 165.628 323.633 165.542 323.649 165.452C323.664 165.361 323.658 165.268 323.632 165.18L318.332 148.656C318.332 148.656 319.111 140.394 320.189 130.465C321.829 115.382 324.012 96.421 324.039 96.4753C320.95 87.8148 302.723 86.3472 302.723 86.3472L281.95 87.5792L281.225 86.3562L275.246 89.1374C273.942 89.7441 272.688 90.4529 271.496 91.2573C267.546 93.8935 258.034 99.9541 256.295 106.703C252.281 122.33 259.076 139.769 259.076 139.769L263.442 136.354C264.542 135.506 265.698 134.735 266.903 134.044L275.654 157.498C275.133 157.826 274.692 158.267 274.363 158.787C274.034 159.307 273.825 159.895 273.752 160.506C273.679 162.408 274.658 164.691 277.91 165.343Z" fill="#FF6420"/>
<g opacity="0.3">
<path d="M297.287 137.695C298.719 129.995 297.967 122.077 297.197 114.286C294.696 120.628 294.787 127.875 292.133 134.162C291.807 134.826 291.57 135.529 291.426 136.255C291.357 136.619 291.375 136.994 291.479 137.35C291.583 137.706 291.77 138.032 292.024 138.302C292.749 138.963 293.836 138.601 294.796 138.492C295.656 138.328 296.492 138.061 297.287 137.695Z" fill="black"/>
</g>
<g opacity="0.4">
<path d="M280.627 155.524C284.251 156.783 288.11 154.436 291.942 154.02C294.479 153.748 297.015 154.328 299.534 154.735C304.627 155.559 309.807 155.687 314.935 155.116C315.721 155.073 316.491 154.872 317.199 154.527C317.565 154.278 317.865 153.942 318.071 153.551C318.278 153.159 318.386 152.723 318.386 152.28C309.852 151.374 301.328 150.885 292.794 150.007C290.67 149.644 288.494 149.715 286.398 150.215C283.825 151.012 281.868 153.032 280.057 155.034" fill="black"/>
</g>
<path d="M340.364 126.86C336.677 118.553 323.677 95.5786 323.677 95.5786L313.612 108.198L315.959 132.975C315.959 132.975 321.276 127.041 336.143 126.923C337.223 126.967 338.28 127.251 339.236 127.756C340.192 128.261 341.023 128.973 341.669 129.841L340.364 126.86Z" fill="#FF6420"/>
<path d="M279.93 122.466C279.212 120.705 278.643 118.887 278.227 117.031C277.665 115.223 277.252 113.371 276.995 111.496C277.703 113.26 278.269 115.077 278.689 116.931C279.252 118.74 279.667 120.591 279.93 122.466Z" fill="#263238"/>
<path d="M312.851 106.522C313.178 106.754 313.482 107.018 313.756 107.31C314.557 108.083 315.307 108.906 316.003 109.774C318.346 112.638 319.992 116.006 320.814 119.613C321.24 121.607 321.335 123.658 321.094 125.682C320.868 127.54 320.515 129.17 320.279 130.547C320.044 131.924 319.899 133.048 319.826 133.827C319.824 134.232 319.782 134.635 319.699 135.032C319.635 134.627 319.617 134.217 319.645 133.809C319.685 132.698 319.788 131.591 319.953 130.493C320.143 129.107 320.46 127.458 320.669 125.637C320.878 123.658 320.771 121.658 320.352 119.712C319.54 116.173 317.967 112.852 315.74 109.983C314.083 107.754 312.778 106.595 312.851 106.522Z" fill="#263238"/>
<path d="M303.628 163.351C303.314 163.491 302.982 163.588 302.641 163.64C302.254 163.743 301.861 163.818 301.463 163.867C301.001 163.93 300.476 164.03 299.887 164.057C298.507 164.184 297.118 164.184 295.738 164.057C294.049 163.884 292.381 163.55 290.755 163.061C289.138 162.541 287.573 161.871 286.081 161.059C284.871 160.383 283.722 159.604 282.647 158.73C282.176 158.368 281.796 157.988 281.452 157.67C281.155 157.403 280.873 157.119 280.609 156.819C280.357 156.586 280.14 156.317 279.966 156.022C280.029 155.958 280.999 157.045 282.856 158.468C283.941 159.293 285.089 160.032 286.289 160.678C287.764 161.453 289.304 162.099 290.891 162.608C292.489 163.089 294.126 163.429 295.783 163.622C297.137 163.768 298.5 163.81 299.86 163.749C302.188 163.622 303.61 163.278 303.628 163.351Z" fill="#263238"/>
<path d="M317.57 158.205C317.783 158.615 317.904 159.066 317.923 159.528C318.068 160.632 317.985 161.754 317.679 162.825C317.368 163.921 316.737 164.899 315.867 165.634C315.206 166.186 314.698 166.358 314.671 166.313C314.644 166.268 315.07 165.969 315.64 165.407C316.373 164.643 316.905 163.709 317.19 162.689C317.914 160.298 317.398 158.214 317.57 158.205Z" fill="#263238"/>
<path d="M315.116 161.394C315.312 162.326 315.234 163.294 314.889 164.182C314.545 165.07 313.95 165.839 313.177 166.394C313.077 166.295 313.92 165.398 314.445 164.012C314.971 162.626 314.98 161.403 315.116 161.394Z" fill="#263238"/>
<path d="M307.036 131.589C306.556 132.4 306.017 133.176 305.423 133.908C304.955 134.726 304.425 135.508 303.838 136.245C304.012 135.289 304.423 134.392 305.034 133.636C305.517 132.795 306.206 132.09 307.036 131.589Z" fill="#263238"/>
<path d="M276.035 109.648C275.345 109.242 274.676 108.801 274.033 108.325C270.811 106.208 267.154 104.843 263.334 104.33C262.534 104.272 261.738 104.166 260.951 104.013C261.754 103.902 262.568 103.902 263.37 104.013C267.295 104.348 271.054 105.748 274.241 108.062C274.91 108.505 275.513 109.039 276.035 109.648Z" fill="#263238"/>
<path d="M323.677 95.2798C322.056 96.5855 320.541 98.0183 319.147 99.5648C317.864 101.215 316.716 102.966 315.714 104.801C315.821 104.184 316.033 103.59 316.339 103.044C316.995 101.685 317.816 100.413 318.785 99.2568C319.756 98.1027 320.87 97.0768 322.101 96.2038C322.569 95.8073 323.102 95.4947 323.677 95.2798Z" fill="#263238"/>
<path d="M305.033 87.8149C305.116 87.9456 305.182 88.0855 305.232 88.2317C305.409 88.6419 305.552 89.0661 305.658 89.5C306.04 91.1144 306.04 92.7956 305.658 94.41C305.094 96.82 303.804 98.9988 301.962 100.652C299.637 102.622 296.674 103.678 293.628 103.623C290.578 103.634 287.607 102.658 285.157 100.842C283.205 99.3518 281.622 97.4333 280.528 95.2344C279.791 93.7621 279.272 92.1905 278.988 90.5689C278.905 90.1321 278.85 89.6903 278.825 89.2463C278.799 89.0903 278.799 88.9312 278.825 88.7752C278.825 88.7752 278.924 89.4094 279.178 90.5327C279.53 92.1085 280.088 93.6314 280.836 95.0623C281.941 97.1949 283.511 99.0524 285.429 100.498C287.79 102.246 290.645 103.198 293.582 103.216C296.519 103.27 299.377 102.266 301.636 100.389C303.415 98.7967 304.678 96.708 305.26 94.3919C305.663 92.8286 305.718 91.1959 305.423 89.6087C305.25 88.4129 304.979 87.8331 305.033 87.8149Z" fill="#263238"/>
<g opacity="0.3">
<path d="M308.204 133.193C308.204 132.74 308.132 132.205 307.733 131.979C307.607 131.915 307.467 131.882 307.326 131.882C307.184 131.882 307.044 131.915 306.918 131.979C306.665 132.116 306.44 132.3 306.257 132.522C305.192 133.631 304.368 134.948 303.838 136.391L308.277 136.001C308.25 135.086 308.232 134.126 308.204 133.193Z" fill="black"/>
</g>
<g opacity="0.3">
<path d="M322.944 123.853C322.498 121.312 321.385 118.936 319.719 116.968C321.639 123.236 320.996 126.779 319.918 131.073L320.154 130.475C321.395 127.965 323.279 126.389 322.944 123.853Z" fill="black"/>
</g>
<path d="M314.074 334.443L311.366 375.073L293.7 374.865L290.919 332.622L314.074 334.443Z" fill="#FFBE9D"/>
<path d="M311.863 369.729V370.906C311.863 370.906 331.794 378.915 331.984 382.683L292.404 382.466L293.02 369.303C298.918 372.066 305.087 372.41 311.863 369.729Z" fill="#FF6420"/>
<path d="M297.034 373.524C296.658 373.638 296.337 373.884 296.13 374.218C295.923 374.552 295.845 374.949 295.91 375.336C296.007 375.722 296.25 376.056 296.588 376.267C296.926 376.479 297.332 376.551 297.722 376.468C298.125 376.348 298.469 376.082 298.687 375.722C298.904 375.362 298.98 374.934 298.9 374.521C298.756 374.129 298.466 373.809 298.091 373.629C297.715 373.448 297.284 373.42 296.889 373.551" fill="white"/>
<path d="M292.404 382.465L292.549 379.304L330.453 380.681C330.453 380.681 332.21 381.46 332.002 382.692L292.404 382.465Z" fill="#263238"/>
<path d="M312.009 371.015C312.009 371.205 311.03 371.287 310.079 371.921C309.128 372.555 308.611 373.343 308.439 373.271C308.267 373.198 308.557 372.075 309.726 371.35C310.894 370.625 312.054 370.806 312.009 371.015Z" fill="#263238"/>
<path d="M316.148 372.754C316.194 372.944 315.351 373.261 314.69 374.077C314.028 374.892 313.838 375.753 313.639 375.744C313.44 375.735 313.331 374.638 314.173 373.651C315.016 372.663 316.139 372.618 316.148 372.754Z" fill="#263238"/>
<path d="M318.477 377.737C318.296 377.737 318.033 376.831 318.54 375.753C319.047 374.675 319.944 374.285 320.026 374.439C320.107 374.593 319.546 375.164 319.12 376.043C318.694 376.921 318.676 377.718 318.477 377.737Z" fill="#263238"/>
<path d="M310.849 37.2918C311.873 34.7553 310.631 31.6842 308.43 30.0445C306.11 28.5172 303.281 27.967 300.558 28.5135C297.871 29.0768 295.27 29.9905 292.821 31.2312C291.682 30.0828 290.247 29.2736 288.675 28.8938C287.103 28.5139 285.456 28.5785 283.919 29.0803C282.382 29.5822 281.014 30.5014 279.969 31.7355C278.924 32.9695 278.242 34.4698 278 36.0688C277.021 35.8223 275.993 35.8471 275.026 36.1406C274.06 36.4341 273.191 36.9852 272.514 37.7348C271.837 38.4844 271.377 39.4042 271.183 40.3955C270.99 41.3868 271.069 42.4121 271.414 43.3615L283.662 47.6646L297.034 71.2186C299.01 72.9045 301.532 73.8139 304.129 73.7771C306.727 73.7403 309.222 72.7598 311.149 71.0185C313.077 69.2773 314.305 66.8942 314.605 64.3139C314.905 61.7336 314.256 59.1324 312.778 56.9956C313.528 56.3293 314.164 55.5462 314.663 54.6764C315.731 54.0446 316.664 53.2066 317.405 52.2113C318.147 51.216 318.684 50.0831 318.984 48.8786C320.171 43.6333 316.112 37.9079 310.849 37.2918Z" fill="#263238"/>
<path d="M302.741 86.3475C301.98 82.5155 301.454 79.8883 301.463 79.9155C301.472 79.9426 308.711 77.1071 308.185 67.0242C307.931 62.0054 306.02 54.0967 304.244 47.6828C302.65 41.9031 297.26 35.5344 291.561 37.3735L274.286 45.7985C272.555 46.3602 272.256 47.9908 272.664 49.7574V50.6633L279.377 78.4388L282.212 90.8499C282.817 93.3984 284.353 95.6282 286.52 97.1003C288.686 98.5725 291.325 99.1802 293.917 98.8039C295.332 98.6048 296.692 98.1185 297.913 97.3749C299.134 96.6313 300.19 95.646 301.016 94.4795C301.843 93.313 302.422 91.99 302.718 90.5916C303.015 89.1932 303.022 87.7489 302.741 86.3475Z" fill="#FFBE9D"/>
<path d="M304.18 54.3867C304.253 54.7082 304.2 55.0453 304.031 55.3284C303.862 55.6116 303.592 55.8193 303.274 55.9087C303.114 55.9534 302.947 55.9652 302.782 55.9435C302.617 55.9218 302.459 55.867 302.316 55.7824C302.173 55.6977 302.048 55.585 301.95 55.451C301.851 55.3171 301.781 55.1646 301.743 55.0028C301.671 54.6825 301.725 54.3466 301.893 54.0649C302.062 53.7832 302.333 53.5773 302.649 53.4899C302.809 53.4437 302.976 53.4305 303.141 53.4511C303.305 53.4716 303.464 53.5255 303.607 53.6094C303.751 53.6933 303.875 53.8055 303.974 53.9391C304.072 54.0728 304.143 54.2251 304.18 54.3867Z" fill="#263238"/>
<path d="M303.393 52.4571C303.266 52.6564 302.17 52.1581 300.829 52.4571C299.488 52.7561 298.637 53.6257 298.456 53.4899C298.274 53.354 298.456 53.1003 298.827 52.7017C299.326 52.175 299.974 51.8145 300.684 51.669C301.385 51.5178 302.116 51.5973 302.768 51.8954C303.275 52.1038 303.447 52.3756 303.393 52.4571Z" fill="#263238"/>
<path d="M291.027 57.3578C291.1 57.6781 291.046 58.0139 290.877 58.2956C290.708 58.5773 290.438 58.7833 290.121 58.8707C289.965 58.9162 289.801 58.9303 289.639 58.912C289.477 58.8938 289.32 58.8436 289.178 58.7644C289.036 58.6852 288.91 58.5786 288.809 58.4506C288.709 58.3227 288.634 58.176 288.59 58.0191C288.518 57.6977 288.571 57.3606 288.74 57.0774C288.908 56.7942 289.179 56.5865 289.496 56.4972C289.653 56.4518 289.818 56.4381 289.98 56.4569C290.142 56.4757 290.299 56.5267 290.442 56.6068C290.584 56.6869 290.71 56.7945 290.81 56.9235C290.911 57.0524 290.984 57.2 291.027 57.3578Z" fill="#263238"/>
<path d="M290.366 55.6546C290.248 55.854 289.143 55.3466 287.802 55.6546C286.461 55.9627 285.61 56.8142 285.428 56.6874C285.247 56.5606 285.428 56.2978 285.8 55.8902C286.3 55.3682 286.948 55.0112 287.657 54.8665C288.357 54.7177 289.086 54.7938 289.741 55.0839C290.221 55.3013 290.429 55.5459 290.366 55.6546Z" fill="#263238"/>
<path d="M297.187 64.1703C297.851 63.8039 298.557 63.518 299.289 63.3187C299.624 63.21 299.941 63.0741 299.95 62.8295C299.903 62.4692 299.748 62.1315 299.506 61.8602L297.939 59.4504C295.747 56.017 294.08 53.1724 294.216 53.109C294.352 53.0456 296.245 55.7362 298.437 59.1696L299.968 61.5975C300.269 61.969 300.432 62.433 300.43 62.9111C300.403 63.0414 300.348 63.1641 300.268 63.2706C300.188 63.3771 300.086 63.4647 299.968 63.5271C299.791 63.6209 299.602 63.691 299.407 63.7355C298.69 63.9808 297.943 64.1271 297.187 64.1703Z" fill="#263238"/>
<path d="M301.464 79.9152C296.882 80.9508 292.103 80.6936 287.658 79.1724C287.658 79.1724 292.405 85.3689 301.981 82.4065L301.464 79.9152Z" fill="#EB996E"/>
<path d="M290.593 53.7346C290.503 54.1241 289.117 54.1151 287.54 54.5046C285.964 54.8942 284.714 55.483 284.46 55.175C284.351 55.03 284.533 54.6496 285.013 54.2691C285.651 53.7316 286.409 53.3557 287.223 53.1729C288.03 52.9814 288.871 52.9814 289.678 53.1729C290.321 53.2907 290.657 53.5534 290.593 53.7346Z" fill="#263238"/>
<path d="M302.877 48.1811C302.66 48.5434 301.5 48.4528 300.16 48.7156C298.819 48.9783 297.759 49.4312 297.442 49.1685C297.297 49.0326 297.442 48.6884 297.831 48.2626C298.429 47.7595 299.153 47.4277 299.924 47.3023C300.683 47.1495 301.469 47.2058 302.198 47.4654C302.75 47.7191 302.968 47.9999 302.877 48.1811Z" fill="#263238"/>
<path d="M278.552 39.3121C278.753 40.2935 279.167 41.2187 279.765 42.0219C280.364 42.8252 281.132 43.4869 282.015 43.9599C282.898 44.4329 283.874 44.7057 284.874 44.7588C285.874 44.812 286.874 44.6442 287.802 44.2675C289.233 43.6877 290.719 42.6006 292.168 43.126C293.618 43.6515 294.216 45.717 295.602 46.487C297.64 47.6285 300.132 45.6535 302.405 45.8529C304.217 46.0069 305.585 47.3929 306.989 48.5706C308.394 49.7483 310.332 50.6361 311.918 49.7845C311.555 48.2717 311.016 46.8063 310.314 45.418C309.606 44.0204 308.434 42.9124 306.998 42.2835C306.201 41.9665 305.341 41.8577 304.58 41.4682C302.94 40.6347 302.206 38.7504 301.019 37.3281C300.24 36.4319 299.258 35.7342 298.155 35.2931C297.052 34.852 295.86 34.68 294.678 34.7916C292.721 34.9909 290.864 35.9783 288.889 35.8968C287.431 35.8334 286.035 35.1811 284.577 35.2083C281.741 35.2083 279.612 37.7449 278.036 40.1093" fill="#263238"/>
<path d="M288.101 41.3868C286.797 41.2872 284.133 41.0154 283.254 40.0913C282.362 39.0928 281.222 38.3464 279.95 37.9266C278.679 37.5069 277.319 37.4287 276.007 37.6997C274.705 38.0877 273.563 38.8834 272.747 39.9696C271.932 41.0557 271.487 42.375 271.477 43.7331C269.892 44.1199 268.441 44.9277 267.277 46.071C266.113 47.2143 265.279 48.6507 264.864 50.2286C264.443 51.8804 264.428 53.6099 264.823 55.2684C265.217 56.9269 266.009 58.4648 267.129 59.7498C267.673 60.4303 268.17 61.1477 268.615 61.8968C268 62.6589 267.46 63.4779 267.002 64.3428C264.928 68.9268 270.553 70.6843 270.553 70.6843C270.553 73.7644 273.407 73.7463 275.228 73.7372C277.049 73.7282 278.054 78.5929 279.477 78.4027L278.036 63.3916C278.247 63.4736 278.471 63.5166 278.698 63.5184C282.131 63.5819 281.234 57.0773 280.129 55.3652C281.152 54.0917 282.016 52.6984 282.702 51.216C283.324 48.9499 283.367 46.564 282.829 44.2767C283.979 44.1317 288.663 41.423 288.101 41.3868Z" fill="#263238"/>
<path d="M278.489 64.1887C278.372 63.7117 278.136 63.2721 277.804 62.9109C277.471 62.5497 277.052 62.2787 276.586 62.1232C276.12 61.9676 275.623 61.9325 275.14 62.0212C274.656 62.1099 274.204 62.3196 273.824 62.6305C272.918 63.4096 272.438 64.7141 272.981 66.8974C274.449 72.7315 280.002 70.059 279.966 69.896C279.93 69.7329 279.123 66.5984 278.489 64.1887Z" fill="#FFBE9D"/>
<path d="M277.629 68.1294C277.629 68.1294 277.547 68.229 277.393 68.3468C277.179 68.511 276.91 68.5857 276.642 68.5551C275.971 68.4827 275.201 67.6492 274.911 66.5893C274.773 66.0941 274.745 65.5745 274.83 65.0674C274.839 64.8703 274.896 64.6785 274.995 64.5081C275.094 64.3377 275.233 64.1939 275.4 64.089C275.51 64.0297 275.638 64.0108 275.76 64.0356C275.883 64.0604 275.993 64.1274 276.071 64.2249C276.189 64.3607 276.18 64.4876 276.216 64.4966C276.252 64.5057 276.315 64.3607 276.216 64.1343C276.146 63.9999 276.035 63.8918 275.899 63.8262C275.707 63.7487 275.493 63.7487 275.301 63.8262C275.073 63.9343 274.877 64.0981 274.729 64.3024C274.582 64.5067 274.489 64.7449 274.458 64.9949C274.341 65.5654 274.363 66.1558 274.522 66.7161C274.623 67.2422 274.877 67.7267 275.253 68.1086C275.628 68.4906 276.108 68.7531 276.632 68.8632C276.803 68.8701 276.973 68.8387 277.13 68.7713C277.286 68.7038 277.426 68.6021 277.538 68.4736C277.656 68.2743 277.656 68.1384 277.629 68.1294Z" fill="#EB996E"/>
<path d="M309.773 56.0443C309.773 56.0443 310.307 55.6367 311.05 54.7308C312.075 53.4254 312.704 51.8533 312.862 50.2012C312.982 49.0733 312.871 47.9328 312.536 46.8493C312.149 45.6063 311.432 44.4917 310.461 43.6242C309.34 42.6455 307.983 41.9768 306.525 41.6844C305.066 41.392 303.556 41.4861 302.145 41.9573C301.873 42.0479 301.619 42.1838 301.366 42.2925C301.112 42.4012 300.885 42.5642 300.65 42.7001L300.288 42.8994V42.5008C300.28 41.7991 300.019 41.1236 299.554 40.5984C299.077 40.0887 298.492 39.6924 297.842 39.4388C296.611 38.9261 295.248 38.8244 293.955 39.1489C291.455 39.7197 289.335 40.8611 287.333 41.0967C285.763 41.3695 284.148 41.0465 282.803 40.1907C282.448 39.9467 282.141 39.6396 281.897 39.2848C281.752 39.0402 281.68 38.9043 281.698 38.8953C282.026 39.3426 282.427 39.7316 282.885 40.0458C284.207 40.8093 285.761 41.0698 287.26 40.7796C288.304 40.5833 289.324 40.2797 290.304 39.8737C291.456 39.4134 292.636 39.0291 293.837 38.7231C294.507 38.5611 295.196 38.491 295.885 38.5148C296.612 38.5532 297.326 38.7187 297.996 39.004C298.688 39.2999 299.307 39.7454 299.807 40.3085C300.343 40.9218 300.645 41.7048 300.659 42.519L300.297 42.3197L301.049 41.8848C301.329 41.7761 301.592 41.6311 301.882 41.5315C303.369 41.0221 304.965 40.9156 306.507 41.2227C308.049 41.5298 309.482 42.2396 310.66 43.2799C311.679 44.2023 312.425 45.3869 312.816 46.7043C313.223 48.1006 313.278 49.5758 312.976 50.9984C312.674 52.421 312.025 53.7468 311.086 54.8576C310.788 55.1981 310.45 55.5021 310.081 55.7635C309.99 55.8692 309.886 55.9636 309.773 56.0443Z" fill="#455A64"/>
<path d="M308.593 35.5614C307.998 35.2595 307.364 35.043 306.709 34.9182C305.96 34.8158 305.197 34.8871 304.48 35.1266C303.551 35.4107 302.744 35.9975 302.188 36.7935L301.962 37.1105L301.826 36.7482C301.353 35.6345 300.591 34.6672 299.62 33.9458C298.648 33.2245 297.502 32.7752 296.3 32.6444C294.41 32.5733 292.549 33.1134 290.991 34.1844C289.664 35.0496 288.252 35.778 286.778 36.3586C285.762 36.743 284.668 36.8736 283.589 36.7391C283.302 36.6861 283.02 36.6072 282.747 36.5036C282.566 36.422 282.466 36.3767 282.475 36.3586C282.484 36.3405 282.883 36.4764 283.617 36.5489C284.659 36.614 285.702 36.4437 286.67 36.0506C288.102 35.426 289.475 34.6741 290.773 33.8039C291.575 33.3061 292.425 32.8903 293.31 32.5628C294.283 32.208 295.323 32.075 296.354 32.1733C297.639 32.3136 298.861 32.7996 299.892 33.5797C300.923 34.3598 301.722 35.4047 302.206 36.6032H301.853C302.476 35.7519 303.365 35.1333 304.38 34.8457C305.152 34.6222 305.964 34.5818 306.754 34.728C307.254 34.8229 307.732 35.007 308.167 35.2715C308.322 35.3474 308.465 35.445 308.593 35.5614Z" fill="#455A64"/>
<path d="M296.663 66.8522C296.452 66.6752 296.205 66.5451 295.94 66.4701C295.674 66.3952 295.396 66.3772 295.123 66.4173C294.804 66.4854 294.503 66.6198 294.239 66.8118C293.975 67.0037 293.755 67.249 293.592 67.5316C293.592 67.5316 293.547 67.5769 293.538 67.6041C293.413 67.811 293.356 68.0517 293.375 68.2926C293.414 68.555 293.517 68.8037 293.675 69.017C293.833 69.2302 294.041 69.4014 294.28 69.5156C294.663 69.7097 295.097 69.7808 295.522 69.7192C295.947 69.6576 296.342 69.4662 296.654 69.1713C296.95 68.8584 297.116 68.4444 297.118 68.0135C297.119 67.5827 296.957 67.1674 296.663 66.8522Z" fill="#FF6420"/>
<path d="M297.115 69.6695C297.043 69.6695 296.961 69.3977 296.717 69.0263C296.422 68.5284 295.982 68.1328 295.455 67.893C294.929 67.6533 294.342 67.5808 293.773 67.6855C293.329 67.749 293.057 67.8758 293.03 67.8124C293.003 67.749 293.211 67.5315 293.7 67.3594C294.34 67.1534 295.034 67.1921 295.648 67.4681C296.267 67.7437 296.756 68.2463 297.016 68.8723C297.206 69.3434 297.179 69.6604 297.115 69.6695Z" fill="#263238"/>
<path d="M278.627 70.7928C278.627 70.7928 278.889 71.2457 278.545 71.9342C278.35 72.3462 278.007 72.6697 277.585 72.8402C277.321 72.9346 277.039 72.9666 276.761 72.9335C276.482 72.9005 276.216 72.8034 275.981 72.6499C275.743 72.505 275.541 72.3069 275.392 72.0712C275.243 71.8355 275.15 71.5685 275.121 71.291C275.093 70.8436 275.225 70.4008 275.492 70.0409C275.963 69.443 276.489 69.4248 276.489 69.4792C276.489 69.5336 276.09 69.6876 275.773 70.2311C275.589 70.5356 275.513 70.8928 275.556 71.2457C275.589 71.4525 275.668 71.6495 275.785 71.8231C275.902 71.9967 276.056 72.1428 276.235 72.2513C276.412 72.3644 276.611 72.439 276.818 72.4702C277.026 72.5015 277.238 72.4886 277.44 72.4325C277.774 72.3128 278.063 72.091 278.264 71.7984C278.618 71.2367 278.554 70.7928 278.627 70.7928Z" fill="#FF6420"/>
<path d="M275.573 70.4393C275.618 70.4393 275.573 70.7474 275.147 70.9467C274.938 71.0336 274.708 71.0588 274.485 71.0194C274.262 70.9799 274.055 70.8775 273.888 70.7241C273.721 70.5707 273.602 70.3729 273.544 70.1538C273.486 69.9348 273.492 69.7038 273.562 69.4881C273.65 69.2431 273.82 69.0355 274.042 68.8993C274.413 68.6728 274.694 68.7634 274.685 68.8177C274.676 68.8721 274.468 68.9355 274.241 69.162C274.13 69.3012 274.062 69.4702 274.046 69.6479C274.03 69.8255 274.067 70.0039 274.152 70.1606C274.237 70.3173 274.367 70.4454 274.524 70.5288C274.682 70.6122 274.861 70.6473 275.038 70.6296C275.346 70.5662 275.509 70.4031 275.573 70.4393Z" fill="#FF6420"/>
<path d="M285.528 150.894C285.528 150.894 307.959 152.199 321.222 152.317C331.486 152.416 336.07 149.69 338.117 143.085C339.838 137.55 336.142 126.924 336.142 126.924C329.194 126.924 324.909 127.92 320.442 130.013L321.629 134.869L285.465 137.985L285.528 150.894Z" fill="#FFBE9D"/>
<path d="M329.167 140.051C328.195 138.786 327.058 137.656 325.788 136.69C324.426 135.856 322.957 135.21 321.422 134.769C321.905 134.699 322.398 134.743 322.862 134.896C324.002 135.165 325.083 135.641 326.051 136.3C327.021 136.961 327.86 137.797 328.524 138.764C329.032 139.507 329.222 140.023 329.167 140.051Z" fill="#EB996E"/>
<path d="M277.321 129.976C277.321 129.976 270.382 131.643 265.281 135.049L270.717 149.78C272.529 154.617 278.064 157.027 282.494 154.491C289.315 150.586 291.725 139.208 291.725 139.208L299.217 106.703L286.797 98.9214L277.366 129.976" fill="#FFBE9D"/>
<path d="M286.752 98.9216L287.259 88.2318L284.478 77.3607C284.324 76.7628 284.251 76.0109 284.74 75.6485C284.983 75.4625 285.282 75.3663 285.588 75.3762C285.894 75.3861 286.186 75.5015 286.416 75.7029C287.168 76.482 290.792 85.9851 290.792 85.9851C290.792 85.9851 296.291 82.6875 297.269 82.5245C298.248 82.3614 299.471 85.3238 299.552 85.5502C299.588 86.2141 299.588 86.8794 299.552 87.5433C299.552 87.5433 302.949 87.6429 303.257 88.1049C303.504 89.0488 303.635 90.0193 303.647 90.9948C303.647 90.9948 305.087 91.4568 305.314 92.5439C305.54 93.631 306.011 95.4248 305.314 95.8234C304.616 96.222 303.203 97.0011 303.203 97.0011C303.203 97.0011 302.632 102.545 302.478 103.053C302.324 103.56 299.144 106.676 299.144 106.676L286.752 98.9216Z" fill="#FFBE9D"/>
<path d="M275.191 154.708C275.191 154.708 275.527 154.908 276.233 155.134C277.266 155.458 278.36 155.545 279.431 155.388C281.152 155.142 282.765 154.399 284.069 153.25C285.794 151.685 287.25 149.849 288.382 147.814C289.048 146.618 289.609 145.366 290.058 144.073C290.529 142.65 290.919 141.201 291.226 139.733C291.933 136.68 292.703 133.392 293.518 129.895C295.149 122.91 296.979 115.101 298.954 106.685V106.622H298.999C299.624 106.006 300.249 105.381 300.874 104.729C301.182 104.403 301.49 104.076 301.78 103.741C301.925 103.569 302.079 103.397 302.197 103.225C302.289 103.054 302.341 102.866 302.351 102.672C302.596 100.86 302.786 98.9851 302.985 97.0918V96.974L303.094 96.9196L304.824 95.9503C304.951 95.8688 305.15 95.7782 305.232 95.7057C305.318 95.6274 305.376 95.522 305.395 95.4068C305.437 95.1063 305.437 94.8013 305.395 94.5008C305.307 93.8365 305.171 93.1795 304.987 92.535C304.679 91.9714 304.162 91.5517 303.547 91.3664L303.393 91.312V91.158C303.393 90.6326 303.338 90.089 303.275 89.5545C303.25 89.2868 303.211 89.0207 303.157 88.7573C303.136 88.6412 303.099 88.5285 303.048 88.4221C303.048 88.3587 303.048 88.4221 302.994 88.3678C302.945 88.3419 302.893 88.3207 302.84 88.3043C301.751 88.0669 300.639 87.9425 299.524 87.9329H299.289V87.6974C299.289 87.1357 299.289 86.5106 299.289 85.8855C299.251 85.6723 299.178 85.4671 299.071 85.2786C298.981 85.0612 298.872 84.8528 298.763 84.6354C298.551 84.2158 298.303 83.8156 298.021 83.4395C297.892 83.2643 297.736 83.1113 297.559 82.9866C297.493 82.9311 297.412 82.8963 297.327 82.8866C297.241 82.8769 297.155 82.8928 297.078 82.9322C296.64 83.1001 296.213 83.2968 295.801 83.5211C294.116 84.427 292.467 85.3329 290.855 86.3113L290.619 86.4563L290.52 86.2026C289.668 84.0556 288.816 81.9357 287.983 79.8612C287.566 78.8194 287.159 77.7776 286.742 76.7539C286.678 76.5245 286.55 76.3179 286.374 76.1577C286.198 75.9975 285.98 75.8901 285.745 75.8479C285.529 75.7761 285.294 75.78 285.08 75.859C284.866 75.938 284.686 76.0875 284.568 76.2828C284.455 76.4771 284.407 76.7026 284.432 76.926C284.432 77.1253 284.559 77.4333 284.613 77.6779C284.758 78.2033 284.894 78.7197 285.03 79.2361C285.301 80.2779 285.564 81.3016 285.836 82.3162C286.367 84.3576 286.89 86.3506 287.403 88.2953V88.3587C287.222 92.079 287.05 95.6423 286.887 99.0486V99.0304L278.634 125.882L276.306 133.356C276.034 134.198 275.826 134.86 275.681 135.322C275.536 135.784 275.445 135.983 275.445 135.983C275.445 135.983 275.49 135.747 275.617 135.303L276.188 133.32C276.713 131.571 277.465 129.044 278.416 125.819C280.373 119.332 283.154 110.074 286.515 98.9127V98.958C286.672 95.5638 286.832 92.0005 286.996 88.2681V88.3315C286.479 86.3838 285.945 84.3908 285.41 82.3615L284.595 79.2814C284.459 78.765 284.323 78.2396 284.178 77.7232C284.1 77.452 284.037 77.1768 283.988 76.8988C283.954 76.5843 284.021 76.2673 284.178 75.9929C284.346 75.7103 284.605 75.4931 284.912 75.3769C285.216 75.2879 285.538 75.2778 285.847 75.3475C286.156 75.4173 286.442 75.5645 286.678 75.7755C286.906 75.9888 287.074 76.2571 287.168 76.5546L288.409 79.6619C289.251 81.7455 290.094 83.8653 290.954 86.0033L290.619 85.8855C292.241 84.9253 293.871 83.965 295.593 83.0681C296.028 82.8407 296.475 82.6381 296.933 82.4612C297.077 82.4016 297.233 82.3798 297.386 82.3977C297.541 82.4201 297.69 82.4758 297.821 82.5608C298.04 82.7173 298.232 82.9068 298.392 83.1225C298.695 83.5189 298.959 83.9436 299.18 84.3908C299.298 84.6172 299.407 84.8347 299.506 85.0612C299.635 85.301 299.721 85.5616 299.76 85.8312C299.76 86.4744 299.76 87.0723 299.76 87.643L299.533 87.3984C300.698 87.4062 301.858 87.5399 302.994 87.797C303.072 87.8243 303.148 87.8576 303.221 87.8967C303.32 87.9509 303.402 88.0327 303.456 88.1322C303.526 88.2792 303.578 88.4344 303.61 88.5942C303.664 88.8841 303.701 89.1559 303.737 89.4367C303.791 89.9894 303.828 90.5329 303.855 91.0765L303.692 90.859C304.062 90.9677 304.407 91.1507 304.704 91.3967C305.002 91.6428 305.246 91.9469 305.422 92.2904C305.62 92.9788 305.766 93.6815 305.857 94.3921C305.92 94.7548 305.92 95.1256 305.857 95.4883C305.817 95.708 305.702 95.9068 305.531 96.05C305.382 96.1494 305.228 96.2402 305.069 96.3217L303.347 97.2186L303.465 97.0465C303.257 98.9398 303.067 100.797 302.813 102.636L302.759 102.989C302.738 103.132 302.678 103.267 302.586 103.379C302.453 103.577 302.305 103.765 302.143 103.941C301.835 104.285 301.527 104.62 301.237 104.946C300.612 105.598 299.986 106.223 299.352 106.839L299.416 106.731C297.423 115.138 295.575 122.947 293.917 129.931C293.092 133.419 292.304 136.708 291.58 139.752C291.269 141.23 290.87 142.688 290.384 144.118C289.918 145.424 289.342 146.687 288.662 147.896C287.505 149.957 286.014 151.812 284.251 153.386C282.907 154.542 281.253 155.28 279.495 155.506C278.4 155.652 277.286 155.541 276.242 155.179C275.977 155.082 275.719 154.964 275.472 154.826L275.191 154.708Z" fill="#EB996E"/>
<path d="M299.561 87.5704C299.561 87.6339 299.253 87.6701 298.773 87.6882C298.163 87.6998 297.556 87.7727 296.961 87.9056C296.387 88.0468 295.857 88.3303 295.421 88.73C295.095 89.038 294.95 89.3007 294.878 89.2736C294.805 89.2464 294.878 88.9203 295.177 88.5035C295.598 87.976 296.186 87.6058 296.843 87.4527C297.478 87.2964 298.136 87.2656 298.782 87.3621C299.271 87.4255 299.561 87.507 299.561 87.5704Z" fill="#EB996E"/>
<path d="M296.934 87.67C296.816 87.6247 296.807 87.3438 296.934 87.0449C297.06 86.7459 297.242 86.5376 297.359 86.5828C297.477 86.6281 297.495 86.909 297.359 87.2079C297.223 87.5069 297.024 87.7153 296.934 87.67Z" fill="#EB996E"/>
<path d="M303.801 90.9585C302.922 91.2306 302.004 91.356 301.084 91.3299C300.794 91.3202 300.506 91.3802 300.245 91.5047C299.983 91.6292 299.755 91.8147 299.58 92.0456C299.344 92.417 299.426 92.725 299.353 92.7431C299.281 92.7613 299.063 92.4442 299.29 91.9006C299.415 91.5946 299.642 91.3415 299.933 91.185C300.268 91.0009 300.639 90.8898 301.02 90.8588C301.945 90.7172 302.889 90.751 303.801 90.9585Z" fill="#EB996E"/>
<path d="M303.203 94.2198C303.33 94.2198 303.403 94.8902 303.366 95.7146C303.33 96.539 303.194 97.1912 303.067 97.1912C302.941 97.1912 302.859 96.5118 302.895 95.6874C302.932 94.863 303.068 94.2108 303.203 94.2198Z" fill="#EB996E"/>
<path d="M306.963 118.616L307.769 115.844C307.806 115.717 307.875 115.602 307.97 115.51C308.065 115.418 308.182 115.353 308.31 115.32C308.438 115.287 308.573 115.288 308.7 115.323C308.828 115.357 308.944 115.425 309.037 115.518L310.097 116.596L310.75 113.978C310.788 113.827 310.872 113.691 310.99 113.589C311.108 113.487 311.255 113.424 311.41 113.408C311.565 113.392 311.722 113.425 311.858 113.501C311.994 113.577 312.104 113.693 312.172 113.833L313.649 116.931L306.963 118.616Z" fill="white"/>
<path d="M313.666 118.118C312.653 118.608 311.576 118.955 310.468 119.151C309.396 119.501 308.28 119.696 307.152 119.73C309.238 118.893 311.43 118.35 313.666 118.118Z" fill="white"/>
<path d="M259.791 102.654C259.791 102.654 259.456 102.999 258.985 103.732C258.352 104.777 257.936 105.939 257.762 107.148C257.504 108.948 257.449 110.771 257.599 112.583C257.698 114.64 257.861 116.886 258.115 119.242C258.544 123.264 259.182 127.262 260.027 131.218C260.344 132.74 260.634 133.936 260.833 134.842C260.923 135.222 261.005 135.539 261.068 135.811C261.132 136.083 261.141 136.155 261.141 136.155C261.141 136.155 261.096 136.047 261.032 135.829C260.969 135.612 260.869 135.231 260.769 134.86C260.543 134.017 260.235 132.803 259.863 131.281C258.983 127.327 258.327 123.325 257.898 119.296C257.644 116.941 257.49 114.685 257.399 112.628C257.262 110.815 257.329 108.992 257.599 107.193C257.793 105.968 258.237 104.797 258.903 103.75C259.149 103.347 259.447 102.978 259.791 102.654Z" fill="white"/>
<path d="M278.861 90.3152L278.652 90.4239L278.054 90.7138C277.538 90.9584 276.786 91.3207 275.889 91.819C273.551 93.1229 271.281 94.544 269.086 96.0768C266.495 97.8887 264.203 99.5374 262.527 100.733L260.543 102.137L259.99 102.509C259.929 102.558 259.862 102.601 259.791 102.636C259.843 102.575 259.904 102.523 259.972 102.482L260.498 102.083L262.445 100.625C264.103 99.4015 266.386 97.6984 268.977 95.9228C271.176 94.3834 273.463 92.9738 275.826 91.7012C276.732 91.2211 277.493 90.8768 278.027 90.6504L278.634 90.3967C278.815 90.3333 278.815 90.3061 278.861 90.3152Z" fill="white"/>
<path d="M322.065 96.2128C322.008 96.1813 321.956 96.1416 321.911 96.095L321.503 95.7417C320.998 95.3155 320.469 94.9193 319.918 94.555C318.079 93.3824 316.127 92.3961 314.092 91.6107C312.064 90.8072 309.992 90.1176 307.887 89.5452C307.072 89.3187 306.419 89.1557 305.957 89.047L305.441 88.9111C305.378 88.8981 305.317 88.8767 305.26 88.8477H305.45L305.975 88.9473C306.437 89.0379 307.099 89.1829 307.914 89.3912C310.039 89.9278 312.128 90.6026 314.165 91.4114C316.211 92.1966 318.165 93.2053 319.99 94.4191C320.75 94.9334 321.446 95.5354 322.065 96.2128Z" fill="white"/>
<path d="M279.114 165.362C278.991 165.34 278.872 165.3 278.761 165.244C278.446 165.106 278.143 164.942 277.855 164.755C277.367 164.462 276.941 164.076 276.602 163.619C276.264 163.162 276.018 162.643 275.88 162.091C275.631 160.977 275.755 159.812 276.233 158.775C276.371 158.453 276.548 158.149 276.759 157.87C276.904 157.679 277.003 157.589 277.012 157.598C276.765 157.984 276.544 158.387 276.351 158.803C275.93 159.821 275.832 160.943 276.07 162.019C276.33 163.081 276.976 164.008 277.882 164.619C278.634 165.162 279.132 165.325 279.114 165.362Z" fill="white"/>
<path d="M276.234 155.55C276.427 155.91 276.57 156.294 276.66 156.692C276.802 157.073 276.887 157.473 276.914 157.879C276.708 157.527 276.561 157.145 276.479 156.746C276.33 156.364 276.248 155.96 276.234 155.55Z" fill="white"/>
<path d="M288.482 358.667L316.113 358.531L315.614 263.001L315.352 165.823L277.91 165.343L271.179 178.026C268.425 183.125 266.669 188.703 266.006 194.46C265.553 198.862 268.851 213.176 269.992 216.8L280.293 249.467L288.482 358.667Z" fill="#263238"/>
<path d="M323.459 165.942L353.825 248.716C355.624 254.049 356.222 259.714 355.575 265.305C354.928 270.896 353.053 276.275 350.084 281.057L314.825 349.907L295.004 325.103L324.501 263.5L298.501 221.33L302.876 166.068L315.124 165.869L323.459 165.942Z" fill="#263238"/>
<path d="M312.833 193.672C312.833 193.672 312.833 193.817 312.833 194.098C312.833 194.378 312.878 194.813 312.915 195.348C312.978 196.462 313.06 198.066 313.168 200.14C313.377 204.335 313.666 210.359 314.074 217.797C314.482 225.234 314.826 234.103 315.279 243.978C315.496 248.906 315.732 254.079 315.968 259.442C316.14 262.159 316.067 264.877 316.094 267.595C316.122 270.313 316.094 273.175 316.094 276.02C316.094 298.786 316.167 319.395 316.194 334.334C316.194 341.781 316.194 347.814 316.194 352.009C316.194 354.083 316.194 355.696 316.194 356.819C316.194 357.344 316.194 357.725 316.194 358.069C316.194 358.413 316.194 358.495 316.194 358.495C316.194 358.495 316.194 358.35 316.194 358.069V356.819C316.194 355.696 316.194 354.101 316.14 352.009C316.14 347.814 316.067 341.79 316.013 334.343C315.949 319.405 315.868 298.795 315.777 276.029C315.777 273.185 315.777 270.376 315.777 267.604C315.777 264.832 315.832 262.096 315.66 259.451C315.433 254.097 315.207 248.924 314.998 243.996C314.581 234.139 314.201 225.27 313.893 217.806C313.585 210.341 313.358 204.344 313.186 200.149C313.114 198.084 313.06 196.471 313.023 195.348C313.023 194.813 313.023 194.442 313.023 194.098C313.023 193.753 312.833 193.672 312.833 193.672Z" fill="#455A64"/>
<path d="M312.136 167.572C312.242 167.864 312.306 168.169 312.326 168.478C312.426 169.058 312.534 169.9 312.661 170.951C312.897 173.044 313.15 175.952 313.295 179.168C313.44 182.384 313.449 185.301 313.404 187.412C313.404 188.463 313.341 189.323 313.295 189.912C313.305 190.218 313.268 190.523 313.187 190.818C313.073 189.687 313.033 188.549 313.069 187.412C313.069 185.301 312.969 182.402 312.824 179.186C312.679 175.97 312.48 173.08 312.326 171.033C312.197 169.884 312.134 168.728 312.136 167.572Z" fill="#455A64"/>
<path d="M306.047 169.438C306.092 169.502 305.576 169.737 305.431 170.471C305.39 170.67 305.402 170.876 305.463 171.07C305.525 171.263 305.636 171.438 305.784 171.576C305.964 171.743 306.187 171.855 306.428 171.898C306.669 171.941 306.917 171.915 307.143 171.821C307.36 171.709 307.542 171.538 307.667 171.329C307.791 171.119 307.855 170.878 307.85 170.634C307.842 170.431 307.781 170.234 307.675 170.061C307.569 169.888 307.42 169.746 307.243 169.647C306.874 169.468 306.463 169.396 306.056 169.438C306.056 169.438 306.147 169.321 306.382 169.248C306.722 169.165 307.08 169.2 307.397 169.348C307.65 169.453 307.869 169.626 308.029 169.849C308.189 170.071 308.283 170.334 308.303 170.607C308.339 170.944 308.268 171.284 308.101 171.579C307.933 171.874 307.677 172.109 307.369 172.251C307.061 172.393 306.716 172.435 306.383 172.371C306.05 172.307 305.746 172.14 305.513 171.893C305.32 171.702 305.184 171.461 305.118 171.198C305.053 170.934 305.061 170.658 305.141 170.399C305.232 170.06 305.437 169.762 305.721 169.556C305.902 169.429 306.038 169.411 306.047 169.438Z" fill="#455A64"/>
<path d="M291.553 167.799C291.687 168.084 291.77 168.391 291.798 168.705C291.944 169.518 291.971 170.348 291.88 171.169C291.749 172.391 291.396 173.58 290.838 174.675C290.163 176.037 289.164 177.213 287.929 178.099C286.694 178.985 285.26 179.554 283.754 179.757C282.548 179.937 281.319 179.891 280.13 179.621C279.325 179.446 278.55 179.157 277.829 178.76C277.556 178.631 277.305 178.46 277.086 178.253C278.087 178.704 279.131 179.053 280.202 179.295C281.491 179.563 282.821 179.561 284.108 179.289C285.396 179.017 286.613 178.481 287.683 177.715C288.753 176.948 289.653 175.969 290.325 174.837C290.998 173.706 291.428 172.448 291.59 171.142C291.696 170.029 291.684 168.909 291.553 167.799Z" fill="#455A64"/>
<path d="M327.101 175.734C326.51 175.803 325.911 175.731 325.353 175.526C323.984 175.095 322.755 174.307 321.793 173.243C320.821 172.184 320.154 170.882 319.863 169.474C319.72 168.9 319.72 168.3 319.863 167.726C319.944 167.726 319.953 168.387 320.225 169.402C320.592 170.713 321.26 171.921 322.175 172.929C323.091 173.937 324.228 174.717 325.498 175.209C326.44 175.58 327.11 175.644 327.101 175.734Z" fill="#455A64"/>
<path d="M337.89 264.968C337.436 265.485 336.893 265.918 336.287 266.245C335.651 266.648 334.957 266.954 334.23 267.151C333.315 267.393 332.35 267.368 331.449 267.078C329.867 266.482 328.511 265.405 327.572 263.998C327.14 263.47 326.784 262.884 326.512 262.259C327.001 262.725 327.444 263.238 327.834 263.79C328.796 265.065 330.095 266.047 331.585 266.625C332.345 266.828 333.139 266.874 333.918 266.761C334.696 266.647 335.444 266.376 336.114 265.964C336.687 265.598 337.28 265.265 337.89 264.968Z" fill="#455A64"/>
<path d="M330.97 270.249C329.899 269.14 328.943 267.926 328.116 266.625C327.163 265.414 326.332 264.113 325.634 262.739C326.712 263.844 327.671 265.058 328.497 266.363C329.457 267.567 330.286 268.869 330.97 270.249Z" fill="#455A64"/>
<path d="M284.549 196.87C284.422 196.915 284.105 196.399 283.824 195.701C283.543 195.004 283.426 194.415 283.543 194.36C283.661 194.306 283.987 194.831 284.259 195.529C284.531 196.226 284.667 196.87 284.549 196.87Z" fill="#FAFAFA"/>
<path d="M302.089 199.388C301.953 199.388 301.854 198.944 301.854 198.392C301.854 197.839 301.953 197.386 302.089 197.386C302.225 197.386 302.325 197.839 302.325 198.392C302.325 198.944 302.216 199.388 302.089 199.388Z" fill="#FAFAFA"/>
<path d="M294.877 208.918C294.75 208.918 294.605 208.375 294.56 207.677C294.515 206.98 294.56 206.418 294.705 206.409C294.85 206.4 294.986 206.953 295.031 207.65C295.076 208.348 295.004 208.909 294.877 208.918Z" fill="#FAFAFA"/>
<path d="M281.705 215.894C281.597 215.976 281.225 215.64 280.736 215.296C280.247 214.952 279.83 214.689 279.83 214.562C279.83 214.436 280.428 214.508 280.981 214.907C281.533 215.305 281.814 215.894 281.705 215.894Z" fill="#FAFAFA"/>
<path d="M304.925 224.781C304.816 224.708 304.925 224.319 305.233 223.875C305.541 223.431 305.822 223.177 305.93 223.25C306.039 223.322 305.93 223.721 305.622 224.156C305.314 224.591 305.034 224.853 304.925 224.781Z" fill="#FAFAFA"/>
<path d="M290.592 227.291C290.465 227.291 290.356 226.539 290.356 225.624C290.356 224.709 290.465 223.948 290.592 223.948C290.719 223.948 290.828 224.7 290.828 225.624C290.828 226.548 290.692 227.291 290.592 227.291Z" fill="#FAFAFA"/>
<path d="M285.901 237.455C285.828 237.555 285.357 237.346 284.85 236.975C284.343 236.603 283.944 236.223 284.062 236.114C284.18 236.006 284.614 236.223 285.122 236.594C285.629 236.966 285.982 237.346 285.901 237.455Z" fill="#FAFAFA"/>
<path d="M300.413 240.988C300.467 241.106 300.177 241.35 299.76 241.541C299.344 241.731 298.963 241.776 298.909 241.658C298.854 241.541 299.153 241.296 299.57 241.106C299.987 240.916 300.367 240.87 300.413 240.988Z" fill="#FAFAFA"/>
<path d="M290.593 257.566C290.484 257.621 290.013 256.923 289.551 255.999C289.089 255.075 288.808 254.278 288.926 254.187C289.044 254.097 289.515 254.83 289.968 255.755C290.421 256.679 290.675 257.467 290.593 257.566Z" fill="#FAFAFA"/>
<path d="M306.6 256.026C306.483 255.963 306.691 255.356 307.053 254.659C307.416 253.961 307.823 253.454 307.959 253.517C308.095 253.58 307.869 254.187 307.497 254.885C307.126 255.583 306.709 256.09 306.6 256.026Z" fill="#FAFAFA"/>
<path d="M299.579 270.059C299.444 270.059 299.462 269.325 299.317 268.474C299.172 267.622 298.954 266.943 299.081 266.879C299.208 266.816 299.643 267.459 299.788 268.401C299.933 269.343 299.706 270.086 299.579 270.059Z" fill="#FAFAFA"/>
<path d="M292.059 278.076C291.969 278.167 291.516 277.823 291.054 277.315C290.592 276.808 290.293 276.328 290.392 276.237C290.492 276.147 290.936 276.491 291.398 276.998C291.86 277.506 292.159 277.986 292.059 278.076Z" fill="#FAFAFA"/>
<path d="M310.306 281.12C310.215 281.03 310.55 280.541 311.058 280.024C311.565 279.508 312.036 279.173 312.136 279.263C312.235 279.354 311.891 279.852 311.393 280.359C310.895 280.867 310.405 281.211 310.306 281.12Z" fill="#FAFAFA"/>
<path d="M299.815 293.124C299.688 293.124 299.688 292.408 299.815 291.574C299.942 290.741 300.141 290.089 300.277 290.107C300.413 290.125 300.404 290.813 300.277 291.647C300.15 292.48 299.942 293.142 299.815 293.124Z" fill="#FAFAFA"/>
<path d="M292.757 298.949C292.64 299.012 292.241 298.541 291.851 297.898C291.462 297.255 291.263 296.684 291.371 296.621C291.48 296.557 291.879 297.019 292.277 297.662C292.676 298.306 292.866 298.876 292.757 298.949Z" fill="#FAFAFA"/>
<path d="M309.762 306.296C309.843 306.405 309.381 306.867 308.729 307.329C308.076 307.791 307.506 308.081 307.424 307.972C307.343 307.863 307.814 307.401 308.457 306.939C309.1 306.477 309.689 306.196 309.762 306.296Z" fill="#FAFAFA"/>
<path d="M295.593 315.835C295.466 315.79 295.593 315.065 295.711 314.159C295.828 313.253 295.756 312.511 295.892 312.493C296.028 312.474 296.263 313.235 296.173 314.205C296.082 315.174 295.711 315.89 295.593 315.835Z" fill="#FAFAFA"/>
<path d="M301.254 329.533C301.146 329.614 300.765 329.306 300.394 328.844C300.022 328.382 299.814 327.938 299.914 327.857C300.013 327.775 300.394 328.083 300.765 328.545C301.136 329.007 301.354 329.451 301.254 329.533Z" fill="#FAFAFA"/>
<path d="M295.068 338.719C294.96 338.791 294.461 338.257 293.954 337.514C293.447 336.771 293.13 336.119 293.229 336.046C293.329 335.974 293.836 336.508 294.344 337.251C294.851 337.994 295.177 338.646 295.068 338.719Z" fill="#FAFAFA"/>
<path d="M312.108 327.186C311.991 327.141 312 326.806 312.108 326.443C312.217 326.081 312.462 325.809 312.589 325.855C312.715 325.9 312.697 326.235 312.589 326.606C312.48 326.978 312.235 327.241 312.108 327.186Z" fill="#FAFAFA"/>
<path d="M304.589 349.064C304.471 349.001 304.698 348.358 304.879 347.551C305.06 346.745 305.124 346.066 305.26 346.057C305.395 346.048 305.531 346.781 305.341 347.651C305.151 348.521 304.698 349.137 304.589 349.064Z" fill="#FAFAFA"/>
<path d="M309.482 209.063C309.364 209.117 309.074 208.755 308.838 208.248C308.603 207.74 308.503 207.288 308.621 207.233C308.739 207.179 309.029 207.541 309.264 208.049C309.5 208.556 309.617 209.009 309.482 209.063Z" fill="#FAFAFA"/>
<path d="M296.934 180.853C297.006 180.962 296.372 181.469 295.693 182.194C295.013 182.918 294.551 183.589 294.434 183.525C294.316 183.462 294.624 182.619 295.34 181.877C296.055 181.134 296.843 180.735 296.934 180.853Z" fill="#FAFAFA"/>
<path d="M308.105 180.563C307.969 180.563 307.76 180.047 307.443 179.431C307.126 178.815 306.836 178.307 306.936 178.217C307.036 178.126 307.525 178.525 307.842 179.213C308.159 179.902 308.222 180.491 308.105 180.563Z" fill="#FAFAFA"/>
<path d="M273.227 189.722C273.109 189.668 273.227 189.07 273.508 188.381C273.789 187.693 274.097 187.158 274.224 187.213C274.35 187.267 274.224 187.856 273.943 188.554C273.662 189.251 273.381 189.767 273.227 189.722Z" fill="#FAFAFA"/>
<path d="M274.358 203.401C274.268 203.501 273.751 203.211 273.199 202.749C272.646 202.287 272.293 201.843 272.347 201.734C272.402 201.626 272.954 201.925 273.507 202.387C274.06 202.849 274.44 203.302 274.358 203.401Z" fill="#FAFAFA"/>
<path d="M297.243 169.991C297.125 169.991 296.871 169.701 296.69 169.239C296.509 168.777 296.454 168.333 296.572 168.333C296.69 168.333 296.944 168.623 297.125 169.085C297.306 169.547 297.36 169.946 297.243 169.991Z" fill="#FAFAFA"/>
<path d="M319.156 176.677C319.029 176.677 319.038 176.106 319.156 175.463C319.274 174.82 319.51 174.312 319.636 174.339C319.763 174.367 319.754 174.919 319.636 175.562C319.519 176.206 319.283 176.704 319.156 176.677Z" fill="#FAFAFA"/>
<path d="M324.302 187.031C324.184 186.977 324.347 186.307 324.673 185.518C324.999 184.73 325.353 184.141 325.471 184.187C325.588 184.232 325.471 184.912 325.108 185.7C324.746 186.488 324.429 187.077 324.302 187.031Z" fill="#FAFAFA"/>
<path d="M320.633 195.384C320.515 195.438 320.08 194.813 319.663 193.989C319.247 193.165 319.011 192.431 319.129 192.376C319.247 192.322 319.672 192.947 320.089 193.771C320.506 194.596 320.751 195.321 320.633 195.384Z" fill="#FAFAFA"/>
<path d="M328.478 203.736C328.36 203.691 328.478 203.166 328.677 202.568C328.876 201.97 329.193 201.517 329.32 201.562C329.447 201.608 329.32 202.133 329.121 202.731C328.921 203.329 328.641 203.782 328.478 203.736Z" fill="#FAFAFA"/>
<path d="M321.467 211.917C321.359 211.99 321.078 211.745 320.851 211.383C320.625 211.02 320.516 210.658 320.634 210.585C320.752 210.513 321.014 210.758 321.25 211.129C321.486 211.5 321.576 211.854 321.467 211.917Z" fill="#FAFAFA"/>
<path d="M322.961 228.804C322.871 228.885 322.3 228.441 321.702 227.789C321.104 227.137 320.697 226.548 320.796 226.457C320.896 226.367 321.458 226.82 322.055 227.472C322.653 228.124 323.061 228.713 322.961 228.804Z" fill="#FAFAFA"/>
<path d="M332.156 219.101C332.056 219.183 331.558 218.73 331.051 218.077C330.543 217.425 330.217 216.845 330.317 216.764C330.416 216.682 330.915 217.144 331.422 217.787C331.929 218.431 332.264 219.029 332.156 219.101Z" fill="#FAFAFA"/>
<path d="M337.202 232.482C337.084 232.427 337.292 231.748 337.664 230.969C338.035 230.19 338.425 229.592 338.57 229.646C338.715 229.7 338.488 230.389 338.117 231.168C337.745 231.947 337.32 232.545 337.202 232.482Z" fill="#FAFAFA"/>
<path d="M326.477 243.497C326.359 243.561 325.942 243.063 325.363 242.528C324.783 241.994 324.248 241.622 324.303 241.486C324.357 241.35 325.046 241.595 325.68 242.184C326.314 242.773 326.586 243.434 326.477 243.497Z" fill="#FAFAFA"/>
<path d="M327.147 254.848C327.147 254.975 326.694 255.084 326.141 255.084C325.588 255.084 325.145 254.975 325.145 254.848C325.145 254.722 325.588 254.613 326.141 254.613C326.694 254.613 327.147 254.722 327.147 254.848Z" fill="#FAFAFA"/>
<path d="M338.17 251.678C338.053 251.614 338.288 251.044 338.46 250.337C338.632 249.63 338.705 249.014 338.841 249.005C338.977 248.996 339.122 249.658 338.922 250.446C338.723 251.234 338.27 251.75 338.17 251.678Z" fill="#FAFAFA"/>
<path d="M349.124 255.492C349.007 255.537 348.672 254.894 348.382 254.069C348.092 253.245 347.956 252.538 348.074 252.502C348.191 252.466 348.536 253.091 348.826 253.915C349.115 254.74 349.251 255.446 349.124 255.492Z" fill="#FAFAFA"/>
<path d="M347.376 271.074C347.267 271.01 347.548 270.249 348.001 269.371C348.454 268.492 348.907 267.83 349.043 267.894C349.179 267.957 348.88 268.718 348.418 269.588C347.956 270.458 347.494 271.155 347.376 271.074Z" fill="#FAFAFA"/>
<path d="M337.384 280.214C337.266 280.26 336.895 279.634 336.55 278.81C336.206 277.986 336.034 277.279 336.161 277.225C336.288 277.17 336.65 277.804 336.985 278.629C337.32 279.453 337.502 280.214 337.384 280.214Z" fill="#FAFAFA"/>
<path d="M326.313 283.757C326.313 283.883 325.932 283.992 325.47 283.992C325.008 283.992 324.637 283.883 324.637 283.757C324.637 283.63 325.017 283.521 325.47 283.521C325.923 283.521 326.313 283.63 326.313 283.757Z" fill="#FAFAFA"/>
<path d="M332.655 298.333C332.537 298.333 332.283 297.834 332.093 297.146C331.903 296.457 331.867 295.859 331.993 295.832C332.12 295.805 332.365 296.331 332.555 297.019C332.745 297.708 332.782 298.26 332.655 298.333Z" fill="#FAFAFA"/>
<path d="M324.637 293.441C324.528 293.378 324.637 292.952 324.936 292.49C325.235 292.028 325.534 291.711 325.642 291.774C325.751 291.838 325.642 292.272 325.344 292.734C325.045 293.196 324.755 293.514 324.637 293.441Z" fill="#FAFAFA"/>
<path d="M324.473 309.485C324.347 309.485 324.165 308.878 324.075 308.089C323.984 307.301 324.011 306.658 324.138 306.64C324.265 306.622 324.446 307.247 324.537 308.035C324.627 308.823 324.6 309.466 324.473 309.485Z" fill="#FAFAFA"/>
</svg>
