<svg width="813" height="716" viewBox="0 0 813 716" fill="none" xmlns="http://www.w3.org/2000/svg">
<circle cx="578.5" cy="490.5" r="261.5" fill="url(#paint0_radial_10093_23758)"/>
<circle cx="317.5" cy="454.5" r="261.5" fill="url(#paint1_radial_10093_23758)"/>
<circle cx="451.5" cy="261.5" r="261.5" fill="url(#paint2_radial_10093_23758)"/>
<path d="M599.327 619.23C599.327 619.415 469.301 619.573 308.935 619.573C148.569 619.573 18.5166 619.415 18.5166 619.23C18.5166 619.044 148.516 618.886 308.935 618.886C469.354 618.886 599.327 619.044 599.327 619.23Z" fill="#263238"/>
<path d="M49.691 598.12C47.559 591.134 47.3929 583.695 49.2111 576.62C51.0293 569.545 54.7614 563.108 59.9977 558.015C65.2341 552.922 71.7724 549.371 78.8948 547.75C86.0173 546.129 93.4487 546.501 100.373 548.827C100.227 541.039 102.213 533.359 106.118 526.62C110.022 519.88 115.697 514.337 122.526 510.591C129.355 506.844 137.078 505.038 144.861 505.366C152.643 505.695 160.187 508.146 166.676 512.455C173.91 498.634 193.128 492.616 206.923 500.009C220.717 507.402 226.524 526.607 219.091 540.349C224.778 538.976 230.753 539.434 236.164 541.657C241.576 543.88 246.147 547.756 249.226 552.731C252.305 557.705 253.734 563.525 253.31 569.36C252.886 575.195 250.631 580.747 246.865 585.225C269.35 575.292 299.029 595.25 298.275 619.877L24.5879 619.083C26.5983 615.473 33.3436 598.768 49.691 598.12Z" fill="white"/>
<path d="M49.6905 598.121L47.495 598.385C45.3302 598.698 43.22 599.312 41.2258 600.211C37.9676 601.738 35.0693 603.938 32.7215 606.665C29.4762 610.433 26.8024 614.657 24.7858 619.203L24.6536 618.992L298.341 619.587L297.997 619.917C298.096 615.637 297.312 611.383 295.696 607.419C294.038 603.367 291.668 599.645 288.699 596.428C282.63 589.777 274.57 585.271 265.725 583.585C259.444 582.385 252.948 583.08 247.063 585.582L245.741 586.191L246.706 585.053C250.448 580.631 252.694 575.138 253.12 569.361C253.546 563.583 252.132 557.82 249.08 552.896C246.028 547.973 241.494 544.142 236.13 541.955C230.766 539.767 224.847 539.335 219.222 540.72L218.495 540.905L218.852 540.243C220.682 536.631 221.752 532.682 221.998 528.64C222.244 524.598 221.659 520.548 220.281 516.741C219.076 513.018 217.123 509.58 214.541 506.64C211.96 503.699 208.804 501.317 205.269 499.639C198.266 496.658 190.389 496.464 183.247 499.097C176.325 501.424 170.525 506.261 166.993 512.654L166.834 512.945L166.556 512.76C159.331 508.088 150.876 505.68 142.273 505.842C134.237 505.904 126.39 508.293 119.683 512.72C113.536 516.896 108.563 522.579 105.24 529.226C102.178 535.304 100.605 542.022 100.651 548.827V549.145L100.36 549.039C94.198 547.025 87.639 546.539 81.248 547.624C78.3347 548.111 75.4832 548.914 72.7436 550.018C70.166 551.025 67.7085 552.316 65.4163 553.866C61.2875 556.616 57.7414 560.153 54.981 564.275C49.5394 572.562 47.2364 582.52 48.4869 592.354C48.6899 593.81 48.9724 595.254 49.3334 596.679L49.6905 598.121C49.6905 597.936 49.5186 597.552 49.2673 596.679C48.8735 595.268 48.5731 593.832 48.3679 592.381C47.5723 586.707 47.9824 580.929 49.5715 575.425C50.7191 571.418 52.4624 567.606 54.7429 564.117C59.0905 557.601 65.3183 552.564 72.5981 549.674C75.363 548.555 78.2411 547.739 81.1818 547.24C87.63 546.099 94.2596 546.553 100.492 548.563L100.201 548.774C100.164 541.574 101.895 534.475 105.244 528.101C108.592 521.727 113.455 516.272 119.405 512.217C126.2 507.72 134.151 505.285 142.3 505.208C151.01 505.048 159.57 507.489 166.887 512.217L166.464 512.323C170.065 505.797 175.976 500.854 183.036 498.462C190.325 495.764 198.37 495.958 205.52 499.005C209.137 500.716 212.366 503.148 215.009 506.153C217.652 509.157 219.653 512.67 220.889 516.476C222.294 520.37 222.89 524.51 222.64 528.642C222.39 532.774 221.299 536.812 219.434 540.508L219.05 540.019C224.814 538.598 230.879 539.039 236.375 541.279C241.872 543.519 246.518 547.443 249.647 552.487C252.776 557.531 254.226 563.436 253.79 569.356C253.355 575.276 251.055 580.905 247.222 585.437L246.812 584.908C252.82 582.344 259.455 581.631 265.871 582.858C274.868 584.566 283.069 589.147 289.241 595.912C292.256 599.192 294.665 602.98 296.357 607.101C298.004 611.155 298.805 615.503 298.711 619.878V620.222H298.341L24.6536 619.243H24.4287L24.5345 619.031C26.5473 614.479 29.2213 610.25 32.4702 606.48C34.8523 603.748 37.787 601.552 41.0803 600.039C43.0833 599.14 45.21 598.547 47.3892 598.28L49.6905 598.121Z" fill="#263238"/>
<path d="M569.74 592.685C565.354 590.083 560.325 588.766 555.227 588.885C550.128 589.004 545.166 590.555 540.907 593.36C540.306 586.451 537.852 579.832 533.804 574.201C529.756 568.57 524.264 564.135 517.907 561.363C511.55 558.592 504.563 557.586 497.683 558.453C490.802 559.319 484.282 562.025 478.811 566.286C479.362 559.173 477.818 552.054 474.37 545.809C470.922 539.563 465.721 534.464 459.408 531.14C453.096 527.817 445.948 526.414 438.848 527.106C431.747 527.797 425.005 530.553 419.452 535.033V619.23L582.133 618.714C582.719 613.649 581.868 608.522 579.676 603.919C577.484 599.316 574.041 595.423 569.74 592.685Z" fill="white"/>
<path d="M569.74 592.685C569.74 592.685 570.322 593.028 571.433 593.782C573.02 594.943 574.474 596.273 575.771 597.75C577.863 600.171 579.519 602.937 580.665 605.924C582.25 609.993 582.813 614.389 582.305 618.727V618.872H582.146L419.465 619.56H419.135V619.216C419.135 604.892 419.135 590.013 419.135 574.79V534.939L419.267 534.834C425.307 530.085 432.664 527.314 440.336 526.898C447.693 526.408 455.025 528.16 461.366 531.924C467.331 535.621 472.138 540.918 475.24 547.213C478.227 553.134 479.57 559.748 479.128 566.365L478.652 566.113C482.059 563.522 485.865 561.503 489.921 560.135C493.784 558.852 497.82 558.161 501.89 558.085C509.399 557.857 516.802 559.899 523.131 563.944C528.606 567.479 533.126 572.308 536.291 578.004C537.677 580.491 538.803 583.115 539.651 585.833C540.367 588.305 540.853 590.838 541.106 593.399L540.841 593.28C544.511 590.842 548.728 589.351 553.115 588.942C556.294 588.641 559.502 588.887 562.598 589.669C564.487 590.16 566.318 590.852 568.06 591.732C569.198 592.38 569.767 592.737 569.767 592.737L569.317 592.513L567.994 591.812C563.386 589.537 558.225 588.619 553.115 589.166C548.78 589.597 544.618 591.092 541 593.518L540.775 593.663V593.386C540.514 590.854 540.018 588.352 539.294 585.913C538.448 583.219 537.322 580.621 535.934 578.162C532.785 572.542 528.302 567.782 522.88 564.301C516.621 560.33 509.312 558.335 501.904 558.574C497.89 558.662 493.913 559.353 490.106 560.625C486.114 561.979 482.37 563.976 479.022 566.537L478.493 566.933V566.285C478.921 559.774 477.587 553.268 474.631 547.451C471.596 541.264 466.879 536.057 461.022 532.427C454.794 528.741 447.597 527.026 440.376 527.506C432.844 527.917 425.622 530.637 419.69 535.297L419.823 535.032V619.229L419.479 618.885L582.159 618.542L582.001 618.7C582.521 614.414 581.99 610.065 580.453 606.03C578.648 601.197 575.511 596.974 571.407 593.848L570.177 592.989L569.74 592.685Z" fill="#263238"/>
<path d="M569.581 401.7C568.369 400.255 566.875 399.072 565.189 398.224C563.504 397.375 561.664 396.88 559.781 396.767C556.951 396.586 554.12 397.084 551.522 398.221C548.925 399.357 546.637 401.098 544.849 403.298C543.062 405.499 541.826 408.095 541.246 410.87C540.667 413.645 540.759 416.519 541.516 419.251C533.196 416.236 522.999 421.248 519.917 429.515C516.836 437.781 520.83 447.965 528.541 452.277C536.252 456.588 546.687 454.922 553.035 448.785C557.638 457.607 569.885 461.429 578.694 456.721C587.503 452.012 591.219 439.765 586.484 431.009C590.773 430.452 594.748 428.46 597.762 425.357C600.775 422.254 602.651 418.223 603.083 413.919C603.515 409.616 602.479 405.292 600.142 401.652C597.806 398.012 594.307 395.27 590.214 393.87C582.12 391.093 574.131 394.36 569.581 401.621V401.7Z" fill="white"/>
<path d="M569.582 401.7C569.582 401.7 569.582 401.581 569.754 401.382L570.322 400.496C571.092 399.378 571.979 398.345 572.967 397.414C574.849 395.614 577.125 394.278 579.614 393.513C582.103 392.748 584.737 392.576 587.305 393.01C590.961 393.629 594.35 395.323 597.039 397.877C600.197 400.882 602.327 404.807 603.123 409.093C603.534 411.519 603.461 414.002 602.907 416.399C602.353 418.797 601.33 421.06 599.896 423.06C598.352 425.215 596.424 427.067 594.209 428.522C591.873 430.033 589.238 431.021 586.485 431.419L586.749 430.929C590.717 438.31 588.971 448.851 581.935 455.001C580.11 456.523 578.002 457.668 575.731 458.37C573.461 459.071 571.074 459.315 568.709 459.088C563.798 458.722 559.178 456.616 555.681 453.149C554.471 451.917 553.442 450.519 552.626 448.996L553.208 449.089C550.462 451.665 547.102 453.493 543.447 454.399C539.793 455.304 535.968 455.256 532.337 454.26C528.845 453.265 525.728 451.253 523.383 448.48C522.255 447.141 521.291 445.671 520.513 444.103C519.792 442.546 519.246 440.913 518.886 439.235C518.577 437.584 518.47 435.9 518.569 434.223C518.695 432.583 519.042 430.968 519.6 429.422C520.766 426.462 522.731 423.885 525.274 421.975C527.646 420.152 530.415 418.915 533.355 418.365C536.117 417.881 538.956 418.104 541.608 419.013L541.238 419.357C540.384 416.09 540.457 412.651 541.45 409.424C542.299 406.541 543.843 403.912 545.947 401.766C547.783 399.912 550.017 398.501 552.48 397.639C554.55 396.916 556.729 396.554 558.921 396.568C561.975 396.56 564.943 397.58 567.346 399.465C568.193 400.095 568.946 400.843 569.582 401.687L569.013 401.118C568.46 400.568 567.868 400.06 567.241 399.597C564.841 397.804 561.917 396.851 558.921 396.885C556.771 396.898 554.638 397.273 552.613 397.996C550.214 398.86 548.043 400.257 546.264 402.083C544.231 404.187 542.746 406.758 541.939 409.569C540.991 412.706 540.936 416.045 541.78 419.211L541.926 419.727L541.41 419.542C538.856 418.683 536.126 418.483 533.474 418.96C530.633 419.503 527.96 420.708 525.671 422.478C523.239 424.327 521.359 426.806 520.235 429.646C519.708 431.14 519.379 432.696 519.256 434.276C519.169 435.892 519.28 437.513 519.587 439.103C519.937 440.721 520.465 442.296 521.161 443.798C521.918 445.309 522.85 446.725 523.938 448.017C526.198 450.675 529.194 452.603 532.549 453.559C536.069 454.532 539.781 454.58 543.326 453.7C546.87 452.82 550.128 451.04 552.784 448.533L553.128 448.203L553.38 448.639C554.164 450.092 555.148 451.427 556.303 452.607C559.672 455.95 564.121 457.985 568.854 458.347C571.121 458.552 573.406 458.306 575.579 457.626C577.751 456.945 579.767 455.841 581.512 454.379C584.794 451.465 587.018 447.543 587.834 443.23C588.675 439.145 588.101 434.896 586.207 431.181L585.982 430.757L586.458 430.678C589.109 430.298 591.648 429.356 593.904 427.914C596.053 426.501 597.927 424.708 599.433 422.623C600.832 420.696 601.834 418.509 602.381 416.191C602.928 413.873 603.01 411.469 602.62 409.12C601.865 404.942 599.81 401.109 596.748 398.168C594.141 395.655 590.844 393.974 587.278 393.341C584.394 392.829 581.426 393.099 578.681 394.121C576.654 394.908 574.785 396.055 573.166 397.507C571.817 398.765 570.614 400.171 569.582 401.7Z" fill="#263238"/>
<path d="M146.624 169.9C147.522 166.952 147.59 163.813 146.821 160.828C146.052 157.844 144.475 155.129 142.264 152.982C140.053 150.835 137.293 149.339 134.287 148.658C131.281 147.977 128.145 148.137 125.225 149.122C125.296 145.838 124.466 142.598 122.826 139.752C121.186 136.906 118.798 134.564 115.921 132.979C113.044 131.394 109.788 130.627 106.506 130.761C103.225 130.895 100.042 131.925 97.3044 133.74C96.5512 132.255 95.5094 130.935 94.24 129.857C92.9706 128.78 91.499 127.966 89.9114 127.464C88.3238 126.962 86.652 126.781 84.9938 126.933C83.3356 127.084 81.7243 127.565 80.2541 128.347C78.7838 129.129 77.4842 130.196 76.4313 131.486C75.3783 132.775 74.5931 134.262 74.1216 135.859C73.6502 137.456 73.5018 139.131 73.6853 140.786C73.8689 142.441 74.3805 144.043 75.1904 145.498C72.7892 144.907 70.2627 145.092 67.9732 146.027C65.6837 146.961 63.7488 148.596 62.4461 150.698C61.1433 152.799 60.5396 155.26 60.7216 157.726C60.9035 160.192 61.8618 162.537 63.4589 164.424C53.9493 160.232 41.4639 168.657 41.7813 178.973L157.205 178.643C156.346 177.161 153.489 170.112 146.624 169.9Z" fill="white"/>
<path d="M146.624 169.899L147.563 169.966C148.476 170.075 149.368 170.321 150.208 170.693C151.604 171.305 152.853 172.206 153.872 173.338C155.258 174.924 156.399 176.707 157.258 178.629L157.364 178.84H157.139L41.7546 179.383H41.4107V179.052C41.3941 177.179 41.7353 175.321 42.4159 173.576C43.1499 171.823 44.1788 170.208 45.4579 168.802C48.0908 165.916 51.5913 163.967 55.4304 163.247C58.171 162.713 61.0089 163.012 63.5776 164.106L63.1676 164.649C61.524 162.706 60.5378 160.292 60.3507 157.754C60.1635 155.215 60.7849 152.683 62.1257 150.52C63.4666 148.356 65.458 146.673 67.8145 145.712C70.171 144.75 72.7715 144.559 75.243 145.167L74.8727 145.656C71.4736 139.162 74.6082 130.644 80.8377 127.893C83.8391 126.65 87.1908 126.543 90.2655 127.592C93.3403 128.641 95.9272 130.775 97.5422 133.594L97.1058 133.488C99.8822 131.647 103.109 130.6 106.438 130.461C109.767 130.322 113.07 131.096 115.99 132.699C118.911 134.302 121.337 136.674 123.007 139.557C124.676 142.44 125.525 145.724 125.462 149.055L125.172 148.844C127.666 148.045 130.309 147.821 132.902 148.19C135.495 148.559 137.971 149.51 140.143 150.973C143.375 153.178 145.719 156.459 146.756 160.231C147.418 162.565 147.58 165.012 147.233 167.413C147.137 168.021 147 168.622 146.823 169.212L146.637 169.82L146.77 169.225C146.914 168.619 147.024 168.005 147.1 167.387C147.403 165.009 147.204 162.594 146.518 160.297C145.457 156.593 143.113 153.386 139.905 151.251C137.772 149.838 135.348 148.925 132.813 148.579C130.278 148.233 127.698 148.464 125.264 149.254L124.973 149.346V149.029C124.989 146.181 124.327 143.37 123.042 140.829C121.93 138.575 120.349 136.585 118.406 134.991C116.463 133.398 114.202 132.237 111.774 131.587C109.347 130.937 106.808 130.813 104.329 131.223C101.849 131.633 99.486 132.568 97.3967 133.964L97.119 134.149L96.9735 133.858C95.4249 131.195 92.9651 129.181 90.048 128.189C87.1309 127.198 83.9534 127.294 81.1022 128.462C75.243 131.041 72.2407 139.228 75.4679 145.325L75.825 145.987L75.0976 145.802C72.7665 145.234 70.3155 145.417 68.0951 146.326C65.8747 147.235 63.9987 148.823 62.7352 150.863C61.4718 152.903 60.8857 155.29 61.0608 157.683C61.2358 160.075 62.1631 162.352 63.7099 164.186L64.6622 165.323L63.3396 164.728C60.8946 163.692 58.1967 163.407 55.5891 163.908C51.909 164.589 48.549 166.446 46.0134 169.199C44.7697 170.572 43.776 172.152 43.0772 173.867C42.4314 175.524 42.1039 177.287 42.1117 179.065L41.7811 178.735L157.205 178.602L157.073 178.814C156.242 176.895 155.127 175.112 153.766 173.523C152.781 172.379 151.57 171.452 150.208 170.799C149.064 170.324 147.857 170.021 146.624 169.899Z" fill="#263238"/>
<path d="M582.516 235.845C583.291 233.307 583.351 230.605 582.691 228.034C582.03 225.464 580.675 223.126 578.773 221.276C576.87 219.425 574.495 218.135 571.908 217.546C569.321 216.957 566.621 217.092 564.105 217.937C564.162 215.108 563.444 212.317 562.028 209.867C560.612 207.418 558.552 205.402 556.072 204.039C553.592 202.677 550.786 202.019 547.959 202.137C545.132 202.256 542.391 203.146 540.034 204.711C538.687 202.187 536.392 200.302 533.655 199.469C530.918 198.637 527.963 198.926 525.439 200.273C522.915 201.62 521.03 203.915 520.197 206.652C519.365 209.389 519.655 212.345 521.001 214.868C518.934 214.359 516.758 214.518 514.787 215.322C512.815 216.126 511.149 217.533 510.026 219.343C508.904 221.152 508.384 223.271 508.54 225.394C508.697 227.518 509.522 229.537 510.897 231.163C502.71 227.552 491.957 234.8 492.235 243.741L591.589 243.45C590.888 242.141 588.441 236.03 582.516 235.845Z" fill="white"/>
<path d="M582.517 235.845C582.517 235.845 582.808 235.845 583.337 235.845C584.13 235.946 584.905 236.16 585.638 236.48C586.841 237.023 587.915 237.816 588.786 238.808C589.981 240.176 590.966 241.713 591.709 243.371L591.788 243.556H591.59L492.236 244.006H491.931V243.728C491.914 242.118 492.206 240.519 492.791 239.019C493.434 237.509 494.329 236.118 495.436 234.906C497.701 232.42 500.715 230.739 504.02 230.118C506.379 229.67 508.817 229.928 511.03 230.859L510.686 231.322C509.274 229.649 508.429 227.572 508.269 225.389C508.11 223.206 508.646 221.029 509.8 219.169C510.954 217.309 512.666 215.861 514.693 215.034C516.72 214.207 518.956 214.043 521.082 214.564L520.764 214.974C520.083 213.693 519.662 212.291 519.523 210.847C519.384 209.403 519.531 207.946 519.955 206.558C520.379 205.171 521.073 203.881 521.996 202.762C522.919 201.643 524.053 200.716 525.334 200.035C526.615 199.355 528.017 198.933 529.461 198.794C530.905 198.655 532.363 198.802 533.75 199.226C535.137 199.651 536.427 200.344 537.546 201.267C538.665 202.19 539.592 203.324 540.273 204.605L539.902 204.499C542.293 202.917 545.071 202.018 547.936 201.901C550.801 201.783 553.643 202.451 556.156 203.832C558.668 205.213 560.756 207.254 562.192 209.736C563.628 212.217 564.359 215.044 564.305 217.91L564.053 217.725C566.202 217.042 568.477 216.851 570.709 217.167C572.942 217.483 575.074 218.297 576.949 219.551C579.721 221.442 581.735 224.253 582.636 227.486C583.208 229.493 583.348 231.598 583.046 233.663C582.965 234.19 582.85 234.711 582.702 235.223L582.53 235.752L582.649 235.223C582.776 234.705 582.873 234.179 582.94 233.65C583.196 231.604 583.024 229.528 582.437 227.552C581.539 224.361 579.532 221.594 576.777 219.749C574.939 218.535 572.852 217.751 570.67 217.453C568.489 217.155 566.268 217.352 564.172 218.03L563.921 218.122V217.844C563.934 215.391 563.363 212.97 562.254 210.782C561.051 208.391 559.257 206.347 557.043 204.843C554.53 203.223 551.602 202.362 548.612 202.362C545.621 202.362 542.694 203.223 540.18 204.843L539.942 204.989L539.823 204.737C538.487 202.433 536.361 200.692 533.838 199.838C531.315 198.984 528.568 199.076 526.108 200.095C523.545 201.391 521.598 203.647 520.691 206.372C519.784 209.097 519.991 212.07 521.267 214.644L521.571 215.212L520.936 215.054C518.921 214.549 516.798 214.699 514.874 215.482C512.95 216.264 511.324 217.639 510.233 219.406C509.142 221.173 508.641 223.242 508.803 225.313C508.965 227.384 509.782 229.349 511.136 230.925L511.969 231.904L510.792 231.388C508.704 230.512 506.404 230.269 504.179 230.687C501.004 231.293 498.11 232.907 495.926 235.29C494.869 236.457 494.023 237.8 493.426 239.257C492.864 240.68 492.581 242.198 492.593 243.728L492.302 243.45L591.656 243.331L591.55 243.516C590.836 241.866 589.877 240.332 588.707 238.966C587.865 237.976 586.824 237.174 585.651 236.612C584.656 236.184 583.597 235.925 582.517 235.845Z" fill="#263238"/>
<path d="M383.411 59.3295C382.848 57.4899 382.803 55.5307 383.282 53.6674C383.76 51.8041 384.743 50.1087 386.122 48.7677C387.501 47.4267 389.224 46.4919 391.1 46.0662C392.976 45.6405 394.933 45.7403 396.756 46.3547C396.721 44.3088 397.246 42.2924 398.274 40.5232C399.302 38.7541 400.794 37.2994 402.588 36.3164C404.383 35.3333 406.412 34.8593 408.456 34.9455C410.501 35.0317 412.483 35.6748 414.188 36.8054C414.656 35.8775 415.305 35.0526 416.097 34.379C416.889 33.7054 417.807 33.1967 418.798 32.8828C419.789 32.569 420.832 32.4562 421.867 32.5512C422.902 32.6462 423.908 32.9471 424.825 33.4361C425.742 33.9251 426.553 34.5924 427.208 35.3988C427.864 36.2053 428.352 37.1346 428.644 38.1323C428.936 39.1299 429.025 40.1758 428.907 41.2085C428.789 42.2412 428.466 43.2398 427.956 44.1459C429.453 43.7766 431.029 43.8909 432.457 44.4723C433.886 45.0537 435.093 46.0724 435.907 47.3824C436.72 48.6923 437.098 50.2262 436.986 51.7642C436.874 53.3022 436.278 54.7652 435.284 55.9436C441.209 53.2984 448.999 58.5888 448.801 65.0563L376.824 64.858C377.353 63.8925 379.126 59.5014 383.411 59.3295Z" fill="white"/>
<path d="M383.412 59.3298C382.65 59.4204 381.906 59.6209 381.203 59.9249C379.236 61.0316 377.731 62.8048 376.957 64.9244L376.838 64.7128C389.72 64.7128 416.622 64.7128 448.814 64.7128L448.471 65.0302C448.616 60.6524 444.728 56.5523 440.191 55.7719C438.589 55.4637 436.932 55.6387 435.43 56.2745L434.107 56.8697L435.073 55.7323C436.024 54.6107 436.596 53.2164 436.705 51.7497C436.815 50.283 436.457 48.8193 435.682 47.5688C434.908 46.3183 433.757 45.3455 432.395 44.79C431.033 44.2344 429.53 44.1248 428.102 44.4769L427.375 44.662L427.719 44.0007C428.181 43.1323 428.467 42.1814 428.562 41.2022C428.656 40.2231 428.557 39.2349 428.27 38.2942C427.982 37.3534 427.512 36.4785 426.887 35.7193C426.261 34.9601 425.492 34.3316 424.624 33.8696C423.756 33.4076 422.805 33.1211 421.825 33.0266C420.846 32.9321 419.858 33.0314 418.917 33.3188C417.977 33.6062 417.102 34.076 416.342 34.7016C415.583 35.3271 414.955 36.096 414.493 36.9645L414.334 37.2554L414.056 37.0703C412.254 35.9095 410.156 35.2923 408.012 35.2923C405.868 35.2923 403.77 35.9095 401.968 37.0703C400.444 38.1064 399.197 39.4983 398.332 41.1253C397.468 42.7524 397.014 44.5656 397.008 46.4079V46.7253L396.704 46.6195C395.198 46.1341 393.602 45.9926 392.034 46.2054C390.466 46.4183 388.966 46.9801 387.644 47.8495C385.661 49.1789 384.209 51.1643 383.544 53.4574C383.119 54.8844 382.989 56.3827 383.16 57.8617C383.292 58.8536 383.464 59.4091 383.438 59.3827C383.247 58.8975 383.114 58.3914 383.041 57.8749C382.812 56.3777 382.906 54.8487 383.319 53.3913C383.951 51.0155 385.416 48.9458 387.445 47.5586C388.812 46.6429 390.367 46.0482 391.996 45.8191C393.624 45.5901 395.284 45.7326 396.849 46.2359L396.558 46.4476C396.512 44.352 397.041 42.2839 398.088 40.4679C399.134 38.652 400.659 37.1576 402.495 36.1474C404.332 35.1371 406.41 34.6495 408.504 34.7376C410.599 34.8257 412.629 35.4861 414.374 36.647L413.951 36.7528C414.378 35.7051 415.019 34.7582 415.834 33.9729C416.648 33.1876 417.618 32.5811 418.681 32.1924C419.743 31.8037 420.875 31.6414 422.004 31.7158C423.133 31.7903 424.234 32.0998 425.237 32.6246C426.239 33.1494 427.121 33.8779 427.825 34.7634C428.53 35.6488 429.041 36.6717 429.327 37.7665C429.613 38.8612 429.667 40.0036 429.486 41.1205C429.305 42.2374 428.892 43.304 428.274 44.252L427.891 43.7627C429.466 43.3594 431.129 43.47 432.638 44.0783C434.146 44.6866 435.42 45.7607 436.275 47.1442C437.13 48.5276 437.521 50.148 437.39 51.769C437.259 53.39 436.614 54.9269 435.549 56.1555L435.152 55.6132C436.78 54.926 438.575 54.7373 440.31 55.071C442.73 55.5243 444.936 56.7549 446.592 58.5759C447.404 59.4608 448.053 60.4816 448.51 61.5914C448.946 62.6943 449.166 63.8707 449.158 65.0567V65.4138H448.814C416.622 65.308 389.72 65.1492 376.838 65.0038H376.613L376.706 64.7921C377.531 62.649 379.105 60.8775 381.137 59.8059C381.671 59.5739 382.237 59.4223 382.816 59.3562L383.412 59.3298Z" fill="#263238"/>
<path d="M237.964 94.6959L231.272 97.0105C227.872 102.829 222.419 107.165 215.985 109.167C209.55 111.169 202.6 110.692 196.499 107.829C190.399 104.967 185.589 99.9265 183.016 93.6985C180.443 87.4704 180.292 80.5052 182.594 74.1717C184.895 67.8382 189.482 62.5946 195.453 59.4712C201.424 56.3479 208.348 55.5708 214.863 57.2926C221.378 59.0145 227.013 63.1108 230.661 68.7765C234.31 74.4422 235.707 81.2675 234.578 87.911L237.964 94.6959Z" fill="white"/>
<path d="M237.964 94.6964C237.964 94.6964 237.871 94.5377 237.726 94.2468C237.581 93.9558 237.329 93.5061 237.051 92.9241L234.486 87.8982H234.658C234.65 87.9067 234.641 87.9134 234.631 87.9181C234.62 87.9227 234.609 87.9251 234.598 87.9251C234.587 87.9251 234.576 87.9227 234.565 87.9181C234.555 87.9134 234.546 87.9067 234.539 87.8982C234.528 87.8827 234.522 87.8642 234.522 87.8453C234.522 87.8264 234.528 87.8079 234.539 87.7924C235.251 83.4803 234.906 79.0597 233.533 74.9102C232.607 72.1995 231.269 69.6478 229.566 67.3449C225.436 61.8135 219.327 58.0932 212.517 56.9624C208.69 56.2826 204.759 56.4633 201.01 57.4915C197.027 58.5967 193.346 60.5909 190.244 63.3242C186.992 66.1963 184.506 69.8325 183.01 73.905C182.234 75.9739 181.706 78.127 181.436 80.3197C181.37 81.4042 181.277 82.4888 181.277 83.5733L181.356 85.1869V85.9937L181.489 86.7872C182.047 90.9734 183.563 94.9744 185.919 98.4791C188.127 101.725 191.033 104.437 194.424 106.415C197.54 108.26 200.994 109.465 204.581 109.959C207.824 110.393 211.118 110.232 214.303 109.483L216.472 108.862C217.186 108.637 217.794 108.333 218.522 108.081C219.797 107.557 221.026 106.929 222.199 106.203C225.913 103.896 229.009 100.718 231.219 96.9449L236.179 95.2652L237.501 94.8419L237.964 94.6964L237.554 94.8552L236.231 95.3181L231.298 97.1565C229.104 100.929 226.021 104.107 222.318 106.415C221.139 107.16 219.9 107.806 218.614 108.346C217.927 108.597 217.292 108.914 216.551 109.139L214.342 109.787C211.104 110.59 207.747 110.791 204.436 110.383C200.792 109.889 197.281 108.68 194.106 106.825C190.652 104.822 187.692 102.069 185.443 98.7701C183.064 95.2466 181.526 91.2239 180.946 87.0121L180.827 86.2053V85.3853L180.748 83.7452C180.748 82.6475 180.827 81.5365 180.907 80.4387C181.173 78.2053 181.706 76.0119 182.494 73.905C184.021 69.7329 186.562 66.006 189.887 63.0597C193.048 60.2825 196.797 58.2568 200.852 57.1344C204.668 56.1016 208.666 55.9299 212.557 56.6318C216.155 57.2721 219.589 58.6208 222.662 60.5996C225.438 62.3761 227.864 64.6493 229.817 67.3052C231.53 69.6404 232.869 72.2286 233.785 74.9764C235.16 79.1724 235.473 83.6439 234.697 87.9908H234.512C234.531 87.9758 234.554 87.9676 234.578 87.9676C234.602 87.9676 234.626 87.9758 234.644 87.9908C235.716 90.1996 236.549 91.9586 237.118 93.0961L237.739 94.4187C237.818 94.5084 237.893 94.6011 237.964 94.6964Z" fill="#263238"/>
<path d="M196.183 84.4461L199.569 80.8222L206.525 86.602L219.341 73.4023L222.701 76.7882L206.248 93.3605L196.183 84.4461Z" fill="#FF6420"/>
<path d="M424.861 308.154H242.751V619.695H424.861V308.154Z" fill="#455A64"/>
<path d="M223.375 223.374C223.282 223.044 233.956 208.958 233.956 208.958L224.513 199.078L213.932 207.424L223.375 223.374Z" fill="#FFBF9D"/>
<path d="M395.618 151.663L398.091 160.286C398.091 160.286 403.382 168.143 405.26 169.082C405.749 169.333 406.226 169.69 406.675 169.862C408.355 170.47 410.564 169.862 410.114 167.904C410.634 167.964 411.16 167.863 411.621 167.614C412.082 167.366 412.456 166.983 412.693 166.516C413.447 165.034 411.807 163.236 411.807 163.236C411.807 163.236 413.711 163.725 414.571 162.429C415.285 161.358 414.28 159.942 414.28 159.942C414.28 159.942 415.127 158.488 414.703 157.681C414.082 156.808 413.382 155.993 412.614 155.247C411.628 152.961 410.474 150.75 409.162 148.634C408.026 147.092 406.667 145.727 405.128 144.587L395.618 151.663Z" fill="#FFBF9D"/>
<path d="M414.479 160.128C414.479 159.996 413.699 159.48 412.839 158.633C411.979 157.787 411.437 156.967 411.305 157.033C411.535 157.772 411.946 158.442 412.5 158.983C413.054 159.523 413.734 159.917 414.479 160.128Z" fill="#FF9A6C"/>
<path d="M412.15 163.487C412.15 163.368 411.383 162.892 410.537 162.165C409.69 161.437 409.122 160.617 409.003 160.697C408.884 160.776 409.293 161.689 410.206 162.522C411.119 163.355 412.084 163.659 412.15 163.487Z" fill="#FF9A6C"/>
<path d="M405.26 163.103C405.545 164.233 406.196 165.238 407.111 165.96C407.907 166.788 408.873 167.433 409.942 167.851C409.157 167.05 408.322 166.299 407.442 165.603C406.093 164.373 405.379 163.05 405.26 163.103Z" fill="#FF9A6C"/>
<path d="M68.0874 384.389C67.9551 384.654 66.4209 387.564 66.8441 388.622C67.0122 388.954 67.2593 389.24 67.5637 389.454C67.8681 389.669 68.2205 389.805 68.59 389.852C68.6763 390.686 69.0449 391.465 69.6348 392.061C70.3309 392.535 71.1601 392.776 72.0023 392.748L72.7165 393.595C72.9354 393.93 73.2425 394.199 73.6041 394.372C73.9657 394.545 74.3679 394.614 74.7665 394.573C75.5302 394.263 76.3715 394.199 77.1737 394.388C78.3111 394.745 80.6918 391.968 81.9351 390.685C83.1783 389.402 84.8713 387.696 84.0116 385.011C82.8741 381.387 81.3663 376.705 81.3663 376.705L83.7735 369.867L71.9758 370.264L71.46 373.24C71.46 373.24 69.8332 374.02 68.709 377.38C68.027 379.65 67.8155 382.035 68.0874 384.389Z" fill="#AE7461"/>
<path d="M80.6923 376.956C80.6923 376.956 84.0782 384.746 84.0782 385.01C84.0782 385.275 80.7584 392.126 79.1845 393.171C77.6106 394.216 75.5474 395.38 75.5474 395.38C75.5474 395.38 73.7751 394.533 75.2961 391.928C76.8171 389.322 78.5761 386.743 78.5761 386.743L77.4519 384.098C77.4519 384.098 71.6721 381.162 73.2592 375.382" fill="#AE7461"/>
<path d="M73.1926 375.343C73.1119 375.581 73.0456 375.824 72.9942 376.07C72.9271 376.366 72.8873 376.667 72.8751 376.97C72.8359 377.379 72.8359 377.791 72.8751 378.2C73.0264 379.314 73.4338 380.378 74.0655 381.308C74.9171 382.5 76.0184 383.493 77.2926 384.218L77.2133 384.125C77.5704 384.985 77.9275 385.884 78.3243 386.77V386.598C77.5043 387.789 76.6578 389.085 75.8246 390.447C75.364 391.142 74.9572 391.872 74.6077 392.629C74.4435 393.05 74.3714 393.501 74.3961 393.952C74.4074 394.452 74.6167 394.928 74.9781 395.274C75.0977 395.382 75.226 395.479 75.3616 395.565H75.4542H75.5468L77.5307 394.362L78.5094 393.767C78.8416 393.583 79.1599 393.375 79.4617 393.145C79.9668 392.615 80.4105 392.029 80.7843 391.399C81.1679 390.804 81.5118 390.196 81.8556 389.6C82.5037 388.423 83.0989 387.273 83.6147 386.188C83.7337 385.91 83.8528 385.646 83.985 385.381L84.0644 385.17C84.0702 385.126 84.0702 385.081 84.0644 385.038C84.0708 384.985 84.0708 384.932 84.0644 384.879L83.9189 384.456C83.7073 383.94 83.4957 383.45 83.3105 382.974C82.5169 381.096 81.8424 379.588 81.3795 378.557L80.824 377.366C80.7688 377.226 80.6978 377.093 80.6124 376.97C80.6466 377.115 80.6953 377.257 80.7579 377.393C80.8769 377.723 81.0356 378.12 81.234 378.623C81.6837 379.721 82.2921 381.268 83.046 383.08C83.2312 383.556 83.4163 384.059 83.6279 384.575L83.747 384.945H83.8396C83.7337 384.945 83.7602 384.945 83.7602 384.945L83.6808 385.13L83.3105 385.924C82.7815 386.995 82.1863 388.132 81.525 389.31C81.1811 389.878 80.8372 390.487 80.4537 391.069C80.0775 391.668 79.6337 392.223 79.1311 392.722C78.8433 392.944 78.5381 393.143 78.2185 393.317L77.253 393.899L75.2823 395.089H75.4807C75.3745 395.027 75.2767 394.952 75.1897 394.864C74.9404 394.573 74.7824 394.214 74.7354 393.833C74.6883 393.452 74.7543 393.066 74.9252 392.722C75.2608 391.989 75.6498 391.282 76.0891 390.606C76.9223 389.283 77.7556 387.96 78.5624 386.744V386.664V386.572C78.1788 385.633 77.7952 384.747 77.4381 383.927C76.2008 383.25 75.1264 382.311 74.2903 381.175C73.6558 380.292 73.2348 379.273 73.0603 378.2C72.9827 377.246 73.0272 376.286 73.1926 375.343Z" fill="#6F4439"/>
<path d="M108.191 396.161L40.1162 394.818L39.1676 442.912L107.242 444.255L108.191 396.161Z" fill="#455A64"/>
<path d="M100.319 396.24C100.2 396.478 100.059 396.704 99.8961 396.914L98.5735 398.74C97.4096 400.314 95.7695 402.641 93.4814 405.353C90.7851 408.485 87.6696 411.231 84.2232 413.513C79.9917 416.398 75.0629 418.092 69.9522 418.42C64.8026 418.481 59.772 416.871 55.6152 413.831C52.2411 411.423 49.2455 408.526 46.7272 405.234C44.5449 402.469 42.9843 400.089 41.9129 398.435L40.6565 396.438C40.5061 396.22 40.3818 395.985 40.2861 395.737C40.471 395.926 40.635 396.135 40.7755 396.359L42.0981 398.211C43.2223 399.811 44.8491 402.178 47.0579 404.824C49.599 408.026 52.5879 410.845 55.9326 413.196C59.9938 416.12 64.882 417.672 69.8861 417.626C74.873 417.294 79.6849 415.657 83.8396 412.878C87.2661 410.658 90.3798 407.989 93.0979 404.943C95.4257 402.297 97.0657 400.049 98.3883 398.528L99.8167 396.769C99.9649 396.575 100.133 396.398 100.319 396.24Z" fill="#263238"/>
<path d="M56.6338 399.427C56.6338 399.083 59.0806 387.934 64.0272 383.463C66.7517 381.003 72.5315 378.794 78.5759 386.743L76.4861 389.693C76.4861 389.693 70.2038 381.056 66.6195 385.355C64.6753 387.682 61.1968 393.026 60.9587 398.462L56.6338 399.427Z" fill="#455A64"/>
<path d="M76.3403 389.825C76.7218 389.437 77.0388 388.991 77.2794 388.503C77.4227 388.261 77.507 387.989 77.5254 387.708C77.5438 387.428 77.4957 387.147 77.3852 386.889C77.2539 386.698 77.0749 386.545 76.866 386.446C76.6571 386.346 76.4257 386.303 76.1948 386.32C75.7297 386.37 75.2933 386.57 74.9516 386.889C74.6179 387.213 74.3208 387.572 74.0654 387.96" fill="#AE7461"/>
<path d="M74.0653 387.88C73.9992 387.88 74.0653 387.418 74.5679 386.849C74.8424 386.496 75.2019 386.218 75.6128 386.042C75.8896 385.923 76.1929 385.878 76.4924 385.913C76.7919 385.948 77.0769 386.061 77.3189 386.24C77.557 386.438 77.7299 386.703 77.8149 387C77.8998 387.297 77.8929 387.613 77.7951 387.907C77.6764 388.318 77.4837 388.703 77.2264 389.044C76.7899 389.626 76.4063 389.851 76.3402 389.785C76.2741 389.719 76.5121 389.375 76.8031 388.793C76.9747 388.467 77.1036 388.12 77.1867 387.761C77.2345 387.587 77.2326 387.403 77.1812 387.23C77.1297 387.057 77.0308 386.902 76.8957 386.783C76.2476 386.293 75.3747 386.783 74.925 387.179C74.4753 387.576 74.1579 387.947 74.0653 387.88Z" fill="#6F4439"/>
<path d="M71.6455 384.72C71.8699 384.379 72.166 384.091 72.5133 383.876C72.8605 383.661 73.2505 383.525 73.6559 383.477C74.0553 383.41 74.4656 383.476 74.824 383.664C75.1823 383.853 75.4689 384.154 75.6398 384.521C75.6868 384.838 75.6688 385.16 75.587 385.47C75.5051 385.779 75.3611 386.068 75.1637 386.32C74.2115 387.911 73.1276 389.42 71.9233 390.83" fill="#AE7461"/>
<path d="M71.9234 390.83C71.7647 390.711 73.5237 388.542 75.1373 385.646C75.2364 385.522 75.3073 385.377 75.3452 385.223C75.3832 385.069 75.3872 384.908 75.357 384.753C75.3268 384.597 75.2632 384.449 75.1704 384.32C75.0777 384.191 74.9581 384.084 74.8199 384.006C74.5673 383.868 74.2893 383.783 74.0029 383.756C73.7165 383.728 73.4275 383.76 73.1534 383.847C72.1747 384.164 71.8308 384.799 71.6853 384.72C71.5398 384.641 71.8573 383.913 73.0079 383.397C73.346 383.252 73.712 383.182 74.08 383.194C74.4479 383.205 74.8089 383.297 75.1373 383.463C75.3535 383.566 75.5455 383.714 75.7005 383.896C75.8555 384.078 75.9701 384.292 76.0367 384.522C76.1341 385.009 76.0544 385.516 75.8119 385.95C74.8776 387.835 73.552 389.499 71.9234 390.83Z" fill="#6F4439"/>
<path d="M68.2988 384.256C68.5879 383.61 69.0445 383.053 69.6214 382.643C69.876 382.459 70.1678 382.333 70.4762 382.273C70.7846 382.214 71.1023 382.223 71.407 382.299C71.7025 382.386 71.9663 382.558 72.1659 382.793C72.3655 383.028 72.4925 383.316 72.5312 383.621C72.4939 384.163 72.2907 384.68 71.9492 385.103C71.0234 386.518 70.005 388.29 68.9337 389.6" fill="#AE7461"/>
<path d="M68.8682 389.653C68.7888 389.587 69.1856 388.992 69.7808 387.986C70.1246 387.404 70.4685 386.823 70.8256 386.241C71.2664 385.565 71.6725 384.868 72.0424 384.151C72.0954 383.996 72.1164 383.833 72.1041 383.67C72.0919 383.507 72.0467 383.349 71.9712 383.204C71.8957 383.059 71.7916 382.931 71.6651 382.828C71.5387 382.725 71.3926 382.648 71.2356 382.603C70.948 382.529 70.647 382.521 70.3558 382.58C70.0646 382.64 69.791 382.765 69.5559 382.947C68.6962 383.622 68.392 384.27 68.2333 384.27C68.0746 384.27 68.2333 383.463 69.1856 382.577C69.47 382.311 69.8157 382.12 70.1919 382.021C70.5681 381.922 70.9631 381.918 71.3414 382.008C71.8136 382.137 72.2198 382.439 72.4789 382.855C72.6199 383.082 72.7064 383.339 72.7316 383.605C72.7568 383.871 72.7201 384.139 72.6244 384.389C72.4517 384.817 72.225 385.222 71.9498 385.593L71.2885 386.598C70.8653 387.233 70.4685 387.815 70.1114 388.277C69.5295 389.203 68.9343 389.706 68.8682 389.653Z" fill="#6F4439"/>
<path d="M74.1579 418.38C74.1579 419.031 73.9651 419.667 73.6038 420.208C73.2425 420.75 72.7289 421.172 72.1279 421.422C71.5269 421.671 70.8654 421.737 70.2269 421.611C69.5885 421.485 69.0016 421.173 68.5406 420.714C68.0795 420.254 67.7648 419.669 67.6362 419.031C67.5076 418.393 67.571 417.731 67.8182 417.129C68.0654 416.527 68.4855 416.012 69.0253 415.648C69.5652 415.285 70.2006 415.09 70.8514 415.087C71.285 415.085 71.7146 415.169 72.1157 415.334C72.5168 415.499 72.8814 415.741 73.1886 416.047C73.4958 416.353 73.7396 416.716 73.9059 417.117C74.0723 417.517 74.1579 417.947 74.1579 418.38Z" fill="#263238"/>
<path d="M129.046 276.755C129.046 276.755 117.143 280.524 113.175 284.452C102.594 294.597 86.9875 310.799 82.5303 317.888C79.7528 322.319 70.3623 370.792 70.3623 370.792L91.3257 371.797L101.735 322.927L119.577 305.085L129.046 276.755Z" fill="#E0E0E0"/>
<path d="M222.594 393.978L235.542 405.617L237.579 406.86C237.579 406.86 251.678 387.114 255.911 387.907L244.946 431.553L241.441 430.535L217.912 415.219L222.594 393.978Z" fill="#263238"/>
<path d="M232.342 420.655C232.364 421.106 232.551 421.534 232.868 421.856C233.185 422.178 233.61 422.372 234.061 422.401C234.513 422.394 234.946 422.215 235.27 421.901C235.595 421.586 235.787 421.159 235.807 420.708C235.784 420.227 235.584 419.773 235.244 419.433C234.904 419.093 234.449 418.892 233.969 418.869C233.498 418.923 233.067 419.157 232.766 419.522C232.465 419.887 232.318 420.355 232.355 420.827" fill="#E0E0E0"/>
<path d="M245.185 431.646L241.68 430.641L253.504 389.124C253.504 389.124 254.826 387.392 256.149 387.96L245.185 431.646Z" fill="#263238"/>
<path d="M237.58 406.86C237.791 406.86 237.58 408.011 238.043 409.227C238.506 410.444 239.22 411.238 239.088 411.41C238.955 411.582 237.765 410.96 237.315 409.465C236.866 407.971 237.395 406.754 237.58 406.86Z" fill="#455A64"/>
<path d="M240.622 402.747C240.846 402.747 240.965 403.765 241.693 404.718C242.42 405.67 243.32 406.12 243.254 406.331C243.187 406.543 241.931 406.331 241.071 405.167C240.211 404.003 240.423 402.707 240.622 402.747Z" fill="#455A64"/>
<path d="M246.759 401.516C246.759 401.728 245.621 401.754 244.59 400.921C243.558 400.088 243.267 398.964 243.545 398.911C243.822 398.858 244.206 399.638 245.066 400.326C245.925 401.014 246.759 401.305 246.759 401.516Z" fill="#455A64"/>
<path d="M232.329 405.947C232.501 406.079 231.958 406.992 231.747 408.222C231.535 409.452 231.667 410.484 231.456 410.55C231.244 410.616 230.715 409.518 230.993 408.076C231.271 406.635 232.21 405.802 232.329 405.947Z" fill="#263238"/>
<path d="M168.076 220.531C168.796 219.906 169.691 219.521 170.639 219.429C171.587 219.336 172.54 219.541 173.367 220.015C174.708 219.622 176.141 219.689 177.44 220.204C178.739 220.719 179.828 221.653 180.535 222.858C181.484 222.689 182.461 222.768 183.369 223.089C184.278 223.41 185.088 223.962 185.72 224.689C186.352 225.417 186.784 226.297 186.974 227.241C187.164 228.186 187.106 229.164 186.804 230.08C187.761 230.276 188.633 230.768 189.295 231.486C189.956 232.205 190.376 233.113 190.493 234.083C190.61 235.053 190.419 236.035 189.947 236.89C189.475 237.746 188.746 238.431 187.863 238.849C188.747 239.534 189.343 240.526 189.531 241.629C189.72 242.732 189.488 243.865 188.882 244.806C188.276 245.746 187.339 246.425 186.256 246.708C185.173 246.991 184.024 246.858 183.035 246.335L167.045 225.715C166.657 224.851 166.548 223.887 166.733 222.958C166.918 222.029 167.387 221.181 168.076 220.531Z" fill="#263238"/>
<path d="M183.419 246.255C184.726 241.669 184.26 236.759 182.114 232.5C179.967 228.241 176.297 224.946 171.833 223.269L170.907 222.925C160.762 219.777 152.39 226.641 149.573 236.865L138.529 272.417L146.24 291.952L158.818 285.735L162.442 276.887C162.442 276.887 172.534 278.99 176.237 269.494C177.983 264.838 180.879 255.104 183.419 246.255Z" fill="#AE7461"/>
<path d="M162.389 277.681C157.991 276.015 154.163 273.123 151.358 269.349C151.358 269.349 151.702 277.284 161.437 280.035L162.389 277.681Z" fill="#6F4439"/>
<path d="M177.335 254.919C177.206 255.276 176.943 255.567 176.602 255.733C176.262 255.898 175.87 255.924 175.51 255.805C175.15 255.698 174.848 255.453 174.67 255.123C174.491 254.793 174.451 254.406 174.558 254.046C174.689 253.689 174.955 253.397 175.298 253.232C175.641 253.066 176.034 253.041 176.396 253.16C176.58 253.203 176.753 253.284 176.903 253.399C177.053 253.514 177.177 253.659 177.266 253.826C177.355 253.993 177.407 254.177 177.419 254.365C177.431 254.554 177.402 254.743 177.335 254.919Z" fill="#263238"/>
<path d="M179.53 251.533C179.305 251.639 178.551 250.488 177.083 249.946C175.615 249.403 174.266 249.734 174.187 249.496C174.107 249.258 174.425 249.126 175.02 248.967C175.817 248.757 176.661 248.808 177.427 249.112C178.194 249.389 178.849 249.909 179.292 250.594C179.623 251.096 179.649 251.48 179.53 251.533Z" fill="#263238"/>
<path d="M164.546 250.819C164.414 251.176 164.148 251.468 163.805 251.634C163.462 251.799 163.069 251.825 162.707 251.705C162.523 251.663 162.35 251.581 162.2 251.467C162.05 251.352 161.926 251.206 161.837 251.039C161.748 250.873 161.696 250.689 161.684 250.5C161.672 250.312 161.701 250.123 161.768 249.946C161.897 249.59 162.16 249.298 162.501 249.132C162.842 248.967 163.234 248.941 163.593 249.06C163.953 249.167 164.255 249.413 164.433 249.742C164.612 250.072 164.652 250.46 164.546 250.819Z" fill="#263238"/>
<path d="M165.59 246.071C165.352 246.177 164.611 245.026 163.143 244.484C161.675 243.942 160.326 244.272 160.233 244.034C160.141 243.796 160.471 243.664 161.08 243.505C161.871 243.301 162.706 243.347 163.471 243.636C164.236 243.925 164.892 244.443 165.352 245.119C165.669 245.661 165.709 246.018 165.59 246.071Z" fill="#263238"/>
<path d="M160.987 259.693C161.239 259.693 161.596 261.016 162.812 261.968C164.029 262.921 165.458 263.053 165.458 263.291C165.458 263.529 165.114 263.569 164.492 263.529C163.67 263.468 162.886 263.159 162.244 262.643C161.6 262.136 161.137 261.436 160.921 260.646C160.789 260.077 160.868 259.707 160.987 259.693Z" fill="#263238"/>
<path d="M166.344 258.741C167.207 258.781 168.061 258.937 168.883 259.204C169.28 259.31 169.65 259.363 169.822 259.125C169.993 258.753 170.048 258.338 169.981 257.934C169.981 256.89 169.981 255.805 169.981 254.668C169.861 251.868 169.967 249.064 170.298 246.282C170.639 249.063 170.759 251.867 170.655 254.668C170.655 255.805 170.655 256.89 170.655 257.934C170.728 258.472 170.601 259.018 170.298 259.469C170.197 259.583 170.069 259.671 169.927 259.726C169.784 259.781 169.63 259.802 169.478 259.786C169.253 259.765 169.031 259.716 168.817 259.641C167.958 259.445 167.128 259.143 166.344 258.741Z" fill="#263238"/>
<path d="M167.164 239.788C166.992 240.198 165.63 239.881 163.99 239.973C162.35 240.066 161.001 240.449 160.816 240.053C160.736 239.867 161.001 239.484 161.556 239.114C162.284 238.671 163.112 238.421 163.963 238.386C164.803 238.343 165.639 238.525 166.384 238.915C166.966 239.233 167.23 239.59 167.164 239.788Z" fill="#263238"/>
<path d="M180.708 247.38C180.351 247.658 179.385 246.997 178.168 246.626C176.951 246.256 175.801 246.203 175.655 245.78C175.655 245.581 175.867 245.277 176.422 245.092C177.156 244.881 177.936 244.893 178.662 245.129C179.388 245.365 180.027 245.813 180.496 246.415C180.827 246.864 180.88 247.248 180.708 247.38Z" fill="#263238"/>
<path d="M184.133 242.393C184.133 242.393 183.855 235.476 181.488 233.003C178.631 230.001 175.695 233.267 172.732 231.098C169.769 228.929 167.031 226.046 162.667 227.342C157.905 228.757 158.897 231.389 157.085 235.529C149.719 252.339 144.759 256.016 146.901 247.604C147.139 246.679 144.944 245.052 145.989 241.177C147.311 236.151 149.348 230.186 151.729 227.157C153.726 224.591 156.133 223.189 159.929 222.118C165.92 220.385 172.388 222.713 176.581 224.763C180.773 226.813 187.333 235.079 184.133 242.393Z" fill="#263238"/>
<path d="M147.629 247.566C147.749 247.212 147.795 246.837 147.766 246.464C147.736 246.092 147.631 245.729 147.456 245.399C147.281 245.068 147.041 244.777 146.751 244.542C146.46 244.308 146.124 244.135 145.764 244.034C143.926 243.532 141.558 243.796 140.302 247.513C138.067 254.126 145.156 254.999 145.222 254.813C145.288 254.628 146.717 250.343 147.629 247.566Z" fill="#AE7461"/>
<path d="M144.627 251.85C144.627 251.85 144.495 251.85 144.27 251.85C143.955 251.865 143.646 251.766 143.397 251.573C143.063 251.157 142.846 250.66 142.767 250.132C142.688 249.605 142.75 249.066 142.947 248.57C143.118 247.997 143.422 247.471 143.833 247.036C143.966 246.851 144.141 246.701 144.343 246.598C144.546 246.494 144.77 246.44 144.997 246.441C145.142 246.452 145.278 246.514 145.382 246.616C145.486 246.717 145.551 246.852 145.566 246.996C145.566 247.208 145.566 247.327 145.566 247.353C145.566 247.38 145.738 247.287 145.778 246.996C145.8 246.82 145.757 246.642 145.659 246.494C145.593 246.394 145.507 246.308 145.407 246.242C145.307 246.176 145.195 246.132 145.077 246.11C144.788 246.073 144.495 246.109 144.225 246.215C143.954 246.321 143.715 246.495 143.529 246.719C143.059 247.198 142.71 247.783 142.511 248.425C142.279 249.003 142.224 249.636 142.351 250.245C142.478 250.855 142.782 251.413 143.225 251.85C143.385 251.961 143.568 252.035 143.76 252.067C143.952 252.099 144.149 252.088 144.336 252.036C144.561 251.996 144.653 251.864 144.627 251.85Z" fill="#6F4439"/>
<path d="M152.483 234.987C153.045 235.935 153.831 236.729 154.771 237.302C155.252 237.569 155.812 237.653 156.349 237.538C156.887 237.424 157.364 237.119 157.694 236.68C157.946 236.257 158.025 235.688 158.461 235.45C158.898 235.212 159.572 235.543 160.102 235.807C161.021 236.246 162.064 236.354 163.055 236.113C164.045 235.872 164.922 235.297 165.537 234.485C165.712 234.915 166.04 235.265 166.457 235.468C166.875 235.671 167.353 235.712 167.799 235.583C168.682 235.291 169.519 234.877 170.286 234.353C170.671 234.096 171.113 233.937 171.574 233.889C172.035 233.84 172.5 233.904 172.931 234.075C173.394 234.326 173.738 234.776 174.253 234.921C175.14 235.159 175.933 234.313 176.383 233.519C176.832 232.726 177.295 231.76 178.195 231.575C179.094 231.39 179.808 231.972 180.549 232.382C181.29 232.792 182.387 232.99 182.877 232.289C182.991 232.091 183.063 231.871 183.088 231.643C183.114 231.416 183.091 231.185 183.022 230.967C182.792 229.978 182.235 229.096 181.44 228.464C180.645 227.833 179.66 227.489 178.644 227.488C178.732 226.281 178.459 225.076 177.861 224.024C177.262 222.972 176.365 222.122 175.283 221.581C174.2 221.04 172.982 220.832 171.781 220.984C170.581 221.137 169.453 221.642 168.54 222.436C168.079 221.551 167.412 220.791 166.594 220.219C165.777 219.647 164.834 219.28 163.845 219.15C162.856 219.021 161.85 219.131 160.913 219.473C159.976 219.815 159.135 220.377 158.461 221.113C157.742 220.603 156.888 220.315 156.006 220.286C155.124 220.257 154.253 220.488 153.502 220.95C152.75 221.413 152.151 222.086 151.78 222.887C151.408 223.687 151.28 224.579 151.412 225.451C150.693 225.528 150.006 225.785 149.414 226.199C148.822 226.613 148.344 227.17 148.026 227.819C147.892 228.146 147.831 228.499 147.847 228.852C147.863 229.205 147.955 229.551 148.117 229.865C148.279 230.18 148.508 230.455 148.786 230.673C149.065 230.89 149.388 231.045 149.732 231.125C149.248 231.552 148.949 232.15 148.898 232.793C148.846 233.436 149.047 234.074 149.457 234.572C149.868 235.07 150.456 235.389 151.097 235.462C151.738 235.534 152.382 235.355 152.893 234.961" fill="#263238"/>
<path d="M149.269 230.887C149.154 231.103 149.088 231.342 149.077 231.587C149.066 231.832 149.109 232.076 149.203 232.302C149.363 232.856 149.727 233.329 150.222 233.625C150.531 233.799 150.875 233.904 151.229 233.931C151.583 233.958 151.939 233.908 152.272 233.783L152.02 233.638C152.132 234.376 152.364 235.091 152.708 235.754C152.935 236.2 153.245 236.6 153.621 236.931C154.115 237.336 154.724 237.577 155.361 237.62C155.999 237.663 156.635 237.505 157.179 237.169C157.593 236.855 157.943 236.465 158.21 236.018C158.32 235.86 158.404 235.686 158.461 235.503C158.461 235.503 158.303 235.648 158.078 235.926C157.777 236.312 157.421 236.651 157.02 236.931C156.676 237.123 156.296 237.241 155.905 237.278C155.513 237.315 155.117 237.27 154.744 237.145C154.371 237.021 154.027 236.82 153.736 236.555C153.445 236.291 153.212 235.968 153.052 235.608C152.728 234.985 152.5 234.316 152.377 233.625V233.386L152.153 233.479C151.871 233.593 151.567 233.645 151.263 233.629C150.959 233.613 150.662 233.53 150.394 233.386C149.961 233.161 149.627 232.784 149.455 232.328C149.28 231.869 149.216 231.375 149.269 230.887Z" fill="#455A64"/>
<path d="M167.177 220.624C167.177 220.624 167.322 220.729 167.574 220.967C167.922 221.304 168.162 221.737 168.261 222.211V222.356L168.394 222.277C169.632 221.499 171.047 221.044 172.507 220.954C173.45 220.893 174.396 221.028 175.284 221.351C176.262 221.718 177.118 222.35 177.758 223.176C178.261 223.82 178.622 224.564 178.816 225.358C178.995 226.093 178.995 226.859 178.816 227.594V227.805H179.027C180.047 227.889 180.994 228.363 181.673 229.128C182.186 229.731 182.497 230.481 182.559 231.27C182.597 231.981 182.489 232.693 182.241 233.36C182.362 233.21 182.456 233.04 182.519 232.858C182.716 232.348 182.807 231.803 182.784 231.257C182.749 230.408 182.443 229.592 181.911 228.929C181.216 228.079 180.213 227.537 179.12 227.422L179.279 227.647C179.477 226.852 179.477 226.021 179.279 225.226C179.071 224.38 178.688 223.587 178.154 222.898C177.471 222.016 176.555 221.343 175.509 220.954C174.566 220.611 173.559 220.48 172.56 220.571C171.045 220.695 169.592 221.225 168.354 222.105H168.526C168.408 221.582 168.114 221.115 167.693 220.782C167.537 220.687 167.359 220.632 167.177 220.624Z" fill="#455A64"/>
<path d="M140.421 525.458L141.942 549.014C141.942 549.014 160.657 569.514 159.202 573.799L115.371 555.825L116.958 552.333L121.23 542.969L117.262 526.027L140.421 525.458Z" fill="#263238"/>
<path d="M125.898 545.443C125.426 545.398 124.953 545.53 124.572 545.813C124.19 546.097 123.928 546.512 123.835 546.977C123.779 547.298 123.813 547.629 123.934 547.931C124.056 548.234 124.259 548.496 124.522 548.689C124.785 548.882 125.097 548.997 125.422 549.022C125.747 549.046 126.072 548.98 126.361 548.829C126.628 548.687 126.856 548.483 127.027 548.234C127.198 547.984 127.306 547.698 127.342 547.398C127.378 547.098 127.342 546.794 127.236 546.511C127.129 546.228 126.957 545.976 126.732 545.774C126.593 545.652 126.432 545.559 126.257 545.5C126.082 545.441 125.897 545.417 125.713 545.43" fill="#E0E0E0"/>
<path d="M115.371 555.826L116.958 552.334L158.382 570.85C158.382 570.85 159.983 572.491 159.202 573.773L115.371 555.826Z" fill="#263238"/>
<path d="M143.939 551.646C143.833 551.858 142.722 551.527 141.399 551.778C140.077 552.03 139.124 552.704 138.966 552.532C138.807 552.36 139.627 551.21 141.254 550.985C142.881 550.76 144.058 551.474 143.939 551.646Z" fill="#455A64"/>
<path d="M147.232 555.283C147.232 555.508 146.121 555.495 145.024 556.103C143.926 556.712 143.318 557.584 143.119 557.426C142.921 557.267 143.265 556.103 144.64 555.336C146.016 554.569 147.312 555.151 147.232 555.283Z" fill="#455A64"/>
<path d="M147.06 561.856C146.849 561.856 146.981 560.626 148.012 559.674C149.044 558.722 150.234 558.682 150.261 558.894C150.287 559.105 149.401 559.476 148.568 560.216C147.735 560.957 147.285 561.923 147.06 561.856Z" fill="#455A64"/>
<path d="M141.743 545.602C141.65 545.813 140.579 545.522 139.27 545.602C137.96 545.681 136.955 546.157 136.836 545.972C136.717 545.787 137.669 544.927 139.204 544.795C140.738 544.663 141.849 545.416 141.743 545.602Z" fill="#455A64"/>
<path d="M85.5856 358.717C82.8797 363.159 80.9812 368.044 79.9777 373.147C78.6893 379.959 79.1073 386.984 81.1945 393.595C82.9271 398.7 107.118 464.314 107.118 464.314L109.882 498.768L118.241 542.004L144.428 540.682C144.428 540.682 142.008 472.594 140.963 462.648C139.826 451.855 125.171 385.54 125.171 385.54L134.734 361.667L90.2544 346.827L85.5856 358.717Z" fill="#263238"/>
<path d="M158.872 571.512C158.792 571.683 149.349 567.544 137.71 562.253C126.071 556.963 116.813 552.519 116.892 552.347C116.971 552.175 126.415 556.315 138.054 561.605C149.693 566.896 158.951 571.34 158.872 571.512Z" fill="#455A64"/>
<path d="M144.428 540.774C140.088 541.33 135.722 541.652 131.347 541.74C126.986 542.059 122.611 542.147 118.24 542.004C122.581 541.458 126.947 541.14 131.321 541.052C135.682 540.733 140.057 540.64 144.428 540.774Z" fill="#455A64"/>
<path d="M164.175 280.049L162.694 276.703C152.88 272.616 145.711 268.529 139.733 268.635L135.117 273.145C129.827 276.504 119.246 281.663 116.442 285.617L103.48 310.667L85.5723 352.647C83.919 355.213 80.3877 359.009 84.3158 362.791L120.026 366.759L132.723 366.984C135.368 366.64 142.127 368.558 142.934 364.339C144.375 356.906 167.905 306.951 169.598 300.417L168.857 289.664L164.175 280.049Z" fill="#E0E0E0"/>
<path d="M168.579 300.298C165.934 307.347 164.043 318.245 154.123 324.792C148.634 328.403 140.567 330.585 134.284 332.569C126.864 334.923 116.998 337.926 116.998 337.926L110.729 349.406L121.878 350.861C121.878 350.861 134.998 346.681 140.17 344.526C151.306 339.896 147.484 341.404 151.333 338.812C156.848 335.373 164.374 325.242 169.849 299.623" fill="#FF6420"/>
<path d="M142.272 281.477C141.113 281.555 139.949 281.533 138.794 281.411C136.665 281.318 133.715 281.212 130.475 281.411C127.705 281.536 124.95 281.881 122.235 282.442C121.127 282.762 120.001 283.014 118.862 283.196C118.862 283.196 119.14 283.011 119.696 282.773C120.488 282.462 121.296 282.192 122.116 281.966C124.838 281.262 127.626 280.845 130.435 280.723C133.236 280.588 136.044 280.664 138.834 280.948C139.996 281 141.149 281.177 142.272 281.477Z" fill="#263238"/>
<path d="M160.789 276.08C159.496 275.986 158.213 275.787 156.953 275.485C154.599 275.049 151.345 274.467 147.695 274.017C144.624 273.635 141.531 273.454 138.437 273.475C136.056 273.475 134.588 273.686 134.575 273.581C134.561 273.475 134.918 273.448 135.593 273.316C136.53 273.16 137.475 273.054 138.423 272.999C141.557 272.817 144.701 272.928 147.814 273.329C150.929 273.718 154.019 274.279 157.072 275.009C158.343 275.243 159.588 275.602 160.789 276.08Z" fill="#263238"/>
<path d="M116.442 285.604C116.356 285.884 116.241 286.154 116.099 286.41L114.974 288.672C113.969 290.709 112.594 293.539 110.901 296.991C107.488 304.041 102.965 313.854 97.873 324.66C95.3204 330.07 92.8471 335.241 90.5193 339.817C89.3422 342.132 88.2312 344.327 87.1334 346.351C86.0357 348.374 84.9776 350.239 84.184 352.012C83.4576 353.587 82.9759 355.264 82.7556 356.985C82.5963 358.29 82.6815 359.613 83.0069 360.886C83.3048 361.969 83.793 362.99 84.4485 363.902C84.2272 363.707 84.0316 363.485 83.8666 363.241C83.3603 362.552 82.9838 361.776 82.7556 360.953C82.3775 359.666 82.2473 358.32 82.372 356.985C82.5681 355.208 83.0505 353.475 83.8005 351.853C84.5808 350.041 85.6389 348.163 86.6837 346.126C87.7286 344.089 88.8528 341.894 90.0035 339.579C92.3048 334.937 94.7516 329.805 97.3043 324.409C102.383 313.603 106.986 303.816 110.53 296.819C112.276 293.314 113.758 290.51 114.802 288.593L116.032 286.384C116.14 286.11 116.278 285.848 116.442 285.604Z" fill="#455A64"/>
<path d="M106.403 408.262C108.255 408.844 170.418 384.72 170.418 384.72L223.123 424.795L226.972 426.342L235.556 402.535C235.556 402.535 198.668 366.018 186.157 354.115C182.85 350.98 176.462 347.779 170.814 348.586C157.707 350.478 107.924 367.103 107.924 367.103L106.403 408.262Z" fill="#263238"/>
<path opacity="0.3" d="M109.459 402.747C113.612 405.464 118.476 406.89 123.439 406.847L129.682 406.212L128.465 400.591C128.465 400.591 113.612 403.421 109.459 402.747Z" fill="black"/>
<path d="M138.503 397.257C138.128 397.512 137.718 397.713 137.286 397.853C136.506 398.197 135.342 398.646 133.887 399.175C130.105 400.558 126.217 401.633 122.262 402.389C118.296 403.175 114.241 403.402 110.213 403.064C109.446 402.998 108.745 402.892 108.136 402.786C107.528 402.68 107.012 402.588 106.602 402.482C106.145 402.412 105.7 402.278 105.279 402.085C105.279 401.966 107.171 402.389 110.226 402.574C114.214 402.765 118.21 402.477 122.129 401.715C126.047 400.948 129.916 399.95 133.715 398.726C136.665 397.76 138.464 397.165 138.503 397.257Z" fill="#455A64"/>
<path d="M171.37 375.687C171.335 377.186 171.22 378.683 171.026 380.17C170.893 382.63 171.118 384.641 170.92 384.667C169.99 381.716 170.149 378.53 171.37 375.687Z" fill="#455A64"/>
<path d="M207.344 227.924L199.078 240.727L215.346 247.353L222.237 229.088L212.04 225.332L207.344 227.924Z" fill="#AE7461"/>
<path d="M200.388 217.039C199.983 216.31 199.879 215.451 200.097 214.645C200.577 213.597 201.314 212.687 202.24 212C202.24 212 202.901 215.968 202.795 216.087L200.388 217.039Z" fill="#AE7461"/>
<path d="M207.834 230.557L201.896 220.862L202.253 212.926C202.253 212.926 201.935 206.975 204.792 205.996C204.792 205.996 206.511 205.083 207.596 206.26C207.596 206.26 207.913 204.766 210.162 204.858L211.736 205.718C211.736 205.718 212.781 204.396 213.878 204.396C214.774 204.556 215.6 204.985 216.246 205.626C216.246 205.626 216.815 204.462 218.534 204.964C220.253 205.467 222.079 208.654 222.502 209.752C223.578 213.779 224.242 217.905 224.486 222.066C224.314 224.354 221.84 230.001 221.84 230.001L207.834 230.557Z" fill="#AE7461"/>
<path d="M202.755 213.534C202.755 213.534 199.925 216.179 199.316 216.96C198.768 218.158 198.3 219.39 197.914 220.65C197.478 221.536 196.195 222.607 197.266 223.295C197.8 223.586 198.417 223.684 199.014 223.573C199.611 223.462 200.152 223.149 200.546 222.687C201.784 220.69 202.898 218.618 203.879 216.484L202.755 213.534Z" fill="#FFBF9D"/>
<path d="M199.144 222.674C198.446 223.764 198.204 225.084 198.47 226.351C198.622 226.923 198.97 227.425 199.453 227.768C199.936 228.111 200.524 228.274 201.115 228.229C201.095 228.594 201.159 228.959 201.303 229.295C201.446 229.631 201.665 229.93 201.943 230.168C202.22 230.406 202.549 230.576 202.903 230.667C203.257 230.757 203.627 230.765 203.985 230.689C203.985 230.689 203.191 231.562 204.66 232.144L208.839 226.774C208.839 226.774 209.421 226.298 209.394 224.566C209.394 223.415 208.839 221.537 207.278 222.013C207.278 222.013 207.067 219.989 205.638 219.513C204.21 219.037 203.787 220.042 203.787 220.042C203.647 219.788 203.427 219.587 203.162 219.47C202.897 219.353 202.6 219.326 202.319 219.394C201.128 219.513 199.144 222.674 199.144 222.674Z" fill="#FFBF9D"/>
<path d="M142.167 301.461C139.946 299.028 138.705 295.858 138.683 292.563C138.661 289.269 139.86 286.082 142.048 283.619C142.842 282.733 143.776 281.983 144.812 281.397C151.743 277.549 185.522 265.288 185.522 265.288L202.809 232.144L221.074 236.402C221.074 236.402 207.477 278.25 197.36 284.439C185.747 291.555 165.617 302.533 158.263 304.847" fill="#E0E0E0"/>
<path d="M158.263 304.794C158.404 304.709 158.555 304.642 158.713 304.596C159.017 304.477 159.48 304.318 160.036 304.067C161.213 303.577 162.959 302.837 165.154 301.779C169.558 299.689 175.867 296.422 183.552 292.11C187.4 289.954 191.606 287.547 196.063 284.836C197.21 284.209 198.262 283.421 199.185 282.495C200.121 281.515 200.983 280.468 201.764 279.36C203.389 277.011 204.86 274.559 206.168 272.02C209.001 266.514 211.553 260.868 213.813 255.104C216.207 249.112 218.535 242.79 220.717 236.243L220.955 236.68L208.893 233.916L202.729 232.434L203.113 232.262C196.976 243.981 191.143 255.143 185.8 265.328V265.447H185.694C176.436 268.806 167.918 272.06 160.353 274.93C156.57 276.398 153.026 277.813 149.772 279.202C148.145 279.903 146.598 280.59 145.169 281.344C143.813 282.051 142.627 283.044 141.691 284.254C140.041 286.287 139.065 288.783 138.9 291.396C138.8 293.337 139.102 295.278 139.786 297.097C140.393 298.611 141.213 300.032 142.22 301.316C142.22 301.316 142.141 301.25 142.008 301.091C141.876 300.932 141.651 300.694 141.4 300.363C140.025 298.594 139.115 296.51 138.752 294.299C138.39 292.088 138.586 289.822 139.324 287.706C139.813 286.372 140.514 285.127 141.4 284.016C142.352 282.751 143.571 281.712 144.971 280.974C146.413 280.194 147.96 279.493 149.587 278.778C152.827 277.363 156.372 275.922 160.168 274.44C167.72 271.451 176.237 268.237 185.483 264.851L185.311 264.997C190.601 254.76 196.473 243.584 202.584 231.839L202.703 231.614H202.954L209.17 233.043L221.233 235.807L221.603 235.899L221.484 236.257C219.288 242.834 216.974 249.134 214.54 255.157C212.267 260.935 209.693 266.59 206.829 272.099C205.505 274.663 204.007 277.133 202.346 279.493C201.551 280.628 200.666 281.699 199.701 282.693C198.74 283.645 197.649 284.455 196.46 285.101C191.99 287.746 187.771 290.179 183.895 292.322C176.171 296.581 169.823 299.781 165.379 301.818C163.157 302.837 161.411 303.538 160.194 303.987C159.599 304.225 159.123 304.358 158.872 304.464L158.263 304.794Z" fill="#263238"/>
<path d="M296.41 175.245C293.473 176.977 254.43 205.149 251.084 214.724C247.738 224.3 260.236 293.671 260.236 293.671L288.011 292.348L280.618 226.43L336.167 193.536L339.91 159.148L296.41 175.245Z" fill="#263238"/>
<path d="M329.276 189.582L360.503 223.176C360.503 223.176 364.788 238.439 368.439 248.425C372.089 258.41 378.253 275.049 378.253 275.049L384.985 297.163L406.702 292.362C406.702 292.362 398.594 256.982 396.505 243.346C394.833 233.659 392.472 224.103 389.442 214.751L372.169 171.105L353.374 146.465L329.276 189.582Z" fill="#263238"/>
<path opacity="0.3" d="M279.824 187.466C279.824 187.466 304.2 196.817 312.281 195.137C320.362 193.457 333.84 173.565 333.84 173.565L353.679 193.656L377.697 184.979L375.753 177.229C375.753 177.229 341.286 168.328 341.22 168.222C341.154 168.116 328.734 168.222 328.734 168.222L307.864 182.625L285.273 182.916L279.824 187.466Z" fill="black"/>
<path d="M398.065 275.287L405.26 298.01L416.119 314.344C416.305 314.623 416.431 314.937 416.49 315.267C416.55 315.596 416.54 315.935 416.464 316.261C416.387 316.587 416.244 316.894 416.043 317.162C415.843 317.431 415.59 317.656 415.299 317.822C414.961 318.015 414.582 318.124 414.193 318.141C413.804 318.157 413.417 318.079 413.064 317.915C408.501 315.785 392.087 307.956 391.294 306.196C390.5 304.437 382.128 282.694 382.128 282.694L398.065 275.287Z" fill="#263238"/>
<path d="M415.298 317.823L390.777 304.676L391.095 305.628C391.378 306.457 391.944 307.16 392.695 307.612C394.705 308.802 400.313 311.977 412.997 317.942C413.361 318.112 413.761 318.191 414.163 318.17C414.564 318.149 414.954 318.03 415.298 317.823Z" fill="#E0E0E0"/>
<path d="M406.794 309.728C407.028 308.812 407.504 307.975 408.172 307.305C408.839 306.635 409.674 306.157 410.59 305.919C410.59 305.853 410.246 305.773 409.703 305.919C408.981 306.076 408.32 306.439 407.799 306.964C407.28 307.489 406.918 308.149 406.754 308.868C406.635 309.384 406.714 309.728 406.794 309.728Z" fill="white"/>
<path d="M409.439 312.201C409.585 312.201 410.061 311.275 411.106 310.547C411.784 310.159 412.486 309.814 413.209 309.516C412.788 309.413 412.349 309.414 411.929 309.52C411.51 309.626 411.122 309.834 410.801 310.124C409.585 310.958 409.28 312.174 409.439 312.201Z" fill="white"/>
<path d="M402.469 306.871C403.199 305.909 403.999 305.003 404.863 304.16C405.842 303.443 406.872 302.798 407.944 302.229C406.682 302.393 405.493 302.919 404.522 303.742C403.55 304.566 402.838 305.652 402.469 306.871Z" fill="white"/>
<path d="M399.705 300.152C399.811 300.271 400.882 299.319 402.483 298.71C404.083 298.102 405.498 298.049 405.498 297.89C404.421 297.622 403.284 297.739 402.284 298.221C401.224 298.54 400.31 299.224 399.705 300.152Z" fill="white"/>
<path d="M273.555 221.854C275.075 221.847 276.555 222.334 277.774 223.242C279.118 223.947 280.206 225.058 280.882 226.417C280.723 226.549 279.427 225.094 277.404 223.771C275.38 222.449 273.502 222.026 273.555 221.854Z" fill="#455A64"/>
<path d="M384.31 226.734C384.31 226.801 383.874 227.356 382.868 228.057C381.555 228.902 380.084 229.473 378.544 229.737C377.008 230 375.435 229.96 373.914 229.618C373.269 229.526 372.655 229.276 372.129 228.89C374.208 229.254 376.33 229.308 378.424 229.049C380.486 228.559 382.467 227.779 384.31 226.734Z" fill="#455A64"/>
<path d="M265.619 275.393L266.545 296.448C266.545 296.448 245.383 304.384 245.237 308.352L286.132 308.021L284.558 277.985L265.619 275.393Z" fill="#263238"/>
<path d="M286.133 308.035L285.987 304.729L246.838 306.276C246.838 306.276 245.026 307.083 245.238 308.366L286.133 308.035Z" fill="#E0E0E0"/>
<path d="M265.884 296.237C265.884 296.436 266.889 296.528 267.867 297.163C268.846 297.798 269.388 298.631 269.574 298.552C269.759 298.473 269.455 297.309 268.251 296.568C267.047 295.827 265.831 296.065 265.884 296.237Z" fill="white"/>
<path d="M261.599 298.049C261.599 298.248 262.432 298.578 263.106 299.372C263.781 300.165 263.993 301.105 264.204 301.091C264.416 301.078 264.508 299.954 263.649 298.922C262.789 297.891 261.612 297.864 261.599 298.049Z" fill="white"/>
<path d="M259.205 303.207C259.39 303.207 259.654 302.242 259.205 301.157C258.755 300.073 257.75 299.636 257.657 299.835C257.565 300.033 258.16 300.575 258.583 301.475C259.006 302.374 259.006 303.181 259.205 303.207Z" fill="white"/>
<path d="M263.648 119.828L289.849 156.292L300.43 164.003L297.296 172.19L282.496 185.337C282.496 185.337 307.017 195.508 316.037 189.635C325.057 183.763 333.654 169.532 333.654 169.532L355.768 190.601L383.543 179.544C383.543 179.544 371.388 155.3 354.591 141.479L344.632 110.821L326.115 82.4775L303.631 89.8048L271.65 112.078L263.648 119.828Z" fill="#FF6420"/>
<path d="M284.519 106.139C286.026 106.139 302.876 116.005 302.876 116.005L306.553 94.8437L303.815 89.8574L309.278 91.8413L318.073 100.332L339.962 134.853C338.402 143.635 333.019 156.676 332.86 161.305C332.86 161.305 309.595 159.321 304.252 148.079C298.909 136.836 287.547 116.336 287.547 116.336L284.519 106.139Z" fill="white"/>
<path d="M307.704 128.967C307.704 130.859 313.868 157.218 318.999 158.647C324.131 160.075 332.133 161.424 332.133 161.424V148.767L311.474 124.576L310.865 118.096L303.287 117.223L301.422 126.626L307.704 128.967Z" fill="#FF6420"/>
<path d="M270.169 114.934C270.169 114.934 265.077 119.404 263.648 119.827C262.22 120.25 256.81 134.905 256.81 134.905L242.936 169.359L218.534 201.922L232.276 214.724C232.276 214.724 263.053 183.67 265.222 175.324L280.379 143.965L270.169 114.934Z" fill="#FF6420"/>
<path d="M333.799 168.222C333.72 168.142 335.003 166.899 336.881 164.558C338.759 162.217 341.259 159.056 343.891 155.392L350.623 145.975C351.496 144.772 352.223 143.82 352.739 143.172C352.98 142.811 353.269 142.486 353.599 142.206C352.83 143.611 351.968 144.963 351.02 146.253C349.38 148.713 347.052 152.112 344.407 155.789C342.173 158.949 339.767 161.982 337.198 164.876C336.207 165.987 335.36 166.833 334.738 167.402C334.117 167.97 333.826 168.261 333.799 168.222Z" fill="#263238"/>
<path d="M317.769 163.355C316.459 163.309 315.157 163.137 313.88 162.839C311.5 162.416 308.233 161.715 304.622 160.763C301.011 159.811 297.877 158.779 295.589 157.972C294.337 157.588 293.124 157.088 291.965 156.478C293.252 156.719 294.517 157.064 295.748 157.509C298.049 158.197 301.25 159.149 304.807 160.154C308.365 161.16 311.592 161.874 313.947 162.429C315.245 162.629 316.524 162.938 317.769 163.355Z" fill="#263238"/>
<path d="M269.389 130.145C269.734 130.415 270.041 130.731 270.301 131.084C270.857 131.732 271.624 132.657 272.576 133.821C274.481 136.149 277.073 139.403 279.89 143.08C282.707 146.756 285.181 149.984 287.045 152.338C287.945 153.541 288.672 154.52 289.148 155.208C289.433 155.544 289.669 155.918 289.849 156.319C289.507 156.041 289.2 155.721 288.937 155.367C288.381 154.732 287.614 153.793 286.662 152.629C284.757 150.301 282.165 147.061 279.348 143.45C276.531 139.839 274.057 136.559 272.193 134.192C271.293 132.988 270.579 132.009 270.09 131.322C269.8 130.966 269.564 130.569 269.389 130.145Z" fill="#263238"/>
<path d="M315.534 98.3086C315.661 99.8535 315.661 101.406 315.534 102.951C315.534 105.821 315.376 109.776 315.204 114.153C315.204 115.674 315.085 117.129 315.019 118.505V118.862H314.714C311.395 118.478 308.538 118.108 306.501 117.83C305.414 117.742 304.338 117.551 303.287 117.262C304.374 117.217 305.463 117.27 306.541 117.42C308.564 117.579 311.408 117.857 314.701 118.201L314.371 118.518C314.371 117.195 314.476 115.688 314.529 114.167C314.701 109.789 314.886 105.834 315.072 102.977C315.113 101.412 315.268 99.8517 315.534 98.3086Z" fill="#263238"/>
<path d="M289.426 120.265C290.541 120.76 291.608 121.357 292.613 122.05C294.531 123.227 297.163 124.894 300.046 126.772L301.369 127.618L300.853 127.804C301.647 124.894 302.176 122.182 302.546 120.278C302.703 119.239 302.956 118.216 303.3 117.223C303.315 118.276 303.213 119.327 302.996 120.357C302.633 122.935 302.134 125.491 301.501 128.015L301.382 128.452L300.985 128.2L299.663 127.341C296.793 125.463 294.2 123.743 292.349 122.46C291.304 121.827 290.325 121.091 289.426 120.265Z" fill="#263238"/>
<path d="M326.035 82.4772C326.035 82.4772 332.133 80.4271 335.36 81.882C341.589 84.7256 381.942 106.443 383.622 107.607C385.302 108.771 407.191 144.084 407.191 144.084L392.179 153.343L370.779 123.981L331.762 109.313C331.762 109.313 325.85 101.695 324.898 95.28C324.404 90.9795 324.791 86.6232 326.035 82.4772Z" fill="#FF6420"/>
<path d="M344.632 110.82C345.231 112.207 345.756 113.624 346.206 115.066L349.909 125.329C352.845 133.344 355.054 139.878 354.737 140.01C354.546 139.652 354.391 139.275 354.274 138.886C353.93 138.013 353.546 136.981 353.083 135.804C352.091 133.159 350.716 129.588 349.261 125.567C347.806 121.547 346.616 117.896 345.743 115.225C345.333 113.902 345.029 112.791 344.843 112.024C344.722 111.633 344.651 111.229 344.632 110.82Z" fill="#263238"/>
<path d="M336.828 102.171C336.085 101.652 335.428 101.018 334.884 100.293C333.456 98.6399 332.214 96.8347 331.181 94.9098C330.163 92.9815 329.351 90.9511 328.76 88.8522C328.454 88.0035 328.293 87.1093 328.284 86.207C329.308 89.0644 330.486 91.8637 331.816 94.5924C333.355 97.2031 335.028 99.7326 336.828 102.171Z" fill="#263238"/>
<path d="M330.586 166.49C329.426 166.819 328.232 167.018 327.028 167.085C324.137 167.379 321.23 167.485 318.325 167.402C315.419 167.313 312.521 167.039 309.649 166.582C308.449 166.449 307.269 166.178 306.131 165.775C307.332 165.787 308.531 165.893 309.715 166.093C311.911 166.344 315.006 166.609 318.339 166.714C321.671 166.82 324.78 166.714 326.988 166.595C328.183 166.467 329.386 166.432 330.586 166.49Z" fill="#263238"/>
<path d="M307.863 91.3789H308.432C308.987 91.4107 309.54 91.4814 310.085 91.5905C312.119 92.0954 314.069 92.8881 315.878 93.9448C322.073 97.8199 327.64 102.619 332.384 108.176L332.583 108.401L332.371 108.612C331.472 109.525 330.493 110.517 329.514 111.535L329.276 110.967H333.033L333.112 111.178C334.289 114.247 335.532 117.461 336.802 120.754C338.23 124.471 339.619 128.081 340.915 131.48V131.56C340.397 136.439 339.181 141.218 337.305 145.751C335.867 149.33 334.674 153.002 333.734 156.742C333.143 159.215 332.867 161.752 332.914 164.294C332.914 166.067 333.165 167.032 333.112 167.032C333.03 166.81 332.972 166.579 332.94 166.344C332.816 165.667 332.732 164.982 332.689 164.294C332.544 161.73 332.754 159.157 333.31 156.65C334.198 152.876 335.348 149.168 336.749 145.553C338.574 141.065 339.749 136.34 340.241 131.52V131.652C338.918 128.253 337.595 124.642 336.101 120.939C334.84 117.633 333.614 114.436 332.424 111.35L332.742 111.562H328.43L328.985 111.006L331.855 108.097V108.533C327.174 102.997 321.712 98.172 315.64 94.2093C313.879 93.1375 311.985 92.3015 310.006 91.7228C308.644 91.5112 307.863 91.445 307.863 91.3789Z" fill="#263238"/>
<path d="M282.033 144.798C279.099 145.295 276.133 145.569 273.158 145.618C270.19 145.889 267.205 145.934 264.23 145.75C267.167 145.245 270.139 144.971 273.118 144.93C276.082 144.651 279.062 144.607 282.033 144.798Z" fill="#263238"/>
<path d="M312.81 158.369C312.617 158.36 312.426 158.329 312.241 158.276C311.691 158.177 311.148 158.044 310.614 157.879C308.631 157.276 306.737 156.413 304.98 155.314C302.336 153.65 299.876 151.713 297.639 149.534C295.073 147.087 292.415 144.243 289.598 141.095L289.386 140.857L289.598 140.633C290.709 139.495 291.648 138.053 292.878 136.757L293.288 137.3L292.217 137.882L288.156 140.077L287.786 140.275L287.654 139.879C285.442 132.836 283.823 125.62 282.813 118.307C282.429 115.543 282.218 113.307 282.099 111.773C282.032 111.006 282.019 110.451 281.993 110.014C281.961 109.808 281.961 109.599 281.993 109.393C282.064 109.588 282.104 109.793 282.112 110.001L282.337 111.747C282.522 113.281 282.813 115.49 283.249 118.241C284.398 125.503 286.087 132.669 288.302 139.68L287.799 139.482L291.873 137.273L292.944 136.691L294.875 135.646L293.367 137.233C292.19 138.463 291.238 139.879 290.074 141.109V140.646C292.878 143.741 295.497 146.65 298.01 149.097C300.199 151.275 302.6 153.229 305.178 154.93C307.556 156.414 310.123 157.57 312.81 158.369Z" fill="#263238"/>
<path d="M332.331 161.424C331.067 161.455 329.803 161.349 328.562 161.107C325.535 160.694 322.546 160.044 319.621 159.162C316.684 158.279 313.864 157.045 311.222 155.486C310.1 154.892 309.064 154.149 308.141 153.277C308.207 153.184 309.463 153.978 311.46 155.062C314.131 156.472 316.93 157.623 319.819 158.501C326.604 160.525 332.371 161.173 332.331 161.424Z" fill="#263238"/>
<g opacity="0.3">
<path d="M335.492 166.727C339.994 165.424 343.949 162.69 346.758 158.939C349.567 155.187 351.077 150.622 351.059 145.936" fill="black"/>
</g>
<g opacity="0.3">
<path d="M319.502 96.3516C325.298 99.3448 330.344 103.608 334.262 108.824C333.792 109.045 333.423 109.438 333.231 109.922L335.148 110.464C336.542 116.151 337.926 121.838 339.301 127.525L332.728 110.755L329.554 111.085L332.53 108.44C328.912 105.323 325.631 101.834 322.742 98.0313" fill="black"/>
</g>
<path opacity="0.3" d="M292.971 122.566L303.287 132.062L304.887 119.087L317.267 119.841L315.495 103.917L314.754 117.368L303.287 116.746L301.171 127.909" fill="black"/>
<path opacity="0.3" d="M345.716 114.577L342.198 103.917L349.618 116.045L345.716 114.577Z" fill="black"/>
<path d="M377.446 112.99C376.416 113.733 375.502 114.624 374.734 115.635C374.135 116.737 373.69 117.917 373.412 119.14C373.332 119.14 373.187 118.704 373.226 117.963C373.299 116.997 373.617 116.065 374.149 115.255C374.681 114.445 375.41 113.784 376.268 113.334C376.956 112.95 377.419 112.911 377.446 112.99Z" fill="#263238"/>
<path d="M267.325 52.1629C266.509 51.7164 265.573 51.5351 264.649 51.6442C263.725 51.7532 262.857 52.1471 262.167 52.7713C260.798 52.6745 259.436 53.0385 258.297 53.8055C257.159 54.5725 256.309 55.6983 255.885 57.0037C254.943 57.0441 254.027 57.3271 253.226 57.8254C252.425 58.3237 251.767 59.0204 251.315 59.8479C250.862 60.6754 250.631 61.6057 250.644 62.5487C250.657 63.4917 250.913 64.4154 251.388 65.2303C250.512 65.6213 249.782 66.2774 249.299 67.106C248.817 67.9346 248.607 68.8938 248.699 69.8482C248.791 70.8026 249.181 71.704 249.813 72.4251C250.445 73.1462 251.287 73.6505 252.221 73.8669C251.539 74.7116 251.193 75.7792 251.252 76.8635C251.31 77.9479 251.769 78.9721 252.538 79.7384C253.308 80.5046 254.334 80.9585 255.419 81.0124C256.503 81.0663 257.569 80.7164 258.411 80.0303L269.428 56.9111C269.612 55.9993 269.508 55.0531 269.131 54.2028C268.755 53.3524 268.124 52.6397 267.325 52.1629Z" fill="#263238"/>
<path d="M258.212 80.8897C255.995 76.7676 255.411 71.9621 256.575 67.4287C257.739 62.8952 260.566 58.9658 264.495 56.4215L265.301 55.9057C274.361 50.7607 283.818 55.5883 288.685 64.7936L303.816 89.9232L306.567 94.7771L303.485 115.542L287.191 109.339L284.757 105.808C284.757 105.808 275.499 109.934 269.983 101.602C267.312 97.5282 262.484 88.8386 258.212 80.8897Z" fill="#FFBF9D"/>
<path d="M284.783 105.809C288.647 103.28 291.707 99.7012 293.605 95.4922C293.605 95.4922 294.928 103.216 286.172 107.845L284.783 105.809Z" fill="#FF9A6C"/>
<path d="M265.672 87.0929C265.869 87.4081 266.182 87.6333 266.543 87.7199C266.904 87.8065 267.285 87.7475 267.603 87.5558C267.768 87.4744 267.914 87.3595 268.032 87.2185C268.151 87.0774 268.238 86.9132 268.289 86.7365C268.34 86.5597 268.354 86.3743 268.329 86.1919C268.304 86.0096 268.242 85.8345 268.145 85.6777C267.946 85.3616 267.631 85.1361 267.268 85.0496C266.904 84.9631 266.521 85.0224 266.201 85.2148C266.037 85.2974 265.892 85.4131 265.776 85.5547C265.659 85.6964 265.573 85.8607 265.523 86.0374C265.473 86.214 265.461 86.3991 265.487 86.5808C265.512 86.7625 265.575 86.9369 265.672 87.0929Z" fill="#263238"/>
<path d="M262.855 84.3023C263.106 84.3023 263.569 83.1119 264.865 82.2787C266.161 81.4454 267.511 81.4851 267.511 81.2338C267.511 80.9825 267.193 80.9296 266.585 80.9032C265.78 80.879 264.986 81.1004 264.31 81.538C263.637 81.9702 263.118 82.6046 262.828 83.35C262.63 83.9319 262.736 84.3023 262.855 84.3023Z" fill="#263238"/>
<path d="M277.086 80.4933C277.283 80.8085 277.596 81.0336 277.957 81.1203C278.318 81.2069 278.699 81.1479 279.017 80.9562C279.182 80.8748 279.328 80.7599 279.447 80.6188C279.565 80.4778 279.652 80.3136 279.703 80.1369C279.754 79.9601 279.768 79.7746 279.743 79.5923C279.718 79.41 279.656 79.2349 279.559 79.0781C279.36 78.762 279.045 78.5365 278.682 78.45C278.318 78.3634 277.935 78.4227 277.615 78.6152C277.451 78.6977 277.306 78.8135 277.19 78.9551C277.073 79.0967 276.987 79.2611 276.937 79.4378C276.887 79.6144 276.875 79.7995 276.901 79.9812C276.926 80.1629 276.989 80.3373 277.086 80.4933Z" fill="#263238"/>
<path d="M275.076 76.1552C275.327 76.1552 275.803 74.9649 277.086 74.1316C278.369 73.2984 279.731 73.3248 279.731 73.0867C279.731 72.8487 279.427 72.7826 278.819 72.7561C278.009 72.7292 277.21 72.9507 276.53 73.391C275.861 73.8272 275.344 74.4603 275.049 75.2029C274.904 75.7717 274.957 76.142 275.076 76.1552Z" fill="#263238"/>
<path d="M277.006 88.4688C276.189 88.6972 275.402 89.0259 274.665 89.4475C274.321 89.6194 273.964 89.7649 273.766 89.5665C273.514 89.2496 273.37 88.8602 273.356 88.4555C273.144 87.4503 272.933 86.4055 272.708 85.3077C272.234 82.6115 271.544 79.9578 270.645 77.3721C270.9 80.1167 271.373 82.8366 272.06 85.5061C272.298 86.5906 272.536 87.6355 272.761 88.6275C272.81 89.1578 273.044 89.6539 273.422 90.0294C273.544 90.1133 273.684 90.1688 273.83 90.1917C273.977 90.2145 274.126 90.2043 274.268 90.1617C274.49 90.0996 274.7 90.0013 274.89 89.8707C275.654 89.4986 276.366 89.0272 277.006 88.4688Z" fill="#263238"/>
<path d="M272.669 72.478C273.039 72.716 273.991 71.6976 275.314 70.8512C276.637 70.0047 277.959 69.5285 277.959 69.1318C277.959 68.9334 277.496 68.7747 276.835 68.7879C276.002 68.8404 275.196 69.1044 274.494 69.555C273.791 69.9952 273.22 70.6166 272.841 71.3537C272.523 71.9225 272.51 72.3986 272.669 72.478Z" fill="#263238"/>
<path d="M260.857 80.5989C261.254 80.7709 262.021 79.9509 263.132 79.2763C264.243 78.6018 265.314 78.3637 265.367 77.9537C265.367 77.7421 265.063 77.5173 264.481 77.4511C263.738 77.3913 262.994 77.5622 262.352 77.9405C261.705 78.3131 261.185 78.8704 260.857 79.5409C260.632 80.1096 260.672 80.5064 260.857 80.5989Z" fill="#263238"/>
<path d="M256.519 76.5257C256.519 76.5257 255.342 69.8333 257.075 66.9632C259.191 63.498 262.683 66.0109 265.01 63.2996C267.338 60.5882 269.415 57.2685 273.872 57.5991C278.739 57.9562 278.329 60.6808 280.948 64.2122C291.529 78.7609 297.044 81.2738 293.235 73.6556C292.812 72.8091 294.557 70.7988 292.772 67.2938C290.418 62.7573 287.23 57.4669 284.32 55.0597C281.789 53.0376 278.646 51.9368 275.406 51.9384C269.296 51.5416 263.595 55.1391 259.998 58.0091C256.4 60.8792 251.917 70.1639 256.519 76.5257Z" fill="#263238"/>
<path d="M292.614 73.8274C292.425 73.5126 292.303 73.1629 292.253 72.7994C292.204 72.4358 292.229 72.066 292.326 71.7124C292.424 71.3587 292.593 71.0286 292.822 70.7419C293.051 70.4553 293.335 70.2181 293.659 70.0447C295.325 69.185 297.626 68.947 299.624 72.2403C303.155 78.0994 296.542 80.4404 296.436 80.2817C296.33 80.123 294.069 76.3668 292.614 73.8274Z" fill="#FFBF9D"/>
<path d="M296.383 77.306C296.383 77.306 296.528 77.306 296.753 77.306C297.058 77.2608 297.332 77.0996 297.52 76.8563C297.752 76.389 297.856 75.8686 297.821 75.3482C297.786 74.8277 297.614 74.3258 297.322 73.8936C297.038 73.3711 296.64 72.9191 296.158 72.571C295.992 72.422 295.792 72.3154 295.575 72.2601C295.359 72.2049 295.132 72.2026 294.915 72.2536C294.778 72.2932 294.659 72.3798 294.579 72.4983C294.499 72.6168 294.464 72.7596 294.478 72.9017C294.478 73.1133 294.611 73.2059 294.584 73.2323C294.558 73.2588 294.399 73.2323 294.307 72.9414C294.247 72.7791 294.247 72.601 294.307 72.4388C294.395 72.2194 294.566 72.0436 294.783 71.9494C295.051 71.8471 295.342 71.8177 295.625 71.8642C295.909 71.9107 296.175 72.0313 296.396 72.2139C296.947 72.5691 297.402 73.0554 297.719 73.6291C298.058 74.136 298.239 74.7321 298.239 75.3419C298.239 75.9517 298.058 76.5477 297.719 77.0547C297.587 77.1937 297.426 77.3023 297.248 77.3731C297.07 77.4439 296.879 77.4752 296.687 77.4647C296.476 77.4382 296.37 77.3324 296.383 77.306Z" fill="#FF9A6C"/>
<path d="M285.313 62.7836C284.972 63.7934 284.386 64.7025 283.606 65.4289C283.203 65.785 282.683 65.9815 282.145 65.9815C281.607 65.9815 281.087 65.785 280.683 65.4289C280.353 65.0718 280.154 64.5427 279.691 64.4105C279.229 64.2782 278.633 64.7279 278.184 65.0982C277.386 65.7058 276.404 66.0203 275.402 65.989C274.4 65.9577 273.44 65.5824 272.682 64.9263C272.61 65.3772 272.372 65.7849 272.014 66.0689C271.657 66.3529 271.206 66.4926 270.751 66.4605C269.842 66.364 268.952 66.1415 268.105 65.7992C267.675 65.6224 267.208 65.5564 266.746 65.6073C266.284 65.6581 265.842 65.8241 265.46 66.0902C265.077 66.4208 264.839 66.9234 264.389 67.1615C263.595 67.5847 262.656 66.9366 262.048 66.2621C261.439 65.5876 260.805 64.7808 259.905 64.7808C259.006 64.7808 258.437 65.5082 257.816 66.1034C257.194 66.6986 256.189 67.0821 255.567 66.5134C255.421 66.351 255.309 66.1606 255.239 65.9537C255.168 65.7468 255.14 65.5278 255.157 65.3098C255.178 64.3138 255.536 63.3544 256.173 62.5881C256.809 61.8218 257.687 61.2939 258.662 61.0907C258.332 59.9519 258.346 58.7411 258.702 57.6103C259.058 56.4795 259.741 55.479 260.663 54.7345C261.586 53.9899 262.708 53.5345 263.888 53.4252C265.069 53.316 266.255 53.5579 267.299 54.1206C267.552 53.1745 268.029 52.3033 268.69 51.5808C269.351 50.8582 270.177 50.3055 271.097 49.9695C272.016 49.6334 273.004 49.5239 273.975 49.6502C274.946 49.7765 275.873 50.1349 276.676 50.695C277.255 50.0552 278.01 49.5998 278.846 49.3853C279.682 49.1707 280.563 49.2066 281.378 49.4884C282.194 49.7702 282.909 50.2856 283.435 50.9704C283.96 51.6552 284.273 52.4792 284.334 53.3402C285.04 53.2587 285.755 53.3579 286.412 53.6286C287.069 53.8993 287.646 54.3326 288.09 54.8877C288.288 55.1739 288.422 55.5 288.481 55.8431C288.541 56.1862 288.524 56.5382 288.434 56.8744C288.343 57.2107 288.18 57.523 287.956 57.7898C287.732 58.0566 287.453 58.2713 287.138 58.419C287.664 58.7418 288.049 59.2517 288.215 59.8464C288.381 60.4411 288.317 61.0767 288.034 61.6256C287.751 62.1745 287.271 62.5962 286.69 62.806C286.11 63.0159 285.471 62.9985 284.903 62.7572" fill="#263238"/>
<path d="M281.53 88.4559C281.598 88.3133 281.715 88.2005 281.86 88.1385C282.003 88.1241 282.146 88.1669 282.257 88.2575C282.741 88.5802 283.135 89.0198 283.403 89.5354C283.671 90.0509 283.805 90.6259 283.792 91.2069C283.757 91.5953 283.624 91.9684 283.404 92.2908C283.185 92.6132 282.887 92.8743 282.539 93.0492C282.19 93.2241 281.803 93.307 281.413 93.2901C281.024 93.2733 280.645 93.1571 280.313 92.9528L279.229 92.3047L281.53 88.4559Z" fill="#FF9A6C"/>
<path d="M280.935 93.2561C281.247 93.359 281.578 93.3899 281.903 93.3463C282.228 93.3028 282.539 93.186 282.813 93.0048C283.12 92.8439 283.376 92.6013 283.554 92.3038C283.789 91.9837 283.927 91.6025 283.95 91.206C283.954 90.3203 283.66 89.4589 283.117 88.7592C282.989 88.569 282.847 88.3878 282.694 88.2169C282.603 88.1126 282.491 88.0282 282.366 87.969C282.241 87.9099 282.105 87.8772 281.967 87.873C281.83 87.8945 281.701 87.9491 281.59 88.0321C281.479 88.1151 281.391 88.224 281.332 88.3492L281.054 88.865L280.088 90.6505C279.758 91.1862 279.492 91.7589 279.295 92.3567C279.711 91.8875 280.067 91.3676 280.353 90.8092L281.411 89.0766C281.609 88.7724 281.808 88.2831 281.993 88.3095C282.178 88.336 282.522 88.6798 282.76 89.0105C283.232 89.6441 283.503 90.4039 283.54 91.1928C283.524 91.5231 283.419 91.843 283.236 92.1186C283.1 92.3731 282.899 92.5874 282.654 92.7402C282.125 93.0335 281.538 93.2094 280.935 93.2561Z" fill="#263238"/>
<path d="M287.548 58.1943C287.701 58.3751 287.812 58.5873 287.874 58.8159C287.935 59.0444 287.946 59.2838 287.905 59.5169C287.854 60.0695 287.599 60.5833 287.191 60.9586C286.929 61.1913 286.619 61.364 286.283 61.4645C285.947 61.565 285.593 61.591 285.246 61.5405L285.471 61.3421C285.517 62.0726 285.441 62.8056 285.246 63.5112C285.123 63.9868 284.912 64.4353 284.625 64.8338C284.236 65.3261 283.704 65.6849 283.102 65.8603C282.499 66.0357 281.858 66.019 281.265 65.8126C280.8 65.6023 280.382 65.301 280.035 64.9264C279.784 64.6619 279.678 64.5032 279.692 64.49C279.705 64.4767 279.863 64.5958 280.141 64.8074C280.508 65.123 280.923 65.3776 281.371 65.5613C281.743 65.6652 282.133 65.6911 282.516 65.6374C282.898 65.5837 283.266 65.4515 283.595 65.249C283.924 65.0466 284.207 64.7783 284.428 64.4611C284.649 64.1438 284.801 63.7844 284.876 63.4054C285.047 62.736 285.122 62.0459 285.101 61.3554V61.1305H285.326C285.623 61.1788 285.926 61.1624 286.216 61.0825C286.506 61.0026 286.775 60.8611 287.006 60.6676C287.367 60.3545 287.606 59.9234 287.68 59.4508C287.719 59.0274 287.674 58.6004 287.548 58.1943Z" fill="#455A64"/>
<path d="M268.224 52.0969C268.224 52.0969 268.105 52.2292 267.92 52.5069C267.655 52.8974 267.513 53.3578 267.51 53.8295V53.9883L267.365 53.9221C266.019 53.4187 264.567 53.264 263.145 53.4724C262.205 53.6026 261.303 53.9318 260.5 54.4379C259.646 54.9994 258.963 55.7869 258.529 56.7128C258.183 57.4324 257.989 58.216 257.961 59.0142C257.956 59.7566 258.124 60.4899 258.45 61.1568L258.556 61.342L258.344 61.4081C257.403 61.7157 256.617 62.3741 256.149 63.2465C255.787 63.9323 255.649 64.7135 255.752 65.4817C255.862 66.1698 256.115 66.8274 256.493 67.4127C256.493 67.4127 256.334 67.2937 256.122 66.9895C255.82 66.549 255.617 66.0481 255.527 65.5214C255.383 64.6972 255.508 63.8484 255.884 63.101C256.37 62.1381 257.216 61.406 258.238 61.0642L258.133 61.3287C257.765 60.6128 257.574 59.819 257.577 59.0142C257.599 58.0385 257.859 57.0829 258.334 56.2302C258.809 55.3775 259.484 54.6534 260.302 54.1205C261.133 53.6003 262.067 53.2664 263.04 53.1418C264.516 52.942 266.019 53.143 267.391 53.7237L267.245 53.8295C267.258 53.3159 267.445 52.8217 267.775 52.4276C268.052 52.1763 268.211 52.0837 268.224 52.0969Z" fill="#455A64"/>
<defs>
<radialGradient id="paint0_radial_10093_23758" cx="0" cy="0" r="1" gradientUnits="userSpaceOnUse" gradientTransform="translate(578.5 490.5) rotate(90) scale(261.5)">
<stop stop-color="#FFE3D8"/>
<stop offset="1" stop-color="#FFE3D8" stop-opacity="0"/>
</radialGradient>
<radialGradient id="paint1_radial_10093_23758" cx="0" cy="0" r="1" gradientUnits="userSpaceOnUse" gradientTransform="translate(317.5 454.5) rotate(90) scale(261.5)">
<stop stop-color="#FFE3D8"/>
<stop offset="1" stop-color="#FFE3D8" stop-opacity="0"/>
</radialGradient>
<radialGradient id="paint2_radial_10093_23758" cx="0" cy="0" r="1" gradientUnits="userSpaceOnUse" gradientTransform="translate(451.5 261.5) rotate(90) scale(261.5)">
<stop stop-color="#FFD9C9"/>
<stop offset="1" stop-color="#FFE3D8" stop-opacity="0"/>
</radialGradient>
</defs>
</svg>
