<svg width="618" height="593" viewBox="0 0 618 593" fill="none" xmlns="http://www.w3.org/2000/svg">
<path d="M599.327 590.23C599.327 590.415 469.301 590.573 308.935 590.573C148.569 590.573 18.5166 590.415 18.5166 590.23C18.5166 590.044 148.516 589.886 308.935 589.886C469.354 589.886 599.327 590.044 599.327 590.23Z" fill="#263238"/>
<path d="M49.691 569.12C47.559 562.134 47.3929 554.695 49.2111 547.62C51.0293 540.545 54.7614 534.108 59.9977 529.015C65.2341 523.922 71.7724 520.371 78.8948 518.75C86.0173 517.129 93.4487 517.501 100.373 519.827C100.227 512.039 102.213 504.359 106.118 497.62C110.022 490.88 115.697 485.337 122.526 481.591C129.355 477.844 137.078 476.038 144.861 476.366C152.643 476.695 160.187 479.146 166.676 483.455C173.91 469.634 193.128 463.616 206.923 471.009C220.717 478.402 226.524 497.607 219.091 511.349C224.778 509.976 230.753 510.434 236.164 512.657C241.576 514.88 246.147 518.756 249.226 523.731C252.305 528.705 253.734 534.525 253.31 540.36C252.886 546.195 250.631 551.747 246.865 556.225C269.35 546.292 299.029 566.25 298.275 590.877L24.5879 590.083C26.5983 586.473 33.3436 569.768 49.691 569.12Z" fill="white"/>
<path d="M49.6905 569.121L47.495 569.385C45.3302 569.698 43.22 570.312 41.2258 571.211C37.9676 572.738 35.0693 574.938 32.7215 577.665C29.4762 581.433 26.8024 585.657 24.7858 590.203L24.6536 589.992L298.341 590.587L297.997 590.917C298.096 586.637 297.312 582.383 295.696 578.419C294.038 574.367 291.668 570.645 288.699 567.428C282.63 560.777 274.57 556.271 265.725 554.585C259.444 553.385 252.948 554.08 247.063 556.582L245.741 557.191L246.706 556.053C250.448 551.631 252.694 546.138 253.12 540.361C253.546 534.583 252.132 528.82 249.08 523.896C246.028 518.973 241.494 515.142 236.13 512.955C230.766 510.767 224.847 510.335 219.222 511.72L218.495 511.905L218.852 511.243C220.682 507.631 221.752 503.682 221.998 499.64C222.244 495.598 221.659 491.548 220.281 487.741C219.076 484.018 217.123 480.58 214.541 477.64C211.96 474.699 208.804 472.317 205.269 470.639C198.266 467.658 190.389 467.464 183.247 470.097C176.325 472.424 170.525 477.261 166.993 483.654L166.834 483.945L166.556 483.76C159.331 479.088 150.876 476.68 142.273 476.842C134.237 476.904 126.39 479.293 119.683 483.72C113.536 487.896 108.563 493.579 105.24 500.226C102.178 506.304 100.605 513.022 100.651 519.827V520.145L100.36 520.039C94.198 518.025 87.639 517.539 81.248 518.624C78.3347 519.111 75.4832 519.914 72.7436 521.018C70.166 522.025 67.7085 523.316 65.4163 524.866C61.2875 527.616 57.7414 531.153 54.981 535.275C49.5394 543.562 47.2364 553.52 48.4869 563.354C48.6899 564.81 48.9724 566.254 49.3334 567.679L49.6905 569.121C49.6905 568.936 49.5186 568.552 49.2673 567.679C48.8735 566.268 48.5731 564.832 48.3679 563.381C47.5723 557.707 47.9824 551.929 49.5715 546.425C50.7191 542.418 52.4624 538.606 54.7429 535.117C59.0905 528.601 65.3183 523.564 72.5981 520.674C75.363 519.555 78.2411 518.739 81.1818 518.24C87.63 517.099 94.2596 517.553 100.492 519.563L100.201 519.774C100.164 512.574 101.895 505.475 105.244 499.101C108.592 492.727 113.455 487.272 119.405 483.217C126.2 478.72 134.151 476.285 142.3 476.208C151.01 476.048 159.57 478.489 166.887 483.217L166.464 483.323C170.065 476.797 175.976 471.854 183.036 469.462C190.325 466.764 198.37 466.958 205.52 470.005C209.137 471.716 212.366 474.148 215.009 477.153C217.652 480.157 219.653 483.67 220.889 487.476C222.294 491.37 222.89 495.51 222.64 499.642C222.39 503.774 221.299 507.812 219.434 511.508L219.05 511.019C224.814 509.598 230.879 510.039 236.375 512.279C241.872 514.519 246.518 518.443 249.647 523.487C252.776 528.531 254.226 534.436 253.79 540.356C253.355 546.276 251.055 551.905 247.222 556.437L246.812 555.908C252.82 553.344 259.455 552.631 265.871 553.858C274.868 555.566 283.069 560.147 289.241 566.912C292.256 570.192 294.665 573.98 296.357 578.101C298.004 582.155 298.805 586.503 298.711 590.878V591.222H298.341L24.6536 590.243H24.4287L24.5345 590.031C26.5473 585.479 29.2213 581.25 32.4702 577.48C34.8523 574.748 37.787 572.552 41.0803 571.039C43.0833 570.14 45.21 569.547 47.3892 569.28L49.6905 569.121Z" fill="#263238"/>
<path d="M569.74 563.685C565.354 561.083 560.325 559.766 555.227 559.885C550.128 560.004 545.166 561.555 540.907 564.36C540.306 557.451 537.852 550.832 533.804 545.201C529.756 539.57 524.264 535.135 517.907 532.363C511.55 529.592 504.563 528.586 497.683 529.453C490.802 530.319 484.282 533.025 478.811 537.286C479.362 530.173 477.818 523.054 474.37 516.809C470.922 510.563 465.721 505.464 459.408 502.14C453.096 498.817 445.948 497.414 438.848 498.106C431.747 498.797 425.005 501.553 419.452 506.033V590.23L582.133 589.714C582.719 584.649 581.868 579.522 579.676 574.919C577.484 570.316 574.041 566.423 569.74 563.685Z" fill="white"/>
<path d="M569.74 563.685C569.74 563.685 570.322 564.028 571.433 564.782C573.02 565.943 574.474 567.273 575.771 568.75C577.863 571.171 579.519 573.937 580.665 576.924C582.25 580.993 582.813 585.389 582.305 589.727V589.872H582.146L419.465 590.56H419.135V590.216C419.135 575.892 419.135 561.013 419.135 545.79V505.939L419.267 505.834C425.307 501.085 432.664 498.314 440.336 497.898C447.693 497.408 455.025 499.16 461.366 502.924C467.331 506.621 472.138 511.918 475.24 518.213C478.227 524.134 479.57 530.748 479.128 537.365L478.652 537.113C482.059 534.522 485.865 532.503 489.921 531.135C493.784 529.852 497.82 529.161 501.89 529.085C509.399 528.857 516.802 530.899 523.131 534.944C528.606 538.479 533.126 543.308 536.291 549.004C537.677 551.491 538.803 554.115 539.651 556.833C540.367 559.305 540.853 561.838 541.106 564.399L540.841 564.28C544.511 561.842 548.728 560.351 553.115 559.942C556.294 559.641 559.502 559.887 562.598 560.669C564.487 561.16 566.318 561.852 568.06 562.732C569.198 563.38 569.767 563.737 569.767 563.737L569.317 563.513L567.994 562.812C563.386 560.537 558.225 559.619 553.115 560.166C548.78 560.597 544.618 562.092 541 564.518L540.775 564.663V564.386C540.514 561.854 540.018 559.352 539.294 556.913C538.448 554.219 537.322 551.621 535.934 549.162C532.785 543.542 528.302 538.782 522.88 535.301C516.621 531.33 509.312 529.335 501.904 529.574C497.89 529.662 493.913 530.353 490.106 531.625C486.114 532.979 482.37 534.976 479.022 537.537L478.493 537.933V537.285C478.921 530.774 477.587 524.268 474.631 518.451C471.596 512.264 466.879 507.057 461.022 503.427C454.794 499.741 447.597 498.026 440.376 498.506C432.844 498.917 425.622 501.637 419.69 506.297L419.823 506.032V590.229L419.479 589.885L582.159 589.542L582.001 589.7C582.521 585.414 581.99 581.065 580.453 577.03C578.648 572.197 575.511 567.974 571.407 564.848L570.177 563.989L569.74 563.685Z" fill="#263238"/>
<path d="M569.581 372.7C568.369 371.255 566.875 370.072 565.189 369.224C563.504 368.375 561.664 367.88 559.781 367.767C556.951 367.586 554.12 368.084 551.522 369.221C548.925 370.357 546.637 372.098 544.849 374.298C543.062 376.499 541.826 379.095 541.246 381.87C540.667 384.645 540.759 387.519 541.516 390.251C533.196 387.236 522.999 392.248 519.917 400.515C516.836 408.781 520.83 418.965 528.541 423.277C536.252 427.588 546.687 425.922 553.035 419.785C557.638 428.607 569.885 432.429 578.694 427.721C587.503 423.012 591.219 410.765 586.484 402.009C590.773 401.452 594.748 399.46 597.762 396.357C600.775 393.254 602.651 389.223 603.083 384.919C603.515 380.616 602.479 376.292 600.142 372.652C597.806 369.012 594.307 366.27 590.214 364.87C582.12 362.093 574.131 365.36 569.581 372.621V372.7Z" fill="white"/>
<path d="M569.582 372.7C569.582 372.7 569.582 372.581 569.754 372.382L570.322 371.496C571.092 370.378 571.979 369.345 572.967 368.414C574.849 366.614 577.125 365.278 579.614 364.513C582.103 363.748 584.737 363.576 587.305 364.01C590.961 364.629 594.35 366.323 597.039 368.877C600.197 371.882 602.327 375.807 603.123 380.093C603.534 382.519 603.461 385.002 602.907 387.399C602.353 389.797 601.33 392.06 599.896 394.06C598.352 396.215 596.424 398.067 594.209 399.522C591.873 401.033 589.238 402.021 586.485 402.419L586.749 401.929C590.717 409.31 588.971 419.851 581.935 426.001C580.11 427.523 578.002 428.668 575.731 429.37C573.461 430.071 571.074 430.315 568.709 430.088C563.798 429.722 559.178 427.616 555.681 424.149C554.471 422.917 553.442 421.519 552.626 419.996L553.208 420.089C550.462 422.665 547.102 424.493 543.447 425.399C539.793 426.304 535.968 426.256 532.337 425.26C528.845 424.265 525.728 422.253 523.383 419.48C522.255 418.141 521.291 416.671 520.513 415.103C519.792 413.546 519.246 411.913 518.886 410.235C518.577 408.584 518.47 406.9 518.569 405.223C518.695 403.583 519.042 401.968 519.6 400.422C520.766 397.462 522.731 394.885 525.274 392.975C527.646 391.152 530.415 389.915 533.355 389.365C536.117 388.881 538.956 389.104 541.608 390.013L541.238 390.357C540.384 387.09 540.457 383.651 541.45 380.424C542.299 377.541 543.843 374.912 545.947 372.766C547.783 370.912 550.017 369.501 552.48 368.639C554.55 367.916 556.729 367.554 558.921 367.568C561.975 367.56 564.943 368.58 567.346 370.465C568.193 371.095 568.946 371.843 569.582 372.687L569.013 372.118C568.46 371.568 567.868 371.06 567.241 370.597C564.841 368.804 561.917 367.851 558.921 367.885C556.771 367.898 554.638 368.273 552.613 368.996C550.214 369.86 548.043 371.257 546.264 373.083C544.231 375.187 542.746 377.758 541.939 380.569C540.991 383.706 540.936 387.045 541.78 390.211L541.926 390.727L541.41 390.542C538.856 389.683 536.126 389.483 533.474 389.96C530.633 390.503 527.96 391.708 525.671 393.478C523.239 395.327 521.359 397.806 520.235 400.646C519.708 402.14 519.379 403.696 519.256 405.276C519.169 406.892 519.28 408.513 519.587 410.103C519.937 411.721 520.465 413.296 521.161 414.798C521.918 416.309 522.85 417.725 523.938 419.017C526.198 421.675 529.194 423.603 532.549 424.559C536.069 425.532 539.781 425.58 543.326 424.7C546.87 423.82 550.128 422.04 552.784 419.533L553.128 419.203L553.38 419.639C554.164 421.092 555.148 422.427 556.303 423.607C559.672 426.95 564.121 428.985 568.854 429.347C571.121 429.552 573.406 429.306 575.579 428.626C577.751 427.945 579.767 426.841 581.512 425.379C584.794 422.465 587.018 418.543 587.834 414.23C588.675 410.145 588.101 405.896 586.207 402.181L585.982 401.757L586.458 401.678C589.109 401.298 591.648 400.356 593.904 398.914C596.053 397.501 597.927 395.708 599.433 393.623C600.832 391.696 601.834 389.509 602.381 387.191C602.928 384.873 603.01 382.469 602.62 380.12C601.865 375.942 599.81 372.109 596.748 369.168C594.141 366.655 590.844 364.974 587.278 364.341C584.394 363.829 581.426 364.099 578.681 365.121C576.654 365.908 574.785 367.055 573.166 368.507C571.817 369.765 570.614 371.171 569.582 372.7Z" fill="#263238"/>
<path d="M146.624 140.9C147.522 137.952 147.59 134.813 146.821 131.828C146.052 128.844 144.475 126.129 142.264 123.982C140.053 121.835 137.293 120.339 134.287 119.658C131.281 118.977 128.145 119.137 125.225 120.122C125.296 116.838 124.466 113.598 122.826 110.752C121.186 107.906 118.798 105.564 115.921 103.979C113.044 102.394 109.788 101.627 106.506 101.761C103.225 101.895 100.042 102.925 97.3044 104.74C96.5512 103.255 95.5094 101.935 94.24 100.857C92.9706 99.7799 91.499 98.9662 89.9114 98.464C88.3238 97.9618 86.652 97.7813 84.9938 97.9329C83.3356 98.0845 81.7243 98.5652 80.2541 99.3469C78.7838 100.129 77.4842 101.196 76.4313 102.486C75.3783 103.775 74.5931 105.262 74.1216 106.859C73.6502 108.456 73.5018 110.131 73.6853 111.786C73.8689 113.441 74.3805 115.043 75.1904 116.498C72.7892 115.907 70.2627 116.092 67.9732 117.027C65.6837 117.961 63.7488 119.596 62.4461 121.698C61.1433 123.799 60.5396 126.26 60.7216 128.726C60.9035 131.192 61.8618 133.537 63.4589 135.424C53.9493 131.232 41.4639 139.657 41.7813 149.973L157.205 149.643C156.346 148.161 153.489 141.112 146.624 140.9Z" fill="white"/>
<path d="M146.624 140.899L147.563 140.966C148.476 141.075 149.368 141.321 150.208 141.693C151.604 142.305 152.853 143.206 153.872 144.338C155.258 145.924 156.399 147.707 157.258 149.629L157.364 149.84H157.139L41.7546 150.383H41.4107V150.052C41.3941 148.179 41.7353 146.321 42.4159 144.576C43.1499 142.823 44.1788 141.208 45.4579 139.802C48.0908 136.916 51.5913 134.967 55.4304 134.247C58.171 133.713 61.0089 134.012 63.5776 135.106L63.1676 135.649C61.524 133.706 60.5378 131.292 60.3507 128.754C60.1635 126.215 60.7849 123.683 62.1257 121.52C63.4666 119.356 65.458 117.673 67.8145 116.712C70.171 115.75 72.7715 115.559 75.243 116.167L74.8727 116.656C71.4736 110.162 74.6082 101.644 80.8377 98.8935C83.8391 97.6498 87.1908 97.5426 90.2655 98.5918C93.3403 99.6411 95.9272 101.775 97.5422 104.594L97.1058 104.488C99.8822 102.647 103.109 101.6 106.438 101.461C109.767 101.322 113.07 102.096 115.99 103.699C118.911 105.302 121.337 107.674 123.007 110.557C124.676 113.44 125.525 116.724 125.462 120.055L125.172 119.844C127.666 119.045 130.309 118.821 132.902 119.19C135.495 119.559 137.971 120.51 140.143 121.973C143.375 124.178 145.719 127.459 146.756 131.231C147.418 133.565 147.58 136.012 147.233 138.413C147.137 139.021 147 139.622 146.823 140.212L146.637 140.82L146.77 140.225C146.914 139.619 147.024 139.005 147.1 138.387C147.403 136.009 147.204 133.594 146.518 131.297C145.457 127.593 143.113 124.386 139.905 122.251C137.772 120.838 135.348 119.925 132.813 119.579C130.278 119.233 127.698 119.464 125.264 120.254L124.973 120.346V120.029C124.989 117.181 124.327 114.37 123.042 111.829C121.93 109.575 120.349 107.585 118.406 105.991C116.463 104.398 114.202 103.237 111.774 102.587C109.347 101.937 106.808 101.813 104.329 102.223C101.849 102.633 99.486 103.568 97.3967 104.964L97.119 105.149L96.9735 104.858C95.4249 102.195 92.9651 100.181 90.048 99.1893C87.1309 98.1975 83.9534 98.2944 81.1022 99.4622C75.243 102.041 72.2407 110.228 75.4679 116.325L75.825 116.987L75.0976 116.802C72.7665 116.234 70.3155 116.417 68.0951 117.326C65.8747 118.235 63.9987 119.823 62.7352 121.863C61.4718 123.903 60.8857 126.29 61.0608 128.683C61.2358 131.075 62.1631 133.352 63.7099 135.186L64.6622 136.323L63.3396 135.728C60.8946 134.692 58.1967 134.407 55.5891 134.908C51.909 135.589 48.549 137.446 46.0134 140.199C44.7697 141.572 43.776 143.152 43.0772 144.867C42.4314 146.524 42.1039 148.287 42.1117 150.065L41.7811 149.735L157.205 149.602L157.073 149.814C156.242 147.895 155.127 146.112 153.766 144.523C152.781 143.379 151.57 142.452 150.208 141.799C149.064 141.324 147.857 141.021 146.624 140.899Z" fill="#263238"/>
<path d="M582.516 206.845C583.291 204.307 583.351 201.605 582.691 199.034C582.03 196.464 580.675 194.126 578.773 192.276C576.87 190.425 574.495 189.135 571.908 188.546C569.321 187.957 566.621 188.092 564.105 188.937C564.162 186.108 563.444 183.317 562.028 180.867C560.612 178.418 558.552 176.402 556.072 175.039C553.592 173.677 550.786 173.019 547.959 173.137C545.132 173.256 542.391 174.146 540.034 175.711C538.687 173.187 536.392 171.302 533.655 170.469C530.918 169.637 527.963 169.926 525.439 171.273C522.915 172.62 521.03 174.915 520.197 177.652C519.365 180.389 519.655 183.345 521.001 185.868C518.934 185.359 516.758 185.518 514.787 186.322C512.815 187.126 511.149 188.533 510.026 190.343C508.904 192.152 508.384 194.271 508.54 196.394C508.697 198.518 509.522 200.537 510.897 202.163C502.71 198.552 491.957 205.8 492.235 214.741L591.589 214.45C590.888 213.141 588.441 207.03 582.516 206.845Z" fill="white"/>
<path d="M582.517 206.845C582.517 206.845 582.808 206.845 583.337 206.845C584.13 206.946 584.905 207.16 585.638 207.48C586.841 208.023 587.915 208.816 588.786 209.808C589.981 211.176 590.966 212.713 591.709 214.371L591.788 214.556H591.59L492.236 215.006H491.931V214.728C491.914 213.118 492.206 211.519 492.791 210.019C493.434 208.509 494.329 207.118 495.436 205.906C497.701 203.42 500.715 201.739 504.02 201.118C506.379 200.67 508.817 200.928 511.03 201.859L510.686 202.322C509.274 200.649 508.429 198.572 508.269 196.389C508.11 194.206 508.646 192.029 509.8 190.169C510.954 188.309 512.666 186.861 514.693 186.034C516.72 185.207 518.956 185.043 521.082 185.564L520.764 185.974C520.083 184.693 519.662 183.291 519.523 181.847C519.384 180.403 519.531 178.946 519.955 177.558C520.379 176.171 521.073 174.881 521.996 173.762C522.919 172.643 524.053 171.716 525.334 171.035C526.615 170.355 528.017 169.933 529.461 169.794C530.905 169.655 532.363 169.802 533.75 170.226C535.137 170.651 536.427 171.344 537.546 172.267C538.665 173.19 539.592 174.324 540.273 175.605L539.902 175.499C542.293 173.917 545.071 173.018 547.936 172.901C550.801 172.783 553.643 173.451 556.156 174.832C558.668 176.213 560.756 178.254 562.192 180.736C563.628 183.217 564.359 186.044 564.305 188.91L564.053 188.725C566.202 188.042 568.477 187.851 570.709 188.167C572.942 188.483 575.074 189.297 576.949 190.551C579.721 192.442 581.735 195.253 582.636 198.486C583.208 200.493 583.348 202.598 583.046 204.663C582.965 205.19 582.85 205.711 582.702 206.223L582.53 206.752L582.649 206.223C582.776 205.705 582.873 205.179 582.94 204.65C583.196 202.604 583.024 200.528 582.437 198.552C581.539 195.361 579.532 192.594 576.777 190.749C574.939 189.535 572.852 188.751 570.67 188.453C568.489 188.155 566.268 188.352 564.172 189.03L563.921 189.122V188.844C563.934 186.391 563.363 183.97 562.254 181.782C561.051 179.391 559.257 177.347 557.043 175.843C554.53 174.223 551.602 173.362 548.612 173.362C545.621 173.362 542.694 174.223 540.18 175.843L539.942 175.989L539.823 175.737C538.487 173.433 536.361 171.692 533.838 170.838C531.315 169.984 528.568 170.076 526.108 171.095C523.545 172.391 521.598 174.647 520.691 177.372C519.784 180.097 519.991 183.07 521.267 185.644L521.571 186.212L520.936 186.054C518.921 185.549 516.798 185.699 514.874 186.482C512.95 187.264 511.324 188.639 510.233 190.406C509.142 192.173 508.641 194.242 508.803 196.313C508.965 198.384 509.782 200.349 511.136 201.925L511.969 202.904L510.792 202.388C508.704 201.512 506.404 201.269 504.179 201.687C501.004 202.293 498.11 203.907 495.926 206.29C494.869 207.457 494.023 208.8 493.426 210.257C492.864 211.68 492.581 213.198 492.593 214.728L492.302 214.45L591.656 214.331L591.55 214.516C590.836 212.866 589.877 211.332 588.707 209.966C587.865 208.976 586.824 208.174 585.651 207.612C584.656 207.184 583.597 206.925 582.517 206.845Z" fill="#263238"/>
<path d="M383.411 30.3295C382.848 28.4899 382.803 26.5307 383.282 24.6674C383.76 22.8041 384.743 21.1087 386.122 19.7677C387.501 18.4267 389.224 17.4919 391.1 17.0662C392.976 16.6405 394.933 16.7403 396.756 17.3547C396.721 15.3088 397.246 13.2924 398.274 11.5232C399.302 9.75407 400.794 8.29939 402.588 7.31636C404.383 6.33333 406.412 5.8593 408.456 5.9455C410.501 6.03169 412.483 6.67483 414.188 7.80544C414.656 6.87754 415.305 6.05258 416.097 5.37897C416.889 4.70537 417.807 4.1967 418.798 3.88283C419.789 3.56896 420.832 3.45622 421.867 3.55122C422.902 3.64622 423.908 3.94706 424.825 4.43606C425.742 4.92506 426.553 5.59237 427.208 6.39882C427.864 7.20527 428.352 8.1346 428.644 9.13226C428.936 10.1299 429.025 11.1758 428.907 12.2085C428.789 13.2412 428.466 14.2398 427.956 15.1459C429.453 14.7766 431.029 14.8909 432.457 15.4723C433.886 16.0537 435.093 17.0724 435.907 18.3824C436.72 19.6923 437.098 21.2262 436.986 22.7642C436.874 24.3022 436.278 25.7652 435.284 26.9436C441.209 24.2984 448.999 29.5888 448.801 36.0563L376.824 35.858C377.353 34.8925 379.126 30.5014 383.411 30.3295Z" fill="white"/>
<path d="M383.412 30.3298C382.65 30.4204 381.906 30.6209 381.203 30.9249C379.236 32.0316 377.731 33.8048 376.957 35.9244L376.838 35.7128C389.72 35.7128 416.622 35.7128 448.814 35.7128L448.471 36.0302C448.616 31.6524 444.728 27.5523 440.191 26.7719C438.589 26.4637 436.932 26.6387 435.43 27.2745L434.107 27.8697L435.073 26.7323C436.024 25.6107 436.596 24.2164 436.705 22.7497C436.815 21.283 436.457 19.8193 435.682 18.5688C434.908 17.3183 433.757 16.3455 432.395 15.79C431.033 15.2344 429.53 15.1248 428.102 15.4769L427.375 15.662L427.719 15.0007C428.181 14.1323 428.467 13.1814 428.562 12.2022C428.656 11.2231 428.557 10.2349 428.27 9.29417C427.982 8.35341 427.512 7.47846 426.887 6.71928C426.261 5.96011 425.492 5.33157 424.624 4.86956C423.756 4.40755 422.805 4.12112 421.825 4.02662C420.846 3.93211 419.858 4.03139 418.917 4.31878C417.977 4.60617 417.102 5.07604 416.342 5.70157C415.583 6.32709 414.955 7.09603 414.493 7.96447L414.334 8.25544L414.056 8.07027C412.254 6.90952 410.156 6.29227 408.012 6.29227C405.868 6.29227 403.77 6.90952 401.968 8.07027C400.444 9.10644 399.197 10.4983 398.332 12.1253C397.468 13.7524 397.014 15.5656 397.008 17.4079V17.7253L396.704 17.6195C395.198 17.1341 393.602 16.9926 392.034 17.2054C390.466 17.4183 388.966 17.9801 387.644 18.8495C385.661 20.1789 384.209 22.1643 383.544 24.4574C383.119 25.8844 382.989 27.3827 383.16 28.8617C383.292 29.8536 383.464 30.4091 383.438 30.3827C383.247 29.8975 383.114 29.3914 383.041 28.8749C382.812 27.3777 382.906 25.8487 383.319 24.3913C383.951 22.0155 385.416 19.9458 387.445 18.5586C388.812 17.6429 390.367 17.0482 391.996 16.8191C393.624 16.5901 395.284 16.7326 396.849 17.2359L396.558 17.4476C396.512 15.352 397.041 13.2839 398.088 11.4679C399.134 9.65196 400.659 8.15763 402.495 7.14735C404.332 6.13707 406.41 5.64948 408.504 5.73758C410.599 5.82567 412.629 6.48609 414.374 7.64704L413.951 7.75285C414.378 6.70512 415.019 5.75823 415.834 4.97289C416.648 4.18755 417.618 3.5811 418.681 3.19242C419.743 2.80374 420.875 2.6414 422.004 2.71583C423.133 2.79026 424.234 3.09979 425.237 3.6246C426.239 4.14941 427.121 4.8779 427.825 5.76337C428.53 6.64884 429.041 7.67174 429.327 8.76648C429.613 9.86123 429.667 11.0036 429.486 12.1205C429.305 13.2374 428.892 14.304 428.274 15.252L427.891 14.7627C429.466 14.3594 431.129 14.47 432.638 15.0783C434.146 15.6866 435.42 16.7607 436.275 18.1442C437.13 19.5276 437.521 21.148 437.39 22.769C437.259 24.39 436.614 25.9269 435.549 27.1555L435.152 26.6132C436.78 25.926 438.575 25.7373 440.31 26.071C442.73 26.5243 444.936 27.7549 446.592 29.5759C447.404 30.4608 448.053 31.4816 448.51 32.5914C448.946 33.6943 449.166 34.8707 449.158 36.0567V36.4138H448.814C416.622 36.308 389.72 36.1492 376.838 36.0038H376.613L376.706 35.7921C377.531 33.649 379.105 31.8775 381.137 30.8059C381.671 30.5739 382.237 30.4223 382.816 30.3562L383.412 30.3298Z" fill="#263238"/>
<path d="M237.964 65.6959L231.272 68.0105C227.872 73.8286 222.419 78.1647 215.985 80.1666C209.55 82.1686 202.6 81.6915 196.499 78.8293C190.399 75.967 185.589 70.9265 183.016 64.6985C180.443 58.4704 180.292 51.5052 182.594 45.1717C184.895 38.8382 189.482 33.5946 195.453 30.4712C201.424 27.3479 208.348 26.5708 214.863 28.2926C221.378 30.0145 227.013 34.1108 230.661 39.7765C234.31 45.4422 235.707 52.2675 234.578 58.911L237.964 65.6959Z" fill="white"/>
<path d="M237.964 65.6964C237.964 65.6964 237.871 65.5377 237.726 65.2468C237.581 64.9558 237.329 64.5061 237.051 63.9241L234.486 58.8982H234.658C234.65 58.9067 234.641 58.9134 234.631 58.9181C234.62 58.9227 234.609 58.9251 234.598 58.9251C234.587 58.9251 234.576 58.9227 234.565 58.9181C234.555 58.9134 234.546 58.9067 234.539 58.8982C234.528 58.8827 234.522 58.8642 234.522 58.8453C234.522 58.8264 234.528 58.8079 234.539 58.7924C235.251 54.4803 234.906 50.0597 233.533 45.9102C232.607 43.1995 231.269 40.6478 229.566 38.3449C225.436 32.8135 219.327 29.0932 212.517 27.9624C208.69 27.2826 204.759 27.4633 201.01 28.4915C197.027 29.5967 193.346 31.5909 190.244 34.3242C186.992 37.1963 184.506 40.8325 183.01 44.905C182.234 46.9739 181.706 49.127 181.436 51.3197C181.37 52.4042 181.277 53.4888 181.277 54.5733L181.356 56.1869V56.9937L181.489 57.7872C182.047 61.9734 183.563 65.9744 185.919 69.4791C188.127 72.7255 191.033 75.4369 194.424 77.4147C197.54 79.26 200.994 80.465 204.581 80.9593C207.824 81.3933 211.118 81.2319 214.303 80.4832L216.472 79.8616C217.186 79.6367 217.794 79.3325 218.522 79.0812C219.797 78.5567 221.026 77.9286 222.199 77.2031C225.913 74.896 229.009 71.7182 231.219 67.9449L236.179 66.2652L237.501 65.8419L237.964 65.6964L237.554 65.8552L236.231 66.3181L231.298 68.1565C229.104 71.9287 226.021 75.1072 222.318 77.4147C221.139 78.1604 219.9 78.8063 218.614 79.3458C217.927 79.597 217.292 79.9145 216.551 80.1393L214.342 80.7874C211.104 81.5897 207.747 81.7914 204.436 81.3826C200.792 80.8891 197.281 79.68 194.106 77.8248C190.652 75.822 187.692 73.0694 185.443 69.7701C183.064 66.2466 181.526 62.2239 180.946 58.0121L180.827 57.2053V56.3853L180.748 54.7452C180.748 53.6475 180.827 52.5365 180.907 51.4387C181.173 49.2053 181.706 47.0119 182.494 44.905C184.021 40.7329 186.562 37.006 189.887 34.0597C193.048 31.2825 196.797 29.2568 200.852 28.1344C204.668 27.1016 208.666 26.9299 212.557 27.6318C216.155 28.2721 219.589 29.6208 222.662 31.5996C225.438 33.3761 227.864 35.6493 229.817 38.3052C231.53 40.6404 232.869 43.2286 233.785 45.9764C235.16 50.1724 235.473 54.6439 234.697 58.9908H234.512C234.531 58.9758 234.554 58.9676 234.578 58.9676C234.602 58.9676 234.626 58.9758 234.644 58.9908C235.716 61.1996 236.549 62.9586 237.118 64.0961L237.739 65.4187C237.818 65.5084 237.893 65.6011 237.964 65.6964Z" fill="#263238"/>
<path d="M196.183 55.4461L199.569 51.8222L206.525 57.602L219.341 44.4023L222.701 47.7882L206.248 64.3605L196.183 55.4461Z" fill="#FF6420"/>
<path d="M424.861 279.154H242.751V590.695H424.861V279.154Z" fill="#455A64"/>
<path d="M223.375 194.374C223.282 194.044 233.956 179.958 233.956 179.958L224.513 170.078L213.932 178.424L223.375 194.374Z" fill="#FFBF9D"/>
<path d="M395.618 122.663L398.091 131.286C398.091 131.286 403.382 139.143 405.26 140.082C405.749 140.333 406.226 140.69 406.675 140.862C408.355 141.47 410.564 140.862 410.114 138.904C410.634 138.964 411.16 138.863 411.621 138.614C412.082 138.366 412.456 137.983 412.693 137.516C413.447 136.034 411.807 134.236 411.807 134.236C411.807 134.236 413.711 134.725 414.571 133.429C415.285 132.358 414.28 130.942 414.28 130.942C414.28 130.942 415.127 129.488 414.703 128.681C414.082 127.808 413.382 126.993 412.614 126.247C411.628 123.961 410.474 121.75 409.162 119.634C408.026 118.092 406.667 116.727 405.128 115.587L395.618 122.663Z" fill="#FFBF9D"/>
<path d="M414.479 131.128C414.479 130.996 413.699 130.48 412.839 129.633C411.979 128.787 411.437 127.967 411.305 128.033C411.535 128.772 411.946 129.442 412.5 129.983C413.054 130.523 413.734 130.917 414.479 131.128Z" fill="#FF9A6C"/>
<path d="M412.15 134.487C412.15 134.368 411.383 133.892 410.537 133.165C409.69 132.437 409.122 131.617 409.003 131.697C408.884 131.776 409.293 132.689 410.206 133.522C411.119 134.355 412.084 134.659 412.15 134.487Z" fill="#FF9A6C"/>
<path d="M405.26 134.103C405.545 135.233 406.196 136.238 407.111 136.96C407.907 137.788 408.873 138.433 409.942 138.851C409.157 138.05 408.322 137.299 407.442 136.603C406.093 135.373 405.379 134.05 405.26 134.103Z" fill="#FF9A6C"/>
<path d="M68.0874 355.389C67.9551 355.654 66.4209 358.564 66.8441 359.622C67.0122 359.954 67.2593 360.24 67.5637 360.454C67.8681 360.669 68.2205 360.805 68.59 360.852C68.6763 361.686 69.0449 362.465 69.6348 363.061C70.3309 363.535 71.1601 363.776 72.0023 363.748L72.7165 364.595C72.9354 364.93 73.2425 365.199 73.6041 365.372C73.9657 365.545 74.3679 365.614 74.7665 365.573C75.5302 365.263 76.3715 365.199 77.1737 365.388C78.3111 365.745 80.6918 362.968 81.9351 361.685C83.1783 360.402 84.8713 358.696 84.0116 356.011C82.8741 352.387 81.3663 347.705 81.3663 347.705L83.7735 340.867L71.9758 341.264L71.46 344.24C71.46 344.24 69.8332 345.02 68.709 348.38C68.027 350.65 67.8155 353.035 68.0874 355.389Z" fill="#AE7461"/>
<path d="M80.6923 347.956C80.6923 347.956 84.0782 355.746 84.0782 356.01C84.0782 356.275 80.7584 363.126 79.1845 364.171C77.6106 365.216 75.5474 366.38 75.5474 366.38C75.5474 366.38 73.7751 365.533 75.2961 362.928C76.8171 360.322 78.5761 357.743 78.5761 357.743L77.4519 355.098C77.4519 355.098 71.6721 352.162 73.2592 346.382" fill="#AE7461"/>
<path d="M73.1926 346.343C73.1119 346.581 73.0456 346.824 72.9942 347.07C72.9271 347.366 72.8873 347.667 72.8751 347.97C72.8359 348.379 72.8359 348.791 72.8751 349.2C73.0264 350.314 73.4338 351.378 74.0655 352.308C74.9171 353.5 76.0184 354.493 77.2926 355.218L77.2133 355.125C77.5704 355.985 77.9275 356.884 78.3243 357.77V357.598C77.5043 358.789 76.6578 360.085 75.8246 361.447C75.364 362.142 74.9572 362.872 74.6077 363.629C74.4435 364.05 74.3714 364.501 74.3961 364.952C74.4074 365.452 74.6167 365.928 74.9781 366.274C75.0977 366.382 75.226 366.479 75.3616 366.565H75.4542H75.5468L77.5307 365.362L78.5094 364.767C78.8416 364.583 79.1599 364.375 79.4617 364.145C79.9668 363.615 80.4105 363.029 80.7843 362.399C81.1679 361.804 81.5118 361.196 81.8556 360.6C82.5037 359.423 83.0989 358.273 83.6147 357.188C83.7337 356.91 83.8528 356.646 83.985 356.381L84.0644 356.17C84.0702 356.126 84.0702 356.081 84.0644 356.038C84.0708 355.985 84.0708 355.932 84.0644 355.879L83.9189 355.456C83.7073 354.94 83.4957 354.45 83.3105 353.974C82.5169 352.096 81.8424 350.588 81.3795 349.557L80.824 348.366C80.7688 348.226 80.6978 348.093 80.6124 347.97C80.6466 348.115 80.6953 348.257 80.7579 348.393C80.8769 348.723 81.0356 349.12 81.234 349.623C81.6837 350.721 82.2921 352.268 83.046 354.08C83.2312 354.556 83.4163 355.059 83.6279 355.575L83.747 355.945H83.8396C83.7337 355.945 83.7602 355.945 83.7602 355.945L83.6808 356.13L83.3105 356.924C82.7815 357.995 82.1863 359.132 81.525 360.31C81.1811 360.878 80.8372 361.487 80.4537 362.069C80.0775 362.668 79.6337 363.223 79.1311 363.722C78.8433 363.944 78.5381 364.143 78.2185 364.317L77.253 364.899L75.2823 366.089H75.4807C75.3745 366.027 75.2767 365.952 75.1897 365.864C74.9404 365.573 74.7824 365.214 74.7354 364.833C74.6883 364.452 74.7543 364.066 74.9252 363.722C75.2608 362.989 75.6498 362.282 76.0891 361.606C76.9223 360.283 77.7556 358.96 78.5624 357.744V357.664V357.572C78.1788 356.633 77.7952 355.747 77.4381 354.927C76.2008 354.25 75.1264 353.311 74.2903 352.175C73.6558 351.292 73.2348 350.273 73.0603 349.2C72.9827 348.246 73.0272 347.286 73.1926 346.343Z" fill="#6F4439"/>
<path d="M108.191 367.161L40.1162 365.818L39.1676 413.912L107.242 415.255L108.191 367.161Z" fill="#455A64"/>
<path d="M100.319 367.24C100.2 367.478 100.059 367.704 99.8961 367.914L98.5735 369.74C97.4096 371.314 95.7695 373.641 93.4814 376.353C90.7851 379.485 87.6696 382.231 84.2232 384.513C79.9917 387.398 75.0629 389.092 69.9522 389.42C64.8026 389.481 59.772 387.871 55.6152 384.831C52.2411 382.423 49.2455 379.526 46.7272 376.234C44.5449 373.469 42.9843 371.089 41.9129 369.435L40.6565 367.438C40.5061 367.22 40.3818 366.985 40.2861 366.737C40.471 366.926 40.635 367.135 40.7755 367.359L42.0981 369.211C43.2223 370.811 44.8491 373.178 47.0579 375.824C49.599 379.026 52.5879 381.845 55.9326 384.196C59.9938 387.12 64.882 388.672 69.8861 388.626C74.873 388.294 79.6849 386.657 83.8396 383.878C87.2661 381.658 90.3798 378.989 93.0979 375.943C95.4257 373.297 97.0657 371.049 98.3883 369.528L99.8167 367.769C99.9649 367.575 100.133 367.398 100.319 367.24Z" fill="#263238"/>
<path d="M56.6338 370.427C56.6338 370.083 59.0806 358.934 64.0272 354.463C66.7517 352.003 72.5315 349.794 78.5759 357.743L76.4861 360.693C76.4861 360.693 70.2038 352.056 66.6195 356.355C64.6753 358.682 61.1968 364.026 60.9587 369.462L56.6338 370.427Z" fill="#455A64"/>
<path d="M76.3403 360.825C76.7218 360.437 77.0388 359.991 77.2794 359.503C77.4227 359.261 77.507 358.989 77.5254 358.708C77.5438 358.428 77.4957 358.147 77.3852 357.889C77.2539 357.698 77.0749 357.545 76.866 357.446C76.6571 357.346 76.4257 357.303 76.1948 357.32C75.7297 357.37 75.2933 357.57 74.9516 357.889C74.6179 358.213 74.3208 358.572 74.0654 358.96" fill="#AE7461"/>
<path d="M74.0653 358.88C73.9992 358.88 74.0653 358.418 74.5679 357.849C74.8424 357.496 75.2019 357.218 75.6128 357.042C75.8896 356.923 76.1929 356.878 76.4924 356.913C76.7919 356.948 77.0769 357.061 77.3189 357.24C77.557 357.438 77.7299 357.703 77.8149 358C77.8998 358.297 77.8929 358.613 77.7951 358.907C77.6764 359.318 77.4837 359.703 77.2264 360.044C76.7899 360.626 76.4063 360.851 76.3402 360.785C76.2741 360.719 76.5121 360.375 76.8031 359.793C76.9747 359.467 77.1036 359.12 77.1867 358.761C77.2345 358.587 77.2326 358.403 77.1812 358.23C77.1297 358.057 77.0308 357.902 76.8957 357.783C76.2476 357.293 75.3747 357.783 74.925 358.179C74.4753 358.576 74.1579 358.947 74.0653 358.88Z" fill="#6F4439"/>
<path d="M71.6455 355.72C71.8699 355.379 72.166 355.091 72.5133 354.876C72.8605 354.661 73.2505 354.525 73.6559 354.477C74.0553 354.41 74.4656 354.476 74.824 354.664C75.1823 354.853 75.4689 355.154 75.6398 355.521C75.6868 355.838 75.6688 356.16 75.587 356.47C75.5051 356.779 75.3611 357.068 75.1637 357.32C74.2115 358.911 73.1276 360.42 71.9233 361.83" fill="#AE7461"/>
<path d="M71.9234 361.83C71.7647 361.711 73.5237 359.542 75.1373 356.646C75.2364 356.522 75.3073 356.377 75.3452 356.223C75.3832 356.069 75.3872 355.908 75.357 355.753C75.3268 355.597 75.2632 355.449 75.1704 355.32C75.0777 355.191 74.9581 355.084 74.8199 355.006C74.5673 354.868 74.2893 354.783 74.0029 354.756C73.7165 354.728 73.4275 354.76 73.1534 354.847C72.1747 355.164 71.8308 355.799 71.6853 355.72C71.5398 355.641 71.8573 354.913 73.0079 354.397C73.346 354.252 73.712 354.182 74.08 354.194C74.4479 354.205 74.8089 354.297 75.1373 354.463C75.3535 354.566 75.5455 354.714 75.7005 354.896C75.8555 355.078 75.9701 355.292 76.0367 355.522C76.1341 356.009 76.0544 356.516 75.8119 356.95C74.8776 358.835 73.552 360.499 71.9234 361.83Z" fill="#6F4439"/>
<path d="M68.2988 355.256C68.5879 354.61 69.0445 354.053 69.6214 353.643C69.876 353.459 70.1678 353.333 70.4762 353.273C70.7846 353.214 71.1023 353.223 71.407 353.299C71.7025 353.386 71.9663 353.558 72.1659 353.793C72.3655 354.028 72.4925 354.316 72.5312 354.621C72.4939 355.163 72.2907 355.68 71.9492 356.103C71.0234 357.518 70.005 359.29 68.9337 360.6" fill="#AE7461"/>
<path d="M68.8682 360.653C68.7888 360.587 69.1856 359.992 69.7808 358.986C70.1246 358.404 70.4685 357.823 70.8256 357.241C71.2664 356.565 71.6725 355.868 72.0424 355.151C72.0954 354.996 72.1164 354.833 72.1041 354.67C72.0919 354.507 72.0467 354.349 71.9712 354.204C71.8957 354.059 71.7916 353.931 71.6651 353.828C71.5387 353.725 71.3926 353.648 71.2356 353.603C70.948 353.529 70.647 353.521 70.3558 353.58C70.0646 353.64 69.791 353.765 69.5559 353.947C68.6962 354.622 68.392 355.27 68.2333 355.27C68.0746 355.27 68.2333 354.463 69.1856 353.577C69.47 353.311 69.8157 353.12 70.1919 353.021C70.5681 352.922 70.9631 352.918 71.3414 353.008C71.8136 353.137 72.2198 353.439 72.4789 353.855C72.6199 354.082 72.7064 354.339 72.7316 354.605C72.7568 354.871 72.7201 355.139 72.6244 355.389C72.4517 355.817 72.225 356.222 71.9498 356.593L71.2885 357.598C70.8653 358.233 70.4685 358.815 70.1114 359.277C69.5295 360.203 68.9343 360.706 68.8682 360.653Z" fill="#6F4439"/>
<path d="M74.1579 389.38C74.1579 390.031 73.9651 390.667 73.6038 391.208C73.2425 391.75 72.7289 392.172 72.1279 392.422C71.5269 392.671 70.8654 392.737 70.2269 392.611C69.5885 392.485 69.0016 392.173 68.5406 391.714C68.0795 391.254 67.7648 390.669 67.6362 390.031C67.5076 389.393 67.571 388.731 67.8182 388.129C68.0654 387.527 68.4855 387.012 69.0253 386.648C69.5652 386.285 70.2006 386.09 70.8514 386.087C71.285 386.085 71.7146 386.169 72.1157 386.334C72.5168 386.499 72.8814 386.741 73.1886 387.047C73.4958 387.353 73.7396 387.716 73.9059 388.117C74.0723 388.517 74.1579 388.947 74.1579 389.38Z" fill="#263238"/>
<path d="M129.046 247.755C129.046 247.755 117.143 251.524 113.175 255.452C102.594 265.597 86.9875 281.799 82.5303 288.888C79.7528 293.319 70.3623 341.792 70.3623 341.792L91.3257 342.797L101.735 293.927L119.577 276.085L129.046 247.755Z" fill="#E0E0E0"/>
<path d="M222.594 364.978L235.542 376.617L237.579 377.86C237.579 377.86 251.678 358.114 255.911 358.907L244.946 402.553L241.441 401.535L217.912 386.219L222.594 364.978Z" fill="#263238"/>
<path d="M232.342 391.655C232.364 392.106 232.551 392.534 232.868 392.856C233.185 393.178 233.61 393.372 234.061 393.401C234.513 393.394 234.946 393.215 235.27 392.901C235.595 392.586 235.787 392.159 235.807 391.708C235.784 391.227 235.584 390.773 235.244 390.433C234.904 390.093 234.449 389.892 233.969 389.869C233.498 389.923 233.067 390.157 232.766 390.522C232.465 390.887 232.318 391.355 232.355 391.827" fill="#E0E0E0"/>
<path d="M245.185 402.646L241.68 401.641L253.504 360.124C253.504 360.124 254.826 358.392 256.149 358.96L245.185 402.646Z" fill="#263238"/>
<path d="M237.58 377.86C237.791 377.86 237.58 379.011 238.043 380.227C238.506 381.444 239.22 382.238 239.088 382.41C238.955 382.582 237.765 381.96 237.315 380.465C236.866 378.971 237.395 377.754 237.58 377.86Z" fill="#455A64"/>
<path d="M240.622 373.747C240.846 373.747 240.965 374.765 241.693 375.718C242.42 376.67 243.32 377.12 243.254 377.331C243.187 377.543 241.931 377.331 241.071 376.167C240.211 375.003 240.423 373.707 240.622 373.747Z" fill="#455A64"/>
<path d="M246.759 372.516C246.759 372.728 245.621 372.754 244.59 371.921C243.558 371.088 243.267 369.964 243.545 369.911C243.822 369.858 244.206 370.638 245.066 371.326C245.925 372.014 246.759 372.305 246.759 372.516Z" fill="#455A64"/>
<path d="M232.329 376.947C232.501 377.079 231.958 377.992 231.747 379.222C231.535 380.452 231.667 381.484 231.456 381.55C231.244 381.616 230.715 380.518 230.993 379.076C231.271 377.635 232.21 376.802 232.329 376.947Z" fill="#263238"/>
<path d="M168.076 191.531C168.796 190.906 169.691 190.521 170.639 190.429C171.587 190.336 172.54 190.541 173.367 191.015C174.708 190.622 176.141 190.689 177.44 191.204C178.739 191.719 179.828 192.653 180.535 193.858C181.484 193.689 182.461 193.768 183.369 194.089C184.278 194.41 185.088 194.962 185.72 195.689C186.352 196.417 186.784 197.297 186.974 198.241C187.164 199.186 187.106 200.164 186.804 201.08C187.761 201.276 188.633 201.768 189.295 202.486C189.956 203.205 190.376 204.113 190.493 205.083C190.61 206.053 190.419 207.035 189.947 207.89C189.475 208.746 188.746 209.431 187.863 209.849C188.747 210.534 189.343 211.526 189.531 212.629C189.72 213.732 189.488 214.865 188.882 215.806C188.276 216.746 187.339 217.425 186.256 217.708C185.173 217.991 184.024 217.858 183.035 217.335L167.045 196.715C166.657 195.851 166.548 194.887 166.733 193.958C166.918 193.029 167.387 192.181 168.076 191.531Z" fill="#263238"/>
<path d="M183.419 217.255C184.726 212.669 184.26 207.759 182.114 203.5C179.967 199.241 176.297 195.946 171.833 194.269L170.907 193.925C160.762 190.777 152.39 197.641 149.573 207.865L138.529 243.417L146.24 262.952L158.818 256.735L162.442 247.887C162.442 247.887 172.534 249.99 176.237 240.494C177.983 235.838 180.879 226.104 183.419 217.255Z" fill="#AE7461"/>
<path d="M162.389 248.681C157.991 247.015 154.163 244.123 151.358 240.349C151.358 240.349 151.702 248.284 161.437 251.035L162.389 248.681Z" fill="#6F4439"/>
<path d="M177.335 225.919C177.206 226.276 176.943 226.567 176.602 226.733C176.262 226.898 175.87 226.924 175.51 226.805C175.15 226.698 174.848 226.453 174.67 226.123C174.491 225.793 174.451 225.406 174.558 225.046C174.689 224.689 174.955 224.397 175.298 224.232C175.641 224.066 176.034 224.041 176.396 224.16C176.58 224.203 176.753 224.284 176.903 224.399C177.053 224.514 177.177 224.659 177.266 224.826C177.355 224.993 177.407 225.177 177.419 225.365C177.431 225.554 177.402 225.743 177.335 225.919Z" fill="#263238"/>
<path d="M179.53 222.533C179.305 222.639 178.551 221.488 177.083 220.946C175.615 220.403 174.266 220.734 174.187 220.496C174.107 220.258 174.425 220.126 175.02 219.967C175.817 219.757 176.661 219.808 177.427 220.112C178.194 220.389 178.849 220.909 179.292 221.594C179.623 222.096 179.649 222.48 179.53 222.533Z" fill="#263238"/>
<path d="M164.546 221.819C164.414 222.176 164.148 222.468 163.805 222.634C163.462 222.799 163.069 222.825 162.707 222.705C162.523 222.663 162.35 222.581 162.2 222.467C162.05 222.352 161.926 222.206 161.837 222.039C161.748 221.873 161.696 221.689 161.684 221.5C161.672 221.312 161.701 221.123 161.768 220.946C161.897 220.59 162.16 220.298 162.501 220.132C162.842 219.967 163.234 219.941 163.593 220.06C163.953 220.167 164.255 220.413 164.433 220.742C164.612 221.072 164.652 221.46 164.546 221.819Z" fill="#263238"/>
<path d="M165.59 217.071C165.352 217.177 164.611 216.026 163.143 215.484C161.675 214.942 160.326 215.272 160.233 215.034C160.141 214.796 160.471 214.664 161.08 214.505C161.871 214.301 162.706 214.347 163.471 214.636C164.236 214.925 164.892 215.443 165.352 216.119C165.669 216.661 165.709 217.018 165.59 217.071Z" fill="#263238"/>
<path d="M160.987 230.693C161.239 230.693 161.596 232.016 162.812 232.968C164.029 233.921 165.458 234.053 165.458 234.291C165.458 234.529 165.114 234.569 164.492 234.529C163.67 234.468 162.886 234.159 162.244 233.643C161.6 233.136 161.137 232.436 160.921 231.646C160.789 231.077 160.868 230.707 160.987 230.693Z" fill="#263238"/>
<path d="M166.344 229.741C167.207 229.781 168.061 229.937 168.883 230.204C169.28 230.31 169.65 230.363 169.822 230.125C169.993 229.753 170.048 229.338 169.981 228.934C169.981 227.89 169.981 226.805 169.981 225.668C169.861 222.868 169.967 220.064 170.298 217.282C170.639 220.063 170.759 222.867 170.655 225.668C170.655 226.805 170.655 227.89 170.655 228.934C170.728 229.472 170.601 230.018 170.298 230.469C170.197 230.583 170.069 230.671 169.927 230.726C169.784 230.781 169.63 230.802 169.478 230.786C169.253 230.765 169.031 230.716 168.817 230.641C167.958 230.445 167.128 230.143 166.344 229.741Z" fill="#263238"/>
<path d="M167.164 210.788C166.992 211.198 165.63 210.881 163.99 210.973C162.35 211.066 161.001 211.449 160.816 211.053C160.736 210.867 161.001 210.484 161.556 210.114C162.284 209.671 163.112 209.421 163.963 209.386C164.803 209.343 165.639 209.525 166.384 209.915C166.966 210.233 167.23 210.59 167.164 210.788Z" fill="#263238"/>
<path d="M180.708 218.38C180.351 218.658 179.385 217.997 178.168 217.626C176.951 217.256 175.801 217.203 175.655 216.78C175.655 216.581 175.867 216.277 176.422 216.092C177.156 215.881 177.936 215.893 178.662 216.129C179.388 216.365 180.027 216.813 180.496 217.415C180.827 217.864 180.88 218.248 180.708 218.38Z" fill="#263238"/>
<path d="M184.133 213.393C184.133 213.393 183.855 206.476 181.488 204.003C178.631 201.001 175.695 204.267 172.732 202.098C169.769 199.929 167.031 197.046 162.667 198.342C157.905 199.757 158.897 202.389 157.085 206.529C149.719 223.339 144.759 227.016 146.901 218.604C147.139 217.679 144.944 216.052 145.989 212.177C147.311 207.151 149.348 201.186 151.729 198.157C153.726 195.591 156.133 194.189 159.929 193.118C165.92 191.385 172.388 193.713 176.581 195.763C180.773 197.813 187.333 206.079 184.133 213.393Z" fill="#263238"/>
<path d="M147.629 218.566C147.749 218.212 147.795 217.837 147.766 217.464C147.736 217.092 147.631 216.729 147.456 216.399C147.281 216.068 147.041 215.777 146.751 215.542C146.46 215.308 146.124 215.135 145.764 215.034C143.926 214.532 141.558 214.796 140.302 218.513C138.067 225.126 145.156 225.999 145.222 225.813C145.288 225.628 146.717 221.343 147.629 218.566Z" fill="#AE7461"/>
<path d="M144.627 222.85C144.627 222.85 144.495 222.85 144.27 222.85C143.955 222.865 143.646 222.766 143.397 222.573C143.063 222.157 142.846 221.66 142.767 221.132C142.688 220.605 142.75 220.066 142.947 219.57C143.118 218.997 143.422 218.471 143.833 218.036C143.966 217.851 144.141 217.701 144.343 217.598C144.546 217.494 144.77 217.44 144.997 217.441C145.142 217.452 145.278 217.514 145.382 217.616C145.486 217.717 145.551 217.852 145.566 217.996C145.566 218.208 145.566 218.327 145.566 218.353C145.566 218.38 145.738 218.287 145.778 217.996C145.8 217.82 145.757 217.642 145.659 217.494C145.593 217.394 145.507 217.308 145.407 217.242C145.307 217.176 145.195 217.132 145.077 217.11C144.788 217.073 144.495 217.109 144.225 217.215C143.954 217.321 143.715 217.495 143.529 217.719C143.059 218.198 142.71 218.783 142.511 219.425C142.279 220.003 142.224 220.636 142.351 221.245C142.478 221.855 142.782 222.413 143.225 222.85C143.385 222.961 143.568 223.035 143.76 223.067C143.952 223.099 144.149 223.088 144.336 223.036C144.561 222.996 144.653 222.864 144.627 222.85Z" fill="#6F4439"/>
<path d="M152.483 205.987C153.045 206.935 153.831 207.729 154.771 208.302C155.252 208.569 155.812 208.653 156.349 208.538C156.887 208.424 157.364 208.119 157.694 207.68C157.946 207.257 158.025 206.688 158.461 206.45C158.898 206.212 159.572 206.543 160.102 206.807C161.021 207.246 162.064 207.354 163.055 207.113C164.045 206.872 164.922 206.297 165.537 205.485C165.712 205.915 166.04 206.265 166.457 206.468C166.875 206.671 167.353 206.712 167.799 206.583C168.682 206.291 169.519 205.877 170.286 205.353C170.671 205.096 171.113 204.937 171.574 204.889C172.035 204.84 172.5 204.904 172.931 205.075C173.394 205.326 173.738 205.776 174.253 205.921C175.14 206.159 175.933 205.313 176.383 204.519C176.832 203.726 177.295 202.76 178.195 202.575C179.094 202.39 179.808 202.972 180.549 203.382C181.29 203.792 182.387 203.99 182.877 203.289C182.991 203.091 183.063 202.871 183.088 202.643C183.114 202.416 183.091 202.185 183.022 201.967C182.792 200.978 182.235 200.096 181.44 199.464C180.645 198.833 179.66 198.489 178.644 198.488C178.732 197.281 178.459 196.076 177.861 195.024C177.262 193.972 176.365 193.122 175.283 192.581C174.2 192.04 172.982 191.832 171.781 191.984C170.581 192.137 169.453 192.642 168.54 193.436C168.079 192.551 167.412 191.791 166.594 191.219C165.777 190.647 164.834 190.28 163.845 190.15C162.856 190.021 161.85 190.131 160.913 190.473C159.976 190.815 159.135 191.377 158.461 192.113C157.742 191.603 156.888 191.315 156.006 191.286C155.124 191.257 154.253 191.488 153.502 191.95C152.75 192.413 152.151 193.086 151.78 193.887C151.408 194.687 151.28 195.579 151.412 196.451C150.693 196.528 150.006 196.785 149.414 197.199C148.822 197.613 148.344 198.17 148.026 198.819C147.892 199.146 147.831 199.499 147.847 199.852C147.863 200.205 147.955 200.551 148.117 200.865C148.279 201.18 148.508 201.455 148.786 201.673C149.065 201.89 149.388 202.045 149.732 202.125C149.248 202.552 148.949 203.15 148.898 203.793C148.846 204.436 149.047 205.074 149.457 205.572C149.868 206.07 150.456 206.389 151.097 206.462C151.738 206.534 152.382 206.355 152.893 205.961" fill="#263238"/>
<path d="M149.269 201.887C149.154 202.103 149.088 202.342 149.077 202.587C149.066 202.832 149.109 203.076 149.203 203.302C149.363 203.856 149.727 204.329 150.222 204.625C150.531 204.799 150.875 204.904 151.229 204.931C151.583 204.958 151.939 204.908 152.272 204.783L152.02 204.638C152.132 205.376 152.364 206.091 152.708 206.754C152.935 207.2 153.245 207.6 153.621 207.931C154.115 208.336 154.724 208.577 155.361 208.62C155.999 208.663 156.635 208.505 157.179 208.169C157.593 207.855 157.943 207.465 158.21 207.018C158.32 206.86 158.404 206.686 158.461 206.503C158.461 206.503 158.303 206.648 158.078 206.926C157.777 207.312 157.421 207.651 157.02 207.931C156.676 208.123 156.296 208.241 155.905 208.278C155.513 208.315 155.117 208.27 154.744 208.145C154.371 208.021 154.027 207.82 153.736 207.555C153.445 207.291 153.212 206.968 153.052 206.608C152.728 205.985 152.5 205.316 152.377 204.625V204.386L152.153 204.479C151.871 204.593 151.567 204.645 151.263 204.629C150.959 204.613 150.662 204.53 150.394 204.386C149.961 204.161 149.627 203.784 149.455 203.328C149.28 202.869 149.216 202.375 149.269 201.887Z" fill="#455A64"/>
<path d="M167.177 191.624C167.177 191.624 167.322 191.729 167.574 191.967C167.922 192.304 168.162 192.737 168.261 193.211V193.356L168.394 193.277C169.632 192.499 171.047 192.044 172.507 191.954C173.45 191.893 174.396 192.028 175.284 192.351C176.262 192.718 177.118 193.35 177.758 194.176C178.261 194.82 178.622 195.564 178.816 196.358C178.995 197.093 178.995 197.859 178.816 198.594V198.805H179.027C180.047 198.889 180.994 199.363 181.673 200.128C182.186 200.731 182.497 201.481 182.559 202.27C182.597 202.981 182.489 203.693 182.241 204.36C182.362 204.21 182.456 204.04 182.519 203.858C182.716 203.348 182.807 202.803 182.784 202.257C182.749 201.408 182.443 200.592 181.911 199.929C181.216 199.079 180.213 198.537 179.12 198.422L179.279 198.647C179.477 197.852 179.477 197.021 179.279 196.226C179.071 195.38 178.688 194.587 178.154 193.898C177.471 193.016 176.555 192.343 175.509 191.954C174.566 191.611 173.559 191.48 172.56 191.571C171.045 191.695 169.592 192.225 168.354 193.105H168.526C168.408 192.582 168.114 192.115 167.693 191.782C167.537 191.687 167.359 191.632 167.177 191.624Z" fill="#455A64"/>
<path d="M140.421 496.458L141.942 520.014C141.942 520.014 160.657 540.514 159.202 544.799L115.371 526.825L116.958 523.333L121.23 513.969L117.262 497.027L140.421 496.458Z" fill="#263238"/>
<path d="M125.898 516.443C125.426 516.398 124.953 516.53 124.572 516.813C124.19 517.097 123.928 517.512 123.835 517.977C123.779 518.298 123.813 518.629 123.934 518.931C124.056 519.234 124.259 519.496 124.522 519.689C124.785 519.882 125.097 519.997 125.422 520.022C125.747 520.046 126.072 519.98 126.361 519.829C126.628 519.687 126.856 519.483 127.027 519.234C127.198 518.984 127.306 518.698 127.342 518.398C127.378 518.098 127.342 517.794 127.236 517.511C127.129 517.228 126.957 516.976 126.732 516.774C126.593 516.652 126.432 516.559 126.257 516.5C126.082 516.441 125.897 516.417 125.713 516.43" fill="#E0E0E0"/>
<path d="M115.371 526.826L116.958 523.334L158.382 541.85C158.382 541.85 159.983 543.491 159.202 544.773L115.371 526.826Z" fill="#263238"/>
<path d="M143.939 522.646C143.833 522.858 142.722 522.527 141.399 522.778C140.077 523.03 139.124 523.704 138.966 523.532C138.807 523.36 139.627 522.21 141.254 521.985C142.881 521.76 144.058 522.474 143.939 522.646Z" fill="#455A64"/>
<path d="M147.232 526.283C147.232 526.508 146.121 526.495 145.024 527.103C143.926 527.712 143.318 528.584 143.119 528.426C142.921 528.267 143.265 527.103 144.64 526.336C146.016 525.569 147.312 526.151 147.232 526.283Z" fill="#455A64"/>
<path d="M147.06 532.856C146.849 532.856 146.981 531.626 148.012 530.674C149.044 529.722 150.234 529.682 150.261 529.894C150.287 530.105 149.401 530.476 148.568 531.216C147.735 531.957 147.285 532.923 147.06 532.856Z" fill="#455A64"/>
<path d="M141.743 516.602C141.65 516.813 140.579 516.522 139.27 516.602C137.96 516.681 136.955 517.157 136.836 516.972C136.717 516.787 137.669 515.927 139.204 515.795C140.738 515.663 141.849 516.416 141.743 516.602Z" fill="#455A64"/>
<path d="M85.5856 329.717C82.8797 334.159 80.9812 339.044 79.9777 344.147C78.6893 350.959 79.1073 357.984 81.1945 364.595C82.9271 369.7 107.118 435.314 107.118 435.314L109.882 469.768L118.241 513.004L144.428 511.682C144.428 511.682 142.008 443.594 140.963 433.648C139.826 422.855 125.171 356.54 125.171 356.54L134.734 332.667L90.2544 317.827L85.5856 329.717Z" fill="#263238"/>
<path d="M158.872 542.512C158.792 542.683 149.349 538.544 137.71 533.253C126.071 527.963 116.813 523.519 116.892 523.347C116.971 523.175 126.415 527.315 138.054 532.605C149.693 537.896 158.951 542.34 158.872 542.512Z" fill="#455A64"/>
<path d="M144.428 511.774C140.088 512.33 135.722 512.652 131.347 512.74C126.986 513.059 122.611 513.147 118.24 513.004C122.581 512.458 126.947 512.14 131.321 512.052C135.682 511.733 140.057 511.64 144.428 511.774Z" fill="#455A64"/>
<path d="M164.175 251.049L162.694 247.703C152.88 243.616 145.711 239.529 139.733 239.635L135.117 244.145C129.827 247.504 119.246 252.663 116.442 256.617L103.48 281.667L85.5723 323.647C83.919 326.213 80.3877 330.009 84.3158 333.791L120.026 337.759L132.723 337.984C135.368 337.64 142.127 339.558 142.934 335.339C144.375 327.906 167.905 277.951 169.598 271.417L168.857 260.664L164.175 251.049Z" fill="#E0E0E0"/>
<path d="M168.579 271.298C165.934 278.347 164.043 289.245 154.123 295.792C148.634 299.403 140.567 301.585 134.284 303.569C126.864 305.923 116.998 308.926 116.998 308.926L110.729 320.406L121.878 321.861C121.878 321.861 134.998 317.681 140.17 315.526C151.306 310.896 147.484 312.404 151.333 309.812C156.848 306.373 164.374 296.242 169.849 270.623" fill="#FF6420"/>
<path d="M142.272 252.477C141.113 252.555 139.949 252.533 138.794 252.411C136.665 252.318 133.715 252.212 130.475 252.411C127.705 252.536 124.95 252.881 122.235 253.442C121.127 253.762 120.001 254.014 118.862 254.196C118.862 254.196 119.14 254.011 119.696 253.773C120.488 253.462 121.296 253.192 122.116 252.966C124.838 252.262 127.626 251.845 130.435 251.723C133.236 251.588 136.044 251.664 138.834 251.948C139.996 252 141.149 252.177 142.272 252.477Z" fill="#263238"/>
<path d="M160.789 247.08C159.496 246.986 158.213 246.787 156.953 246.485C154.599 246.049 151.345 245.467 147.695 245.017C144.624 244.635 141.531 244.454 138.437 244.475C136.056 244.475 134.588 244.686 134.575 244.581C134.561 244.475 134.918 244.448 135.593 244.316C136.53 244.16 137.475 244.054 138.423 243.999C141.557 243.817 144.701 243.928 147.814 244.329C150.929 244.718 154.019 245.279 157.072 246.009C158.343 246.243 159.588 246.602 160.789 247.08Z" fill="#263238"/>
<path d="M116.442 256.604C116.356 256.884 116.241 257.154 116.099 257.41L114.974 259.672C113.969 261.709 112.594 264.539 110.901 267.991C107.488 275.041 102.965 284.854 97.873 295.66C95.3204 301.07 92.8471 306.241 90.5193 310.817C89.3422 313.132 88.2312 315.327 87.1334 317.351C86.0357 319.374 84.9776 321.239 84.184 323.012C83.4576 324.587 82.9759 326.264 82.7556 327.985C82.5963 329.29 82.6815 330.613 83.0069 331.886C83.3048 332.969 83.793 333.99 84.4485 334.902C84.2272 334.707 84.0316 334.485 83.8666 334.241C83.3603 333.552 82.9838 332.776 82.7556 331.953C82.3775 330.666 82.2473 329.32 82.372 327.985C82.5681 326.208 83.0505 324.475 83.8005 322.853C84.5808 321.041 85.6389 319.163 86.6837 317.126C87.7286 315.089 88.8528 312.894 90.0035 310.579C92.3048 305.937 94.7516 300.805 97.3043 295.409C102.383 284.603 106.986 274.816 110.53 267.819C112.276 264.314 113.758 261.51 114.802 259.593L116.032 257.384C116.14 257.11 116.278 256.848 116.442 256.604Z" fill="#455A64"/>
<path d="M106.403 379.262C108.255 379.844 170.418 355.72 170.418 355.72L223.123 395.795L226.972 397.342L235.556 373.535C235.556 373.535 198.668 337.018 186.157 325.115C182.85 321.98 176.462 318.779 170.814 319.586C157.707 321.478 107.924 338.103 107.924 338.103L106.403 379.262Z" fill="#263238"/>
<path opacity="0.3" d="M109.459 373.747C113.612 376.464 118.476 377.89 123.439 377.847L129.682 377.212L128.465 371.591C128.465 371.591 113.612 374.421 109.459 373.747Z" fill="black"/>
<path d="M138.503 368.257C138.128 368.512 137.718 368.713 137.286 368.853C136.506 369.197 135.342 369.646 133.887 370.175C130.105 371.558 126.217 372.633 122.262 373.389C118.296 374.175 114.241 374.402 110.213 374.064C109.446 373.998 108.745 373.892 108.136 373.786C107.528 373.68 107.012 373.588 106.602 373.482C106.145 373.412 105.7 373.278 105.279 373.085C105.279 372.966 107.171 373.389 110.226 373.574C114.214 373.765 118.21 373.477 122.129 372.715C126.047 371.948 129.916 370.95 133.715 369.726C136.665 368.76 138.464 368.165 138.503 368.257Z" fill="#455A64"/>
<path d="M171.37 346.687C171.335 348.186 171.22 349.683 171.026 351.17C170.893 353.63 171.118 355.641 170.92 355.667C169.99 352.716 170.149 349.53 171.37 346.687Z" fill="#455A64"/>
<path d="M207.344 198.924L199.078 211.727L215.346 218.353L222.237 200.088L212.04 196.332L207.344 198.924Z" fill="#AE7461"/>
<path d="M200.388 188.039C199.983 187.31 199.879 186.451 200.097 185.645C200.577 184.597 201.314 183.687 202.24 183C202.24 183 202.901 186.968 202.795 187.087L200.388 188.039Z" fill="#AE7461"/>
<path d="M207.834 201.557L201.896 191.862L202.253 183.926C202.253 183.926 201.935 177.975 204.792 176.996C204.792 176.996 206.511 176.083 207.596 177.26C207.596 177.26 207.913 175.766 210.162 175.858L211.736 176.718C211.736 176.718 212.781 175.396 213.878 175.396C214.774 175.556 215.6 175.985 216.246 176.626C216.246 176.626 216.815 175.462 218.534 175.964C220.253 176.467 222.079 179.654 222.502 180.752C223.578 184.779 224.242 188.905 224.486 193.066C224.314 195.354 221.84 201.001 221.84 201.001L207.834 201.557Z" fill="#AE7461"/>
<path d="M202.755 184.534C202.755 184.534 199.925 187.179 199.316 187.96C198.768 189.158 198.3 190.39 197.914 191.65C197.478 192.536 196.195 193.607 197.266 194.295C197.8 194.586 198.417 194.684 199.014 194.573C199.611 194.462 200.152 194.149 200.546 193.687C201.784 191.69 202.898 189.618 203.879 187.484L202.755 184.534Z" fill="#FFBF9D"/>
<path d="M199.144 193.674C198.446 194.764 198.204 196.084 198.47 197.351C198.622 197.923 198.97 198.425 199.453 198.768C199.936 199.111 200.524 199.274 201.115 199.229C201.095 199.594 201.159 199.959 201.303 200.295C201.446 200.631 201.665 200.93 201.943 201.168C202.22 201.406 202.549 201.576 202.903 201.667C203.257 201.757 203.627 201.765 203.985 201.689C203.985 201.689 203.191 202.562 204.66 203.144L208.839 197.774C208.839 197.774 209.421 197.298 209.394 195.566C209.394 194.415 208.839 192.537 207.278 193.013C207.278 193.013 207.067 190.989 205.638 190.513C204.21 190.037 203.787 191.042 203.787 191.042C203.647 190.788 203.427 190.587 203.162 190.47C202.897 190.353 202.6 190.326 202.319 190.394C201.128 190.513 199.144 193.674 199.144 193.674Z" fill="#FFBF9D"/>
<path d="M142.167 272.461C139.946 270.028 138.705 266.858 138.683 263.563C138.661 260.269 139.86 257.082 142.048 254.619C142.842 253.733 143.776 252.983 144.812 252.397C151.743 248.549 185.522 236.288 185.522 236.288L202.809 203.144L221.074 207.402C221.074 207.402 207.477 249.25 197.36 255.439C185.747 262.555 165.617 273.533 158.263 275.847" fill="#E0E0E0"/>
<path d="M158.263 275.794C158.404 275.709 158.555 275.642 158.713 275.596C159.017 275.477 159.48 275.318 160.036 275.067C161.213 274.577 162.959 273.837 165.154 272.779C169.558 270.689 175.867 267.422 183.552 263.11C187.4 260.954 191.606 258.547 196.063 255.836C197.21 255.209 198.262 254.421 199.185 253.495C200.121 252.515 200.983 251.468 201.764 250.36C203.389 248.011 204.86 245.559 206.168 243.02C209.001 237.514 211.553 231.868 213.813 226.104C216.207 220.112 218.535 213.79 220.717 207.243L220.955 207.68L208.893 204.916L202.729 203.434L203.113 203.262C196.976 214.981 191.143 226.143 185.8 236.328V236.447H185.694C176.436 239.806 167.918 243.06 160.353 245.93C156.57 247.398 153.026 248.813 149.772 250.202C148.145 250.903 146.598 251.59 145.169 252.344C143.813 253.051 142.627 254.044 141.691 255.254C140.041 257.287 139.065 259.783 138.9 262.396C138.8 264.337 139.102 266.278 139.786 268.097C140.393 269.611 141.213 271.032 142.22 272.316C142.22 272.316 142.141 272.25 142.008 272.091C141.876 271.932 141.651 271.694 141.4 271.363C140.025 269.594 139.115 267.51 138.752 265.299C138.39 263.088 138.586 260.822 139.324 258.706C139.813 257.372 140.514 256.127 141.4 255.016C142.352 253.751 143.571 252.712 144.971 251.974C146.413 251.194 147.96 250.493 149.587 249.778C152.827 248.363 156.372 246.922 160.168 245.44C167.72 242.451 176.237 239.237 185.483 235.851L185.311 235.997C190.601 225.76 196.473 214.584 202.584 202.839L202.703 202.614H202.954L209.17 204.043L221.233 206.807L221.603 206.899L221.484 207.257C219.288 213.834 216.974 220.134 214.54 226.157C212.267 231.935 209.693 237.59 206.829 243.099C205.505 245.663 204.007 248.133 202.346 250.493C201.551 251.628 200.666 252.699 199.701 253.693C198.74 254.645 197.649 255.455 196.46 256.101C191.99 258.746 187.771 261.179 183.895 263.322C176.171 267.581 169.823 270.781 165.379 272.818C163.157 273.837 161.411 274.538 160.194 274.987C159.599 275.225 159.123 275.358 158.872 275.464L158.263 275.794Z" fill="#263238"/>
<path d="M296.41 146.245C293.473 147.977 254.43 176.149 251.084 185.724C247.738 195.3 260.236 264.671 260.236 264.671L288.011 263.348L280.618 197.43L336.167 164.536L339.91 130.148L296.41 146.245Z" fill="#263238"/>
<path d="M329.276 160.582L360.503 194.176C360.503 194.176 364.788 209.439 368.439 219.425C372.089 229.41 378.253 246.049 378.253 246.049L384.985 268.163L406.702 263.362C406.702 263.362 398.594 227.982 396.505 214.346C394.833 204.659 392.472 195.103 389.442 185.751L372.169 142.105L353.374 117.465L329.276 160.582Z" fill="#263238"/>
<path opacity="0.3" d="M279.824 158.466C279.824 158.466 304.2 167.817 312.281 166.137C320.362 164.457 333.84 144.565 333.84 144.565L353.679 164.656L377.697 155.979L375.753 148.229C375.753 148.229 341.286 139.328 341.22 139.222C341.154 139.116 328.734 139.222 328.734 139.222L307.864 153.625L285.273 153.916L279.824 158.466Z" fill="black"/>
<path d="M398.065 246.287L405.26 269.01L416.119 285.344C416.305 285.623 416.431 285.937 416.49 286.267C416.55 286.596 416.54 286.935 416.464 287.261C416.387 287.587 416.244 287.894 416.043 288.162C415.843 288.431 415.59 288.656 415.299 288.822C414.961 289.015 414.582 289.124 414.193 289.141C413.804 289.157 413.417 289.079 413.064 288.915C408.501 286.785 392.087 278.956 391.294 277.196C390.5 275.437 382.128 253.694 382.128 253.694L398.065 246.287Z" fill="#263238"/>
<path d="M415.298 288.823L390.777 275.676L391.095 276.628C391.378 277.457 391.944 278.16 392.695 278.612C394.705 279.802 400.313 282.977 412.997 288.942C413.361 289.112 413.761 289.191 414.163 289.17C414.564 289.149 414.954 289.03 415.298 288.823Z" fill="#E0E0E0"/>
<path d="M406.794 280.728C407.028 279.812 407.504 278.975 408.172 278.305C408.839 277.635 409.674 277.157 410.59 276.919C410.59 276.853 410.246 276.773 409.703 276.919C408.981 277.076 408.32 277.439 407.799 277.964C407.28 278.489 406.918 279.149 406.754 279.868C406.635 280.384 406.714 280.728 406.794 280.728Z" fill="white"/>
<path d="M409.439 283.201C409.585 283.201 410.061 282.275 411.106 281.547C411.784 281.159 412.486 280.814 413.209 280.516C412.788 280.413 412.349 280.414 411.929 280.52C411.51 280.626 411.122 280.834 410.801 281.124C409.585 281.958 409.28 283.174 409.439 283.201Z" fill="white"/>
<path d="M402.469 277.871C403.199 276.909 403.999 276.003 404.863 275.16C405.842 274.443 406.872 273.798 407.944 273.229C406.682 273.393 405.493 273.919 404.522 274.742C403.55 275.566 402.838 276.652 402.469 277.871Z" fill="white"/>
<path d="M399.705 271.152C399.811 271.271 400.882 270.319 402.483 269.71C404.083 269.102 405.498 269.049 405.498 268.89C404.421 268.622 403.284 268.739 402.284 269.221C401.224 269.54 400.31 270.224 399.705 271.152Z" fill="white"/>
<path d="M273.555 192.854C275.075 192.847 276.555 193.334 277.774 194.242C279.118 194.947 280.206 196.058 280.882 197.417C280.723 197.549 279.427 196.094 277.404 194.771C275.38 193.449 273.502 193.026 273.555 192.854Z" fill="#455A64"/>
<path d="M384.31 197.734C384.31 197.801 383.874 198.356 382.868 199.057C381.555 199.902 380.084 200.473 378.544 200.737C377.008 201 375.435 200.96 373.914 200.618C373.269 200.526 372.655 200.276 372.129 199.89C374.208 200.254 376.33 200.308 378.424 200.049C380.486 199.559 382.467 198.779 384.31 197.734Z" fill="#455A64"/>
<path d="M265.619 246.393L266.545 267.448C266.545 267.448 245.383 275.384 245.237 279.352L286.132 279.021L284.558 248.985L265.619 246.393Z" fill="#263238"/>
<path d="M286.133 279.035L285.987 275.729L246.838 277.276C246.838 277.276 245.026 278.083 245.238 279.366L286.133 279.035Z" fill="#E0E0E0"/>
<path d="M265.884 267.237C265.884 267.436 266.889 267.528 267.867 268.163C268.846 268.798 269.388 269.631 269.574 269.552C269.759 269.473 269.455 268.309 268.251 267.568C267.047 266.827 265.831 267.065 265.884 267.237Z" fill="white"/>
<path d="M261.599 269.049C261.599 269.248 262.432 269.578 263.106 270.372C263.781 271.165 263.993 272.105 264.204 272.091C264.416 272.078 264.508 270.954 263.649 269.922C262.789 268.891 261.612 268.864 261.599 269.049Z" fill="white"/>
<path d="M259.205 274.207C259.39 274.207 259.654 273.242 259.205 272.157C258.755 271.073 257.75 270.636 257.657 270.835C257.565 271.033 258.16 271.575 258.583 272.475C259.006 273.374 259.006 274.181 259.205 274.207Z" fill="white"/>
<path d="M263.648 90.828L289.849 127.292L300.43 135.003L297.296 143.19L282.496 156.337C282.496 156.337 307.017 166.508 316.037 160.635C325.057 154.763 333.654 140.532 333.654 140.532L355.768 161.601L383.543 150.544C383.543 150.544 371.388 126.3 354.591 112.479L344.632 81.821L326.115 53.4775L303.631 60.8048L271.65 83.0775L263.648 90.828Z" fill="#FF6420"/>
<path d="M284.519 77.1387C286.026 77.1387 302.876 87.0054 302.876 87.0054L306.553 65.8437L303.815 60.8574L309.278 62.8413L318.073 71.3325L339.962 105.853C338.402 114.635 333.019 127.676 332.86 132.305C332.86 132.305 309.595 130.321 304.252 119.079C298.909 107.836 287.547 87.336 287.547 87.336L284.519 77.1387Z" fill="white"/>
<path d="M307.704 99.9674C307.704 101.859 313.868 128.218 318.999 129.647C324.131 131.075 332.133 132.424 332.133 132.424V119.767L311.474 95.5764L310.865 89.0956L303.287 88.2227L301.422 97.6264L307.704 99.9674Z" fill="#FF6420"/>
<path d="M270.169 85.9336C270.169 85.9336 265.077 90.404 263.648 90.8272C262.22 91.2505 256.81 105.905 256.81 105.905L242.936 140.359L218.534 172.922L232.276 185.724C232.276 185.724 263.053 154.67 265.222 146.324L280.379 114.965L270.169 85.9336Z" fill="#FF6420"/>
<path d="M333.799 139.222C333.72 139.142 335.003 137.899 336.881 135.558C338.759 133.217 341.259 130.056 343.891 126.392L350.623 116.975C351.496 115.772 352.223 114.82 352.739 114.172C352.98 113.811 353.269 113.486 353.599 113.206C352.83 114.611 351.968 115.963 351.02 117.253C349.38 119.713 347.052 123.112 344.407 126.789C342.173 129.949 339.767 132.982 337.198 135.876C336.207 136.987 335.36 137.833 334.738 138.402C334.117 138.97 333.826 139.261 333.799 139.222Z" fill="#263238"/>
<path d="M317.769 134.355C316.459 134.309 315.157 134.137 313.88 133.839C311.5 133.416 308.233 132.715 304.622 131.763C301.011 130.811 297.877 129.779 295.589 128.972C294.337 128.588 293.124 128.088 291.965 127.478C293.252 127.719 294.517 128.064 295.748 128.509C298.049 129.197 301.25 130.149 304.807 131.154C308.365 132.16 311.592 132.874 313.947 133.429C315.245 133.629 316.524 133.938 317.769 134.355Z" fill="#263238"/>
<path d="M269.389 101.145C269.734 101.415 270.041 101.731 270.301 102.084C270.857 102.732 271.624 103.657 272.576 104.821C274.481 107.149 277.073 110.403 279.89 114.08C282.707 117.756 285.181 120.984 287.045 123.338C287.945 124.541 288.672 125.52 289.148 126.208C289.433 126.544 289.669 126.918 289.849 127.319C289.507 127.041 289.2 126.721 288.937 126.367C288.381 125.732 287.614 124.793 286.662 123.629C284.757 121.301 282.165 118.061 279.348 114.45C276.531 110.839 274.057 107.559 272.193 105.192C271.293 103.988 270.579 103.009 270.09 102.322C269.8 101.966 269.564 101.569 269.389 101.145Z" fill="#263238"/>
<path d="M315.534 69.3086C315.661 70.8535 315.661 72.4061 315.534 73.951C315.534 76.821 315.376 80.7756 315.204 85.1534C315.204 86.6744 315.085 88.1293 315.019 89.5048V89.8619H314.714C311.395 89.4784 308.538 89.108 306.501 88.8303C305.414 88.7418 304.338 88.5514 303.287 88.2616C304.374 88.217 305.463 88.2701 306.541 88.4203C308.564 88.579 311.408 88.8567 314.701 89.2006L314.371 89.5181C314.371 88.1954 314.476 86.6877 314.529 85.1667C314.701 80.7888 314.886 76.8342 315.072 73.9774C315.113 72.412 315.268 70.8517 315.534 69.3086Z" fill="#263238"/>
<path d="M289.426 91.2647C290.541 91.7596 291.608 92.3574 292.613 93.0502C294.531 94.2273 297.163 95.8938 300.046 97.7719L301.369 98.6184L300.853 98.8035C301.647 95.8938 302.176 93.1824 302.546 91.2779C302.703 90.2386 302.956 89.2159 303.3 88.2227C303.315 89.2756 303.213 90.3269 302.996 91.3572C302.633 93.9345 302.134 96.4907 301.501 99.0151L301.382 99.4516L300.985 99.2003L299.663 98.3406C296.793 96.4625 294.2 94.7431 292.349 93.4602C291.304 92.8265 290.325 92.0911 289.426 91.2647Z" fill="#263238"/>
<path d="M326.035 53.4772C326.035 53.4772 332.133 51.4271 335.36 52.882C341.589 55.7256 381.942 77.4428 383.622 78.6067C385.302 79.7706 407.191 115.084 407.191 115.084L392.179 124.343L370.779 94.9806L331.762 80.3129C331.762 80.3129 325.85 72.6947 324.898 66.28C324.404 61.9795 324.791 57.6232 326.035 53.4772Z" fill="#FF6420"/>
<path d="M344.632 81.8203C345.231 83.2068 345.756 84.624 346.206 86.0659L349.909 96.3293C352.845 104.344 355.054 110.878 354.737 111.01C354.546 110.652 354.391 110.275 354.274 109.886C353.93 109.013 353.546 107.981 353.083 106.804C352.091 104.159 350.716 100.588 349.261 96.5674C347.806 92.5467 346.616 88.8963 345.743 86.2246C345.333 84.902 345.029 83.791 344.843 83.0239C344.722 82.6332 344.651 82.2288 344.632 81.8203Z" fill="#263238"/>
<path d="M336.828 73.1709C336.085 72.6518 335.428 72.0179 334.884 71.2928C333.456 69.6399 332.214 67.8347 331.181 65.9098C330.163 63.9815 329.351 61.9511 328.76 59.8522C328.454 59.0035 328.293 58.1093 328.284 57.207C329.308 60.0644 330.486 62.8637 331.816 65.5924C333.355 68.2031 335.028 70.7326 336.828 73.1709Z" fill="#263238"/>
<path d="M330.586 137.49C329.426 137.819 328.232 138.018 327.028 138.085C324.137 138.379 321.23 138.485 318.325 138.402C315.419 138.313 312.521 138.039 309.649 137.582C308.449 137.449 307.269 137.178 306.131 136.775C307.332 136.787 308.531 136.893 309.715 137.093C311.911 137.344 315.006 137.609 318.339 137.714C321.671 137.82 324.78 137.714 326.988 137.595C328.183 137.467 329.386 137.432 330.586 137.49Z" fill="#263238"/>
<path d="M307.863 62.3789H308.432C308.987 62.4107 309.54 62.4814 310.085 62.5905C312.119 63.0954 314.069 63.8881 315.878 64.9448C322.073 68.8199 327.64 73.619 332.384 79.176L332.583 79.4009L332.371 79.6125C331.472 80.5251 330.493 81.517 329.514 82.5354L329.276 81.9667H333.033L333.112 82.1784C334.289 85.2468 335.532 88.4607 336.802 91.754C338.23 95.4706 339.619 99.0813 340.915 102.48V102.56C340.397 107.439 339.181 112.218 337.305 116.751C335.867 120.33 334.674 124.002 333.734 127.742C333.143 130.215 332.867 132.752 332.914 135.294C332.914 137.067 333.165 138.032 333.112 138.032C333.03 137.81 332.972 137.579 332.94 137.344C332.816 136.667 332.732 135.982 332.689 135.294C332.544 132.73 332.754 130.157 333.31 127.65C334.198 123.876 335.348 120.168 336.749 116.553C338.574 112.065 339.749 107.34 340.241 102.52V102.652C338.918 99.2532 337.595 95.6425 336.101 91.9392C334.84 88.6327 333.614 85.4364 332.424 82.3503L332.742 82.5619H328.43L328.985 82.0064L331.855 79.0967V79.5331C327.174 73.9972 321.712 69.172 315.64 65.2093C313.879 64.1375 311.985 63.3015 310.006 62.7228C308.644 62.5112 307.863 62.445 307.863 62.3789Z" fill="#263238"/>
<path d="M282.033 115.798C279.099 116.295 276.133 116.569 273.158 116.618C270.19 116.889 267.205 116.934 264.23 116.75C267.167 116.245 270.139 115.971 273.118 115.93C276.082 115.651 279.062 115.607 282.033 115.798Z" fill="#263238"/>
<path d="M312.81 129.369C312.617 129.36 312.426 129.329 312.241 129.276C311.691 129.177 311.148 129.044 310.614 128.879C308.631 128.276 306.737 127.413 304.98 126.314C302.336 124.65 299.876 122.713 297.639 120.534C295.073 118.087 292.415 115.243 289.598 112.095L289.386 111.857L289.598 111.633C290.709 110.495 291.648 109.053 292.878 107.757L293.288 108.3L292.217 108.882L288.156 111.077L287.786 111.275L287.654 110.879C285.442 103.836 283.823 96.6198 282.813 89.307C282.429 86.5427 282.218 84.3075 282.099 82.7733C282.032 82.0062 282.019 81.4507 281.993 81.0142C281.961 80.8082 281.961 80.5985 281.993 80.3926C282.064 80.5879 282.104 80.7932 282.112 81.001L282.337 82.7468C282.522 84.281 282.813 86.4898 283.249 89.2408C284.398 96.503 286.087 103.669 288.302 110.68L287.799 110.482L291.873 108.273L292.944 107.691L294.875 106.646L293.367 108.233C292.19 109.463 291.238 110.879 290.074 112.109V111.646C292.878 114.741 295.497 117.65 298.01 120.097C300.199 122.275 302.6 124.229 305.178 125.93C307.556 127.414 310.123 128.57 312.81 129.369Z" fill="#263238"/>
<path d="M332.331 132.424C331.067 132.455 329.803 132.349 328.562 132.107C325.535 131.694 322.546 131.044 319.621 130.162C316.684 129.279 313.864 128.045 311.222 126.486C310.1 125.892 309.064 125.149 308.141 124.277C308.207 124.184 309.463 124.978 311.46 126.062C314.131 127.472 316.93 128.623 319.819 129.501C326.604 131.525 332.371 132.173 332.331 132.424Z" fill="#263238"/>
<g opacity="0.3">
<path d="M335.492 137.727C339.994 136.424 343.949 133.69 346.758 129.939C349.567 126.187 351.077 121.622 351.059 116.936" fill="black"/>
</g>
<g opacity="0.3">
<path d="M319.502 67.3516C325.298 70.3448 330.344 74.6082 334.262 79.8238C333.792 80.0455 333.423 80.4379 333.231 80.9215L335.148 81.4638C336.542 87.151 337.926 92.8382 339.301 98.5254L332.728 81.7548L329.554 82.0854L332.53 79.4402C328.912 76.323 325.631 72.8342 322.742 69.0313" fill="black"/>
</g>
<path opacity="0.3" d="M292.971 93.5658L303.287 103.062L304.887 90.0873L317.267 90.8412L315.495 74.917L314.754 88.3679L303.287 87.7463L301.171 98.9091" fill="black"/>
<path opacity="0.3" d="M345.716 85.5772L342.198 74.917L349.618 87.0453L345.716 85.5772Z" fill="black"/>
<path d="M377.446 83.9899C376.416 84.7328 375.502 85.6242 374.734 86.6351C374.135 87.7373 373.69 88.9167 373.412 90.14C373.332 90.14 373.187 89.7035 373.226 88.9629C373.299 87.9966 373.617 87.0648 374.149 86.255C374.681 85.4452 375.41 84.7841 376.268 84.3338C376.956 83.9502 377.419 83.9105 377.446 83.9899Z" fill="#263238"/>
<path d="M267.325 23.1629C266.509 22.7164 265.573 22.5351 264.649 22.6442C263.725 22.7532 262.857 23.1471 262.167 23.7713C260.798 23.6745 259.436 24.0385 258.297 24.8055C257.159 25.5725 256.309 26.6983 255.885 28.0037C254.943 28.0441 254.027 28.3271 253.226 28.8254C252.425 29.3237 251.767 30.0204 251.315 30.8479C250.862 31.6754 250.631 32.6057 250.644 33.5487C250.657 34.4917 250.913 35.4154 251.388 36.2303C250.512 36.6213 249.782 37.2774 249.299 38.106C248.817 38.9346 248.607 39.8938 248.699 40.8482C248.791 41.8026 249.181 42.704 249.813 43.4251C250.445 44.1462 251.287 44.6505 252.221 44.8669C251.539 45.7116 251.193 46.7792 251.252 47.8635C251.31 48.9479 251.769 49.9721 252.538 50.7384C253.308 51.5046 254.334 51.9585 255.419 52.0124C256.503 52.0663 257.569 51.7164 258.411 51.0303L269.428 27.9111C269.612 26.9993 269.508 26.0531 269.131 25.2028C268.755 24.3524 268.124 23.6397 267.325 23.1629Z" fill="#263238"/>
<path d="M258.212 51.8897C255.995 47.7676 255.411 42.9621 256.575 38.4287C257.739 33.8952 260.566 29.9658 264.495 27.4215L265.301 26.9057C274.361 21.7607 283.818 26.5883 288.685 35.7936L303.816 60.9232L306.567 65.7771L303.485 86.5421L287.191 80.339L284.757 76.8077C284.757 76.8077 275.499 80.9342 269.983 72.6018C267.312 68.5282 262.484 59.8386 258.212 51.8897Z" fill="#FFBF9D"/>
<path d="M284.783 76.8085C288.647 74.2805 291.707 70.7012 293.605 66.4922C293.605 66.4922 294.928 74.2162 286.172 78.8454L284.783 76.8085Z" fill="#FF9A6C"/>
<path d="M265.672 58.0929C265.869 58.4081 266.182 58.6333 266.543 58.7199C266.904 58.8065 267.285 58.7475 267.603 58.5558C267.768 58.4744 267.914 58.3595 268.032 58.2185C268.151 58.0774 268.238 57.9132 268.289 57.7365C268.34 57.5597 268.354 57.3743 268.329 57.1919C268.304 57.0096 268.242 56.8345 268.145 56.6777C267.946 56.3616 267.631 56.1361 267.268 56.0496C266.904 55.9631 266.521 56.0224 266.201 56.2148C266.037 56.2974 265.892 56.4131 265.776 56.5547C265.659 56.6964 265.573 56.8607 265.523 57.0374C265.473 57.214 265.461 57.3991 265.487 57.5808C265.512 57.7625 265.575 57.9369 265.672 58.0929Z" fill="#263238"/>
<path d="M262.855 55.3023C263.106 55.3023 263.569 54.1119 264.865 53.2787C266.161 52.4454 267.511 52.4851 267.511 52.2338C267.511 51.9825 267.193 51.9296 266.585 51.9032C265.78 51.879 264.986 52.1004 264.31 52.538C263.637 52.9702 263.118 53.6046 262.828 54.35C262.63 54.9319 262.736 55.3023 262.855 55.3023Z" fill="#263238"/>
<path d="M277.086 51.4933C277.283 51.8085 277.596 52.0336 277.957 52.1203C278.318 52.2069 278.699 52.1479 279.017 51.9562C279.182 51.8748 279.328 51.7599 279.447 51.6188C279.565 51.4778 279.652 51.3136 279.703 51.1369C279.754 50.9601 279.768 50.7746 279.743 50.5923C279.718 50.41 279.656 50.2349 279.559 50.0781C279.36 49.762 279.045 49.5365 278.682 49.45C278.318 49.3634 277.935 49.4227 277.615 49.6152C277.451 49.6977 277.306 49.8135 277.19 49.9551C277.073 50.0967 276.987 50.2611 276.937 50.4378C276.887 50.6144 276.875 50.7995 276.901 50.9812C276.926 51.1629 276.989 51.3373 277.086 51.4933Z" fill="#263238"/>
<path d="M275.076 47.1552C275.327 47.1552 275.803 45.9649 277.086 45.1316C278.369 44.2984 279.731 44.3248 279.731 44.0867C279.731 43.8487 279.427 43.7826 278.819 43.7561C278.009 43.7292 277.21 43.9507 276.53 44.391C275.861 44.8272 275.344 45.4603 275.049 46.2029C274.904 46.7717 274.957 47.142 275.076 47.1552Z" fill="#263238"/>
<path d="M277.006 59.4688C276.189 59.6972 275.402 60.0259 274.665 60.4475C274.321 60.6194 273.964 60.7649 273.766 60.5665C273.514 60.2496 273.37 59.8602 273.356 59.4555C273.144 58.4503 272.933 57.4055 272.708 56.3077C272.234 53.6115 271.544 50.9578 270.645 48.3721C270.9 51.1167 271.373 53.8366 272.06 56.5061C272.298 57.5906 272.536 58.6355 272.761 59.6275C272.81 60.1578 273.044 60.6539 273.422 61.0294C273.544 61.1133 273.684 61.1688 273.83 61.1917C273.977 61.2145 274.126 61.2043 274.268 61.1617C274.49 61.0996 274.7 61.0013 274.89 60.8707C275.654 60.4986 276.366 60.0272 277.006 59.4688Z" fill="#263238"/>
<path d="M272.669 43.478C273.039 43.716 273.991 42.6976 275.314 41.8512C276.637 41.0047 277.959 40.5285 277.959 40.1318C277.959 39.9334 277.496 39.7747 276.835 39.7879C276.002 39.8404 275.196 40.1044 274.494 40.555C273.791 40.9952 273.22 41.6166 272.841 42.3537C272.523 42.9225 272.51 43.3986 272.669 43.478Z" fill="#263238"/>
<path d="M260.857 51.5989C261.254 51.7709 262.021 50.9509 263.132 50.2763C264.243 49.6018 265.314 49.3637 265.367 48.9537C265.367 48.7421 265.063 48.5173 264.481 48.4511C263.738 48.3913 262.994 48.5622 262.352 48.9405C261.705 49.3131 261.185 49.8704 260.857 50.5409C260.632 51.1096 260.672 51.5064 260.857 51.5989Z" fill="#263238"/>
<path d="M256.519 47.5257C256.519 47.5257 255.342 40.8333 257.075 37.9632C259.191 34.498 262.683 37.0109 265.01 34.2996C267.338 31.5882 269.415 28.2685 273.872 28.5991C278.739 28.9562 278.329 31.6808 280.948 35.2122C291.529 49.7609 297.044 52.2738 293.235 44.6556C292.812 43.8091 294.557 41.7988 292.772 38.2938C290.418 33.7573 287.23 28.4669 284.32 26.0597C281.789 24.0376 278.646 22.9368 275.406 22.9384C269.296 22.5416 263.595 26.1391 259.998 29.0091C256.4 31.8792 251.917 41.1639 256.519 47.5257Z" fill="#263238"/>
<path d="M292.614 44.8274C292.425 44.5126 292.303 44.1629 292.253 43.7994C292.204 43.4358 292.229 43.066 292.326 42.7124C292.424 42.3587 292.593 42.0286 292.822 41.7419C293.051 41.4553 293.335 41.2181 293.659 41.0447C295.325 40.185 297.626 39.947 299.624 43.2403C303.155 49.0994 296.542 51.4404 296.436 51.2817C296.33 51.123 294.069 47.3668 292.614 44.8274Z" fill="#FFBF9D"/>
<path d="M296.383 48.306C296.383 48.306 296.528 48.306 296.753 48.306C297.058 48.2608 297.332 48.0996 297.52 47.8563C297.752 47.389 297.856 46.8686 297.821 46.3482C297.786 45.8277 297.614 45.3258 297.322 44.8936C297.038 44.3711 296.64 43.9191 296.158 43.571C295.992 43.422 295.792 43.3154 295.575 43.2601C295.359 43.2049 295.132 43.2026 294.915 43.2536C294.778 43.2932 294.659 43.3798 294.579 43.4983C294.499 43.6168 294.464 43.7596 294.478 43.9017C294.478 44.1133 294.611 44.2059 294.584 44.2323C294.558 44.2588 294.399 44.2323 294.307 43.9414C294.247 43.7791 294.247 43.601 294.307 43.4388C294.395 43.2194 294.566 43.0436 294.783 42.9494C295.051 42.8471 295.342 42.8177 295.625 42.8642C295.909 42.9107 296.175 43.0313 296.396 43.2139C296.947 43.5691 297.402 44.0554 297.719 44.6291C298.058 45.136 298.239 45.7321 298.239 46.3419C298.239 46.9517 298.058 47.5477 297.719 48.0547C297.587 48.1937 297.426 48.3023 297.248 48.3731C297.07 48.4439 296.879 48.4752 296.687 48.4647C296.476 48.4382 296.37 48.3324 296.383 48.306Z" fill="#FF9A6C"/>
<path d="M285.313 33.7836C284.972 34.7934 284.386 35.7025 283.606 36.4289C283.203 36.785 282.683 36.9815 282.145 36.9815C281.607 36.9815 281.087 36.785 280.683 36.4289C280.353 36.0718 280.154 35.5427 279.691 35.4105C279.229 35.2782 278.633 35.7279 278.184 36.0982C277.386 36.7058 276.404 37.0203 275.402 36.989C274.4 36.9577 273.44 36.5824 272.682 35.9263C272.61 36.3772 272.372 36.7849 272.014 37.0689C271.657 37.3529 271.206 37.4926 270.751 37.4605C269.842 37.364 268.952 37.1415 268.105 36.7992C267.675 36.6224 267.208 36.5564 266.746 36.6073C266.284 36.6581 265.842 36.8241 265.46 37.0902C265.077 37.4208 264.839 37.9234 264.389 38.1615C263.595 38.5847 262.656 37.9366 262.048 37.2621C261.439 36.5876 260.805 35.7808 259.905 35.7808C259.006 35.7808 258.437 36.5082 257.816 37.1034C257.194 37.6986 256.189 38.0821 255.567 37.5134C255.421 37.351 255.309 37.1606 255.239 36.9537C255.168 36.7468 255.14 36.5278 255.157 36.3098C255.178 35.3138 255.536 34.3544 256.173 33.5881C256.809 32.8218 257.687 32.2939 258.662 32.0907C258.332 30.9519 258.346 29.7411 258.702 28.6103C259.058 27.4795 259.741 26.479 260.663 25.7345C261.586 24.9899 262.708 24.5345 263.888 24.4252C265.069 24.316 266.255 24.5579 267.299 25.1206C267.552 24.1745 268.029 23.3033 268.69 22.5808C269.351 21.8582 270.177 21.3055 271.097 20.9695C272.016 20.6334 273.004 20.5239 273.975 20.6502C274.946 20.7765 275.873 21.1349 276.676 21.695C277.255 21.0552 278.01 20.5998 278.846 20.3853C279.682 20.1707 280.563 20.2066 281.378 20.4884C282.194 20.7702 282.909 21.2856 283.435 21.9704C283.96 22.6552 284.273 23.4792 284.334 24.3402C285.04 24.2587 285.755 24.3579 286.412 24.6286C287.069 24.8993 287.646 25.3326 288.09 25.8877C288.288 26.1739 288.422 26.5 288.481 26.8431C288.541 27.1862 288.524 27.5382 288.434 27.8744C288.343 28.2107 288.18 28.523 287.956 28.7898C287.732 29.0566 287.453 29.2713 287.138 29.419C287.664 29.7418 288.049 30.2517 288.215 30.8464C288.381 31.4411 288.317 32.0767 288.034 32.6256C287.751 33.1745 287.271 33.5962 286.69 33.806C286.11 34.0159 285.471 33.9985 284.903 33.7572" fill="#263238"/>
<path d="M281.53 59.4559C281.598 59.3133 281.715 59.2005 281.86 59.1385C282.003 59.1241 282.146 59.1669 282.257 59.2575C282.741 59.5802 283.135 60.0198 283.403 60.5354C283.671 61.0509 283.805 61.6259 283.792 62.2069C283.757 62.5953 283.624 62.9684 283.404 63.2908C283.185 63.6132 282.887 63.8743 282.539 64.0492C282.19 64.2241 281.803 64.307 281.413 64.2901C281.024 64.2733 280.645 64.1571 280.313 63.9528L279.229 63.3047L281.53 59.4559Z" fill="#FF9A6C"/>
<path d="M280.935 64.2561C281.247 64.359 281.578 64.3899 281.903 64.3463C282.228 64.3028 282.539 64.186 282.813 64.0048C283.12 63.8439 283.376 63.6013 283.554 63.3038C283.789 62.9837 283.927 62.6025 283.95 62.206C283.954 61.3203 283.66 60.4589 283.117 59.7592C282.989 59.569 282.847 59.3878 282.694 59.2169C282.603 59.1126 282.491 59.0282 282.366 58.969C282.241 58.9099 282.105 58.8772 281.967 58.873C281.83 58.8945 281.701 58.9491 281.59 59.0321C281.479 59.1151 281.391 59.224 281.332 59.3492L281.054 59.865L280.088 61.6505C279.758 62.1862 279.492 62.7589 279.295 63.3567C279.711 62.8875 280.067 62.3676 280.353 61.8092L281.411 60.0766C281.609 59.7724 281.808 59.2831 281.993 59.3095C282.178 59.336 282.522 59.6798 282.76 60.0105C283.232 60.6441 283.503 61.4039 283.54 62.1928C283.524 62.5231 283.419 62.843 283.236 63.1186C283.1 63.3731 282.899 63.5874 282.654 63.7402C282.125 64.0335 281.538 64.2094 280.935 64.2561Z" fill="#263238"/>
<path d="M287.548 29.1943C287.701 29.3751 287.812 29.5873 287.874 29.8159C287.935 30.0444 287.946 30.2838 287.905 30.5169C287.854 31.0695 287.599 31.5833 287.191 31.9586C286.929 32.1913 286.619 32.364 286.283 32.4645C285.947 32.565 285.593 32.591 285.246 32.5405L285.471 32.3421C285.517 33.0726 285.441 33.8056 285.246 34.5112C285.123 34.9868 284.912 35.4353 284.625 35.8338C284.236 36.3261 283.704 36.6849 283.102 36.8603C282.499 37.0357 281.858 37.019 281.265 36.8126C280.8 36.6023 280.382 36.301 280.035 35.9264C279.784 35.6619 279.678 35.5032 279.692 35.49C279.705 35.4767 279.863 35.5958 280.141 35.8074C280.508 36.123 280.923 36.3776 281.371 36.5613C281.743 36.6652 282.133 36.6911 282.516 36.6374C282.898 36.5837 283.266 36.4515 283.595 36.249C283.924 36.0466 284.207 35.7783 284.428 35.4611C284.649 35.1438 284.801 34.7844 284.876 34.4054C285.047 33.736 285.122 33.0459 285.101 32.3554V32.1305H285.326C285.623 32.1788 285.926 32.1624 286.216 32.0825C286.506 32.0026 286.775 31.8611 287.006 31.6676C287.367 31.3545 287.606 30.9234 287.68 30.4508C287.719 30.0274 287.674 29.6004 287.548 29.1943Z" fill="#455A64"/>
<path d="M268.224 23.0969C268.224 23.0969 268.105 23.2292 267.92 23.5069C267.655 23.8974 267.513 24.3578 267.51 24.8295V24.9883L267.365 24.9221C266.019 24.4187 264.567 24.264 263.145 24.4724C262.205 24.6026 261.303 24.9318 260.5 25.4379C259.646 25.9994 258.963 26.7869 258.529 27.7128C258.183 28.4324 257.989 29.216 257.961 30.0142C257.956 30.7566 258.124 31.4899 258.45 32.1568L258.556 32.342L258.344 32.4081C257.403 32.7157 256.617 33.3741 256.149 34.2465C255.787 34.9323 255.649 35.7135 255.752 36.4817C255.862 37.1698 256.115 37.8274 256.493 38.4127C256.493 38.4127 256.334 38.2937 256.122 37.9895C255.82 37.549 255.617 37.0481 255.527 36.5214C255.383 35.6972 255.508 34.8484 255.884 34.101C256.37 33.1381 257.216 32.406 258.238 32.0642L258.133 32.3287C257.765 31.6128 257.574 30.819 257.577 30.0142C257.599 29.0385 257.859 28.0829 258.334 27.2302C258.809 26.3775 259.484 25.6534 260.302 25.1205C261.133 24.6003 262.067 24.2664 263.04 24.1418C264.516 23.942 266.019 24.143 267.391 24.7237L267.245 24.8295C267.258 24.3159 267.445 23.8217 267.775 23.4276C268.052 23.1763 268.211 23.0837 268.224 23.0969Z" fill="#455A64"/>
</svg>
