<svg width="431" height="324" viewBox="0 0 431 324" fill="none" xmlns="http://www.w3.org/2000/svg">
<g filter="url(#filter0_d_141_82)">
<mask id="mask0_141_82" style="mask-type:alpha" maskUnits="userSpaceOnUse" x="11" y="11" width="403" height="295">
<rect x="11" y="11" width="402.034" height="295" rx="20.7464" fill="#D9D9D9"/>
</mask>
<g mask="url(#mask0_141_82)">
<g filter="url(#filter1_d_141_82)">
<rect x="8" y="-27" width="428.689" height="380.288" fill="white"/>
</g>
<rect x="-20.0012" y="-4.00049" width="442.023" height="27.0014" fill="#FF6420"/>
<path d="M135.445 97.9857C135.772 97.7832 136.364 97.4715 136.784 97.3157H136.769C137.485 97.0352 138.388 97.0197 164.77 97.0041C191.713 96.9885 192.04 97.0041 192.881 97.3001C193.348 97.4871 194.08 97.8767 194.516 98.2039C194.937 98.5311 195.528 99.1388 195.809 99.5595C196.089 99.9958 196.432 100.681 196.556 101.118C196.743 101.757 196.774 103.377 196.774 118.024H220.291L220.54 117.588C220.68 117.354 220.758 117.027 220.711 116.855C220.664 116.684 220.446 116.076 220.228 115.484C220.01 114.908 219.777 113.926 219.73 113.303C219.668 112.633 219.699 111.807 219.823 111.246C219.932 110.732 220.197 109.968 220.431 109.547C220.649 109.127 221.194 108.457 221.63 108.067C222.05 107.678 222.798 107.163 223.265 106.93C223.732 106.712 224.558 106.4 225.118 106.26C225.866 106.057 226.567 106.01 227.766 106.057C229.136 106.119 229.604 106.197 230.647 106.618C231.332 106.883 232.454 107.475 233.139 107.927C233.824 108.379 235.07 109.423 235.927 110.233C236.768 111.043 237.967 112.383 238.574 113.194C239.197 114.004 239.836 114.908 239.991 115.188C240.163 115.468 240.412 115.687 240.536 115.687C240.661 115.687 241.144 115.905 241.58 116.154C242.094 116.45 242.576 116.886 243.34 118.024L279.081 118.102L279.813 118.445C280.234 118.647 280.935 119.146 281.371 119.566C281.9 120.05 282.367 120.673 283.13 122.309L283.177 163.445C283.208 200.187 283.177 204.674 282.975 205.516C282.834 206.03 282.507 206.793 282.227 207.214C281.947 207.635 281.48 208.18 280.639 208.866H287.148C291.774 208.866 293.736 208.912 294.001 209.053C294.188 209.146 294.421 209.333 294.53 209.473C294.655 209.645 294.717 210.408 294.733 211.748C294.733 213.104 294.655 214.086 294.484 214.709C294.359 215.223 294.063 215.986 293.83 216.423C293.596 216.843 293.02 217.591 292.552 218.074C292.085 218.557 291.307 219.134 290.839 219.383C290.372 219.617 289.593 219.944 289.126 220.1C288.301 220.381 285.684 220.396 214.762 220.396C143.839 220.396 141.223 220.381 140.398 220.1C139.93 219.944 139.152 219.617 138.684 219.383C138.217 219.134 137.439 218.557 136.971 218.074C136.504 217.591 135.928 216.843 135.694 216.423C135.461 215.986 135.165 215.223 135.04 214.709C134.869 214.101 134.791 213.088 134.791 211.779C134.791 210.689 134.838 209.691 134.9 209.551C134.978 209.411 135.211 209.193 135.445 209.084C135.788 208.912 137.205 208.866 148.807 208.866L148.029 208.087C147.608 207.65 147.063 206.902 146.393 205.516L146.316 133.606L141.612 133.559C137.111 133.528 136.862 133.512 136.193 133.185C135.803 132.998 135.149 132.546 134.729 132.172C134.261 131.751 133.794 131.128 133 129.476V101.118L133.436 100.261C133.685 99.7932 134.106 99.1699 134.37 98.8739C134.651 98.5934 135.134 98.1883 135.445 97.9857Z" fill="#2A3252"/>
<path fill-rule="evenodd" clip-rule="evenodd" d="M192.492 98.1572L193.271 98.5623C193.707 98.796 194.283 99.2479 194.579 99.5751C194.875 99.9179 195.249 100.463 195.404 100.806C195.654 101.398 195.685 102.271 195.685 129.321L195.28 130.1C195.062 130.521 194.688 131.081 194.47 131.315C194.236 131.549 193.66 131.938 192.336 132.593L187.322 132.671C183.506 132.733 182.26 132.795 182.104 132.951C181.949 133.107 181.886 134.4 181.746 143.812L181.295 142.721C181.045 142.113 180.267 140.337 179.566 138.748C178.865 137.158 177.993 135.179 177.635 134.338C177.136 133.169 176.918 132.811 176.654 132.749C176.451 132.702 167.543 132.655 156.828 132.624C137.501 132.593 137.361 132.593 136.66 132.266C136.271 132.094 135.695 131.705 135.368 131.409C135.041 131.113 134.589 130.521 134.013 129.321V115.375C134.013 102.271 134.044 101.398 134.293 100.806C134.449 100.463 134.823 99.9179 135.119 99.5751C135.415 99.2479 135.929 98.8272 136.271 98.6558C136.614 98.4844 137.065 98.2818 137.283 98.2195C137.501 98.1572 150.007 98.1104 192.492 98.1572ZM223.593 115.687C223.655 115.687 223.717 115.796 223.717 115.92C223.717 116.045 223.873 116.559 224.06 117.042C224.288 117.645 224.667 118.206 225.197 118.725C225.617 119.161 226.194 119.598 226.443 119.691C226.708 119.8 228.171 120.346 229.713 120.907C231.255 121.468 232.89 122.091 233.358 122.278C233.809 122.465 234.214 122.667 234.245 122.73C234.276 122.808 234.245 123.15 234.152 123.509C234.074 123.883 233.762 125.581 233.451 127.295C233.139 129.009 232.781 131.004 232.657 131.736C232.532 132.468 232.345 133.341 232.252 133.684C232.158 134.026 231.862 134.525 231.598 134.79C231.302 135.086 230.772 135.366 230.227 135.538C229.729 135.678 229.044 135.787 228.701 135.787C228.234 135.787 228.047 135.709 227.922 135.476C227.844 135.304 227.767 134.603 227.767 133.917C227.767 133.216 227.673 132.453 227.549 132.157C227.44 131.892 227.206 131.549 227.05 131.409C226.879 131.253 226.225 131.004 225.586 130.832C224.948 130.661 223.468 130.302 222.316 130.037C220.229 129.539 220.213 129.539 219.076 130.1L218.983 129.554C218.936 129.258 218.89 128.526 218.89 127.918C218.89 127.311 218.967 126.236 219.045 125.503C219.139 124.771 219.341 123.618 219.497 122.932C219.668 122.247 220.026 121.094 220.307 120.361C220.587 119.629 221.21 118.445 221.693 117.712C222.191 116.98 222.783 116.232 223.017 116.029C223.25 115.842 223.515 115.687 223.593 115.687ZM278.225 119.068C278.521 119.099 279.222 119.348 279.767 119.629C280.53 120.003 280.888 120.314 281.293 120.907C281.589 121.327 281.885 121.935 281.963 122.231C282.056 122.558 282.103 138.935 282.041 205.516L281.558 206.373C281.293 206.84 280.764 207.463 280.39 207.744C280.016 208.04 279.362 208.367 278.926 208.492C278.334 208.663 277.166 208.71 274.145 208.71C270.672 208.71 270.127 208.679 270.127 208.476C270.127 208.274 270.656 208.242 273.989 208.242C277.213 208.242 277.976 208.196 278.677 207.962C279.222 207.791 279.798 207.448 280.297 206.996C280.795 206.528 281.169 206.014 281.729 204.581L281.776 164.333C281.807 128.199 281.776 123.992 281.558 123.057C281.418 122.402 281.122 121.732 280.826 121.327C280.546 120.953 280.047 120.47 279.705 120.237C279.378 120.003 278.739 119.722 278.303 119.613C277.711 119.473 273.678 119.426 260.752 119.426C249.663 119.426 243.963 119.38 243.963 119.27C243.963 119.161 249.71 119.099 260.829 119.068C270.096 119.052 277.929 119.052 278.225 119.068ZM208.222 119.115C215.65 119.115 219.513 119.161 219.513 119.27C219.513 119.38 215.65 119.426 208.222 119.426C200.793 119.426 196.931 119.38 196.931 119.27C196.931 119.161 200.793 119.115 208.222 119.115ZM239.026 125.347C239.089 125.347 239.385 125.456 239.68 125.581C240.054 125.737 240.303 126.002 240.475 126.391C240.646 126.796 240.693 127.186 240.63 127.607C240.568 127.95 240.288 128.604 239.992 129.04C239.634 129.57 239.182 130.022 238.715 130.287C238.294 130.521 237.671 130.754 237.313 130.801C236.784 130.863 236.644 130.832 236.659 130.645C236.659 130.521 236.815 129.57 237.002 128.542C237.204 127.451 237.469 126.485 237.64 126.22C237.812 125.986 238.154 125.69 238.419 125.581C238.684 125.456 238.948 125.363 239.026 125.347ZM236.254 132.749L236.285 133.606C236.317 134.073 236.441 135.834 236.83 140.54L236.379 140.976C236.145 141.225 235.46 141.724 234.853 142.113C234.245 142.487 233.373 142.939 232.906 143.126C232.439 143.313 231.567 143.562 230.959 143.672C230.352 143.796 229.417 143.89 228.857 143.89C228.296 143.89 227.611 143.827 227.346 143.734C226.926 143.609 226.817 143.485 226.754 143.064C226.708 142.799 226.661 142.004 226.599 140.103L227.689 139.838C228.296 139.698 229.449 139.418 230.258 139.231C231.068 139.044 232.112 138.717 232.563 138.498C232.999 138.296 233.762 137.735 234.23 137.267C234.697 136.8 235.258 136.036 235.476 135.585C235.694 135.148 235.943 134.322 236.052 133.762L236.254 132.749ZM147.64 133.917C147.858 133.917 147.874 137.969 147.889 169.413C147.889 204.425 147.889 204.908 148.201 205.547C148.356 205.921 148.792 206.528 149.166 206.918C149.649 207.448 150.069 207.713 150.755 207.931C151.596 208.211 152.141 208.242 155.629 208.242C159.024 208.242 159.554 208.274 159.554 208.476C159.554 208.679 158.993 208.71 155.473 208.71C152.343 208.71 151.206 208.663 150.599 208.492C150.178 208.367 149.493 208.009 149.088 207.713C148.559 207.307 148.216 206.871 147.406 205.204V169.553C147.406 137.984 147.437 133.917 147.64 133.917ZM237.812 141.085C237.889 141.085 238.061 141.147 238.185 141.21C238.357 141.303 238.357 141.397 238.201 141.708C238.092 141.926 234.712 147.879 230.694 154.953C226.661 162.027 223.281 167.917 223.157 168.041C223.048 168.166 222.923 168.244 222.892 168.197C222.845 168.15 223.188 163.289 223.655 157.368C224.107 151.447 224.558 145.635 224.652 144.435C224.823 142.363 224.854 142.238 225.212 142.051C225.586 141.864 225.586 141.88 225.68 142.596C225.726 143.017 225.804 143.516 225.867 143.718C225.929 143.921 226.162 144.217 226.365 144.388C226.583 144.544 227.19 144.747 227.735 144.825C228.358 144.918 229.137 144.934 229.916 144.84C230.57 144.747 231.473 144.606 231.894 144.513C232.33 144.419 233.202 144.092 233.84 143.796C234.494 143.485 235.429 142.939 235.943 142.565C236.457 142.207 237.048 141.708 237.267 141.49C237.469 141.272 237.718 141.085 237.812 141.085ZM171.857 170.301L172.324 170.877C172.714 171.36 173.103 171.594 174.396 172.077C175.268 172.42 176.482 172.809 177.074 172.95C177.682 173.074 178.491 173.261 178.865 173.37C179.255 173.464 179.831 173.666 180.158 173.838C180.469 173.994 180.734 174.196 180.734 174.274C180.734 174.352 180.968 174.57 181.248 174.742C181.528 174.913 182.323 175.24 183.039 175.443C183.74 175.661 184.316 175.91 184.316 175.988C184.316 176.066 183.724 177.157 182.992 178.403C181.7 180.632 181.668 180.663 181.123 180.663C180.734 180.663 180.423 180.803 180.002 181.177C179.457 181.66 179.301 181.707 177.931 181.816C177.121 181.894 174.115 181.878 171.265 181.816C168.4 181.738 166.048 181.629 166.001 181.551C165.97 181.489 166.079 181.192 166.25 180.896C166.5 180.46 166.531 180.304 166.375 180.148C166.25 180.024 165.596 179.899 163.291 179.728V179.26C163.291 178.995 163.369 178.762 163.447 178.715C163.541 178.668 163.603 178.497 163.603 178.325C163.603 178.154 163.525 177.967 163.416 177.905C163.307 177.842 162.871 177.749 162.435 177.702C161.703 177.624 161.656 177.609 161.656 177.157C161.656 176.767 161.734 176.689 162.155 176.596C162.435 176.533 162.762 176.347 162.902 176.191C163.12 175.941 163.12 175.879 162.902 175.552C162.778 175.365 162.684 175.053 162.746 174.508L168.509 174.477C173.913 174.461 174.287 174.43 174.473 174.165C174.582 174.009 174.598 173.791 174.52 173.651C174.458 173.526 174.006 173.183 173.523 172.903C173.025 172.622 172.464 172.139 172.246 171.812C172.044 171.501 171.857 171.018 171.857 170.768V170.301ZM185.718 176.144C185.842 176.144 186.387 176.284 186.932 176.456C187.462 176.627 187.898 176.861 187.898 176.954C187.898 177.063 187.4 178.481 186.777 180.117C186.169 181.753 185.671 183.093 185.655 183.125C185.655 183.14 184.923 182.751 182.447 181.286L183.662 179.214C184.332 178.092 185.017 176.923 185.173 176.643C185.328 176.378 185.577 176.144 185.718 176.144ZM214.763 208.242C252.248 208.242 257.045 208.274 257.045 208.476C257.045 208.679 252.248 208.71 214.763 208.71C177.292 208.71 172.48 208.679 172.48 208.476C172.48 208.274 177.292 208.242 214.763 208.242ZM201.447 209.956L201.556 210.767C201.634 211.312 201.836 211.842 202.148 212.294C202.413 212.668 202.895 213.182 203.238 213.416C203.581 213.649 204.281 213.961 204.795 214.086C205.605 214.288 207.1 214.319 215.152 214.288C223.593 214.241 224.652 214.21 225.275 213.976C225.664 213.821 226.334 213.369 226.77 212.964C227.315 212.449 227.642 211.982 227.829 211.437C227.969 211 228.094 210.502 228.078 209.956H293.643L293.659 214.397L293.051 215.644C292.693 216.345 292.179 217.124 291.837 217.436C291.51 217.747 290.918 218.184 290.529 218.417C290.155 218.651 289.454 218.947 288.971 219.072C288.224 219.274 279.409 219.305 214.763 219.305C154.975 219.305 141.27 219.259 140.632 219.103C140.211 218.994 139.479 218.682 138.997 218.417C138.529 218.152 137.844 217.591 137.47 217.186C137.097 216.766 136.629 216.064 136.427 215.644C136.224 215.207 135.975 214.413 135.897 213.852C135.804 213.291 135.726 212.231 135.71 211.499C135.695 210.767 135.742 210.112 135.804 210.065C135.882 210.003 150.677 209.956 201.447 209.956ZM226.832 209.956L226.863 210.455C226.863 210.735 226.863 211.063 226.863 211.156C226.848 211.265 226.599 211.592 226.303 211.857C226.007 212.138 225.586 212.527 225.368 212.714C225.072 212.979 224.839 213.057 224.496 212.995C224.247 212.948 223.998 212.995 223.951 213.073C223.904 213.166 220.681 213.229 214.763 213.229C208.845 213.229 205.636 213.166 205.574 213.073C205.543 212.995 205.263 212.948 204.951 212.995C204.64 213.042 204.406 213.01 204.406 212.917C204.406 212.839 204.235 212.668 204.017 212.559C203.799 212.465 203.44 212.122 203.238 211.826C203.036 211.53 202.802 211.063 202.724 210.813C202.646 210.549 202.615 210.252 202.662 210.143C202.708 210.003 205.263 209.956 226.832 209.956Z" fill="#FDE8DE"/>
<path fill-rule="evenodd" clip-rule="evenodd" d="M196.806 123.946H218.266L218.173 124.304C218.126 124.491 218.048 125.691 218.002 126.984C217.955 128.433 217.986 129.805 218.095 130.568C218.204 131.254 218.344 131.924 218.422 132.048C218.5 132.204 218.407 132.563 218.173 133.061C217.908 133.622 217.799 134.105 217.799 134.775C217.799 135.336 217.924 135.959 218.095 136.333C218.235 136.676 218.687 137.237 219.076 137.58C219.668 138.11 220.12 138.312 222.175 138.951C223.499 139.356 224.761 139.683 225.01 139.683C225.384 139.683 225.446 139.761 225.524 140.275C225.586 140.681 225.555 140.883 225.415 140.961C225.29 141.023 225.15 141.086 225.088 141.086C225.01 141.086 224.932 140.914 224.885 140.696C224.838 140.478 224.714 140.307 224.62 140.307C224.511 140.291 222.767 141.74 220.758 143.517C217.254 146.602 217.098 146.758 217.098 147.303C217.098 147.708 216.896 148.16 216.366 148.955C215.977 149.562 215.323 150.746 214.918 151.603C214.529 152.46 214.015 153.504 213.797 153.941C213.579 154.361 212.893 155.733 212.255 156.979C211.632 158.226 210.76 160.158 210.308 161.264C209.872 162.37 209.171 164.334 208.735 165.627C208.315 166.905 207.614 169.258 207.193 170.847C206.773 172.436 206.041 175.521 205.558 177.703C205.075 179.884 204.655 181.77 204.624 181.863C204.577 182.019 204.312 181.957 203.674 181.661C203.175 181.443 201.68 180.804 200.357 180.243C199.033 179.697 196.479 178.685 194.672 178.015C192.866 177.36 190.826 176.628 190.125 176.394C189.408 176.176 188.77 176.02 188.676 176.067C188.583 176.114 187.384 175.786 185.998 175.35C184.596 174.914 183.117 174.446 182.68 174.291C182.26 174.135 181.653 173.761 181.357 173.48C180.999 173.137 180.422 172.826 179.721 172.608C179.114 172.405 178.211 172.171 177.697 172.078C177.183 171.984 176.03 171.626 175.127 171.283C173.71 170.753 173.399 170.566 172.791 169.896C172.324 169.377 171.987 169.133 171.779 169.164C171.623 169.195 171.312 169.46 171.125 169.756C170.922 170.052 170.767 170.489 170.767 170.722C170.767 170.972 170.907 171.423 171.062 171.735C171.218 172.062 171.545 172.499 171.763 172.717C171.997 172.935 172.168 173.215 172.168 173.34C172.168 173.543 171.608 173.558 167.543 173.449C163.058 173.34 162.886 173.34 162.404 173.652C162.123 173.823 161.812 174.15 161.718 174.384C161.64 174.633 161.578 174.961 161.594 175.132C161.625 175.319 161.407 175.677 161.064 176.02C160.644 176.456 160.488 176.752 160.488 177.111C160.472 177.391 160.613 177.812 160.799 178.046C160.971 178.295 161.344 178.544 161.625 178.607C162.045 178.716 162.139 178.825 162.217 179.277C162.263 179.573 162.404 179.962 162.528 180.149C162.653 180.336 162.902 180.57 163.104 180.663C163.291 180.741 163.805 180.819 165.004 180.819V181.365C165.004 181.723 165.129 182.066 165.752 182.767L172.277 182.814C176.264 182.829 179.005 182.783 179.379 182.689C179.69 182.611 180.173 182.362 180.422 182.144C180.671 181.926 181.061 181.754 181.279 181.754C181.497 181.754 182.571 182.3 183.677 182.97C184.783 183.624 185.655 184.216 185.624 184.278C185.593 184.356 186.418 184.886 187.477 185.478C188.521 186.07 193.644 188.953 198.877 191.882C204.11 194.827 208.766 197.414 209.234 197.632C209.701 197.866 210.09 198.115 210.09 198.193C210.09 198.286 210.028 199.19 209.966 200.219C209.903 201.247 209.81 202.462 209.701 203.724H152.234V168.852C152.234 149.687 152.296 133.903 152.358 133.809C152.436 133.653 155.068 133.622 176.249 133.684L179.239 140.462C181.73 146.119 182.276 147.241 182.525 147.241C182.836 147.241 182.836 147.1 182.914 133.607L192.648 133.529L193.535 133.108C194.034 132.859 194.75 132.36 195.139 131.97C195.529 131.581 196.027 130.864 196.261 130.381C196.681 129.524 196.697 129.353 196.744 126.719L196.806 123.946ZM244.01 123.946H277.306V203.709L269.519 203.724L269.504 202.197C269.488 201.356 269.442 198.442 269.379 195.7C269.27 190.792 269.27 190.698 268.881 189.857C268.663 189.374 268.227 188.719 267.915 188.376C267.526 187.925 266.747 186.398 265.299 183.234C264.178 180.741 260.378 172.358 256.874 164.614C253.354 156.855 250.41 150.357 250.301 150.17C250.208 149.983 249.632 149.173 249.024 148.378C248.401 147.583 247.327 146.352 246.61 145.667C245.879 144.966 244.804 144.062 244.212 143.641C243.605 143.22 242.483 142.55 241.72 142.145C240.35 141.444 240.303 141.413 240.116 140.712C240.007 140.307 239.805 139.933 239.68 139.87C239.509 139.792 239.338 139.87 239.166 140.12C238.964 140.416 238.824 140.462 238.403 140.385C238.045 140.322 237.874 140.198 237.827 139.948C237.796 139.761 237.687 138.655 237.422 135.398L237.858 134.931C238.092 134.666 239.104 133.622 240.101 132.594C241.549 131.082 242.016 130.49 242.468 129.555C242.764 128.901 243.2 127.748 243.418 126.984C243.651 126.205 243.87 125.208 243.916 124.756L244.01 123.946ZM252.077 185.587C252.139 185.665 252.622 186.288 253.167 186.974C253.712 187.66 254.818 188.953 257.092 191.493L257.06 193.129C257.06 194.033 257.123 195.606 257.216 196.635C257.31 197.663 257.528 199.564 257.699 200.842C257.87 202.135 258.042 203.304 258.073 203.46C258.135 203.709 257.901 203.724 254.491 203.724C251.111 203.724 250.831 203.709 250.831 203.46C250.831 203.304 251.002 199.813 251.22 195.7C251.423 191.586 251.61 187.784 251.625 187.255C251.625 186.725 251.719 186.101 251.812 185.868C251.906 185.634 252.03 185.509 252.077 185.587Z" fill="#FF6420"/>
<path d="M222.58 171.221C222.658 170.816 225.726 165.284 231.021 155.997C235.6 147.973 239.369 141.413 239.4 141.444C239.415 141.46 239.882 143.189 240.428 145.293C240.973 147.396 241.471 149.297 241.533 149.531C241.627 149.967 241.58 149.998 238.512 151.525C236.674 152.445 235.366 153.193 235.304 153.348C235.242 153.535 235.755 154.579 238.356 159.083L237.936 159.503C237.687 159.721 234.136 162.807 230.024 166.328C222.985 172.374 222.549 172.717 222.502 172.296C222.487 172.062 222.518 171.579 222.58 171.221Z" fill="#696E80"/>
<path d="M218.188 146.851C218.36 146.695 219.683 145.511 221.147 144.218C222.596 142.94 223.842 141.943 223.904 142.005C223.982 142.067 223.873 144.28 223.655 146.929C223.437 149.593 223.016 154.985 222.705 158.927C222.393 162.869 222.051 167.356 221.926 168.899C221.801 170.442 221.63 172.685 221.537 173.885C221.443 175.085 221.334 176.098 221.303 176.145C221.256 176.191 221.21 176.191 221.178 176.145C221.147 176.098 219.917 171.579 218.422 166.094C216.942 160.61 215.697 156.044 215.665 155.966C215.634 155.873 216.802 155.234 218.266 154.517C219.715 153.816 220.945 153.13 220.992 153.006C221.038 152.881 220.353 151.51 219.481 149.952L219.416 149.838C217.892 147.162 217.881 147.143 218.188 146.851Z" fill="#696E80"/>
<path d="M150.599 111.323C150.553 111.23 150.646 111.105 150.802 111.012C150.942 110.934 152.562 110.856 154.415 110.856C157.078 110.856 157.826 110.903 158.075 111.074C158.371 111.292 158.386 111.495 158.433 114.814C158.464 118.148 158.448 118.351 158.153 118.647C157.857 118.943 157.639 118.958 154.337 118.958C151.425 118.958 150.786 118.912 150.599 118.725C150.412 118.538 150.366 117.899 150.366 114.985C150.366 112.757 150.428 111.479 150.521 111.479C150.615 111.479 150.646 111.417 150.599 111.323Z" fill="#2A3252"/>
<path d="M161.579 114.985C161.579 111.682 161.594 111.464 161.89 111.168C162.186 110.872 162.404 110.856 168.898 110.856L169.677 111.635V114.985C169.677 118.133 169.662 118.351 169.366 118.647C169.07 118.943 168.852 118.958 165.55 118.958C162.638 118.958 161.999 118.912 161.812 118.725C161.626 118.538 161.579 117.899 161.579 114.985Z" fill="#2A3252"/>
<path d="M172.636 114.981C172.652 111.651 172.652 111.619 173.025 111.246L173.399 110.856H176.763C179.909 110.856 180.127 110.872 180.423 111.168C180.719 111.464 180.734 111.682 180.734 114.985C180.734 117.977 180.703 118.522 180.485 118.725C180.283 118.912 179.644 118.958 176.748 118.958C173.462 118.958 173.243 118.943 172.948 118.647C172.652 118.351 172.636 118.133 172.636 114.985L172.636 114.981Z" fill="#2A3252"/>
<path d="M277.634 213.104C277.681 212.356 277.774 212.06 278.008 211.888C278.226 211.732 278.973 211.67 281.138 211.67C283.458 211.67 284.035 211.717 284.222 211.904C284.393 212.091 284.455 212.511 284.455 213.618C284.455 214.895 284.408 215.145 284.144 215.41C283.863 215.706 283.63 215.721 281.029 215.721C278.74 215.721 278.179 215.69 277.992 215.488C277.868 215.363 277.712 215.005 277.665 214.677C277.603 214.35 277.603 213.649 277.634 213.104Z" fill="#2A3252"/>
<path d="M151.611 117.713V114.909V112.104H157.217V117.713H151.611Z" fill="#FDE8DE"/>
<path d="M162.668 117.713V114.909V112.104H168.275V117.713H162.668Z" fill="#FDE8DE"/>
<path d="M173.881 117.713V114.909V112.104H179.488V117.713H173.881Z" fill="#FDE8DE"/>
<path d="M278.77 214.553L278.724 213.665L278.677 212.762H283.52L283.442 214.553H278.77Z" fill="#F86E44"/>
<path d="M102.77 278.043C102.77 278.584 102.643 279.078 102.389 279.526C102.144 279.965 101.768 280.32 101.261 280.59C100.763 280.852 100.15 280.983 99.4236 280.983H98.1941V284H95.7098V275.064H99.4236C100.142 275.064 100.75 275.191 101.249 275.444C101.756 275.698 102.136 276.049 102.389 276.496C102.643 276.944 102.77 277.46 102.77 278.043ZM99.1827 279.006C99.8841 279.006 100.235 278.685 100.235 278.043C100.235 277.392 99.8841 277.067 99.1827 277.067H98.1941V279.006H99.1827ZM108.293 284L106.518 280.705H106.252V284H103.768V275.064H107.684C108.403 275.064 109.011 275.191 109.51 275.444C110.008 275.689 110.384 276.032 110.638 276.471C110.891 276.902 111.018 277.388 111.018 277.929C111.018 278.537 110.849 279.074 110.511 279.538C110.181 279.995 109.695 280.32 109.053 280.514L111.069 284H108.293ZM106.252 279.006H107.482C107.82 279.006 108.073 278.926 108.242 278.765C108.411 278.605 108.496 278.372 108.496 278.068C108.496 277.781 108.407 277.557 108.229 277.396C108.06 277.227 107.811 277.143 107.482 277.143H106.252V279.006ZM116.432 284.089C115.595 284.089 114.826 283.894 114.125 283.506C113.424 283.109 112.866 282.564 112.452 281.871C112.046 281.169 111.843 280.379 111.843 279.5C111.843 278.622 112.046 277.836 112.452 277.143C112.866 276.442 113.424 275.896 114.125 275.508C114.826 275.119 115.595 274.925 116.432 274.925C117.277 274.925 118.046 275.119 118.739 275.508C119.44 275.896 119.993 276.442 120.399 277.143C120.805 277.836 121.007 278.622 121.007 279.5C121.007 280.379 120.805 281.169 120.399 281.871C119.993 282.564 119.44 283.109 118.739 283.506C118.037 283.894 117.268 284.089 116.432 284.089ZM116.432 281.782C117.066 281.782 117.564 281.575 117.927 281.161C118.299 280.747 118.485 280.193 118.485 279.5C118.485 278.791 118.299 278.233 117.927 277.827C117.564 277.413 117.066 277.206 116.432 277.206C115.79 277.206 115.287 277.413 114.923 277.827C114.56 278.233 114.378 278.791 114.378 279.5C114.378 280.202 114.56 280.759 114.923 281.173C115.287 281.579 115.79 281.782 116.432 281.782ZM127.828 278.005C127.684 277.768 127.486 277.586 127.232 277.46C126.987 277.333 126.696 277.27 126.358 277.27C125.732 277.27 125.238 277.472 124.875 277.878C124.52 278.284 124.342 278.829 124.342 279.513C124.342 280.282 124.532 280.869 124.913 281.275C125.301 281.672 125.863 281.871 126.598 281.871C127.469 281.871 128.09 281.478 128.462 280.692H125.965V278.905H130.604V281.313C130.409 281.786 130.122 282.23 129.742 282.644C129.37 283.058 128.897 283.4 128.322 283.67C127.748 283.932 127.093 284.063 126.358 284.063C125.462 284.063 124.668 283.873 123.975 283.493C123.29 283.104 122.758 282.568 122.378 281.883C122.006 281.19 121.82 280.4 121.82 279.513C121.82 278.634 122.006 277.853 122.378 277.168C122.758 276.475 123.29 275.939 123.975 275.558C124.659 275.17 125.449 274.975 126.345 274.975C127.469 274.975 128.398 275.246 129.133 275.787C129.869 276.327 130.325 277.067 130.502 278.005H127.828ZM136.242 284L134.468 280.705H134.201V284H131.717V275.064H135.634C136.352 275.064 136.96 275.191 137.459 275.444C137.957 275.689 138.333 276.032 138.587 276.471C138.84 276.902 138.967 277.388 138.967 277.929C138.967 278.537 138.798 279.074 138.46 279.538C138.131 279.995 137.645 280.32 137.003 280.514L139.018 284H136.242ZM134.201 279.006H135.431C135.769 279.006 136.022 278.926 136.191 278.765C136.36 278.605 136.445 278.372 136.445 278.068C136.445 277.781 136.356 277.557 136.179 277.396C136.01 277.227 135.76 277.143 135.431 277.143H134.201V279.006ZM145.75 282.542H142.581L142.1 284H139.488L142.746 275.064H145.61L148.855 284H146.232L145.75 282.542ZM145.129 280.641L144.166 277.751L143.215 280.641H145.129ZM160.096 275.064V284H157.612V279.069L155.926 284H153.848L152.149 279.031V284H149.665V275.064H152.669L154.912 280.869L157.105 275.064H160.096ZM167.473 275.064C168.411 275.064 169.231 275.254 169.932 275.635C170.642 276.006 171.187 276.53 171.567 277.206C171.947 277.882 172.137 278.655 172.137 279.526C172.137 280.388 171.943 281.157 171.554 281.833C171.174 282.509 170.629 283.041 169.919 283.43C169.218 283.81 168.402 284 167.473 284H163.937V275.064H167.473ZM167.283 281.807C168.01 281.807 168.58 281.609 168.994 281.212C169.408 280.814 169.615 280.252 169.615 279.526C169.615 278.791 169.408 278.224 168.994 277.827C168.58 277.422 168.01 277.219 167.283 277.219H166.421V281.807H167.283ZM175.742 275.064V284H173.257V275.064H175.742ZM187.588 275.064V284H185.103V279.069L183.418 284H181.339L179.641 279.031V284H177.156V275.064H180.16L182.404 280.869L184.596 275.064H187.588ZM191.435 275.064V280.248C191.435 280.73 191.545 281.102 191.765 281.364C191.993 281.626 192.335 281.757 192.792 281.757C193.248 281.757 193.59 281.626 193.818 281.364C194.055 281.093 194.173 280.721 194.173 280.248V275.064H196.658V280.248C196.658 281.068 196.484 281.769 196.138 282.352C195.791 282.927 195.318 283.362 194.718 283.658C194.127 283.945 193.468 284.089 192.741 284.089C192.014 284.089 191.364 283.945 190.789 283.658C190.223 283.362 189.775 282.927 189.446 282.352C189.124 281.778 188.964 281.076 188.964 280.248V275.064H191.435ZM200.51 282.099H203.285V284H198.025V275.064H200.51V282.099ZM209.904 282.542H206.736L206.254 284H203.643L206.901 275.064H209.765L213.01 284H210.386L209.904 282.542ZM209.283 280.641L208.32 277.751L207.369 280.641H209.283ZM216.304 275.064V284H213.82V275.064H216.304ZM219.853 282.01C220.673 281.368 221.345 280.814 221.868 280.35C222.392 279.885 222.832 279.407 223.187 278.917C223.542 278.419 223.719 277.946 223.719 277.498C223.719 277.227 223.656 277.016 223.529 276.864C223.411 276.712 223.233 276.636 222.997 276.636C222.751 276.636 222.561 276.741 222.426 276.953C222.291 277.156 222.228 277.455 222.236 277.853H219.828C219.853 277.101 220.018 276.48 220.322 275.989C220.626 275.491 221.023 275.128 221.514 274.899C222.004 274.663 222.549 274.544 223.149 274.544C224.188 274.544 224.961 274.802 225.468 275.318C225.975 275.833 226.229 276.501 226.229 277.32C226.229 278.199 225.933 279.023 225.341 279.792C224.758 280.561 224.027 281.25 223.149 281.858H226.317V283.873H219.853V282.01ZM227.145 279.234C227.145 277.781 227.441 276.636 228.033 275.799C228.624 274.963 229.554 274.544 230.821 274.544C232.089 274.544 233.018 274.963 233.61 275.799C234.21 276.636 234.51 277.781 234.51 279.234C234.51 280.705 234.214 281.858 233.622 282.694C233.031 283.531 232.097 283.949 230.821 283.949C229.545 283.949 228.612 283.531 228.02 282.694C227.437 281.858 227.145 280.705 227.145 279.234ZM232.051 279.234C232.051 278.474 231.97 277.895 231.81 277.498C231.649 277.092 231.32 276.889 230.821 276.889C230.323 276.889 229.993 277.092 229.833 277.498C229.672 277.895 229.592 278.474 229.592 279.234C229.592 280.012 229.668 280.603 229.82 281.009C229.98 281.406 230.314 281.604 230.821 281.604C231.328 281.604 231.658 281.406 231.81 281.009C231.97 280.603 232.051 280.012 232.051 279.234ZM244.037 275.064V280.983C244.037 281.989 243.762 282.758 243.213 283.29C242.672 283.823 241.924 284.089 240.969 284.089C239.955 284.089 239.144 283.806 238.536 283.24C237.936 282.673 237.636 281.858 237.636 280.793H240.095C240.103 281.495 240.361 281.845 240.868 281.845C241.324 281.845 241.552 281.558 241.552 280.983V275.064H244.037ZM251.172 282.542H248.004L247.522 284H244.911L248.168 275.064H251.033L254.278 284H251.654L251.172 282.542ZM250.551 280.641L249.588 277.751L248.637 280.641H250.551ZM263.364 284H260.88L257.572 279.006V284H255.087V275.064H257.572L260.88 280.121V275.064H263.364V284ZM267.213 275.064V280.248C267.213 280.73 267.323 281.102 267.542 281.364C267.771 281.626 268.113 281.757 268.569 281.757C269.025 281.757 269.368 281.626 269.596 281.364C269.832 281.093 269.951 280.721 269.951 280.248V275.064H272.435V280.248C272.435 281.068 272.262 281.769 271.915 282.352C271.569 282.927 271.096 283.362 270.496 283.658C269.904 283.945 269.245 284.089 268.518 284.089C267.792 284.089 267.141 283.945 266.566 283.658C266 283.362 265.552 282.927 265.223 282.352C264.902 281.778 264.741 281.076 264.741 280.248V275.064H267.213ZM279.456 282.542H276.287L275.805 284H273.194L276.452 275.064H279.316L282.561 284H279.937L279.456 282.542ZM278.835 280.641L277.871 277.751L276.921 280.641H278.835ZM287.896 284L286.121 280.705H285.855V284H283.371V275.064H287.287C288.006 275.064 288.614 275.191 289.113 275.444C289.611 275.689 289.987 276.032 290.241 276.471C290.494 276.902 290.621 277.388 290.621 277.929C290.621 278.537 290.452 279.074 290.114 279.538C289.784 279.995 289.299 280.32 288.656 280.514L290.672 284H287.896ZM285.855 279.006H287.085C287.423 279.006 287.676 278.926 287.845 278.765C288.014 278.605 288.099 278.372 288.099 278.068C288.099 277.781 288.01 277.557 287.832 277.396C287.663 277.227 287.414 277.143 287.085 277.143H285.855V279.006ZM294.235 275.064V284H291.751V275.064H294.235ZM297.784 282.01C298.604 281.368 299.276 280.814 299.8 280.35C300.324 279.885 300.763 279.407 301.118 278.917C301.473 278.419 301.65 277.946 301.65 277.498C301.65 277.227 301.587 277.016 301.46 276.864C301.342 276.712 301.164 276.636 300.928 276.636C300.683 276.636 300.493 276.741 300.357 276.953C300.222 277.156 300.159 277.455 300.167 277.853H297.759C297.784 277.101 297.949 276.48 298.253 275.989C298.557 275.491 298.955 275.128 299.445 274.899C299.935 274.663 300.48 274.544 301.08 274.544C302.119 274.544 302.892 274.802 303.399 275.318C303.906 275.833 304.16 276.501 304.16 277.32C304.16 278.199 303.864 279.023 303.273 279.792C302.689 280.561 301.959 281.25 301.08 281.858H304.249V283.873H297.784V282.01ZM305.077 279.234C305.077 277.781 305.372 276.636 305.964 275.799C306.555 274.963 307.485 274.544 308.752 274.544C310.02 274.544 310.949 274.963 311.541 275.799C312.141 276.636 312.441 277.781 312.441 279.234C312.441 280.705 312.145 281.858 311.554 282.694C310.962 283.531 310.028 283.949 308.752 283.949C307.476 283.949 306.543 283.531 305.951 282.694C305.368 281.858 305.077 280.705 305.077 279.234ZM309.982 279.234C309.982 278.474 309.902 277.895 309.741 277.498C309.58 277.092 309.251 276.889 308.752 276.889C308.254 276.889 307.924 277.092 307.764 277.498C307.603 277.895 307.523 278.474 307.523 279.234C307.523 280.012 307.599 280.603 307.751 281.009C307.912 281.406 308.245 281.604 308.752 281.604C309.259 281.604 309.589 281.406 309.741 281.009C309.902 280.603 309.982 280.012 309.982 279.234ZM313.331 282.01C314.151 281.368 314.822 280.814 315.346 280.35C315.87 279.885 316.31 279.407 316.664 278.917C317.019 278.419 317.197 277.946 317.197 277.498C317.197 277.227 317.133 277.016 317.007 276.864C316.888 276.712 316.711 276.636 316.474 276.636C316.229 276.636 316.039 276.741 315.904 276.953C315.769 277.156 315.705 277.455 315.714 277.853H313.306C313.331 277.101 313.496 276.48 313.8 275.989C314.104 275.491 314.501 275.128 314.991 274.899C315.481 274.663 316.026 274.544 316.626 274.544C317.666 274.544 318.439 274.802 318.946 275.318C319.453 275.833 319.706 276.501 319.706 277.32C319.706 278.199 319.411 279.023 318.819 279.792C318.236 280.561 317.505 281.25 316.626 281.858H319.795V283.873H313.331V282.01ZM327.366 276.927H323.564V278.334C323.724 278.165 323.944 278.03 324.223 277.929C324.502 277.827 324.81 277.777 325.148 277.777C325.757 277.777 326.264 277.916 326.669 278.195C327.083 278.474 327.387 278.841 327.582 279.298C327.776 279.754 327.873 280.252 327.873 280.793C327.873 281.79 327.59 282.576 327.024 283.151C326.458 283.717 325.672 284 324.667 284C323.965 284 323.357 283.882 322.841 283.645C322.334 283.4 321.946 283.062 321.675 282.631C321.405 282.2 321.265 281.706 321.257 281.148H323.678C323.703 281.342 323.788 281.511 323.931 281.655C324.075 281.799 324.286 281.871 324.565 281.871C324.861 281.871 325.085 281.769 325.237 281.566C325.389 281.364 325.465 281.093 325.465 280.755C325.465 280.426 325.385 280.176 325.224 280.007C325.064 279.83 324.831 279.741 324.527 279.741C324.299 279.741 324.113 279.8 323.969 279.919C323.834 280.029 323.754 280.168 323.729 280.337H321.308V274.735H327.366V276.927Z" fill="black"/>
<rect x="142.372" y="246.087" width="140.518" height="23.4197" rx="4.6847" fill="#FF2C2C"/>
<path d="M157.057 257.155C157.057 257.696 156.93 258.19 156.676 258.638C156.431 259.077 156.055 259.432 155.548 259.703C155.05 259.965 154.437 260.096 153.71 260.096H152.481V263.112H149.997V254.176H153.71C154.429 254.176 155.037 254.303 155.536 254.557C156.043 254.81 156.423 255.161 156.676 255.609C156.93 256.057 157.057 256.572 157.057 257.155ZM153.47 258.118C154.171 258.118 154.522 257.797 154.522 257.155C154.522 256.504 154.171 256.179 153.47 256.179H152.481V258.118H153.47ZM162.58 263.112L160.805 259.817H160.539V263.112H158.055V254.176H161.971C162.689 254.176 163.298 254.303 163.796 254.557C164.295 254.802 164.671 255.144 164.924 255.583C165.178 256.014 165.305 256.5 165.305 257.041C165.305 257.649 165.136 258.186 164.798 258.651C164.468 259.107 163.982 259.432 163.34 259.627L165.355 263.112H162.58ZM160.539 258.118H161.768C162.106 258.118 162.36 258.038 162.529 257.878C162.698 257.717 162.782 257.485 162.782 257.18C162.782 256.893 162.694 256.669 162.516 256.509C162.347 256.34 162.098 256.255 161.768 256.255H160.539V258.118ZM170.719 263.201C169.882 263.201 169.113 263.007 168.412 262.618C167.71 262.221 167.153 261.676 166.739 260.983C166.333 260.282 166.13 259.491 166.13 258.613C166.13 257.734 166.333 256.948 166.739 256.255C167.153 255.554 167.71 255.009 168.412 254.62C169.113 254.231 169.882 254.037 170.719 254.037C171.564 254.037 172.333 254.231 173.025 254.62C173.727 255.009 174.28 255.554 174.686 256.255C175.091 256.948 175.294 257.734 175.294 258.613C175.294 259.491 175.091 260.282 174.686 260.983C174.28 261.676 173.727 262.221 173.025 262.618C172.324 263.007 171.555 263.201 170.719 263.201ZM170.719 260.894C171.352 260.894 171.851 260.687 172.214 260.273C172.586 259.859 172.772 259.306 172.772 258.613C172.772 257.903 172.586 257.345 172.214 256.94C171.851 256.526 171.352 256.319 170.719 256.319C170.076 256.319 169.574 256.526 169.21 256.94C168.847 257.345 168.665 257.903 168.665 258.613C168.665 259.314 168.847 259.872 169.21 260.286C169.574 260.691 170.076 260.894 170.719 260.894ZM186.843 254.176V263.112H184.358V258.182L182.672 263.112H180.594L178.895 258.144V263.112H176.411V254.176H179.415L181.658 259.982L183.851 254.176H186.843ZM192.541 263.201C191.704 263.201 190.935 263.007 190.234 262.618C189.533 262.221 188.975 261.676 188.561 260.983C188.155 260.282 187.953 259.491 187.953 258.613C187.953 257.734 188.155 256.948 188.561 256.255C188.975 255.554 189.533 255.009 190.234 254.62C190.935 254.231 191.704 254.037 192.541 254.037C193.386 254.037 194.155 254.231 194.848 254.62C195.549 255.009 196.102 255.554 196.508 256.255C196.914 256.948 197.116 257.734 197.116 258.613C197.116 259.491 196.914 260.282 196.508 260.983C196.102 261.676 195.549 262.221 194.848 262.618C194.146 263.007 193.377 263.201 192.541 263.201ZM192.541 260.894C193.175 260.894 193.673 260.687 194.036 260.273C194.408 259.859 194.594 259.306 194.594 258.613C194.594 257.903 194.408 257.345 194.036 256.94C193.673 256.526 193.175 256.319 192.541 256.319C191.899 256.319 191.396 256.526 191.033 256.94C190.669 257.345 190.487 257.903 190.487 258.613C190.487 259.314 190.669 259.872 191.033 260.286C191.396 260.691 191.899 260.894 192.541 260.894ZM203.144 256.166V257.624H205.995V259.513H203.144V261.122H206.376V263.112H200.659V254.176H206.376V256.166H203.144ZM213.256 261.655H210.088L209.606 263.112H206.995L210.252 254.176H213.117L216.362 263.112H213.738L213.256 261.655ZM212.635 259.753L211.672 256.864L210.721 259.753H212.635ZM221.696 263.112L219.922 259.817H219.656V263.112H217.171V254.176H221.088C221.806 254.176 222.415 254.303 222.913 254.557C223.412 254.802 223.788 255.144 224.041 255.583C224.295 256.014 224.422 256.5 224.422 257.041C224.422 257.649 224.253 258.186 223.915 258.651C223.585 259.107 223.099 259.432 222.457 259.627L224.472 263.112H221.696ZM219.656 258.118H220.885C221.223 258.118 221.477 258.038 221.646 257.878C221.815 257.717 221.899 257.485 221.899 257.18C221.899 256.893 221.81 256.669 221.633 256.509C221.464 256.34 221.215 256.255 220.885 256.255H219.656V258.118ZM228.036 261.211H230.811V263.112H225.551V254.176H228.036V261.211ZM239.902 254.176L236.759 260.273V263.112H234.262V260.273L231.118 254.176H233.957L235.529 257.624L237.101 254.176H239.902ZM248.794 258.524C249.318 258.642 249.732 258.904 250.037 259.31C250.349 259.707 250.506 260.163 250.506 260.679C250.506 261.439 250.244 262.035 249.72 262.466C249.196 262.897 248.461 263.112 247.514 263.112H243.091V254.176H247.375C248.287 254.176 249.001 254.379 249.517 254.785C250.041 255.19 250.303 255.761 250.303 256.496C250.303 257.02 250.163 257.459 249.885 257.814C249.614 258.161 249.251 258.397 248.794 258.524ZM245.575 257.725H246.83C247.455 257.725 247.768 257.468 247.768 256.952C247.768 256.42 247.455 256.154 246.83 256.154H245.575V257.725ZM247.02 261.11C247.645 261.11 247.958 260.848 247.958 260.324C247.958 260.053 247.873 259.846 247.704 259.703C247.544 259.559 247.311 259.487 247.007 259.487H245.575V261.11H247.02ZM254.079 254.176V263.112H251.594V254.176H254.079ZM260.018 263.112L258.244 259.817H257.978V263.112H255.493V254.176H259.41C260.128 254.176 260.737 254.303 261.235 254.557C261.734 254.802 262.11 255.144 262.363 255.583C262.617 256.014 262.743 256.5 262.743 257.041C262.743 257.649 262.574 258.186 262.236 258.651C261.907 259.107 261.421 259.432 260.779 259.627L262.794 263.112H260.018ZM257.978 258.118H259.207C259.545 258.118 259.799 258.038 259.968 257.878C260.137 257.717 260.221 257.485 260.221 257.18C260.221 256.893 260.132 256.669 259.955 256.509C259.786 256.34 259.537 256.255 259.207 256.255H257.978V258.118ZM267.41 254.176C268.347 254.176 269.167 254.367 269.868 254.747C270.578 255.119 271.123 255.643 271.504 256.319C271.884 256.995 272.074 257.768 272.074 258.638C272.074 259.5 271.88 260.269 271.491 260.945C271.111 261.621 270.566 262.153 269.856 262.542C269.154 262.922 268.339 263.112 267.41 263.112H263.873V254.176H267.41ZM267.219 260.92C267.946 260.92 268.516 260.721 268.93 260.324C269.345 259.927 269.552 259.365 269.552 258.638C269.552 257.903 269.345 257.337 268.93 256.94C268.516 256.534 267.946 256.331 267.219 256.331H266.357V260.92H267.219Z" fill="white"/>
<path d="M127.687 60.0311H121.23L120.248 63.0015H114.927L121.566 44.7916H127.403L134.016 63.0015H128.669L127.687 60.0311ZM126.422 56.1566L124.459 50.2675L122.521 56.1566H126.422ZM146.437 63.0015L140.728 55.0201V63.0015H135.666V44.7916H140.728V52.6438L146.385 44.7916H152.222L145.533 53.6253L152.558 63.0015H146.437ZM161.278 63.1823C159.16 63.1823 157.421 62.6829 156.06 61.6842C154.7 60.6682 153.968 59.2217 153.865 57.3448H159.263C159.315 57.9819 159.504 58.4468 159.831 58.7396C160.159 59.0323 160.58 59.1787 161.097 59.1787C161.562 59.1787 161.941 59.0668 162.234 58.8429C162.544 58.6018 162.699 58.2746 162.699 57.8614C162.699 57.3276 162.449 56.9143 161.949 56.6216C161.45 56.3288 160.641 56.0016 159.521 55.64C158.333 55.244 157.369 54.8651 156.629 54.5035C155.905 54.1247 155.268 53.5823 154.717 52.8763C154.183 52.153 153.916 51.2146 153.916 50.0608C153.916 48.8899 154.209 47.8911 154.795 47.0646C155.38 46.2208 156.189 45.5837 157.223 45.1532C158.256 44.7227 159.427 44.5075 160.735 44.5075C162.853 44.5075 164.541 45.0068 165.798 46.0056C167.072 46.9871 167.753 48.3733 167.839 50.1641H162.337C162.32 49.6131 162.147 49.1998 161.82 48.9243C161.51 48.6488 161.106 48.5111 160.606 48.5111C160.227 48.5111 159.918 48.623 159.676 48.8468C159.435 49.0707 159.315 49.3893 159.315 49.8025C159.315 50.1469 159.444 50.4483 159.702 50.7066C159.978 50.9476 160.314 51.1629 160.71 51.3523C161.106 51.5245 161.691 51.7484 162.466 52.0239C163.62 52.4199 164.567 52.816 165.307 53.212C166.065 53.5909 166.711 54.1333 167.245 54.8393C167.796 55.5281 168.071 56.4063 168.071 57.4739C168.071 58.5588 167.796 59.5317 167.245 60.3927C166.711 61.2537 165.927 61.9338 164.894 62.4332C163.878 62.9326 162.673 63.1823 161.278 63.1823ZM175.487 48.8468V51.8172H181.299V55.6659H175.487V58.9462H182.074V63.0015H170.425V44.7916H182.074V48.8468H175.487ZM191.446 63.1823C189.328 63.1823 187.589 62.6829 186.228 61.6842C184.868 60.6682 184.136 59.2217 184.033 57.3448H189.431C189.483 57.9819 189.672 58.4468 190 58.7396C190.327 59.0323 190.749 59.1787 191.265 59.1787C191.73 59.1787 192.109 59.0668 192.402 58.8429C192.712 58.6018 192.867 58.2746 192.867 57.8614C192.867 57.3276 192.617 56.9143 192.118 56.6216C191.618 56.3288 190.809 56.0016 189.69 55.64C188.501 55.244 187.537 54.8651 186.797 54.5035C186.074 54.1247 185.436 53.5823 184.885 52.8763C184.352 52.153 184.085 51.2146 184.085 50.0608C184.085 48.8899 184.377 47.8911 184.963 47.0646C185.548 46.2208 186.358 45.5837 187.391 45.1532C188.424 44.7227 189.595 44.5075 190.904 44.5075C193.022 44.5075 194.709 45.0068 195.966 46.0056C197.241 46.9871 197.921 48.3733 198.007 50.1641H192.505C192.488 49.6131 192.316 49.1998 191.988 48.9243C191.679 48.6488 191.274 48.5111 190.775 48.5111C190.396 48.5111 190.086 48.623 189.845 48.8468C189.604 49.0707 189.483 49.3893 189.483 49.8025C189.483 50.1469 189.612 50.4483 189.87 50.7066C190.146 50.9476 190.482 51.1629 190.878 51.3523C191.274 51.5245 191.859 51.7484 192.634 52.0239C193.788 52.4199 194.735 52.816 195.475 53.212C196.233 53.5909 196.879 54.1333 197.413 54.8393C197.964 55.5281 198.239 56.4063 198.239 57.4739C198.239 58.5588 197.964 59.5317 197.413 60.3927C196.879 61.2537 196.095 61.9338 195.062 62.4332C194.046 62.9326 192.841 63.1823 191.446 63.1823Z" fill="#FF6420"/>
<path d="M204.555 48.8727V44.12H212.511V63.0015H207.216V48.8727H204.555ZM232.093 53.6511C233.16 53.8922 234.004 54.426 234.624 55.2526C235.261 56.0619 235.58 56.9918 235.58 58.0422C235.58 59.592 235.046 60.8059 233.978 61.6842C232.911 62.5624 231.413 63.0015 229.484 63.0015H220.469V44.7916H229.2C231.06 44.7916 232.515 45.2049 233.565 46.0314C234.633 46.858 235.167 48.0203 235.167 49.5184C235.167 50.586 234.882 51.4815 234.314 52.2047C233.763 52.9107 233.023 53.3928 232.093 53.6511ZM225.532 52.0239H228.089C229.363 52.0239 230.001 51.4987 230.001 50.4483C230.001 49.3634 229.363 48.821 228.089 48.821H225.532V52.0239ZM228.477 58.9204C229.751 58.9204 230.388 58.3866 230.388 57.319C230.388 56.7679 230.216 56.346 229.871 56.0533C229.544 55.7606 229.071 55.6142 228.451 55.6142H225.532V58.9204H228.477ZM242.758 44.7916V55.3559C242.758 56.3374 242.982 57.0951 243.429 57.6289C243.894 58.1627 244.592 58.4296 245.522 58.4296C246.451 58.4296 247.149 58.1627 247.614 57.6289C248.096 57.0779 248.337 56.3202 248.337 55.3559V44.7916H253.4V55.3559C253.4 57.0262 253.047 58.4555 252.341 59.6436C251.635 60.8146 250.67 61.7014 249.448 62.3041C248.242 62.8895 246.899 63.1823 245.418 63.1823C243.937 63.1823 242.611 62.8895 241.44 62.3041C240.287 61.7014 239.374 60.8146 238.703 59.6436C238.048 58.4727 237.721 57.0434 237.721 55.3559V44.7916H242.758ZM261.25 59.127H266.906V63.0015H256.187V44.7916H261.25V59.127ZM280.395 60.0311H273.937L272.956 63.0015H267.635L274.273 44.7916H280.111L286.723 63.0015H281.376L280.395 60.0311ZM279.129 56.1566L277.166 50.2675L275.229 56.1566H279.129ZM305.24 63.0015H300.177L293.436 52.8246V63.0015H288.373V44.7916H293.436L300.177 55.0976V44.7916H305.24V63.0015Z" fill="black"/>
</g>
</g>
<defs>
<filter id="filter0_d_141_82" x="0.626789" y="0.626789" width="429.696" height="322.662" filterUnits="userSpaceOnUse" color-interpolation-filters="sRGB">
<feFlood flood-opacity="0" result="BackgroundImageFix"/>
<feColorMatrix in="SourceAlpha" type="matrix" values="0 0 0 0 0 0 0 0 0 0 0 0 0 0 0 0 0 0 127 0" result="hardAlpha"/>
<feOffset dx="3.45774" dy="3.45774"/>
<feGaussianBlur stdDeviation="6.91547"/>
<feComposite in2="hardAlpha" operator="out"/>
<feColorMatrix type="matrix" values="0 0 0 0 0 0 0 0 0 0 0 0 0 0 0 0 0 0 0.26 0"/>
<feBlend mode="normal" in2="BackgroundImageFix" result="effect1_dropShadow_141_82"/>
<feBlend mode="normal" in="SourceGraphic" in2="effect1_dropShadow_141_82" result="shape"/>
</filter>
<filter id="filter1_d_141_82" x="-5.83095" y="-27" width="456.351" height="407.95" filterUnits="userSpaceOnUse" color-interpolation-filters="sRGB">
<feFlood flood-opacity="0" result="BackgroundImageFix"/>
<feColorMatrix in="SourceAlpha" type="matrix" values="0 0 0 0 0 0 0 0 0 0 0 0 0 0 0 0 0 0 127 0" result="hardAlpha"/>
<feOffset dy="13.8309"/>
<feGaussianBlur stdDeviation="6.91547"/>
<feComposite in2="hardAlpha" operator="out"/>
<feColorMatrix type="matrix" values="0 0 0 0 0.974942 0 0 0 0 0 0 0 0 0 0 0 0 0 1 0"/>
<feBlend mode="normal" in2="BackgroundImageFix" result="effect1_dropShadow_141_82"/>
<feBlend mode="normal" in="SourceGraphic" in2="effect1_dropShadow_141_82" result="shape"/>
</filter>
</defs>
</svg>
