<svg width="50" height="44" viewBox="0 0 50 44" fill="none" xmlns="http://www.w3.org/2000/svg">
<path d="M25.6608 0.146589C25.2419 -0.048863 24.7581 -0.048863 24.3392 0.146589L0.901745 11.0841C0.337231 11.3475 -0.0168595 11.9211 0.000618732 12.5438C0.0180969 13.1666 0.403804 13.7194 0.982206 13.9507L24.4197 23.3257C24.7922 23.4748 25.2078 23.4748 25.5803 23.3257L43.75 16.0579V34.375C42.0241 34.375 40.625 35.7741 40.625 37.5V43.75H50V37.5C50 35.7741 48.6009 34.375 46.875 34.375V14.8079L49.0178 13.9507C49.5962 13.7194 49.9819 13.1666 49.9994 12.5438C50.0169 11.9211 49.6628 11.3475 49.0983 11.0841L25.6608 0.146589ZM25 20.1921L5.49381 12.3897L25 3.28677L44.5062 12.3897L25 20.1921Z" fill="#FF8854"/>
<path d="M13.0486 21.9745C12.6421 21.8221 12.1906 21.8456 11.8022 22.0395C11.4137 22.2334 11.1235 22.5801 11.001 22.9966L9.43849 28.3091C9.21111 29.0822 9.60898 29.9014 10.3572 30.2007L24.4197 35.8257C24.7922 35.9747 25.2078 35.9747 25.5803 35.8257L39.6428 30.2007C40.391 29.9014 40.7889 29.0822 40.5615 28.3091L38.999 22.9966C38.8765 22.5801 38.5863 22.2334 38.1978 22.0395C37.8094 21.8456 37.3578 21.8221 36.9514 21.9745L25 26.4562L13.0486 21.9745ZM12.8376 27.8272L13.5248 25.4906L24.4514 29.588C24.8051 29.7206 25.1949 29.7206 25.5486 29.588L36.4752 25.4906L37.1624 27.8272L25 32.6921L12.8376 27.8272Z" fill="#FF8854"/>
</svg>
