<svg height="20" viewBox="0 0 30 31" fill="none" xmlns="http://www.w3.org/2000/svg">
<path d="M3 15.5C3 8.885 8.385 3.5 15 3.5C21.615 3.5 27 8.885 27 15.5C27 22.115 21.615 27.5 15 27.5C8.385 27.5 3 22.115 3 15.5ZM0 15.5C0 23.78 6.72 30.5 15 30.5C23.28 30.5 30 23.78 30 15.5C30 7.22 23.28 0.500002 15 0.500002C6.72 0.500002 0 7.22 0 15.5ZM15 14H10.5C9.675 14 9 14.675 9 15.5C9 16.325 9.675 17 10.5 17H15V19.685C15 20.36 15.81 20.69 16.275 20.21L20.46 16.025C20.76 15.725 20.76 15.26 20.46 14.96L16.275 10.775C15.81 10.31 15 10.64 15 11.3V14Z" fill="white"/>
</svg>
