<svg id="Layer_1" data-name="Layer 1" xmlns="http://www.w3.org/2000/svg" viewBox="0 0 1080 165.52"><defs><style>.cls-1{fill:#ffffff;}.cls-2{fill:#ffffff}</style></defs><path class="cls-1" d="M105.79,132a29.23,29.23,0,0,1-11.48-11.49,34.44,34.44,0,0,1-4.17-17.15,33.65,33.65,0,0,1,4.28-17.14A29.83,29.83,0,0,1,106.14,74.7a35.84,35.84,0,0,1,33.14,0A29.89,29.89,0,0,1,151,86.19a33.75,33.75,0,0,1,4.28,17.14,33,33,0,0,1-4.39,17.15A30.59,30.59,0,0,1,139,132,34.64,34.64,0,0,1,122.25,136,33.43,33.43,0,0,1,105.79,132Zm24.64-12a15.55,15.55,0,0,0,6.11-6.35,21.43,21.43,0,0,0,2.28-10.29q0-9-4.74-13.88a15.59,15.59,0,0,0-11.6-4.86A15.24,15.24,0,0,0,111,89.45q-4.63,4.86-4.63,13.88t4.52,13.89a14.86,14.86,0,0,0,11.37,4.86A16.67,16.67,0,0,0,130.43,120Z"/><path class="cls-1" d="M171.34,86.07a28.09,28.09,0,0,1,10.4-11.43,27.78,27.78,0,0,1,14.69-4,25.83,25.83,0,0,1,12.4,2.86,25.3,25.3,0,0,1,8.52,7.2v-9h16.12V135H217.35v-9.26a23.84,23.84,0,0,1-8.52,7.38A26.08,26.08,0,0,1,196.32,136a27,27,0,0,1-14.58-4.11,28.73,28.73,0,0,1-10.4-11.61,37.26,37.26,0,0,1-3.83-17.19A36.74,36.74,0,0,1,171.34,86.07Zm43.72,7.26a16.06,16.06,0,0,0-6.17-6.4,16.56,16.56,0,0,0-8.35-2.23,16,16,0,0,0-14.34,8.52,19.87,19.87,0,0,0-2.34,9.89,20.48,20.48,0,0,0,2.34,10,16.8,16.8,0,0,0,6.18,6.58,15.65,15.65,0,0,0,8.16,2.28,16.45,16.45,0,0,0,8.35-2.23,16,16,0,0,0,6.17-6.4,20.44,20.44,0,0,0,2.29-10A20.47,20.47,0,0,0,215.06,93.33Z"/><path class="cls-1" d="M269.69,50.41V135h-16V50.41Z"/><path class="cls-1" d="M300.33,133.22a24.62,24.62,0,0,1-9.77-7.6A19.2,19.2,0,0,1,286.61,115h16.12a8.75,8.75,0,0,0,3.6,6.06,12.5,12.5,0,0,0,7.83,2.4,12.15,12.15,0,0,0,7.14-1.83,5.52,5.52,0,0,0,2.57-4.69,4.93,4.93,0,0,0-3.14-4.62,58.25,58.25,0,0,0-10-3.38,84.63,84.63,0,0,1-11.61-3.54,20.32,20.32,0,0,1-7.77-5.6c-2.17-2.51-3.25-5.91-3.25-10.17a16.31,16.31,0,0,1,3-9.6,20.27,20.27,0,0,1,8.68-6.86,32.5,32.5,0,0,1,13.32-2.52q11.31,0,18.06,5.66t7.43,15.26H323.3a8.31,8.31,0,0,0-3.14-6,11.66,11.66,0,0,0-7.49-2.23,11.81,11.81,0,0,0-6.69,1.6,5.1,5.1,0,0,0-2.34,4.46,5.26,5.26,0,0,0,3.2,4.86,50.4,50.4,0,0,0,10,3.37,83.8,83.8,0,0,1,11.31,3.54,20.12,20.12,0,0,1,7.72,5.66c2.17,2.55,3.29,5.93,3.37,10.11a16.75,16.75,0,0,1-3,9.83,19.83,19.83,0,0,1-8.69,6.8,32.86,32.86,0,0,1-13.2,2.46A33.31,33.31,0,0,1,300.33,133.22Z"/><path class="cls-1" d="M65.06,92.68H44.72l18.43,18.43a24.93,24.93,0,0,1-20.3,9.68,28.11,28.11,0,1,1,20.5-47.32l10.36-9.68a42.3,42.3,0,1,0,0,57.77,38.34,38.34,0,0,0,7.76-11.9Zm-1.14,17.8c-.05,0-.05-.15,0-.41C64.08,110,64,110.33,63.92,110.48Z"/><path class="cls-1" d="M60.77,110.48c-.05,0-.05-.15,0-.41C60.93,110,60.82,110.33,60.77,110.48Z"/><path class="cls-1" d="M438.35,118.31H403.61L397.21,136h-11L415,56.82h12L455.73,136h-11Zm-3-8.46L421,69.62l-14.4,40.23Z"/><path class="cls-1" d="M472.87,87.63a27.9,27.9,0,0,1,10.8-11.26,31,31,0,0,1,15.83-4q11.55,0,19,5.61a26.42,26.42,0,0,1,9.89,15.54h-11.2a16.08,16.08,0,0,0-6.23-9,19.24,19.24,0,0,0-11.49-3.31,18.45,18.45,0,0,0-14.4,6.11q-5.49,6.12-5.49,17.32t5.49,17.48a18.34,18.34,0,0,0,14.4,6.18,19.49,19.49,0,0,0,11.43-3.2,16.31,16.31,0,0,0,6.29-9.14h11.2a27.51,27.51,0,0,1-10.06,15.36q-7.54,5.79-18.86,5.78a31,31,0,0,1-15.83-4,27.91,27.91,0,0,1-10.8-11.31A36.08,36.08,0,0,1,469,104.6,35.4,35.4,0,0,1,472.87,87.63Z"/><path class="cls-1" d="M546.82,87.63a28.11,28.11,0,0,1,10.69-11.26,29.27,29.27,0,0,1,15.14-4,27.82,27.82,0,0,1,14.29,3.55,23.53,23.53,0,0,1,9,8.92V73.4h10.51V136H596V124.37a24.56,24.56,0,0,1-9.2,9.09,27.54,27.54,0,0,1-14.23,3.6,28.36,28.36,0,0,1-15.09-4.12,28.75,28.75,0,0,1-10.63-11.54,35.94,35.94,0,0,1-3.89-16.91A35.15,35.15,0,0,1,546.82,87.63Zm46.29,4.62a20.25,20.25,0,0,0-7.71-8.06,21.86,21.86,0,0,0-21.32,0,20,20,0,0,0-7.66,8,25.4,25.4,0,0,0-2.86,12.35A26,26,0,0,0,556.42,117a20.31,20.31,0,0,0,7.66,8.12,20.76,20.76,0,0,0,10.63,2.79,21.11,21.11,0,0,0,10.69-2.79,20.15,20.15,0,0,0,7.71-8.12A25.88,25.88,0,0,0,596,104.6,25.57,25.57,0,0,0,593.11,92.25Z"/><path class="cls-1" d="M628.66,87.63a28.08,28.08,0,0,1,10.68-11.26,29.5,29.5,0,0,1,15.26-4,28.3,28.3,0,0,1,13.6,3.38,24.2,24.2,0,0,1,9.6,8.86V51.45h10.52V136H677.8V124.26a24.29,24.29,0,0,1-9.14,9.2,27.21,27.21,0,0,1-14.17,3.6,28.5,28.5,0,0,1-25.83-15.66,35.82,35.82,0,0,1-3.89-16.91A35,35,0,0,1,628.66,87.63ZM675,92.25a20.27,20.27,0,0,0-7.72-8.06,21.84,21.84,0,0,0-21.31,0,19.91,19.91,0,0,0-7.66,8,25.4,25.4,0,0,0-2.86,12.35A26,26,0,0,0,638.26,117a20.24,20.24,0,0,0,7.66,8.12,20.76,20.76,0,0,0,10.63,2.79,21.07,21.07,0,0,0,10.68-2.79A20.18,20.18,0,0,0,675,117a25.88,25.88,0,0,0,2.85-12.4A25.57,25.57,0,0,0,675,92.25Z"/><path class="cls-1" d="M767.3,108.6H717.24q.57,9.25,6.34,14.46a20.15,20.15,0,0,0,14,5.2,19.27,19.27,0,0,0,11.26-3.14,16.66,16.66,0,0,0,6.34-8.41h11.2a26.85,26.85,0,0,1-10.06,14.69q-7.55,5.65-18.74,5.66a31.67,31.67,0,0,1-16-4,28.29,28.29,0,0,1-11-11.38,35.18,35.18,0,0,1-4-17.08,35.75,35.75,0,0,1,3.88-17,27.25,27.25,0,0,1,10.92-11.26,32.44,32.44,0,0,1,16.17-4,31.44,31.44,0,0,1,15.77,3.89,26.93,26.93,0,0,1,10.58,10.69,31.6,31.6,0,0,1,3.71,15.37A60.87,60.87,0,0,1,767.3,108.6Zm-13-18.69a17.15,17.15,0,0,0-7.15-6.51,22.19,22.19,0,0,0-10-2.23,19.27,19.27,0,0,0-13.43,5q-5.54,5-6.34,13.94H756.9A19.22,19.22,0,0,0,754.27,89.91Z"/><path class="cls-1" d="M874.28,75.28a21.86,21.86,0,0,1,9,9.09,30.3,30.3,0,0,1,3.32,14.74V136H876.34V100.6q0-9.37-4.63-14.35t-12.52-5q-8.12,0-12.91,5.2t-4.8,15V136H831.19V100.6q0-9.37-4.63-14.35t-12.51-5q-8.13,0-12.92,5.2t-4.8,15V136h-10.4V73.4h10.4v9a20.65,20.65,0,0,1,8.29-7.54,25.08,25.08,0,0,1,11.48-2.63,27.15,27.15,0,0,1,13.95,3.55,21.66,21.66,0,0,1,9,10.4,20.49,20.49,0,0,1,8.69-10.29,25.51,25.51,0,0,1,13.48-3.66A27.38,27.38,0,0,1,874.28,75.28Z"/><path class="cls-1" d="M962.18,73.4l-37.72,92.12H913.71l12.35-30.18L900.8,73.4h11.54L932,124.14,951.43,73.4Z"/><path class="cls-1" d="M60.77,110.48c-.05,0-.05-.15,0-.41C60.93,110,60.82,110.33,60.77,110.48Z"/><path class="cls-2" d="M1078.93,8.4l-5.2,11.79a6,6,0,0,1-5.47,3.57H1054.6a6,6,0,0,1-5.48-8.4l5.19-11.79A6,6,0,0,1,1059.79,0h13.66A6,6,0,0,1,1078.93,8.4Z"/><path class="cls-2" d="M1037.81,32.17,1016.31,81a6,6,0,0,1-5.5,3.59H997.16a6,6,0,0,1-5.47-8.4l4.52-10.31c7.08-15.12-2.79-20.36-13.29-20.36H967.66a5.47,5.47,0,0,1-5-7.71L967.4,27a5.51,5.51,0,0,1,5-3.31h60A6,6,0,0,1,1037.81,32.17Z"/></svg>
