<svg id="Layer_1" data-name="Layer 1" xmlns="http://www.w3.org/2000/svg" viewBox="0 0 1080 625.36"><defs><style>.cls-1{fill:#fff;}</style></defs><path class="cls-1" d="M641.22,350.49a54.84,54.84,0,0,1-21.54-21.55q-7.81-13.92-7.82-32.15t8-32.14a55.91,55.91,0,0,1,22-21.55,67.35,67.35,0,0,1,62.16,0,56,56,0,0,1,22,21.55q8,13.94,8,32.14t-8.25,32.15a57.32,57.32,0,0,1-22.29,21.55,64.86,64.86,0,0,1-31.4,7.6A62.61,62.61,0,0,1,641.22,350.49ZM687.42,328a28.89,28.89,0,0,0,11.46-11.9q4.27-7.93,4.28-19.29,0-16.94-8.89-26a29.25,29.25,0,0,0-21.75-9.11A28.56,28.56,0,0,0,651,270.75q-8.68,9.12-8.69,26t8.47,26a27.87,27.87,0,0,0,21.33,9.11A31.19,31.19,0,0,0,687.42,328Z"/><path class="cls-1" d="M764.15,264.43A52.45,52.45,0,0,1,783.65,243a51.89,51.89,0,0,1,27.53-7.5q13.3,0,23.26,5.35a47.42,47.42,0,0,1,16,13.5V237.42h30.22V356.16H850.41V338.8a44.82,44.82,0,0,1-16,13.83A48.89,48.89,0,0,1,811,358.09a50.36,50.36,0,0,1-27.33-7.72,53.8,53.8,0,0,1-19.5-21.75q-7.2-14-7.19-32.25Q757,278.37,764.15,264.43Zm82,13.61a30.36,30.36,0,0,0-11.58-12,30.92,30.92,0,0,0-15.65-4.18,30.11,30.11,0,0,0-26.89,16,37.29,37.29,0,0,0-4.4,18.55,38.48,38.48,0,0,0,4.4,18.75,31.46,31.46,0,0,0,11.57,12.32,29.35,29.35,0,0,0,15.32,4.29,31,31,0,0,0,15.65-4.18,30.32,30.32,0,0,0,11.58-12q4.27-7.82,4.28-18.75T846.13,278Z"/><path class="cls-1" d="M948.56,197.56v158.6h-30V197.56Z"/><path class="cls-1" d="M1006,352.84a46.15,46.15,0,0,1-18.32-14.25,36.08,36.08,0,0,1-7.4-19.94h30.22a16.44,16.44,0,0,0,6.75,11.36q5.9,4.5,14.69,4.5c5.7,0,10.18-1.13,13.39-3.43a10.36,10.36,0,0,0,4.82-8.79c0-3.85-2-6.75-5.89-8.67s-10.18-4-18.76-6.32a160,160,0,0,1-21.76-6.65,37.82,37.82,0,0,1-14.57-10.5q-6.1-7.06-6.1-19.08a30.77,30.77,0,0,1,5.68-18q5.67-8.15,16.28-12.86t25-4.71q21.23,0,33.86,10.61t13.94,28.6h-28.72a15.56,15.56,0,0,0-5.89-11.25q-5.27-4.17-14-4.18-8.15,0-12.54,3a9.55,9.55,0,0,0-4.39,8.36c0,4,2,7,6,9.11s10.21,4.17,18.65,6.32a157.17,157.17,0,0,1,21.21,6.64,37.61,37.61,0,0,1,14.47,10.61q6.11,7.19,6.32,19a31.5,31.5,0,0,1-5.68,18.44q-5.68,8.14-16.28,12.75c-7.09,3.07-15.33,4.61-24.77,4.61A62.77,62.77,0,0,1,1006,352.84Z"/><path class="cls-1" d="M558.93,276.81H520.79l34.55,34.56c-9.41,11.55-21.74,18.15-38.05,18.15a52.71,52.71,0,1,1,38.44-88.72l19.42-18.15a79.31,79.31,0,1,0,0,108.33,72.14,72.14,0,0,0,14.56-22.33ZM556.8,310.2c-.1-.09-.1-.29.1-.77C557.09,309.23,556.9,309.91,556.8,310.2Z"/><path class="cls-1" d="M556.8,310.2c-.1-.09-.1-.29.1-.77C557.09,309.23,556.9,309.91,556.8,310.2Z"/><path class="cls-1" d="M97.74,536.84H32.58l-12,33.22H0L54,421.53h22.5l53.8,148.53H109.74ZM92.16,521l-27-75.44L38.16,521Z"/><path class="cls-1" d="M162.46,479.3a52.44,52.44,0,0,1,20.25-21.12q13-7.5,29.69-7.5,21.65,0,35.68,10.5t18.55,29.15h-21a30.14,30.14,0,0,0-11.68-16.93q-8.67-6.21-21.54-6.22-16.72,0-27,11.47t-10.28,32.47q0,21.21,10.28,32.79t27,11.57q12.85,0,21.44-6t11.78-17.14h21a51.61,51.61,0,0,1-18.87,28.82Q233.63,572,212.4,572q-16.72,0-29.69-7.5a52.38,52.38,0,0,1-20.25-21.22q-7.29-13.71-7.29-32.15Q155.17,492.91,162.46,479.3Z"/><path class="cls-1" d="M301.13,479.3a52.8,52.8,0,0,1,20-21.12,55,55,0,0,1,28.4-7.5q15.44,0,26.79,6.64T393.29,474V452.61H413V570.06H393.29V548.2a46,46,0,0,1-17.25,17Q364.56,572,349.35,572a53.15,53.15,0,0,1-28.28-7.72,54,54,0,0,1-19.94-21.64q-7.29-13.93-7.29-31.72Q293.84,492.9,301.13,479.3ZM387.94,488a38,38,0,0,0-14.47-15.11,41.06,41.06,0,0,0-40-.11,37.48,37.48,0,0,0-14.36,15q-5.36,9.86-5.35,23.15,0,13.5,5.35,23.46a38,38,0,0,0,14.36,15.23,39,39,0,0,0,19.94,5.24,39.55,39.55,0,0,0,20-5.24,37.8,37.8,0,0,0,14.47-15.23q5.34-10,5.35-23.25T387.94,488Z"/><path class="cls-1" d="M454.59,479.3a52.74,52.74,0,0,1,20-21.12,55.35,55.35,0,0,1,28.61-7.5A53.19,53.19,0,0,1,528.75,457a45.56,45.56,0,0,1,18,16.62V411.46h19.72v158.6H546.75V548a45.61,45.61,0,0,1-17.15,17.25Q518.24,572,503,572a53.46,53.46,0,0,1-48.44-29.36q-7.29-13.93-7.29-31.72Q447.3,492.9,454.59,479.3Zm86.8,8.67a38,38,0,0,0-14.46-15.11,41.06,41.06,0,0,0-40-.11,37.42,37.42,0,0,0-14.36,15q-5.35,9.86-5.36,23.15,0,13.5,5.36,23.46A38,38,0,0,0,487,549.6a39,39,0,0,0,19.94,5.24,39.55,39.55,0,0,0,20-5.24,37.78,37.78,0,0,0,14.46-15.23q5.36-10,5.36-23.25T541.39,488Z"/><path class="cls-1" d="M714.57,518.63H620.69q1.06,17.34,11.9,27.11t26.25,9.74q12.64,0,21.11-5.88a31.27,31.27,0,0,0,11.9-15.76h21A50.45,50.45,0,0,1,694,561.38Q679.84,572,658.84,572a59.4,59.4,0,0,1-29.9-7.5,53.18,53.18,0,0,1-20.68-21.33q-7.5-13.81-7.5-32t7.29-31.94a51.1,51.1,0,0,1,20.46-21.11q13.18-7.4,30.33-7.39,16.73,0,29.57,7.29a50.45,50.45,0,0,1,19.84,20,59.28,59.28,0,0,1,7,28.82A117.5,117.5,0,0,1,714.57,518.63Zm-24.44-35.05a32.07,32.07,0,0,0-13.4-12.22A41.7,41.7,0,0,0,658,467.18a36.19,36.19,0,0,0-25.18,9.43q-10.39,9.45-11.9,26.15h74.16Q695.06,491.63,690.13,483.58Z"/><path class="cls-1" d="M915.18,456.15a41,41,0,0,1,16.93,17q6.21,11.37,6.22,27.65v69.23H919V503.62q0-17.58-8.69-26.9t-23.47-9.32q-15.21,0-24.21,9.75t-9,28.19v64.72H834.37V503.62q0-17.58-8.67-26.9t-23.47-9.32q-15.24,0-24.22,9.75t-9,28.19v64.72H749.5V452.61H769v16.93a38.5,38.5,0,0,1,15.55-14.14,47,47,0,0,1,21.53-4.93q14.79,0,26.15,6.64a40.59,40.59,0,0,1,16.93,19.5,38.54,38.54,0,0,1,16.3-19.29,47.92,47.92,0,0,1,25.28-6.85A51.36,51.36,0,0,1,915.18,456.15Z"/><path class="cls-1" d="M1080,452.61l-70.74,172.75H989.12l23.15-56.59L964.9,452.61h21.65l36.87,95.16,36.43-95.16Z"/><path class="cls-1" d="M556.8,310.2c-.1-.09-.1-.29.1-.77C557.09,309.23,556.9,309.91,556.8,310.2Z"/><path class="cls-1" d="M537.84,35.34,516,85a25.2,25.2,0,0,1-23.06,15H435.4a25.18,25.18,0,0,1-23-35.34L434.2,15A25.2,25.2,0,0,1,457.26,0h57.52A25.19,25.19,0,0,1,537.84,35.34Z"/><path class="cls-1" d="M364.82,135.42l-90.6,205.69a25.25,25.25,0,0,1-23.13,15H193.54a25.15,25.15,0,0,1-23-35.32l19.07-43.34c29.76-63.67-11.82-85.85-56-85.85H69.43a23,23,0,0,1-21.1-32.38l20-45.47A23.12,23.12,0,0,1,89.4,100H341.69A25.25,25.25,0,0,1,364.82,135.42Z"/></svg>