<?xml version="1.0" encoding="utf-8"?>
<!-- Generator: Adobe Illustrator 24.1.1, SVG Export Plug-In . SVG Version: 6.00 Build 0)  -->
<svg version="1.1" id="Capa_1" xmlns="http://www.w3.org/2000/svg" xmlns:xlink="http://www.w3.org/1999/xlink" x="0px" y="0px"
	 viewBox="0 0 1080 1080" style="enable-background:new 0 0 1080 1080;" xml:space="preserve">
<style type="text/css">
	.st0{fill:#4280EF;}
	.st1{fill:#34A353;}
	.st2{fill:#F6B704;}
	.st3{fill:#E54335;}
</style>
<g>
	<path class="st0" d="M853.6,547.7c0-21.6-2.1-43.9-5.6-64.8H546.2v123.4h172.9c-7,39.7-30,74.6-64.1,96.9l103.2,80.2
		C818.8,726.8,853.6,644.6,853.6,547.7L853.6,547.7z"/>
	<path class="st1" d="M546.2,860c86.4,0,159-28.6,211.9-77.4l-103.2-79.5c-28.6,19.5-65.5,30.7-108.8,30.7
		c-83.7,0-154.1-56.5-179.9-131.8l-106,81.6C314.7,791.7,424.9,860,546.2,860z"/>
	<path class="st2" d="M366.3,601.4c-13.2-39.7-13.2-83,0-122.7l-106-82.3c-45.3,90.6-45.3,197.3,0,287.2L366.3,601.4z"/>
	<path class="st3" d="M546.2,346.9c45.3-0.7,89.9,16.7,122.7,48.1l91.3-92c-57.9-54.4-134.6-83.7-214-83
		c-121.3,0-231.5,68.3-285.8,176.4l106,82.3C392.1,402.7,462.5,346.9,546.2,346.9z"/>
</g>
</svg>
