<svg width="265" height="200" viewBox="0 0 265 200" fill="none" xmlns="http://www.w3.org/2000/svg">
<path d="M68.9854 149.417H68.9325C68.2714 149.364 67.6102 149.284 66.9491 149.184C66.8623 149.172 66.7788 149.142 66.7034 149.097C66.628 149.052 66.5622 148.993 66.5097 148.922C66.4572 148.852 66.4191 148.771 66.3975 148.686C66.3759 148.601 66.3713 148.512 66.3838 148.425C66.3964 148.338 66.426 148.254 66.4709 148.178C66.5157 148.103 66.575 148.037 66.6453 147.984C66.7156 147.931 66.7955 147.893 66.8805 147.871C66.9656 147.85 67.054 147.845 67.1408 147.858C67.7799 147.951 68.4212 148.024 69.0647 148.077C69.2401 148.084 69.4054 148.16 69.5245 148.29C69.6435 148.419 69.7064 148.591 69.6994 148.767C69.6924 148.942 69.616 149.108 69.4871 149.228C69.3581 149.347 69.1872 149.41 69.0118 149.403L68.9854 149.417ZM75.5967 149.165C75.5099 149.171 75.4226 149.16 75.3399 149.133C75.2572 149.106 75.1807 149.062 75.1147 149.005C75.0487 148.948 74.9945 148.879 74.9553 148.801C74.916 148.723 74.8925 148.638 74.886 148.551C74.8795 148.464 74.8901 148.376 74.9173 148.293C74.9445 148.21 74.9878 148.133 75.0446 148.067C75.1013 148.001 75.1706 147.947 75.2483 147.907C75.326 147.868 75.4107 147.844 75.4975 147.838C76.1256 147.738 76.7669 147.612 77.395 147.46C77.4796 147.44 77.5673 147.437 77.653 147.452C77.7387 147.466 77.8207 147.497 77.8944 147.543C77.9681 147.59 78.032 147.65 78.0824 147.721C78.1329 147.792 78.1688 147.872 78.1883 147.957C78.2281 148.128 78.199 148.307 78.1073 148.456C78.0156 148.606 77.8689 148.712 77.6991 148.753C77.0379 148.912 76.3768 149.045 75.7157 149.151L75.5967 149.165ZM60.6552 147.546C60.5785 147.546 60.5024 147.532 60.4304 147.506C59.7692 147.274 59.1742 147.022 58.5528 146.756C58.4729 146.722 58.4006 146.672 58.3399 146.61C58.2792 146.547 58.2314 146.473 58.1992 146.392C58.1669 146.311 58.1509 146.225 58.152 146.138C58.1532 146.05 58.1714 145.964 58.2057 145.884C58.24 145.804 58.2897 145.731 58.3519 145.67C58.4142 145.61 58.4878 145.562 58.5685 145.529C58.6492 145.497 58.7355 145.481 58.8224 145.482C58.9093 145.483 58.9952 145.501 59.0751 145.536C59.6701 145.795 60.2849 146.033 60.8866 146.259C61.0332 146.312 61.1563 146.416 61.2341 146.552C61.3119 146.687 61.3394 146.846 61.3117 147C61.284 147.154 61.2029 147.294 61.0828 147.393C60.9626 147.493 60.8111 147.547 60.6552 147.546ZM83.7484 146.524C83.6245 146.525 83.503 146.49 83.3978 146.424C83.2926 146.358 83.2079 146.264 83.1534 146.153C83.0755 145.995 83.063 145.813 83.1188 145.646C83.1746 145.48 83.294 145.342 83.4509 145.264C84.0261 144.985 84.6013 144.673 85.1632 144.348C85.2387 144.304 85.3221 144.276 85.4085 144.265C85.495 144.253 85.5828 144.259 85.667 144.282C85.7512 144.305 85.8301 144.344 85.8991 144.398C85.968 144.451 86.0258 144.518 86.069 144.594C86.1552 144.746 86.1778 144.926 86.132 145.095C86.0862 145.264 85.9756 145.408 85.8244 145.496C85.236 145.834 84.6343 146.159 84.0393 146.458C83.9407 146.506 83.8316 146.529 83.722 146.524H83.7484ZM52.9794 143.698C52.8534 143.7 52.7295 143.665 52.6224 143.599C52.0605 143.24 51.4985 142.862 50.9498 142.478C50.8062 142.377 50.7082 142.224 50.6772 142.051C50.6462 141.878 50.6848 141.7 50.7845 141.555C50.8846 141.411 51.0375 141.313 51.2098 141.282C51.3821 141.251 51.5596 141.289 51.7035 141.39C52.239 141.768 52.7811 142.126 53.3298 142.478C53.4492 142.555 53.5405 142.669 53.5903 142.802C53.6401 142.936 53.6458 143.082 53.6065 143.218C53.5672 143.355 53.485 143.476 53.372 143.562C53.2591 143.649 53.1214 143.696 52.9794 143.698ZM90.8622 141.794C90.7662 141.793 90.6715 141.772 90.5847 141.73C90.4979 141.689 90.4212 141.629 90.3597 141.555C90.3033 141.489 90.2604 141.412 90.2335 141.33C90.2066 141.247 90.1962 141.159 90.203 141.073C90.2098 140.986 90.2335 140.901 90.2729 140.823C90.3122 140.746 90.3665 140.677 90.4324 140.62L90.5779 140.467C91.0142 140.089 91.4572 139.698 91.9002 139.287C92.029 139.167 92.2 139.104 92.3754 139.11C92.5509 139.117 92.7164 139.194 92.8356 139.323C92.9549 139.452 93.018 139.624 93.0112 139.8C93.0044 139.976 92.9282 140.142 92.7993 140.262C92.3365 140.686 91.8869 141.091 91.4374 141.476L91.2853 141.602C91.1721 141.715 91.0218 141.784 90.8622 141.794ZM46.1434 138.477C45.9795 138.477 45.8217 138.415 45.7004 138.305C45.2046 137.847 44.7153 137.383 44.2459 136.918C44.1205 136.795 44.0491 136.627 44.0472 136.451C44.0454 136.275 44.1133 136.105 44.236 135.98C44.3587 135.854 44.5263 135.782 44.7017 135.78C44.8771 135.778 45.0461 135.846 45.1715 135.97C45.6343 136.427 46.1103 136.878 46.5929 137.296C46.6576 137.355 46.7099 137.427 46.7469 137.506C46.7839 137.585 46.8049 137.671 46.8086 137.759C46.8123 137.847 46.7986 137.934 46.7684 138.016C46.7382 138.099 46.692 138.174 46.6326 138.238C46.5726 138.311 46.4979 138.369 46.4136 138.411C46.3292 138.452 46.2371 138.475 46.1434 138.477ZM96.9909 135.751C96.827 135.75 96.6691 135.689 96.5479 135.578C96.4184 135.46 96.3408 135.295 96.3322 135.12C96.3235 134.945 96.3844 134.773 96.5016 134.643C96.938 134.159 97.3809 133.668 97.8239 133.163C97.8799 133.094 97.9493 133.036 98.0281 132.994C98.1069 132.952 98.1934 132.926 98.2823 132.919C98.3712 132.911 98.4607 132.921 98.5455 132.949C98.6303 132.977 98.7085 133.022 98.7755 133.082C98.8425 133.141 98.8969 133.213 98.9353 133.294C98.9738 133.374 98.9956 133.462 98.9993 133.552C99.0031 133.641 98.9887 133.731 98.9571 133.814C98.9255 133.898 98.8774 133.975 98.8156 134.039C98.366 134.55 97.923 135.047 97.4933 135.532C97.4271 135.596 97.3482 135.646 97.2617 135.678C97.1751 135.71 97.0829 135.723 96.9909 135.717V135.751ZM40.332 132.129C40.2316 132.129 40.1324 132.107 40.0419 132.063C39.9514 132.019 39.872 131.955 39.8097 131.876C39.3866 131.339 38.9833 130.802 38.5933 130.264C38.5422 130.193 38.5056 130.113 38.4856 130.028C38.4656 129.943 38.4626 129.855 38.4767 129.768C38.4909 129.682 38.5219 129.599 38.568 129.525C38.6141 129.451 38.6743 129.386 38.7453 129.336C38.8876 129.234 39.064 129.193 39.2361 129.222C39.4083 129.251 39.5622 129.346 39.6643 129.488C40.0477 130.012 40.4378 130.536 40.8477 131.054C40.9246 131.151 40.9725 131.269 40.9861 131.392C40.9997 131.516 40.9784 131.641 40.9247 131.753C40.8709 131.865 40.7868 131.96 40.682 132.026C40.5773 132.092 40.456 132.128 40.332 132.129ZM102.597 129.19C102.443 129.19 102.293 129.136 102.174 129.037C102.04 128.926 101.955 128.766 101.938 128.592C101.92 128.418 101.972 128.244 102.082 128.108C102.498 127.597 102.915 127.087 103.331 126.563C103.386 126.494 103.453 126.438 103.53 126.396C103.606 126.354 103.69 126.328 103.777 126.318C103.863 126.309 103.951 126.317 104.034 126.342C104.118 126.367 104.196 126.408 104.263 126.463C104.399 126.573 104.485 126.733 104.503 126.907C104.522 127.081 104.471 127.255 104.362 127.392L103.106 128.944C103.045 129.02 102.967 129.082 102.879 129.124C102.791 129.167 102.695 129.189 102.597 129.19ZM35.6248 124.931C35.5017 124.927 35.3821 124.889 35.2793 124.821C35.1765 124.753 35.0947 124.658 35.043 124.546C34.7257 123.929 34.4281 123.312 34.1637 122.715C34.1285 122.635 34.1093 122.549 34.1071 122.462C34.105 122.375 34.1201 122.288 34.1514 122.207C34.1827 122.126 34.2297 122.051 34.2896 121.988C34.3496 121.925 34.4214 121.874 34.5009 121.839C34.5803 121.804 34.6659 121.785 34.7528 121.782C34.8396 121.78 34.9261 121.795 35.0071 121.827C35.0882 121.858 35.1622 121.905 35.2251 121.966C35.288 122.026 35.3384 122.098 35.3736 122.178C35.6314 122.748 35.9157 123.345 36.2198 123.936C36.2597 124.013 36.2838 124.098 36.2907 124.186C36.2976 124.273 36.2873 124.361 36.2603 124.444C36.2332 124.527 36.19 124.604 36.1331 124.671C36.0763 124.737 36.0069 124.792 35.9289 124.831C35.8348 124.879 35.7305 124.905 35.6248 124.904V124.931ZM107.952 122.43C107.829 122.429 107.708 122.394 107.604 122.329C107.499 122.263 107.415 122.17 107.36 122.058C107.306 121.947 107.284 121.823 107.296 121.7C107.308 121.577 107.355 121.46 107.43 121.362L108.647 119.789C108.697 119.714 108.763 119.651 108.839 119.602C108.915 119.553 109 119.521 109.089 119.507C109.178 119.492 109.27 119.496 109.357 119.519C109.444 119.541 109.526 119.581 109.598 119.637C109.669 119.692 109.729 119.761 109.772 119.841C109.816 119.92 109.843 120.007 109.852 120.097C109.861 120.187 109.851 120.278 109.823 120.365C109.796 120.451 109.751 120.531 109.691 120.599L108.475 122.171C108.41 122.246 108.33 122.306 108.24 122.347C108.149 122.387 108.051 122.406 107.952 122.403V122.43ZM32.8943 116.791C32.7339 116.792 32.5784 116.735 32.4567 116.63C32.3351 116.525 32.2556 116.38 32.2332 116.22C32.1406 115.557 32.0811 114.847 32.0547 114.17C32.0547 113.994 32.1243 113.826 32.2483 113.701C32.3723 113.577 32.5405 113.507 32.7158 113.507C32.8912 113.507 33.0593 113.577 33.1833 113.701C33.3073 113.826 33.3769 113.994 33.3769 114.17C33.3989 114.81 33.4541 115.447 33.5422 116.081C33.5543 116.168 33.5492 116.256 33.5271 116.341C33.505 116.425 33.4664 116.505 33.4136 116.575C33.3607 116.644 33.2946 116.703 33.2191 116.747C33.1436 116.791 33.0602 116.819 32.9737 116.831L32.8943 116.791ZM113.208 115.59C113.084 115.591 112.963 115.557 112.857 115.492C112.752 115.427 112.666 115.333 112.611 115.222C112.556 115.11 112.533 114.986 112.545 114.862C112.557 114.738 112.604 114.62 112.679 114.522L113.889 112.943C113.998 112.812 114.154 112.728 114.323 112.708C114.492 112.689 114.662 112.736 114.798 112.84C114.933 112.943 115.024 113.095 115.05 113.264C115.077 113.433 115.038 113.605 114.941 113.746L113.717 115.305C113.657 115.383 113.58 115.447 113.492 115.492C113.404 115.537 113.307 115.561 113.208 115.563V115.59ZM222.143 111.941C222.081 111.948 222.019 111.948 221.958 111.941C221.874 111.917 221.796 111.876 221.729 111.822C221.661 111.767 221.605 111.7 221.563 111.623C221.521 111.547 221.495 111.463 221.485 111.377C221.476 111.29 221.484 111.202 221.508 111.119C221.673 110.535 221.852 109.898 222.03 109.215C222.052 109.13 222.09 109.051 222.142 108.981C222.194 108.911 222.26 108.852 222.335 108.808C222.41 108.763 222.493 108.734 222.579 108.722C222.665 108.71 222.753 108.715 222.837 108.737C222.921 108.759 223 108.798 223.07 108.851C223.139 108.905 223.197 108.971 223.241 109.047C223.285 109.123 223.313 109.207 223.324 109.293C223.335 109.38 223.329 109.469 223.306 109.553C223.128 110.216 222.949 110.88 222.777 111.484C222.734 111.618 222.649 111.734 222.535 111.817C222.421 111.899 222.283 111.943 222.143 111.941ZM118.431 108.744C118.285 108.743 118.143 108.694 118.028 108.604C117.89 108.497 117.8 108.339 117.777 108.165C117.755 107.991 117.802 107.815 117.909 107.676L119.119 106.097C119.227 105.957 119.385 105.866 119.56 105.843C119.735 105.821 119.912 105.869 120.051 105.977C120.19 106.086 120.281 106.245 120.304 106.42C120.326 106.596 120.278 106.773 120.17 106.913L118.954 108.485C118.89 108.557 118.812 108.615 118.724 108.654C118.636 108.693 118.541 108.712 118.445 108.711L118.431 108.744ZM33.5819 108.273C33.5183 108.282 33.4537 108.282 33.3902 108.273C33.2228 108.221 33.0828 108.104 33.001 107.949C32.9191 107.793 32.9022 107.611 32.9538 107.443C33.1456 106.78 33.3769 106.15 33.615 105.513C33.6437 105.427 33.6896 105.348 33.7499 105.281C33.8102 105.213 33.8836 105.159 33.9656 105.121C34.0476 105.083 34.1364 105.063 34.2266 105.061C34.3168 105.059 34.4065 105.075 34.4901 105.109C34.5737 105.143 34.6495 105.194 34.7128 105.259C34.7761 105.323 34.8256 105.4 34.8582 105.484C34.8908 105.569 34.9058 105.659 34.9024 105.75C34.8989 105.84 34.877 105.929 34.838 106.01C34.6 106.614 34.3819 107.225 34.1769 107.828C34.1291 107.945 34.049 108.046 33.9459 108.119C33.8428 108.192 33.7211 108.234 33.5951 108.24L33.5819 108.273ZM224.126 103.509C224.085 103.516 224.042 103.516 224 103.509C223.829 103.477 223.677 103.378 223.578 103.234C223.479 103.09 223.441 102.912 223.472 102.74C223.591 102.077 223.703 101.453 223.815 100.79C223.83 100.702 223.861 100.619 223.907 100.544C223.954 100.469 224.015 100.404 224.086 100.353C224.158 100.301 224.239 100.264 224.324 100.244C224.41 100.224 224.499 100.221 224.586 100.236C224.672 100.25 224.756 100.281 224.83 100.328C224.905 100.375 224.97 100.436 225.021 100.507C225.072 100.579 225.109 100.66 225.129 100.746C225.149 100.832 225.152 100.921 225.138 101.008C225.025 101.672 224.913 102.335 224.794 102.999C224.759 103.148 224.673 103.281 224.551 103.374C224.429 103.467 224.279 103.515 224.126 103.509ZM123.72 101.897C123.596 101.898 123.474 101.863 123.368 101.798C123.262 101.732 123.177 101.637 123.123 101.525C123.068 101.413 123.046 101.287 123.059 101.163C123.073 101.039 123.121 100.921 123.198 100.823L124.434 99.2571C124.488 99.1861 124.554 99.1265 124.631 99.0818C124.708 99.0372 124.792 99.0085 124.88 98.9974C124.968 98.9863 125.057 98.993 125.142 99.0171C125.228 99.0412 125.307 99.0823 125.376 99.1379C125.445 99.1934 125.503 99.2623 125.545 99.3406C125.587 99.4188 125.613 99.5046 125.621 99.5931C125.629 99.6816 125.62 99.7708 125.593 99.8556C125.567 99.9403 125.523 100.019 125.466 100.086L124.236 101.645C124.176 101.722 124.1 101.784 124.013 101.828C123.926 101.871 123.831 101.895 123.734 101.897H123.72ZM37.5156 100.61C37.3748 100.609 37.2382 100.563 37.1256 100.478C36.9862 100.373 36.8934 100.218 36.8674 100.045C36.8414 99.8727 36.8843 99.6967 36.9867 99.5556C37.3834 99.0183 37.8065 98.4809 38.2429 97.9568C38.356 97.8222 38.5177 97.7382 38.6925 97.7233C38.8673 97.7084 39.0409 97.7637 39.1751 97.8772C39.3092 97.9907 39.3929 98.153 39.4078 98.3284C39.4227 98.5039 39.3675 98.678 39.2544 98.8126C38.8313 99.3102 38.428 99.8276 38.0511 100.338C37.9896 100.423 37.909 100.492 37.8159 100.539C37.7228 100.586 37.6199 100.611 37.5156 100.61ZM129.115 95.1639C128.963 95.1627 128.816 95.1088 128.699 95.0113C128.564 94.9 128.479 94.74 128.462 94.5661C128.445 94.3922 128.496 94.2184 128.606 94.0826L129.869 92.5435C129.923 92.4751 129.989 92.418 130.065 92.3755C130.141 92.333 130.224 92.3059 130.311 92.2957C130.397 92.2856 130.484 92.2926 130.568 92.3163C130.651 92.34 130.73 92.38 130.798 92.434C130.866 92.4881 130.923 92.555 130.965 92.6311C131.007 92.7072 131.035 92.7909 131.045 92.8774C131.055 92.964 131.048 93.0517 131.024 93.1355C131.001 93.2194 130.961 93.2977 130.907 93.3661L129.651 94.8986C129.588 94.9819 129.507 95.0493 129.414 95.0954C129.321 95.1415 129.219 95.165 129.115 95.1639ZM225.29 94.9649H225.237C225.062 94.9513 224.901 94.869 224.787 94.736C224.673 94.603 224.616 94.43 224.629 94.2551C224.681 93.5917 224.721 92.9283 224.761 92.2649C224.761 92.1749 224.779 92.0858 224.814 92.0031C224.849 91.9204 224.901 91.8457 224.966 91.7837C225.031 91.7216 225.108 91.6734 225.192 91.6421C225.276 91.6108 225.365 91.597 225.455 91.6015C225.629 91.6118 225.792 91.6908 225.909 91.8212C226.025 91.9517 226.085 92.1231 226.076 92.298C226.043 92.9614 225.997 93.6248 225.944 94.2882C225.946 94.3759 225.93 94.4631 225.898 94.5447C225.866 94.6263 225.818 94.7007 225.758 94.7636C225.697 94.8265 225.624 94.8767 225.544 94.9113C225.463 94.9458 225.377 94.9641 225.29 94.9649ZM43.479 94.401C43.3419 94.4016 43.2079 94.3594 43.0957 94.2802C42.9836 94.201 42.8987 94.0887 42.853 93.959C42.8072 93.8292 42.8028 93.6884 42.8403 93.556C42.8779 93.4237 42.9555 93.3063 43.0625 93.2202C44.0476 92.4241 44.6823 91.9995 44.7087 91.9796C44.8551 91.8863 45.0322 91.8545 45.2018 91.891C45.3714 91.9274 45.5199 92.0293 45.6153 92.1747C45.7107 92.32 45.7454 92.4972 45.7118 92.6679C45.6783 92.8387 45.5792 92.9894 45.436 93.0875C45.436 93.0875 44.8211 93.4988 43.8955 94.2484C43.7748 94.3488 43.6225 94.4029 43.4658 94.401H43.479ZM134.669 88.5565C134.543 88.5552 134.42 88.518 134.315 88.4491C134.209 88.3802 134.125 88.2826 134.073 88.1676C134.021 88.0527 134.003 87.9252 134.021 87.8002C134.038 87.6752 134.091 87.5578 134.173 87.4619C134.603 86.9577 135.039 86.4535 135.495 85.956C135.551 85.8862 135.621 85.8286 135.699 85.7865C135.778 85.7444 135.865 85.7188 135.953 85.7111C136.042 85.7035 136.132 85.714 136.217 85.742C136.301 85.77 136.38 85.8149 136.447 85.8741C136.514 85.9332 136.568 86.0054 136.607 86.0862C136.645 86.167 136.667 86.2548 136.67 86.3443C136.674 86.4337 136.66 86.5231 136.628 86.6068C136.597 86.6906 136.549 86.7671 136.487 86.8316C136.05 87.3292 135.614 87.8267 135.164 88.3309C135.101 88.4034 135.023 88.4611 134.935 88.5001C134.847 88.539 134.752 88.5583 134.655 88.5565H134.669ZM225.448 86.3407C225.28 86.341 225.117 86.2766 224.994 86.1607C224.871 86.0448 224.797 85.8861 224.787 85.7171C224.748 85.0537 224.701 84.3903 224.642 83.7269C224.626 83.551 224.68 83.376 224.793 83.2404C224.906 83.1047 225.068 83.0197 225.243 83.0038C225.419 82.988 225.593 83.0427 225.728 83.1559C225.863 83.2691 225.948 83.4316 225.964 83.6075C226.024 84.2709 226.076 84.9343 226.109 85.5977C226.11 85.767 226.046 85.93 225.93 86.0533C225.815 86.1766 225.656 86.251 225.488 86.2611L225.448 86.3407ZM140.427 82.1281C140.26 82.1276 140.099 82.0636 139.978 81.949C139.85 81.8292 139.775 81.6635 139.769 81.4882C139.762 81.3129 139.826 81.1423 139.944 81.0136C140.394 80.5227 140.85 80.0384 141.306 79.5608C141.43 79.4475 141.591 79.3852 141.758 79.3864C141.925 79.3877 142.086 79.4524 142.207 79.5676C142.329 79.6828 142.402 79.8399 142.413 80.0072C142.424 80.1746 142.371 80.3398 142.265 80.4696L140.943 81.9159C140.875 81.9904 140.79 82.0483 140.696 82.0851C140.602 82.1219 140.501 82.1366 140.401 82.1281H140.427ZM224.252 77.8094C224.101 77.8138 223.953 77.7662 223.832 77.6745C223.712 77.5827 223.627 77.4524 223.591 77.3052C223.439 76.6418 223.273 76.0249 223.088 75.4146C223.064 75.3309 223.056 75.2433 223.066 75.1567C223.075 75.0701 223.101 74.9862 223.143 74.9098C223.185 74.8334 223.241 74.766 223.309 74.7115C223.377 74.657 223.454 74.6163 223.538 74.5919C223.705 74.5424 223.885 74.5613 224.039 74.6446C224.192 74.7279 224.307 74.8687 224.357 75.0364C224.543 75.6998 224.721 76.33 224.88 76.9934C224.9 77.0784 224.904 77.1666 224.891 77.253C224.877 77.3394 224.847 77.4223 224.802 77.4969C224.756 77.5715 224.696 77.6363 224.626 77.6877C224.555 77.739 224.475 77.7759 224.391 77.7961L224.252 77.8094ZM146.424 75.9453C146.293 75.9447 146.165 75.9053 146.057 75.8319C145.948 75.7586 145.864 75.6546 145.814 75.5332C145.765 75.4118 145.752 75.2783 145.778 75.1498C145.804 75.0212 145.868 74.9032 145.961 74.8109L147.395 73.4177C147.457 73.3555 147.53 73.3062 147.611 73.2725C147.691 73.2388 147.778 73.2215 147.865 73.2215C147.952 73.2215 148.038 73.2388 148.119 73.2725C148.2 73.3062 148.273 73.3555 148.334 73.4177C148.457 73.542 148.526 73.7102 148.526 73.8854C148.526 74.0607 148.457 74.2288 148.334 74.3531C147.858 74.8042 147.389 75.2686 146.913 75.733C146.847 75.8039 146.767 75.8597 146.678 75.8963C146.589 75.933 146.493 75.9497 146.397 75.9453H146.424ZM152.751 70.0941C152.616 70.0939 152.485 70.0527 152.375 69.976C152.265 69.8994 152.18 69.7908 152.133 69.6648C152.086 69.5388 152.077 69.4013 152.11 69.2706C152.142 69.1399 152.214 69.0222 152.314 68.9331L153.835 67.6063C153.97 67.4929 154.144 67.4378 154.32 67.4534C154.495 67.4689 154.657 67.5538 154.77 67.6893C154.883 67.8247 154.938 67.9998 154.923 68.1758C154.907 68.3518 154.823 68.5145 154.688 68.628C154.185 69.0459 153.683 69.4771 153.18 69.9083C153.058 70.0269 152.894 70.0934 152.724 70.0941H152.751ZM221.283 69.7425C221.163 69.7415 221.045 69.7077 220.943 69.6445C220.84 69.5814 220.757 69.4914 220.701 69.3843C220.397 68.8071 220.08 68.2366 219.743 67.686C219.653 67.5354 219.626 67.3553 219.668 67.1849C219.71 67.0146 219.818 66.8679 219.968 66.7771C220.118 66.6868 220.297 66.6599 220.467 66.7021C220.637 66.7444 220.783 66.8525 220.873 67.0027C221.224 67.5732 221.534 68.1702 221.872 68.7673C221.925 68.8687 221.952 68.9825 221.949 69.0974C221.946 69.2123 221.913 69.3244 221.854 69.4227C221.794 69.521 221.711 69.6022 221.611 69.6582C221.511 69.7143 221.398 69.7433 221.283 69.7425ZM159.468 64.7139C159.363 64.7142 159.26 64.6897 159.167 64.6424C159.074 64.5952 158.994 64.5265 158.932 64.4419C158.88 64.3718 158.843 64.2922 158.822 64.2075C158.801 64.1229 158.797 64.0349 158.81 63.9487C158.822 63.8624 158.852 63.7795 158.897 63.7048C158.942 63.6301 159.001 63.565 159.071 63.5132C159.613 63.1151 160.155 62.7304 160.697 62.3456C160.769 62.2955 160.849 62.26 160.934 62.241C161.019 62.2221 161.106 62.2201 161.192 62.2352C161.278 62.2503 161.359 62.2822 161.433 62.329C161.506 62.3758 161.57 62.4367 161.62 62.5081C161.67 62.5796 161.705 62.6602 161.724 62.7453C161.743 62.8305 161.745 62.9186 161.73 63.0045C161.715 63.0904 161.683 63.1726 161.636 63.2462C161.589 63.3198 161.529 63.3835 161.458 63.4336L159.858 64.5812C159.738 64.6716 159.591 64.7184 159.441 64.7139H159.468ZM216.259 62.7901C216.171 62.7897 216.085 62.7719 216.004 62.7378C215.923 62.7036 215.85 62.6537 215.789 62.5911C215.348 62.1488 214.879 61.7065 214.381 61.2643C214.25 61.148 214.17 60.9843 214.158 60.8089C214.147 60.6335 214.206 60.4609 214.322 60.3289C214.437 60.197 214.601 60.1167 214.775 60.1055C214.95 60.0943 215.122 60.1532 215.254 60.2692C215.756 60.7136 216.252 61.1846 216.728 61.6689C216.851 61.7932 216.92 61.9614 216.92 62.1366C216.92 62.3119 216.851 62.48 216.728 62.6043C216.663 62.6679 216.585 62.7172 216.499 62.7492C216.414 62.7811 216.323 62.7951 216.232 62.7901H216.259ZM166.674 59.9773C166.557 59.9777 166.443 59.9473 166.342 59.889C166.241 59.8308 166.157 59.7468 166.099 59.6456C166.012 59.494 165.988 59.3143 166.033 59.1454C166.077 58.9764 166.187 58.832 166.337 58.7433C166.919 58.405 167.5 58.0799 168.082 57.7615C168.158 57.7179 168.242 57.6898 168.329 57.6788C168.415 57.6677 168.504 57.6739 168.588 57.697C168.672 57.7201 168.751 57.7596 168.821 57.8134C168.89 57.8671 168.948 57.9341 168.991 58.0103C169.035 58.0865 169.063 58.1706 169.074 58.2577C169.085 58.3448 169.079 58.4332 169.055 58.5179C169.032 58.6026 168.993 58.6819 168.939 58.7513C168.886 58.8207 168.819 58.8789 168.743 58.9225C168.168 59.2343 167.6 59.5859 167.031 59.891C166.903 59.9665 166.755 59.9968 166.608 59.9773H166.674ZM209.436 57.6421C209.324 57.6425 209.215 57.6127 209.118 57.5559C208.563 57.2507 207.981 56.9522 207.386 56.6735C207.308 56.6361 207.237 56.5835 207.179 56.5187C207.121 56.4539 207.076 56.3782 207.046 56.296C207.017 56.2137 207.005 56.1265 207.009 56.0394C207.013 55.9522 207.035 55.8667 207.072 55.7879C207.11 55.7091 207.162 55.6384 207.227 55.5799C207.291 55.5214 207.367 55.4762 207.449 55.4469C207.53 55.4177 207.617 55.4049 207.704 55.4093C207.791 55.4138 207.876 55.4353 207.955 55.4728C208.57 55.7647 209.171 56.0765 209.753 56.3949C209.883 56.4652 209.986 56.577 210.045 56.7125C210.104 56.848 210.116 56.9995 210.08 57.1428C210.043 57.2862 209.96 57.4132 209.843 57.5036C209.727 57.5941 209.583 57.6428 209.436 57.6421ZM174.363 56.1694C174.209 56.1697 174.06 56.1161 173.941 56.0178C173.822 55.9195 173.741 55.7826 173.712 55.6309C173.683 55.4791 173.708 55.3219 173.782 55.1864C173.856 55.051 173.975 54.9458 174.118 54.889C174.74 54.6369 175.361 54.3981 175.989 54.1725C176.153 54.1184 176.331 54.1304 176.485 54.2059C176.64 54.2814 176.76 54.4145 176.818 54.5769C176.877 54.7393 176.87 54.9182 176.799 55.0755C176.728 55.2329 176.599 55.3564 176.439 55.4197C175.831 55.6386 175.222 55.8708 174.614 56.1229C174.518 56.1622 174.414 56.1781 174.31 56.1694H174.363ZM201.502 54.3782C201.438 54.3846 201.374 54.3846 201.31 54.3782C200.689 54.1924 200.054 54.0199 199.426 53.874C199.251 53.8326 199.099 53.7231 199.004 53.5694C198.909 53.4158 198.879 53.2306 198.921 53.0547C198.962 52.8788 199.071 52.7264 199.224 52.6313C199.377 52.5361 199.562 52.5058 199.737 52.5472C200.398 52.7064 201.059 52.8789 201.72 53.0713C201.896 53.0959 202.054 53.1894 202.161 53.3313C202.267 53.4731 202.314 53.6516 202.289 53.8276C202.264 54.0035 202.171 54.1625 202.03 54.2694C201.889 54.3764 201.711 54.4227 201.535 54.3981L201.502 54.3782ZM182.475 53.6418C182.321 53.6452 182.171 53.5948 182.05 53.4991C181.93 53.4035 181.846 53.2686 181.814 53.1177C181.795 53.0319 181.794 52.9432 181.81 52.8569C181.826 52.7706 181.859 52.6883 181.907 52.6149C181.955 52.5415 182.017 52.4783 182.09 52.4291C182.162 52.3799 182.244 52.3456 182.329 52.3283C182.991 52.1956 183.652 52.0695 184.313 51.97C184.488 51.9428 184.667 51.9865 184.81 52.0916C184.954 52.1968 185.049 52.3547 185.076 52.5306C185.104 52.7066 185.06 52.8861 184.955 53.0298C184.851 53.1735 184.693 53.2696 184.518 53.2968C183.857 53.3963 183.242 53.5158 182.601 53.6484C182.559 53.6521 182.516 53.6499 182.475 53.6418ZM193.007 52.8988H192.96C192.299 52.859 191.638 52.8325 191.017 52.8258C190.841 52.8258 190.673 52.7559 190.549 52.6315C190.425 52.5071 190.356 52.3384 190.356 52.1624C190.356 51.9865 190.425 51.8177 190.549 51.6933C190.673 51.5689 190.841 51.499 191.017 51.499C191.678 51.499 192.339 51.5322 193.033 51.572C193.209 51.5773 193.375 51.6522 193.495 51.7804C193.615 51.9085 193.68 52.0794 193.674 52.2553C193.669 52.4312 193.594 52.5979 193.467 52.7186C193.339 52.8392 193.169 52.9041 192.993 52.8988H193.007Z" fill="#E2E8F0"/>
<path d="M179.59 157.404H103.633L118.634 34.7949H186.373L193.447 44.1687L179.59 157.404Z" fill="#CBD5E1"/>
<path d="M171.374 157.404H95.4102L110.411 34.7949H186.375L171.374 157.404Z" fill="#E2E8F0"/>
<path d="M167.633 134.139H104.164L114.987 45.7275H178.455L167.633 134.139Z" fill="white"/>
<path d="M146.223 95.542L164.562 95.7609L164.205 98.6069L146.223 98.2951V95.542Z" fill="#E2E8F0"/>
<path d="M95.4102 157.404L104.547 165.869L178.455 166.997L179.592 157.404H95.4102Z" fill="#CBD5E1"/>
<path d="M154.047 69.6494C154.047 69.6494 157.214 69.875 158.833 75.8522C160.453 81.8294 159.898 98.5139 159.898 98.5139L146.239 98.295C146.239 98.295 139.423 73.464 154.047 69.6494Z" fill="#16A34A"/>
<path d="M88.4088 33.8166L38.7266 74.3164L64.8017 106.523L114.484 66.0237L88.4088 33.8166Z" fill="#4ADE80"/>
<path d="M88.1392 42.728L65.8945 60.8613L70.2008 66.1803L92.4454 48.047L88.1392 42.728Z" fill="white"/>
<path opacity="0.46" d="M70.4295 83.604L62.4758 90.0876C61.3932 90.9701 61.2286 92.5662 62.1081 93.6525L63.2294 95.0376C64.1089 96.1239 65.6995 96.2891 66.7821 95.4066L74.7357 88.9229C75.8183 88.0404 75.983 86.4444 75.1035 85.3581L73.9821 83.973C73.1026 82.8867 71.5121 82.7215 70.4295 83.604Z" fill="white"/>
<path opacity="0.46" d="M99.4923 59.9162L77.3196 77.991C76.237 78.8735 76.0723 80.4695 76.9518 81.5558L78.0732 82.9409C78.9527 84.0272 80.5432 84.1924 81.6258 83.3099L103.799 65.2352C104.881 64.3527 105.046 62.7566 104.166 61.6703L103.045 60.2853C102.165 59.199 100.575 59.0337 99.4923 59.9162Z" fill="white"/>
<path opacity="0.3" d="M54.1354 79.8331C56.6329 79.8331 58.6575 77.8015 58.6575 75.2955C58.6575 72.7894 56.6329 70.7578 54.1354 70.7578C51.6379 70.7578 49.6133 72.7894 49.6133 75.2955C49.6133 77.8015 51.6379 79.8331 54.1354 79.8331Z" fill="white"/>
<path opacity="0.3" d="M58.7252 75.6993C61.2227 75.6993 63.2474 73.6677 63.2474 71.1617C63.2474 68.6556 61.2227 66.624 58.7252 66.624C56.2277 66.624 54.2031 68.6556 54.2031 71.1617C54.2031 73.6677 56.2277 75.6993 58.7252 75.6993Z" fill="white"/>
<path d="M154.048 69.6493C154.048 69.6493 146.861 72.2432 149.367 92.5631C151.205 107.45 144.997 127.159 135.82 127.398C126.644 127.637 109.719 126.828 109.719 126.828C109.719 126.828 118.532 103.94 116.707 84.7217C116.426 82.0311 116.747 79.3115 117.646 76.7609C118.717 73.8353 120.707 70.7903 124.409 70.2928C131.8 69.2844 154.048 69.6493 154.048 69.6493Z" fill="#4ADE80"/>
<path d="M104.633 128.315L137.062 127.651C137.062 127.651 132.116 122.729 131.806 110.197L87.1992 110.861C87.9638 114.094 89.1392 117.215 90.6966 120.148C92.0438 122.666 94.0584 124.761 96.5178 126.202C98.9772 127.644 101.786 128.375 104.633 128.315Z" fill="#4ADE80"/>
<path opacity="0.44" d="M104.633 128.315L137.062 127.651C137.062 127.651 132.116 122.729 131.806 110.197L87.1992 110.861C87.9638 114.094 89.1392 117.215 90.6966 120.148C92.0438 122.666 94.0584 124.761 96.5178 126.202C98.9772 127.644 101.786 128.375 104.633 128.315Z" fill="white"/>
<path d="M128.334 52.1094L127.203 59.5593H159.975L160.967 52.1094H128.334Z" fill="#16A34A"/>
<path opacity="0.48" d="M137.36 140.102C133.823 136.998 128.23 137.608 125.731 141.608C125.1 142.58 124.759 143.712 124.746 144.872C124.746 149.781 128.124 152.999 134.875 151.645C140.025 150.61 141.988 144.156 137.36 140.102Z" fill="white"/>
<path d="M212.421 157.622C222.492 157.622 230.655 149.431 230.655 139.326C230.655 129.221 222.492 121.029 212.421 121.029C202.351 121.029 194.188 129.221 194.188 139.326C194.188 149.431 202.351 157.622 212.421 157.622Z" fill="#4ADE80"/>
<path opacity="0.09" d="M212.421 157.622C222.492 157.622 230.655 149.431 230.655 139.326C230.655 129.221 222.492 121.029 212.421 121.029C202.351 121.029 194.188 129.221 194.188 139.326C194.188 149.431 202.351 157.622 212.421 157.622Z" fill="#121A26"/>
<path d="M213.25 152.667C223.32 152.667 231.484 144.476 231.484 134.371C231.484 124.266 223.32 116.074 213.25 116.074C203.179 116.074 195.016 124.266 195.016 134.371C195.016 144.476 203.179 152.667 213.25 152.667Z" fill="#4ADE80"/>
<path d="M215.859 123.365C216.467 123.465 216.619 123.71 216.52 124.321L216.302 125.647C218.682 126.397 219.879 127.857 220.553 130.159C220.765 130.822 220.553 131.174 219.806 131.373L218.411 131.737C217.75 131.93 217.485 131.737 217.247 131.074C217.086 130.368 216.703 129.733 216.154 129.262C215.605 128.791 214.92 128.51 214.2 128.46C211.952 128.082 210.808 128.573 210.55 130.086C210.391 131.067 211.211 131.83 212.084 132.175C212.69 132.417 213.31 132.621 213.942 132.786C215.132 133.048 216.279 133.481 217.347 134.073C217.883 134.345 218.365 134.713 218.768 135.161C219.157 135.738 219.427 136.388 219.561 137.071C219.695 137.755 219.69 138.459 219.548 139.141C219.065 142.033 216.804 143.679 213.307 143.606L213.076 144.992C212.97 145.602 212.752 145.782 212.143 145.656L210.682 145.41C210.074 145.304 209.902 145.058 210.021 144.448L210.246 143.121C207.654 142.325 206.107 140.673 205.618 138.133C205.506 137.516 205.783 137.151 206.438 137.018L207.813 136.753C208.514 136.627 208.778 136.839 208.957 137.549C209.294 139.134 210.358 140.083 212.163 140.382C214.596 140.793 215.945 140.229 216.209 138.657C216.289 138.297 216.247 137.922 216.09 137.589C215.933 137.256 215.67 136.986 215.343 136.819C214.547 136.382 213.692 136.062 212.805 135.87C211.6 135.6 210.446 135.139 209.387 134.504C208.86 134.212 208.389 133.828 207.998 133.369C207.602 132.819 207.324 132.193 207.182 131.529C207.04 130.866 207.036 130.18 207.172 129.515C207.648 126.649 209.77 125.037 213.234 125.157L213.452 123.83C213.552 123.219 213.803 123.047 214.411 123.166L215.859 123.365Z" fill="white"/>
<path d="M122.825 77.9022C122.738 77.9052 122.652 77.8911 122.571 77.8606C122.489 77.83 122.415 77.7837 122.351 77.7243C122.287 77.6648 122.236 77.5934 122.2 77.5141C122.164 77.4348 122.144 77.3491 122.141 77.262C122.138 77.1749 122.152 77.088 122.183 77.0064C122.213 76.9247 122.259 76.8499 122.318 76.7861C122.378 76.7223 122.449 76.6709 122.528 76.6348C122.607 76.5986 122.692 76.5784 122.779 76.5754C122.918 76.5754 136.742 75.5537 144.153 76.2171C144.329 76.233 144.491 76.318 144.603 76.4537C144.716 76.5893 144.771 76.7643 144.755 76.9402C144.739 77.1162 144.654 77.2786 144.519 77.3918C144.384 77.5051 144.21 77.5598 144.034 77.5439C136.762 76.8805 123.01 77.8823 122.878 77.8955L122.825 77.9022Z" fill="white"/>
<path d="M121.724 86.8787C121.637 86.8818 121.55 86.8676 121.469 86.8371C121.388 86.8066 121.313 86.7603 121.249 86.7008C121.121 86.5808 121.046 86.4145 121.039 86.2385C121.033 86.0626 121.097 85.8914 121.217 85.7627C121.336 85.6339 121.502 85.5581 121.677 85.5519C121.816 85.5519 135.641 84.5303 143.052 85.1937C143.227 85.2095 143.389 85.2946 143.502 85.4302C143.615 85.5658 143.669 85.7409 143.653 85.9168C143.638 86.0927 143.553 86.2552 143.418 86.3684C143.283 86.4816 143.108 86.5363 142.933 86.5205C135.66 85.8571 121.915 86.8655 121.777 86.8721L121.724 86.8787Z" fill="white"/>
<path d="M121.598 96.2049C121.423 96.2119 121.252 96.1488 121.123 96.0294C120.994 95.9099 120.918 95.744 120.911 95.568C120.904 95.3921 120.967 95.2206 121.086 95.0912C121.205 94.9618 121.37 94.8851 121.545 94.8781C121.684 94.8781 135.515 93.8565 142.92 94.5199C143.006 94.5277 143.091 94.5526 143.168 94.5932C143.245 94.6338 143.314 94.6892 143.37 94.7564C143.426 94.8235 143.468 94.9011 143.494 94.9846C143.52 95.068 143.529 95.1559 143.521 95.243C143.513 95.3301 143.489 95.4148 143.448 95.4923C143.408 95.5698 143.353 95.6385 143.286 95.6946C143.219 95.7506 143.141 95.7929 143.058 95.819C142.975 95.8451 142.887 95.8545 142.801 95.8467C135.528 95.1833 121.783 96.1916 121.645 96.1983L121.598 96.2049Z" fill="white"/>
<path d="M120.72 105.533C120.633 105.536 120.546 105.522 120.465 105.492C120.384 105.461 120.309 105.415 120.246 105.355C120.182 105.296 120.131 105.224 120.095 105.145C120.059 105.066 120.039 104.98 120.036 104.893C120.033 104.806 120.047 104.719 120.077 104.637C120.107 104.556 120.154 104.481 120.213 104.417C120.272 104.353 120.343 104.302 120.422 104.266C120.501 104.23 120.587 104.209 120.674 104.206C120.812 104.206 134.637 103.185 142.048 103.855C142.135 103.863 142.219 103.887 142.296 103.928C142.374 103.969 142.442 104.024 142.498 104.091C142.554 104.158 142.596 104.236 142.622 104.319C142.648 104.403 142.657 104.491 142.65 104.578C142.642 104.665 142.617 104.75 142.576 104.827C142.536 104.905 142.481 104.973 142.414 105.029C142.347 105.085 142.27 105.128 142.186 105.154C142.103 105.18 142.016 105.189 141.929 105.182C134.656 104.518 120.912 105.526 120.773 105.533H120.72Z" fill="white"/>
<path d="M35.8261 164.053L37.5854 168.823L42.3397 170.589L37.5854 172.354L35.8261 177.125L34.0668 172.354L29.3125 170.589L34.0668 168.823L35.8261 164.053Z" fill="#E2E8F0"/>
<path d="M237.748 54.248L239.507 59.0187L244.262 60.784L239.507 62.5493L237.748 67.3199L235.989 62.5493L231.234 60.784L235.989 59.0187L237.748 54.248Z" fill="#E2E8F0"/>
<path d="M25.0815 145.752L26.225 148.853L29.3153 150L26.225 151.148L25.0815 154.249L23.938 151.148L20.8477 150L23.938 148.853L25.0815 145.752Z" fill="#E2E8F0"/>
<path d="M225.046 22.2217L226.19 25.3226L229.28 26.47L226.19 27.6175L225.046 30.7184L223.903 27.6175L220.812 26.47L223.903 25.3226L225.046 22.2217Z" fill="#E2E8F0"/>
<path d="M188.573 19.6074L189.188 21.2771L190.852 21.895L189.188 22.5129L188.573 24.1826L187.957 22.5129L186.293 21.895L187.957 21.2771L188.573 19.6074Z" fill="#E2E8F0"/>
</svg>
