<svg width="56" height="56" viewBox="0 0 56 56" fill="none" xmlns="http://www.w3.org/2000/svg">
<path d="M37.123 31.3468C42.168 25.6773 44.2936 21.1008 45.0871 17.7452C45.5459 15.8044 45.5549 14.2884 45.4348 13.2284C45.3748 12.6995 45.2831 12.2874 45.2011 11.9958C45.1602 11.85 45.1217 11.7345 45.0909 11.6497C45.0716 11.5969 45.0513 11.5441 45.0288 11.4926L45.0277 11.4902C44.8694 11.1319 44.6632 10.978 44.2593 10.8466C44.1739 10.8188 44.0572 10.784 43.9098 10.7474C43.6148 10.674 43.1975 10.593 42.6631 10.5443C41.5921 10.4468 40.0616 10.4801 38.1135 10.9547C34.7527 11.7734 30.1978 13.8928 24.6352 18.8383L19.3849 19.3591L19.3716 19.3605C18.1109 19.5007 16.9355 20.0666 16.0386 20.9648L10.8272 26.1841C10.4872 26.5246 10.4029 27.0449 10.618 27.4756C10.833 27.9064 11.2992 28.151 11.7752 28.0829L15.9231 27.4895C16.5354 27.4019 17.2187 27.5196 18.0116 27.7785C18.5199 27.9445 18.9684 28.1278 19.4436 28.322C19.5879 28.381 19.7361 28.4415 19.8877 28.5023C20.3182 30.2888 21.3343 31.9601 22.6768 33.3047C24.0191 34.649 25.6875 35.6665 27.4708 36.0977C27.5315 36.2492 27.5913 36.3959 27.6501 36.5402C27.8447 37.0173 28.0284 37.4675 28.1944 37.977C28.4531 38.771 28.5707 39.4554 28.4832 40.0686L27.8907 44.2229C27.8226 44.6996 28.0669 45.1665 28.497 45.3818C28.9271 45.5972 29.4466 45.5128 29.7866 45.1723L34.9979 39.953C35.8948 39.0547 36.4598 37.8775 36.5999 36.6149L37.123 31.3468ZM37.3631 23.2563C35.6179 25.0042 33.1421 25.3584 31.8333 24.0475C30.5244 22.7367 30.8781 20.2571 32.6232 18.5093C34.3684 16.7615 36.8442 16.4073 38.1531 17.7181C39.4619 19.029 39.1082 21.5085 37.3631 23.2563Z" fill="#FF6420"/>
<path d="M21.8868 34.0959C23.0711 35.2819 24.4177 36.3051 25.8319 37.0536C23.3855 39.2557 15.0509 41.4906 14.7771 41.2164C14.5008 40.9397 16.389 32.0535 18.7994 29.8838C19.5565 31.3953 20.6301 32.8372 21.8868 34.0959Z" fill="#FF6420"/>
</svg>
