<svg width="56" height="49" viewBox="0 0 56 49" fill="none" xmlns="http://www.w3.org/2000/svg">
<path d="M21.8751 29.9675C21.7444 29.9675 21.6137 29.9872 21.489 30.0289C20.7802 30.2659 20.0348 30.4179 19.2501 30.4179C18.4653 30.4179 17.7199 30.2659 17.0106 30.0289C16.8859 29.9872 16.7558 29.9675 16.6251 29.9675C13.2312 29.9675 10.482 32.8094 10.5001 36.3076C10.5077 37.7859 11.6884 38.9749 13.1251 38.9749H25.3751C26.8117 38.9749 27.9924 37.7859 28 36.3076C28.0181 32.8094 25.269 29.9675 21.8751 29.9675ZM19.2501 28.1661C22.1496 28.1661 24.5001 25.7465 24.5001 22.7617C24.5001 19.7768 22.1496 17.3572 19.2501 17.3572C16.3505 17.3572 14.0001 19.7768 14.0001 22.7617C14.0001 25.7465 16.3505 28.1661 19.2501 28.1661ZM42.875 10.1514H21.8751C20.4275 10.1514 19.2501 11.404 19.2501 12.9431V15.5558C20.5308 15.5558 21.7165 15.9375 22.7501 16.5578V13.7543H42V29.9675H38.5V26.3646H31.5V29.9675H27.3307C28.3752 30.9071 29.1419 32.1479 29.5012 33.5705H42.875C44.3226 33.5705 45.5 32.3179 45.5 30.7788V12.9431C45.5 11.404 44.3226 10.1514 42.875 10.1514Z" fill="#FF6420"/>
</svg>
