<svg width="56" height="52" viewBox="0 0 56 52" fill="none" xmlns="http://www.w3.org/2000/svg">
<path d="M37.625 23.6326C33.2724 23.6326 29.75 27.5464 29.75 32.3826C29.75 37.2188 33.2724 41.1326 37.625 41.1326C41.9776 41.1326 45.5 37.2188 45.5 32.3826C45.5 27.5464 41.9776 23.6326 37.625 23.6326ZM41.125 32.7648C41.125 33.0893 40.886 33.3548 40.594 33.3548H37.2816C36.9895 33.3548 36.7505 33.0893 36.7505 32.7648V28.1121C36.7505 27.7876 36.9895 27.5221 37.2816 27.5221H37.969C38.261 27.5221 38.5 27.7876 38.5 28.1121V31.4104H40.594C40.886 31.4104 41.125 31.6759 41.125 32.0004V32.7648ZM37.625 21.6882C37.9203 21.6882 38.2113 21.7082 38.5 21.7374V18.7715C38.5 17.2159 37.275 15.8548 35.875 15.8548H31.5V12.9382C31.5 11.3826 30.275 10.0215 28.875 10.0215H20.125C18.725 10.0215 17.5 11.3826 17.5 12.9382V15.8548H13.125C11.725 15.8548 10.5 17.2159 10.5 18.7715V23.6326H32.1081C33.6722 22.4118 35.5726 21.6882 37.625 21.6882ZM28 15.8548H21V13.9104H28V15.8548ZM28.373 29.4659H21.875C21.3916 29.4659 21 29.0309 21 28.4937V25.577H10.5V34.327C10.5 35.8826 11.725 37.2437 13.125 37.2437H29.0626C28.3883 35.7829 28 34.1338 28 32.3826C28 31.3703 28.1356 30.3944 28.373 29.4659Z" fill="#FF6420"/>
</svg>
