<svg width="60" height="56" viewBox="0 0 60 56" fill="none" xmlns="http://www.w3.org/2000/svg">
<path d="M30.5286 10.3761C30.1936 10.2197 29.8065 10.2197 29.4714 10.3761L10.7214 19.1261C10.2698 19.3368 9.98651 19.7957 10.0005 20.2939C10.0145 20.792 10.323 21.2343 10.7858 21.4194L29.5358 28.9194C29.8338 29.0386 30.1662 29.0386 30.4642 28.9194L45 23.1051V37.7588C43.6193 37.7588 42.5 38.8781 42.5 40.2588V45.2588H50V40.2588C50 38.8781 48.8807 37.7588 47.5 37.7588V22.1051L49.2142 21.4194C49.677 21.2343 49.9855 20.792 49.9995 20.2939C50.0135 19.7957 49.7302 19.3368 49.2786 19.1261L30.5286 10.3761Z" fill="#FF6420"/>
<path d="M20.4389 27.8384C20.1137 27.7164 19.7525 27.7353 19.4417 27.8904C19.131 28.0455 18.8988 28.3229 18.8008 28.6561L17.5508 32.9061C17.3689 33.5246 17.6872 34.1799 18.2858 34.4194L29.5358 38.9194C29.8338 39.0386 30.1662 39.0386 30.4642 38.9194L41.7142 34.4194C42.3128 34.1799 42.6311 33.5246 42.4492 32.9061L41.1992 28.6561C41.1012 28.3229 40.869 28.0455 40.5583 27.8904C40.2475 27.7353 39.8863 27.7164 39.5611 27.8384L30 31.4238L20.4389 27.8384Z" fill="#FF6420"/>
</svg>
