<svg width="1920" height="1080" viewBox="0 0 1920 1080" fill="none" xmlns="http://www.w3.org/2000/svg">
<g clip-path="url(#clip0_11094_33087)">
<g clip-path="url(#clip1_11094_33087)">
<mask id="mask0_11094_33087" style="mask-type:alpha" maskUnits="userSpaceOnUse" x="0" y="0" width="1920" height="1080">
<rect width="1920" height="1080" fill="#D9D9D9"/>
</mask>
<g mask="url(#mask0_11094_33087)">
<g opacity="0.8" filter="url(#filter0_f_11094_33087)">
<circle cx="139" cy="162" r="415" fill="#FF8854"/>
</g>
</g>
</g>
<g clip-path="url(#clip2_11094_33087)">
<g opacity="0.12">
<line x1="107.337" y1="1147.67" x2="107.337" y2="-92.334" stroke="#404040" stroke-width="1.33333"/>
<line x1="227.337" y1="1148" x2="227.337" y2="-92" stroke="#404040" stroke-width="1.33333"/>
<line x1="347.337" y1="1148.33" x2="347.337" y2="-91.666" stroke="#404040" stroke-width="1.33333"/>
<line x1="467.337" y1="1148.67" x2="467.337" y2="-91.332" stroke="#404040" stroke-width="1.33333"/>
<line x1="587.337" y1="1149" x2="587.337" y2="-90.998" stroke="#404040" stroke-width="1.33333"/>
<line x1="707.337" y1="1149.34" x2="707.337" y2="-90.6641" stroke="#404040" stroke-width="1.33333"/>
<line x1="827.337" y1="1149.67" x2="827.337" y2="-90.3301" stroke="#404040" stroke-width="1.33333"/>
<line x1="947.337" y1="1150" x2="947.337" y2="-89.9961" stroke="#404040" stroke-width="1.33333"/>
<line x1="1067.34" y1="1150.34" x2="1067.34" y2="-89.6621" stroke="#404040" stroke-width="1.33333"/>
<line x1="1187.34" y1="1150.67" x2="1187.34" y2="-89.3281" stroke="#404040" stroke-width="1.33333"/>
<line x1="1307.34" y1="1151.01" x2="1307.34" y2="-88.9941" stroke="#404040" stroke-width="1.33333"/>
<line x1="1427.34" y1="1151.34" x2="1427.34" y2="-88.6602" stroke="#404040" stroke-width="1.33333"/>
<line x1="1547.34" y1="1151.67" x2="1547.34" y2="-88.3262" stroke="#404040" stroke-width="1.33333"/>
<line x1="1667.34" y1="1152.01" x2="1667.34" y2="-87.9922" stroke="#404040" stroke-width="1.33333"/>
<line x1="1787.34" y1="1152.34" x2="1787.34" y2="-87.6582" stroke="#404040" stroke-width="1.33333"/>
</g>
</g>
</g>
<defs>
<filter id="filter0_f_11094_33087" x="-1276" y="-1253" width="2830" height="2830" filterUnits="userSpaceOnUse" color-interpolation-filters="sRGB">
<feFlood flood-opacity="0" result="BackgroundImageFix"/>
<feBlend mode="normal" in="SourceGraphic" in2="BackgroundImageFix" result="shape"/>
<feGaussianBlur stdDeviation="500" result="effect1_foregroundBlur_11094_33087"/>
</filter>
<clipPath id="clip0_11094_33087">
<rect width="1920" height="1080" fill="white"/>
</clipPath>
<clipPath id="clip1_11094_33087">
<rect width="1920" height="1080" fill="white"/>
</clipPath>
<clipPath id="clip2_11094_33087">
<rect width="1920" height="1080" fill="white"/>
</clipPath>
</defs>
</svg>
