<svg width="66" height="21" viewBox="0 0 66 21" fill="none" xmlns="http://www.w3.org/2000/svg">
<path id="Vector" d="M62.3346 20.9279C62.893 20.8786 63.4331 20.7147 63.9149 20.4483C64.5016 20.115 64.9468 19.6077 65.1798 19.0081C65.3596 18.1682 65.4103 17.3091 65.3313 16.4562C65.3313 14.4779 65.3313 12.09 65.268 9.30417C65.268 7.91086 65.268 6.42441 65.268 4.84405C65.3812 4.07026 65.2406 3.283 64.8636 2.58458C64.6364 2.23009 64.3218 1.92996 63.9465 1.70834C63.5712 1.48672 63.1443 1.34977 62.7016 1.30866H3.54149C2.8932 1.31097 2.26655 1.52459 1.77139 1.9121C1.27706 2.29961 0.945017 2.83614 0.835167 3.42741C0.746954 4.59802 0.835167 6.02643 0.835167 7.30196V16.8896C0.79855 17.4839 0.828505 18.0797 0.924208 18.6686C1.0765 19.2051 1.41352 19.6801 1.88288 20.0242C2.35224 20.3683 2.92983 20.5622 3.52818 20.5769H11.216H37.8313L55.7727 20.6823H60.6527H61.9176C62.0599 20.6677 62.2047 20.6677 62.347 20.6823C62.2047 20.6993 62.0599 20.6993 61.9176 20.6823H60.6527H55.7727L37.8313 20.7755L11.216 20.8463H3.51568C2.77919 20.8309 2.06682 20.5946 1.48761 20.172C0.908398 19.7493 0.493134 19.1643 0.304225 18.5046C0.19271 17.8665 0.154435 17.2191 0.190219 16.5732V7.36046C0.190219 6.03798 0.126972 4.79709 0.190219 3.38061C0.327532 2.6487 0.73779 1.98476 1.35029 1.50527C1.96362 1.02577 2.73925 0.761348 3.54149 0.758423C26.6666 0.758423 47.5539 0.758427 62.7648 0.887211C63.2716 0.941558 63.7584 1.10413 64.1862 1.36209C64.6139 1.62004 64.9709 1.96637 65.2297 2.37389C65.4711 2.75717 65.6176 3.18478 65.66 3.6264C65.66 4.07126 65.66 4.44583 65.66 4.79709C65.66 6.37745 65.66 7.86391 65.66 9.25721C65.66 12.0431 65.66 14.4309 65.66 16.4093C65.7258 17.2891 65.6492 18.1728 65.432 19.0319C65.1848 19.6493 64.7163 20.1697 64.1046 20.5068C63.721 20.7216 63.2874 20.8494 62.8405 20.8809C62.6749 20.9186 62.5052 20.934 62.3346 20.9279Z" fill="#FF8854"/>
</svg>
