<svg width="360" height="414" viewBox="0 0 360 414" fill="none" xmlns="http://www.w3.org/2000/svg">
<path d="M16.3139 310.88C6.96316 308.733 -1.75818 305.046 -9.31958 300.042C-16.881 295.039 -23.1244 288.825 -27.67 281.778C-32.2156 274.73 -34.9685 266.997 -35.7611 259.047C-36.5537 251.098 -35.3695 243.1 -32.2805 235.539C-27.4619 223.798 -18.2126 213.416 -14.2516 201.458C-9.73921 187.872 -12.4139 173.448 -15.2112 159.527C-18.0084 145.606 -20.8261 131.266 -16.5996 117.596C-12.3731 103.927 0.918892 91.1295 18.1107 90.1735C33.8937 89.3181 48.5333 99.046 55.1691 110.787C61.8049 122.527 61.8253 136.28 60.2735 149.363C58.7218 162.445 55.7204 175.343 56.6596 188.375C58.5788 214.775 76.5874 239.614 74.4639 265.997C73.3613 279.734 66.8889 288.522 55.8224 298.854C46.2669 307.777 30.3818 313.631 16.3139 310.897" fill="#F5F5F5"/>
<path d="M19.356 376.56C19.111 376.56 18.9272 328.927 18.9272 270.174C18.9272 211.42 19.111 163.77 19.356 163.77C19.601 163.77 19.8052 211.42 19.8052 270.123C19.8052 328.826 19.601 376.56 19.356 376.56Z" fill="#E0E0E0"/>
<path d="M48.1454 248.135C48.2883 248.286 42.02 252.529 34.0979 257.595C26.1758 262.66 19.6829 266.635 19.54 266.484C19.3971 266.333 25.6653 262.09 33.567 257.024C41.4687 251.959 47.982 247.984 48.1454 248.135Z" fill="#E0E0E0"/>
<path d="M19.3769 245.065C16.2852 243.736 13.3287 242.205 10.5359 240.487C7.57786 238.957 4.7841 237.224 2.18506 235.304C5.28089 236.646 8.23773 238.194 11.026 239.933C13.9791 241.449 16.7725 243.166 19.3769 245.065Z" fill="#E0E0E0"/>
<path d="M270.017 259.978C276.052 238.972 260.215 217.924 234.643 212.967C209.072 208.009 183.449 221.018 177.414 242.024C171.379 263.03 187.216 284.077 212.787 289.035C238.359 293.993 263.981 280.984 270.017 259.978Z" fill="#F5F5F5"/>
<path d="M224.983 338.597C224.939 338.302 224.939 338.004 224.983 337.709C224.983 337.021 224.983 336.182 224.881 335.159C224.881 332.811 224.758 329.624 224.677 325.75C224.534 317.699 224.309 306.78 224.085 294.721C223.86 282.662 223.758 271.626 223.819 263.692C223.819 259.717 223.819 256.497 223.942 254.283C223.942 253.26 223.942 252.405 224.044 251.734C224.035 251.43 224.069 251.126 224.146 250.828C224.235 251.124 224.27 251.429 224.248 251.734C224.248 252.405 224.248 253.26 224.35 254.283C224.35 256.631 224.473 259.818 224.554 263.692C224.718 271.743 224.922 282.662 225.146 294.721C225.371 306.78 225.493 317.8 225.432 325.75C225.432 329.725 225.432 332.928 225.289 335.159C225.289 336.182 225.289 337.021 225.187 337.709C225.178 338.012 225.109 338.312 224.983 338.597Z" fill="#E0E0E0"/>
<path d="M241.951 255.793C236.618 261.548 230.725 266.938 224.331 271.911C229.664 266.155 235.557 260.765 241.951 255.793Z" fill="#E0E0E0"/>
<path d="M305.17 139.058L270.194 197.006L280.627 197.341L251.001 243.398H266.56L242.283 284.305H378L348.129 243.398L362.442 242.878L333.795 196.855L344.392 196.335L305.17 139.058Z" fill="#F5F5F5"/>
<path d="M306.497 206.08C306.783 206.08 306.497 236.169 306.048 273.269C305.599 310.37 304.823 340.476 304.537 340.476C304.251 340.476 304.435 310.386 304.987 273.269C305.538 236.152 306.191 206.08 306.497 206.08Z" fill="#E0E0E0"/>
<path d="M326.67 223.422C320.285 228.536 313.409 233.219 306.109 237.427C312.509 232.326 319.383 227.643 326.67 223.422Z" fill="#E0E0E0"/>
<path d="M90.7808 169.358L50.7823 235.626L62.7267 235.995L28.8535 288.66H46.6375L18.8896 335.437H174.065L139.906 288.66L156.261 288.073L123.531 235.441L135.618 234.854L90.7808 169.358Z" fill="#E6E6E6"/>
<path d="M97.5388 248.894C97.8247 248.894 97.5388 276.971 96.9467 311.572C96.3546 346.173 95.5992 374.233 95.3133 374.233C95.0275 374.233 95.3133 346.173 95.885 311.555C96.4567 276.937 97.253 248.894 97.5388 248.894Z" fill="#E0E0E0"/>
<path d="M116.568 263.267C113.914 266.784 110.967 270.147 107.748 273.33C104.809 276.706 101.582 279.907 98.0903 282.907C100.742 279.388 103.689 276.025 106.911 272.844C109.845 269.464 113.072 266.264 116.568 263.267Z" fill="#E0E0E0"/>
<path d="M97.171 281.531C94.016 280.059 91.0416 278.341 88.2892 276.399C85.3363 274.689 82.6002 272.739 80.1221 270.579C83.2686 272.053 86.2359 273.772 88.9834 275.711C91.9348 277.43 94.6767 279.379 97.171 281.531Z" fill="#E0E0E0"/>
<path d="M96.1102 314.036C92.6647 312.001 89.3524 309.817 86.1872 307.495C80.756 303.855 76.2233 301.037 76.3866 300.786C80.1549 302.433 83.671 304.443 86.861 306.774C90.2747 308.893 93.3784 311.33 96.1102 314.036Z" fill="#E0E0E0"/>
<path d="M118.223 293.943C115.281 297.635 112.048 301.165 108.545 304.509C105.328 308.055 101.822 311.417 98.0503 314.573C100.992 310.881 104.225 307.351 107.728 304.006C110.944 300.46 114.451 297.098 118.223 293.943Z" fill="#E0E0E0"/>
<path d="M272 36.2364H368.311C368.311 36.2364 368.311 18.1224 356.938 18.1224C352.867 18.0107 348.876 19.0708 345.655 21.1196C342.433 23.1683 340.185 26.077 339.297 29.343C339.297 29.343 339.297 -4.45311 318.594 0.494713C298.992 5.19095 296.767 26.8272 296.767 26.8272C296.767 26.8272 293.255 15.9587 282.638 22.0806C272.02 28.2025 272 36.2364 272 36.2364Z" fill="#F0F0F0"/>
<path d="M371.137 389.016C371.137 389.016 370.856 388.563 370.336 387.657L368.034 383.598C365.952 380.16 362.89 374.994 358.579 369.006C353.355 361.719 347.761 355.149 341.856 349.365C338.179 345.736 334.379 342.438 330.475 339.486C316.035 328.494 300.303 322.604 284.335 322.211C271.588 321.916 258.915 325.378 246.942 332.425C234.269 339.738 222.377 352.418 210.319 365.786C204.29 372.495 198.199 379.405 191.784 385.913C185.317 392.617 178.474 398.328 171.343 402.97C164.179 407.601 156.567 410.178 148.851 410.585C141.362 410.813 133.896 409.155 126.724 405.671C119.83 402.286 113.102 398.081 106.595 393.091C100.202 388.311 94.0999 383.246 88.0187 378.449C75.9813 368.889 64.1938 360.469 52.4375 356.729C50.9797 356.242 49.5114 355.907 48.064 355.521L45.8982 355.102C45.1804 354.934 44.4572 354.834 43.7322 354.8L39.4629 354.431C38.0468 354.431 36.6514 354.531 35.2977 354.565C34.6105 354.565 33.9128 354.565 33.2151 354.699L31.1325 355.034C29.7892 355.303 28.446 355.387 27.1339 355.789L23.2603 356.913C21.9691 357.232 20.7404 357.869 19.5116 358.339C10.6434 362.029 2.14254 367.715 -5.73986 375.229C-11.7133 380.823 -17.4182 387.131 -22.8067 394.098C-27.2219 399.868 -30.5019 404.648 -32.6783 407.952L-35.1461 411.742L-36 413.017C-36 413.017 -35.7293 412.548 -35.1878 411.675L-32.7616 407.818C-30.5957 404.463 -27.3364 399.666 -22.9421 393.829C-17.5605 386.805 -11.8589 380.442 -5.88564 374.793C2.00912 367.219 10.5275 361.477 19.4179 357.735C20.6571 357.265 21.8858 356.628 23.177 356.292L27.0819 355.152C28.3939 354.749 29.7476 354.649 31.1013 354.38L33.1839 354.028C33.8711 353.928 34.5688 353.944 35.2665 353.894C36.6618 353.894 38.0676 353.709 39.4942 353.743L43.7947 354.095C44.5197 354.129 45.2428 354.23 45.9606 354.397L48.1473 354.816C49.6052 355.202 51.0838 355.521 52.552 356.024C64.3708 359.764 76.2103 368.184 88.2686 377.728C94.3081 382.508 100.452 387.556 106.835 392.337C113.318 397.303 120.022 401.485 126.89 404.849C134.02 408.3 141.439 409.941 148.883 409.713C156.537 409.297 164.088 406.737 171.198 402.149C178.306 397.519 185.129 391.825 191.576 385.141C197.98 378.684 204.071 371.723 210.101 365.014C222.117 351.596 234.05 338.933 246.817 331.603C258.846 324.544 271.576 321.094 284.376 321.422C300.404 321.854 316.188 327.82 330.662 338.916C334.572 341.891 338.375 345.217 342.054 348.879C347.946 354.708 353.52 361.335 358.715 368.687C363.015 374.709 366.004 379.925 368.086 383.414L370.346 387.523C370.887 388.496 371.137 389.016 371.137 389.016Z" fill="#E0E0E0"/>
</svg>
