<svg viewBox="0 0 360 200" xmlns="http://www.w3.org/2000/svg">
<path d="M-16 188.577C-16 188.87 71.9844 189.085 180.489 189.085C288.993 189.085 377 188.851 377 188.577C377 188.303 289.038 188.069 180.489 188.069C71.9393 188.069 -16 188.303 -16 188.577Z" fill="#263238" fill-opacity="0.6"/>
<path d="M-4.2654 161.468C-4.2654 161.468 -3.79745 161.152 -4.83607 159.758C-4.97375 159.59 -5.0697 159.39 -5.11576 159.176C-5.16181 158.962 -5.15659 158.739 -5.1005 158.527C-5.04441 158.315 -4.93915 158.121 -4.79372 157.96C-4.64828 157.799 -4.467 157.676 -4.2654 157.603C0.299934 160.285 6.61154 157.603 6.61154 157.603C6.61154 157.603 -0.864197 155.261 -1.81151 152.977C-2.50772 151.291 -1.26366 151.103 -0.590271 151.115C-1.35497 151.033 -3.0099 150.764 -3.51208 149.862C-4.17406 148.691 -1.5718 147.274 -1.5718 147.274C-1.70617 146.989 -1.77598 146.677 -1.77598 146.36C-1.77598 146.044 -1.70617 145.732 -1.5718 145.447C-1.14951 144.276 8.59745 142.543 8.59745 142.543C7.76622 142.601 6.93904 142.381 6.23955 141.917C5.54005 141.452 5.00589 140.768 4.71696 139.966C4.71696 139.966 -0.0995026 140.072 -1.24084 138.139C-2.38217 136.207 -0.487579 135.668 2.73098 134.052C5.94954 132.436 13.003 126.416 13.003 126.416C13.003 126.416 8.56319 125.983 7.29631 124.917C6.02943 123.852 7.20506 123.617 7.20506 123.617C1.90927 124.156 3.70115 121.275 3.70115 121.275C7.90907 119.959 11.6758 117.465 14.578 114.073C12.7638 113.669 11.0553 112.87 9.56762 111.731C7.86704 110.126 10.9829 109.693 10.9829 109.693C10.9829 109.693 4.73977 108.826 8.33496 106.461C11.0628 104.669 15.434 102.245 16.7922 101.519C15.3085 102.081 11.9301 101.413 11.9301 101.413C7.95828 99.5863 11.9301 96.8927 11.9301 96.8927C16.5639 94.2109 23.3435 87.4301 23.3435 87.4301C23.3435 87.4301 19.9195 89.2571 18.2417 88.7184C16.564 88.1796 20.1363 86.0365 20.1363 86.0365C20.1363 86.0365 18.333 86.5752 17.5797 86.0365C16.8265 85.4978 19.5656 83.0268 19.5656 83.0268C23.6402 80.3098 28.6963 73.1777 30.7621 70.1445C32.8736 73.2128 37.8955 80.3449 41.97 83.0268C41.97 83.0268 44.7092 85.4978 43.9559 86.0365C43.2027 86.5752 41.3994 86.0365 41.3994 86.0365C41.3994 86.0365 44.9946 88.1796 43.294 88.7184C41.5934 89.2571 38.1922 87.4301 38.1922 87.4301C38.1922 87.4301 45.0402 94.2109 49.6055 96.8927C49.6055 96.8927 53.5774 99.5863 49.6055 101.413C49.6055 101.413 46.1815 102.081 44.7435 101.519C46.1016 102.245 50.4502 104.669 53.2008 106.461C56.7846 108.803 50.5529 109.693 50.5529 109.693C50.5529 109.693 53.6687 110.126 51.9681 111.731C50.4805 112.87 48.7718 113.669 46.9576 114.073C49.8973 117.482 53.715 119.97 57.9715 121.252C57.9715 121.252 59.7634 124.156 54.4676 123.594C54.4676 123.594 55.609 123.817 54.3763 124.894C53.1437 125.971 48.6696 126.393 48.6696 126.393C48.6696 126.393 55.7573 132.413 58.9416 134.029C62.126 135.645 64.0435 136.183 62.9135 138.116C61.7836 140.048 56.9557 139.943 56.9557 139.943C56.6668 140.745 56.1326 141.429 55.4331 141.893C54.7337 142.358 53.9065 142.577 53.0752 142.519C53.0752 142.519 62.8108 144.241 63.2445 145.424C63.3789 145.708 63.4487 146.021 63.4487 146.337C63.4487 146.653 63.3789 146.966 63.2445 147.25C63.2445 147.25 65.8353 148.656 65.1734 149.839C64.6712 150.74 63.0277 151.01 62.263 151.092C62.9364 151.092 64.1804 151.267 63.4728 152.954C62.5369 155.214 55.0612 157.58 55.0612 157.58C55.0612 157.58 61.3955 160.262 65.938 157.58C66.1405 157.652 66.3227 157.774 66.4685 157.936C66.6143 158.097 66.7194 158.292 66.7746 158.505C66.8298 158.718 66.8334 158.941 66.785 159.155C66.7367 159.369 66.6379 159.568 66.4973 159.735C65.4587 161.128 65.938 161.444 65.938 161.444C65.938 161.444 68.3006 159.617 67.262 162.416C66.2234 165.215 60.7335 166.937 60.7335 166.937C60.7335 166.937 63.8494 167.476 62.9135 169.185C61.9776 170.895 57.9944 172.956 53.6459 173.39C50.1847 173.513 46.7244 173.118 43.3739 172.219C43.3739 172.219 47.3457 174.362 44.6065 175.545C41.8673 176.727 38.7401 174.046 38.7401 174.046C38.7401 174.046 39.3107 176.798 37.0395 175.849C35.5177 175.16 34.1148 174.223 32.8851 173.073C32.8851 173.073 32.1774 177.126 30.7508 176.154C29.3355 177.126 28.6278 173.073 28.6278 173.073C27.3957 174.219 25.9933 175.156 24.4734 175.849C22.1908 176.798 22.7728 174.046 22.7728 174.046C22.7728 174.046 19.6456 176.727 16.9064 175.545C14.1672 174.362 18.139 172.219 18.139 172.219C14.7885 173.118 11.3282 173.513 7.86698 173.39C3.5185 172.956 -0.453339 170.907 -1.40064 169.185C-2.34795 167.464 0.779343 166.937 0.779343 166.937C0.779343 166.937 -4.71051 165.215 -5.74912 162.416C-6.78773 159.617 -4.2654 161.468 -4.2654 161.468Z" fill="#EBEBEB"/>
<path d="M49.4721 34.9085C50.3273 32.204 51.5367 29.6313 53.0673 27.2612C53.8393 26.0776 54.837 25.0668 56.0003 24.2898C57.1635 23.5129 58.4682 22.9859 59.8355 22.7407C61.2095 22.5389 62.6099 22.8084 63.8193 23.5072C65.0288 24.2061 65.9794 25.2952 66.5237 26.6053C66.9117 20.5507 67.7563 14.3321 70.7123 9.03867C73.6684 3.74525 79.1811 -0.330216 85.0818 0.0211177C90.6515 0.372451 95.4222 4.61187 98.0701 9.64765C100.718 14.6834 101.631 20.4687 102.498 26.1252C104.61 23.4668 109.073 24.2982 111.275 26.8747C113.478 29.4511 114.026 33.0933 114.448 36.4661H47.9998L49.4721 34.9085Z" fill="#EBEBEB"/>
<path d="M323.484 200H315.608V172.233H323.484V200Z" fill="#F5F5F5"/>
<path d="M297.688 159.94C297.688 159.94 298.076 159.683 297.22 158.535C297.118 158.393 297.049 158.23 297.018 158.056C296.987 157.883 296.994 157.705 297.039 157.535C297.084 157.365 297.165 157.208 297.278 157.075C297.39 156.942 297.53 156.837 297.688 156.767C301.409 158.968 306.602 156.767 306.602 156.767C306.602 156.767 300.473 154.834 299.754 152.972C299.172 151.59 300.187 151.438 300.747 151.45C300.119 151.45 298.761 151.157 298.35 150.419C297.814 149.447 299.936 148.3 299.936 148.3C299.827 148.068 299.77 147.813 299.77 147.556C299.77 147.298 299.827 147.044 299.936 146.812C300.29 145.84 308.279 144.47 308.279 144.47C307.598 144.519 306.919 144.34 306.345 143.96C305.771 143.58 305.333 143.019 305.095 142.362C305.095 142.362 301.146 142.444 300.21 140.863C299.274 139.282 300.838 138.825 303.463 137.514C306.088 136.202 311.92 131.248 311.92 131.248C311.92 131.248 308.28 130.897 307.264 130.019C306.248 129.14 307.195 128.953 307.195 128.953C302.847 129.398 304.319 127.021 304.319 127.021C307.764 125.958 310.851 123.93 313.233 121.165C311.745 120.829 310.344 120.17 309.124 119.233C307.732 117.909 310.265 117.558 310.265 117.558C310.265 117.558 305.152 116.855 308.097 114.911C310.38 113.436 313.918 111.456 315.036 110.859C313.711 111.084 312.356 111.052 311.042 110.766C307.789 109.266 311.042 107.065 311.042 107.065C314.842 104.863 320.423 99.312 320.423 99.312C320.423 99.312 317.627 100.799 316.235 100.366C314.842 99.9327 317.787 98.1644 317.787 98.1644C317.787 98.1644 316.314 98.5977 315.698 98.1644C315.082 97.7311 317.319 95.6933 317.319 95.6933C320.663 93.4682 324.783 87.6127 326.45 85.1533C328.173 87.6595 332.293 93.5151 335.637 95.6933C335.637 95.6933 337.92 97.7193 337.258 98.1644C336.596 98.6094 335.169 98.1644 335.169 98.1644C335.169 98.1644 338.114 99.921 336.722 100.366C335.329 100.811 332.533 99.312 332.533 99.312C332.533 99.312 338.114 104.863 341.915 107.065C341.915 107.065 345.167 109.266 341.915 110.766C340.6 111.052 339.246 111.084 337.92 110.859C339.061 111.456 342.622 113.436 344.859 114.911C347.804 116.855 342.691 117.558 342.691 117.558C342.691 117.558 345.247 117.909 343.832 119.233C342.613 120.17 341.212 120.829 339.723 121.165C342.106 123.93 345.193 125.958 348.637 127.021C348.637 127.021 350.109 129.363 345.761 128.953C345.761 128.953 346.697 129.129 345.692 130.019C344.688 130.909 341.036 131.248 341.036 131.248C341.036 131.248 346.845 136.19 349.482 137.514C352.118 138.837 353.67 139.27 352.746 140.863C351.821 142.456 347.861 142.362 347.861 142.362C347.623 143.019 347.185 143.58 346.611 143.96C346.037 144.34 345.358 144.519 344.677 144.47C344.677 144.47 352.666 145.887 353.008 146.812C353.121 147.043 353.179 147.298 353.179 147.556C353.179 147.814 353.121 148.069 353.008 148.3C353.008 148.3 355.143 149.471 354.606 150.419C354.184 151.157 352.837 151.391 352.209 151.45C352.769 151.45 353.785 151.59 353.202 152.972C352.426 154.834 346.354 156.767 346.354 156.767C346.354 156.767 351.547 158.968 355.268 156.767C355.426 156.837 355.566 156.942 355.678 157.075C355.791 157.208 355.873 157.365 355.918 157.535C355.963 157.705 355.97 157.883 355.938 158.056C355.907 158.23 355.838 158.393 355.736 158.535C354.88 159.706 355.268 159.94 355.268 159.94C355.268 159.94 357.209 158.441 356.41 160.737C355.611 163.032 351.057 164.438 351.057 164.438C351.057 164.438 353.625 164.883 352.849 166.288C352.073 167.693 348.808 169.38 345.247 169.731C342.424 169.826 339.602 169.499 336.87 168.759C336.87 168.759 340.134 170.516 337.886 171.488C335.637 172.46 333.081 170.258 333.081 170.258C333.081 170.258 333.537 172.518 331.677 171.734C330.422 171.173 329.266 170.405 328.253 169.462C328.253 169.462 327.671 172.788 326.507 171.991C325.365 172.788 324.76 169.462 324.76 169.462C323.746 170.404 322.59 171.171 321.336 171.734C319.476 172.518 319.944 170.258 319.944 170.258C319.944 170.258 317.387 172.46 315.139 171.488C312.89 170.516 316.143 168.759 316.143 168.759C313.416 169.499 310.597 169.827 307.777 169.731C304.205 169.38 300.929 167.705 300.176 166.288C299.423 164.871 301.957 164.438 301.957 164.438C301.957 164.438 297.471 163.032 296.615 160.737C295.759 158.441 297.688 159.94 297.688 159.94Z" fill="#F5F5F5"/>
<path d="M284.986 200H275.388V166.131H284.986V200Z" fill="#EBEBEB"/>
<path d="M251.772 153.815C251.772 153.815 252.24 153.499 251.202 152.106C251.064 151.938 250.968 151.738 250.922 151.524C250.876 151.309 250.881 151.087 250.937 150.875C250.993 150.663 251.098 150.468 251.244 150.307C251.389 150.147 251.571 150.024 251.772 149.951C256.338 152.633 262.649 149.951 262.649 149.951C262.649 149.951 255.173 147.609 254.226 145.325C253.53 143.638 254.774 143.451 255.447 143.463C254.683 143.381 253.028 143.111 252.526 142.21C251.864 141.039 254.466 139.622 254.466 139.622C254.331 139.337 254.262 139.024 254.262 138.708C254.262 138.392 254.331 138.079 254.466 137.795C254.888 136.624 264.635 134.89 264.635 134.89C263.804 134.948 262.977 134.729 262.277 134.264C261.578 133.8 261.043 133.116 260.755 132.314C260.755 132.314 255.938 132.419 254.797 130.487C253.655 128.555 255.55 128.016 258.769 126.4C261.987 124.784 269.041 118.764 269.041 118.764C269.041 118.764 264.601 118.331 263.334 117.265C262.067 116.199 263.243 115.965 263.243 115.965C257.947 116.504 259.739 113.623 259.739 113.623C263.947 112.307 267.713 109.813 270.616 106.421C268.801 106.017 267.093 105.218 265.605 104.078C263.905 102.474 267.02 102.041 267.02 102.041C267.02 102.041 260.777 101.174 264.373 98.8083C267.1 97.0165 271.472 94.5923 272.83 93.8662C271.346 94.4284 267.968 93.7608 267.968 93.7608C263.996 91.9339 267.968 89.2404 267.968 89.2404C272.602 86.5585 279.381 79.7778 279.381 79.7778C279.381 79.7778 275.957 81.6047 274.279 81.066C272.602 80.5273 276.174 78.3842 276.174 78.3842C276.174 78.3842 274.371 78.9229 273.617 78.3842C272.864 77.8455 275.603 75.3744 275.603 75.3744C279.678 72.6574 284.734 65.5254 286.8 62.4922C288.911 65.5605 293.933 72.6926 298.008 75.3744C298.008 75.3744 300.747 77.8455 299.994 78.3842C299.24 78.9229 297.437 78.3842 297.437 78.3842C297.437 78.3842 301.032 80.5273 299.332 81.066C297.631 81.6047 294.23 79.7778 294.23 79.7778C294.23 79.7778 301.078 86.5585 305.643 89.2404C305.643 89.2404 309.615 91.9339 305.643 93.7608C305.643 93.7608 302.219 94.4284 300.781 93.8662C302.139 94.5923 306.488 97.0165 309.238 98.8083C312.822 101.151 306.59 102.041 306.59 102.041C306.59 102.041 309.706 102.474 308.006 104.078C306.518 105.218 304.809 106.017 302.995 106.421C305.935 109.829 309.753 112.318 314.009 113.599C314.009 113.599 315.801 116.504 310.505 115.942C310.505 115.942 311.647 116.164 310.414 117.242C309.181 118.319 304.707 118.741 304.707 118.741C304.707 118.741 311.795 124.76 314.979 126.376C318.164 127.992 320.081 128.531 318.951 130.463C317.821 132.396 312.993 132.29 312.993 132.29C312.704 133.092 312.17 133.777 311.471 134.241C310.771 134.705 309.944 134.925 309.113 134.867C309.113 134.867 318.848 136.588 319.282 137.771C319.416 138.056 319.486 138.368 319.486 138.685C319.486 139.001 319.416 139.313 319.282 139.598C319.282 139.598 321.873 141.003 321.211 142.186C320.709 143.088 319.065 143.357 318.301 143.439C318.974 143.439 320.218 143.615 319.51 145.301C318.574 147.562 311.099 149.927 311.099 149.927C311.099 149.927 317.433 152.609 321.976 149.927C322.178 150 322.36 150.122 322.506 150.283C322.652 150.444 322.757 150.64 322.812 150.853C322.867 151.065 322.871 151.288 322.823 151.503C322.774 151.717 322.675 151.916 322.535 152.082C321.496 153.476 321.976 153.792 321.976 153.792C321.976 153.792 324.338 151.965 323.3 154.764C322.261 157.563 316.771 159.285 316.771 159.285C316.771 159.285 319.887 159.823 318.951 161.533C318.015 163.243 314.032 165.304 309.684 165.737C306.222 165.86 302.762 165.466 299.412 164.566C299.412 164.566 303.383 166.709 300.644 167.892C297.905 169.075 294.778 166.393 294.778 166.393C294.778 166.393 295.348 169.145 293.077 168.197C291.555 167.508 290.152 166.57 288.923 165.421C288.923 165.421 288.215 169.473 286.788 168.501C285.373 169.473 284.665 165.421 284.665 165.421C283.433 166.567 282.031 167.504 280.511 168.197C278.228 169.145 278.81 166.393 278.81 166.393C278.81 166.393 275.683 169.075 272.944 167.892C270.205 166.709 274.177 164.566 274.177 164.566C270.826 165.466 267.366 165.86 263.905 165.737C259.556 165.304 255.584 163.255 254.637 161.533C253.69 159.812 256.817 159.285 256.817 159.285C256.817 159.285 251.327 157.563 250.288 154.764C249.25 151.965 251.772 153.815 251.772 153.815Z" fill="#EBEBEB"/>
<path d="M287 32.8236C287.414 31.5342 287.998 30.3088 288.735 29.1814C289.107 28.6139 289.587 28.1294 290.146 27.7571C290.705 27.3848 291.331 27.1323 291.988 27.0149C292.648 26.9138 293.323 27.0406 293.905 27.3755C294.488 27.7105 294.946 28.2345 295.206 28.8653C295.248 25.9351 295.934 23.0525 297.215 20.4333C298.642 17.9037 301.29 15.9128 304.132 16.0884C305.472 16.2737 306.746 16.7991 307.838 17.6171C308.93 18.4351 309.806 19.5198 310.386 20.7729C311.526 23.274 312.248 25.9543 312.52 28.7013C313.525 27.4248 315.671 27.823 316.732 29.0643C317.674 30.4113 318.213 32.0106 318.284 33.6668H286.327L287 32.8236Z" fill="#F5F5F5"/>
</svg>
