<svg viewBox="0 0 329 199" xmlns="http://www.w3.org/2000/svg">
<path d="M53.1189 197.236H60.9941V169.922H53.1189V197.236Z" fill="#F5F5F5"/>
<path d="M135 198C135 198.288 104.776 198.5 67.5039 198.5C30.2314 198.5 0 198.269 0 198C0 197.731 30.2159 197.5 67.5039 197.5C104.792 197.5 135 197.731 135 198Z" fill="#263238" fill-opacity="0.6"/>
<path d="M86.9146 169.83C86.9146 169.83 86.5266 169.577 87.3826 168.448C87.4841 168.308 87.5532 168.147 87.5846 167.977C87.616 167.807 87.6089 167.631 87.564 167.464C87.519 167.297 87.4372 167.142 87.3248 167.011C87.2124 166.881 87.0722 166.777 86.9146 166.708C83.1938 168.874 78.0008 166.708 78.0008 166.708C78.0008 166.708 84.1297 164.808 84.8488 162.976C85.4308 161.616 84.4151 161.467 83.8558 161.478C84.4835 161.478 85.8417 161.19 86.2526 160.465C86.789 159.508 84.6662 158.379 84.6662 158.379C84.7753 158.151 84.832 157.901 84.832 157.648C84.832 157.395 84.7753 157.144 84.6662 156.916C84.3124 155.96 76.323 154.612 76.323 154.612C77.0045 154.66 77.6831 154.484 78.2571 154.11C78.8312 153.737 79.2698 153.185 79.5073 152.539C79.5073 152.539 83.4564 152.619 84.3923 151.064C85.3282 149.509 83.7645 149.06 81.1394 147.769C78.5144 146.479 72.6822 141.606 72.6822 141.606C72.6822 141.606 76.323 141.261 77.3388 140.397C78.3546 139.533 77.4072 139.348 77.4072 139.348C81.7557 139.786 80.2834 137.448 80.2834 137.448C76.8389 136.402 73.7519 134.407 71.3696 131.688C72.858 131.357 74.259 130.709 75.4785 129.787C76.8709 128.485 74.3371 128.139 74.3371 128.139C74.3371 128.139 79.4503 127.448 76.5056 125.536C74.223 124.084 70.6848 122.137 69.5663 121.55C70.8919 121.771 72.2467 121.74 73.561 121.458C76.8138 119.983 73.561 117.817 73.561 117.817C69.7603 115.652 64.1792 110.191 64.1792 110.191C64.1792 110.191 66.9755 111.654 68.3679 111.228C69.7603 110.802 66.8157 109.062 66.8157 109.062C66.8157 109.062 68.2881 109.489 68.9044 109.062C69.5207 108.636 67.2836 106.632 67.2836 106.632C63.9395 104.443 59.8193 98.6827 58.153 96.2635C56.4295 98.7288 52.3093 104.489 48.9652 106.632C48.9652 106.632 46.6826 108.625 47.3446 109.062C48.0065 109.5 49.4332 109.062 49.4332 109.062C49.4332 109.062 46.4885 110.79 47.881 111.228C49.2734 111.666 52.0697 110.191 52.0697 110.191C52.0697 110.191 46.4885 115.652 42.6879 117.817C42.6879 117.817 39.4351 119.983 42.6879 121.458C44.0021 121.74 45.357 121.771 46.6826 121.55C45.5412 122.137 41.9803 124.084 39.7432 125.536C36.7986 127.448 41.9118 128.139 41.9118 128.139C41.9118 128.139 39.3552 128.485 40.7705 129.787C41.9899 130.709 43.3909 131.357 44.8792 131.688C42.497 134.407 39.4099 136.402 35.9654 137.448C35.9654 137.448 34.4931 139.752 38.8416 139.348C38.8416 139.348 37.9057 139.521 38.9101 140.397C39.9145 141.272 43.5668 141.606 43.5668 141.606C43.5668 141.606 37.7573 146.468 35.1209 147.769C32.4844 149.071 30.9322 149.497 31.8567 151.064C32.7811 152.631 36.7416 152.539 36.7416 152.539C36.9792 153.185 37.4178 153.737 37.9918 154.11C38.5659 154.484 39.2444 154.66 39.9259 154.612C39.9259 154.612 31.9366 156.006 31.5942 156.916C31.4817 157.143 31.4231 157.394 31.4231 157.648C31.4231 157.902 31.4817 158.152 31.5942 158.379C31.5942 158.379 29.4599 159.531 29.9963 160.465C30.4186 161.19 31.7654 161.421 32.3931 161.478C31.8339 161.478 30.818 161.616 31.4001 162.976C32.1762 164.808 38.2481 166.708 38.2481 166.708C38.2481 166.708 33.055 168.874 29.3343 166.708C29.1767 166.777 29.0365 166.881 28.9241 167.011C28.8116 167.142 28.7299 167.297 28.6849 167.464C28.6399 167.631 28.6329 167.807 28.6644 167.977C28.6958 168.147 28.7648 168.308 28.8664 168.448C29.7224 169.6 29.3343 169.83 29.3343 169.83C29.3343 169.83 27.394 168.356 28.193 170.614C28.9919 172.872 33.5458 174.254 33.5458 174.254C33.5458 174.254 30.9778 174.692 31.7539 176.074C32.53 177.457 35.7943 179.115 39.3552 179.461C42.1789 179.555 45.001 179.233 47.7326 178.505C47.7326 178.505 44.4684 180.233 46.7168 181.189C48.9653 182.145 51.5218 179.979 51.5218 179.979C51.5218 179.979 51.0653 182.203 52.9257 181.431C54.1801 180.879 55.3367 180.124 56.3497 179.196C56.3497 179.196 56.9317 182.468 58.0959 181.684C59.2372 182.468 59.8422 179.196 59.8422 179.196C60.8565 180.123 62.0128 180.877 63.2662 181.431C65.1266 182.203 64.6586 179.979 64.6586 179.979C64.6586 179.979 67.2152 182.145 69.4636 181.189C71.712 180.233 68.4592 178.505 68.4592 178.505C71.1869 179.233 74.0053 179.555 76.8252 179.461C80.3976 179.115 83.6732 177.468 84.4265 176.074C85.1798 174.68 82.646 174.254 82.646 174.254C82.646 174.254 87.1314 172.872 87.9874 170.614C88.8434 168.356 86.9146 169.83 86.9146 169.83Z" fill="#F5F5F5"/>
<path d="M91.6162 197.236H101.215V163.92H91.6162V197.236Z" fill="#EBEBEB"/>
<path d="M132.83 163.805C132.83 163.805 132.362 163.494 133.401 162.123C133.539 161.958 133.635 161.762 133.681 161.551C133.727 161.34 133.722 161.121 133.665 160.913C133.609 160.704 133.504 160.513 133.359 160.355C133.213 160.196 133.032 160.076 132.83 160.004C128.265 162.642 121.953 160.004 121.953 160.004C121.953 160.004 129.429 157.7 130.376 155.453C131.073 153.794 129.829 153.61 129.155 153.622C129.92 153.541 131.575 153.276 132.077 152.389C132.739 151.237 130.137 149.843 130.137 149.843C130.271 149.563 130.341 149.256 130.341 148.945C130.341 148.633 130.271 148.326 130.137 148.046C129.714 146.894 119.967 145.189 119.967 145.189C120.799 145.246 121.626 145.03 122.325 144.573C123.025 144.116 123.559 143.443 123.848 142.655C123.848 142.655 128.664 142.758 129.806 140.857C130.947 138.957 129.053 138.427 125.834 136.837C122.615 135.247 115.562 129.326 115.562 129.326C115.562 129.326 120.002 128.9 121.269 127.851C122.536 126.803 121.36 126.573 121.36 126.573C126.656 127.103 124.864 124.269 124.864 124.269C120.656 122.974 116.889 120.521 113.987 117.184C115.801 116.786 117.51 116.001 118.997 114.88C120.698 113.302 117.582 112.875 117.582 112.875C117.582 112.875 123.825 112.023 120.23 109.696C117.502 107.933 113.131 105.549 111.773 104.834C113.256 105.387 116.635 104.731 116.635 104.731C120.607 102.934 116.635 100.284 116.635 100.284C112.001 97.6459 105.221 90.9759 105.221 90.9759C105.221 90.9759 108.645 92.773 110.323 92.2431C112.001 91.7132 108.429 89.605 108.429 89.605C108.429 89.605 110.232 90.1349 110.985 89.605C111.738 89.0751 108.999 86.6444 108.999 86.6444C104.925 83.9717 99.8686 76.956 97.8028 73.9724C95.6914 76.9906 90.6695 84.0063 86.5949 86.6444C86.5949 86.6444 83.8557 89.0751 84.609 89.605C85.3623 90.1349 87.1656 89.605 87.1656 89.605C87.1656 89.605 83.5703 91.7132 85.2709 92.2431C86.9715 92.773 90.3727 90.9759 90.3727 90.9759C90.3727 90.9759 83.5247 97.6459 78.9594 100.284C78.9594 100.284 74.9876 102.934 78.9594 104.731C78.9594 104.731 82.3834 105.387 83.8215 104.834C82.4633 105.549 78.1148 107.933 75.3642 109.696C71.7804 112 78.0121 112.875 78.0121 112.875C78.0121 112.875 74.8962 113.302 76.5968 114.88C78.0845 116.001 79.7931 116.786 81.6073 117.184C78.6676 120.537 74.85 122.985 70.5934 124.246C70.5934 124.246 68.8015 127.103 74.0973 126.55C74.0973 126.55 72.956 126.769 74.1886 127.828C75.4213 128.888 79.8953 129.303 79.8953 129.303C79.8953 129.303 72.8076 135.224 69.6233 136.814C66.439 138.404 64.5215 138.934 65.6514 140.834C66.7813 142.735 71.6092 142.632 71.6092 142.632C71.8981 143.42 72.4323 144.093 73.1318 144.55C73.8313 145.007 74.6585 145.223 75.4897 145.166C75.4897 145.166 65.7542 146.859 65.3204 148.023C65.1861 148.303 65.1163 148.61 65.1163 148.921C65.1163 149.233 65.1861 149.54 65.3204 149.82C65.3204 149.82 62.7296 151.202 63.3916 152.366C63.8938 153.253 65.5373 153.518 66.302 153.599C65.6286 153.599 64.3845 153.771 65.0922 155.43C66.0281 157.654 73.5038 159.981 73.5038 159.981C73.5038 159.981 67.1694 162.619 62.6269 159.981C62.4244 160.052 62.2423 160.172 62.0964 160.331C61.9506 160.489 61.8455 160.682 61.7904 160.891C61.7352 161.1 61.7316 161.32 61.7799 161.53C61.8282 161.741 61.9271 161.937 62.0677 162.1C63.1063 163.471 62.6269 163.782 62.6269 163.782C62.6269 163.782 60.2643 161.985 61.3029 164.738C62.3415 167.492 67.8314 169.185 67.8314 169.185C67.8314 169.185 64.7155 169.715 65.6514 171.397C66.5873 173.079 70.5705 175.106 74.919 175.533C78.3803 175.654 81.8405 175.266 85.191 174.381C85.191 174.381 81.2192 176.489 83.9584 177.652C86.6976 178.816 89.8248 176.178 89.8248 176.178C89.8248 176.178 89.2542 178.885 91.5255 177.952C93.0472 177.274 94.4501 176.352 95.6799 175.222C95.6799 175.222 96.3875 179.208 97.8142 178.251C99.2294 179.208 99.9371 175.222 99.9371 175.222C101.169 176.349 102.572 177.271 104.092 177.952C106.374 178.885 105.792 176.178 105.792 176.178C105.792 176.178 108.919 178.816 111.659 177.652C114.398 176.489 110.426 174.381 110.426 174.381C113.776 175.266 117.237 175.654 120.698 175.533C125.046 175.106 129.018 173.09 129.966 171.397C130.913 169.704 127.786 169.185 127.786 169.185C127.786 169.185 133.275 167.492 134.314 164.738C135.353 161.985 132.83 163.805 132.83 163.805Z" fill="#EBEBEB"/>
<path d="M327.13 34.8388C326.275 32.1785 325.066 29.6478 323.535 27.3163C322.763 26.152 321.766 25.1577 320.602 24.3934C319.439 23.6292 318.134 23.1108 316.767 22.8696C315.393 22.6711 313.993 22.9362 312.783 23.6236C311.574 24.311 310.623 25.3824 310.079 26.6712C309.691 20.7153 308.846 14.5982 305.89 9.39117C302.934 4.18413 297.421 0.175173 291.521 0.520773C285.951 0.866373 281.18 5.03661 278.532 9.99021C275.885 14.9438 274.971 20.6347 274.104 26.1988C271.993 23.5838 267.53 24.4017 265.327 26.9361C263.124 29.4705 262.577 33.0532 262.154 36.371H328.603L327.13 34.8388Z" fill="#EBEBEB"/>
<path d="M111.602 32.7883C111.188 31.5199 110.605 30.3145 109.867 29.2056C109.496 28.6473 109.016 28.1707 108.457 27.8045C107.898 27.4382 107.271 27.1899 106.615 27.0744C105.954 26.9749 105.28 27.0997 104.697 27.4291C104.115 27.7586 103.657 28.2741 103.396 28.8946C103.355 26.0122 102.668 23.1767 101.387 20.6001C99.9607 18.1118 97.3128 16.1534 94.4709 16.3262C93.1308 16.5085 91.857 17.0253 90.7649 17.83C89.6727 18.6346 88.7968 19.7016 88.2164 20.9342C87.0762 23.3945 86.3547 26.0311 86.0821 28.7333C85.0777 27.4776 82.932 27.8693 81.8706 29.0904C80.9286 30.4154 80.3893 31.9885 80.3184 33.6178H112.276L111.602 32.7883Z" fill="#F5F5F5"/>
</svg>
