<svg width="312" height="20" viewBox="0 0 312 20" fill="none" xmlns="http://www.w3.org/2000/svg">
<path d="M312 20H0V13.824C0 13.824 34.7683 2.85527 60.6875 2.55436C88.8431 2.22748 112.483 9.80982 140.641 9.73597C168.259 9.66353 183.162 -1.27562 210.747 0.123621C230.908 1.14623 241.403 9.76732 261.588 9.73597C281.608 9.70487 312 0.123621 312 0.123621V20Z" fill="#FF8854" fill-opacity="0.1"/>
<path d="M57.2706 11.926C34.5517 10.8998 0 1.19212 0 1.19212V20H312V14.5818C312 14.5818 284.648 2.64813 266.031 1.19212C242.732 -0.630061 230.484 11.0887 207.131 11.926C178.04 12.969 162.45 1.31668 133.342 1.19212C103.35 1.06378 87.2326 13.2793 57.2706 11.926Z" fill="#FF8854" fill-opacity="0.13"/>
</svg>
