<svg width="1420" height="59" viewBox="0 0 1420 59" fill="none" xmlns="http://www.w3.org/2000/svg">
<path d="M1420 59H0V55.957C0 55.957 139.419 12.9213 260.5 11.5596C392.028 10.0803 502.464 44.3937 634 44.0594C763.02 43.7316 832.635 -5.77271 961.5 0.559437C1055.68 5.1872 1104.71 44.2013 1199 44.0594C1292.52 43.9187 1420 4.78125 1420 4.78125V59Z" fill="#FF8854" fill-opacity="0.1"/>
<path d="M251.5 49.5595C146.971 44.9228 0 4.25781 0 4.25781V59H1416H1418.71C1418.71 59 1297.66 7.63831 1212 1.05947C1104.8 -7.17387 1048.45 45.7763 941 49.5595C807.154 54.2721 735.428 1.6223 601.5 1.05947C463.512 0.47957 389.354 55.6744 251.5 49.5595Z" fill="#FF8854" fill-opacity="0.13"/>
</svg>
