<svg viewBox="0 0 20 16" xmlns="http://www.w3.org/2000/svg">
<path d="M1.0128 0.000114292C0.880477 -0.00202745 0.749101 0.0259508 0.626308 0.0824228C0.503514 0.138895 0.391752 0.222734 0.297517 0.329069C0.203281 0.435404 0.128452 0.562114 0.0773767 0.701835C0.0263017 0.841555 0 0.9915 0 1.14296C0 1.29441 0.0263017 1.44435 0.0773767 1.58408C0.128452 1.7238 0.203281 1.85051 0.297517 1.95684C0.391752 2.06318 0.503514 2.14702 0.626308 2.20349C0.749101 2.25996 0.880477 2.28794 1.0128 2.2858H18.9872C19.1195 2.28794 19.2509 2.25996 19.3737 2.20349C19.4965 2.14702 19.6082 2.06318 19.7025 1.95684C19.7967 1.85051 19.8715 1.7238 19.9226 1.58408C19.9737 1.44435 20 1.29441 20 1.14296C20 0.9915 19.9737 0.841555 19.9226 0.701835C19.8715 0.562114 19.7967 0.435404 19.7025 0.329069C19.6082 0.222734 19.4965 0.138895 19.3737 0.0824228C19.2509 0.0259508 19.1195 -0.00202745 18.9872 0.000114292H1.0128ZM1.0128 6.85716C0.880477 6.85502 0.749101 6.88299 0.626308 6.93947C0.503514 6.99594 0.391752 7.07978 0.297517 7.18611C0.203281 7.29245 0.128452 7.41916 0.0773767 7.55888C0.0263017 7.6986 0 7.84854 0 8C0 8.15145 0.0263017 8.3014 0.0773767 8.44112C0.128452 8.58084 0.203281 8.70755 0.297517 8.81389C0.391752 8.92022 0.503514 9.00406 0.626308 9.06053C0.749101 9.117 0.880477 9.14498 1.0128 9.14284H18.9872C19.1195 9.14498 19.2509 9.117 19.3737 9.06053C19.4965 9.00406 19.6082 8.92022 19.7025 8.81389C19.7967 8.70755 19.8715 8.58084 19.9226 8.44112C19.9737 8.3014 20 8.15145 20 8C20 7.84854 19.9737 7.6986 19.9226 7.55888C19.8715 7.41916 19.7967 7.29245 19.7025 7.18611C19.6082 7.07978 19.4965 6.99594 19.3737 6.93947C19.2509 6.88299 19.1195 6.85502 18.9872 6.85716H1.0128ZM1.0128 13.7142C0.880477 13.7121 0.749101 13.74 0.626308 13.7965C0.503514 13.853 0.391752 13.9368 0.297517 14.0432C0.203281 14.1495 0.128452 14.2762 0.0773767 14.4159C0.0263017 14.5556 0 14.7056 0 14.857C0 15.0085 0.0263017 15.1584 0.0773767 15.2982C0.128452 15.4379 0.203281 15.5646 0.297517 15.6709C0.391752 15.7773 0.503514 15.8611 0.626308 15.9176C0.749101 15.974 0.880477 16.002 1.0128 15.9999H18.9872C19.1195 16.002 19.2509 15.974 19.3737 15.9176C19.4965 15.8611 19.6082 15.7773 19.7025 15.6709C19.7967 15.5646 19.8715 15.4379 19.9226 15.2982C19.9737 15.1584 20 15.0085 20 14.857C20 14.7056 19.9737 14.5556 19.9226 14.4159C19.8715 14.2762 19.7967 14.1495 19.7025 14.0432C19.6082 13.9368 19.4965 13.853 19.3737 13.7965C19.2509 13.74 19.1195 13.7121 18.9872 13.7142H1.0128Z" fill="black"/>
</svg>
