<svg viewBox="0 0 11 11" xmlns="http://www.w3.org/2000/svg">
<path d="M5.7322 0.0539551C4.33946 0.0539551 4.16433 0.0602051 3.61712 0.0839551C3.0699 0.108955 2.69718 0.192705 2.37065 0.316455C2.02814 0.441967 1.7179 0.638846 1.46162 0.89333C1.20058 1.14314 0.998517 1.44535 0.869504 1.77895C0.742484 2.09645 0.655879 2.4602 0.63086 2.99145C0.606482 3.52583 0.600067 3.69583 0.600067 5.05458C0.600067 6.41208 0.606482 6.58208 0.63086 7.1152C0.656521 7.6477 0.742484 8.01083 0.869504 8.32895C1.00101 8.6577 1.17615 8.93645 1.46162 9.21458C1.74646 9.4927 2.03257 9.66395 2.37001 9.79145C2.69718 9.9152 3.06926 9.99958 3.61583 10.024C4.16369 10.0477 4.33818 10.054 5.7322 10.054C7.12621 10.054 7.30006 10.0477 7.84792 10.024C8.39385 9.99895 8.76785 9.9152 9.09438 9.79145C9.43667 9.66588 9.74669 9.469 10.0028 9.21458C10.2882 8.93645 10.4634 8.6577 10.5949 8.32895C10.7213 8.01083 10.8079 7.6477 10.8335 7.1152C10.8579 6.58208 10.8643 6.41208 10.8643 5.05395C10.8643 3.69583 10.8579 3.52583 10.8335 2.99208C10.8079 2.4602 10.7213 2.09645 10.5949 1.77895C10.4659 1.44535 10.2638 1.14313 10.0028 0.89333C9.74657 0.638752 9.43631 0.441858 9.09374 0.316455C8.76657 0.192705 8.39321 0.10833 7.84728 0.0839551C7.29942 0.0602051 7.12557 0.0539551 5.73091 0.0539551H5.73284H5.7322ZM5.27223 0.955205H5.73284C7.10312 0.955205 7.26542 0.95958 7.80622 0.983955C8.3066 1.00583 8.5786 1.0877 8.75951 1.15583C8.9988 1.24645 9.17008 1.3552 9.34971 1.5302C9.52933 1.7052 9.64031 1.87145 9.73333 2.1052C9.8039 2.28083 9.8873 2.54583 9.90975 3.03333C9.93477 3.5602 9.9399 3.71833 9.9399 5.0527C9.9399 6.38708 9.93477 6.54583 9.90975 7.0727C9.8873 7.5602 9.80326 7.82458 9.73333 8.00083C9.65105 8.21793 9.51972 8.41423 9.34906 8.5752C9.16944 8.7502 8.9988 8.85833 8.75887 8.94895C8.57925 9.0177 8.30724 9.09895 7.80622 9.12145C7.26542 9.1452 7.10312 9.15083 5.73284 9.15083C4.36256 9.15083 4.19961 9.1452 3.65882 9.12145C3.15843 9.09895 2.88707 9.0177 2.70616 8.94895C2.48324 8.86891 2.28156 8.74119 2.11597 8.5752C1.94517 8.41398 1.81364 8.21749 1.73106 8.0002C1.66113 7.82458 1.5771 7.55958 1.55464 7.07208C1.53027 6.5452 1.52513 6.38708 1.52513 5.05145C1.52513 3.71645 1.53027 3.55895 1.55464 3.03208C1.57774 2.54458 1.66113 2.27958 1.7317 2.10333C1.82472 1.8702 1.93635 1.70333 2.11597 1.52833C2.29559 1.35333 2.46624 1.2452 2.70616 1.15458C2.88707 1.08583 3.15843 1.00458 3.65882 0.98208C4.13226 0.96083 4.31573 0.95458 5.27223 0.953955V0.955205ZM8.47211 1.7852C8.39124 1.7852 8.31115 1.80072 8.23643 1.83088C8.16171 1.86103 8.09382 1.90523 8.03664 1.96094C7.97945 2.01666 7.93408 2.0828 7.90314 2.15559C7.87219 2.22839 7.85626 2.30641 7.85626 2.3852C7.85626 2.464 7.87219 2.54202 7.90314 2.61481C7.93408 2.68761 7.97945 2.75375 8.03664 2.80947C8.09382 2.86518 8.16171 2.90938 8.23643 2.93953C8.31115 2.96969 8.39124 2.9852 8.47211 2.9852C8.63545 2.9852 8.79209 2.92199 8.90759 2.80947C9.02308 2.69695 9.08797 2.54433 9.08797 2.3852C9.08797 2.22607 9.02308 2.07346 8.90759 1.96094C8.79209 1.84842 8.63545 1.7852 8.47211 1.7852ZM5.73284 2.48645C5.38326 2.48114 5.03608 2.54363 4.71153 2.67029C4.38698 2.79695 4.09153 2.98525 3.84239 3.22422C3.59324 3.46319 3.39539 3.74806 3.26033 4.06224C3.12528 4.37643 3.05573 4.71364 3.05573 5.05427C3.05573 5.39489 3.12528 5.73211 3.26033 6.04629C3.39539 6.36048 3.59324 6.64534 3.84239 6.88431C4.09153 7.12329 4.38698 7.31158 4.71153 7.43824C5.03608 7.5649 5.38326 7.62739 5.73284 7.62208C6.42474 7.61156 7.08465 7.3364 7.57013 6.85599C8.0556 6.37557 8.32771 5.72844 8.32771 5.05427C8.32771 4.3801 8.0556 3.73296 7.57013 3.25255C7.08465 2.77213 6.42474 2.49697 5.73284 2.48645ZM5.73284 3.38708C6.1866 3.38708 6.62178 3.5627 6.94264 3.8753C7.2635 4.1879 7.44376 4.61187 7.44376 5.05395C7.44376 5.49604 7.2635 5.92001 6.94264 6.23261C6.62178 6.54521 6.1866 6.72083 5.73284 6.72083C5.27907 6.72083 4.84389 6.54521 4.52303 6.23261C4.20217 5.92001 4.02191 5.49604 4.02191 5.05395C4.02191 4.61187 4.20217 4.1879 4.52303 3.8753C4.84389 3.5627 5.27907 3.38708 5.73284 3.38708Z" fill="white"/>
</svg>
