<svg viewBox="0 0 11 11" xmlns="http://www.w3.org/2000/svg">
<path d="M0.392853 0.770205C0.392853 0.37458 0.73029 0.0539551 1.14663 0.0539551H9.90333C10.3197 0.0539551 10.6571 0.37458 10.6571 0.770205V9.3377C10.6571 9.73333 10.3197 10.054 9.90333 10.054H1.14663C0.73029 10.054 0.392853 9.73333 0.392853 9.3377V0.770205ZM3.56387 8.4252V3.90958H2.02359V8.4252H3.56387ZM2.79405 3.2927C3.331 3.2927 3.66523 2.94645 3.66523 2.5127C3.6556 2.06958 3.33164 1.7327 2.80431 1.7327C2.27699 1.7327 1.93249 2.0702 1.93249 2.5127C1.93249 2.94645 2.26672 3.2927 2.78378 3.2927H2.79405ZM5.94261 8.4252V5.90333C5.94261 5.76833 5.95287 5.63333 5.99393 5.53708C6.10491 5.2677 6.35831 4.98833 6.78428 4.98833C7.34176 4.98833 7.56436 5.40208 7.56436 6.00958V8.4252H9.10464V5.8352C9.10464 4.4477 8.34509 3.8027 7.33149 3.8027C6.5142 3.8027 6.14789 4.2402 5.94261 4.54833V4.56395H5.93234C5.93575 4.55874 5.93917 4.55353 5.94261 4.54833V3.90958H4.40297C4.42222 4.33333 4.40297 8.4252 4.40297 8.4252H5.94261Z" fill="white"/>
</svg>
