<svg width="32" height="32" viewBox="0 0 36 36" fill="none" xmlns="http://www.w3.org/2000/svg">
<path d="M6 18C6 11.385 11.385 6 18 6C24.615 6 30 11.385 30 18C30 24.615 24.615 30 18 30C11.385 30 6 24.615 6 18ZM3 18C3 26.28 9.72 33 18 33C26.28 33 33 26.28 33 18C33 9.72 26.28 3 18 3C9.72 3 3 9.72 3 18Z" fill="white"/>
<path d="M24 12H12C11.175 12 10.5075 12.675 10.5075 13.5L10.5 22.5C10.5 23.325 11.175 24 12 24H24C24.825 24 25.5 23.325 25.5 22.5V13.5C25.5 12.675 24.825 12 24 12ZM23.25 22.5H12.75C12.3375 22.5 12 22.1625 12 21.75V15L17.205 18.255C17.6925 18.5625 18.3075 18.5625 18.795 18.255L24 15V21.75C24 22.1625 23.6625 22.5 23.25 22.5ZM18 17.25L12 13.5H24L18 17.25Z" fill="white"/>
</svg>
