<svg width="28" height="28" viewBox="0 0 28 28" fill="none" xmlns="http://www.w3.org/2000/svg">
<path d="M2.34832 0.442392C1.02245 0.440605 0.140156 1.70729 0.320103 3.0209C0.499327 4.32925 1.71153 5.14973 2.96634 5.56124C3.49873 5.73583 3.93902 6.0069 4.28722 6.37445C5.05522 7.18512 5.52455 8.27312 5.69522 9.63845C5.75933 10.1514 5.80539 10.6794 5.83337 11.2224C5.91515 12.8093 4.57883 14.0544 2.98986 14.0544C1.33817 14.0544 -0.000782013 15.3934 -0.000782013 17.0451V24.5585C-0.000782013 26.2153 1.34236 27.5585 2.99922 27.5585H7.94322C9.60007 27.5585 10.9432 26.2153 10.9432 24.5585V11.4944C10.9432 7.56912 9.96188 4.62512 7.99922 2.66245C6.49011 1.18545 4.60648 0.445436 2.34832 0.442392ZM18.6043 0.442392C17.2784 0.440605 16.3962 1.70729 16.5761 3.02091C16.7553 4.32925 17.9675 5.14973 19.2223 5.56124C19.7547 5.73583 20.195 6.0069 20.5432 6.37445C21.3112 7.18512 21.7806 8.27312 21.9512 9.63845C22.0153 10.1514 22.0614 10.6794 22.0894 11.2224C22.1711 12.8093 20.8348 14.0544 19.2459 14.0544C17.5942 14.0544 16.2552 15.3934 16.2552 17.0451V24.5585C16.2552 26.2153 17.5984 27.5585 19.2552 27.5585H24.1992C25.8561 27.5585 27.1992 26.2153 27.1992 24.5585V11.4944C27.1992 7.56912 26.2179 4.62512 24.2552 2.66245C22.7461 1.18546 20.8625 0.445436 18.6043 0.442392Z" fill="#FF6420"/>
</svg>
