<svg viewBox="0 0 12 11" xmlns="http://www.w3.org/2000/svg">
<path d="M6.72961 0.0539551H8.18127C8.28684 0.50083 8.57718 1.06458 9.08672 1.62395C9.58527 2.17208 10.2466 2.55395 11.1286 2.55395V3.80395C9.84335 3.80395 8.87777 3.2952 8.19593 2.66083V6.92895C8.19593 7.54702 7.98094 8.15121 7.57813 8.66511C7.17533 9.17901 6.60281 9.57955 5.93297 9.81608C5.26313 10.0526 4.52606 10.1145 3.81496 9.99391C3.10387 9.87333 2.45068 9.5757 1.93801 9.13866C1.42534 8.70162 1.0762 8.1448 0.934758 7.53861C0.793312 6.93242 0.865907 6.30409 1.14336 5.73307C1.42082 5.16205 1.89068 4.67399 2.49351 4.33061C3.09635 3.98723 3.8051 3.80395 4.53013 3.80395V5.05395C4.09511 5.05395 3.66986 5.16392 3.30816 5.36995C2.94646 5.57598 2.66454 5.86881 2.49807 6.21142C2.33159 6.55403 2.28804 6.93103 2.37291 7.29475C2.45777 7.65846 2.66725 7.99256 2.97486 8.25478C3.28246 8.517 3.67437 8.69558 4.10103 8.76793C4.52769 8.84027 4.96993 8.80314 5.37183 8.66123C5.77374 8.51931 6.11725 8.27899 6.35893 7.97065C6.60061 7.66231 6.72961 7.29979 6.72961 6.92895V0.0539551Z" fill="white"/>
</svg>
