<svg viewBox="0 0 11 11" xmlns="http://www.w3.org/2000/svg">
<path d="M3.35286 10.054C7.22634 10.054 9.34526 6.2057 9.34526 2.87434C9.34526 2.76665 9.34526 2.65743 9.34141 2.54974C9.75395 2.19167 10.11 1.74836 10.3929 1.24058C10.0075 1.4443 9.59915 1.57856 9.18104 1.63902C9.62146 1.32337 9.95132 0.82673 10.1093 0.241401C9.69552 0.535327 9.24263 0.741662 8.77046 0.851369C8.45303 0.446024 8.03298 0.177495 7.57537 0.0873768C7.11777 -0.00274159 6.64815 0.0905797 6.23926 0.352886C5.83037 0.615191 5.50502 1.03184 5.31362 1.5383C5.12222 2.04476 5.07545 2.61276 5.18054 3.15432C4.3432 3.10398 3.52403 2.84316 2.77617 2.38878C2.0283 1.9344 1.36845 1.29661 0.839401 0.516771C0.570824 1.07296 0.48886 1.73086 0.610153 2.35688C0.731446 2.98289 1.0469 3.53009 1.49246 3.88736C1.15858 3.87376 0.832037 3.76626 0.539171 3.57353V3.60814C0.539747 4.19079 0.708087 4.75533 1.01574 5.20634C1.32339 5.65734 1.75148 5.96715 2.22764 6.0834C2.0469 6.1431 1.8602 6.17286 1.67273 6.17185C1.54057 6.17233 1.40867 6.15765 1.27884 6.12801C1.41342 6.62957 1.67547 7.06809 2.02829 7.38216C2.38111 7.69622 2.80702 7.87011 3.24637 7.87946C2.5 8.58234 1.57804 8.96356 0.628984 8.9617C0.461754 8.96255 0.29464 8.95099 0.128601 8.92709C1.09185 9.66341 2.21051 10.0544 3.35286 10.054Z" fill="white"/>
</svg>
