<svg width="177" height="171" viewBox="0 0 177 171" fill="none" xmlns="http://www.w3.org/2000/svg">
<path d="M30.7248 117.2L20.3289 136.328L21.1851 89.8836C21.3806 86.9332 22.3764 84.0919 24.0653 81.6648C24.7816 80.5754 25.6208 79.572 26.5664 78.6745C27.7895 77.641 29.4222 76.3324 30.5413 75.8921C31.9294 75.3417 31.9722 73.4154 30.6819 73.0791C29.3916 72.7428 25.5269 74.1615 22.1635 77.6105C18.8002 81.0594 19.5584 73.605 19.7908 70.8838C20.0232 68.1625 20.3351 59.7236 19.5523 59.0142C18.4088 57.9685 17.0451 59.0142 16.88 61.7538C16.7149 64.4934 15.6569 72.6082 14.2077 72.4554C12.7584 72.3025 14.1587 58.4699 14.1587 58.4699C14.1587 58.4699 14.9292 55.5469 13.2843 55.3145C10.3123 54.8926 9.95149 69.6791 9.95149 71.0917C9.95149 72.0701 8.39211 71.96 8.44715 70.9082C8.50219 69.8564 10.1227 57.1246 7.10181 56.6721C4.78416 56.3235 6.6921 68.8352 4.89423 71.3485C3.09637 73.8619 4.41725 61.6865 2.18521 61.4419C1.35966 61.3502 0.723679 61.3991 0.962171 68.456C1.09671 72.2536 2.79673 77.9285 2.49097 85.2544L2.41758 87.1501C0.662527 100.854 -7.2444 172.75 19.9743 170.8C19.9743 170.8 40.6252 167.932 52.1034 130.348L30.7248 117.2Z" fill="#FFBE9D"/>
<path d="M7.43164 82.1052C7.43164 82.1725 7.89028 82.2275 8.56906 82.5822C9.48409 83.0541 10.1984 83.84 10.581 84.7959L10.795 85.3401L11.0335 84.8081C11.3764 84.0489 11.8551 83.3588 12.4461 82.7718C13.5847 81.6135 15.0471 80.8269 16.6411 80.5153C17.8641 80.2645 18.6591 80.4052 18.6713 80.3073C18.0026 80.0607 17.2783 80.0056 16.5799 80.1483C14.8644 80.3708 13.2742 81.1659 12.0669 82.4048C11.4386 83.0406 10.9365 83.7897 10.5871 84.6124H11.0396C10.8203 84.0928 10.5005 83.6216 10.0986 83.226C9.69666 82.8303 9.2205 82.518 8.69748 82.307C8.30785 82.1065 7.86431 82.0358 7.43164 82.1052Z" fill="#EB996E"/>
<path d="M154.875 126.134L166.439 147.917L177 168.231H153.12L138.321 137.735" fill="#FFBE9D"/>
<path d="M64.3033 168.231C66.5781 160.484 65.086 159.26 62.6399 151.568L57.3809 135.057L45.8721 152.057L21.4053 132.39L29.5201 114.088C44.6796 79.7326 69.2688 82.1725 69.2688 82.1725L100.603 76.1919C100.603 76.1919 120.649 74.3573 133.625 86.1352C137.857 89.9755 157.077 124.575 157.077 124.575L133.46 141.123L127.669 131.247L126.067 144.67C124.807 152.008 124.886 161.346 127.669 168.231" fill="#FF6420"/>
<path d="M61.5754 93.865C61.5754 93.9506 56.4203 95.088 50.03 96.4028C43.6396 97.7175 38.4111 98.7143 38.4111 98.6287C38.4111 98.5431 43.5601 97.4056 49.9566 96.0909C56.3531 94.7761 61.5571 93.7671 61.5754 93.865Z" fill="#FAFAFA"/>
<path d="M130.476 83.9706C130.476 84.0624 125.418 85.0714 119.138 86.2271C112.858 87.3829 107.758 88.2574 107.739 88.1656C107.721 88.0739 112.803 87.071 119.083 85.9153C125.363 84.7595 130.463 83.885 130.476 83.9706Z" fill="#FAFAFA"/>
<path d="M140.132 95.1549C140.132 95.2405 132.262 96.9894 122.514 99.1114C112.766 101.233 104.853 102.842 104.835 102.78C104.817 102.719 112.699 100.946 122.447 98.824C132.194 96.702 140.089 95.0876 140.132 95.1549Z" fill="#FAFAFA"/>
<path d="M149.787 112.394L149.457 112.461L148.491 112.632L144.755 113.244L131.014 115.494L85.6514 122.771C67.9173 125.578 51.8772 128.079 40.2461 129.828C34.4367 130.709 29.728 131.393 26.4686 131.846C24.842 132.066 23.5762 132.231 22.7139 132.323C22.2843 132.417 21.8426 132.441 21.4053 132.396C21.8425 132.389 22.2784 132.344 22.7078 132.262L26.4503 131.724L40.2156 129.608L85.6024 122.453L130.959 115.268L144.718 113.115L148.46 112.546L149.439 112.406L149.787 112.394Z" fill="#FAFAFA"/>
<path d="M126.715 139.166C126.715 139.252 112.149 141.227 94.164 143.569C76.1792 145.912 61.5884 147.74 61.5762 147.654C61.5639 147.569 76.1364 145.6 94.1273 143.251C112.118 140.903 126.678 139.081 126.715 139.166Z" fill="#FAFAFA"/>
<path d="M123.933 162.062C123.933 162.153 110.895 162.141 94.8243 162.062C78.7536 161.982 65.71 161.817 65.71 161.725C65.71 161.634 78.7414 161.646 94.8243 161.725C110.907 161.805 123.933 161.976 123.933 162.062Z" fill="#FAFAFA"/>
<path d="M70.5345 108.016C70.3974 108.06 70.256 108.091 70.1126 108.107L68.8895 108.309L64.4254 109.018C60.6524 109.63 55.4484 110.492 49.749 111.562C44.0497 112.633 38.8518 113.703 35.1154 114.504L30.6697 115.452L29.4466 115.702C29.3068 115.741 29.1633 115.763 29.0186 115.77C29.1505 115.713 29.2877 115.67 29.4283 115.641L30.6697 115.329C31.7092 115.073 33.2136 114.718 35.0726 114.284C38.7967 113.421 43.9579 112.321 49.694 111.226C55.43 110.131 60.6402 109.324 64.4193 108.78C66.315 108.505 67.8438 108.297 68.9079 108.168L70.1309 108.028C70.2647 108.01 70.3999 108.006 70.5345 108.016Z" fill="#FAFAFA"/>
<path d="M97.4355 9.33447C96.6833 18.3972 108.828 24.8303 107.746 33.8563C107.446 36.3636 106.143 39.0909 107.47 41.2435C109.06 43.8302 112.931 43.2859 115.757 44.405C119.236 45.7809 121.016 49.9698 120.49 53.6695C119.964 57.3692 117.567 60.5675 114.748 63.0319C110.297 66.9228 104.734 69.3128 98.8481 69.8625C96.1207 70.1071 93.271 69.9114 90.8372 68.6395C88.4034 67.3675 86.4771 64.9153 86.4648 62.1757" fill="#263238"/>
<path d="M98.6341 81.3901C97.0197 73.6544 95.4603 65.4906 95.4603 65.4906C95.4603 65.4906 105.067 61.7237 104.376 48.3009C103.722 35.4957 95.6193 7.32914 95.6193 7.32914C80.0562 4.52228 63.906 12.0073 56.1152 25.6747L70.2596 88.2574C71.8985 95.5223 79.4324 99.8763 87.217 98.0845C95.0628 96.2133 100.169 88.7589 98.6341 81.3901Z" fill="#FFBE9D"/>
<path d="M96.6708 30.4505C96.7651 30.8838 96.6869 31.3368 96.4529 31.7135C96.2189 32.0902 95.8474 32.361 95.4172 32.4685C95.2088 32.5307 94.9901 32.5505 94.7739 32.5267C94.5578 32.5029 94.3486 32.436 94.1587 32.3299C93.9689 32.2239 93.8022 32.0809 93.6686 31.9093C93.535 31.7377 93.4371 31.5411 93.3808 31.3311C93.2837 30.901 93.3567 30.4501 93.5847 30.0727C93.8127 29.6954 94.178 29.421 94.6039 29.307C94.8146 29.241 95.0365 29.2185 95.2562 29.2407C95.4759 29.263 95.6888 29.3296 95.882 29.4365C96.0752 29.5434 96.2447 29.6884 96.3803 29.8627C96.5159 30.0369 96.6147 30.2369 96.6708 30.4505Z" fill="#263238"/>
<path d="M98.5487 28.7694C98.3897 29.0323 96.9281 28.3658 95.1364 28.7694C93.3447 29.173 92.2195 30.3287 91.981 30.1514C91.8648 30.0719 91.981 29.6377 92.4763 29.0996C93.1306 28.4002 93.9849 27.9197 94.9224 27.7237C95.8528 27.5225 96.8232 27.6232 97.6926 28.0111C98.3408 28.2985 98.6098 28.6532 98.5487 28.7694Z" fill="#263238"/>
<path d="M78.3686 34.6517C78.4657 35.0817 78.3927 35.5327 78.1647 35.91C77.9366 36.2873 77.5714 36.5618 77.1455 36.6758C76.9367 36.737 76.7178 36.7559 76.5016 36.7313C76.2855 36.7067 76.0764 36.6392 75.8867 36.5326C75.6969 36.4261 75.5304 36.2827 75.3969 36.1109C75.2634 35.9391 75.1656 35.7424 75.1092 35.5322C75.0122 35.103 75.0855 34.6528 75.3136 34.2765C75.5417 33.9001 75.9068 33.6269 76.3322 33.5142C76.5406 33.452 76.7593 33.4323 76.9755 33.4561C77.1916 33.4799 77.4008 33.5468 77.5907 33.6528C77.7805 33.7588 77.9472 33.9019 78.0808 34.0734C78.2144 34.245 78.3123 34.4416 78.3686 34.6517Z" fill="#263238"/>
<path d="M80.203 32.9513C80.044 33.2082 78.5824 32.5416 76.7907 32.9513C74.9989 33.361 73.8799 34.5107 73.6353 34.3333C73.5191 34.26 73.6353 33.8197 74.1306 33.2815C74.7876 32.5855 75.6407 32.1057 76.5767 31.9056C77.5093 31.7069 78.4808 31.8075 79.353 32.193C80.0256 32.4804 80.3008 32.829 80.203 32.9513Z" fill="#263238"/>
<path d="M89.7303 44.5397C89.6997 44.4357 90.776 44.0077 92.5311 43.3961C92.9775 43.2494 93.3933 43.072 93.4055 42.7418C93.3368 42.2598 93.1236 41.8099 92.794 41.4515L90.7026 38.2533C87.7673 33.6852 85.5414 29.8938 85.731 29.7776C85.9206 29.6614 88.44 33.2694 91.3692 37.8313L93.4117 41.0601C93.812 41.5547 94.0281 42.1729 94.0232 42.8091C93.9909 42.9842 93.919 43.1496 93.8131 43.2927C93.7071 43.4358 93.5698 43.5527 93.4117 43.6346C93.1736 43.7578 92.9208 43.8502 92.6595 43.9098C90.8861 44.3929 89.7609 44.6375 89.7303 44.5397Z" fill="#263238"/>
<path d="M95.491 65.4904C89.4045 66.8702 83.0548 66.5379 77.1455 64.5303C77.1455 64.5303 83.2607 72.5595 95.9986 68.5908L95.491 65.4904Z" fill="#EB996E"/>
<path d="M89.8888 49.016C89.4565 48.6595 88.9405 48.419 88.3894 48.3174C87.8384 48.2157 87.2705 48.2563 86.7395 48.4351C86.3509 48.5526 85.9904 48.7482 85.6802 49.0101C85.37 49.2719 85.1165 49.5944 84.9355 49.9578C84.7576 50.3062 84.6915 50.7011 84.7462 51.0885C84.8009 51.4759 84.9738 51.837 85.2413 52.1226C85.5942 52.3776 86.0144 52.523 86.4495 52.5404C86.8846 52.5578 87.3152 52.4465 87.6873 52.2204C88.4699 51.7465 89.1515 51.1231 89.6931 50.3858C89.861 50.2073 89.9956 50.0002 90.0906 49.7743C90.1365 49.6604 90.1471 49.5353 90.1209 49.4154C90.0947 49.2954 90.033 49.1861 89.9438 49.1017" fill="#FF6420"/>
<path d="M84.7161 46.8945C85.0097 46.815 85.4255 48.7596 87.3823 49.793C89.3392 50.8265 91.3633 50.1661 91.4367 50.4046C91.4917 50.5208 91.0576 50.8816 90.1831 51.0895C89.0466 51.3485 87.8551 51.1968 86.8198 50.6614C85.8264 50.1516 85.0715 49.2738 84.7161 48.2153C84.4838 47.4387 84.5816 46.9128 84.7161 46.8945Z" fill="#263238"/>
<path d="M63.9245 38.9507C62.4683 38.9476 61.0396 39.3476 59.7968 40.1065C58.56 40.8789 57.6802 42.1105 57.3507 43.531C57.0927 44.974 57.3945 46.4611 58.1946 47.6893C58.9937 48.9056 60.0552 49.9274 61.3011 50.6796C62.1553 51.2816 63.1405 51.6715 64.1753 51.817C64.6932 51.8864 65.2202 51.826 65.7091 51.6414C66.1979 51.4567 66.6333 51.1536 66.976 50.7591" fill="#FFBE9D"/>
<path d="M64.915 47.537C65.0863 47.537 64.6582 48.5215 63.319 48.4481C62.5941 48.3576 61.9345 47.9839 61.4844 47.4085C60.9525 46.7738 60.5514 46.0402 60.3042 45.2499C60.0191 44.4132 60.0429 43.5021 60.3715 42.6815C60.5076 42.3318 60.7223 42.0181 60.9991 41.7646C61.2758 41.5112 61.6072 41.3248 61.9675 41.22C63.2701 40.9142 63.8632 41.7336 63.7226 41.7887C63.5819 41.8437 63.0316 41.5563 62.2244 41.9416C61.4172 42.3268 60.8668 43.5682 61.3438 44.9319C61.8208 46.2956 62.628 47.5186 63.4596 47.6837C64.2913 47.8488 64.8294 47.4391 64.915 47.537Z" fill="#EB996E"/>
<path d="M91.8218 4.46101C92.7663 6.31921 93.0837 8.43329 92.7266 10.4869C92.3694 12.5406 91.3569 14.4234 89.8404 15.8536C86.7339 18.6482 82.2332 19.0457 78.2216 20.2137C74.21 21.3817 69.9111 24.3353 70.0945 28.512C70.2046 31.0437 72.0025 33.4775 71.3543 35.9236C70.6021 38.7916 66.9391 40.0147 65.9056 42.791C64.2484 47.255 70.3147 51.2727 70.0456 56.0242C69.8866 58.8433 67.5017 61.1426 67.2387 63.9739C66.8596 67.9733 70.7855 72.2233 68.6024 75.5928C66.9269 78.1856 63.0254 77.8126 60.1635 76.6874C57.3016 75.5622 54.1706 73.96 51.3026 75.0852C49.5781 75.7579 48.3612 77.2989 46.8263 78.3385C45.4246 79.2899 43.7722 79.804 42.0782 79.8159C40.3842 79.8277 38.7248 79.3368 37.3099 78.4051C35.8951 77.4734 34.7884 76.143 34.13 74.5821C33.4717 73.0212 33.2912 71.3001 33.6114 69.6366C34.0761 67.1905 35.556 65.093 36.7485 62.9099C37.9409 60.7268 38.8888 58.1768 38.1733 55.7979C37.6168 53.9634 36.1859 52.5814 35.0484 51.0526C33.911 49.5238 33.0243 47.5119 33.7581 45.7568C35.0423 42.6687 39.965 42.9377 41.7507 40.1125C44.1967 36.2294 38.5219 31.2883 39.9773 26.9343C41.6284 22.0055 50.3731 22.886 52.0364 17.9572C52.6479 16.1655 52.0364 14.1903 52.2015 12.3068C52.6357 8.02615 57.1548 5.24375 61.4171 4.50381C65.6794 3.76388 70.1312 4.31424 74.314 3.21351C76.6011 2.60199 78.7414 1.5196 80.9918 0.767437C83.2422 0.0152699 85.7372 -0.35776 87.9631 0.46779C90.189 1.29334 91.9685 3.62322 91.5221 5.97145" fill="#263238"/>
<path d="M89.8949 13.646C91.1326 15.7877 92.8441 17.6177 94.8983 18.9957C96.9526 20.3736 99.295 21.263 101.746 21.5958C101.667 18.318 101.495 15.0158 100.609 11.8665C99.722 8.71719 98.0587 5.66571 95.4903 3.66605C92.9219 1.66638 89.2895 0.834719 86.2441 2.02718" fill="#263238"/>
<path d="M105.642 76.5037C106.749 76.6505 112.937 112.95 89.1797 116.98C66.6942 120.802 59.7412 83.5056 59.7412 83.5056C59.7412 83.5056 74.8885 72.3943 105.642 76.5037Z" fill="#FFBE9D"/>
<path d="M92.0293 26.8057C92.1699 27.0687 93.393 26.6773 94.9157 26.5061C96.4383 26.3348 97.7103 26.4205 97.7837 26.133C97.8571 25.8456 96.5606 25.2586 94.7934 25.4665C93.0261 25.6744 91.8886 26.5978 92.0293 26.8057Z" fill="#263238"/>
<path d="M73.8737 29.6184C73.9288 29.5695 73.9227 29.4655 73.8737 29.3004V29.5756C74.7518 29.1294 75.6796 28.7886 76.6378 28.5605C78.3256 28.1936 79.7566 28.5972 79.8727 28.322C79.9217 28.1936 79.6159 27.9061 78.9922 27.7105C78.1673 27.4296 77.2814 27.3789 76.4299 27.5637C75.8664 27.6498 75.3263 27.8498 74.8426 28.1515C74.359 28.4533 73.9419 28.8504 73.6169 29.3187L73.5068 29.5389L73.5986 29.5878C73.7209 29.6551 73.8248 29.6551 73.8737 29.6184Z" fill="#263238"/>
<path d="M63.6119 28.5608C62.2253 28.5777 60.8393 28.4898 59.4658 28.2978C58.0828 28.213 56.7088 28.0188 55.3564 27.7169C56.7431 27.7001 58.1291 27.788 59.5025 27.9798C60.885 28.0695 62.2588 28.2637 63.6119 28.5608Z" fill="#FF6420"/>
<path d="M61.5947 30.8785C60.5648 31.103 59.5057 31.1608 58.4576 31.0498C57.4056 31.0472 56.3609 30.8758 55.3633 30.5422C55.3633 30.4566 56.7637 30.64 58.4759 30.7318C60.1882 30.8235 61.5885 30.7807 61.5947 30.8785Z" fill="#FF6420"/>
<path d="M92.0238 11.8667C91.9992 11.9977 91.9581 12.1251 91.9015 12.2458C91.7521 12.5993 91.5455 12.9258 91.29 13.212C90.2691 14.2088 88.9228 14.8037 87.4985 14.8876C86.5322 14.9956 85.556 14.9792 84.5938 14.8387C83.5604 14.7103 82.4657 14.5207 81.3161 14.4351C80.1219 14.2993 78.9125 14.4309 77.7754 14.8203C76.5919 15.3312 75.5691 16.1532 74.8157 17.1991C73.9779 18.2387 73.2746 19.3517 72.4491 20.3362C72.0422 20.8227 71.5896 21.2691 71.0976 21.6693C70.6141 22.0428 70.0837 22.3512 69.5199 22.5866C68.475 22.9752 67.3931 23.2559 66.2911 23.4244C65.3467 23.5689 64.416 23.7919 63.5087 24.0909C62.1939 24.5036 61.0689 25.3707 60.3349 26.537C60.1082 26.9878 59.9692 27.4775 59.9252 27.9802C59.9077 27.8483 59.9077 27.7146 59.9252 27.5827C59.9639 27.2004 60.0695 26.8278 60.2371 26.482C60.9448 25.2393 62.0856 24.301 63.4414 23.8463C64.3574 23.5295 65.2984 23.2902 66.2544 23.1309C67.3349 22.9578 68.3944 22.6729 69.416 22.2809C70.5192 21.8018 71.4843 21.0532 72.2228 20.1038C73.03 19.1438 73.7272 18.0247 74.5772 16.9668C75.3735 15.889 76.4441 15.0443 77.6776 14.5207C78.8569 14.1216 80.1102 13.99 81.3467 14.1354C83.6888 14.3433 85.7374 14.8998 87.4618 14.6613C88.8512 14.6141 90.1791 14.0769 91.2105 13.1448C91.5463 12.7636 91.8207 12.3324 92.0238 11.8667Z" fill="#455A64"/>
<path d="M40.9919 78.895C41.1764 78.8561 41.3583 78.805 41.5361 78.7421C42.0288 78.516 42.4177 78.1118 42.6246 77.6108C42.9643 76.8192 42.9819 75.9263 42.6735 75.1219C42.38 74.168 41.8113 73.1529 41.3771 71.942C40.2613 69.1201 39.9584 66.042 40.5027 63.0567C40.8745 61.2999 41.6397 59.6503 42.7408 58.2318C43.3317 57.4875 44.0232 56.8289 44.7955 56.275C45.599 55.7269 46.4654 55.2773 47.3761 54.9357C48.2669 54.6179 49.0948 54.1459 49.8222 53.5415C50.1449 53.2338 50.3964 52.8592 50.5591 52.4441C50.7218 52.0289 50.7917 51.5832 50.7639 51.1382C50.66 49.3587 49.6876 47.7259 49.7182 45.9648C49.7351 45.1092 49.9575 44.2703 50.3664 43.5187C50.7461 42.8284 51.2149 42.1911 51.7607 41.623C52.7462 40.6313 53.7962 39.7059 54.9039 38.8528C56.8608 37.2384 58.0777 35.4833 58.4018 34.1013C58.5683 33.3852 58.5683 32.6404 58.4018 31.9243C58.4257 31.9682 58.4423 32.0157 58.4507 32.065C58.4507 32.1567 58.518 32.2973 58.5547 32.4808C58.6437 33.0295 58.625 33.5903 58.4996 34.1319C58.2902 34.986 57.9141 35.7903 57.3928 36.4985C56.7121 37.4336 55.9194 38.2818 55.0323 39.024C53.9433 39.8832 52.9098 40.8105 51.938 41.8003C51.4129 42.3517 50.9607 42.9683 50.5927 43.6349C50.2104 44.3424 50.0009 45.1303 49.9812 45.9342C50.0124 46.7847 50.1712 47.6258 50.452 48.4292C50.7596 49.2909 50.9649 50.1858 51.0636 51.0954C51.0959 51.5855 51.0201 52.0768 50.8415 52.5343C50.6629 52.9919 50.3859 53.4046 50.0301 53.7433C49.2773 54.3752 48.4179 54.868 47.4923 55.1987C46.6038 55.5527 45.7601 56.0105 44.979 56.5624C44.23 57.099 43.5591 57.737 42.9854 58.4581C41.9101 59.8365 41.1597 61.4397 40.7901 63.1484C40.2472 66.081 40.5222 69.1065 41.585 71.8931C42.0009 73.1162 42.5574 74.1129 42.8448 75.1036C42.984 75.5633 43.05 76.0421 43.0405 76.5223C43.0217 76.93 42.9198 77.3296 42.7408 77.6964C42.509 78.2137 42.0861 78.6213 41.5606 78.8339C41.3785 78.8989 41.1836 78.9199 40.9919 78.895Z" fill="#455A64"/>
</svg>
