<svg viewBox="0 0 757 513" xmlns="http://www.w3.org/2000/svg">
<path fill-rule="evenodd" clip-rule="evenodd" d="M649.988 163.196C651.754 164.513 653.337 166.059 654.696 167.792L660.692 166.69L664.682 175.989L659.735 179.562C660.054 181.736 660.081 183.943 659.815 186.124L664.828 189.592L661.065 198.957L655.041 197.987C653.726 199.75 652.178 201.327 650.441 202.676L651.531 208.681L642.223 212.666L638.699 207.685C636.494 207.99 634.257 207.99 632.051 207.685L628.58 212.706L619.273 208.947L620.243 202.929C618.475 201.615 616.891 200.069 615.536 198.333L609.539 199.422L605.55 190.123L610.483 186.55C610.191 184.345 610.191 182.112 610.483 179.907L605.457 176.6L609.22 167.301L615.244 168.257C616.562 166.497 618.109 164.92 619.844 163.568L618.754 157.51L628.062 153.525L631.639 158.453C633.842 158.133 636.078 158.111 638.287 158.387L641.744 153.379L651.119 157.138L650.148 163.156L649.988 163.196ZM639.55 173.225C637.564 172.429 635.386 172.238 633.291 172.678C631.196 173.118 629.279 174.169 627.782 175.697C626.285 177.226 625.275 179.163 624.88 181.265C624.485 183.367 624.723 185.538 625.563 187.505C626.403 189.472 627.808 191.146 629.601 192.315C631.393 193.484 633.492 194.096 635.633 194.073C637.773 194.05 639.859 193.394 641.626 192.187C643.393 190.981 644.762 189.278 645.561 187.293C646.091 185.975 646.356 184.566 646.341 183.146C646.326 181.725 646.031 180.322 645.473 179.015C644.915 177.709 644.104 176.525 643.088 175.532C642.072 174.538 640.87 173.755 639.55 173.225Z" fill="#EBEBEB"/>
<path fill-rule="evenodd" clip-rule="evenodd" d="M93.2853 203.62C96.4732 206.004 99.3304 208.8 101.782 211.936L112.632 209.956L119.799 226.721L110.811 233.23C111.383 237.166 111.423 241.16 110.93 245.106L119.999 251.363L113.204 268.287L102.367 266.441C99.9877 269.632 97.1878 272.487 94.0432 274.929L96.0245 285.769L79.2437 293.009L72.7814 284.082C68.8422 284.651 64.8449 284.696 60.894 284.215L54.6178 293.261L37.6775 286.446L39.4194 275.567C36.2314 273.183 33.3742 270.386 30.9227 267.251L20.0857 269.23L12.9187 252.466L21.8542 246.009C21.2843 242.074 21.2396 238.081 21.7212 234.133L12.666 227.916L19.474 211.006L30.3509 212.759C32.7409 209.573 35.5395 206.715 38.6748 204.257L36.6936 193.378L53.4743 186.217L59.9499 195.144C63.889 194.575 67.8864 194.53 71.8373 195.012L78.1002 185.952L95.0405 192.753L93.2853 203.62ZM74.4302 221.766C70.838 220.323 66.8981 219.977 63.1089 220.771C59.3198 221.566 55.8516 223.465 53.143 226.229C50.4344 228.993 48.6072 232.497 47.8924 236.299C47.1776 240.1 47.6073 244.028 49.1273 247.586C50.6473 251.143 53.1892 254.17 56.4315 256.284C59.6738 258.398 63.4708 259.504 67.3423 259.462C71.2137 259.42 74.9857 258.231 78.1811 256.047C81.3765 253.863 83.8518 250.781 85.2938 247.192C87.2228 242.38 87.1623 237.001 85.1256 232.234C83.0889 227.467 79.2424 223.703 74.4302 221.766Z" fill="#EBEBEB"/>
<path fill-rule="evenodd" clip-rule="evenodd" d="M48.7671 118.76C50.5287 120.078 52.1071 121.624 53.4609 123.357L59.4578 122.267L63.4469 131.566L58.5137 135.14C58.8125 137.344 58.8125 139.578 58.5137 141.782L63.5267 145.249L59.7636 154.548L53.7534 153.578C52.4301 155.343 50.8786 156.924 49.1394 158.281L50.243 164.272L40.9352 168.257L37.3583 163.329C35.1781 163.614 32.9699 163.614 30.7896 163.329L27.3191 168.337L18.0113 164.578L18.982 158.56C17.2173 157.246 15.6385 155.7 14.2881 153.963L8.27792 155.053L4.28885 145.754L9.2353 142.18C8.91381 140.002 8.89144 137.789 9.16882 135.605L4.14258 132.151L7.90561 122.786L13.9291 123.755C15.2477 121.991 16.7948 120.41 18.5299 119.053L17.4395 113.062L26.7474 109.076L30.3242 114.018C32.5267 113.693 34.763 113.666 36.9727 113.938L40.4432 108.93L49.751 112.69L48.7937 118.707L48.7671 118.76ZM38.329 128.79C36.3416 127.991 34.1617 127.798 32.0646 128.236C29.9675 128.673 28.0474 129.722 26.5469 131.25C25.0463 132.778 24.0326 134.715 23.6339 136.818C23.2352 138.921 23.4694 141.095 24.3068 143.065C25.1442 145.035 26.5473 146.713 28.3389 147.887C30.1304 149.06 32.23 149.677 34.3723 149.659C36.5146 149.641 38.6035 148.99 40.3751 147.786C42.1468 146.583 43.5216 144.882 44.3259 142.898C44.8609 141.578 45.1301 140.166 45.1182 138.743C45.1063 137.319 44.8135 135.912 44.2564 134.601C43.6994 133.291 42.8891 132.103 41.872 131.106C40.8549 130.109 39.6509 129.322 38.329 128.79Z" fill="#F0F0F0"/>
<path fill-rule="evenodd" clip-rule="evenodd" d="M170.901 44.9802C176.053 46.8717 180.928 49.4452 185.395 52.6319L198.958 45.7507L215.02 65.0924L205.713 77.1412C208.015 82.1204 209.647 87.3824 210.566 92.7899L225.006 97.5058L222.679 122.533L207.601 124.499C205.707 129.65 203.131 134.525 199.942 138.992L206.829 152.542L187.456 168.589L175.409 159.29C170.436 161.598 165.177 163.233 159.772 164.152L155.051 178.592L130 176.254L128.098 161.217C122.946 159.325 118.072 156.752 113.605 153.565L100.042 160.433L83.9792 141.091L93.287 129.042C90.9846 124.063 89.3526 118.801 88.4336 113.394L73.9932 108.678L76.2403 83.6504L91.3191 81.6843C93.2059 76.5312 95.7727 71.6527 98.9515 67.178L92.0637 53.6415L111.437 37.5942L123.484 46.8931C128.468 44.5807 133.741 42.9497 139.161 42.0444L143.882 27.6045L168.933 29.9824L170.901 45.0466V44.9802ZM153.11 76.3574C147.794 75.8626 142.451 76.9539 137.755 79.4933C133.06 82.0326 129.224 85.9059 126.733 90.6233C124.241 95.3408 123.206 100.69 123.758 105.996C124.31 111.301 126.424 116.324 129.833 120.428C133.243 124.533 137.794 127.535 142.911 129.056C148.029 130.576 153.483 130.547 158.583 128.97C163.684 127.394 168.202 124.342 171.566 120.2C174.93 116.059 176.989 111.013 177.483 105.702C177.813 102.176 177.444 98.62 176.397 95.2367C175.35 91.8534 173.646 88.7094 171.383 85.9842C169.119 83.259 166.341 81.0061 163.205 79.3543C160.07 77.7025 156.639 76.6841 153.11 76.3574Z" fill="#E0E0E0"/>
<path d="M65.7471 459.061C82.3417 448.208 86.5568 427.418 86.384 408.581C86.384 405.446 86.7829 402.152 85.3335 399.362C83.8841 396.572 80.4136 394.619 77.5282 395.868C75.1481 396.904 74.0577 399.588 72.6748 401.793C70.8311 404.745 68.1899 407.117 65.0557 408.634C63.008 409.617 60.4948 410.188 58.5269 409.059C55.8675 407.505 55.5883 403.746 55.6813 400.65C55.8675 394.841 56.0448 389.036 56.2132 383.235C56.4857 380.117 56.2432 376.975 55.4952 373.936C55.0987 372.431 54.3474 371.043 53.3041 369.887C52.2608 368.732 50.9559 367.843 49.4983 367.294C46.5065 366.391 42.7567 368.011 42.0387 371.04C41.8898 372.327 41.8277 373.623 41.8525 374.919C41.8552 375.569 41.6645 376.205 41.3046 376.747C40.9448 377.288 40.432 377.711 39.8314 377.961C39.1778 378.021 38.5197 377.914 37.9194 377.649C37.3191 377.384 36.7964 376.97 36.4008 376.447C33.3734 373.065 30.9209 369.21 29.1407 365.036C27.3632 360.867 25.0956 356.925 22.3858 353.292C19.5137 349.785 15.4847 346.969 10.9638 346.65C6.44283 346.332 1.56286 348.935 0.326242 353.292C-0.910372 357.65 1.56286 362.18 4.31532 365.793C8.38885 371.18 13.2214 375.95 18.6627 379.954C19.7221 380.564 20.5602 381.494 21.0561 382.611C21.6811 384.709 19.6334 386.715 17.5458 387.353C15.1656 388.07 12.6126 387.765 10.1527 387.991C7.69274 388.216 4.98016 389.226 3.99619 391.498C2.66649 394.659 5.2461 398.06 7.839 400.305C13.069 404.823 19.0317 408.417 25.4707 410.932C27.8451 411.642 30.0708 412.776 32.0394 414.28C33.8744 415.927 34.9381 418.757 33.7547 420.922C32.5713 423.087 29.646 423.725 27.2126 423.22C24.8663 422.522 22.5842 421.624 20.3913 420.537C16.0831 418.823 10.4718 418.983 7.59965 422.623C6.71276 423.866 6.13041 425.299 5.89945 426.808C5.6685 428.317 5.7954 429.859 6.26996 431.31C7.26312 434.196 8.8278 436.853 10.8707 439.121C17.5759 447.459 26.3703 453.876 36.3609 457.719C46.3469 461.412 55.668 462.568 65.7604 459.194" fill="#FF6420"/>
<path d="M4.98242 349.188L5.28825 349.493L6.20574 350.33C7.01685 351.074 8.20027 352.163 9.70283 353.611C13.9431 357.692 17.8722 362.084 21.4573 366.749C23.7311 369.685 26.0979 373.019 28.5712 376.633C31.0444 380.246 33.6373 384.152 36.2302 388.336C38.9649 392.694 41.4552 397.199 43.6898 401.833C44.8599 404.237 45.8838 406.761 46.9209 409.325C47.9581 411.889 49.0219 414.493 50.0856 417.136C54.1622 427.007 57.6738 437.102 60.6035 447.371C62.961 455.769 64.5149 464.371 65.2441 473.062C65.7208 478.922 65.6764 484.812 65.1111 490.664C64.8984 492.723 64.6989 494.33 64.5261 495.42C64.4463 495.938 64.3931 496.35 64.3399 496.655C64.331 496.797 64.331 496.939 64.3399 497.08C64.3847 496.946 64.4202 496.808 64.4463 496.668C64.4463 496.363 64.5793 495.951 64.6723 495.433C64.8851 494.357 65.1244 492.776 65.3771 490.691C66.0289 484.828 66.1357 478.918 65.6962 473.036C65.0282 464.31 63.5096 455.67 61.162 447.238C58.2528 436.935 54.7499 426.809 50.6707 416.91C49.5892 414.253 48.5343 411.654 47.506 409.112C46.4555 406.549 45.4184 404.011 44.2483 401.58C41.9917 396.933 39.4791 392.414 36.7222 388.044C34.0628 383.859 31.4832 379.98 29.01 376.367C26.5367 372.754 24.13 369.433 21.8163 366.497C18.1778 361.84 14.1763 357.478 9.84909 353.452C8.31995 352.03 7.09663 350.954 6.25893 350.25L5.31485 349.44C5.10209 349.267 4.99572 349.174 4.98242 349.188Z" fill="#263238"/>
<path d="M44.0498 401.554C44.2078 401.124 44.3193 400.679 44.3823 400.225C44.5684 399.362 44.8078 398.126 45.0604 396.572C45.579 393.477 46.164 389.186 46.7757 384.457C47.3874 379.728 48.0256 375.45 48.5974 372.368C48.8766 370.841 49.116 369.592 49.2888 368.729C49.4089 368.295 49.4803 367.85 49.5016 367.4C49.3002 367.823 49.1528 368.269 49.0628 368.729C48.8234 369.566 48.5176 370.801 48.1852 372.329C47.5203 375.397 46.8555 379.675 46.2039 384.417C45.5524 389.16 45.0604 393.318 44.6615 396.559C44.462 398.007 44.2892 399.216 44.1695 400.225C44.0783 400.662 44.0381 401.108 44.0498 401.554Z" fill="#263238"/>
<path d="M3.61133 393.105C4.13938 393.23 4.67805 393.306 5.22026 393.331C6.25742 393.45 7.77327 393.61 9.62155 393.876C13.3314 394.354 18.4374 395.204 24.0221 396.373C29.6068 397.542 34.6597 398.857 38.2099 399.88C40.0183 400.385 41.4677 400.836 42.465 401.142C42.9769 401.333 43.5071 401.471 44.0473 401.554C43.5617 401.311 43.0596 401.102 42.5447 400.929C41.5608 400.557 40.1247 400.053 38.3296 399.495C34.7527 398.352 29.7398 396.997 24.1418 395.815C19.3621 394.788 14.5336 394.004 9.67473 393.464C7.79987 393.251 6.28402 393.158 5.24685 393.118C4.70352 393.059 4.15556 393.055 3.61133 393.105Z" fill="#263238"/>
<path d="M60.6416 446.481C60.7596 446.335 60.8579 446.174 60.9341 446.003L61.6655 444.568C62.2904 443.319 63.1547 441.499 64.1919 439.254C66.2662 434.711 68.9256 428.348 71.7578 421.294C74.5901 414.24 77.2096 407.85 79.1775 403.281L81.5311 397.861L82.1693 396.386C82.3023 396.041 82.3688 395.855 82.3422 395.855C82.2327 396.004 82.1391 396.164 82.063 396.333L81.3316 397.768C80.6934 399.016 79.8424 400.836 78.8052 403.081C76.7309 407.625 74.0715 413.988 71.2259 421.042C68.3804 428.096 65.7875 434.485 63.8063 439.055C62.8489 441.287 62.0511 443.12 61.4527 444.475L60.8278 445.949C60.743 446.118 60.6804 446.296 60.6416 446.481Z" fill="#263238"/>
<path d="M7.09473 428.042C7.09473 428.042 7.26759 428.149 7.61331 428.281L9.16904 428.826L14.9133 430.819C19.7534 432.493 26.4152 434.884 33.7684 437.541C41.1216 440.197 47.8099 442.522 52.6899 444.103C55.1365 444.9 57.1045 445.511 58.4873 445.91L60.0697 446.361C60.442 446.468 60.6415 446.507 60.6415 446.481C60.4724 446.387 60.2942 446.312 60.1096 446.255L58.5538 445.697L52.8229 443.718C47.9828 442.044 41.321 439.653 33.9678 436.996C26.6146 434.339 19.913 432.001 15.0463 430.42C12.5997 429.637 10.6184 429.012 9.24883 428.614L7.6532 428.162C7.47148 428.104 7.2844 428.064 7.09473 428.042Z" fill="#263238"/>
<path d="M605.349 318.886L525.129 318.514C522.833 318.509 520.561 318.051 518.443 317.166C516.324 316.281 514.402 314.987 512.786 313.357C511.17 311.728 509.892 309.796 509.025 307.672C508.159 305.547 507.721 303.273 507.737 300.979L508.588 100.614C508.6 98.3243 509.064 96.0592 509.953 93.9485C510.841 91.8377 512.138 89.9226 513.768 88.3126C515.398 86.7027 517.33 85.4294 519.452 84.5656C521.575 83.7018 523.848 83.2644 526.14 83.2784L606.36 83.6371C610.987 83.6547 615.418 85.5051 618.681 88.7825C621.944 92.0598 623.773 96.4965 623.766 101.119L622.915 301.497C622.908 303.792 622.448 306.064 621.56 308.181C620.673 310.298 619.377 312.219 617.745 313.834C616.113 315.45 614.178 316.727 612.051 317.594C609.924 318.461 607.647 318.9 605.349 318.886Z" fill="#455A64"/>
<path d="M606.253 90.6113H590.696C590.19 90.6182 589.691 90.7248 589.226 90.925C588.762 91.1252 588.341 91.415 587.989 91.7779C587.637 92.1407 587.36 92.5695 587.174 93.0395C586.989 93.5095 586.897 94.0115 586.906 94.5168V97.3331C586.917 98.3528 586.525 99.3358 585.816 100.069C585.107 100.803 584.137 101.227 583.117 101.252L552.786 101.106C552.277 101.094 551.775 100.981 551.31 100.773C550.845 100.566 550.425 100.268 550.077 99.8972C549.728 99.5263 549.456 99.0898 549.277 98.6132C549.099 98.1365 549.017 97.6291 549.037 97.1205V94.2777C549.054 93.7695 548.971 93.2629 548.792 92.787C548.613 92.3111 548.341 91.8754 547.993 91.5049C547.644 91.1344 547.225 90.8366 546.761 90.6285C546.297 90.4204 545.796 90.3062 545.287 90.2924H539.809H526.192C524.588 90.2837 522.997 90.5908 521.511 91.1963C520.025 91.8017 518.673 92.6936 517.532 93.8211C516.391 94.9486 515.484 96.2895 514.862 97.7673C514.24 99.2452 513.915 100.831 513.906 102.434L513.068 298.017C513.061 301.256 514.342 304.365 516.628 306.662C518.914 308.959 522.02 310.254 525.262 310.265L605.323 310.637C608.564 310.651 611.678 309.381 613.984 307.105C616.289 304.829 617.598 301.733 617.622 298.495L618.447 102.912C618.459 101.304 618.153 99.7083 617.546 98.2181C616.939 96.728 616.043 95.3723 614.91 94.2292C613.777 93.086 612.429 92.1779 610.943 91.557C609.457 90.9361 607.864 90.6147 606.253 90.6113Z" fill="white"/>
<path d="M604.938 223.692H525.715V228.992H604.938V223.692Z" fill="#455A64"/>
<path d="M602.116 244.535C602.116 244.721 585.202 244.88 564.353 244.88C543.503 244.88 526.576 244.721 526.576 244.535C526.576 244.349 543.49 244.19 564.353 244.19C585.216 244.19 602.116 244.349 602.116 244.535Z" fill="#455A64"/>
<path d="M602.116 118.986C602.116 119.186 585.202 119.332 564.353 119.332C543.503 119.332 526.576 119.186 526.576 118.986C526.576 118.787 543.49 118.641 564.353 118.641C585.216 118.641 602.116 118.76 602.116 118.986Z" fill="#455A64"/>
<path d="M602.116 254.179C602.116 254.365 585.202 254.525 564.353 254.525C543.503 254.525 526.576 254.365 526.576 254.179C526.576 253.993 543.49 253.834 564.353 253.834C585.216 253.834 602.116 253.98 602.116 254.179Z" fill="#455A64"/>
<path d="M602.116 263.784C602.116 263.97 585.202 264.129 564.353 264.129C543.503 264.129 526.576 263.97 526.576 263.784C526.576 263.598 543.49 263.438 564.353 263.438C585.216 263.438 602.116 263.624 602.116 263.784Z" fill="#455A64"/>
<path d="M602.116 273.455C602.116 273.641 585.202 273.8 564.353 273.8C543.503 273.8 526.576 273.641 526.576 273.455C526.576 273.269 543.49 273.109 564.353 273.109C585.216 273.109 602.116 273.255 602.116 273.455Z" fill="#455A64"/>
<path d="M602.116 283.086C602.116 283.285 585.202 283.431 564.353 283.431C543.503 283.431 526.576 283.285 526.576 283.086C526.576 282.886 543.49 282.74 564.353 282.74C585.216 282.74 602.116 282.9 602.116 283.086Z" fill="#455A64"/>
<path d="M603.198 294.018C603.198 294.204 586.284 294.364 565.435 294.364C544.585 294.364 527.658 294.204 527.658 294.018C527.658 293.833 544.572 293.673 565.435 293.673C586.298 293.673 603.198 293.819 603.198 294.018Z" fill="#455A64"/>
<path d="M605.999 129.946H526.576V206.715H605.999V129.946Z" fill="#E0E0E0"/>
<path d="M532.736 200.139L554.716 160.632L572.68 185.885L583.597 172.468L599.846 200.139H532.736Z" fill="#FF6420"/>
<path d="M580.336 152.954C580.336 154.084 580 155.188 579.372 156.127C578.744 157.067 577.851 157.799 576.806 158.231C575.761 158.664 574.612 158.777 573.503 158.556C572.393 158.336 571.375 157.792 570.575 156.993C569.775 156.194 569.231 155.176 569.01 154.068C568.79 152.96 568.903 151.812 569.336 150.768C569.768 149.724 570.501 148.832 571.441 148.204C572.382 147.577 573.487 147.242 574.618 147.242C576.133 147.245 577.586 147.848 578.657 148.919C579.729 149.989 580.332 151.44 580.336 152.954Z" fill="#FF6420"/>
<path d="M599.843 200.352C599.843 200.352 599.843 200.246 599.843 200.033C599.843 199.82 599.843 199.515 599.843 199.143C599.843 198.319 599.843 197.177 599.843 195.689C599.843 192.647 599.843 188.237 599.75 182.644C599.75 171.432 599.657 155.465 599.591 136.296L599.91 136.614H532.813C532.72 136.694 533.518 135.897 533.186 136.242V153.512C533.186 159.158 533.186 164.684 533.186 170.051C533.186 180.811 533.186 190.973 533.186 200.325L532.853 199.993L581.374 200.166L595.07 200.246H598.7H599.63H599.963H599.67H598.766H595.203L581.587 200.325L532.853 200.498H532.521V200.166C532.521 190.867 532.521 180.651 532.521 169.891C532.521 164.578 532.521 158.998 532.521 153.352V136.083C532.175 136.415 532.973 135.605 532.906 135.698H600.003H600.136V136.256C600.056 155.518 600.003 171.552 599.963 182.817C599.963 188.369 599.963 192.753 599.883 195.782C599.883 197.243 599.883 198.372 599.883 199.169C599.883 199.528 599.883 199.807 599.883 200.033C599.885 200.141 599.872 200.248 599.843 200.352Z" fill="#455A64"/>
<path d="M188.518 15.3432V192.315C188.518 200.789 195.394 207.658 203.876 207.658L471.463 207.658C479.945 207.658 486.821 200.789 486.821 192.315V15.3432C486.821 6.86937 479.945 0 471.463 0L203.876 0C195.394 0 188.518 6.86937 188.518 15.3432Z" fill="#455A64"/>
<path d="M208.914 6.54907V201.109L458.032 201.109V6.54907L208.914 6.54907Z" fill="white"/>
<path d="M471.82 95.8585C473.398 95.8585 474.94 96.326 476.252 97.2018C477.564 98.0776 478.587 99.3224 479.191 100.779C479.795 102.235 479.953 103.838 479.645 105.384C479.337 106.93 478.577 108.35 477.461 109.465C476.346 110.58 474.924 111.339 473.376 111.646C471.829 111.954 470.225 111.796 468.767 111.193C467.309 110.59 466.063 109.568 465.186 108.257C464.31 106.946 463.842 105.405 463.842 103.829C463.842 101.715 464.682 99.6878 466.179 98.193C467.675 96.6983 469.704 95.8585 471.82 95.8585Z" fill="#263238"/>
<path d="M197.106 74.1788V133.479C197.106 134.374 197.833 135.1 198.729 135.1H198.782C199.678 135.1 200.404 134.374 200.404 133.479V74.1788C200.404 73.2837 199.678 72.5581 198.782 72.5581H198.729C197.833 72.5581 197.106 73.2837 197.106 74.1788Z" fill="#263238"/>
<path d="M401.774 21.1616H322.551V26.462H401.774V21.1616Z" fill="#455A64"/>
<path d="M298.574 112.198H219.351V117.498H298.574V112.198Z" fill="#455A64"/>
<path d="M421.068 40.8754C421.068 41.0746 399.022 41.2207 371.87 41.2207C344.717 41.2207 322.604 41.0746 322.604 40.8754C322.604 40.6761 344.651 40.53 371.87 40.53C399.088 40.53 421.068 40.6894 421.068 40.8754Z" fill="#455A64"/>
<path d="M421.068 52.4459C421.068 52.6318 399.022 52.7913 371.87 52.7913C344.717 52.7913 322.604 52.6318 322.604 52.4459C322.604 52.2599 344.651 52.1005 371.87 52.1005C399.088 52.1005 421.068 52.2466 421.068 52.4459Z" fill="#455A64"/>
<path d="M421.068 64.0031C421.068 64.1891 399.022 64.3485 371.87 64.3485C344.717 64.3485 322.604 64.1891 322.604 64.0031C322.604 63.8171 344.651 63.6577 371.87 63.6577C399.088 63.6577 421.068 63.8171 421.068 64.0031Z" fill="#455A64"/>
<path d="M421.068 75.5603C421.068 75.7596 399.022 75.9057 371.87 75.9057C344.717 75.9057 322.604 75.7596 322.604 75.5603C322.604 75.3611 344.651 75.2149 371.87 75.2149C399.088 75.2149 421.068 75.3743 421.068 75.5603Z" fill="#455A64"/>
<path d="M421.068 87.1043C421.068 87.2902 399.022 87.4496 371.87 87.4496C344.717 87.4496 322.604 87.2902 322.604 87.1043C322.604 86.9183 344.651 86.7589 371.87 86.7589C399.088 86.7589 421.068 86.9316 421.068 87.1043Z" fill="#455A64"/>
<path d="M399.46 98.6881C399.46 98.874 382.241 99.0334 361.006 99.0334C339.77 99.0334 322.551 98.874 322.551 98.6881C322.551 98.5021 339.757 98.3427 361.006 98.3427C382.254 98.3427 399.46 98.5021 399.46 98.6881Z" fill="#455A64"/>
<path d="M349.465 133.041C349.465 133.227 320.531 133.386 284.842 133.386C249.153 133.386 220.219 133.227 220.219 133.041C220.219 132.855 249.153 132.696 284.842 132.696C320.531 132.696 349.465 132.842 349.465 133.041Z" fill="#455A64"/>
<path d="M349.465 142.672C349.465 142.871 320.531 143.017 284.842 143.017C249.153 143.017 220.219 142.871 220.219 142.672C220.219 142.473 249.153 142.327 284.842 142.327C320.531 142.327 349.465 142.486 349.465 142.672Z" fill="#455A64"/>
<path d="M349.465 152.316C349.465 152.502 320.531 152.662 284.842 152.662C249.153 152.662 220.219 152.502 220.219 152.316C220.219 152.13 249.153 151.971 284.842 151.971C320.531 151.971 349.465 152.117 349.465 152.316Z" fill="#455A64"/>
<path d="M349.465 161.947C349.465 162.147 320.531 162.293 284.842 162.293C249.153 162.293 220.219 162.147 220.219 161.947C220.219 161.748 249.153 161.602 284.842 161.602C320.531 161.602 349.465 161.761 349.465 161.947Z" fill="#455A64"/>
<path d="M349.465 171.592C349.465 171.778 320.531 171.937 284.842 171.937C249.153 171.937 220.219 171.778 220.219 171.592C220.219 171.406 249.153 171.246 284.842 171.246C320.531 171.246 349.465 171.406 349.465 171.592Z" fill="#455A64"/>
<path d="M299.641 18.4384H220.219V95.2076H299.641V18.4384Z" fill="#FF6420"/>
<path d="M226.373 88.6452L248.353 49.1381L266.317 74.378L277.234 60.9743L293.483 88.6452H226.373Z" fill="#E0E0E0"/>
<path d="M273.977 41.4466C273.98 42.5769 273.647 43.6826 273.02 44.6237C272.394 45.5648 271.501 46.299 270.457 46.7334C269.412 47.1678 268.262 47.2828 267.152 47.0639C266.042 46.845 265.022 46.302 264.221 45.5037C263.42 44.7053 262.875 43.6876 262.653 42.5791C262.431 41.4707 262.544 40.3215 262.976 39.277C263.408 38.2324 264.141 37.3395 265.082 36.7113C266.022 36.083 267.128 35.7477 268.26 35.7477C269.774 35.7476 271.226 36.3476 272.298 37.416C273.37 38.4844 273.974 39.9339 273.977 41.4466Z" fill="#E0E0E0"/>
<path d="M293.482 88.8578C293.482 88.8578 293.482 88.7382 293.482 88.5389C293.482 88.3397 293.482 88.0209 293.482 87.6489C293.482 86.8253 293.482 85.6696 293.482 84.195C293.482 81.1397 293.482 76.7426 293.402 71.15C293.402 59.9381 293.309 43.9706 293.243 24.8015L293.562 25.1203H226.466C226.373 25.2 227.17 24.4163 226.838 24.7617V33.4362C226.838 36.3056 226.838 39.1617 226.838 41.9779V58.5167C226.838 69.2769 226.838 79.4393 226.838 88.7913L226.506 88.4592L275.026 88.6187L288.709 88.7116H292.339H293.283H293.615H293.323H292.418H288.855L275.239 88.8046L226.506 88.964H226.173V88.6319C226.173 79.333 226.173 69.1175 226.173 58.3573C226.173 52.9817 226.173 47.4687 226.173 41.8185V24.5491C225.827 24.8812 226.625 24.0709 226.559 24.1506H293.655H293.988V24.4827C293.921 43.7314 293.868 59.7787 293.828 71.0437C293.828 76.5965 293.761 80.9803 293.748 84.009C293.748 85.457 293.748 86.6659 293.748 87.3965C293.748 87.7552 293.748 88.0342 293.748 88.26C293.739 88.4857 293.644 88.6995 293.482 88.8578Z" fill="#455A64"/>
<path d="M423.499 122.374H367.293V176.706H423.499V122.374Z" fill="#FF6420"/>
<path d="M371.656 172.057L387.2 144.107L399.925 161.974L407.651 152.476L419.14 172.057H371.656Z" fill="#E0E0E0"/>
<path d="M405.336 138.66C405.336 139.448 405.102 140.219 404.663 140.874C404.225 141.53 403.602 142.04 402.873 142.342C402.144 142.644 401.342 142.723 400.568 142.569C399.794 142.415 399.084 142.035 398.526 141.478C397.968 140.921 397.588 140.211 397.434 139.438C397.28 138.665 397.359 137.863 397.661 137.135C397.963 136.407 398.474 135.784 399.13 135.347C399.786 134.909 400.558 134.675 401.346 134.675C402.404 134.675 403.419 135.095 404.167 135.842C404.915 136.589 405.336 137.603 405.336 138.66Z" fill="#E0E0E0"/>
<path d="M419.14 172.203C419.14 172.203 419.14 172.123 419.14 171.99C419.14 171.857 419.14 171.618 419.14 171.352C419.14 170.768 419.14 170.024 419.14 168.908C419.14 166.756 419.14 163.595 419.14 159.609C419.14 151.639 419.074 140.374 419.021 126.811L419.247 127.036H371.763C371.697 127.036 372.269 126.532 372.029 126.784V138.979C372.029 142.964 372.029 146.865 372.029 150.682C372.029 158.294 372.029 165.481 372.029 172.096L371.803 171.871L406.003 172.123H415.683H418.263H419.154C419.154 172.123 419.087 172.123 418.954 172.123H418.316H415.789L406.149 172.189L371.67 172.309H371.431V172.07C371.431 165.428 371.431 158.268 371.431 150.656V126.957C371.192 127.183 371.763 126.611 371.71 126.678H419.193H419.433V126.904C419.433 140.533 419.34 151.878 419.313 159.848C419.313 163.834 419.313 166.889 419.247 169.028C419.247 170.064 419.247 170.861 419.247 171.432C419.247 171.685 419.247 171.884 419.247 172.043C419.247 172.203 419.154 172.216 419.14 172.203Z" fill="#455A64"/>
<path d="M463.964 228.647H85.733C75.0332 228.647 66.3594 237.313 66.3594 248.002V484.766C66.3594 495.455 75.0332 504.121 85.733 504.121H463.964C474.664 504.121 483.338 495.455 483.338 484.766V248.002C483.338 237.313 474.664 228.647 463.964 228.647Z" fill="#263238"/>
<path d="M48.9277 483.756H500.691V484.221C500.691 490.492 498.197 496.507 493.759 500.941C489.32 505.376 483.3 507.867 477.022 507.867H72.5963C66.319 507.867 60.2988 505.376 55.8601 500.941C51.4214 496.507 48.9277 490.492 48.9277 484.221V483.756Z" fill="#263238"/>
<path d="M470.986 239.593H77.5566V472.226H470.986V239.593Z" fill="#E0E0E0"/>
<path d="M233.741 483.756L239.353 492.67H318.23L323.442 483.756H233.741Z" fill="#455A64"/>
<path d="M452.901 255.096H90.6797V472.146H452.901V255.096Z" fill="#FAFAFA"/>
<path d="M106.143 265.789C106.145 266.391 105.969 266.981 105.636 267.483C105.303 267.984 104.829 268.376 104.273 268.609C103.716 268.841 103.104 268.903 102.512 268.787C101.921 268.671 101.377 268.383 100.95 267.958C100.523 267.533 100.232 266.991 100.113 266.401C99.9946 265.81 100.054 265.198 100.284 264.641C100.514 264.085 100.904 263.609 101.405 263.274C101.906 262.94 102.495 262.761 103.098 262.761C103.903 262.761 104.676 263.079 105.246 263.647C105.817 264.214 106.139 264.985 106.143 265.789Z" fill="#455A64"/>
<path d="M118.535 265.789C118.538 266.392 118.361 266.982 118.028 267.484C117.694 267.986 117.219 268.378 116.662 268.61C116.105 268.842 115.492 268.903 114.9 268.786C114.308 268.669 113.765 268.379 113.338 267.953C112.911 267.527 112.621 266.984 112.504 266.393C112.387 265.801 112.448 265.189 112.681 264.632C112.913 264.076 113.305 263.601 113.808 263.268C114.31 262.935 114.901 262.758 115.504 262.761C116.308 262.761 117.079 263.08 117.647 263.648C118.216 264.216 118.535 264.986 118.535 265.789Z" fill="#455A64"/>
<path d="M130.944 265.789C130.946 266.391 130.77 266.981 130.437 267.483C130.104 267.984 129.629 268.376 129.073 268.609C128.517 268.841 127.905 268.903 127.313 268.787C126.722 268.671 126.178 268.383 125.751 267.958C125.324 267.533 125.033 266.991 124.914 266.401C124.795 265.81 124.855 265.198 125.085 264.641C125.315 264.085 125.705 263.609 126.206 263.274C126.707 262.94 127.296 262.761 127.899 262.761C128.298 262.759 128.694 262.836 129.063 262.987C129.432 263.139 129.768 263.362 130.051 263.643C130.334 263.924 130.558 264.259 130.712 264.627C130.865 264.995 130.944 265.39 130.944 265.789Z" fill="#455A64"/>
<path d="M452.901 279.074C452.901 279.273 371.79 279.419 271.797 279.419C171.804 279.419 90.6797 279.273 90.6797 279.074C90.6797 278.875 171.791 278.728 271.797 278.728C371.803 278.728 452.901 278.888 452.901 279.074Z" fill="#455A64"/>
<path d="M483.338 483.942H66.3594V485.271H483.338V483.942Z" fill="#455A64"/>
<path d="M199.593 384.537H120.37V389.837H199.593V384.537Z" fill="#455A64"/>
<path d="M301.928 311.022H222.705V316.323H301.928V311.022Z" fill="#455A64"/>
<path d="M419.766 330.749C419.766 330.935 375.646 331.095 321.235 331.095C266.824 331.095 222.705 330.935 222.705 330.749C222.705 330.563 266.811 330.391 321.235 330.391C375.66 330.391 419.766 330.55 419.766 330.749Z" fill="#455A64"/>
<path d="M419.766 342.306C419.766 342.492 375.646 342.652 321.235 342.652C266.824 342.652 222.705 342.492 222.705 342.306C222.705 342.12 266.811 341.961 321.235 341.961C375.66 341.961 419.766 342.16 419.766 342.306Z" fill="#455A64"/>
<path d="M419.766 353.864C419.766 354.063 375.646 354.209 321.235 354.209C266.824 354.209 222.705 354.063 222.705 353.864C222.705 353.664 266.811 353.518 321.235 353.518C375.66 353.518 419.766 353.678 419.766 353.864Z" fill="#455A64"/>
<path d="M419.766 365.434C419.766 365.62 375.646 365.779 321.235 365.779C266.824 365.779 222.705 365.62 222.705 365.434C222.705 365.248 266.811 365.075 321.235 365.075C375.66 365.075 419.766 365.235 419.766 365.434Z" fill="#455A64"/>
<path d="M419.766 376.991C419.766 377.177 375.646 377.337 321.235 377.337C266.824 377.337 222.705 377.177 222.705 376.991C222.705 376.805 266.811 376.646 321.235 376.646C375.66 376.646 419.766 376.792 419.766 376.991Z" fill="#455A64"/>
<path d="M299.628 388.549C299.628 388.735 282.408 388.894 261.173 388.894C239.938 388.894 222.705 388.735 222.705 388.549C222.705 388.363 239.991 388.203 261.173 388.203C282.355 388.203 299.628 388.363 299.628 388.549Z" fill="#455A64"/>
<path d="M418.315 410.986C418.315 411.185 389.314 411.331 353.559 411.331C317.803 411.331 288.803 411.185 288.803 410.986C288.803 410.786 317.79 410.64 353.559 410.64C389.328 410.64 418.315 410.8 418.315 410.986Z" fill="#455A64"/>
<path d="M418.315 423.26C418.315 423.446 389.314 423.605 353.559 423.605C317.803 423.605 288.803 423.446 288.803 423.26C288.803 423.074 317.79 422.915 353.559 422.915C389.328 422.915 418.315 423.074 418.315 423.26Z" fill="#455A64"/>
<path d="M418.315 435.535C418.315 435.721 389.314 435.88 353.559 435.88C317.803 435.88 288.803 435.721 288.803 435.535C288.803 435.349 317.79 435.189 353.559 435.189C389.328 435.189 418.315 435.335 418.315 435.535Z" fill="#455A64"/>
<path d="M418.315 447.809C418.315 447.995 389.314 448.155 353.559 448.155C317.803 448.155 288.803 447.995 288.803 447.809C288.803 447.623 317.79 447.464 353.559 447.464C389.328 447.464 418.315 447.61 418.315 447.809Z" fill="#455A64"/>
<path d="M199.794 409.817C199.794 410.003 182.508 410.162 161.233 410.162C139.958 410.162 122.672 410.003 122.672 409.817C122.672 409.631 139.958 409.471 161.233 409.471C182.508 409.471 199.794 409.617 199.794 409.817Z" fill="#455A64"/>
<path d="M199.794 419.448C199.794 419.647 182.508 419.793 161.233 419.793C139.958 419.793 122.672 419.647 122.672 419.448C122.672 419.248 139.958 419.102 161.233 419.102C182.508 419.102 199.794 419.208 199.794 419.448Z" fill="#455A64"/>
<path d="M199.794 429.092C199.794 429.278 182.508 429.437 161.233 429.437C139.958 429.437 122.672 429.278 122.672 429.092C122.672 428.906 139.958 428.747 161.233 428.747C182.508 428.747 199.794 428.906 199.794 429.092Z" fill="#455A64"/>
<path d="M199.794 438.723C199.794 438.922 182.508 439.068 161.233 439.068C139.958 439.068 122.672 438.922 122.672 438.723C122.672 438.524 139.958 438.377 161.233 438.377C182.508 438.377 199.794 438.537 199.794 438.723Z" fill="#455A64"/>
<path d="M199.794 448.434C199.794 448.62 182.508 448.779 161.233 448.779C139.958 448.779 122.672 448.62 122.672 448.434C122.672 448.248 139.958 448.088 161.233 448.088C182.508 448.088 199.794 448.181 199.794 448.434Z" fill="#455A64"/>
<path d="M199.793 293.726H120.37V370.495H199.793V293.726Z" fill="#E0E0E0"/>
<path d="M126.527 363.92L148.507 324.413L166.471 349.666L177.401 336.262L193.637 363.92H126.527Z" fill="#FF6420"/>
<path d="M174.133 316.734C174.133 317.864 173.797 318.969 173.169 319.908C172.541 320.847 171.648 321.579 170.603 322.012C169.558 322.444 168.409 322.557 167.299 322.337C166.19 322.116 165.172 321.572 164.372 320.774C163.572 319.975 163.028 318.957 162.807 317.849C162.587 316.741 162.7 315.592 163.132 314.548C163.565 313.505 164.298 312.612 165.238 311.985C166.179 311.357 167.284 311.022 168.415 311.022C169.931 311.022 171.386 311.624 172.458 312.695C173.53 313.766 174.133 315.219 174.133 316.734Z" fill="#FF6420"/>
<path d="M193.639 364.132C193.633 364.03 193.633 363.928 193.639 363.827C193.639 363.588 193.639 363.295 193.639 362.923C193.639 362.113 193.639 360.957 193.639 359.47C193.639 356.427 193.639 352.03 193.546 346.438C193.546 335.226 193.453 319.258 193.387 300.076L193.706 300.408H126.609C126.516 300.488 127.314 299.691 126.982 300.036V317.306C126.982 322.938 126.982 328.464 126.982 333.844C126.982 344.591 126.982 354.754 126.982 364.106L126.649 363.787L175.17 363.946L188.866 364.039H192.496H193.759C193.759 364.039 193.666 364.039 193.466 364.039H192.562H188.999L175.382 364.132L126.649 364.292H126.33V363.96C126.33 354.661 126.33 344.445 126.33 333.698C126.33 328.318 126.33 322.792 126.33 317.159V299.89L126.716 299.505H193.812H194.144V299.824C194.144 319.086 194.011 335.12 193.972 346.385C193.972 351.951 193.972 356.321 193.892 359.35C193.892 360.811 193.892 361.94 193.892 362.751C193.892 363.109 193.892 363.388 193.892 363.601C193.892 363.813 193.652 364.146 193.639 364.132Z" fill="#455A64"/>
<path d="M278.859 405.127H222.653V459.459H278.859V405.127Z" fill="#E0E0E0"/>
<path d="M227.013 454.81L242.557 426.86L255.282 444.727L263.007 435.229L274.509 454.81H227.013Z" fill="#FF6420"/>
<path d="M260.694 421.414C260.694 422.202 260.46 422.972 260.022 423.628C259.583 424.283 258.96 424.794 258.231 425.096C257.503 425.397 256.7 425.476 255.927 425.322C255.153 425.169 254.442 424.789 253.884 424.232C253.326 423.674 252.946 422.964 252.792 422.191C252.639 421.418 252.718 420.617 253.019 419.889C253.321 419.16 253.833 418.538 254.489 418.1C255.145 417.662 255.916 417.428 256.705 417.428C257.763 417.428 258.777 417.848 259.526 418.596C260.274 419.343 260.694 420.357 260.694 421.414Z" fill="#FF6420"/>
<path d="M274.512 454.969C274.507 454.894 274.507 454.819 274.512 454.744C274.512 454.584 274.512 454.372 274.512 454.106C274.512 453.535 274.512 452.777 274.512 451.662C274.512 449.51 274.512 446.348 274.445 442.429C274.445 434.459 274.445 423.194 274.339 409.631L274.565 409.856H227.068C227.068 409.856 227.574 409.352 227.334 409.604V433.515C227.334 441.127 227.334 448.314 227.334 454.943L227.095 454.704L261.441 454.823L271.121 454.89H273.687H271.161H261.534L227.042 455.009H226.816V454.783C226.816 448.141 226.816 440.968 226.816 433.356C226.816 429.557 226.816 425.638 226.816 421.653V409.484C226.576 409.71 227.135 409.139 227.082 409.205H274.578H274.804V409.431C274.804 423.061 274.711 434.406 274.685 442.389C274.685 446.375 274.685 449.417 274.685 451.555C274.685 452.592 274.685 453.389 274.685 453.96C274.685 454.212 274.685 454.411 274.685 454.571C274.653 454.714 274.595 454.849 274.512 454.969Z" fill="#455A64"/>
<path d="M748.197 484.301L734.9 482.72L731.775 507.615L751.229 510.125L751.521 508.598C752.771 501.77 757.359 473.82 756.534 469.051C755.617 463.737 748.197 484.301 748.197 484.301Z" fill="#FF6420"/>
<path d="M755.38 467.271C755.62 467.271 754.702 476.649 753.333 488.14C751.963 499.631 750.673 508.93 750.434 508.903C750.195 508.877 751.125 499.604 752.482 488.034C753.838 476.463 755.141 467.244 755.38 467.271Z" fill="#263238"/>
<path d="M750.964 483.132C750.831 483.318 750.139 483.052 749.501 482.441C748.863 481.83 748.597 481.113 748.783 480.993C748.969 480.874 749.527 481.259 750.113 481.83C750.698 482.401 751.11 482.972 750.964 483.132Z" fill="#263238"/>
<path d="M752.029 481.644C751.922 481.857 751.138 481.644 750.367 481.06C749.596 480.475 749.17 479.731 749.343 479.598C749.516 479.465 750.167 479.824 750.885 480.369C751.603 480.913 752.149 481.432 752.029 481.644Z" fill="#263238"/>
<path d="M751.243 501.384C751.243 501.491 750.911 501.823 750.246 502.301C749.401 502.876 748.613 503.53 747.892 504.254C747.212 504.973 746.719 505.849 746.456 506.804C746.27 507.548 746.323 508.04 746.19 508.066C746.057 508.093 745.818 507.601 745.858 506.738C745.951 505.605 746.419 504.534 747.188 503.696C747.948 502.903 748.85 502.259 749.847 501.796C750.685 501.424 751.177 501.278 751.243 501.384Z" fill="#263238"/>
<path d="M748.476 482.76C748.689 482.667 749.114 483.158 749.274 483.889C749.433 484.62 749.274 485.217 749.034 485.217C748.795 485.217 748.582 484.686 748.436 484.035C748.29 483.384 748.25 482.853 748.476 482.76Z" fill="#263238"/>
<path d="M747.15 482.972C747.376 482.972 747.496 483.663 747.416 484.513C747.336 485.364 747.057 486.001 746.831 485.948C746.605 485.895 746.472 485.217 746.565 484.42C746.658 483.623 746.911 482.972 747.15 482.972Z" fill="#263238"/>
<path d="M740.091 509.594L666.386 502.128L513.551 505.542L554.186 472.81L656.187 467.921L745.369 480.196L740.091 509.594Z" fill="#263238"/>
<path d="M615.511 489.15C615.511 489.349 601.164 489.495 583.466 489.495C565.768 489.495 551.434 489.349 551.434 489.15C551.434 488.95 565.768 488.804 583.466 488.804C601.164 488.804 615.511 488.964 615.511 489.15Z" fill="#455A64"/>
<path d="M608.383 470.206L613.622 503.138H623.674L616.029 469.848L608.383 470.206Z" fill="black"/>
<path d="M647.289 503.576L645.799 490.292L620.814 492.949L622.743 512.397H624.298C631.239 512.052 659.522 510.165 663.976 508.279C669.003 506.113 647.289 503.576 647.289 503.576Z" fill="#FF6420"/>
<path d="M664.496 506.884C664.496 507.123 655.188 508.358 643.686 509.647C632.185 510.936 622.824 511.786 622.797 511.547C622.77 511.308 632.105 510.085 643.593 508.797C655.082 507.508 664.47 506.698 664.496 506.884Z" fill="#263238"/>
<path d="M648.011 506.246C647.785 506.153 647.892 505.423 648.344 504.665C648.796 503.908 649.421 503.483 649.594 503.629C649.766 503.775 649.501 504.413 649.088 505.104C648.676 505.795 648.251 506.339 648.011 506.246Z" fill="#263238"/>
<path d="M649.724 506.884C649.498 506.884 649.525 506.02 649.924 505.13C650.323 504.24 650.908 503.682 651.107 503.802C651.307 503.922 651.107 504.639 650.708 505.462C650.31 506.286 649.95 507.003 649.724 506.884Z" fill="#263238"/>
<path d="M630.297 510.657C630.217 510.736 629.792 510.431 629.18 509.899C628.428 509.21 627.613 508.592 626.747 508.053C625.888 507.554 624.92 507.276 623.928 507.243C623.17 507.243 622.691 507.389 622.598 507.243C622.505 507.096 622.957 506.778 623.835 506.618C624.977 506.457 626.141 506.691 627.132 507.282C628.077 507.849 628.907 508.588 629.579 509.461C630.137 510.138 630.39 510.577 630.297 510.657Z" fill="#263238"/>
<path d="M647.816 503.736C647.962 503.921 647.576 504.44 646.898 504.772C646.22 505.104 645.568 505.077 645.568 504.851C645.568 504.626 645.981 504.293 646.579 504.001C647.177 503.709 647.683 503.536 647.816 503.736Z" fill="#263238"/>
<path d="M647.289 502.487C647.289 502.726 646.691 502.992 645.853 503.098C645.016 503.204 644.324 503.098 644.311 502.859C644.297 502.62 644.949 502.354 645.747 502.248C646.545 502.142 647.236 502.261 647.289 502.487Z" fill="#263238"/>
<path d="M501.105 351.619L522.38 351.233C522.673 348.776 523.085 339.198 523.085 339.198C523.085 339.198 531.994 338.361 532.645 329.567C533.297 320.773 533.018 300.421 533.018 300.421C528.135 297.959 522.684 296.843 517.226 297.189C511.768 297.535 506.501 299.329 501.969 302.387L500.64 303.317L501.105 351.619Z" fill="#B78876"/>
<path d="M530.078 315.446C529.846 315.199 529.717 314.874 529.717 314.536C529.717 314.198 529.846 313.872 530.078 313.626C530.26 313.432 530.497 313.297 530.757 313.239C531.017 313.181 531.289 313.203 531.536 313.301C531.784 313.399 531.997 313.569 532.146 313.789C532.296 314.01 532.376 314.27 532.376 314.536C532.376 314.802 532.296 315.062 532.146 315.282C531.997 315.503 531.784 315.673 531.536 315.771C531.289 315.869 531.017 315.89 530.757 315.832C530.497 315.774 530.26 315.64 530.078 315.446Z" fill="#263238"/>
<path d="M532.324 313.559C532.178 313.706 531.353 312.988 530.143 312.909C528.933 312.829 528.003 313.4 527.883 313.241C527.763 313.081 527.976 312.895 528.375 312.63C528.918 312.289 529.557 312.13 530.196 312.178C530.834 312.218 531.441 312.465 531.925 312.882C532.324 313.214 532.417 313.493 532.324 313.559Z" fill="#263238"/>
<path d="M518.281 313.759C518.471 313.984 518.581 314.265 518.594 314.56C518.606 314.854 518.521 315.144 518.35 315.385C518.18 315.625 517.934 315.802 517.652 315.888C517.37 315.973 517.067 315.963 516.791 315.858C516.602 315.785 516.431 315.671 516.293 315.523C516.155 315.374 516.052 315.196 515.993 315.002C515.934 314.809 515.92 314.604 515.953 314.404C515.985 314.204 516.063 314.014 516.18 313.848C516.298 313.683 516.451 313.546 516.63 313.45C516.808 313.353 517.006 313.298 517.209 313.289C517.411 313.281 517.613 313.318 517.799 313.4C517.985 313.481 518.15 313.604 518.281 313.759Z" fill="#263238"/>
<path d="M519.024 313.812C518.878 313.958 518.053 313.241 516.83 313.161C515.607 313.081 514.702 313.652 514.569 313.493C514.436 313.334 514.662 313.148 515.075 312.882C515.617 312.54 516.254 312.382 516.894 312.43C517.533 312.478 518.14 312.729 518.625 313.148C519.024 313.466 519.144 313.759 519.024 313.812Z" fill="#263238"/>
<path d="M523.338 324.134C523.977 323.924 524.647 323.825 525.319 323.841C525.638 323.841 525.904 323.762 525.931 323.602C525.963 323.282 525.903 322.96 525.758 322.672L524.947 320.148C524.166 317.996 523.605 315.771 523.271 313.506C524.27 315.559 525.054 317.709 525.612 319.923C525.878 320.799 526.117 321.636 526.37 322.46C526.551 322.879 526.584 323.348 526.463 323.788C526.408 323.907 526.327 324.012 526.225 324.095C526.124 324.178 526.005 324.236 525.878 324.267C525.697 324.291 525.513 324.291 525.332 324.267C524.665 324.333 523.991 324.288 523.338 324.134Z" fill="#263238"/>
<path d="M519.307 325.236C518.084 324.399 522.671 327.295 525.157 327.321C524.703 327.934 524.057 328.376 523.321 328.576C522.585 328.776 521.803 328.723 521.102 328.424C518.523 327.295 519.307 325.236 519.307 325.236Z" fill="white"/>
<path d="M523.136 339.065C519.057 338.886 515.122 337.499 511.834 335.08C511.834 335.08 514.161 341.589 523.017 341.337L523.136 339.065Z" fill="#A36957"/>
<path d="M533.659 297.246C534.165 297.23 534.66 297.097 535.106 296.86C535.553 296.622 535.939 296.285 536.235 295.875C536.531 295.465 536.729 294.993 536.813 294.494C536.898 293.996 536.867 293.485 536.723 293C536.58 292.516 536.326 292.07 535.983 291.699C535.64 291.327 535.217 291.039 534.745 290.856C534.273 290.674 533.766 290.601 533.262 290.645C532.758 290.689 532.27 290.848 531.837 291.109C532.894 290.24 533.755 289.158 534.364 287.934C534.656 287.319 534.753 286.629 534.642 285.957C534.53 285.284 534.215 284.663 533.739 284.175C533.184 283.794 532.536 283.571 531.864 283.528C531.192 283.486 530.521 283.627 529.922 283.936C528.048 284.746 526.572 286.327 524.604 286.991C522.636 287.655 520.535 287.323 518.474 287.416C516.177 287.46 513.952 288.227 512.118 289.608C511.215 290.306 510.489 291.205 509.997 292.234C509.505 293.263 509.261 294.393 509.286 295.533C506.4 295.187 503.209 295.148 500.935 296.941C500.021 297.754 499.297 298.76 498.817 299.885C498.336 301.01 498.111 302.228 498.156 303.45C498.378 305.891 498.961 308.286 499.885 310.557C500.046 311.223 500.345 311.847 500.762 312.39L501.839 318.714L505.762 318.634L505.509 305.483C505.509 305.483 505.11 299.93 509.897 300.421C514.684 300.913 521.16 306.293 530.454 304.925C531.974 304.845 533.456 304.422 534.789 303.689C535.435 303.283 535.961 302.712 536.311 302.034C536.662 301.357 536.825 300.598 536.784 299.837C536.703 299.084 536.331 298.392 535.748 297.908C535.164 297.424 534.415 297.187 533.659 297.246Z" fill="#263238"/>
<path d="M502.329 311.129C502.129 311.062 495.773 310.238 496.372 317.771C496.97 325.303 504.35 322.181 504.35 321.968C504.35 321.756 502.329 311.129 502.329 311.129Z" fill="#B78876"/>
<path d="M501.851 319.484C501.851 319.484 501.718 319.577 501.505 319.697C501.207 319.854 500.86 319.892 500.535 319.803C500.027 319.534 499.6 319.135 499.296 318.647C498.993 318.16 498.824 317.601 498.806 317.027C498.731 316.385 498.804 315.736 499.019 315.127C499.069 314.886 499.178 314.66 499.336 314.47C499.493 314.28 499.695 314.132 499.923 314.038C500.071 313.987 500.232 313.99 500.378 314.045C500.524 314.101 500.645 314.207 500.721 314.343C500.841 314.542 500.801 314.689 500.841 314.702C500.88 314.715 501 314.569 500.907 314.264C500.856 314.077 500.737 313.916 500.575 313.812C500.468 313.742 500.348 313.694 500.222 313.672C500.097 313.649 499.968 313.651 499.843 313.679C499.525 313.765 499.234 313.933 499.001 314.166C498.768 314.399 498.6 314.689 498.514 315.007C498.241 315.681 498.145 316.412 498.234 317.133C498.249 317.802 498.461 318.451 498.844 319C499.228 319.548 499.765 319.971 500.389 320.215C500.595 320.259 500.809 320.255 501.014 320.205C501.219 320.154 501.41 320.058 501.572 319.923C501.851 319.657 501.878 319.497 501.851 319.484Z" fill="#A36957"/>
<path d="M483.843 482.972C487.832 488.91 512.019 525.283 540.9 498.834C577.692 465.172 606.786 435.681 606.786 435.681L617.716 502.301L651.969 500.441C651.969 500.441 638.672 401.248 630.189 392.228C620.761 382.159 612.092 383.009 538.054 441.38L483.843 482.972Z" fill="#455A64"/>
<path d="M606.361 370.004L638.354 346.677L639.923 349.188L608.143 372.794L606.361 370.004Z" fill="#263238"/>
<path d="M614.277 369.287C614.277 369.287 618.559 358.128 619.596 355.75C620.633 353.372 622.189 349.227 622.801 349.108C623.412 348.988 625.646 349.374 622.801 356.467C619.955 363.561 626.258 359.23 626.258 359.23L632.414 354.82C632.414 354.82 637.281 369.353 634.515 373.737C632.341 377.01 629.899 380.098 627.215 382.969L614.277 369.287Z" fill="#B78876"/>
<path d="M614.632 367.985C613.994 366.537 573.305 402.431 565.208 403.653L541.486 372.794C541.486 372.794 536.566 364.982 525.995 351.619C519.16 342.997 500.332 344.791 495.412 355.298C487.008 373.152 486.902 392.999 482.421 431.616L480.466 457.733C480.045 463.29 480.13 468.875 480.719 474.417C481.437 480.887 482.9 487.702 485.905 486.732L540.17 441.924L541.911 421.573C553.32 433.13 556.87 435.548 562.801 434.618C577.733 432.307 630.004 385.347 630.004 385.347C630.004 385.347 615.257 369.446 614.632 367.985Z" fill="#FF6420"/>
<path d="M622.995 391.87C621.935 391.233 620.957 390.47 620.083 389.598C617.859 387.614 615.775 385.479 613.846 383.208C611.905 380.946 610.128 378.549 608.527 376.035C607.815 375.022 607.213 373.935 606.732 372.794C607.538 373.724 608.271 374.714 608.926 375.756C610.256 377.602 612.118 380.126 614.365 382.757C616.612 385.387 618.793 387.645 620.415 389.239C621.336 390.055 622.198 390.933 622.995 391.87Z" fill="#263238"/>
<path d="M562.908 415.887C562.93 413.807 563.179 411.736 563.653 409.71C563.913 407.646 564.395 405.615 565.089 403.653C565.068 405.733 564.818 407.804 564.344 409.83C564.086 411.895 563.604 413.926 562.908 415.887Z" fill="#263238"/>
<path d="M568.089 414.612C567.267 412.923 566.66 411.138 566.281 409.299C565.693 407.52 565.314 405.678 565.15 403.812C565.972 405.501 566.579 407.286 566.959 409.126C567.544 410.905 567.923 412.746 568.089 414.612Z" fill="#263238"/>
<path d="M509.35 378.214C509.836 378.75 510.281 379.323 510.679 379.927L514.216 384.736C517.208 388.788 521.383 394.367 526.051 400.465L538.084 416.06L541.714 420.803C542.205 421.363 542.65 421.963 543.044 422.596C542.51 422.09 542.017 421.544 541.568 420.962C540.651 419.886 539.361 418.305 537.765 416.366C534.587 412.447 530.239 407 525.572 400.89C520.905 394.779 516.783 389.146 513.897 385.015C512.448 382.956 511.238 381.269 510.52 380.087C510.08 379.495 509.689 378.868 509.35 378.214Z" fill="#263238"/>
<path d="M502.405 404.463C500.999 403.667 499.713 402.674 498.589 401.514C497.311 400.516 496.179 399.344 495.225 398.034C496.639 398.83 497.929 399.827 499.054 400.996C500.335 401.981 501.464 403.149 502.405 404.463Z" fill="#263238"/>
<path d="M497.753 419.434C496.366 422.304 494.575 424.962 492.435 427.325C493.019 425.834 493.821 424.437 494.815 423.18C495.61 421.798 496.6 420.536 497.753 419.434Z" fill="#263238"/>
<path d="M504.295 440.091C504.149 440.211 502.965 439.015 501.636 437.434C500.74 436.533 500.01 435.481 499.481 434.326C499.628 434.206 500.811 435.402 502.141 436.983C503.039 437.882 503.769 438.935 504.295 440.091Z" fill="#263238"/>
<path d="M491.636 453.336C490.797 454.318 489.788 455.141 488.657 455.766C487.654 456.579 486.515 457.209 485.293 457.626C486.132 456.644 487.141 455.821 488.271 455.195C489.275 454.383 490.414 453.753 491.636 453.336Z" fill="#263238"/>
<path d="M509.334 456.842C507.925 456.229 506.704 455.252 505.797 454.013C504.718 452.904 503.951 451.529 503.576 450.028C503.762 449.935 504.733 451.688 506.315 453.535C507.898 455.381 509.453 456.67 509.334 456.842Z" fill="#263238"/>
<path d="M525.836 444.329C524.865 445.599 523.719 446.726 522.432 447.676C521.287 448.793 519.989 449.742 518.576 450.493C519.547 449.222 520.693 448.095 521.98 447.145C523.122 446.025 524.421 445.076 525.836 444.329Z" fill="#263238"/>
<path d="M491.878 468.493C489.606 467.451 487.801 465.605 486.812 463.312C486.971 463.206 487.968 464.481 489.365 465.889C490.761 467.297 491.997 468.36 491.878 468.493Z" fill="#263238"/>
<path d="M528.776 432.493C526.491 433.799 523.857 434.365 521.236 434.113C523.721 433.449 526.237 432.909 528.776 432.493Z" fill="#263238"/>
<path d="M516.49 418.531C516.214 420.15 515.769 421.735 515.16 423.26C514.727 424.794 514.207 426.302 513.604 427.777H513.458C513.458 427.697 513.538 427.67 513.564 427.67C513.591 427.67 513.564 427.67 513.564 427.817H513.418C513.574 426.222 513.922 424.652 514.455 423.141C514.861 421.498 515.549 419.938 516.49 418.531Z" fill="#263238"/>
<path d="M521.685 409.67C520.241 409.068 518.897 408.253 517.696 407.253C516.377 406.44 515.189 405.432 514.172 404.264C515.588 404.879 516.909 405.693 518.094 406.682C519.434 407.493 520.645 408.5 521.685 409.67Z" fill="#263238"/>
<path d="M511.049 390.143C510.647 391.461 509.977 392.682 509.081 393.729C508.362 394.904 507.412 395.92 506.289 396.718C506.885 395.494 507.635 394.351 508.523 393.318C509.217 392.15 510.067 391.082 511.049 390.143Z" fill="#263238"/>
<path d="M494.852 387.486C494.629 385.993 494.629 384.475 494.852 382.983C494.868 381.476 495.11 379.981 495.57 378.546C495.809 380.033 495.809 381.549 495.57 383.036C495.566 384.548 495.323 386.049 494.852 387.486Z" fill="#263238"/>
<path d="M488.538 416.764C488.177 415.175 488.034 413.543 488.113 411.915C487.978 410.295 488.067 408.663 488.379 407.067C488.893 410.275 488.946 413.541 488.538 416.764Z" fill="#263238"/>
<path d="M487.656 444.847C487.052 443.986 486.648 443.001 486.472 441.964C486.08 440.991 485.898 439.945 485.941 438.896C486.955 440.724 487.542 442.759 487.656 444.847Z" fill="#263238"/>
<path d="M510.051 365.58C508.996 366.791 507.849 367.919 506.621 368.954C505.557 370.159 504.397 371.274 503.15 372.289C503.873 370.821 504.892 369.519 506.142 368.463C507.229 367.239 508.56 366.257 510.051 365.58Z" fill="#263238"/>
<path d="M500.544 362.405C500.257 360.958 500.203 359.473 500.385 358.008C500.331 356.533 500.511 355.058 500.917 353.638C501.197 355.087 501.251 356.57 501.076 358.035C501.122 359.51 500.943 360.984 500.544 362.405Z" fill="#263238"/>
<path d="M523.841 359.244C521.342 357.734 518.927 356.089 516.607 354.315C519.406 355.303 521.899 357.002 523.841 359.244Z" fill="#263238"/>
<path d="M518.772 375.822C518.404 374.301 518.256 372.736 518.333 371.173C518.19 369.615 518.275 368.044 518.586 366.51C519.107 369.584 519.17 372.717 518.772 375.809V375.822Z" fill="#263238"/>
<path d="M532.416 385.52C529.732 384.986 527.071 384.348 524.438 383.607C527.228 383.438 530.006 384.104 532.416 385.52Z" fill="#263238"/>
<path d="M533.346 375.636C532.877 373.049 532.877 370.399 533.346 367.812C533.696 369.083 533.826 370.403 533.732 371.718C533.837 373.036 533.706 374.363 533.346 375.636Z" fill="#263238"/>
<path d="M543.748 392.228C543.325 390.621 543.132 388.962 543.177 387.3C542.994 385.65 543.039 383.983 543.31 382.345C543.907 385.604 544.055 388.929 543.748 392.228Z" fill="#263238"/>
<path d="M535.755 397.834C535.608 397.967 534.531 396.984 533.348 395.656C532.164 394.327 531.313 393.132 531.46 392.999C531.606 392.866 532.683 393.849 533.866 395.191C535.05 396.532 535.901 397.715 535.755 397.834Z" fill="#263238"/>
<path d="M545.86 405.486C544.605 405.913 543.289 406.128 541.964 406.124C540.644 406.354 539.294 406.354 537.975 406.124C539.221 405.682 540.535 405.466 541.857 405.486C543.18 405.239 544.537 405.239 545.86 405.486Z" fill="#263238"/>
<path d="M553.466 409.365C552.903 406.481 552.791 403.528 553.133 400.611C553.713 403.492 553.825 406.448 553.466 409.365Z" fill="#263238"/>
<path d="M560.966 423.911C559.371 424.216 557.734 424.216 556.139 423.911C554.518 423.848 552.925 423.473 551.445 422.809C553.046 422.802 554.644 422.944 556.219 423.234C557.82 423.302 559.41 423.529 560.966 423.911Z" fill="#263238"/>
<path d="M573.863 417.203C573.315 420.219 572.31 423.135 570.885 425.851C571.041 424.33 571.431 422.842 572.042 421.44C572.422 419.941 573.037 418.51 573.863 417.203Z" fill="#263238"/>
<path d="M583.162 405.459C580.397 405.17 577.7 404.42 575.184 403.241C577.945 403.547 580.639 404.296 583.162 405.459Z" fill="#263238"/>
<path d="M590.635 409.91C589.844 411.065 588.869 412.083 587.75 412.925C586.777 413.932 585.65 414.78 584.412 415.436C585.195 414.27 586.171 413.246 587.298 412.407C588.27 411.402 589.397 410.559 590.635 409.91Z" fill="#263238"/>
<path d="M593.623 398.924C592.887 397.61 592.435 396.158 592.294 394.659C591.912 393.193 591.848 391.662 592.108 390.169C592.531 391.596 592.82 393.059 592.972 394.54C593.326 395.977 593.544 397.445 593.623 398.924Z" fill="#263238"/>
<path d="M607.854 396.4C605.119 399.127 602.353 401.824 599.557 404.49C601.669 401.196 604.507 398.429 607.854 396.4Z" fill="#263238"/>
<path d="M609.259 391.312C607.732 391.096 606.248 390.648 604.858 389.983C603.382 389.55 601.983 388.891 600.709 388.031C602.23 388.251 603.709 388.699 605.097 389.359C606.573 389.801 607.976 390.459 609.259 391.312Z" fill="#263238"/>
<path d="M607.903 385.852C607.227 384.749 606.754 383.535 606.507 382.265C606.041 381.056 605.794 379.774 605.775 378.479C606.428 379.586 606.879 380.801 607.105 382.066C607.585 383.273 607.855 384.554 607.903 385.852Z" fill="#263238"/>
<path d="M533.469 424.124C533.309 424.243 532.139 422.928 530.969 421.201C530.126 420.22 529.469 419.095 529.027 417.88C530.028 418.698 530.875 419.687 531.527 420.803C532.358 421.792 533.015 422.915 533.469 424.124Z" fill="#263238"/>
<path d="M634.846 491.049C634.79 490.863 634.754 490.672 634.74 490.478C634.687 490.079 634.607 489.522 634.501 488.804C634.314 487.303 634.022 485.138 633.663 482.375C632.905 476.795 631.828 468.705 630.219 458.755C628.61 448.806 626.469 436.996 623.424 424.031C623.112 422.403 622.58 420.825 621.842 419.341C621.006 417.877 619.927 416.565 618.651 415.462C615.942 413.222 612.479 412.101 608.97 412.327C607.18 412.427 605.432 412.902 603.838 413.722C602.237 414.624 600.711 415.655 599.277 416.804L590.129 423.592C577.816 432.825 566.287 441.871 555.995 450.36C545.704 458.848 536.728 466.792 529.215 473.527C525.412 476.795 521.357 479.412 517.248 479.837C515.364 480.051 513.455 479.819 511.677 479.16C510.197 478.603 508.805 477.838 507.541 476.888C505.812 475.575 504.21 474.102 502.755 472.491L501.624 471.243C501.486 471.104 501.362 470.953 501.252 470.791C501.405 470.907 501.543 471.04 501.664 471.189L502.848 472.398C504.344 473.956 505.967 475.387 507.701 476.676C508.958 477.581 510.331 478.314 511.783 478.854C513.521 479.471 515.378 479.676 517.208 479.452C521.197 479.014 525.186 476.423 528.91 473.155C536.369 466.394 545.318 458.357 555.61 449.868C565.902 441.38 577.403 432.267 589.73 423.034L598.878 416.246C600.347 415.077 601.908 414.029 603.545 413.111C605.221 412.247 607.061 411.749 608.944 411.65C612.624 411.418 616.254 412.601 619.089 414.957C620.433 416.111 621.562 417.491 622.427 419.036C623.189 420.571 623.739 422.202 624.062 423.884C627.081 436.89 629.155 448.726 630.711 458.676C632.267 468.625 633.264 476.742 633.942 482.335C634.248 485.111 634.487 487.276 634.66 488.791C634.66 489.508 634.78 490.119 634.82 490.478C634.846 490.667 634.855 490.858 634.846 491.049Z" fill="#263238"/>
<path d="M650.375 490.305C649.944 490.438 649.496 490.509 649.045 490.518C648.181 490.611 646.931 490.717 645.388 490.823C642.29 491.036 638.022 491.262 633.301 491.461L621.214 491.979L617.545 492.112C617.103 492.164 616.657 492.164 616.215 492.112C616.645 491.97 617.092 491.89 617.545 491.873C618.409 491.767 619.659 491.647 621.201 491.514C624.299 491.262 628.568 491.009 633.288 490.797L645.388 490.358L649.058 490.279C649.496 490.233 649.939 490.242 650.375 490.305Z" fill="#263238"/>
<path d="M616.294 425.293C613.267 430.216 609.321 434.514 604.673 437.952C604.54 437.793 607.332 435.203 610.576 431.709C613.821 428.215 616.095 425.173 616.294 425.293Z" fill="#263238"/>
<path d="M617.585 429.331C615.792 430.698 613.899 431.928 611.921 433.011C610.061 434.301 608.105 435.447 606.07 436.438C607.716 434.878 609.557 433.538 611.549 432.453C613.418 431.157 615.447 430.107 617.585 429.331Z" fill="#263238"/>
<path d="M729.614 493.733C729.345 493.762 729.073 493.762 728.803 493.733L726.463 493.6L717.953 492.789L689.91 489.867C678.953 488.725 669.06 487.449 661.866 487.091C658.276 486.905 655.351 486.918 653.343 486.998L651.029 487.091C650.756 487.125 650.479 487.125 650.205 487.091C650.471 487.025 650.743 486.98 651.016 486.958C651.535 486.878 652.346 486.812 653.33 486.719C656.18 486.532 659.038 486.492 661.893 486.599C669.127 486.838 679.033 488.034 689.976 489.176L718.019 492.271L726.516 493.294L728.817 493.6C729.087 493.613 729.355 493.657 729.614 493.733Z" fill="#455A64"/>
<path d="M727.923 508.584C727.736 508.584 728.335 501.942 729.252 493.693C730.17 485.443 731.101 478.868 731.287 478.894C731.473 478.921 730.875 485.536 729.957 493.772C729.04 502.009 728.109 508.598 727.923 508.584Z" fill="#455A64"/>
</svg>
