<svg width="643" height="643" viewBox="0 0 643 643" fill="none" xmlns="http://www.w3.org/2000/svg">
<path d="M57.3701 286.354L98.9465 301.078L88.4656 307.161L59.402 323.763L50.0527 329.126L57.3701 286.354Z" fill="#EBEBEB"/>
<path d="M238.411 514.593L264.311 502.852L207.933 406.788L182.534 429.383L137.833 351.014L113.244 367.667L73.2369 295.536L58.5508 301.747L107.393 398.994L135.132 374.985L177.236 462.446L202.403 435.157L238.411 514.593Z" fill="#EBEBEB"/>
<path d="M611.738 404.601C610.701 411.653 607.595 418.238 602.812 423.523C598.029 428.808 591.786 432.555 584.872 434.289C577.958 436.022 570.686 435.665 563.975 433.262C557.265 430.86 551.418 426.52 547.176 420.791C542.934 415.063 540.488 408.205 540.147 401.086C539.806 393.966 541.585 386.906 545.26 380.798C548.934 374.691 554.339 369.811 560.789 366.778C567.239 363.744 574.444 362.693 581.492 363.758C590.91 365.181 599.382 370.277 605.051 377.933C610.72 385.588 613.124 395.177 611.738 404.601Z" fill="#F5F5F5"/>
<path d="M603.263 403.328C602.47 408.696 600.102 413.707 596.459 417.728C592.816 421.749 588.062 424.598 582.799 425.916C577.536 427.234 572 426.96 566.892 425.13C561.785 423.3 557.335 419.996 554.106 415.636C550.877 411.275 549.015 406.055 548.754 400.636C548.494 395.216 549.847 389.841 552.643 385.192C555.439 380.542 559.551 376.826 564.46 374.514C569.369 372.203 574.853 371.4 580.218 372.207C583.775 372.737 587.192 373.962 590.276 375.813C593.359 377.664 596.047 380.104 598.187 382.994C600.327 385.884 601.877 389.167 602.748 392.656C603.619 396.145 603.794 399.772 603.263 403.328Z" fill="#EBEBEB"/>
<path d="M603.392 402.518C603.199 401.406 603.121 400.277 603.161 399.149C602.988 396.142 602.355 393.18 601.283 390.365C600.536 388.444 599.579 386.611 598.428 384.9C597.111 382.948 595.547 381.176 593.773 379.627C592.82 378.78 591.801 378.01 590.725 377.325C589.62 376.596 588.459 375.955 587.253 375.409C586.006 374.838 584.716 374.365 583.395 373.995C582.036 373.62 580.652 373.345 579.254 373.171C577.85 373.007 576.436 372.952 575.023 373.004C573.65 373.063 572.283 373.222 570.934 373.48C569.621 373.726 568.331 374.079 567.076 374.535C565.873 374.951 564.704 375.459 563.578 376.052C561.492 377.15 559.556 378.512 557.816 380.103C556.303 381.5 554.945 383.057 553.766 384.745C552.075 387.234 550.774 389.966 549.908 392.847C549.687 393.955 549.351 395.037 548.904 396.075C548.732 394.933 548.802 393.768 549.11 392.654C549.706 389.561 550.871 386.605 552.544 383.935C553.701 382.066 555.073 380.34 556.633 378.791C558.433 377.025 560.466 375.515 562.678 374.303C563.87 373.638 565.113 373.066 566.394 372.593C567.734 372.094 569.11 371.699 570.509 371.41C571.958 371.111 573.429 370.931 574.907 370.87C577.946 370.739 580.986 371.1 583.909 371.937C585.327 372.349 586.712 372.869 588.05 373.493C589.346 374.098 590.593 374.804 591.78 375.602C592.915 376.377 593.989 377.237 594.995 378.174C598.495 381.349 601.121 385.37 602.621 389.851C603.615 392.841 604.05 395.988 603.907 399.136C603.974 400.287 603.798 401.439 603.392 402.518Z" fill="#E0E0E0"/>
<path d="M576.783 415.892L576.153 420.625L571.922 420.046L572.552 415.442C568.811 414.814 565.322 413.148 562.482 410.633L565.504 405.797C567.702 407.819 570.388 409.232 573.298 409.9L574.249 402.852C569.71 401.078 564.694 398.801 565.504 392.757C566.109 388.282 569.89 384.874 576.667 385.041L577.297 380.347L581.528 380.926L580.911 385.53C583.909 386.106 586.726 387.389 589.128 389.272L586.312 394.185C584.484 392.76 582.389 391.715 580.152 391.111L579.175 398.287C583.714 400.023 588.665 402.286 587.855 408.241C587.264 412.613 583.534 415.982 576.783 415.892ZM575.098 396.602L575.908 390.597C573.593 390.803 572.539 391.883 572.359 393.297C572.179 394.712 573.311 395.792 575.098 396.641V396.602ZM580.988 407.765C581.181 406.286 580.062 405.321 578.339 404.434L577.541 410.273C579.715 410.131 580.795 409.154 580.988 407.803V407.765Z" fill="#E0E0E0"/>
<path d="M585.631 121.99C584.722 128.124 582.015 133.851 577.85 138.446C573.686 143.04 568.252 146.296 562.236 147.802C556.221 149.307 549.894 148.994 544.056 146.902C538.219 144.81 533.133 141.033 529.443 136.05C525.753 131.066 523.624 125.1 523.325 118.906C523.027 112.712 524.573 106.569 527.768 101.254C530.962 95.9394 535.661 91.6916 541.271 89.0485C546.881 86.4055 553.148 85.486 559.28 86.4064C563.348 87.0117 567.256 88.4123 570.781 90.5284C574.307 92.6445 577.381 95.4344 579.828 98.7389C582.275 102.043 584.047 105.798 585.042 109.787C586.038 113.777 586.238 117.923 585.631 121.99Z" fill="#F5F5F5"/>
<path d="M578.263 120.884C577.575 125.561 575.517 129.929 572.347 133.435C569.177 136.942 565.038 139.429 560.454 140.582C555.87 141.736 551.046 141.504 546.594 139.916C542.142 138.328 538.261 135.454 535.442 131.66C532.623 127.865 530.993 123.32 530.758 118.599C530.523 113.878 531.694 109.193 534.122 105.137C536.55 101.082 540.127 97.8373 544.399 95.8148C548.671 93.7922 553.448 93.0824 558.124 93.7751C561.227 94.2297 564.211 95.292 566.904 96.9012C569.596 98.5103 571.945 100.635 573.816 103.153C575.686 105.671 577.042 108.533 577.805 111.575C578.568 114.618 578.723 117.781 578.263 120.884Z" fill="#EBEBEB"/>
<path d="M578.366 120.138C578.198 119.17 578.129 118.188 578.16 117.206C578.024 114.564 577.473 111.96 576.527 109.49C575.879 107.817 575.046 106.221 574.045 104.732C572.889 103.032 571.524 101.486 569.981 100.128C569.152 99.3946 568.266 98.7281 567.332 98.1346C566.371 97.4969 565.361 96.9378 564.31 96.4628C563.225 95.9497 562.103 95.5198 560.953 95.1768C559.768 94.8507 558.56 94.61 557.34 94.4566C556.114 94.3268 554.881 94.2796 553.649 94.3152C552.456 94.3639 551.27 94.5058 550.1 94.7396C548.961 94.9481 547.842 95.2536 546.756 95.6526C545.713 96.0027 544.698 96.4327 543.721 96.9386C541.903 97.8898 540.217 99.0743 538.706 100.462C537.386 101.679 536.204 103.038 535.182 104.513C533.691 106.675 532.55 109.057 531.8 111.573C531.604 112.535 531.311 113.474 530.925 114.377C530.776 113.381 530.837 112.364 531.105 111.393C531.628 108.703 532.639 106.131 534.089 103.806C535.098 102.192 536.294 100.703 537.651 99.3692C539.223 97.8469 540.997 96.5487 542.924 95.5112C543.961 94.9265 545.045 94.4275 546.164 94.0194C547.326 93.5802 548.522 93.2361 549.739 92.9906C551.011 92.732 552.301 92.5729 553.597 92.5148C554.924 92.466 556.252 92.5133 557.571 92.6563C558.876 92.8234 560.165 93.0899 561.429 93.4536C562.67 93.7862 563.883 94.2162 565.056 94.7396C566.18 95.2628 567.26 95.8779 568.284 96.5785C569.278 97.2371 570.22 97.9723 571.1 98.7776C572.721 100.257 574.136 101.949 575.305 103.806C576.315 105.419 577.131 107.145 577.736 108.95C578.604 111.55 578.988 114.287 578.867 117.026C578.932 118.088 578.761 119.151 578.366 120.138Z" fill="#E0E0E0"/>
<path d="M555.191 131.815L554.638 135.943L550.96 135.442L551.501 131.429C548.236 130.911 545.184 129.485 542.691 127.314L545.328 123.096C547.244 124.855 549.583 126.087 552.118 126.671L552.941 120.524C548.993 118.981 544.62 117 545.328 111.741C545.855 107.883 549.186 104.873 555.05 105.002L555.603 100.912L559.281 101.414L558.741 105.426C561.354 105.922 563.811 107.038 565.904 108.68L563.46 112.962C561.881 111.701 560.067 110.766 558.123 110.21L557.275 116.473C561.236 117.978 565.531 119.958 564.836 125.141C564.309 128.973 561.068 131.905 555.191 131.815ZM553.712 115.097L554.42 109.863C552.414 110.043 551.501 111.008 551.333 112.216C551.166 113.425 552.169 114.325 553.712 115.058V115.097ZM558.856 124.819C559.036 123.533 558.059 122.684 556.554 121.926L555.86 127.07C557.75 126.812 558.689 126.028 558.844 124.742L558.856 124.819Z" fill="#E0E0E0"/>
<path d="M217.822 82.304C220.562 92.2871 220.278 102.859 217.007 112.68C213.735 122.502 207.624 131.133 199.445 137.479C191.266 143.826 181.389 147.603 171.062 148.333C160.736 149.063 150.425 146.713 141.435 141.58C132.444 136.447 125.179 128.762 120.559 119.498C115.938 110.235 114.17 99.808 115.478 89.5388C116.786 79.2695 121.111 69.6192 127.906 61.8093C134.702 53.9995 143.661 48.3813 153.651 45.6659C160.27 43.8579 167.181 43.3714 173.988 44.2342C180.795 45.097 187.366 47.2922 193.325 50.6943C199.284 54.0965 204.514 58.6391 208.717 64.0627C212.921 69.4863 216.015 75.6847 217.822 82.304Z" fill="#F5F5F5"/>
<path d="M205.759 85.5319C207.849 93.1407 207.634 101.199 205.142 108.685C202.649 116.172 197.991 122.75 191.757 127.588C185.523 132.425 177.993 135.303 170.122 135.859C162.251 136.414 154.392 134.621 147.541 130.706C140.69 126.792 135.154 120.933 131.635 113.87C128.116 106.808 126.772 98.8597 127.773 91.0329C128.775 83.206 132.076 75.8523 137.259 69.903C142.443 63.9537 149.275 59.6764 156.891 57.6128C167.073 54.854 177.934 56.2433 187.093 61.4763C196.253 66.7094 202.965 75.3595 205.759 85.5319Z" fill="#EBEBEB"/>
<path d="M205.478 84.323C205.246 84.4002 204.629 82.7541 203.202 79.9763C201.214 76.0928 198.637 72.5401 195.563 69.444C191.018 64.8666 185.425 61.4675 179.269 59.5418C177.509 58.976 175.707 58.5461 173.881 58.2558C171.981 57.9339 170.059 57.7619 168.133 57.7414C166.137 57.7134 164.142 57.8381 162.165 58.1143C160.135 58.3943 158.127 58.8241 156.16 59.4003C154.207 60.0381 152.303 60.816 150.463 61.728C148.674 62.6035 146.954 63.6137 145.319 64.7501C143.737 65.8475 142.24 67.0641 140.844 68.3895C139.495 69.6559 138.24 71.0184 137.088 72.4661C134.952 75.1495 133.172 78.0974 131.79 81.2366C130.588 83.9796 129.695 86.8479 129.128 89.7885C128.316 94.0919 128.177 98.4954 128.717 102.841C129.09 105.941 129.501 107.651 129.27 107.715C129.038 107.78 128.305 106.172 127.546 103.047C126.516 98.586 126.328 93.9714 126.993 89.4413C127.445 86.2941 128.27 83.2117 129.45 80.2593C130.82 76.8565 132.646 73.6552 134.877 70.7429C136.073 69.1574 137.393 67.6696 138.825 66.2933C140.304 64.8406 141.899 63.5116 143.596 62.3196C145.35 61.0692 147.204 59.9639 149.138 59.0146C153.117 57.0449 157.392 55.7416 161.793 55.1566C163.923 54.8654 166.073 54.745 168.223 54.7965C170.298 54.8355 172.367 55.0463 174.408 55.4266C176.363 55.7693 178.289 56.2594 180.17 56.8927C183.635 58.0542 186.928 59.6808 189.956 61.728C192.588 63.5134 194.997 65.6073 197.132 67.9651C200.214 71.3477 202.642 75.2719 204.295 79.5391C205.414 82.5098 205.645 84.2716 205.478 84.323Z" fill="#E0E0E0"/>
<path d="M177.931 117.759L179.847 124.433L173.893 126.144L172.028 119.714C166.022 121 159.837 120.833 155.812 119.212L157.007 110.995C161.108 112.386 165.498 112.691 169.752 111.882L166.897 101.928C159.824 102.224 151.799 102.134 149.343 93.6208C147.53 87.2937 150.565 80.5551 159.631 76.7742L157.728 70.1642L163.682 68.4538L165.547 74.8838C169.878 73.8935 174.383 73.9464 178.689 75.0381L177.828 83.2299C174.554 82.4051 171.149 82.239 167.81 82.7413L170.729 92.8749C177.789 92.5277 185.685 92.6435 188.103 101.041C189.955 107.265 186.958 113.94 177.931 117.759ZM164.402 93.1321L162.036 84.6703C159.078 86.2906 158.332 88.3739 158.898 90.3415C159.464 92.3091 161.547 93.0421 164.402 93.1321ZM178.754 104.539C178.162 102.456 176.105 101.825 173.288 101.658L175.642 109.889C178.471 108.371 179.332 106.455 178.754 104.539Z" fill="#E0E0E0"/>
<path d="M101.427 170.472C100.235 176.835 97.1821 182.701 92.6549 187.328C88.1277 191.955 82.3296 195.135 75.9944 196.465C69.6592 197.796 63.0717 197.217 57.0656 194.802C51.0595 192.387 45.9049 188.244 42.2541 182.899C38.6032 177.553 36.6203 171.245 36.5563 164.771C36.4923 158.298 38.35 151.952 41.8944 146.535C45.4387 141.118 50.5104 136.874 56.4675 134.341C62.4247 131.808 68.9994 131.099 75.3597 132.304C79.5778 133.098 83.5982 134.715 87.1912 137.063C90.7842 139.411 93.8795 142.443 96.3002 145.988C98.7208 149.532 100.42 153.519 101.299 157.72C102.179 161.921 102.222 166.254 101.427 170.472Z" fill="#F5F5F5"/>
<path d="M93.7888 169.019C92.8807 173.869 90.5543 178.34 87.1039 181.867C83.6535 185.394 79.2344 187.818 74.4058 188.832C69.5772 189.847 64.5562 189.406 59.9782 187.566C55.4003 185.725 51.4713 182.568 48.6884 178.494C45.9056 174.419 44.394 169.611 44.345 164.677C44.296 159.743 45.7118 154.906 48.4132 150.777C51.1146 146.648 54.9801 143.414 59.5206 141.483C64.0611 139.552 69.0723 139.011 73.9201 139.93C80.4123 141.153 86.1528 144.904 89.8789 150.36C93.605 155.815 95.0114 162.527 93.7888 169.019Z" fill="#EBEBEB"/>
<path d="M93.8785 168.247C93.7386 167.233 93.7084 166.207 93.7885 165.187C93.7388 162.446 93.2615 159.73 92.3739 157.136C91.0834 153.321 88.8754 149.881 85.9439 147.118C85.1087 146.314 84.2099 145.579 83.2561 144.919C82.2771 144.223 81.2452 143.603 80.1698 143.067C79.0553 142.503 77.8988 142.026 76.7104 141.64C75.4857 141.253 74.2351 140.952 72.9682 140.74C71.6906 140.552 70.4015 140.453 69.1102 140.444C67.8657 140.451 66.6235 140.55 65.3936 140.74C64.1999 140.924 63.022 141.2 61.87 141.563C60.7682 141.912 59.6936 142.342 58.655 142.849C55.0134 144.584 51.8489 147.179 49.4344 150.411C47.799 152.606 46.5188 155.045 45.6407 157.638C45.3935 158.634 45.0489 159.603 44.6119 160.531C44.5081 159.473 44.6444 158.405 45.0105 157.406C45.6554 154.62 46.8108 151.978 48.4184 149.613C49.5222 147.966 50.8172 146.455 52.2764 145.112C53.9766 143.579 55.8755 142.281 57.922 141.254C59.0309 140.687 60.1834 140.21 61.3684 139.827C62.5975 139.417 63.8576 139.108 65.1364 138.901C66.4663 138.674 67.8126 138.558 69.1616 138.554C70.5482 138.563 71.9323 138.675 73.3025 138.888C74.6712 139.112 76.021 139.439 77.3406 139.865C78.6062 140.3 79.8359 140.834 81.0185 141.46C82.1715 142.055 83.2765 142.738 84.3235 143.505C85.3272 144.237 86.277 145.041 87.1656 145.91C90.2413 148.918 92.4873 152.67 93.6856 156.802C94.4941 159.549 94.782 162.424 94.5344 165.277C94.5196 166.301 94.2965 167.312 93.8785 168.247Z" fill="#E0E0E0"/>
<path d="M69.29 179.513L68.5441 183.795L64.6861 183.126L65.4063 178.96C62.0197 178.27 58.8983 176.633 56.4043 174.24L59.3235 169.958C61.2505 171.866 63.6384 173.244 66.2551 173.957L67.3739 167.527C63.3101 165.753 58.822 163.515 59.7736 158.049C60.4809 153.999 64.0303 151.041 70.1902 151.401L70.9232 147.17L74.7812 147.826L74.0611 151.992C76.7667 152.623 79.2835 153.888 81.4041 155.683L78.6778 160.043C77.0585 158.688 75.1882 157.665 73.1737 157.033L72.0421 163.463C76.1058 165.2 80.5297 167.424 79.578 172.813C78.9222 176.902 75.4114 179.834 69.29 179.513ZM68.4155 161.959L69.3672 156.532C67.2581 156.648 66.2679 157.612 66.0364 158.872C65.805 160.133 66.8723 161.136 68.4155 161.959ZM73.3795 172.324C73.611 171.038 72.6336 170.074 71.0904 169.212L70.1645 174.484C72.1578 174.382 73.1609 173.533 73.3795 172.324Z" fill="#E0E0E0"/>
<path d="M612.407 458.806L581.17 457.675L586.507 464.413L601.322 482.919L606.08 488.899L612.407 458.806Z" fill="#F5F5F5"/>
<path d="M433.614 562.021L419.609 547.54L481.8 498.929L492.654 520.431L542.525 480.45L554.395 497.823L599.559 460.722L607.623 468.644L550.087 520.007L538.063 496.949L487.51 543.605L478.045 519.068L433.614 562.021Z" fill="#F5F5F5"/>
<path d="M553.031 180.709L511.301 202.931L523.389 207.715L556.825 220.678L567.589 224.87L553.031 180.709Z" fill="#E0E0E0"/>
<path d="M397.463 451.412L368.143 443.104L412.612 332.315L443.129 352.21L478.031 262.048L506.735 275.783L537.663 192.977L554.227 197.208L517.923 308.061L484.706 287.022L453.996 386.417L422.978 361.495L397.463 451.412Z" fill="#E0E0E0"/>
<path d="M613.961 608.895C613.961 609.088 481.773 609.243 318.734 609.243C155.695 609.243 23.4688 609.088 23.4688 608.895C23.4688 608.703 155.631 608.561 318.734 608.561C481.838 608.561 613.961 608.715 613.961 608.895Z" fill="#263238"/>
<path d="M367.024 608.6H398.75V556.684H367.024V608.6Z" fill="#FF6420"/>
<path d="M494.944 608.6H526.67V520.521H494.944V608.6Z" fill="#FF6420"/>
<path d="M558.909 608.587H590.635V576.591H558.909V608.587Z" fill="#FF6420"/>
<path d="M430.978 608.587H462.703V532.005H430.978V608.587Z" fill="#FF6420"/>
<path d="M303.06 608.6H334.785V513.178H303.06V608.6Z" fill="#FF6420"/>
<path d="M239.106 608.587H270.832V485.838H239.106V608.587Z" fill="#FF6420"/>
<path d="M175.153 608.6H206.879L206.879 455.424H175.153L175.153 608.6Z" fill="#FF6420"/>
<path d="M111.177 608.587H142.902L142.902 414.144H111.177L111.177 608.587Z" fill="#FF6420"/>
<path d="M47.2236 608.587H78.9492L78.9492 352.981H47.2236L47.2236 608.587Z" fill="#FF6420"/>
<path d="M535.168 574.186C529.98 564.349 522.289 556.054 512.871 550.139C503.454 544.223 492.643 540.896 481.529 540.493C494.967 525.614 497.617 502.595 489.862 484.102C482.108 465.609 465.042 451.81 445.881 445.869C426.719 439.928 405.771 441.317 386.725 447.464C388.95 433.009 374.482 418.567 360.027 420.818C362.904 418.848 364.937 415.871 365.724 412.474C366.51 409.077 365.993 405.509 364.274 402.476C362.555 399.443 359.76 397.165 356.442 396.094C353.124 395.023 349.525 395.237 346.357 396.692L347.219 290.636H284.205L285.054 396.641C281.865 395.041 278.183 394.728 274.769 395.766C271.356 396.803 268.471 399.112 266.712 402.216C264.952 405.319 264.451 408.98 265.314 412.442C266.176 415.904 268.335 418.902 271.345 420.818C256.89 418.567 242.423 433.009 244.635 447.464C225.55 441.317 204.589 439.915 185.479 445.869C166.369 451.823 149.175 465.596 141.459 484.102C133.743 502.607 136.315 525.614 149.805 540.493C138.689 540.896 127.877 544.224 118.457 550.139C109.038 556.054 101.344 564.349 96.1532 574.186C90.289 585.657 89.7232 602.594 101.143 608.587H530.178C541.585 602.594 541.045 585.657 535.168 574.186Z" fill="#EBEBEB"/>
<path d="M101.105 608.587L99.5748 607.674C98.0992 606.684 96.7959 605.459 95.7168 604.047C94.0344 601.69 92.8967 598.989 92.386 596.138C91.6835 592.225 91.7315 588.215 92.5275 584.32C93.4658 579.395 95.3244 574.692 98.0059 570.457C101.124 565.328 104.985 560.691 109.464 556.697C114.62 552.034 120.501 548.242 126.877 545.47L129.449 544.377L132.123 543.438C133.026 543.113 133.945 542.834 134.875 542.602C135.814 542.345 136.74 542.049 137.705 541.843C141.648 540.957 145.664 540.436 149.703 540.287L149.549 540.622C145.491 536.038 142.321 530.739 140.2 524.997C137.263 516.872 136.223 508.184 137.159 499.596C138.095 491.008 140.983 482.748 145.601 475.447C147.564 472.238 149.829 469.224 152.365 466.445C163.217 454.585 177.603 446.54 193.388 443.503C201.739 441.853 210.275 441.351 218.761 442.011C227.556 442.721 236.238 444.447 244.636 447.155L244.25 447.489C243.751 443.996 244.131 440.434 245.356 437.124C246.64 433.693 248.621 430.564 251.172 427.935C253.724 425.306 256.792 423.233 260.183 421.847C263.72 420.419 267.573 419.962 271.346 420.522L271.114 421.088C268.183 419.069 266.114 416.025 265.316 412.556C264.518 409.087 265.048 405.445 266.803 402.347C268.557 399.25 271.408 396.922 274.794 395.823C278.179 394.724 281.854 394.933 285.093 396.409L284.643 396.705C284.36 362.948 284.077 327.351 283.781 290.7V290.366H347.464V290.636C347.168 327.197 346.873 362.652 346.603 396.641L346.152 396.345C349.392 394.869 353.066 394.66 356.452 395.759C359.837 396.858 362.688 399.186 364.443 402.283C366.197 405.38 366.728 409.022 365.93 412.491C365.132 415.96 363.063 419.004 360.131 421.024L359.9 420.458C363.61 419.911 367.399 420.354 370.882 421.744C374.286 423.11 377.368 425.168 379.936 427.786C382.504 430.405 384.5 433.527 385.8 436.957C387.077 440.321 387.476 443.955 386.957 447.515L386.571 447.181C394.969 444.473 403.651 442.747 412.446 442.037C420.918 441.379 429.441 441.877 437.78 443.516C453.549 446.549 467.926 454.569 478.79 466.394C481.323 469.178 483.592 472.192 485.568 475.396C487.523 478.479 489.176 481.743 490.506 485.143C491.804 488.45 492.781 491.874 493.425 495.367C494.044 498.762 494.367 502.204 494.39 505.655C494.404 512.231 493.273 518.758 491.046 524.945C488.922 530.714 485.738 536.035 481.658 540.634L481.517 540.3C485.56 540.449 489.58 540.97 493.528 541.856C494.48 542.075 495.418 542.37 496.357 542.615C497.289 542.849 498.207 543.132 499.109 543.464L501.797 544.402L504.369 545.495C510.754 548.268 516.645 552.065 521.807 556.735C526.276 560.741 530.133 565.381 533.253 570.508C535.924 574.747 537.778 579.45 538.718 584.371C539.5 588.264 539.54 592.269 538.834 596.177C538.318 599.022 537.18 601.718 535.503 604.073C534.428 605.485 533.124 606.706 531.645 607.686C530.642 608.304 530.115 608.599 530.115 608.599L531.619 607.635C533.054 606.635 534.317 605.41 535.362 604.008C537.009 601.655 538.12 598.968 538.615 596.138C539.295 592.253 539.239 588.274 538.448 584.41C537.499 579.517 535.641 574.845 532.97 570.637C529.851 565.547 525.999 560.945 521.537 556.979C516.394 552.345 510.53 548.579 504.176 545.83L501.604 544.75L498.929 543.824C498.031 543.494 497.117 543.211 496.19 542.975C495.251 542.731 494.325 542.448 493.374 542.229C489.45 541.358 485.456 540.846 481.44 540.699H481.015L481.298 540.377C485.328 535.811 488.472 530.534 490.57 524.817C492.775 518.665 493.889 512.177 493.862 505.642C493.826 502.226 493.504 498.819 492.898 495.457C492.254 491.993 491.276 488.599 489.979 485.324C488.657 481.951 487.016 478.713 485.079 475.653C483.121 472.512 480.883 469.555 478.392 466.818C467.598 455.089 453.32 447.141 437.664 444.146C429.371 442.522 420.896 442.033 412.471 442.693C403.728 443.41 395.098 445.136 386.751 447.837L386.288 447.978L386.353 447.502C386.858 444.033 386.469 440.491 385.221 437.214C383.942 433.883 381.989 430.853 379.484 428.312C376.979 425.772 373.976 423.776 370.664 422.451C367.281 421.088 363.599 420.644 359.99 421.165L358.639 421.384L359.771 420.599C362.555 418.662 364.515 415.755 365.267 412.448C366.018 409.141 365.508 405.672 363.836 402.722C362.164 399.772 359.45 397.552 356.226 396.499C353.002 395.445 349.502 395.633 346.41 397.027L345.96 397.233V396.731C346.23 362.768 346.5 327.287 346.795 290.726L347.13 291.06H284.206L284.54 290.726C284.823 327.377 285.106 362.961 285.376 396.731V397.233L284.913 397.027C281.837 395.686 278.374 395.529 275.19 396.586C272.005 397.643 269.324 399.84 267.66 402.754C265.996 405.668 265.468 409.093 266.177 412.373C266.886 415.653 268.782 418.555 271.5 420.522L272.632 421.306L271.269 421.088C267.622 420.549 263.897 420.993 260.479 422.374C257.121 423.735 254.088 425.79 251.58 428.405C246.603 433.549 243.864 440.674 244.906 447.348L244.983 447.824L244.52 447.682C236.175 444.977 227.544 443.25 218.8 442.538C210.371 441.886 201.892 442.374 193.594 443.991C177.9 447.017 163.6 455.022 152.815 466.818C150.305 469.572 148.054 472.551 146.089 475.717C144.146 478.772 142.51 482.011 141.203 485.388C136.269 498.044 136.077 512.056 140.662 524.842C142.766 530.539 145.905 535.797 149.922 540.351L150.205 540.673H149.767C145.76 540.821 141.774 541.333 137.859 542.203C136.907 542.409 135.981 542.705 135.043 542.949C134.104 543.194 133.204 543.451 132.303 543.785L129.641 544.711L127.069 545.791C120.717 548.531 114.853 552.289 109.708 556.915C105.25 560.888 101.395 565.488 98.2631 570.572C95.594 574.783 93.7318 579.454 92.7718 584.346C91.9778 588.214 91.9167 592.196 92.5918 596.087C93.0817 598.922 94.1927 601.614 95.8454 603.97C96.887 605.382 98.156 606.612 99.6005 607.609L101.105 608.587Z" fill="#263238"/>
<path d="M233.898 145.369L313.257 52.996L389.517 145.369H359.759V296.037H267.373V145.537L233.898 145.369Z" fill="#FF6420"/>
<path d="M610.824 295.484L554.639 312.755L568.283 321.358L606.079 344.879L618.231 352.48L610.824 295.484Z" fill="#FF6420"/>
<path d="M357.276 587.882L323.416 570.958L403.727 446.833L436.34 478.096L500.125 376.759L531.967 400.126L589.181 306.801L608.419 315.79L538.062 441.895L502.427 408.626L441.574 522.142L409.552 484.68L357.276 587.882Z" fill="#FF6420"/>
<g opacity="0.3">
<path d="M390.417 555.886C382.701 550.742 372.747 550.228 363.681 552.028C360.685 552.62 357.367 553.391 354.744 551.835C352.12 550.279 351.246 547.013 350.217 544.119C344.918 529.562 330.387 519.583 315.096 517.036C299.806 514.49 287.537 515.75 273.687 522.656C263.936 527.268 255.616 534.437 249.613 543.399C247.543 546.498 243.775 552.813 243.775 552.813C241.01 554.845 237.345 554.986 233.95 555.539C226.935 556.801 220.437 560.073 215.248 564.959C210.059 569.845 206.401 576.133 204.719 583.06L398.982 579.986C402.634 571.447 398.12 560.992 390.417 555.886Z" fill="black"/>
</g>
<path d="M194.084 595.778C200.154 574.263 224.086 559.5 246.038 563.744C250.655 540.339 273.044 521.756 296.951 521.563C320.858 521.37 343.543 539.567 348.533 562.934C361.714 559.899 375.886 557.648 388.476 562.599C401.066 567.55 410.698 582.314 405.49 594.749" fill="#EBEBEB"/>
<path d="M405.489 594.801C405.489 594.801 405.489 594.672 405.592 594.428C405.695 594.183 405.785 593.823 405.926 593.36C406.141 592.778 406.292 592.175 406.377 591.56C406.572 590.746 406.688 589.915 406.724 589.078C407.006 583.546 405.351 578.089 402.043 573.646C399.789 570.465 396.963 567.731 393.709 565.583C389.858 563.11 385.544 561.447 381.029 560.696C375.908 559.845 370.696 559.689 365.533 560.233C359.826 560.864 354.168 561.878 348.597 563.268H348.301V562.972C345.999 553.049 340.834 544.021 333.447 537.008C325.394 529.217 315.123 524.113 304.049 522.399C297.05 521.386 289.912 521.962 283.165 524.083C270.59 528.057 259.841 536.377 252.841 547.553C249.762 552.539 247.585 558.028 246.411 563.769V564.04H246.128C241.435 563.178 236.631 563.118 231.918 563.859C229.743 564.19 227.594 564.676 225.488 565.313L222.491 566.354C221.488 566.676 220.588 567.177 219.649 567.563C217.888 568.376 216.171 569.282 214.505 570.277L212.203 571.82L211.072 572.579L210.043 573.402L208.037 575.009C207.394 575.536 206.828 576.141 206.236 576.681C205.645 577.221 205.079 577.761 204.565 578.327L203.098 579.999C200.167 583.4 197.766 587.224 195.974 591.341C195.357 592.769 195.035 593.913 194.688 594.659C194.341 595.405 194.264 595.804 194.264 595.804C194.264 595.804 194.675 594.196 195.768 591.277C197.508 587.113 199.876 583.24 202.79 579.793L204.269 578.083C204.783 577.517 205.375 576.99 205.941 576.424C206.506 575.858 207.085 575.266 207.741 574.726L209.747 573.093C210.094 572.81 210.429 572.527 210.789 572.257L211.908 571.485L214.235 569.917C215.924 568.9 217.667 567.977 219.456 567.152C220.395 566.753 221.308 566.239 222.311 565.866L225.346 564.798C227.481 564.145 229.66 563.646 231.866 563.306C236.64 562.528 241.511 562.572 246.27 563.435L245.935 563.667C247.114 557.846 249.317 552.281 252.442 547.231C255.825 541.781 260.128 536.96 265.161 532.983C270.458 528.764 276.475 525.54 282.921 523.466C289.763 521.314 297.003 520.734 304.101 521.769C315.31 523.494 325.705 528.663 333.846 536.558C341.316 543.674 346.53 552.828 348.841 562.882L348.468 562.651C354.076 561.297 359.769 560.322 365.507 559.731C370.72 559.195 375.981 559.372 381.145 560.259C385.731 561.03 390.108 562.737 394.005 565.274C397.287 567.468 400.13 570.255 402.39 573.492C405.708 577.998 407.329 583.532 406.968 589.117C406.911 589.963 406.778 590.802 406.569 591.624C406.461 592.227 406.293 592.817 406.068 593.386C405.901 593.836 405.772 594.183 405.682 594.453C405.633 594.577 405.568 594.693 405.489 594.801Z" fill="#263238"/>
<path d="M284.54 264.736C285.363 316.395 244.198 359.09 192.784 359.9C141.37 360.71 98.9061 319.378 98.0445 267.719C97.1829 216.061 138.373 173.366 189.788 172.555C241.202 171.745 283.717 213.09 284.54 264.736ZM146.707 266.961C146.891 275.768 149.68 284.323 154.721 291.546C159.762 298.77 166.83 304.338 175.033 307.548C183.236 310.759 192.206 311.467 200.812 309.585C209.417 307.702 217.272 303.312 223.385 296.97C229.498 290.628 233.595 282.617 235.159 273.948C236.724 265.279 235.686 256.341 232.175 248.262C228.665 240.183 222.84 233.325 215.436 228.553C208.032 223.781 199.38 221.309 190.572 221.449C178.723 221.676 167.448 226.596 159.223 235.129C150.998 243.662 146.497 255.111 146.707 266.961Z" fill="#E0E0E0"/>
<path d="M284.54 264.736C285.363 316.395 244.198 359.09 192.783 359.9L191.999 311.032C203.878 310.843 215.196 305.942 223.462 297.408C231.728 288.874 236.266 277.406 236.077 265.527C235.887 253.647 230.987 242.33 222.453 234.064C213.919 225.797 202.451 221.26 190.572 221.449L189.787 172.581C241.201 171.732 283.704 213.09 284.54 264.736Z" fill="#455A64"/>
<path d="M192.153 360.569L191.356 310.415H191.999C200.714 310.236 209.181 307.482 216.335 302.501C223.488 297.52 229.008 290.533 232.199 282.421C235.39 274.309 236.11 265.435 234.268 256.914C232.426 248.394 228.104 240.61 221.847 234.541C217.72 230.499 212.831 227.317 207.464 225.18C202.098 223.043 196.36 221.993 190.584 222.092H189.941L189.131 171.938H189.774C214.724 171.619 238.781 181.21 256.668 198.607C274.555 216.004 284.81 239.787 285.182 264.736C286.005 316.755 244.57 359.746 192.796 360.582L192.153 360.569ZM192.654 311.701L193.413 359.283C244.185 358.112 284.719 315.842 283.896 264.762C283.53 240.265 273.507 216.903 256.006 199.759C238.505 182.614 214.942 173.073 190.443 173.211L191.201 220.793C203.063 220.893 214.415 225.625 222.834 233.981C231.254 242.336 236.073 253.652 236.263 265.512C236.452 277.372 231.998 288.837 223.85 297.457C215.702 306.078 204.507 311.171 192.654 311.649V311.701Z" fill="#455A64"/>
<path d="M201.155 367.436C141.009 368.413 93.0153 321.732 92.0508 261.29L148.982 260.376C149.445 289.273 171.436 307.457 200.191 306.994L201.155 367.436Z" fill="#FF6420"/>
<path d="M124.741 262.344C125.101 262.588 119.726 271.037 112.73 281.184C105.734 291.33 99.7541 299.381 99.394 299.188C99.0339 298.995 104.422 290.495 111.418 280.335C118.414 270.176 124.394 262.035 124.741 262.344Z" fill="#263238"/>
<path d="M149.51 267.038C149.87 267.295 141.91 279.474 131.738 294.25C121.566 309.026 113.001 320.793 112.641 320.548C112.281 320.304 120.241 308.126 130.426 293.349C140.611 278.573 149.176 266.794 149.51 267.038Z" fill="#263238"/>
<path d="M161.545 292.359C161.918 292.604 154.742 303.637 145.547 316.986C136.352 330.335 128.598 340.957 128.238 340.713C127.878 340.468 135.041 329.435 144.235 316.086C153.43 302.737 161.185 292.102 161.545 292.359Z" fill="#263238"/>
<path d="M182.508 306.364C182.868 306.608 175.705 317.629 166.51 330.991C157.315 344.352 149.561 354.936 149.175 354.717C148.789 354.499 155.978 343.439 165.186 330.078C174.393 316.716 182.148 306.068 182.508 306.364Z" fill="#263238"/>
<path d="M200.46 324.072C200.833 324.329 194.969 333.447 187.394 344.455C179.82 355.463 173.364 364.234 173.004 363.938C172.644 363.642 178.495 354.563 186.083 343.555C193.67 332.547 200.1 323.879 200.46 324.072Z" fill="#263238"/>
<path d="M497.373 86.3677C497.373 86.3677 502.992 73.4306 503.262 71.3987C503.533 69.3668 502.98 64.8787 501.526 63.6827C500.922 63.0986 500.147 62.7226 499.315 62.6092C498.482 62.4959 497.635 62.6512 496.897 63.0525C496.806 62.2377 496.457 61.4731 495.903 60.8695C495.348 60.266 494.615 59.855 493.81 59.6961C493.49 59.5835 493.147 59.5504 492.811 59.5997C492.475 59.649 492.156 59.7792 491.881 59.9791C491.607 60.179 491.385 60.4426 491.235 60.7472C491.085 61.0519 491.011 61.3885 491.02 61.728C491.038 61.1489 490.853 60.5816 490.496 60.1255C490.138 59.6694 489.632 59.3535 489.065 59.2331C488.321 59.1153 487.558 59.2275 486.879 59.5546C486.879 59.5546 484.14 57.1112 482.301 58.6287C480.462 60.1462 482.584 83.7186 482.584 83.7186L497.373 86.3677Z" fill="#FFBF9D"/>
<path d="M482.25 81.018C482.25 81.018 477.234 72.3889 477.26 70.0355C477.286 67.6822 480.102 62.3195 481.671 61.6765C483.24 61.0335 489.387 59.6061 489.387 59.6061C489.387 59.6061 491.959 61.9852 488.165 64.3386L483.87 66.872C483.87 66.872 490.763 69.1739 490.544 76.2212" fill="#FFBF9D"/>
<path d="M490.544 76.1569C490.434 75.0501 490.219 73.9563 489.901 72.8904C489.447 71.7111 488.76 70.6352 487.882 69.7269C486.722 68.5574 485.323 67.6535 483.78 67.0777L483.201 66.8591L483.728 66.5633L488.1 63.9913C488.847 63.5717 489.438 62.9221 489.785 62.1395C489.908 61.7365 489.915 61.307 489.806 60.9001C489.697 60.4931 489.476 60.125 489.168 59.8375L489.464 59.9147L486.159 60.6991L483.587 61.3807C483.162 61.5093 482.738 61.6251 482.301 61.7665C482.103 61.8273 481.91 61.9003 481.722 61.9851C481.562 62.078 481.411 62.1857 481.272 62.3066C480.196 63.4956 479.327 64.8561 478.7 66.3318C478.366 67.0073 478.087 67.7083 477.864 68.428C477.628 69.0733 477.536 69.7624 477.594 70.447C477.899 71.692 478.33 72.9027 478.88 74.0607C479.857 76.234 480.757 77.9187 481.362 79.1404C481.699 79.7459 481.995 80.3731 482.249 81.0179C481.818 80.4762 481.439 79.8949 481.118 79.2818C480.449 78.1244 479.484 76.4398 478.443 74.2664C477.84 73.0828 477.37 71.8365 477.041 70.5499C476.948 69.7825 477.031 69.0039 477.285 68.2737C477.519 67.5243 477.798 66.7899 478.121 66.0746C478.786 64.5116 479.718 63.0758 480.873 61.8308C481.056 61.6649 481.259 61.5223 481.478 61.4064C481.687 61.3086 481.902 61.2227 482.121 61.1492C482.545 61.0078 482.982 60.8792 483.407 60.7634C484.264 60.5234 485.121 60.2919 485.979 60.069L489.309 59.2845H489.489L489.605 59.4003C490.007 59.7761 490.295 60.2584 490.434 60.7912C490.573 61.3239 490.557 61.8851 490.39 62.4095C489.986 63.3275 489.295 64.09 488.422 64.5829L483.985 67.052V66.5376C485.596 67.1646 487.046 68.1445 488.229 69.4054C489.136 70.3737 489.82 71.5278 490.235 72.7875C490.381 73.2486 490.485 73.7221 490.544 74.2021C490.61 74.5539 490.636 74.912 490.621 75.2695C490.634 75.5674 490.608 75.8657 490.544 76.1569Z" fill="#FF9A6C"/>
<path d="M490.505 61.8951C489.813 64.4046 489.564 67.0161 489.772 69.6111C489.771 70.4842 490.066 71.332 490.608 72.016C490.91 72.308 491.279 72.5216 491.683 72.6382C492.086 72.7547 492.512 72.7707 492.923 72.6847C493.754 72.4855 494.503 72.0367 495.071 71.3987" fill="#FFBF9D"/>
<path d="M495.109 71.5016C495.109 71.5016 494.698 72.3889 493.27 72.9033C492.841 73.0422 492.385 73.0796 491.939 73.0127C491.493 72.9457 491.068 72.7762 490.698 72.5175C490.301 72.1424 489.987 71.6869 489.779 71.1814C489.57 70.676 489.472 70.1319 489.489 69.5854C489.178 66.9633 489.551 64.3053 490.57 61.8694C490.213 64.3991 490.075 66.9549 490.158 69.5083C490.138 69.9649 490.21 70.4209 490.369 70.8494C490.528 71.2779 490.771 71.6702 491.084 72.0031C491.381 72.2183 491.721 72.3675 492.08 72.4407C492.439 72.5139 492.81 72.5094 493.167 72.4275C493.848 72.195 494.5 71.8843 495.109 71.5016Z" fill="#FF9A6C"/>
<path d="M484.989 66.5505C484.663 67.4525 484.591 68.427 484.783 69.3668C484.783 69.9718 484.973 70.5614 485.326 71.0527C485.679 71.544 486.177 71.9124 486.75 72.106C487.728 72.3375 488.988 71.0386 489.567 69.6755" fill="#FFBF9D"/>
<path d="M489.568 69.6755C489.632 69.6755 489.568 70.3185 488.963 71.1286C488.638 71.6223 488.196 72.0285 487.677 72.3118C487.301 72.4601 486.883 72.4601 486.507 72.3118C486.121 72.1834 485.772 71.9627 485.491 71.6688C484.977 71.1255 484.653 70.4309 484.565 69.6883C484.536 69.1229 484.536 68.5562 484.565 67.9908C484.565 66.9748 485.041 66.4605 485.093 66.499C485.144 66.5376 484.977 67.1034 485.093 67.9908L485.273 69.5983C485.378 70.1996 485.655 70.7577 486.07 71.2058C486.282 71.4191 486.536 71.5856 486.816 71.6945C487.051 71.7909 487.314 71.7909 487.549 71.6945C488.009 71.4856 488.417 71.1783 488.745 70.7943C489.208 70.1641 489.465 69.6369 489.568 69.6755Z" fill="#FF9A6C"/>
<path d="M497.361 63.1683C495.946 64.7042 494.918 66.556 494.364 68.5695C494.152 69.0703 494.079 69.6195 494.154 70.1584C494.228 70.6974 494.448 71.206 494.789 71.6302C495.263 71.9473 495.825 72.1068 496.395 72.0861C496.966 72.0653 497.515 71.8653 497.965 71.5144C498.701 71.0526 499.334 70.4444 499.825 69.7277C500.316 69.0109 500.655 68.2008 500.82 67.3478" fill="#FFBF9D"/>
<path d="M500.819 67.3478C500.852 68.2746 500.561 69.1838 499.996 69.9198C499.453 70.7749 498.707 71.4819 497.823 71.9774C497.278 72.2766 496.67 72.4398 496.048 72.4532C495.689 72.4602 495.333 72.3768 495.014 72.2105C494.695 72.0442 494.423 71.8005 494.222 71.5016C493.873 70.909 493.741 70.2133 493.849 69.534C493.922 68.949 494.065 68.3748 494.274 67.8236C494.598 66.9178 495.029 66.0542 495.56 65.2516C495.992 64.4569 496.604 63.7742 497.347 63.2583C497.424 63.3355 496.743 64.0942 495.958 65.4959C495.503 66.3132 495.132 67.175 494.852 68.0679C494.668 68.5783 494.547 69.1096 494.492 69.6497C494.414 70.1798 494.509 70.7209 494.762 71.1929C495.341 72.106 496.666 71.9259 497.527 71.4758C498.339 71.0485 499.043 70.4415 499.585 69.7012C500.064 68.954 500.477 68.1666 500.819 67.3478Z" fill="#FF9A6C"/>
<path d="M427.557 169.225C427.557 169.225 434.527 161.702 437.279 160.017C440.031 158.332 458.163 136.715 460.08 131.03C461.996 125.346 479.781 79.6805 479.37 80.2978C478.958 80.915 501.952 85.1203 501.952 85.1203C501.952 85.1203 484.912 137.846 482.829 143.813C479.074 154.731 460.465 176.838 449.869 190.109C445.342 195.755 439.092 213.836 439.092 213.836L427.557 169.225Z" fill="#263238"/>
<path d="M444.171 197.581C443.825 196.228 443.606 194.846 443.515 193.453C443.219 190.881 442.949 187.332 442.885 183.396C442.821 179.461 442.962 175.886 443.168 173.314C443.22 171.917 443.392 170.528 443.682 169.16C443.781 170.552 443.781 171.948 443.682 173.34C443.592 175.912 443.528 179.461 443.592 183.384C443.656 187.306 443.849 190.842 444.029 193.414C444.178 194.798 444.225 196.191 444.171 197.581Z" fill="#455A64"/>
<path d="M329.215 465.995L319.416 485.966L318.13 490.853C318.13 490.853 324.676 520.521 320.586 523.453L291.42 476.373L298.93 471.64L308.279 451.682L329.215 465.995Z" fill="#455A64"/>
<path d="M291.498 476.373L295.189 474.251L321.77 520.187C321.77 520.187 322.208 522.823 320.665 523.453L291.498 476.373Z" fill="#263238"/>
<path d="M318.926 491.471C318.695 491.599 317.885 490.519 316.483 489.812C315.081 489.104 313.795 489.091 313.757 488.821C313.718 488.551 315.184 488.114 316.856 488.989C318.528 489.863 319.132 491.393 318.926 491.471Z" fill="#263238"/>
<path d="M320.034 497.682C319.854 497.862 318.863 497.103 317.462 496.885C316.06 496.666 314.89 497.065 314.812 496.885C314.735 496.705 315.828 495.727 317.564 496.023C319.301 496.319 320.214 497.476 320.034 497.682Z" fill="#263238"/>
<path d="M316.175 503.906C315.995 503.726 316.895 502.723 318.451 502.62C320.007 502.517 321.139 503.25 321.023 503.456C320.908 503.662 319.853 503.456 318.58 503.546C317.307 503.636 316.355 504.112 316.175 503.906Z" fill="#263238"/>
<path d="M429.163 319.069C428.212 321.333 379.009 396.654 368.914 405.026C358.819 413.398 324.367 482.096 324.367 482.096C324.367 482.096 296.217 468.451 295.587 469.93C294.956 471.409 315.327 421.435 327.479 400.91C339.632 380.386 345.303 372.451 345.303 372.451L369.48 307.984C369.48 307.984 369.982 286.752 373.081 278.496C376.18 270.24 385.285 263.064 385.285 263.064L429.163 319.069Z" fill="#263238"/>
<path d="M384.847 410.092L358.677 411.97C358.677 411.97 351.964 440.635 347.103 441.484L341.342 388.115L381.979 383.434L384.847 410.092Z" fill="#455A64"/>
<path d="M359.101 395.226C358.923 394.721 358.555 394.304 358.075 394.064C357.595 393.824 357.041 393.78 356.529 393.94C356.05 394.148 355.664 394.526 355.446 395C355.228 395.475 355.192 396.013 355.346 396.512C355.548 397.024 355.936 397.44 356.432 397.679C356.928 397.917 357.495 397.96 358.021 397.798C358.506 397.526 358.872 397.082 359.045 396.553C359.219 396.025 359.189 395.45 358.96 394.943" fill="#E0E0E0"/>
<path d="M341.406 388.115L345.521 387.819L349.495 439.092C349.495 439.092 348.775 441.574 347.168 441.484L341.406 388.115Z" fill="#263238"/>
<path d="M359.039 412.806C358.781 412.806 358.537 411.52 357.598 410.337C356.66 409.154 355.554 408.575 355.631 408.318C355.708 408.061 357.174 408.318 358.28 409.771C359.386 411.224 359.27 412.806 359.039 412.806Z" fill="#263238"/>
<path d="M357.508 418.644C357.277 418.722 356.736 417.641 355.592 416.87C354.447 416.098 353.316 415.97 353.303 415.712C353.29 415.455 354.666 415.134 356.068 416.111C357.469 417.088 357.675 418.606 357.508 418.644Z" fill="#263238"/>
<path d="M351.437 422.515C351.36 422.284 352.556 421.782 354.009 422.31C355.462 422.837 356.092 423.981 355.9 424.123C355.707 424.264 354.909 423.583 353.726 423.171C352.543 422.76 351.489 422.772 351.437 422.515Z" fill="#263238"/>
<path d="M364.94 411.674C364.709 411.597 364.94 410.388 364.67 408.897C364.4 407.405 363.847 406.325 364.04 406.17C364.233 406.016 365.249 407.019 365.519 408.742C365.789 410.465 365.223 411.777 364.94 411.674Z" fill="#263238"/>
<path d="M361.931 299.317C361.931 299.317 361.866 324.419 373.26 332.894C384.654 341.369 424.16 373.262 424.16 373.262L361.082 384.038L365.802 413.282C365.802 413.282 450.948 404.691 461.364 401.206C471.781 397.721 479.278 380.09 471.125 367.77C467.023 361.623 424.636 301.361 424.636 301.361L423.35 285.196L369.917 288.566L361.931 299.317Z" fill="#263238"/>
<path d="M365.802 413.282C365.747 413.119 365.708 412.951 365.686 412.78C365.609 412.394 365.519 411.893 365.403 411.263C365.159 409.887 364.824 407.945 364.4 405.45C363.551 400.306 362.33 393.053 360.838 384.077V383.832H361.082L418.669 373.904L424.135 372.966L423.98 373.557C415.094 366.214 406.645 359.295 398.942 353.084L387.985 344.339C384.552 341.626 381.247 339.195 378.52 336.623C374.186 332.659 370.41 328.125 367.294 323.146C366.452 321.795 365.692 320.395 365.017 318.954C364.773 318.465 364.619 318.079 364.516 317.822C364.453 317.696 364.41 317.562 364.387 317.423C364.463 317.541 364.528 317.666 364.58 317.796C364.696 318.053 364.876 318.426 365.133 318.902C365.85 320.31 366.64 321.679 367.499 323.005C370.685 327.905 374.493 332.37 378.829 336.289C381.555 338.797 384.86 341.189 388.307 343.902C391.753 346.616 395.457 349.509 399.315 352.595C407.031 358.794 415.519 365.687 424.405 373.03L424.971 373.493L424.251 373.609L418.785 374.547L361.172 384.308L361.378 384.025C362.78 393.027 363.95 400.332 364.709 405.424C365.082 407.932 365.377 409.887 365.583 411.263C365.673 411.906 365.738 412.407 365.789 412.793C365.811 412.955 365.816 413.119 365.802 413.282Z" fill="#455A64"/>
<path d="M441.175 375.075C441.175 375.268 437.433 374.174 432.752 373.686C428.071 373.197 424.226 373.467 424.213 373.261C425.025 373.011 425.871 372.885 426.721 372.888C428.753 372.763 430.792 372.811 432.816 373.03C434.844 373.234 436.849 373.617 438.809 374.174C439.642 374.342 440.441 374.646 441.175 375.075Z" fill="#455A64"/>
<path d="M402.235 88.734C402.618 87.5886 403.344 86.589 404.315 85.8711C405.286 85.1532 406.455 84.7519 407.662 84.7216C408.875 83.4051 410.495 82.5337 412.263 82.2469C414.03 81.9601 415.842 82.2745 417.41 83.1399C418.345 82.3472 419.469 81.8087 420.672 81.5763C421.876 81.3439 423.119 81.4255 424.282 81.8132C425.445 82.2008 426.489 82.8815 427.312 83.7896C428.136 84.6977 428.711 85.8026 428.984 86.9979C430.169 86.6075 431.445 86.5893 432.64 86.9457C433.836 87.302 434.893 88.0158 435.671 88.9912C436.416 89.9974 436.839 91.2061 436.883 92.4575C436.926 93.709 436.589 94.9442 435.915 95.9999C437.331 96.1894 438.625 96.8976 439.548 97.9873C440.47 99.077 440.955 100.471 440.909 101.898C440.863 103.325 440.288 104.684 439.296 105.711C438.305 106.738 436.967 107.361 435.543 107.458L404.486 95.164C403.493 94.4549 402.745 93.4565 402.342 92.3054C401.939 91.1544 401.902 89.907 402.235 88.734Z" fill="#263238"/>
<path d="M436.596 108.101C435.024 102.187 431.29 97.0781 426.132 93.7848C420.974 90.4915 414.768 89.2535 408.742 90.3157L407.456 90.5343C394.248 93.7493 392.281 106.879 395.882 120.112L406.131 169.752L430.694 184.348L433.651 173.507V155.837C433.651 155.837 446.126 151.504 443.939 138.566C442.846 132.252 439.631 119.598 436.596 108.101Z" fill="#FFBF9D"/>
<path d="M433.716 155.735C427.754 156.818 421.606 156.162 416.008 153.844C416.008 153.844 421.036 163.129 433.626 159.631L433.716 155.735Z" fill="#FF9A6C"/>
<path d="M435.001 120.267C435.097 120.744 435 121.239 434.733 121.646C434.466 122.053 434.05 122.338 433.574 122.44C433.346 122.502 433.108 122.517 432.874 122.486C432.64 122.454 432.414 122.376 432.21 122.257C432.007 122.137 431.829 121.978 431.688 121.788C431.547 121.599 431.445 121.383 431.388 121.154C431.292 120.675 431.388 120.178 431.655 119.769C431.922 119.361 432.338 119.073 432.815 118.968C433.044 118.906 433.283 118.891 433.518 118.924C433.753 118.956 433.979 119.035 434.182 119.156C434.386 119.277 434.564 119.438 434.704 119.628C434.845 119.819 434.946 120.036 435.001 120.267Z" fill="#263238"/>
<path d="M435.246 115.547C435.053 115.83 433.484 115.046 431.517 115.418C429.549 115.791 428.237 117.026 428.019 116.833C427.8 116.64 428.019 116.267 428.597 115.689C429.337 114.935 430.296 114.435 431.337 114.261C432.362 114.07 433.422 114.214 434.359 114.673C435.053 115.02 435.336 115.418 435.246 115.547Z" fill="#263238"/>
<path d="M417.782 124.15C417.878 124.629 417.782 125.126 417.515 125.535C417.248 125.944 416.832 126.232 416.355 126.337C416.127 126.397 415.889 126.411 415.656 126.379C415.422 126.346 415.197 126.268 414.994 126.149C414.791 126.029 414.613 125.87 414.472 125.682C414.33 125.494 414.227 125.279 414.169 125.051C414.073 124.573 414.17 124.078 414.437 123.671C414.704 123.265 415.12 122.979 415.596 122.877C415.823 122.815 416.061 122.799 416.294 122.83C416.527 122.861 416.752 122.937 416.956 123.056C417.159 123.174 417.337 123.332 417.479 123.52C417.621 123.708 417.724 123.922 417.782 124.15Z" fill="#263238"/>
<path d="M416.329 118.698C416.136 118.981 414.567 118.209 412.6 118.569C410.632 118.929 409.359 120.19 409.102 119.984C408.845 119.778 409.102 119.418 409.668 118.839C410.416 118.092 411.377 117.593 412.42 117.412C413.445 117.221 414.505 117.365 415.442 117.823C416.136 118.183 416.419 118.569 416.329 118.698Z" fill="#263238"/>
<path d="M425.486 132.226C426.465 131.704 427.506 131.311 428.586 131.056C429.087 130.915 429.537 130.735 429.563 130.375C429.516 129.843 429.305 129.34 428.959 128.934L426.76 125.346C423.699 120.202 421.384 115.984 421.616 115.856C421.847 115.727 424.47 119.791 427.531 124.858C428.277 126.144 428.997 127.327 429.666 128.484C430.096 129.038 430.319 129.725 430.296 130.426C430.255 130.617 430.172 130.796 430.051 130.95C429.931 131.104 429.777 131.228 429.602 131.313C429.337 131.444 429.056 131.539 428.766 131.596C427.702 131.938 426.601 132.149 425.486 132.226Z" fill="#263238"/>
<path d="M419.929 134.657C420.251 134.58 420.649 136.727 422.758 137.923C424.867 139.119 427.105 138.464 427.169 138.759C427.234 139.055 426.745 139.274 425.78 139.479C424.529 139.721 423.232 139.516 422.115 138.901C421.044 138.295 420.247 137.301 419.891 136.123C419.646 135.236 419.788 134.67 419.929 134.657Z" fill="#263238"/>
<path d="M415.377 113.026C415.236 113.592 413.448 113.438 411.391 113.85C409.333 114.261 407.687 114.994 407.391 114.518C407.25 114.3 407.507 113.76 408.15 113.232C408.975 112.545 409.962 112.08 411.018 111.882C412.074 111.67 413.168 111.75 414.181 112.113C414.966 112.358 415.377 112.769 415.377 113.026Z" fill="#263238"/>
<path d="M433.806 110.197C433.587 110.725 432.134 110.622 430.514 111.033C428.894 111.445 427.633 112.126 427.196 111.741C427.003 111.56 427.093 111.059 427.582 110.455C428.238 109.731 429.097 109.222 430.046 108.993C430.995 108.764 431.992 108.825 432.906 109.169C433.587 109.529 433.896 109.94 433.806 110.197Z" fill="#263238"/>
<path d="M434.281 102.404C434.281 102.404 429.432 94.9325 425.214 93.7622C420.07 92.3219 419.029 97.8774 414.322 97.4273C409.615 96.9772 404.754 95.6012 400.806 99.9093C396.498 104.629 399.327 106.867 400.06 112.654C403.018 136.097 400.06 143.44 396.82 132.715C396.472 131.545 392.962 131.185 391.573 126.208C389.747 119.778 388.049 111.843 388.666 106.918C389.181 102.764 390.904 99.6521 394.363 95.9355C399.803 90.0585 408.445 88.3867 414.425 87.9109C420.405 87.4351 432.982 92.1933 434.281 102.404Z" fill="#263238"/>
<path d="M399.199 131.918C399.098 131.449 398.903 131.005 398.626 130.613C398.349 130.222 397.996 129.89 397.587 129.639C397.178 129.388 396.723 129.222 396.249 129.152C395.774 129.082 395.29 129.108 394.826 129.23C392.473 129.886 390.055 131.802 391.11 136.689C393 145.459 401.398 141.769 401.333 141.511C401.269 141.254 400.022 135.583 399.199 131.918Z" fill="#FFBF9D"/>
<path d="M398.724 138.618C398.724 138.618 398.596 138.759 398.364 138.939C398.034 139.168 397.629 139.26 397.233 139.197C396.598 138.953 396.04 138.547 395.613 138.019C395.186 137.49 394.906 136.859 394.802 136.187C394.63 135.434 394.63 134.652 394.802 133.898C394.824 133.608 394.916 133.328 395.07 133.081C395.225 132.834 395.437 132.629 395.689 132.484C395.856 132.401 396.045 132.379 396.226 132.421C396.407 132.463 396.567 132.567 396.68 132.715C396.847 132.934 396.834 133.114 396.872 133.127C396.911 133.14 397.027 132.934 396.872 132.587C396.776 132.381 396.613 132.213 396.41 132.111C396.269 132.052 396.118 132.022 395.966 132.022C395.814 132.022 395.663 132.052 395.522 132.111C395.182 132.263 394.886 132.498 394.661 132.795C394.437 133.091 394.29 133.44 394.236 133.808C394.028 134.653 394.028 135.536 394.236 136.38C394.361 137.17 394.715 137.906 395.255 138.495C395.794 139.085 396.496 139.504 397.271 139.698C397.512 139.708 397.752 139.664 397.974 139.571C398.196 139.478 398.395 139.337 398.557 139.158C398.75 138.888 398.763 138.631 398.724 138.618Z" fill="#FF9A6C"/>
<path d="M394.634 115.084C395.87 115.769 397.259 116.132 398.672 116.139C399.37 116.116 400.036 115.844 400.551 115.372C401.065 114.9 401.393 114.26 401.476 113.567C401.476 112.936 401.193 112.281 401.476 111.702C401.759 111.123 402.762 111.072 403.521 111.02C404.832 110.883 406.055 110.295 406.981 109.357C407.907 108.419 408.48 107.189 408.6 105.876C409.07 106.243 409.661 106.418 410.254 106.368C410.848 106.318 411.401 106.046 411.802 105.606C412.58 104.696 413.229 103.684 413.731 102.597C413.983 102.055 414.365 101.583 414.843 101.224C415.321 100.865 415.88 100.63 416.471 100.539C417.126 100.642 417.79 100.668 418.451 100.617C419.583 100.308 419.904 98.8419 419.866 97.6588C419.827 96.4757 419.724 95.0868 420.586 94.3152C421.515 93.7286 422.624 93.4958 423.711 93.6593C424.791 93.6593 426.116 93.1192 426.206 92.0261C426.2 91.7385 426.136 91.455 426.019 91.1922C425.902 90.9294 425.734 90.6926 425.524 90.4958C424.621 89.5562 423.425 88.9516 422.133 88.781C420.84 88.6104 419.529 88.8841 418.412 89.557C417.727 88.1627 416.64 87.0053 415.291 86.2334C413.942 85.4615 412.394 85.1103 410.844 85.2251C409.295 85.3398 407.815 85.9152 406.594 86.8773C405.374 87.8394 404.469 89.1443 403.996 90.6244C402.911 89.9407 401.677 89.5311 400.398 89.4308C399.12 89.3306 397.836 89.5427 396.658 90.0489C395.48 90.5551 394.442 91.3403 393.635 92.3366C392.828 93.333 392.275 94.5108 392.024 95.7684C390.898 95.6957 389.775 95.9495 388.789 96.4992C387.804 97.0489 386.998 97.8713 386.468 98.8676C385.966 99.8811 385.763 101.016 385.881 102.141C385.999 103.266 386.435 104.334 387.137 105.22C386.392 105.777 385.802 106.514 385.422 107.363C385.041 108.211 384.884 109.142 384.964 110.069C385.259 111.895 387.356 113.399 389.027 112.641C388.845 113.414 388.944 114.227 389.307 114.934C389.67 115.641 390.273 116.196 391.008 116.499C391.776 116.746 392.609 116.703 393.348 116.378C394.087 116.054 394.682 115.47 395.02 114.737" fill="#263238"/>
<path d="M388.371 112.679C388.393 112.993 388.481 113.298 388.63 113.575C388.778 113.852 388.984 114.095 389.233 114.287C389.766 114.765 390.458 115.026 391.175 115.02C391.634 115.01 392.085 114.898 392.496 114.694C392.907 114.489 393.268 114.197 393.554 113.837H393.168C393.783 114.586 394.517 115.229 395.341 115.74C395.887 116.086 396.494 116.326 397.129 116.447C397.728 116.555 398.345 116.501 398.916 116.293C399.42 116.162 399.889 115.921 400.289 115.587C400.69 115.254 401.011 114.836 401.231 114.364C401.481 113.738 401.607 113.07 401.604 112.396C401.604 111.921 401.604 111.663 401.54 111.663C401.461 111.892 401.414 112.13 401.398 112.371C401.333 113.003 401.163 113.62 400.897 114.197C400.641 114.632 400.298 115.01 399.888 115.304C399.478 115.599 399.01 115.805 398.516 115.908C398.021 116.011 397.511 116.009 397.017 115.902C396.524 115.796 396.058 115.587 395.65 115.29C394.853 114.814 394.134 114.22 393.515 113.528L393.309 113.297L393.129 113.541C392.892 113.849 392.591 114.103 392.247 114.285C391.903 114.467 391.524 114.573 391.136 114.595C390.509 114.629 389.892 114.432 389.4 114.042C388.97 113.661 388.62 113.197 388.371 112.679Z" fill="#455A64"/>
<path d="M401.322 89.5185C401.322 89.5185 401.567 89.5185 401.978 89.6342C402.586 89.7697 403.138 90.0884 403.56 90.5473L403.689 90.7016L403.779 90.5087C404.614 88.8204 405.861 87.3697 407.405 86.2906C408.392 85.586 409.519 85.1034 410.71 84.876C412.007 84.6434 413.343 84.777 414.568 85.2618C415.536 85.6442 416.413 86.227 417.14 86.9722C417.814 87.6726 418.312 88.5234 418.593 89.4542L418.67 89.7371L418.928 89.6085C419.967 89.1037 421.151 88.9844 422.27 89.2718C423.389 89.5591 424.369 90.2345 425.036 91.1774C425.557 91.9509 425.904 92.8285 426.052 93.7494C426.106 93.5037 426.106 93.2492 426.052 93.0035C425.935 92.313 425.672 91.6553 425.28 91.0745C424.695 90.1521 423.823 89.4473 422.798 89.0684C422.144 88.8265 421.447 88.7167 420.75 88.7454C420.052 88.7741 419.367 88.9407 418.735 89.2355L419.056 89.3899C418.776 88.3709 418.246 87.4381 417.513 86.6764C416.627 85.7599 415.528 85.0753 414.315 84.6829C413.102 84.2905 411.811 84.2022 410.556 84.4259C409.304 84.6815 408.121 85.1986 407.084 85.9434C405.498 87.0821 404.249 88.6284 403.47 90.4187H403.701C403.224 89.9444 402.606 89.6375 401.94 89.5442C401.554 89.4284 401.322 89.4927 401.322 89.5185Z" fill="#455A64"/>
<path d="M415.982 303.895C417.204 303.997 421.384 305.476 426.811 295.433C432.237 285.389 437.446 248.198 437.446 248.198L415.982 303.895Z" fill="#E0E0E0"/>
<path d="M439.399 233.859L440.016 197.915L432.789 170.408C432.789 170.408 427.735 162.486 422.218 158.461C418.655 155.733 414.585 153.739 410.245 152.597L401.964 150.591L401.076 157.458L425.112 185.03L439.399 233.859Z" fill="#E0E0E0"/>
<path d="M401.232 153.034C401.232 153.034 421.011 154.732 430.578 178.638C435.722 191.498 438.847 225.899 439.452 231.274C440.056 236.65 438.037 248.982 434.372 265.598C433.652 268.825 431.067 277.313 424.02 297.902C416.471 319.918 410.453 336.173 410.453 336.173L347.207 311.739L378.663 256.57C378.663 256.57 377.004 239.569 377.081 237.949C377.685 225.307 375.229 218.196 379.408 193.903C380.637 186.642 383.187 179.668 386.932 173.327C390.918 166.627 393.863 164.621 400.627 159.58L401.232 153.034Z" fill="#263238"/>
<path d="M407.997 303.727L409.669 290.392L379.512 278.162L374.008 290.906L407.997 303.727Z" fill="#263238"/>
<path d="M407.995 303.727L407.314 303.432L405.385 302.66L398.273 299.882L374.122 290.636L374.315 291.073L378.996 280.284L379.832 278.329L379.382 278.522L409.577 290.636L409.435 290.392C408.985 294.442 408.612 297.747 408.355 300.101C408.239 301.22 408.149 302.107 408.072 302.789C407.995 303.47 407.982 303.74 407.995 303.753C408.069 303.47 408.121 303.182 408.149 302.891C408.252 302.236 408.381 301.374 408.535 300.319C408.87 297.927 409.333 294.584 409.898 290.469V290.289L409.731 290.224L379.613 277.892L379.369 277.776L379.24 278.085C378.97 278.728 378.687 279.371 378.404 280.026C376.784 283.781 375.215 287.421 373.749 290.842L373.607 291.163L373.929 291.279L398.44 300.358L405.526 302.93L407.403 303.599C407.596 303.66 407.794 303.703 407.995 303.727Z" fill="#455A64"/>
<path d="M432.996 270.06C432.977 270.178 432.947 270.294 432.906 270.407L432.598 271.397L431.312 275.255C430.193 278.612 428.611 283.383 426.643 289.247L411.018 335.337L410.684 336.315L410.568 336.649L410.247 336.52L365.52 319.121L352.03 313.784L348.377 312.305L347.439 311.906L347.117 311.739L347.464 311.842L348.429 312.176L352.12 313.54L365.687 318.684L410.478 335.916L410.041 336.122C410.157 335.813 410.26 335.479 410.375 335.144C416.548 317.14 422.142 300.937 426.206 289.106C428.238 283.267 429.897 278.522 431.067 275.178L432.482 271.346C432.623 270.947 432.752 270.626 432.842 270.369C432.932 270.111 432.983 270.06 432.996 270.06Z" fill="#455A64"/>
<path d="M340.031 340.481C340.031 340.481 347.503 316.137 353.869 314.478C360.234 312.819 368.645 312.562 370.124 316.716C371.944 321.953 372.772 327.482 372.567 333.023C372.137 338.123 371.298 343.18 370.059 348.146L363.565 346.127C363.565 346.127 368.709 321.41 367.333 317.359C365.957 313.308 355.232 314.286 353.264 318.491C351.297 322.696 345.047 342.025 345.047 342.025L340.031 340.481Z" fill="#455A64"/>
<path d="M310.183 371.114C312.46 360.916 317.784 338.488 320.137 328.676C320.444 327.383 321.24 326.26 322.357 325.541C323.474 324.822 324.826 324.563 326.13 324.818L387.086 336.829C388.395 337.089 389.552 337.847 390.313 338.943C391.074 340.04 391.378 341.389 391.163 342.706L384.283 385.067C384.173 385.745 383.928 386.394 383.564 386.975C383.199 387.557 382.721 388.06 382.159 388.454C381.597 388.849 380.962 389.126 380.291 389.271C379.619 389.416 378.926 389.425 378.251 389.298L314.273 377.3C313.592 377.174 312.943 376.913 312.366 376.531C311.788 376.149 311.293 375.655 310.912 375.077C310.53 374.5 310.268 373.851 310.143 373.17C310.018 372.489 310.032 371.789 310.183 371.114Z" fill="#455A64"/>
<path d="M384.887 352.441L384.81 352.891C384.746 353.213 384.669 353.676 384.553 354.254C384.322 355.476 383.974 357.238 383.524 359.514L379.666 378.946L379.358 380.514C379.286 381.082 379.054 381.617 378.689 382.058C378.302 382.508 377.785 382.827 377.21 382.971C376.629 383.088 376.029 383.061 375.461 382.894L368.491 381.543L353.059 378.573L336.071 375.268L327.069 373.519L322.478 372.618L321.32 372.4C320.911 372.342 320.51 372.239 320.124 372.091C319.726 371.916 319.373 371.653 319.092 371.321C318.812 370.989 318.61 370.597 318.504 370.175C318.434 369.81 318.434 369.434 318.504 369.069C318.504 368.696 318.645 368.387 318.71 368.053L319.134 366.06L319.983 362.112C320.536 359.54 321.089 356.968 321.629 354.396C322.726 349.312 323.777 344.421 324.78 339.723V339.504H324.998C342.321 343.941 357.303 347.104 367.925 349.2C373.249 350.242 377.48 351.026 380.373 351.554L383.717 352.171L384.553 352.338L384.836 352.402H384.527L383.666 352.274L380.348 351.734C377.441 351.245 373.21 350.512 367.886 349.496C357.225 347.49 342.231 344.352 324.883 339.967L325.153 339.8C324.162 344.494 323.108 349.406 322.028 354.486C321.488 357.058 320.935 359.63 320.382 362.202C320.099 363.488 319.816 364.774 319.533 366.15L319.108 368.13C318.901 368.747 318.848 369.405 318.954 370.046C319.046 370.397 319.215 370.724 319.449 371.002C319.682 371.28 319.975 371.502 320.304 371.654C320.661 371.789 321.032 371.88 321.41 371.924L322.568 372.155L327.159 373.056L336.161 374.805L353.162 378.135L368.594 381.157L375.564 382.533C376.082 382.686 376.628 382.713 377.158 382.611C377.658 382.489 378.107 382.215 378.444 381.826C378.77 381.429 378.975 380.947 379.036 380.437C379.152 379.91 379.255 379.396 379.358 378.894C381.042 370.741 382.418 364.157 383.357 359.604C383.846 357.328 384.219 355.553 384.476 354.331C384.604 353.74 384.707 353.277 384.772 352.943C384.836 352.608 384.887 352.441 384.887 352.441Z" fill="#263238"/>
<path d="M362.164 376.142C362.164 376.142 362.537 376.206 363.257 376.206C364.3 376.172 365.313 375.842 366.176 375.255C366.845 374.774 367.401 374.154 367.805 373.436C368.209 372.719 368.452 371.922 368.516 371.101C368.889 369.185 369.327 367.011 369.802 364.607C370.047 363.398 370.291 362.137 370.548 360.826C370.921 359.514 370.788 358.109 370.175 356.891C369.841 356.26 369.379 355.705 368.819 355.262C368.259 354.819 367.613 354.498 366.922 354.319C365.456 353.997 363.874 353.701 362.292 353.38L341.6 349.239C340.73 349.065 339.83 349.12 338.988 349.397C338.145 349.674 337.388 350.165 336.791 350.821C336.198 351.46 335.786 352.246 335.595 353.097L335.055 355.669L334.026 360.813C333.863 361.67 333.696 362.493 333.524 363.282C333.342 364.071 333.204 364.869 333.113 365.674C333.072 366.435 333.201 367.195 333.49 367.9C333.779 368.605 334.221 369.237 334.785 369.751C335.329 370.236 335.969 370.604 336.662 370.831C337.331 371.037 338.09 371.152 338.784 371.307L346.642 372.914L358.023 375.28L361.109 375.949L361.906 376.129L362.176 376.206H361.894L361.083 376.065L357.984 375.486L346.577 373.261L338.694 371.654C337.987 371.5 337.28 371.41 336.521 371.191C335.771 370.952 335.082 370.552 334.502 370.021C333.887 369.471 333.403 368.79 333.085 368.029C332.767 367.269 332.623 366.446 332.663 365.623C332.758 364.797 332.9 363.976 333.087 363.166C333.254 362.356 333.409 361.533 333.576 360.697C333.91 359.038 334.257 357.341 334.605 355.553C334.772 354.692 334.952 353.817 335.132 352.981C335.343 352.058 335.785 351.204 336.418 350.499C337.07 349.784 337.896 349.249 338.814 348.945C339.733 348.641 340.715 348.578 341.665 348.763L362.357 352.943C363.938 353.277 365.482 353.56 366.999 353.907C367.749 354.109 368.448 354.466 369.051 354.956C369.653 355.445 370.146 356.056 370.497 356.749C371.139 358.051 371.272 359.546 370.87 360.942C370.6 362.228 370.343 363.514 370.098 364.709C369.61 367.101 369.159 369.275 368.812 371.139C368.709 371.615 368.619 372.078 368.491 372.528C368.352 372.949 368.162 373.35 367.925 373.724C367.519 374.39 366.97 374.957 366.317 375.383C365.422 375.977 364.37 376.29 363.295 376.283C362.913 376.289 362.533 376.241 362.164 376.142Z" fill="#263238"/>
<g opacity="0.3">
<path d="M319.943 371.834C337.096 380.816 356.501 384.584 375.769 382.675L319.943 371.834Z" fill="black"/>
</g>
<path d="M358.227 359.128L351.077 357.688C350.808 357.634 350.553 357.528 350.325 357.375C350.098 357.223 349.903 357.027 349.751 356.799C349.599 356.57 349.494 356.315 349.441 356.046C349.389 355.777 349.389 355.5 349.444 355.232C349.556 354.693 349.874 354.221 350.331 353.915C350.788 353.61 351.347 353.496 351.887 353.598L359.076 355.052C359.344 355.104 359.599 355.209 359.827 355.36C360.054 355.511 360.249 355.706 360.401 355.933C360.553 356.16 360.658 356.415 360.711 356.683C360.764 356.951 360.763 357.227 360.709 357.495C360.657 357.767 360.551 358.026 360.397 358.257C360.243 358.487 360.045 358.684 359.813 358.836C359.582 358.989 359.322 359.093 359.05 359.143C358.777 359.193 358.498 359.188 358.227 359.128Z" fill="#E0E0E0"/>
<path d="M369.647 309.013C370.591 310.446 371.36 311.988 371.936 313.604C372.195 316.499 372.247 319.408 372.091 322.31C372.091 322.31 370.586 323.069 369.364 319.031C368.72 317.089 368.26 315.091 367.988 313.064L369.647 309.013Z" fill="#FFBF9D"/>
<path d="M369.454 321.937L369.737 309.193L364.825 299.767L349.239 299.471L348.686 314.903C348.686 314.903 350.975 321.526 352.068 322.773C353.161 324.021 355.347 323.095 355.347 323.095C356.517 324.946 359.758 324.265 359.758 324.265C361.34 326.155 363.809 324.381 363.809 324.381C363.809 324.381 365.969 326.361 366.96 326.232C367.376 326.133 367.746 325.897 368.014 325.564C368.917 324.569 369.429 323.28 369.454 321.937Z" fill="#FFBF9D"/>
<path d="M354.151 319.802C354.293 319.802 354.665 320.433 354.961 321.32C355.257 322.207 355.398 322.979 355.244 323.03C355.09 323.082 354.73 322.387 354.434 321.5C354.138 320.613 353.997 319.854 354.151 319.802Z" fill="#FF9A6C"/>
<path d="M358.188 319.61C358.578 320.352 358.851 321.15 358.998 321.976C359.32 322.751 359.524 323.57 359.602 324.406C359.016 323.774 358.619 322.99 358.458 322.143C358.127 321.342 358.033 320.462 358.188 319.61Z" fill="#FF9A6C"/>
<path d="M362.793 320.021C362.961 320.021 363.076 320.998 363.308 322.169C363.539 323.339 363.758 324.291 363.604 324.355C363.449 324.419 362.973 323.506 362.742 322.271C362.51 321.037 362.652 320.021 362.793 320.021Z" fill="#FF9A6C"/>
<path d="M369.558 313.192C369.811 314.795 369.885 316.421 369.777 318.041C369.846 319.656 369.73 321.274 369.429 322.863C369.095 319.646 369.138 316.4 369.558 313.192Z" fill="#FF9A6C"/>
<path d="M353.92 317.243C353.92 317.243 353.92 317.475 353.585 317.642C353.216 317.855 352.781 317.924 352.364 317.835C351.942 317.749 351.566 317.511 351.309 317.166C351.116 316.909 351.103 316.69 351.168 316.665C351.232 316.639 351.733 317.14 352.454 317.282C353.174 317.423 353.83 317.115 353.92 317.243Z" fill="#FF9A6C"/>
<path d="M358.626 318.015C358.626 318.015 358.536 318.246 358.227 318.401C357.82 318.567 357.374 318.612 356.941 318.529C356.495 318.447 356.085 318.227 355.771 317.899C355.54 317.629 355.488 317.423 355.54 317.372C355.591 317.32 356.196 317.822 357.044 317.976C357.893 318.131 358.549 317.873 358.626 318.015Z" fill="#FF9A6C"/>
<path d="M367.641 317.076C367.641 316.999 368.001 317.41 367.641 317.963C367.148 318.509 366.459 318.838 365.725 318.877C365.015 318.942 364.304 318.78 363.693 318.414C363.243 318.118 363.063 317.822 363.114 317.771C363.927 318.119 364.801 318.302 365.686 318.311C366.286 318.277 366.863 318.066 367.345 317.706C367.641 317.41 367.564 317.102 367.641 317.076Z" fill="#FF9A6C"/>
<path d="M416.162 197.208C410.041 203.638 372.027 240.932 372.027 240.932C372.027 240.932 369.828 301.245 368.722 301.503C367.616 301.76 345.767 299.972 345.767 299.972C345.767 299.972 342.706 236.032 345.252 228.741C347.799 221.449 380.309 178.818 381.016 177.931C381.723 177.044 385.453 170.524 397.888 167.321C412.459 163.592 418.58 170.575 421.036 177.738C423.145 183.911 419.12 193.504 417.178 196.076C416.864 196.474 416.524 196.852 416.162 197.208Z" fill="#263238"/>
<path d="M416.162 197.208C416.162 197.208 416.342 196.951 416.728 196.501C417.288 195.825 417.763 195.082 418.142 194.289C419.672 191.269 420.718 188.027 421.241 184.682C421.675 182.289 421.516 179.825 420.778 177.507C419.857 174.757 418.281 172.273 416.187 170.266C414.992 169.193 413.628 168.324 412.149 167.694C410.566 167.063 408.897 166.668 407.198 166.524C403.47 166.359 399.742 166.859 396.19 168.003C392.237 169.136 388.542 171.027 385.311 173.571C383.634 174.967 382.166 176.595 380.951 178.407L376.797 183.898C371.229 191.318 365.313 199.33 359.23 207.753C356.208 211.997 353.109 216.369 350.126 220.922C348.579 223.186 347.175 225.544 345.92 227.982C345.792 228.304 345.625 228.599 345.509 228.921L345.316 229.911C345.158 230.583 345.059 231.267 345.02 231.956L344.84 234.052L344.737 236.161C344.339 247.491 344.66 259.309 344.982 271.295C345.277 281.068 345.65 290.649 346.075 299.934L345.766 299.625L357.507 300.551L363.269 300.95L366.111 301.117L367.525 301.181H368.515C368.811 299.362 369.012 297.53 369.12 295.69C369.236 293.838 369.364 292.012 369.48 290.186C369.686 286.551 369.883 282.976 370.071 279.461C370.779 265.418 371.357 252.455 371.756 240.881V240.778V240.701L404.086 208.859L412.947 200.192L415.262 197.941C415.789 197.44 416.072 197.195 416.072 197.195C416.072 197.195 415.827 197.478 415.313 197.993L413.05 200.294L404.292 209.065L372.142 241.074L372.219 240.894C371.808 252.468 371.306 265.418 370.624 279.474C370.444 282.98 370.256 286.555 370.059 290.199C369.93 292.025 369.814 293.864 369.699 295.716C369.597 297.604 369.387 299.485 369.068 301.348C369.038 301.45 368.99 301.546 368.927 301.631C368.87 301.706 368.788 301.756 368.695 301.773H368.593H368.181H367.461L366.033 301.708L363.179 301.541L357.417 301.143L345.676 300.23H345.38V299.934C344.956 290.636 344.583 281.055 344.287 271.269C343.966 259.232 343.644 247.478 344.056 236.097L344.159 233.975L344.351 231.853C344.393 231.139 344.492 230.429 344.647 229.731L344.879 228.677C345.001 228.339 345.143 228.008 345.303 227.686C346.569 225.215 347.991 222.827 349.56 220.536C352.569 215.958 355.668 211.598 358.703 207.355C364.799 198.88 370.74 190.932 376.334 183.525L380.475 178.072C381.144 177.211 381.761 176.259 382.546 175.5C383.282 174.68 384.082 173.919 384.938 173.224C391.322 168.383 399.177 165.885 407.185 166.151C408.93 166.321 410.638 166.754 412.252 167.437C413.77 168.077 415.166 168.973 416.38 170.086C418.508 172.136 420.102 174.674 421.023 177.481C421.766 179.852 421.912 182.37 421.447 184.811C420.894 188.176 419.8 191.429 418.206 194.443C417.809 195.232 417.312 195.967 416.728 196.629C416.38 196.989 416.162 197.208 416.162 197.208Z" fill="#455A64"/>
<path d="M437.728 224.806C437.605 224.58 437.519 224.337 437.471 224.086C437.304 223.545 437.098 222.799 436.841 221.989C436.288 220.086 435.555 217.437 434.616 214.196C432.764 207.496 430.231 198.301 427.389 187.987V187.846L427.466 187.717C428.173 186.611 428.932 185.428 429.703 184.245L430.282 183.332L430.539 183.847L426.283 183.448H426.064L425.987 183.229C425.228 180.829 424.348 178.468 423.351 176.156C422.469 174.01 421.357 171.966 420.033 170.061C418.701 168.485 417.065 167.195 415.223 166.267C413.526 165.302 411.892 164.492 410.401 163.785C407.391 162.37 404.935 161.342 403.238 160.634L401.296 159.824C401.062 159.747 400.837 159.643 400.627 159.515C400.871 159.546 401.109 159.611 401.334 159.708C401.797 159.863 402.466 160.094 403.328 160.416C405.051 161.046 407.546 162.01 410.581 163.373C412.098 164.068 413.744 164.852 415.48 165.804C417.4 166.737 419.11 168.049 420.509 169.662C421.881 171.587 423.028 173.662 423.929 175.848C424.95 178.179 425.852 180.561 426.63 182.985L426.334 182.753L430.604 183.139H431.144L430.848 183.602L430.269 184.515L428.019 187.987V187.717C430.784 198.07 433.24 207.265 435.027 213.99C435.876 217.257 436.558 219.919 437.059 221.835C437.265 222.709 437.445 223.417 437.574 223.97C437.664 224.24 437.716 224.521 437.728 224.806Z" fill="#455A64"/>
<path d="M433.291 186.38C425.833 190.778 419.775 190.752 407.327 189.698C398.698 188.965 391.136 186.496 382.481 186.226C370.007 185.853 360.619 189.659 349.303 194.803L340.918 204.705L356.646 209.464C367.276 204.001 379.144 201.395 391.085 201.902C410.375 202.956 428.482 197.697 434.886 192.797L437.085 186.701L436.249 183.512L433.6 183.268L433.291 186.38Z" fill="#FF6420"/>
<path d="M433.291 186.38C433.291 186.38 433.291 186.11 433.291 185.583C433.291 185.055 433.394 184.297 433.484 183.306V183.216H433.562L436.211 183.435H436.288V183.512C436.532 184.438 436.828 185.506 437.149 186.689C436.532 188.476 435.799 190.547 435.002 192.81C433.119 194.181 431.071 195.308 428.906 196.166C426.43 197.216 423.886 198.101 421.293 198.816C411.663 201.432 401.685 202.539 391.715 202.095C387.901 201.903 384.077 202.024 380.283 202.455C376.279 202.926 372.324 203.748 368.464 204.911C364.427 206.082 360.515 207.65 356.787 209.592H356.659H356.53L347.348 207.046L340.789 205.027L340.301 204.886L340.622 204.5L349.007 194.585H349.071C354.473 192.021 360.062 189.871 365.789 188.155C371.085 186.625 376.585 185.918 382.096 186.058C387.01 186.304 391.896 186.949 396.705 187.987C400.845 188.835 405.032 189.431 409.243 189.775C412.683 190.11 416.139 190.256 419.596 190.212C422.181 190.175 424.75 189.795 427.234 189.081C428.788 188.612 430.298 188.009 431.748 187.28L432.854 186.701L433.253 186.509C433.253 186.509 433.15 186.599 432.906 186.74C432.661 186.882 432.288 187.113 431.8 187.383C430.365 188.17 428.858 188.816 427.299 189.312C424.796 190.087 422.201 190.519 419.583 190.598C416.115 190.675 412.646 190.559 409.192 190.251C404.964 189.942 400.759 189.371 396.602 188.54C391.815 187.539 386.955 186.92 382.07 186.689C376.618 186.564 371.178 187.28 365.944 188.811C360.27 190.539 354.734 192.688 349.38 195.241L349.496 195.151L341.124 205.066L340.97 204.525L347.49 206.506L356.697 209.284H356.44C360.225 207.285 364.201 205.673 368.31 204.474C372.205 203.31 376.194 202.488 380.231 202.018C384.074 201.593 387.944 201.481 391.805 201.683C401.707 202.151 411.623 201.093 421.203 198.546C423.779 197.848 426.309 196.989 428.778 195.974C430.915 195.134 432.944 194.042 434.822 192.72V192.797L437.059 186.701V186.779L436.262 183.589L436.352 183.679L433.703 183.396H433.793L433.523 185.698C433.381 186.136 433.291 186.38 433.291 186.38Z" fill="#263238"/>
<path d="M403.803 266.639C403.803 266.806 398.054 264.929 391.11 262.447C386.875 261.056 382.716 259.446 378.648 257.624C378.713 257.457 384.397 259.335 391.341 261.817C395.576 263.208 399.735 264.818 403.803 266.639Z" fill="#455A64"/>
</svg>
