<svg viewBox="0 0 230 240" xmlns="http://www.w3.org/2000/svg">
<path d="M113.46 5.93237H21.127V122.108H113.46V5.93237Z" fill="#E0E0E0"/>
<path d="M110.673 9.25684H24.5059V118.789H110.673V9.25684Z" fill="#FAFAFA"/>
<path d="M24.5059 89.8852H41.8397L44.0685 100.102H51.5921L58.0013 71.0536H79.4463V51.2449H95.0479V84.3404H110.673V118.795H24.5059V89.8852Z" fill="#F5F5F5"/>
<path d="M68.9614 9.25684H66.1777V117.887H68.9614V9.25684Z" fill="#E0E0E0"/>
<path d="M110.673 62.323H24.5059V65.1792H110.673V62.323Z" fill="#E0E0E0"/>
<path d="M201.154 36.9058L206.697 51.1003L203.25 51.0887L200.49 42.3639L201.154 36.9058Z" fill="#E0E0E0"/>
<path d="M182.236 23.7866L180.33 50.9904L199.997 51.4009L202.208 23.7866H182.236Z" fill="#EBEBEB"/>
<path d="M184.199 25.978L182.617 48.6198L197.237 49.3078L199.281 25.845L184.199 25.978Z" fill="#FAFAFA"/>
<path d="M187.41 29.1814L186.221 45.0931H194.287L195.713 29.1814H187.41Z" fill="#E0E0E0"/>
<path d="M153.023 51.2043V28.8342H169.381V51.187L153.023 51.2043Z" fill="#EBEBEB"/>
<path d="M162.326 28.8343C162.326 28.8343 166.27 -0.0404307 165.167 4.25082e-05C164.064 0.0405157 161.287 26.3249 161.287 26.3249C161.287 26.3249 161.172 4.55616 160.132 4.6718C159.093 4.78744 160.132 27.7184 160.132 27.7184C160.132 27.7184 158.354 9.1065 157.395 9.55171C156.437 9.99691 157.805 28.8343 157.805 28.8343H162.332" fill="#E0E0E0"/>
<path d="M159.354 28.8344C159.354 28.8344 160.722 14.4433 161.172 15.4262C161.623 16.4091 161.172 23.995 161.172 23.995C161.172 23.995 164.989 5.40621 165.953 6.02487C166.918 6.64353 162.102 26.221 162.102 26.221C162.102 26.221 165.797 15.0562 166.612 16.2357C167.426 17.4152 163.546 27.8862 163.546 27.8862C163.546 27.8862 167.512 20.4796 167.784 21.4741C168.055 22.4685 165.89 28.8402 165.89 28.8402L159.354 28.8344Z" fill="#EBEBEB"/>
<path d="M157.02 28.9209C157.02 28.9209 148.278 11.7314 149.358 12.2633C150.438 12.7952 156.033 23.908 156.033 23.908C156.033 23.908 152.332 13.1884 153.146 12.8588C153.96 12.5293 158.013 24.9025 158.013 24.9025L158.926 28.9498L157.02 28.9209Z" fill="#EBEBEB"/>
<path d="M160.6 28.8747L161.01 51.239H153.232L153.082 28.7996L160.6 28.8747Z" fill="#E0E0E0"/>
<path d="M153.04 30.8117L160.575 30.9389L169.38 30.8117L169.658 28.6724H152.826L153.04 30.8117Z" fill="#F5F5F5"/>
<path d="M220.747 50.8401H138.951V54.4364H220.747V50.8401Z" fill="#E0E0E0"/>
<path d="M154.285 180.435C153.592 179.666 155.226 175.174 162.98 174.856C170.735 174.538 173.842 177.365 173.853 180.435C173.859 181.794 154.285 180.435 154.285 180.435Z" fill="#455A64"/>
<path d="M150.455 62.901L141.84 116.25H220.518L229.999 62.3286L150.455 62.901Z" fill="#F5F5F5"/>
<path d="M149.67 67.752C149.705 67.567 229.098 67.4514 229.098 67.4514L229.999 62.3286L150.455 62.9068L149.67 67.7636" fill="#E0E0E0"/>
<path d="M153.781 65.3003C153.782 65.4458 153.74 65.5883 153.661 65.7098C153.581 65.8313 153.466 65.9264 153.333 65.9828C153.199 66.0393 153.051 66.0547 152.908 66.027C152.766 65.9993 152.634 65.9298 152.531 65.8274C152.428 65.7249 152.358 65.5941 152.329 65.4515C152.3 65.3089 152.314 65.161 152.37 65.0264C152.425 64.8919 152.519 64.7769 152.64 64.696C152.761 64.615 152.903 64.5718 153.048 64.5718C153.144 64.571 153.239 64.5893 153.328 64.6256C153.417 64.6619 153.498 64.7154 153.566 64.7831C153.634 64.8508 153.688 64.9314 153.725 65.0202C153.762 65.109 153.781 65.2042 153.781 65.3003Z" fill="#263238"/>
<path d="M157.362 65.3005C157.362 65.4446 157.319 65.5855 157.239 65.7053C157.159 65.8251 157.045 65.9185 156.912 65.9736C156.779 66.0287 156.633 66.0432 156.492 66.0151C156.351 65.9869 156.221 65.9176 156.119 65.8157C156.018 65.7138 155.948 65.584 155.92 65.4427C155.892 65.3013 155.907 65.1549 155.962 65.0217C156.017 64.8886 156.11 64.7748 156.23 64.6948C156.349 64.6147 156.49 64.572 156.634 64.572C156.827 64.572 157.012 64.6488 157.148 64.7854C157.285 64.922 157.362 65.1073 157.362 65.3005Z" fill="#263238"/>
<path d="M160.947 65.3006C160.948 65.446 160.906 65.5886 160.827 65.7101C160.747 65.8316 160.633 65.9266 160.499 65.9831C160.365 66.0395 160.217 66.0549 160.074 66.0272C159.932 65.9996 159.8 65.9301 159.697 65.8276C159.594 65.7252 159.524 65.5943 159.495 65.4517C159.466 65.3091 159.48 65.1612 159.536 65.0267C159.591 64.8922 159.685 64.7772 159.806 64.6962C159.927 64.6153 160.069 64.572 160.214 64.572C160.31 64.5713 160.405 64.5896 160.494 64.6258C160.583 64.6621 160.664 64.7156 160.732 64.7834C160.8 64.8511 160.854 64.9317 160.891 65.0204C160.928 65.1092 160.947 65.2044 160.947 65.3006Z" fill="#263238"/>
<path d="M169.832 91.718L159.988 103.12C158.129 101.857 156.601 100.164 155.535 98.184C154.468 96.2042 153.894 93.9961 153.861 91.7469C153.861 83.82 161.073 77.2922 169.832 77.2922C178.592 77.2922 185.804 83.8142 185.804 91.7469L169.832 91.718Z" fill="#FF725E"/>
<path d="M171.096 93.5276C171.048 93.6083 170.992 93.6839 170.928 93.7531L170.414 94.366L168.463 96.6787C166.765 98.6677 164.351 101.478 161.459 104.86V104.675C163.64 106.179 166.159 107.116 168.792 107.404C171.763 107.747 174.773 107.292 177.511 106.086C180.124 104.949 182.38 103.125 184.041 100.807C184.789 99.726 185.389 98.5495 185.825 97.3089C186.206 96.1501 186.436 94.9474 186.512 93.7299L186.639 93.8629L175.38 93.6721L172.216 93.6027L171.379 93.5738C171.281 93.583 171.182 93.583 171.084 93.5738C171.176 93.5649 171.269 93.5649 171.361 93.5738H172.187H175.334L186.639 93.649H186.778V93.7878C186.712 95.0324 186.483 96.263 186.097 97.4477C185.658 98.715 185.05 99.917 184.289 101.021C182.598 103.401 180.287 105.271 177.609 106.427C174.82 107.649 171.758 108.108 168.734 107.757C166.057 107.453 163.497 106.487 161.285 104.947L161.17 104.866L161.262 104.756L168.388 96.6209L170.38 94.366L170.911 93.7878C170.965 93.6958 171.027 93.6088 171.096 93.5276Z" fill="#263238"/>
<path d="M176.626 84.0282C177.12 84.0282 177.521 83.627 177.521 83.132C177.521 82.6371 177.12 82.2358 176.626 82.2358C176.131 82.2358 175.73 82.6371 175.73 83.132C175.73 83.627 176.131 84.0282 176.626 84.0282Z" fill="#263238"/>
<path d="M195.296 76.5753C195.018 76.6186 194.736 76.6379 194.453 76.6331L192.144 76.6794C190.209 76.6794 187.525 76.7256 184.586 76.7256H183.177L183.281 76.6852C181.427 78.5354 179.776 80.1543 178.58 81.3107L177.166 82.6636C177.004 82.8394 176.822 82.9947 176.623 83.1262C176.763 82.9338 176.92 82.7539 177.091 82.5885C177.443 82.2126 177.899 81.7385 178.442 81.1719C179.597 79.975 181.225 78.3214 183.061 76.4597L183.102 76.4192H184.62C187.571 76.4192 190.244 76.4192 192.178 76.4597L194.488 76.5117C194.759 76.5073 195.03 76.5286 195.296 76.5753Z" fill="#263238"/>
<path d="M215.575 87.8382C215.579 87.735 215.592 87.6324 215.615 87.5317C215.65 87.3236 215.696 87.0403 215.76 86.676L216.337 83.444L218.422 71.8455L218.543 71.9901L196.18 72.019L196.324 71.8975V71.9554V72.0247V72.1577L196.272 72.4237L196.174 72.9614L195.978 74.0253C195.845 74.7307 195.718 75.4303 195.585 76.1241C195.331 77.5117 195.079 78.8763 194.829 80.2177C194.326 82.8889 193.847 85.4214 193.402 87.8555L193.264 87.6936L209.374 87.7572L213.993 87.7977H215.223H215.54H215.656H215.558H215.252H214.045L209.472 87.8324L193.304 87.896H193.143L193.171 87.7341C193.616 85.3231 194.084 82.7617 194.58 80.0847C194.823 78.7491 195.077 77.3845 195.331 75.9969C195.464 75.2973 195.591 74.5977 195.724 73.8923C195.787 73.5396 195.851 73.1869 195.92 72.8284L196.018 72.2965L196.064 72.0305L196.093 71.8918V71.8282V71.7761L196.243 71.6489L218.606 71.6778H218.687L218.658 71.8224C217.734 76.6618 216.972 80.6571 216.441 83.4613C216.17 84.8316 215.962 85.907 215.812 86.6645L215.644 87.4913C215.598 87.7515 215.575 87.844 215.575 87.8382Z" fill="#263238"/>
<path d="M178.026 102.056C178.52 102.056 178.921 101.655 178.921 101.16C178.921 100.665 178.52 100.264 178.026 100.264C177.532 100.264 177.131 100.665 177.131 101.16C177.131 101.655 177.532 102.056 178.026 102.056Z" fill="#263238"/>
<path d="M194.276 101.16C194.276 101.247 190.638 101.31 186.151 101.31C181.665 101.31 178.027 101.247 178.027 101.16C178.027 101.073 181.665 101.01 186.151 101.01C190.638 101.01 194.276 101.079 194.276 101.16Z" fill="#263238"/>
<path d="M215.575 108.144C215.582 108.07 215.595 107.996 215.615 107.924C215.65 107.768 215.696 107.56 215.759 107.3C215.892 106.722 216.083 105.953 216.337 104.947C216.839 102.9 217.555 99.9801 218.439 96.3895L218.548 96.5283L195.487 96.563L195.631 96.4531V96.4878V96.5341V96.6324L195.579 96.8289L195.481 97.2105L195.29 97.9853C195.157 98.4941 195.03 99.0029 194.903 99.5117L194.083 102.541C193.587 104.502 193.108 106.398 192.646 108.208L192.513 108.034L209.056 108.098L213.837 108.133H215.118H215.453H215.575H215.471H215.147H213.894L209.136 108.167L192.513 108.231H192.328L192.374 108.052C192.83 106.242 193.304 104.34 193.795 102.38C194.041 101.397 194.293 100.4 194.551 99.3903L194.932 97.8639L195.129 97.0949L195.227 96.7075L195.273 96.5109V96.4184V96.3664V96.3317L195.417 96.2161L218.479 96.2565H218.687L218.652 96.3953C217.717 100.003 216.96 102.935 216.429 104.987C216.164 105.976 215.956 106.756 215.811 107.3C215.742 107.549 215.69 107.745 215.65 107.878C215.609 108.011 215.575 108.15 215.575 108.144Z" fill="#263238"/>
<path d="M213.756 76.7778C213.756 76.8645 210.332 76.9281 206.106 76.9281C201.879 76.9281 198.455 76.8645 198.455 76.7778C198.455 76.691 201.879 76.6274 206.106 76.6274C210.332 76.6274 213.756 76.6968 213.756 76.7778Z" fill="#263238"/>
<path d="M213.577 79.2868C213.577 79.3735 210.113 79.4371 205.886 79.4371C201.66 79.4371 198.189 79.3735 198.189 79.2868C198.189 79.2001 201.654 79.1365 205.886 79.1365C210.119 79.1365 213.577 79.2059 213.577 79.2868Z" fill="#263238"/>
<path d="M213.132 81.727C213.132 81.8079 209.806 81.8773 205.707 81.8773C201.607 81.8773 198.275 81.8079 198.275 81.727C198.275 81.646 201.601 81.5767 205.707 81.5767C209.812 81.5767 213.132 81.6229 213.132 81.727Z" fill="#263238"/>
<path d="M213.4 100.882C213.4 100.963 210.137 101.033 206.107 101.033C202.077 101.033 198.814 100.963 198.814 100.882C198.814 100.801 202.083 100.732 206.107 100.732C210.132 100.732 213.4 100.807 213.4 100.882Z" fill="#263238"/>
<path d="M212.502 103.657C212.502 103.744 209.719 103.808 206.283 103.808C202.848 103.808 200.064 103.744 200.064 103.657C200.064 103.571 202.848 103.507 206.283 103.507C209.719 103.507 212.502 103.576 212.502 103.657Z" fill="#263238"/>
<path d="M119.57 161.748C119.293 163.373 111.59 180.441 116.562 180.441H141.552C141.552 180.441 138.971 178.012 146.784 161.748H119.57Z" fill="#455A64"/>
<path d="M103.402 104.779L93.1875 164.552H179.343L189.909 102.68L103.402 104.779Z" fill="#455A64"/>
<path d="M106.328 107.693L97.7188 161.049H176.391L185.872 107.127L106.328 107.693Z" fill="#FAFAFA"/>
<path d="M189.909 102.68L191.538 103.779L180.567 166.177H95.4625L93.1875 164.552H179.343L189.909 102.68Z" fill="#263238"/>
<path d="M105.553 112.55C105.582 112.359 184.975 112.249 184.975 112.249L185.876 107.127L106.332 107.705L105.553 112.562" fill="#EBEBEB"/>
<path d="M163.996 156.313V156.163L164.065 155.718C164.139 155.294 164.237 154.715 164.36 153.983C164.631 152.428 165.012 150.196 165.486 147.426C166.467 141.818 167.836 134.012 169.389 125.155V125.027H175.891L175.862 125.207C173.454 138.268 171.347 149.745 170.128 156.342V156.411H170.065L165.538 156.365H164.383H164.1H164.412H165.607L170.082 156.319L170.001 156.382L175.59 125.224L175.741 125.397H169.551L169.695 125.276C168.096 134.082 166.693 141.835 165.653 147.415C165.145 150.19 164.729 152.428 164.441 153.989C164.296 154.746 164.187 155.342 164.106 155.77C164.065 155.96 164.037 156.117 164.013 156.232C164.009 156.259 164.003 156.286 163.996 156.313Z" fill="#263238"/>
<path d="M154.018 156.313C154.025 156.173 154.046 156.033 154.081 155.897C154.133 155.59 154.208 155.18 154.301 154.66C154.508 153.544 154.797 151.965 155.161 150.034C155.917 146.027 156.974 140.453 158.181 134.082V133.96H164.682L164.648 134.14C162.823 143.2 161.183 151.254 160.167 156.359V156.435H160.092L155.571 156.383H154.416C154.287 156.391 154.158 156.391 154.029 156.383H154.456H155.657L160.115 156.331L160.023 156.406C161.027 151.295 162.609 143.235 164.388 134.163L164.532 134.342H158.308L158.452 134.226C157.199 140.54 156.102 146.068 155.311 150.04C154.913 152.011 154.595 153.596 154.364 154.712L154.104 155.978C154.104 156.111 154.046 156.221 154.029 156.307L154.018 156.313Z" fill="#263238"/>
<path d="M144 156.313C143.995 156.252 143.995 156.19 144 156.128L144.092 155.55C144.179 155.041 144.3 154.313 144.462 153.376C144.796 151.462 145.276 148.704 145.876 145.281C147.1 138.343 148.804 128.739 150.732 117.852V117.731H157.234L157.205 117.904C154.191 134.435 151.529 148.837 150.12 156.313V156.377H150.057L145.512 156.331H144.358H143.977H144.387H145.57L150.062 156.29L149.993 156.348C151.31 148.831 153.908 134.44 156.922 117.916L157.072 118.095H150.9L151.044 117.968C149.075 128.797 147.331 138.372 146.073 145.258C145.437 148.693 144.918 151.462 144.571 153.382L144.156 155.585C144.109 155.828 144.075 156.018 144.046 156.163L144 156.313Z" fill="#263238"/>
<path d="M134 156.313C134.004 156.216 134.016 156.119 134.034 156.024C134.075 155.799 134.121 155.515 134.179 155.157C134.312 154.359 134.502 153.249 134.756 151.867C135.259 149.005 135.957 145.033 136.76 140.442V140.32H143.256L143.221 140.5C142.026 146.744 140.952 152.364 140.19 156.336V156.423H140.109L135.605 156.365L134.387 156.313C134.254 156.321 134.121 156.321 133.988 156.313H134.427H135.645L140.08 156.255L139.976 156.336C140.715 152.364 141.76 146.733 142.915 140.482L143.065 140.662H136.881L137.02 140.546C136.165 145.085 135.432 149.011 134.895 151.838C134.629 153.226 134.41 154.347 134.254 155.151C134.179 155.515 134.121 155.816 134.075 156.041C134.055 156.133 134.03 156.224 134 156.313Z" fill="#263238"/>
<path d="M123.994 156.313C123.994 156.313 123.994 156.273 123.994 156.192C123.994 156.111 123.994 155.966 124.046 155.816C124.104 155.463 124.179 154.978 124.277 154.353C124.49 153.052 124.791 151.191 125.166 148.878C125.951 144.171 127.037 137.626 128.278 130.173V130.052H134.78L134.745 130.231C132.84 141.003 131.159 150.526 130.126 156.331V156.406H130.057L125.541 156.354H124.358C124.229 156.362 124.1 156.362 123.971 156.354H124.08H124.392H125.593L130.057 156.308L129.97 156.377L134.462 130.254L134.612 130.434H128.451L128.596 130.312C127.308 137.713 126.176 144.189 125.362 148.878C124.947 151.191 124.617 153.07 124.381 154.382C124.265 155.012 124.179 155.539 124.109 155.868L124.034 156.261L123.994 156.313Z" fill="#263238"/>
<path d="M114.006 156.313C113.998 156.258 113.998 156.201 114.006 156.146C114.006 156.018 114.052 155.851 114.086 155.637C114.167 155.169 114.277 154.481 114.421 153.648C114.716 151.913 115.149 149.375 115.68 146.241C116.777 139.91 118.307 131.099 120.04 121.125V121.003H126.541L126.512 121.183C123.822 136.169 121.443 149.271 120.132 156.331V156.394H120.068L115.536 156.348H114.381H114.104H114.41H115.594L120.08 156.302L120.005 156.365C121.229 149.288 123.55 136.175 126.241 121.194L126.385 121.368H120.201L120.346 121.246C118.573 131.168 117.002 139.928 115.876 146.224C115.299 149.369 114.843 151.896 114.52 153.654C114.364 154.521 114.237 155.192 114.15 155.672C114.104 155.891 114.075 156.065 114.046 156.198C114.017 156.331 114.006 156.313 114.006 156.313Z" fill="#263238"/>
<path d="M109.654 110.099C109.656 110.244 109.613 110.387 109.534 110.508C109.454 110.63 109.34 110.725 109.206 110.781C109.072 110.838 108.924 110.853 108.781 110.825C108.639 110.798 108.508 110.728 108.404 110.626C108.301 110.523 108.231 110.392 108.202 110.25C108.173 110.107 108.187 109.959 108.243 109.825C108.298 109.69 108.392 109.575 108.513 109.494C108.634 109.413 108.776 109.37 108.921 109.37C109.114 109.37 109.3 109.447 109.438 109.583C109.575 109.72 109.653 109.905 109.654 110.099Z" fill="#263238"/>
<path d="M112.507 110.827C112.909 110.827 113.235 110.501 113.235 110.099C113.235 109.696 112.909 109.37 112.507 109.37C112.105 109.37 111.779 109.696 111.779 110.099C111.779 110.501 112.105 110.827 112.507 110.827Z" fill="#263238"/>
<path d="M116.822 110.099C116.823 110.244 116.781 110.387 116.701 110.509C116.621 110.63 116.507 110.725 116.372 110.782C116.238 110.838 116.09 110.853 115.947 110.825C115.804 110.797 115.673 110.727 115.57 110.624C115.467 110.521 115.397 110.389 115.369 110.246C115.341 110.103 115.356 109.955 115.412 109.821C115.469 109.686 115.564 109.572 115.685 109.491C115.807 109.411 115.949 109.369 116.095 109.37C116.287 109.372 116.471 109.449 116.608 109.585C116.744 109.721 116.821 109.906 116.822 110.099Z" fill="#263238"/>
<path d="M104.004 156.313C104.004 156.313 104.004 156.163 104.067 155.868C104.131 155.573 104.189 155.111 104.281 154.555C104.483 153.399 104.766 151.705 105.118 149.629C105.857 145.385 106.879 139.488 108.052 132.758V132.636H114.553L114.519 132.816C112.734 142.448 111.146 150.994 110.159 156.336V156.411H110.09L105.569 156.359H104.414C104.283 156.368 104.152 156.368 104.021 156.359H104.137H104.449H105.65L110.113 156.307L110.021 156.383L114.264 132.845L114.409 133.018H108.196L108.34 132.897C107.122 139.575 106.031 145.426 105.292 149.629C104.899 151.717 104.587 153.399 104.362 154.579C104.258 155.157 104.171 155.596 104.108 155.92L104.039 156.273C104.028 156.287 104.016 156.3 104.004 156.313Z" fill="#263238"/>
<path d="M171.496 132.787H138.537L140.419 121.708H173.609L171.496 132.787Z" fill="#FF725E"/>
<path d="M138.538 132.787L137.896 136.655C137.896 136.655 142.228 132.636 142.159 132.636H138.566" fill="#FF725E"/>
<path d="M168.638 125.559C168.638 125.64 163.147 125.71 156.379 125.71C149.612 125.71 144.115 125.64 144.115 125.559C144.115 125.478 149.606 125.409 156.379 125.409C163.152 125.409 168.638 125.478 168.638 125.559Z" fill="#FAFAFA"/>
<path d="M168.316 128.236C168.316 128.317 162.824 128.387 156.057 128.387C149.29 128.387 143.793 128.317 143.793 128.236C143.793 128.155 149.284 128.086 156.057 128.086C162.83 128.086 168.316 128.15 168.316 128.236Z" fill="#FAFAFA"/>
<path d="M222.22 184.268H128.322V239.133H222.22V184.268Z" fill="#263238"/>
<path d="M171.097 184.268H128.322V239.133H171.097V184.268Z" fill="#455A64"/>
<path d="M166.719 202.904C166.719 202.904 166.719 202.805 166.719 202.626C166.719 202.447 166.719 202.169 166.719 201.828C166.719 201.117 166.719 200.094 166.691 198.781C166.691 196.145 166.662 192.346 166.633 187.662L166.742 187.772L132.335 187.813C132.202 187.952 132.514 187.634 132.485 187.668V191.635C132.485 192.947 132.485 194.242 132.485 195.514C132.485 198.064 132.485 200.539 132.485 202.904L132.346 202.765L157.007 202.828L164.161 202.869H166.078H166.581H166.754C166.702 202.874 166.65 202.874 166.598 202.869H166.113H164.225L157.106 202.909L132.346 202.979H132.202V202.834C132.202 200.469 132.202 197.995 132.202 195.445V187.668C132.167 187.668 132.485 187.379 132.352 187.512L166.719 187.535H166.829V187.639C166.829 192.352 166.783 196.168 166.771 198.827C166.771 200.128 166.771 201.14 166.742 201.845C166.742 202.175 166.742 202.424 166.742 202.626C166.742 202.719 166.734 202.812 166.719 202.904Z" fill="#263238"/>
<path d="M151.001 195.282C151.001 195.282 150.966 195.155 150.897 194.941C150.8 194.646 150.612 194.388 150.36 194.207C150.178 194.075 149.966 193.991 149.743 193.961C149.52 193.932 149.293 193.959 149.083 194.039C148.83 194.134 148.611 194.304 148.456 194.527C148.302 194.75 148.219 195.014 148.219 195.285C148.219 195.556 148.302 195.821 148.456 196.044C148.611 196.267 148.83 196.437 149.083 196.531C149.294 196.609 149.52 196.634 149.742 196.605C149.964 196.576 150.176 196.493 150.36 196.364C150.612 196.182 150.8 195.925 150.897 195.629C150.966 195.415 150.972 195.282 151.001 195.282C151.03 195.282 151.047 195.415 151.001 195.658C150.934 196.002 150.748 196.311 150.475 196.531C150.269 196.699 150.023 196.811 149.761 196.857C149.499 196.902 149.23 196.88 148.979 196.792C148.668 196.682 148.397 196.479 148.206 196.209C148.015 195.939 147.912 195.616 147.912 195.285C147.912 194.955 148.015 194.632 148.206 194.362C148.397 194.092 148.668 193.889 148.979 193.779C149.23 193.692 149.498 193.669 149.76 193.714C150.022 193.758 150.268 193.868 150.475 194.034C150.748 194.255 150.935 194.567 151.001 194.912C151.047 195.155 151.018 195.288 151.001 195.282Z" fill="#263238"/>
<path d="M166.719 219.682C166.719 219.682 166.719 219.584 166.719 219.405C166.719 219.226 166.719 218.942 166.719 218.601C166.719 217.89 166.719 216.867 166.69 215.56C166.69 212.917 166.661 209.125 166.632 204.441L166.742 204.551L132.334 204.592L132.484 204.441V208.402C132.484 209.714 132.484 211.004 132.484 212.281C132.484 214.831 132.484 217.3 132.484 219.671L132.346 219.526L157.007 219.596L164.161 219.636H166.078H166.58C166.638 219.631 166.696 219.631 166.753 219.636H166.597H166.112H164.224L157.105 219.677L132.346 219.746H132.201V219.601C132.201 217.231 132.201 214.762 132.201 212.212V204.453L132.351 204.302L166.759 204.343H166.869V204.453C166.869 209.165 166.823 212.981 166.811 215.635C166.811 216.936 166.811 217.948 166.782 218.659C166.782 218.988 166.782 219.237 166.782 219.434C166.766 219.518 166.745 219.601 166.719 219.682Z" fill="#263238"/>
<path d="M151.001 212.062C151.001 212.062 150.966 211.929 150.897 211.715C150.8 211.419 150.612 211.162 150.36 210.981C150.176 210.851 149.964 210.769 149.742 210.74C149.52 210.71 149.294 210.736 149.083 210.813C148.83 210.908 148.611 211.078 148.456 211.301C148.302 211.523 148.219 211.788 148.219 212.059C148.219 212.33 148.302 212.595 148.456 212.817C148.611 213.04 148.83 213.21 149.083 213.305C149.293 213.385 149.519 213.412 149.742 213.384C149.964 213.355 150.176 213.273 150.36 213.143C150.614 212.961 150.802 212.701 150.897 212.403C150.966 212.189 150.972 212.062 151.001 212.062C151.03 212.062 151.047 212.195 151.001 212.432C150.936 212.778 150.749 213.09 150.475 213.311C150.268 213.478 150.022 213.589 149.76 213.633C149.499 213.678 149.23 213.654 148.979 213.565C148.668 213.456 148.397 213.252 148.206 212.982C148.015 212.713 147.912 212.39 147.912 212.059C147.912 211.728 148.015 211.406 148.206 211.136C148.397 210.866 148.668 210.662 148.979 210.553C149.23 210.464 149.499 210.442 149.761 210.488C150.023 210.533 150.269 210.645 150.475 210.813C150.749 211.034 150.936 211.346 151.001 211.692C151.047 211.929 151.018 212.062 151.001 212.062Z" fill="#263238"/>
<path d="M166.719 236.456C166.719 236.456 166.719 236.357 166.719 236.178C166.719 235.999 166.719 235.721 166.719 235.38C166.719 234.669 166.719 233.646 166.691 232.333C166.691 229.697 166.662 225.898 166.633 221.214L166.742 221.324L132.335 221.365C132.202 221.504 132.514 221.186 132.485 221.22V225.187C132.485 226.499 132.485 227.794 132.485 229.066C132.485 231.616 132.485 234.091 132.485 236.456L132.346 236.317L157.007 236.38L164.161 236.421H166.078H166.581H166.754C166.702 236.426 166.65 236.426 166.598 236.421H166.113H164.225L157.106 236.456L132.346 236.525H132.202V236.38C132.202 234.016 132.202 231.541 132.202 228.991V221.22C132.167 221.249 132.485 220.931 132.352 221.064L166.76 221.11H166.87V221.214C166.87 225.927 166.823 229.749 166.812 232.402C166.812 233.703 166.812 234.715 166.783 235.421C166.783 235.756 166.783 235.999 166.783 236.201C166.768 236.287 166.746 236.372 166.719 236.456Z" fill="#263238"/>
<path d="M151.001 228.835C151.001 228.835 150.966 228.708 150.897 228.494C150.8 228.198 150.612 227.941 150.36 227.76C150.177 227.629 149.965 227.545 149.742 227.516C149.52 227.487 149.294 227.513 149.083 227.592C148.83 227.687 148.611 227.857 148.456 228.079C148.302 228.302 148.219 228.567 148.219 228.838C148.219 229.109 148.302 229.374 148.456 229.596C148.611 229.819 148.83 229.989 149.083 230.084C149.294 230.163 149.52 230.189 149.742 230.16C149.965 230.13 150.177 230.047 150.36 229.916C150.612 229.735 150.8 229.478 150.897 229.182C150.966 228.968 150.972 228.835 151.001 228.835C151.03 228.835 151.047 228.968 151.001 229.211C150.933 229.556 150.747 229.867 150.475 230.09C150.268 230.255 150.022 230.365 149.76 230.41C149.498 230.454 149.23 230.432 148.979 230.344C148.668 230.235 148.397 230.031 148.206 229.761C148.015 229.491 147.912 229.169 147.912 228.838C147.912 228.507 148.015 228.184 148.206 227.915C148.397 227.645 148.668 227.441 148.979 227.332C149.23 227.244 149.498 227.222 149.76 227.266C150.022 227.311 150.268 227.421 150.475 227.586C150.748 227.808 150.935 228.119 151.001 228.465C151.047 228.708 151.018 228.841 151.001 228.835Z" fill="#263238"/>
<path d="M82.017 184.268H3.0332V239.133H82.017V184.268Z" fill="#263238"/>
<path d="M225.622 180.441H0V185.656H225.622V180.441Z" fill="#263238"/>
<path d="M10.0314 185.656H3.0332V239.133H10.0314V185.656Z" fill="#455A64"/>
<path d="M90.7509 97.9163C90.7044 97.6969 90.6716 97.4748 90.6527 97.2514C90.5687 96.6571 90.3727 96.0841 90.0752 95.563C89.8824 95.2141 89.5884 94.9318 89.232 94.7536C89.0312 94.6672 88.8092 94.6425 88.5943 94.6827C88.3794 94.7228 88.1812 94.826 88.025 94.9791C87.3561 95.8104 86.9914 96.8459 86.9914 97.9134C86.9914 98.9809 87.3561 100.016 88.025 100.848C88.1806 101.002 88.3784 101.106 88.5934 101.147C88.8083 101.188 89.0306 101.165 89.232 101.079C89.5876 100.897 89.881 100.613 90.0752 100.264C90.3727 99.7426 90.5687 99.1697 90.6527 98.5754C90.6712 98.3538 90.704 98.1336 90.7509 97.9163C90.7884 98.1402 90.7884 98.3688 90.7509 98.5928C90.7123 99.2155 90.541 99.8227 90.2485 100.374C90.0397 100.771 89.7155 101.095 89.3187 101.304C89.0835 101.417 88.8196 101.456 88.5621 101.414C88.2932 101.362 88.0426 101.24 87.8344 101.062C87.089 100.184 86.6797 99.0687 86.6797 97.9163C86.6797 96.7639 87.089 95.649 87.8344 94.7709C88.0407 94.5886 88.292 94.4648 88.5621 94.4125C88.8196 94.3741 89.0827 94.4123 89.3187 94.5223C89.7155 94.7314 90.0397 95.0559 90.2485 95.4532C90.5418 96.0059 90.7131 96.6151 90.7509 97.2398C90.788 97.4638 90.788 97.6923 90.7509 97.9163Z" fill="#263238"/>
<path d="M65.8221 86.6125L64.0898 121.258L78.9523 122.657L79.7723 114.244C79.7723 114.244 84.969 115.539 86.5857 110.7C87.5962 107.607 88.4969 83.3862 88.4969 83.3862L65.8221 86.6125Z" fill="#FFBE9D"/>
<path d="M91.6579 86.9595C90.3933 89.9718 85.624 92.5563 85.624 92.5563L84.8444 100.229C84.1351 100.18 83.4232 100.18 82.7138 100.229C83.0949 96.6268 78.4699 97.3379 77.9964 99.7837C77.546 102.143 80.231 103.721 80.231 103.721C78.3775 106.566 77.6268 108.069 74.9939 110.735C72.153 113.625 70.6229 113.857 67.6839 113.77L64.4446 113.62C64.4446 113.62 63.2898 110.85 62.4525 104.311C62.0426 101.166 59.5655 97.0431 60.2873 91.9261C62.2735 77.3962 78.3313 79.9749 78.3313 79.9749C84.3594 75.2801 94.6373 79.8767 91.6579 86.9595Z" fill="#263238"/>
<path d="M90.7492 97.9568C89.6531 98.1684 88.5396 98.2768 87.4234 98.2806C86.3131 98.3793 85.1962 98.3793 84.0859 98.2806C85.1805 98.0725 86.2919 97.9661 87.406 97.9626C88.5182 97.8637 89.6368 97.8618 90.7492 97.9568Z" fill="#263238"/>
<path d="M138.096 138.655L132.698 142.003L130.717 146.628V142.581C130.717 142.581 132.184 140.847 133.385 139.58C134.586 138.314 133.725 137.435 133.385 137.002C133.044 136.568 127.876 142.581 127.876 142.581V146.05C125.469 143.084 124.354 144.102 123.985 144.639C123.615 145.177 127.876 149.201 127.876 149.201V150.427L106.703 161.829L101.131 147.953L89.75 153.937L96.5461 170.409C97.0147 171.549 97.7226 172.574 98.6218 173.416C99.5211 174.257 100.591 174.895 101.758 175.286C102.925 175.677 104.162 175.812 105.386 175.682C106.61 175.552 107.792 175.16 108.851 174.532L133.766 159.782L135.423 157.013C135.998 156.058 136.337 154.98 136.41 153.867L137.271 141.407C138.784 140.459 138.096 138.655 138.096 138.655Z" fill="#FFBE9D"/>
<path d="M106.807 161.846C106.304 163.798 105.604 165.692 104.717 167.501C105.227 165.552 105.927 163.658 106.807 161.846Z" fill="#EB996E"/>
<path d="M137.273 141.407C136.954 141.572 136.626 141.719 136.291 141.847C135.909 142.028 135.568 142.286 135.289 142.604C135.01 142.922 134.799 143.294 134.669 143.697C134.237 144.861 133.711 145.989 133.098 147.068C133.436 145.879 133.869 144.719 134.391 143.599C134.56 143.126 134.828 142.694 135.177 142.333C135.476 142.054 135.822 141.831 136.199 141.673C136.532 141.504 136.899 141.413 137.273 141.407Z" fill="#EB996E"/>
<path d="M137.191 143.379C137.097 143.392 137.007 143.425 136.928 143.477C136.849 143.529 136.783 143.599 136.734 143.68C136.567 144.004 136.353 144.512 136.157 145.056C135.94 145.744 135.685 146.419 135.395 147.08C135.395 146.342 135.559 145.613 135.874 144.946C136.06 144.459 136.299 143.994 136.584 143.558C136.636 143.486 136.704 143.426 136.782 143.382C136.859 143.338 136.946 143.311 137.035 143.304C137.144 143.304 137.196 143.362 137.191 143.379Z" fill="#EB996E"/>
<path d="M86.3525 151.826L88.7719 160.031L104.125 153.093C103.548 151.358 101.03 143.72 96.1742 131.578C94.8445 128.249 92.6816 125.319 89.8936 123.069C87.1057 120.819 83.7864 119.325 80.2551 118.731C75.2316 117.893 69.7636 117.239 65.5543 117.291C61.3752 117.33 57.3362 118.804 54.1119 121.466C50.8876 124.129 48.6734 127.819 47.8394 131.919C46.5402 138.366 48.8152 142.627 47.3486 156.735L46.8809 192.219L87.8769 193.728L86.3525 151.826Z" fill="#FF725E"/>
<path d="M49.2519 156.36C49.2519 156.36 43.5528 156.695 41.3125 152.376C41.3125 152.376 47.4504 129.653 49.5925 126.976L49.2519 156.36Z" fill="#FF725E"/>
<path d="M96.9461 133.868C96.7993 133.981 96.6356 134.071 96.4611 134.134C95.9589 134.316 95.4304 134.416 94.8963 134.429C94.0569 134.424 93.2212 134.318 92.4077 134.111C91.4607 133.897 90.404 133.579 89.2204 133.382C88.6035 133.308 87.9824 133.275 87.3611 133.284C86.689 133.337 86.0226 133.447 85.369 133.613C83.9192 134.008 82.5273 134.591 81.229 135.348C79.8259 136.111 78.3997 137.013 76.8811 137.904C75.3229 138.872 73.6536 139.648 71.9097 140.216C70.1176 140.772 68.204 140.802 66.3954 140.303C64.7552 139.772 63.2266 138.943 61.8858 137.857C60.5982 136.857 59.478 135.805 58.4214 134.845C57.4577 133.945 56.4354 133.111 55.3611 132.347C53.8318 131.203 52.049 130.445 50.1644 130.139C49.4682 130.099 48.7704 130.099 48.0742 130.139C48.2445 130.069 48.4231 130.023 48.6054 130C49.1284 129.916 49.659 129.891 50.1875 129.925C52.1339 130.151 53.9903 130.871 55.5805 132.018C56.6897 132.767 57.7434 133.596 58.7332 134.498C59.8072 135.446 60.9389 136.475 62.1976 137.435C63.4918 138.462 64.961 139.245 66.534 139.748C68.2406 140.208 70.0426 140.174 71.7307 139.65C73.4267 139.095 75.0524 138.344 76.5751 137.412C78.0822 136.539 79.5199 135.637 80.9519 134.874C82.2988 134.108 83.7415 133.524 85.242 133.139C85.9284 132.975 86.6278 132.87 87.3322 132.827C87.9835 132.834 88.6335 132.884 89.2781 132.977C90.5022 133.209 91.5473 133.556 92.4769 133.798C93.2615 134.025 94.0693 134.161 94.8847 134.203C95.5851 134.199 96.2805 134.086 96.9461 133.868Z" fill="#263238"/>
<path d="M86.62 162.182C85.8373 161.715 84.9732 161.401 84.0736 161.256C83.0938 161.141 82.1015 161.195 81.1404 161.418C80.0433 161.638 78.8596 162.037 77.5604 162.361C75.331 162.935 72.9969 162.966 70.7528 162.453C69.0205 162.049 68.0909 161.499 68.1198 161.442C68.1487 161.384 69.1534 161.748 70.8394 162.02C73.0258 162.392 75.2658 162.304 77.4161 161.76C78.6806 161.442 79.8874 161.054 81.0364 160.852C82.0605 160.644 83.1145 160.633 84.1429 160.817C84.8391 160.941 85.5007 161.213 86.083 161.615C86.4872 161.933 86.6488 162.158 86.62 162.182Z" fill="#263238"/>
<path d="M87.0379 183.366C87.0379 183.366 86.882 183.627 86.4951 183.991C85.9362 184.503 85.3108 184.936 84.6358 185.28C83.6232 185.807 82.5027 186.092 81.3619 186.113C79.9693 186.075 78.5971 185.768 77.3201 185.211C75.9747 184.685 74.7448 184.095 73.5842 183.765C72.5585 183.452 71.4846 183.326 70.4143 183.395C69.6993 183.438 69.002 183.636 68.3702 183.974C67.9198 184.222 67.712 184.425 67.6716 184.384C67.6311 184.344 67.8101 184.101 68.249 183.806C68.8749 183.352 69.6063 183.065 70.3738 182.973C71.5003 182.842 72.6415 182.93 73.7344 183.233C75.0299 183.637 76.3022 184.111 77.5453 184.656C78.7493 185.183 80.038 185.491 81.3504 185.564C82.416 185.568 83.4699 185.341 84.4395 184.899C86.1429 184.13 86.9801 183.28 87.0379 183.366Z" fill="#263238"/>
<g opacity="0.3">
<path d="M42.5723 156.758C47.9422 157.857 53.4564 156.758 58.9245 156.423C62.2446 156.227 65.9227 155.845 68.5441 157.909C70.6228 159.528 71.4312 162.251 72.0605 164.818C74.3702 174.613 74.7686 183.361 75.2825 193.404L48.7217 192.826L42.5723 156.758Z" fill="black"/>
</g>
<path opacity="0.3" d="M49.5927 138.32L50.7419 154.902H47.2422L49.5927 138.32Z" fill="black"/>
<path d="M57.0527 192.195L109.77 194.063C113.884 194.208 117.777 195.963 120.612 198.951C123.448 201.94 124.999 205.923 124.933 210.044L124.471 240H105.139L103.892 214.172L57.0527 212.935V192.195Z" fill="#263238"/>
<path d="M74.7349 219.584H69.5488V238.589H74.7349V219.584Z" fill="#455A64"/>
<path d="M26.0391 159.204V204.996C26.0406 207.88 27.1856 210.645 29.2222 212.683C31.2589 214.721 34.0206 215.866 36.9001 215.866H67.3527V159.204C67.3511 157.918 66.8401 156.686 65.9317 155.778C65.0234 154.869 63.792 154.359 62.5082 154.359H30.8777C29.5944 154.359 28.3637 154.869 27.4563 155.778C26.5489 156.687 26.0391 157.919 26.0391 159.204Z" fill="#455A64"/>
<path d="M108.336 219.584H34.1738C34.183 217.444 35.0387 215.394 36.5537 213.883C38.0687 212.372 40.1196 211.524 42.2575 211.524H100.316C102.451 211.524 104.498 212.374 106.008 213.885C107.517 215.397 108.365 217.447 108.365 219.584H108.336Z" fill="#455A64"/>
<path d="M67.352 210.455C67.3857 210.907 67.3467 211.362 67.2366 211.802C66.9879 212.833 66.4459 213.769 65.6762 214.498C64.9065 215.227 63.9422 215.716 62.9002 215.907C62.4288 215.984 61.9514 216.016 61.474 216.005H59.9785H53.3152H41.1896L37.5231 215.959H36.5242C36.4077 215.963 36.2912 215.951 36.1777 215.924C36.2923 215.906 36.4081 215.896 36.5242 215.895L37.5231 215.866L41.1896 215.814L53.3152 215.757H61.474C61.9375 215.774 62.4016 215.747 62.8598 215.676C63.6705 215.535 64.4363 215.205 65.0944 214.71C66.0709 213.987 66.7765 212.957 67.098 211.784C67.3405 210.94 67.3116 210.449 67.352 210.455Z" fill="#263238"/>
<path d="M76.6821 219.74C75.1724 219.893 73.6543 219.943 72.1379 219.891C70.6196 219.943 69.0995 219.893 67.5879 219.74C69.0997 219.591 70.6196 219.541 72.1379 219.59C73.6543 219.541 75.1722 219.592 76.6821 219.74Z" fill="#263238"/>
<path d="M99.2489 216.271C99.1773 216.085 99.1307 215.891 99.1104 215.693C99.0353 215.317 98.9371 214.774 98.8217 214.068C98.5849 212.652 98.2443 210.599 97.8747 208.078C97.6669 206.818 97.4994 205.413 97.2222 203.95C97.1472 203.586 97.0779 203.216 97.0028 202.834C96.9278 202.452 96.7834 202.094 96.6737 201.712C96.616 201.527 96.564 201.331 96.5063 201.134C96.4485 200.938 96.3619 200.758 96.2868 200.556C96.1309 200.174 95.9924 199.787 95.8249 199.4C95.0918 197.816 94.1646 196.33 93.0649 194.976C91.864 193.538 90.4663 192.277 88.9133 191.23C87.3672 190.17 85.6696 189.352 83.8783 188.801C82.2159 188.273 80.4885 187.977 78.7452 187.923C75.3846 187.847 72.3244 187.865 69.7722 187.83C67.2201 187.795 65.153 187.766 63.721 187.732C63.005 187.732 62.4507 187.697 62.0696 187.674C61.8754 187.68 61.6813 187.66 61.4922 187.616C61.6807 187.568 61.8751 187.546 62.0696 187.553L63.721 187.495C65.1472 187.46 67.2201 187.431 69.7722 187.402C72.3244 187.373 75.3673 187.321 78.7625 187.368C80.5598 187.406 82.3426 187.7 84.0573 188.241C85.9085 188.795 87.6619 189.636 89.254 190.733C90.8581 191.808 92.2975 193.111 93.5268 194.601C94.6523 196.001 95.5971 197.537 96.3388 199.174C96.5063 199.567 96.6448 199.972 96.8007 200.359C96.87 200.556 96.9451 200.747 97.0201 200.938C97.0952 201.128 97.1299 201.331 97.1876 201.516C97.2973 201.909 97.4012 202.291 97.5052 202.672C97.6091 203.054 97.6495 203.441 97.7188 203.829C97.9786 205.326 98.1172 206.719 98.2962 207.98C98.6253 210.518 98.8736 212.577 99.0526 213.999C99.1335 214.71 99.197 215.265 99.2316 215.641C99.269 215.849 99.2748 216.061 99.2489 216.271Z" fill="#455A64"/>
<path d="M5.66231 160.858C5.66231 160.858 4.72673 163.477 6.51704 165.374H10.242C10.242 165.374 9.91285 161.141 5.66231 160.858Z" fill="#FF725E"/>
<path opacity="0.4" d="M5.66231 160.858C5.66231 160.858 4.72673 163.477 6.51704 165.374H10.242C10.242 165.374 9.91285 161.141 5.66231 160.858Z" fill="black"/>
<path d="M12.0039 155.463C11.8479 155.278 8.66004 160.274 10.4503 165.374H13.9617C13.9617 165.374 15.3362 159.441 12.0039 155.463Z" fill="#FF725E"/>
<path d="M18.223 160.858C17.0752 160.935 15.9987 161.443 15.2086 162.28C14.4185 163.117 13.9729 164.222 13.9609 165.374H17.4665C17.4665 165.374 19.0027 163.211 18.223 160.858Z" fill="#FF725E"/>
<path d="M6.2259 165.177C5.01512 166.047 4.07604 167.244 3.51793 168.628C2.95981 170.012 2.8056 171.526 3.07324 172.994C3.974 178.198 9.45939 180.441 9.45939 180.441H15.5395C15.5395 180.441 21.7293 177.706 21.5792 172.081C21.4291 166.455 17.7452 165.258 17.7452 165.258L6.2259 165.177Z" fill="#455A64"/>
<path d="M21.555 171.45C21.4174 171.218 21.2483 171.006 21.0527 170.82C20.7699 170.594 20.4452 170.427 20.0973 170.327C19.7493 170.228 19.3852 170.199 19.026 170.242C17.9507 170.446 16.9346 170.889 16.0523 171.537C15.4919 171.896 14.8983 172.2 14.2797 172.445C13.5971 172.705 12.8579 172.779 12.1375 172.659C10.6536 172.404 9.46986 171.607 8.36124 171.075C7.41792 170.523 6.33367 170.262 5.24323 170.323C4.51423 170.399 3.83928 170.743 3.34933 171.289C3.18561 171.504 3.04618 171.736 2.93359 171.982C2.93745 171.91 2.95105 171.838 2.97401 171.768C3.03385 171.561 3.12961 171.365 3.25694 171.19C3.74111 170.582 4.44365 170.188 5.21436 170.092C6.36079 169.991 7.5103 170.247 8.50559 170.826C9.66041 171.358 10.8152 172.127 12.2068 172.358C12.8778 172.474 13.5675 172.408 14.2046 172.167C14.8083 171.932 15.3884 171.64 15.9368 171.294C16.8576 170.64 17.9167 170.206 19.0318 170.028C19.4164 169.99 19.8046 170.034 20.1716 170.155C20.5385 170.277 20.876 170.474 21.1624 170.733C21.3114 170.88 21.4327 171.052 21.5204 171.242C21.5493 171.375 21.5666 171.445 21.555 171.45Z" fill="#263238"/>
<path d="M21.6403 172.809C21.5018 172.581 21.3349 172.371 21.1437 172.185C20.8653 171.957 20.5436 171.789 20.1982 171.689C19.8529 171.59 19.4909 171.562 19.1343 171.606C18.0709 171.811 17.0667 172.252 16.1953 172.896C15.6495 173.257 15.0692 173.563 14.4631 173.809C13.7868 174.07 13.0529 174.144 12.3382 174.023C10.8658 173.769 9.69371 172.971 8.59663 172.439C7.66784 171.889 6.59663 171.627 5.51905 171.687C4.79475 171.767 4.12581 172.113 3.64247 172.659C3.48122 172.871 3.34556 173.102 3.23828 173.347C3.23828 173.347 3.23828 173.272 3.27292 173.133C3.33539 172.936 3.42897 172.751 3.55008 172.584C4.02648 171.977 4.72054 171.581 5.4844 171.479C6.61152 171.377 7.74277 171.625 8.72366 172.19C9.84384 172.722 11.0333 173.491 12.3844 173.723C13.0478 173.838 13.7301 173.772 14.3592 173.532C14.954 173.297 15.5245 173.005 16.0625 172.659C16.9725 172.004 18.0223 171.571 19.1286 171.392C19.505 171.359 19.8843 171.404 20.2423 171.525C20.6002 171.647 20.9289 171.842 21.2072 172.098C21.3536 172.243 21.4729 172.414 21.5595 172.601C21.5977 172.665 21.6251 172.736 21.6403 172.809Z" fill="#263238"/>
<path d="M5.86326 172.774C5.86326 172.74 6.02496 172.636 6.23865 172.809C6.30322 172.865 6.34938 172.939 6.37103 173.021C6.39269 173.104 6.38881 173.191 6.35992 173.272C6.32439 173.371 6.25775 173.455 6.17001 173.513C6.08227 173.571 5.97817 173.599 5.87335 173.592C5.76853 173.585 5.66866 173.545 5.58874 173.477C5.50881 173.409 5.45315 173.316 5.43012 173.214C5.40982 173.135 5.41146 173.051 5.43486 172.973C5.45826 172.894 5.50254 172.824 5.56295 172.769C5.77086 172.595 5.94989 172.676 5.93834 172.711C5.92679 172.745 5.81128 172.774 5.72466 172.913C5.70595 172.948 5.69616 172.987 5.69616 173.026C5.69616 173.065 5.70595 173.104 5.72466 173.139C5.74158 173.179 5.76845 173.215 5.80278 173.242C5.83712 173.269 5.87779 173.287 5.92101 173.295C5.96366 173.293 6.0052 173.281 6.04162 173.258C6.07804 173.236 6.1081 173.205 6.12892 173.168C6.14826 173.135 6.15847 173.098 6.15847 173.061C6.15847 173.023 6.14826 172.986 6.12892 172.954C6.00186 172.821 5.86903 172.815 5.86326 172.774Z" fill="#263238"/>
<path d="M12.7484 170.577C12.7484 170.543 12.9101 170.433 13.1295 170.612C13.1918 170.669 13.2359 170.744 13.2565 170.826C13.277 170.908 13.273 170.995 13.245 171.075C13.2086 171.173 13.142 171.257 13.0549 171.315C12.9678 171.373 12.8645 171.402 12.7599 171.398C12.6555 171.388 12.5567 171.346 12.4771 171.278C12.3975 171.21 12.341 171.119 12.3152 171.017C12.2943 170.937 12.2962 170.853 12.3207 170.774C12.3452 170.695 12.3913 170.625 12.4538 170.572C12.6617 170.398 12.8408 170.479 12.8234 170.514C12.8061 170.548 12.6964 170.577 12.6098 170.716C12.5924 170.751 12.5834 170.79 12.5834 170.829C12.5834 170.868 12.5924 170.907 12.6098 170.942C12.6267 170.982 12.6536 171.018 12.6879 171.045C12.7222 171.072 12.7629 171.09 12.8061 171.098C12.8489 171.097 12.8907 171.084 12.9272 171.062C12.9637 171.04 12.9936 171.008 13.014 170.971C13.034 170.938 13.0446 170.901 13.0446 170.864C13.0446 170.826 13.034 170.789 13.014 170.757C12.887 170.624 12.7541 170.618 12.7484 170.577Z" fill="#263238"/>
<path d="M19.4298 172.873C19.4298 172.838 19.5915 172.734 19.811 172.907C19.8732 172.965 19.9174 173.039 19.9379 173.121C19.9584 173.204 19.9544 173.29 19.9265 173.37C19.89 173.468 19.8235 173.552 19.7363 173.611C19.6492 173.669 19.546 173.698 19.4413 173.694C19.3377 173.684 19.2395 173.643 19.1599 173.576C19.0804 173.509 19.0234 173.419 18.9967 173.318C18.9759 173.237 18.9779 173.152 19.0023 173.073C19.0268 172.993 19.0728 172.922 19.1353 172.867C19.3432 172.694 19.5222 172.774 19.5049 172.809C19.4875 172.844 19.3778 172.879 19.2912 173.012C19.2669 173.046 19.2519 173.086 19.2476 173.127C19.2433 173.169 19.25 173.211 19.2668 173.25C19.2837 173.288 19.3103 173.322 19.3439 173.347C19.3775 173.372 19.4171 173.388 19.4587 173.393C19.5014 173.392 19.5432 173.38 19.5797 173.358C19.6162 173.335 19.6462 173.304 19.6666 173.266C19.6865 173.234 19.6971 173.197 19.6971 173.159C19.6971 173.121 19.6865 173.084 19.6666 173.052C19.5684 172.925 19.4413 172.913 19.4298 172.873Z" fill="#263238"/>
<path d="M195.193 159.869L197.174 180.441H207.186L209.582 159.869H195.193Z" fill="#455A64"/>
<path d="M195.193 157.209C194.577 157.98 194.245 158.94 194.252 159.927H210.523C210.603 159.431 210.558 158.924 210.394 158.45C210.23 157.975 209.951 157.549 209.582 157.209H195.193Z" fill="#263238"/>
<path d="M197.047 155.324L196.498 157.36L208.78 157.452L207.965 155.301L197.047 155.324Z" fill="#263238"/>
<path d="M195.008 165.021C195.008 165.212 196.163 175.393 196.163 175.393H208.398L209.553 165.038L195.008 165.021Z" fill="#FF725E"/>
</svg>
