<svg viewBox="0 0 199 240" xmlns="http://www.w3.org/2000/svg">
<path d="M51.2841 228.858C51.2841 228.858 49.8318 236.625 62.6232 237.194C75.4146 237.764 101.749 238.395 101.749 238.395L100.097 221.704L59.0922 218.859L52.5427 223.673L51.2841 228.858Z" fill="#E0E0E0"/>
<path d="M189.887 0H67.8056C62.7731 0 58.6934 4.07651 58.6934 9.10514V230.895C58.6934 235.923 62.7731 240 67.8056 240H189.887C194.92 240 199 235.923 199 230.895V9.10514C199 4.07651 194.92 0 189.887 0Z" fill="#263238"/>
<path d="M66.4219 11.0059H191.266V230.884H69.3891C68.6021 230.884 67.8474 230.571 67.2909 230.015C66.7345 229.459 66.4219 228.705 66.4219 227.919V11.0059Z" fill="white"/>
<path d="M141.104 5.76468H114.405C113.982 5.76468 113.577 5.5968 113.278 5.29798C112.979 4.99916 112.811 4.59387 112.811 4.17128C112.811 3.74868 112.979 3.3434 113.278 3.04458C113.577 2.74576 113.982 2.57788 114.405 2.57788H141.104C141.527 2.57788 141.933 2.74576 142.232 3.04458C142.531 3.3434 142.699 3.74868 142.699 4.17128C142.699 4.59387 142.531 4.99916 142.232 5.29798C141.933 5.5968 141.527 5.76468 141.104 5.76468Z" fill="#455A64"/>
<path d="M83.4423 34.4969V36.0619H83.317C83.2358 35.6948 83.0356 35.3647 82.7475 35.1229C82.4939 34.9105 82.1728 34.7955 81.8419 34.7986C81.5652 34.7963 81.2946 34.8798 81.0674 35.0376C80.8352 35.194 80.6548 35.4158 80.5491 35.6749C80.4016 36.0359 80.3299 36.4233 80.3384 36.8131C80.3339 37.1867 80.3857 37.5589 80.4922 37.9171C80.5696 38.2127 80.7367 38.4771 80.9706 38.6739C81.2159 38.8535 81.5153 38.9439 81.8191 38.93C82.0908 38.9334 82.359 38.8689 82.5994 38.7422C82.887 38.5754 83.1418 38.3574 83.3511 38.0992V38.4861C83.1292 38.7281 82.8597 38.9219 82.5595 39.0552C82.2545 39.181 81.9269 39.243 81.597 39.2373C81.1508 39.2459 80.7092 39.1463 80.3099 38.9471C79.9424 38.7615 79.6389 38.4701 79.4386 38.1106C79.2429 37.7629 79.1391 37.3712 79.1367 36.9724C79.1376 36.5401 79.2535 36.1159 79.4727 35.7432C79.6908 35.3657 80.0079 35.0549 80.3897 34.8441C80.7637 34.6347 81.1854 34.525 81.6141 34.5254C81.9598 34.532 82.3014 34.6014 82.6222 34.7303C82.7454 34.787 82.8756 34.8272 83.0094 34.8498C83.0441 34.8505 83.0786 34.8443 83.1108 34.8316C83.1431 34.8189 83.1725 34.7999 83.1974 34.7758C83.2558 34.7045 83.2916 34.6172 83.2999 34.5254L83.4423 34.4969Z" fill="#263238"/>
<path d="M85.3247 34.6052V36.4092C85.4601 36.2569 85.6198 36.128 85.7974 36.0279C85.9341 35.9545 86.0865 35.9155 86.2416 35.9141C86.4237 35.9094 86.6015 35.97 86.7428 36.0848C86.8747 36.1833 86.9723 36.3206 87.0219 36.4775C87.078 36.7256 87.1009 36.9801 87.0902 37.2343V38.4521C87.0762 38.603 87.0977 38.755 87.1529 38.896C87.2266 38.9667 87.3241 39.0072 87.4262 39.0098V39.1293H85.843V39.0098C85.8918 39.0051 85.9391 38.9905 85.9822 38.9671C86.0253 38.9436 86.0631 38.9117 86.0936 38.8733C86.1483 38.74 86.1698 38.5955 86.1562 38.4521V37.0522C86.1644 36.8902 86.1529 36.7278 86.122 36.5685C86.1059 36.5073 86.0698 36.4533 86.0195 36.4149C85.9744 36.3784 85.9181 36.3583 85.8601 36.358C85.7645 36.3608 85.6725 36.3948 85.5981 36.4547C85.4868 36.5419 85.3939 36.6502 85.3247 36.7734V38.4465C85.3123 38.587 85.3298 38.7286 85.376 38.8619C85.4063 38.9035 85.4456 38.9379 85.4909 38.9625C85.5362 38.9871 85.5864 39.0013 85.6379 39.0041V39.1237H84.0547V39.0041C84.1076 39.0023 84.1596 38.9897 84.2076 38.9672C84.2556 38.9447 84.2985 38.9127 84.3338 38.8733C84.3877 38.7379 84.4073 38.5912 84.3907 38.4465V35.2767C84.4049 35.1278 84.3834 34.9776 84.3281 34.8385C84.2543 34.7679 84.1568 34.7273 84.0547 34.7247V34.6052H85.3247Z" fill="#263238"/>
<path d="M89.5718 38.6626C89.3008 38.9464 88.9372 39.124 88.5467 39.1634C88.465 39.1658 88.3837 39.1515 88.3077 39.1215C88.2317 39.0915 88.1626 39.0464 88.1046 38.989C88.0465 38.9315 88.0008 38.8629 87.9701 38.7872C87.9393 38.7116 87.9243 38.6305 87.9259 38.5488C87.9286 38.4268 87.9574 38.3068 88.0105 38.1968C88.0635 38.0869 88.1396 37.9896 88.2334 37.9115C88.6432 37.5983 89.0934 37.3418 89.5718 37.1489V36.8359C89.5822 36.6868 89.5688 36.5369 89.5319 36.3921C89.5028 36.3251 89.4529 36.2692 89.3896 36.2327C89.3178 36.1879 89.2349 36.1643 89.1504 36.1644C89.0237 36.1593 88.8985 36.1931 88.7916 36.2612C88.7664 36.2757 88.7453 36.2963 88.7304 36.3212C88.7154 36.3461 88.7071 36.3744 88.7061 36.4034C88.7151 36.4694 88.7475 36.5299 88.7973 36.5742C88.8725 36.6481 88.9172 36.7476 88.9225 36.853C88.9228 36.9052 88.9123 36.9569 88.8917 37.0048C88.8711 37.0528 88.8409 37.096 88.803 37.1318C88.7152 37.2093 88.601 37.2501 88.484 37.2457C88.3541 37.2478 88.228 37.2011 88.1309 37.1148C88.0869 37.0789 88.0514 37.0338 88.0268 36.9826C88.0022 36.9315 87.9891 36.8756 87.9885 36.8189C87.9944 36.6484 88.0634 36.4861 88.1822 36.3636C88.3251 36.2059 88.5082 36.0899 88.7118 36.0278C88.9387 35.9481 89.1775 35.9077 89.418 35.9083C89.6673 35.8954 89.9144 35.9611 90.1242 36.0961C90.2725 36.197 90.3875 36.3396 90.4546 36.5059C90.5002 36.717 90.5174 36.9332 90.5058 37.1489V38.361C90.4958 38.4499 90.4958 38.5396 90.5058 38.6285C90.5127 38.6606 90.5285 38.6902 90.5514 38.7139C90.5773 38.7221 90.6052 38.7221 90.6311 38.7139C90.6881 38.7139 90.745 38.674 90.8077 38.5944L90.9045 38.674C90.8183 38.8171 90.7016 38.9395 90.5628 39.0325C90.4408 39.1058 90.3007 39.1433 90.1584 39.1407C90.0075 39.1507 89.8579 39.1062 89.737 39.0155C89.6421 38.9209 89.5836 38.796 89.5718 38.6626ZM89.5718 38.4179V37.3765C89.3491 37.5045 89.1553 37.6769 89.0023 37.883C88.9174 37.9854 88.871 38.1143 88.8713 38.2472C88.8708 38.2967 88.8801 38.3458 88.8987 38.3917C88.9172 38.4377 88.9447 38.4794 88.9795 38.5147C89.0096 38.5457 89.0461 38.5699 89.0864 38.5856C89.1266 38.6013 89.1698 38.6082 89.213 38.6057C89.3498 38.5838 89.4758 38.5178 89.5718 38.4179Z" fill="#263238"/>
<path d="M92.4661 38.805V39.9432C92.458 40.0528 92.4715 40.1631 92.506 40.2675C92.5276 40.3231 92.5679 40.3694 92.6199 40.3984C92.7231 40.4301 92.831 40.4436 92.9388 40.4383V40.5578H91.1562V40.4383C91.2129 40.44 91.2694 40.4304 91.3222 40.4098C91.3751 40.3893 91.4232 40.3583 91.4638 40.3187C91.5253 40.1956 91.549 40.057 91.5321 39.9204V36.6539C91.5481 36.5088 91.5203 36.3621 91.4524 36.2328C91.4126 36.1962 91.366 36.1677 91.3151 36.1492C91.2643 36.1306 91.2103 36.1223 91.1562 36.1247V36.0052H92.4661V36.4149C92.552 36.2765 92.6666 36.1581 92.8022 36.0678C92.9593 35.964 93.1435 35.9086 93.3318 35.9084C93.5589 35.9088 93.7794 35.9849 93.9583 36.1247C94.1539 36.2823 94.3017 36.4912 94.3854 36.7279C94.4848 36.9896 94.535 37.2674 94.5335 37.5474C94.5374 37.8428 94.4852 38.1363 94.3797 38.4124C94.2898 38.6394 94.1378 38.8365 93.9412 38.9814C93.7779 39.0995 93.5853 39.1704 93.3844 39.1865C93.1836 39.2025 92.9821 39.1631 92.8022 39.0725C92.675 39.0042 92.5612 38.9136 92.4661 38.805ZM92.4661 38.4693C92.5283 38.5814 92.6167 38.6767 92.7238 38.7471C92.831 38.8174 92.9536 38.8608 93.0812 38.8733C93.1428 38.8711 93.2027 38.8525 93.2548 38.8195C93.3068 38.7865 93.3491 38.7403 93.3774 38.6855C93.6144 37.9802 93.6144 37.2169 93.3774 36.5117C93.3429 36.4519 93.293 36.4024 93.2329 36.3684C93.1728 36.3344 93.1047 36.3171 93.0357 36.3182C92.8135 36.3182 92.6256 36.4775 92.4661 36.8019V38.4693Z" fill="#263238"/>
<path d="M96.311 34.8613V35.9995H97.0514V36.3125H96.311V38.2359C96.2972 38.3512 96.2972 38.4677 96.311 38.583C96.3259 38.6326 96.3557 38.6763 96.3965 38.7082C96.4299 38.7375 96.4718 38.7554 96.5161 38.7595C96.6584 38.7595 96.7951 38.6513 96.9261 38.4294L97.0286 38.5034C96.97 38.6895 96.8532 38.8519 96.6953 38.9666C96.5374 39.0814 96.3468 39.1424 96.1516 39.1407C95.9682 39.1484 95.7883 39.0898 95.6447 38.9757C95.522 38.8841 95.4305 38.7569 95.3827 38.6115C95.3638 38.4071 95.3638 38.2013 95.3827 37.9969V36.2897H94.9727V36.1702C95.2339 35.9903 95.4745 35.7823 95.6903 35.5499C95.8879 35.325 96.0599 35.0788 96.2028 34.8158L96.311 34.8613Z" fill="#263238"/>
<path d="M99.9885 37.4505H98.28C98.2804 37.804 98.3964 38.1477 98.6103 38.4293C98.6766 38.5173 98.7627 38.5884 98.8617 38.6368C98.9606 38.6853 99.0696 38.7097 99.1798 38.7082C99.3083 38.7079 99.4335 38.6681 99.5386 38.5943C99.682 38.4868 99.8022 38.3513 99.8917 38.196L100.006 38.27C99.8785 38.5558 99.6829 38.8059 99.4361 38.9984C99.2291 39.1424 98.9821 39.218 98.7299 39.2146C98.5227 39.226 98.3162 39.1825 98.1312 39.0886C97.9462 38.9947 97.7892 38.8536 97.6763 38.6797C97.4757 38.362 97.3764 37.9909 97.3915 37.6155C97.3656 37.163 97.5168 36.7182 97.813 36.375C97.9334 36.2288 98.0847 36.1112 98.256 36.0305C98.4274 35.9498 98.6145 35.9081 98.8039 35.9083C98.9611 35.9096 99.116 35.9455 99.2578 36.0133C99.3995 36.0812 99.5246 36.1794 99.624 36.301C99.8773 36.6293 100.006 37.0364 99.9885 37.4505ZM99.1684 37.2286C99.1782 36.9803 99.1572 36.7318 99.1058 36.4888C99.08 36.3722 99.0183 36.2667 98.9292 36.1872C98.8756 36.1454 98.8093 36.1233 98.7413 36.1246C98.6828 36.1248 98.6255 36.1407 98.5754 36.1708C98.5253 36.2008 98.4842 36.2439 98.4565 36.2953C98.3124 36.5415 98.2431 36.8242 98.2572 37.1091V37.2286H99.1684Z" fill="#263238"/>
<path d="M101.674 36.005V36.7107C101.821 36.4622 102.014 36.2439 102.243 36.0676C102.375 35.9726 102.531 35.9173 102.693 35.9083C102.749 35.9056 102.805 35.9148 102.857 35.9354C102.909 35.9561 102.956 35.9875 102.995 36.0278C103.034 36.0719 103.063 36.1233 103.082 36.179C103.101 36.2347 103.108 36.2936 103.103 36.3522C103.111 36.4773 103.073 36.601 102.995 36.6993C102.963 36.7374 102.923 36.7679 102.877 36.7885C102.832 36.8092 102.783 36.8195 102.733 36.8188C102.62 36.8209 102.51 36.7803 102.425 36.705L102.277 36.5798C102.251 36.5739 102.224 36.5739 102.198 36.5798C102.13 36.5805 102.065 36.6069 102.015 36.6538C101.918 36.7384 101.847 36.8489 101.81 36.9725C101.735 37.2039 101.698 37.4461 101.702 37.6895V38.5886C101.691 38.6679 101.691 38.7483 101.702 38.8276C101.724 38.8847 101.767 38.9314 101.822 38.9585C101.907 38.9936 101.997 39.0129 102.089 39.0154V39.1349H100.381V39.0154C100.432 39.0166 100.483 39.0071 100.53 38.9875C100.577 38.9679 100.619 38.9386 100.654 38.9016C100.722 38.7439 100.747 38.5713 100.728 38.4008V36.6936C100.743 36.5803 100.743 36.4655 100.728 36.3522C100.713 36.2969 100.678 36.2487 100.631 36.2156C100.563 36.1776 100.487 36.1561 100.409 36.153V36.0335L101.674 36.005Z" fill="#263238"/>
<path d="M106.994 34.5086V38.2075C106.986 38.3846 106.998 38.5621 107.028 38.7368C107.055 38.8158 107.109 38.8825 107.182 38.9245C107.298 38.9828 107.428 39.0084 107.558 38.9985H107.66V39.1237H105.279V38.9985H105.399C105.539 39.0087 105.68 38.9853 105.809 38.9302C105.888 38.8942 105.949 38.8288 105.98 38.7481C106.019 38.5612 106.033 38.3697 106.02 38.1791V35.8345C106.026 35.7029 106.016 35.5711 105.991 35.4418C105.967 35.3864 105.928 35.3391 105.877 35.3053C105.821 35.2697 105.756 35.2518 105.689 35.254C105.547 35.2608 105.408 35.2956 105.279 35.3565L105.217 35.237L106.88 34.4801L106.994 34.5086Z" fill="#263238"/>
<path d="M89.384 63.7644V67.4236H89.048C88.916 66.7805 88.6753 66.1647 88.3361 65.6025C88.0628 65.222 87.696 64.9182 87.2711 64.7205C86.8451 64.5729 86.3941 64.511 85.9441 64.5384H84.936V74.9694C84.9088 75.4033 84.9472 75.8388 85.0499 76.2612C85.1484 76.4564 85.3058 76.6157 85.4999 76.7165C85.7812 76.8603 86.0956 76.9271 86.4111 76.91H86.861V77.2856H79.7534V76.9157H80.2034C80.5328 76.9304 80.8604 76.8598 81.1544 76.7108C81.3382 76.6003 81.4804 76.4323 81.5588 76.2328C81.6625 75.8221 81.7009 75.3977 81.6727 74.9751V64.5384H80.6931C79.9826 64.4725 79.2733 64.6756 78.7055 65.1075C78.0958 65.7222 77.7107 66.5239 77.612 67.3837H77.2305V63.7246L89.384 63.7644Z" fill="#263238"/>
<path d="M176.811 48.7411C176.811 48.8266 171.686 48.8893 165.375 48.8893C159.065 48.8893 153.939 48.8266 153.939 48.7411C153.939 48.6556 159.065 48.5929 165.375 48.5929C171.686 48.5929 176.811 48.6613 176.811 48.7411Z" fill="#263238"/>
<path d="M176.548 66.5132C176.548 66.593 157.885 66.6614 134.865 66.6614C111.845 66.6614 93.1816 66.593 93.1816 66.5132C93.1816 66.4334 111.839 66.365 134.865 66.365C157.89 66.365 176.548 66.4277 176.548 66.5132Z" fill="#263238"/>
<path d="M176.548 72.2382C176.548 72.3237 157.885 72.3864 134.865 72.3864C111.845 72.3864 93.1816 72.3237 93.1816 72.2382C93.1816 72.1527 111.839 72.09 134.865 72.09C157.89 72.09 176.548 72.1641 176.548 72.2382Z" fill="#263238"/>
<path d="M176.548 77.9686C176.548 78.0541 157.885 78.1168 134.865 78.1168C111.845 78.1168 93.1816 78.0541 93.1816 77.9686C93.1816 77.8831 111.839 77.8204 134.865 77.8204C157.89 77.8204 176.548 77.8888 176.548 77.9686Z" fill="#263238"/>
<path d="M176.547 83.6994C176.547 83.7792 154.148 83.8476 126.521 83.8476C98.8933 83.8476 76.4941 83.7792 76.4941 83.6994C76.4941 83.6196 98.8876 83.5511 126.521 83.5511C154.154 83.5511 176.547 83.6196 176.547 83.6994Z" fill="#263238"/>
<path d="M176.547 89.4298C176.547 89.5096 154.148 89.578 126.521 89.578C98.8933 89.578 76.4941 89.5096 76.4941 89.4298C76.4941 89.35 98.8876 89.2816 126.521 89.2816C154.154 89.2816 176.547 89.3443 176.547 89.4298Z" fill="#263238"/>
<path d="M132.837 95.1604C132.837 95.2402 120.222 95.3086 104.668 95.3086C89.1146 95.3086 76.4941 95.2402 76.4941 95.1604C76.4941 95.0806 89.1033 95.0065 104.668 95.0065C120.233 95.0065 132.837 95.0749 132.837 95.1604Z" fill="#263238"/>
<path d="M176.547 100.885C176.547 100.971 154.148 101.033 126.521 101.033C98.8933 101.033 76.4941 100.971 76.4941 100.885C76.4941 100.8 98.8876 100.737 126.521 100.737C154.154 100.737 176.547 100.805 176.547 100.885Z" fill="#263238"/>
<path d="M176.547 106.616C176.547 106.696 154.148 106.764 126.521 106.764C98.8933 106.764 76.4941 106.696 76.4941 106.616C76.4941 106.536 98.8876 106.468 126.521 106.468C154.154 106.468 176.547 106.536 176.547 106.616Z" fill="#263238"/>
<path d="M176.547 112.346C176.547 112.426 154.148 112.494 126.521 112.494C98.8933 112.494 76.4941 112.426 76.4941 112.346C76.4941 112.266 98.8876 112.198 126.521 112.198C154.154 112.198 176.547 112.261 176.547 112.346Z" fill="#263238"/>
<path d="M176.547 118.077C176.547 118.157 154.148 118.225 126.521 118.225C98.8933 118.225 76.4941 118.157 76.4941 118.077C76.4941 117.997 98.8876 117.929 126.521 117.929C154.154 117.929 176.547 117.991 176.547 118.077Z" fill="#263238"/>
<path d="M176.547 123.802C176.547 123.887 154.148 123.95 126.521 123.95C98.8933 123.95 76.4941 123.887 76.4941 123.802C76.4941 123.716 98.8876 123.653 126.521 123.653C154.154 123.653 176.547 123.722 176.547 123.802Z" fill="#263238"/>
<path d="M93.1836 129.532C93.1836 129.618 89.4476 129.68 84.8402 129.68C80.2328 129.68 76.5195 129.641 76.5195 129.532C76.5195 129.424 80.2499 129.384 84.863 129.384C89.4761 129.384 93.1836 129.452 93.1836 129.532Z" fill="#263238"/>
<path d="M176.55 135.263C176.55 135.343 154.151 135.411 126.523 135.411C98.8959 135.411 76.5195 135.331 76.5195 135.263C76.5195 135.194 98.913 135.115 126.546 135.115C154.179 135.115 176.55 135.183 176.55 135.263Z" fill="#263238"/>
<path d="M176.55 141.022C176.55 141.102 154.151 141.17 126.523 141.17C98.8959 141.17 76.5195 141.073 76.5195 141.022C76.5195 140.97 98.913 140.874 126.546 140.874C154.179 140.874 176.55 140.908 176.55 141.022Z" fill="#263238"/>
<path d="M176.55 146.712C176.55 146.798 154.151 146.861 126.523 146.861C98.8959 146.861 76.5195 146.803 76.5195 146.712C76.5195 146.621 98.913 146.564 126.546 146.564C154.179 146.564 176.55 146.638 176.55 146.712Z" fill="#263238"/>
<path d="M153.299 152.449C153.299 152.534 136.106 152.597 114.897 152.597C93.6879 152.597 76.4941 152.534 76.4941 152.449C76.4941 152.363 93.6822 152.3 114.897 152.3C136.111 152.3 153.299 152.369 153.299 152.449Z" fill="#263238"/>
<path d="M176.547 158.179C176.547 158.259 154.148 158.327 126.521 158.327C98.8933 158.327 76.4941 158.259 76.4941 158.179C76.4941 158.099 98.8876 158.031 126.521 158.031C154.154 158.031 176.547 158.094 176.547 158.179Z" fill="#263238"/>
<path d="M176.547 163.91C176.547 163.99 154.148 164.058 126.521 164.058C98.8933 164.058 76.4941 163.99 76.4941 163.91C76.4941 163.83 98.8876 163.762 126.521 163.762C154.154 163.762 176.547 163.824 176.547 163.91Z" fill="#263238"/>
<path d="M163.086 169.64C163.086 169.72 143.723 169.789 119.803 169.789C95.8831 169.789 76.5195 169.72 76.5195 169.64C76.5195 169.561 95.8831 169.486 119.803 169.486C143.723 169.486 163.086 169.555 163.086 169.64Z" fill="#263238"/>
<path d="M176.55 175.365C176.55 175.451 154.151 175.513 126.523 175.513C98.8959 175.513 76.5195 175.451 76.5195 175.365C76.5195 175.28 98.913 175.217 126.546 175.217C154.179 175.217 176.55 175.285 176.55 175.365Z" fill="#263238"/>
<path d="M176.547 186.826C176.547 186.906 154.148 186.975 126.521 186.975C98.8933 186.975 76.4941 186.906 76.4941 186.826C76.4941 186.747 98.8876 186.678 126.521 186.678C154.154 186.678 176.547 186.741 176.547 186.826Z" fill="#263238"/>
<path d="M176.55 192.557C176.55 192.637 154.151 192.705 126.523 192.705C98.8959 192.705 76.5195 192.637 76.5195 192.557C76.5195 192.477 98.913 192.409 126.546 192.409C154.179 192.409 176.55 192.471 176.55 192.557Z" fill="#263238"/>
<path d="M176.547 198.282C176.547 198.367 154.148 198.43 126.521 198.43C98.8933 198.43 76.4941 198.367 76.4941 198.282C76.4941 198.196 98.8876 198.133 126.521 198.133C154.154 198.133 176.547 198.202 176.547 198.282Z" fill="#263238"/>
<path d="M129.656 215.189L129.337 216.059H126.672V215.934C127.284 215.409 127.839 214.821 128.329 214.181C128.612 213.826 128.779 213.393 128.808 212.941C128.813 212.811 128.792 212.681 128.747 212.559C128.702 212.437 128.634 212.325 128.546 212.229C128.465 212.142 128.367 212.073 128.258 212.026C128.15 211.979 128.032 211.955 127.913 211.956C127.698 211.953 127.488 212.021 127.315 212.15C127.129 212.294 126.991 212.493 126.922 212.719H126.803C126.828 212.361 126.98 212.025 127.23 211.768C127.344 211.659 127.479 211.573 127.627 211.516C127.774 211.46 127.932 211.433 128.09 211.438C128.259 211.434 128.428 211.462 128.587 211.523C128.745 211.583 128.89 211.675 129.013 211.791C129.128 211.898 129.22 212.027 129.282 212.171C129.345 212.315 129.377 212.471 129.377 212.628C129.376 212.864 129.321 213.098 129.218 213.311C129.014 213.73 128.745 214.114 128.42 214.449C127.851 215.058 127.52 215.422 127.378 215.547H128.563C128.732 215.551 128.902 215.541 129.07 215.519C129.163 215.5 129.252 215.464 129.332 215.41C129.413 215.347 129.481 215.268 129.531 215.177L129.656 215.189Z" fill="#263238"/>
<path d="M130.183 213.823C130.173 213.368 130.252 212.916 130.416 212.491C130.542 212.162 130.757 211.875 131.037 211.66C131.216 211.525 131.433 211.449 131.658 211.444C131.844 211.452 132.026 211.504 132.188 211.596C132.351 211.688 132.489 211.818 132.592 211.973C132.962 212.491 133.145 213.119 133.11 213.755C133.123 214.211 133.046 214.665 132.882 215.092C132.774 215.407 132.576 215.684 132.313 215.889C132.118 216.044 131.878 216.132 131.629 216.139C131.397 216.124 131.173 216.045 130.983 215.91C130.793 215.775 130.644 215.591 130.553 215.376C130.297 214.899 130.17 214.364 130.183 213.823ZM130.837 213.908C130.821 214.427 130.9 214.943 131.071 215.433C131.196 215.763 131.386 215.928 131.64 215.928C131.781 215.924 131.915 215.867 132.016 215.769C132.171 215.615 132.272 215.415 132.307 215.2C132.425 214.668 132.476 214.123 132.461 213.578C132.472 213.144 132.418 212.71 132.301 212.292C132.254 212.077 132.147 211.88 131.994 211.723C131.939 211.681 131.877 211.65 131.81 211.633C131.744 211.615 131.674 211.61 131.606 211.619C131.538 211.628 131.472 211.651 131.413 211.685C131.353 211.719 131.301 211.765 131.259 211.82C131.071 212.072 130.957 212.371 130.929 212.685C130.868 213.09 130.838 213.499 130.837 213.908Z" fill="#263238"/>
<path d="M67.4066 230.326C63.1694 223.104 54.2165 223.025 51.2778 228.858V16.1788C51.2565 14.269 51.9293 12.4163 53.1716 10.9647C54.4138 9.51312 56.1409 8.56122 58.0323 8.28574C60.5211 7.96706 62.7821 8.91741 66.632 11.1311L67.4066 230.326Z" fill="white"/>
<path d="M67.4063 230.326C67.4063 228.761 66.9962 133.76 66.478 11.1424L66.552 11.2676C65.3794 10.5752 64.1723 9.94274 62.9356 9.3726C61.6916 8.76335 60.3334 8.42212 58.9489 8.37104C57.533 8.38028 56.1495 8.79502 54.9623 9.56609C53.7705 10.3474 52.8153 11.4396 52.2002 12.7244C51.8827 13.397 51.6567 14.109 51.5281 14.8414C51.4242 15.5801 51.386 16.3266 51.4142 17.0721C51.4142 18.5897 51.4142 20.092 51.4142 21.5792V48.1662C51.4142 59.7866 51.4142 71.1054 51.4142 82.1226C51.4142 104.112 51.4142 124.729 51.4142 143.451C51.4142 180.896 51.363 210.75 51.3516 228.858L51.2377 228.829C51.9253 227.458 53.019 226.331 54.37 225.603C55.5542 224.989 56.8691 224.671 58.2029 224.675C58.7963 224.669 59.3891 224.717 59.9741 224.817C60.2531 224.868 60.5436 224.954 60.7885 225.016C61.0474 225.076 61.3008 225.158 61.5459 225.261C62.0129 225.424 62.4646 225.628 62.8957 225.87L63.4994 226.206C63.6816 226.325 63.8582 226.456 64.029 226.581C64.3594 226.796 64.6684 227.042 64.9517 227.315C65.2193 227.572 65.4813 227.793 65.6977 228.027C66.0547 228.421 66.3911 228.833 66.7058 229.262C67.1557 229.956 67.3607 230.263 67.412 230.349L66.683 229.284C66.4438 228.92 66.0679 228.545 65.6636 228.055C65.4471 227.828 65.1852 227.606 64.9175 227.355C64.6279 227.088 64.3175 226.845 63.9892 226.627C63.8183 226.507 63.6475 226.376 63.4652 226.257L62.8615 225.933C62.4322 225.692 61.9824 225.49 61.5175 225.329C61.2743 225.23 61.0227 225.151 60.7657 225.096C60.5037 225.033 60.236 224.954 59.9627 224.897C59.3809 224.803 58.7921 224.76 58.2029 224.766C56.8822 224.773 55.5829 225.099 54.4156 225.716C53.0855 226.436 52.0112 227.549 51.3402 228.903L51.2263 229.131V228.88C51.2263 210.773 51.1921 180.919 51.1636 143.474C51.1636 124.752 51.1636 104.134 51.1636 82.1454C51.1636 71.1434 51.1636 59.8245 51.1636 48.1889V30.5477C51.1636 27.5772 51.1636 24.5915 51.1636 21.5906V17.0721C51.1378 16.3112 51.1797 15.5494 51.2889 14.7959C51.4207 14.0358 51.6544 13.2969 51.9837 12.5992C52.6175 11.2685 53.6019 10.1354 54.8313 9.32139C56.0612 8.52311 57.4938 8.09268 58.9603 8.08081C60.3874 8.13236 61.788 8.48125 63.0722 9.10514C64.348 9.67421 65.5383 10.3514 66.7115 11.0172L66.7855 11.0627V11.1481C67.1329 133.76 67.4063 228.761 67.4063 230.326Z" fill="#263238"/>
<path d="M182.683 129.816C182.64 129.817 182.597 129.807 182.558 129.787C182.519 129.767 182.486 129.738 182.461 129.703C182.415 129.643 182.395 129.568 182.404 129.493C182.414 129.418 182.453 129.35 182.512 129.304L185.747 126.857L182.535 124.82C182.503 124.801 182.475 124.775 182.452 124.745C182.43 124.714 182.414 124.68 182.406 124.643C182.397 124.606 182.396 124.568 182.403 124.531C182.409 124.494 182.423 124.459 182.444 124.427C182.464 124.396 182.49 124.368 182.52 124.346C182.551 124.324 182.585 124.309 182.622 124.3C182.658 124.292 182.696 124.291 182.733 124.297C182.77 124.303 182.805 124.316 182.837 124.336L186.397 126.613C186.436 126.636 186.469 126.669 186.492 126.709C186.515 126.749 186.527 126.794 186.528 126.84C186.53 126.886 186.522 126.932 186.503 126.973C186.484 127.015 186.456 127.051 186.419 127.079L182.86 129.777C182.807 129.809 182.745 129.823 182.683 129.816Z" fill="#E0E0E0"/>
<g opacity="0.3">
<path d="M159.596 11.0059V37.2514C159.597 37.3724 159.633 37.4904 159.701 37.5907C159.768 37.691 159.864 37.7691 159.976 37.8153C160.088 37.8615 160.211 37.8736 160.33 37.8503C160.448 37.8269 160.558 37.769 160.644 37.6839L166.971 31.3615C167.087 31.2472 167.244 31.1831 167.407 31.1831C167.57 31.1831 167.726 31.2472 167.842 31.3615L174.164 37.6839C174.25 37.771 174.359 37.8306 174.479 37.8551C174.599 37.8796 174.723 37.8679 174.836 37.8214C174.949 37.775 175.046 37.696 175.114 37.5945C175.182 37.493 175.218 37.3735 175.218 37.2514V11.0059H159.596Z" fill="black"/>
</g>
<path d="M158.26 11.0059V34.8272C158.259 34.9493 158.296 35.0687 158.363 35.1703C158.431 35.2718 158.528 35.3508 158.641 35.3972C158.754 35.4436 158.878 35.4553 158.998 35.4308C159.118 35.4063 159.228 35.3467 159.313 35.2597L165.641 28.943C165.697 28.8852 165.764 28.8392 165.839 28.8078C165.913 28.7764 165.993 28.7603 166.074 28.7603C166.154 28.7603 166.234 28.7764 166.308 28.8078C166.383 28.8392 166.45 28.8852 166.506 28.943L172.834 35.2597C172.919 35.3467 173.029 35.4063 173.149 35.4308C173.269 35.4553 173.393 35.4436 173.506 35.3972C173.619 35.3508 173.716 35.2718 173.784 35.1703C173.852 35.0687 173.888 34.9493 173.887 34.8272V11.0059H158.26Z" fill="#FF6420"/>
<path d="M48.9614 47.3586C48.8475 45.3327 47.6059 44.0921 45.8575 43.0564C44.977 42.5476 43.9869 42.2581 42.9708 42.2125C41.9546 42.167 40.9425 42.3666 40.0199 42.7946C38.7955 43.3637 37.7419 44.3709 36.3807 44.5417C34.1653 44.8262 32.0695 42.7775 29.8939 43.2897C29.2449 43.4436 28.6694 43.8176 28.2655 44.3481C27.8617 44.8786 27.6545 45.5327 27.6794 46.1988C27.7043 46.8648 27.9596 47.5016 28.4019 48.0006C28.8441 48.4996 29.446 48.8298 30.1047 48.9349C28.6581 49.1454 27.8266 50.9779 28.3961 52.3493C28.9656 53.7208 30.4521 54.5004 31.9157 54.5346C33.3904 54.4838 34.8236 54.0333 36.0618 53.2314C37.3261 52.4973 38.5107 51.6095 39.832 50.9551C41.1341 50.252 42.6433 50.0323 44.092 50.3348C46.0056 50.8413 47.3667 52.6509 47.8679 54.5687C48.3691 56.4865 48.1527 58.5124 47.8679 60.4756C47.5831 62.4389 47.1902 64.4136 47.3781 66.3883C47.3714 66.5043 47.3927 66.6202 47.4403 66.7262C47.4878 66.8322 47.5603 66.9251 47.6515 66.9972C47.9476 67.1565 48.2837 66.8777 48.5001 66.6216C50.9401 63.7119 52.7842 60.3514 53.9276 56.7312C54.5996 54.6313 54.9698 52.5826 54.1668 50.534C53.3638 48.4853 50.6529 46.522 48.95 47.3586" fill="#263238"/>
<path d="M50.8304 57.1351L47.5898 77.1152C46.9861 80.8483 44.56 84.4562 38.694 83.2271C33.6936 81.7816 34.0638 78.1851 34.7073 73.752C34.7073 73.752 29.2058 72.318 29.6956 66.724C29.9348 64.0209 30.8802 58.4895 31.7914 53.4988C32.2623 50.9104 33.692 48.5943 35.7956 47.0123C37.8993 45.4303 40.5223 44.6984 43.1419 44.9627L43.6829 45.0139C49.4692 45.9586 51.9182 51.3818 50.8304 57.1351Z" fill="#FFBF9D"/>
<path d="M34.7143 73.7519C37.2991 74.0027 39.9018 73.509 42.2148 72.3292C42.2148 72.3292 40.0165 76.4891 34.4922 75.425L34.7143 73.7519Z" fill="#FF9A6C"/>
<path d="M32.8944 59.1099C32.8717 59.3177 32.931 59.526 33.0597 59.6908C33.1884 59.8555 33.3763 59.9636 33.5835 59.992C33.6843 60.0107 33.7878 60.0089 33.8879 59.9867C33.988 59.9646 34.0826 59.9225 34.166 59.863C34.2495 59.8035 34.3201 59.7279 34.3736 59.6405C34.4272 59.5532 34.4626 59.4559 34.4777 59.3546C34.5004 59.1469 34.4411 58.9385 34.3124 58.7737C34.1837 58.609 33.9958 58.501 33.7886 58.4726C33.6879 58.4547 33.5846 58.457 33.4848 58.4795C33.385 58.502 33.2907 58.5442 33.2075 58.6035C33.1242 58.6629 33.0536 58.7382 32.9999 58.8252C32.9461 58.9121 32.9103 59.0089 32.8944 59.1099Z" fill="#263238"/>
<path d="M32.7236 56.3613C32.809 56.4751 33.4583 56.0881 34.3183 56.1792C35.1782 56.2702 35.7648 56.7483 35.8673 56.6629C35.9699 56.5775 35.8389 56.4239 35.5826 56.1963C35.2369 55.9028 34.8096 55.722 34.3581 55.6784C33.9103 55.632 33.4594 55.7297 33.071 55.9572C32.7863 56.1337 32.678 56.3101 32.7236 56.3613Z" fill="#263238"/>
<path d="M40.4744 59.8668C40.4517 60.0745 40.511 60.2829 40.6397 60.4476C40.7684 60.6124 40.9563 60.7204 41.1635 60.7488C41.2643 60.7675 41.3678 60.7657 41.4679 60.7436C41.568 60.7214 41.6626 60.6794 41.746 60.6199C41.8295 60.5604 41.9001 60.4847 41.9536 60.3974C42.0072 60.31 42.0426 60.2128 42.0577 60.1115C42.0805 59.9046 42.022 59.6969 41.8944 59.5324C41.7669 59.3678 41.5804 59.2592 41.3742 59.2294C41.2731 59.2107 41.1693 59.2124 41.0688 59.2345C40.9684 59.2566 40.8734 59.2986 40.7895 59.358C40.7056 59.4175 40.6345 59.4931 40.5804 59.5805C40.5262 59.6679 40.4902 59.7652 40.4744 59.8668Z" fill="#263238"/>
<path d="M41.1542 57.4026C41.2453 57.5164 41.8945 57.1294 42.7545 57.2148C43.6145 57.3001 44.2011 57.7838 44.3036 57.7042C44.4061 57.6245 44.2694 57.4652 44.0188 57.2375C43.6724 56.9417 43.2425 56.7607 42.7887 56.7197C42.3415 56.6715 41.8906 56.7672 41.5016 56.9928C41.2225 57.1408 41.1086 57.3229 41.1542 57.4026Z" fill="#263238"/>
<path d="M37.4112 63.429C36.9734 63.2371 36.5118 63.1051 36.0387 63.0363C35.8223 62.9908 35.623 62.9282 35.6002 62.7746C35.6021 62.5453 35.6758 62.3225 35.8109 62.1372L36.6253 60.5324C37.7643 58.2561 38.6186 56.3554 38.5218 56.3099C38.425 56.2644 37.434 58.0854 36.2893 60.3731L35.5034 61.9892C35.3391 62.2398 35.2667 62.5394 35.2983 62.8372C35.3234 62.9176 35.366 62.9915 35.4232 63.0535C35.4803 63.1155 35.5505 63.1641 35.6287 63.1957C35.7479 63.2399 35.8723 63.2686 35.9988 63.281C36.4618 63.3879 36.9362 63.4376 37.4112 63.429Z" fill="#263238"/>
<path d="M41.2717 53.9883C41.3286 54.233 42.2 54.2102 43.1967 54.4322C44.1933 54.6541 44.9793 55.0012 45.133 54.8134C45.2071 54.7224 45.0875 54.4891 44.7799 54.2444C44.3704 53.92 43.8906 53.6959 43.3789 53.5899C42.8695 53.4766 42.3404 53.4864 41.8355 53.6184C41.4482 53.7037 41.2432 53.8688 41.2717 53.9883Z" fill="#263238"/>
<path d="M33.2891 53.9087C33.4201 54.1192 34.0351 53.9769 34.747 54.0395C35.4589 54.1021 36.0455 54.3013 36.205 54.1135C36.279 54.0225 36.205 53.8176 35.9601 53.6014C35.6343 53.3422 35.2367 53.1892 34.8211 53.1632C34.4011 53.1276 33.9807 53.2252 33.6194 53.442C33.3346 53.6184 33.2321 53.8062 33.2891 53.9087Z" fill="#263238"/>
<path d="M49.9415 61.2267C50.0383 61.1925 53.9281 60.4755 53.3928 64.2826C52.8574 68.0897 49.1613 66.7979 49.1727 66.6841C49.1841 66.5702 49.9415 61.2267 49.9415 61.2267Z" fill="#FFBF9D"/>
<path d="M50.5444 65.3981C50.5444 65.3981 50.6014 65.455 50.7096 65.5176C50.8578 65.6083 51.0359 65.6369 51.2051 65.5973C51.4701 65.4731 51.698 65.2816 51.8658 65.042C52.0337 64.8023 52.1358 64.5229 52.1619 64.2315C52.2116 63.9064 52.1902 63.5744 52.0992 63.2584C52.0777 63.1359 52.0272 63.0204 51.9519 62.9214C51.8766 62.8224 51.7787 62.7428 51.6664 62.6893C51.5925 62.6605 51.5111 62.6577 51.4354 62.6815C51.3598 62.7053 51.2946 62.7543 51.2506 62.8202C51.188 62.9227 51.1994 63.0023 51.1823 63.0023C51.1652 63.0023 51.1083 62.9283 51.1823 62.7747C51.2145 62.6828 51.2794 62.6058 51.3645 62.5584C51.48 62.4919 51.6171 62.4735 51.7461 62.5072C51.8981 62.5598 52.0342 62.65 52.1417 62.7695C52.2493 62.8889 52.3248 63.0336 52.3612 63.1901C52.4767 63.5423 52.506 63.9169 52.4466 64.2827C52.4192 64.6239 52.2924 64.9496 52.0819 65.2196C51.8714 65.4896 51.5864 65.6921 51.262 65.8022C51.1597 65.813 51.0561 65.8025 50.9581 65.7711C50.86 65.7398 50.7696 65.6883 50.6925 65.6201C50.5103 65.4892 50.5103 65.4038 50.5444 65.3981Z" fill="#FF9A6C"/>
<path d="M32.2522 48.2976C32.9087 47.2714 33.8086 46.4231 34.872 45.8278C37.1109 44.4377 39.7316 43.7885 42.3612 43.9727C44.9964 44.1813 47.4472 45.4057 49.1954 47.3871C50.535 49.0091 51.3704 50.9872 51.5987 53.0778C51.8201 55.1608 51.6265 57.2671 51.0292 59.275C50.8387 60.1799 50.3896 61.0101 49.7364 61.6651C49.3036 62.035 48.5974 62.2342 48.1816 61.8472C47.9639 61.5854 47.8379 61.2596 47.8228 60.9196C47.3843 57.8978 46.98 54.6598 48.3468 51.9226C47.7411 50.8753 46.927 49.9631 45.9548 49.2423C45.4683 48.8855 44.9157 48.6288 44.3291 48.4871C43.7425 48.3455 43.1336 48.3217 42.5377 48.4171C40.7779 48.7699 39.5591 50.3235 38.0841 51.3365C37.0201 52.0562 35.8002 52.5131 34.5248 52.6694C33.2495 52.8258 31.9552 52.6771 30.7487 52.2356L32.2522 48.2976Z" fill="#263238"/>
<path d="M36.6387 65.745C36.6845 66.1074 36.7803 66.4617 36.9235 66.7978C36.998 66.9647 37.107 67.1139 37.2435 67.2355C37.38 67.3571 37.5407 67.4485 37.7151 67.5034C37.9051 67.543 38.102 67.5345 38.288 67.4789C38.4739 67.4233 38.6431 67.3222 38.7801 67.1848C39.0476 66.8991 39.2189 66.5369 39.2699 66.1491C39.3268 65.8019 39.2699 65.3637 38.9225 65.2499C38.7802 65.2158 38.6319 65.2158 38.4896 65.2499L36.5476 65.6028" fill="#FF9A6C"/>
<path d="M37.0483 67.367C37.3664 67.4576 37.6989 67.4866 38.0279 67.4523C38.3671 67.3948 38.6732 67.2145 38.8879 66.9459C39.0107 66.7804 39.0979 66.5914 39.144 66.3906C39.1901 66.1898 39.194 65.9817 39.1555 65.7793C39.1357 65.6744 39.1012 65.5729 39.053 65.4777C39.0018 65.3923 39.0132 65.398 38.9334 65.3923C38.8537 65.3866 38.7284 65.4265 38.6202 65.4435L38.3013 65.5004C37.8855 65.5801 37.5096 65.6427 37.1964 65.6882C36.8579 65.7731 36.508 65.8038 36.1599 65.7793C36.4704 65.6193 36.8052 65.5117 37.1508 65.4606L38.2443 65.2102L38.5632 65.1362C38.6796 65.1086 38.7976 65.0877 38.9164 65.0736C39.0082 65.0653 39.1002 65.0873 39.1783 65.1362C39.2522 65.1845 39.3097 65.2539 39.3435 65.3354C39.4048 65.4557 39.4489 65.5841 39.4745 65.7167C39.5241 65.9643 39.5183 66.2198 39.4572 66.4648C39.3961 66.7098 39.2814 66.9383 39.1214 67.1337C38.8556 67.4565 38.4727 67.6611 38.0564 67.7027C37.7892 67.7312 37.5194 67.6859 37.2761 67.5718C37.1053 67.4637 37.0369 67.3841 37.0483 67.367Z" fill="#263238"/>
<path d="M28.6195 44.0693C28.5836 44.1491 28.5587 44.2333 28.5454 44.3197C28.4977 44.5672 28.4881 44.8205 28.5169 45.0709C28.5809 45.533 28.7361 45.9777 28.9737 46.3793C29.2113 46.7808 29.5265 47.1311 29.9009 47.4098C30.4725 47.7986 31.1157 48.0702 31.7932 48.2089C32.4707 48.3477 33.169 48.3507 33.8476 48.2179C35.3967 48.0073 36.9458 47.2618 38.5632 46.596C40.1807 45.9302 41.838 45.4579 43.3244 45.7538C44.6488 46.0036 45.8516 46.6886 46.7415 47.7C47.349 48.3728 47.8398 49.1421 48.1938 49.9763C48.433 50.5454 48.5184 50.9153 48.5469 50.9096C48.5377 50.8228 48.5206 50.7371 48.4956 50.6535C48.438 50.4122 48.3657 50.1747 48.2792 49.9421C47.9585 49.0774 47.4817 48.2789 46.8725 47.5862C45.9759 46.5264 44.7444 45.8038 43.3814 45.5375C41.8266 45.2416 40.1066 45.7026 38.4835 46.3741C36.8604 47.0456 35.3341 47.7797 33.8305 47.9959C32.5167 48.2683 31.1483 48.0083 30.0262 47.2732C29.2917 46.7437 28.7915 45.9501 28.6308 45.0595C28.5872 44.7311 28.5834 44.3987 28.6195 44.0693Z" fill="#455A64"/>
<path d="M53.6443 55.6953C53.6639 55.3381 53.6136 54.9805 53.4963 54.6425C53.2666 53.8176 52.8798 53.0448 52.3572 52.3662C52.0636 51.9929 51.7315 51.6514 51.3663 51.3476C51.0691 51.0747 50.7092 50.8792 50.3184 50.7785C50.0504 50.7194 49.7704 50.7493 49.521 50.8639C49.3502 50.9549 49.2875 51.0403 49.2989 51.0517C49.604 50.9064 49.9499 50.8702 50.2785 50.9492C51.0406 51.2743 51.6931 51.8116 52.1579 52.4971C52.6699 53.1579 53.0701 53.898 53.3425 54.688C53.5418 55.2742 53.6045 55.6953 53.6443 55.6953Z" fill="#455A64"/>
<path d="M52.6348 58.962C52.6226 58.6032 52.5494 58.2491 52.4183 57.9149C52.1359 57.0846 51.7035 56.3131 51.1426 55.6386C50.5857 54.9704 49.9099 54.4109 49.1493 53.9883C48.8428 53.7987 48.5055 53.6639 48.1526 53.59C48.1526 53.6298 48.5115 53.7948 49.0582 54.159C50.4958 55.0651 51.6131 56.3985 52.2532 57.9718C52.3599 58.3094 52.4874 58.6401 52.6348 58.962Z" fill="#455A64"/>
<path d="M18.7617 215.604L10.0367 227.065L5.75393 238.122C5.68025 238.311 5.56873 238.482 5.42623 238.626C5.28373 238.769 5.11328 238.882 4.92541 238.957C4.73755 239.032 4.53626 239.068 4.33396 239.063C4.13167 239.057 3.93266 239.01 3.74924 238.925C3.53592 238.826 3.34956 238.677 3.20586 238.491C3.06215 238.304 2.96529 238.086 2.92343 237.855C2.38239 234.862 0.440329 223.827 1.12375 223.025C1.92108 222.092 9.52414 210.323 9.52414 210.323L18.7617 215.604Z" fill="#455A64"/>
<g opacity="0.6">
<path d="M3.75 238.936L1.69973 222.245L1.34093 222.741C1.02881 223.166 0.87932 223.689 0.919496 224.214C1.0277 225.626 1.41497 229.501 2.89002 237.844C2.93284 238.082 3.03364 238.307 3.18359 238.497C3.33355 238.688 3.52806 238.839 3.75 238.936Z" fill="white"/>
</g>
<g opacity="0.6">
<path d="M6.8194 220.22C6.88766 220.428 6.87596 220.655 6.78654 220.856C6.69711 221.057 6.53633 221.217 6.33531 221.306C6.12887 221.384 5.90052 221.377 5.69856 221.289C5.49661 221.201 5.3369 221.038 5.25323 220.834C5.18595 220.614 5.20149 220.377 5.29692 220.167C5.39236 219.958 5.56113 219.79 5.77149 219.696C5.99564 219.64 6.23282 219.673 6.43271 219.789C6.6326 219.905 6.77948 220.094 6.84219 220.316" fill="white"/>
</g>
<path d="M4.77853 231.908C5.31561 231.705 5.89753 231.651 6.46289 231.751C7.02824 231.852 7.55604 232.102 7.9906 232.477C8.01907 232.477 7.93935 232.261 7.69445 232.022C7.36155 231.724 6.95071 231.527 6.50985 231.453C6.06992 231.376 5.61713 231.427 5.20566 231.601C4.89812 231.72 4.75574 231.88 4.77853 231.908Z" fill="#263238"/>
<path d="M4.47537 234.071C4.94505 234.126 5.41097 234.21 5.87068 234.321C6.60536 234.571 7.04389 235.061 7.11793 234.998C7.19196 234.936 6.81039 234.31 5.97889 234.019C5.74224 233.908 5.48241 233.854 5.22094 233.863C4.95946 233.872 4.70387 233.943 4.47537 234.071Z" fill="#263238"/>
<path d="M4.68383 228.79C5.41598 228.809 6.14539 228.887 6.86508 229.023C7.56128 229.257 8.23901 229.542 8.89258 229.877C8.36867 229.312 7.69362 228.91 6.9476 228.717C6.20158 228.524 5.41591 228.55 4.68383 228.79Z" fill="#263238"/>
<path d="M7.0475 225.079C7.0475 225.176 7.86761 225.37 8.72758 225.95C9.58755 226.53 10.1058 227.208 10.1855 227.156C9.89763 226.56 9.45421 226.053 8.90198 225.687C8.34974 225.322 7.70911 225.112 7.0475 225.079Z" fill="#263238"/>
<path d="M9.50667 221.654C10.1366 221.852 10.735 222.14 11.2836 222.507C11.7733 222.951 12.1988 223.46 12.5479 224.021C12.5878 224.021 12.5479 223.771 12.4055 223.418C12.1921 222.964 11.8746 222.566 11.4788 222.258C11.083 221.949 10.62 221.739 10.1274 221.642C9.75725 221.574 9.50667 221.614 9.50667 221.654Z" fill="#263238"/>
<path d="M11.7436 221.864C11.7436 221.864 11.8974 221.739 12.0796 221.437C12.335 221.004 12.5015 220.524 12.5694 220.026C12.6478 219.666 12.6079 219.291 12.4555 218.956C12.3967 218.848 12.3045 218.762 12.1925 218.711C12.0806 218.659 11.9551 218.646 11.8347 218.672C11.6028 218.727 11.3998 218.867 11.2652 219.064C11.0069 219.475 10.9003 219.963 10.9637 220.444C11.0272 220.925 11.2567 221.369 11.6126 221.699C11.9717 222.017 12.4168 222.222 12.8921 222.288C13.3674 222.354 13.8516 222.277 14.2837 222.069C14.3909 222.015 14.4854 221.939 14.561 221.846C14.6366 221.752 14.6915 221.644 14.7222 221.528C14.7432 221.407 14.724 221.281 14.6675 221.171C14.611 221.062 14.5202 220.973 14.409 220.919C14.0778 220.775 13.7145 220.72 13.3554 220.76C12.8539 220.785 12.3607 220.897 11.8974 221.09C11.723 221.148 11.5622 221.241 11.4247 221.363C12.0487 221.146 12.7009 221.019 13.361 220.988C13.6752 220.963 13.9906 221.018 14.278 221.147C14.3386 221.176 14.3881 221.224 14.419 221.283C14.4498 221.343 14.4603 221.411 14.4488 221.477C14.4228 221.552 14.3815 221.62 14.3276 221.678C14.2737 221.736 14.2083 221.782 14.1356 221.813C13.7587 221.984 13.3402 222.042 12.9309 221.981C12.5215 221.919 12.1388 221.74 11.829 221.466C11.5294 221.186 11.3336 220.813 11.2736 220.408C11.2136 220.003 11.293 219.589 11.4987 219.235C11.5873 219.093 11.7253 218.99 11.886 218.945C11.9519 218.93 12.0208 218.937 12.0824 218.965C12.144 218.993 12.1949 219.039 12.2277 219.098C12.3575 219.381 12.3973 219.697 12.3416 220.003C12.2567 220.655 12.0541 221.285 11.7436 221.864Z" fill="#263238"/>
<path d="M26.9732 221.102L28.6818 232.722C28.6818 232.722 17.3541 237.496 17.4623 239.676L40.2031 238.043L38.3009 219.833L26.9732 221.102Z" fill="#455A64"/>
<g opacity="0.6">
<path d="M35.5753 230.969C35.8005 231.013 36.0015 231.139 36.1402 231.321C36.2788 231.504 36.3454 231.731 36.3271 231.96C36.2932 232.185 36.1739 232.39 35.9938 232.531C35.8138 232.671 35.5866 232.738 35.3589 232.716C35.1197 232.67 34.9061 232.536 34.759 232.342C34.612 232.148 34.5417 231.906 34.5616 231.664C34.6235 231.432 34.7722 231.233 34.9768 231.108C35.1814 230.983 35.4263 230.942 35.6608 230.992" fill="white"/>
</g>
<g opacity="0.6">
<path d="M40.1934 238.043L39.9997 236.205L18.0961 238.549C17.8728 238.686 17.6874 238.876 17.5571 239.103C17.4267 239.329 17.3555 239.585 17.35 239.847L40.1934 238.043Z" fill="white"/>
</g>
<path d="M28.2992 232.642C28.2992 232.756 28.8687 232.745 29.4382 233.041C30.0078 233.336 30.3609 233.769 30.4577 233.712C30.5545 233.655 30.321 233.041 29.6091 232.693C28.8972 232.346 28.2536 232.545 28.2992 232.642Z" fill="#263238"/>
<path d="M26.0215 233.889C26.0215 233.997 26.5113 234.133 26.9327 234.56C27.3542 234.987 27.5022 235.471 27.6332 235.454C27.7642 235.437 27.7471 234.799 27.2061 234.281C26.665 233.764 26.0215 233.781 26.0215 233.889Z" fill="#263238"/>
<path d="M24.9855 236.876C25.088 236.876 25.1791 236.307 24.8317 235.738C24.4843 235.169 23.9375 234.976 23.8977 235.072C23.8578 235.169 24.2166 235.459 24.5014 235.937C24.7861 236.415 24.8829 236.876 24.9855 236.876Z" fill="#263238"/>
<path d="M28.1962 229.957C28.2531 230.054 28.7657 229.843 29.3751 229.815C29.9845 229.786 30.5141 229.935 30.5597 229.815C30.6052 229.695 30.0983 229.37 29.358 229.41C28.6176 229.45 28.1335 229.872 28.1962 229.957Z" fill="#263238"/>
<g opacity="0.3">
<path d="M27.3118 223.401L27.608 225.472L38.7363 224.152L38.5427 222.28L27.3118 223.401Z" fill="black"/>
</g>
<path d="M27.8996 227.606C28.2842 227.665 28.6774 227.619 29.0386 227.475C29.4374 227.358 29.82 227.192 30.1777 226.98C30.3917 226.855 30.5972 226.717 30.7928 226.565C30.9137 226.48 31.0195 226.377 31.106 226.257C31.1654 226.174 31.1973 226.075 31.1973 225.973C31.1973 225.871 31.1654 225.771 31.106 225.688C31.0419 225.618 30.9622 225.563 30.8732 225.528C30.7843 225.494 30.6885 225.48 30.5934 225.489C30.4489 225.504 30.3071 225.538 30.172 225.592C29.9374 225.678 29.7106 225.785 29.4943 225.91C29.1311 226.127 28.8028 226.398 28.5204 226.713C28.0477 227.282 27.9167 227.691 27.9509 227.708C27.985 227.726 28.2242 227.367 28.714 226.906C28.9999 226.638 29.3197 226.408 29.6651 226.223C29.8672 226.117 30.0766 226.026 30.2916 225.95C30.5251 225.865 30.7301 225.836 30.8041 225.95C30.8782 226.064 30.8326 226.001 30.8041 226.081C30.7361 226.165 30.6576 226.239 30.5706 226.303C30.3892 226.449 30.199 226.584 30.0011 226.707C29.6674 226.919 29.3147 227.1 28.9475 227.248C28.5899 227.341 28.2396 227.461 27.8996 227.606Z" fill="#263238"/>
<path d="M28.06 227.748C28.2397 227.398 28.3016 226.999 28.2365 226.61C28.2122 226.187 28.1139 225.771 27.9461 225.381C27.849 225.15 27.7267 224.931 27.5816 224.727C27.5052 224.583 27.3925 224.461 27.2546 224.375C27.1167 224.288 26.9585 224.238 26.7956 224.232C26.6949 224.245 26.6003 224.287 26.5226 224.353C26.4449 224.418 26.3875 224.505 26.3571 224.601C26.3144 224.74 26.2914 224.883 26.2888 225.028C26.2736 225.285 26.3005 225.543 26.3685 225.791C26.4746 226.216 26.6861 226.607 26.9836 226.929C27.4905 227.47 27.9689 227.549 27.9689 227.498C27.9689 227.447 27.593 227.27 27.1943 226.741C26.9626 226.438 26.7993 226.089 26.7159 225.717C26.6667 225.5 26.6495 225.278 26.6647 225.057C26.6647 224.812 26.7444 224.607 26.8355 224.624C26.9266 224.641 27.1601 224.772 27.2741 224.954C27.407 225.133 27.5233 225.323 27.6214 225.523C27.7902 225.885 27.9071 226.268 27.9689 226.661C28.0714 227.31 27.9973 227.737 28.06 227.748Z" fill="#263238"/>
<path d="M19.876 124.422C19.876 124.422 14.5112 134.705 14.5112 143.025C14.5112 144.783 25.4004 232.067 25.4004 232.067L40.7773 230.77L33.3053 150.127L35.7257 133.738L19.876 124.422Z" fill="#263238"/>
<path d="M54.1895 133.533C54.1895 133.533 50.5901 163.585 48.8986 175.166C47.1274 187.287 43.6534 189.575 43.6534 189.575L12.9222 228.38L2.83034 219.44L29.2958 179.753C29.2958 179.753 34.8999 132.366 34.6721 133.538C34.4443 134.711 54.1895 133.533 54.1895 133.533Z" fill="#263238"/>
<path d="M43.1055 190.076C43.0349 190.211 42.9489 190.337 42.8492 190.451L42.0519 191.476L39.1302 195.237L29.5794 207.757C25.8605 212.64 22.4661 217.05 19.9546 220.197C18.7016 221.773 17.6765 223.042 16.9475 223.896L16.1103 224.886C16.0165 225.004 15.9137 225.114 15.8028 225.216C15.8756 225.083 15.9635 224.959 16.0648 224.846C16.2641 224.584 16.5261 224.243 16.8564 223.822L19.7552 220.032C22.2213 216.811 25.5871 212.406 29.306 207.512C33.025 202.618 36.4421 198.248 38.9537 195.118C40.2066 193.542 41.2317 192.273 41.9607 191.413L42.7979 190.429C42.8903 190.303 42.9931 190.185 43.1055 190.076Z" fill="#455A64"/>
<path d="M32.6635 151.129C32.671 151.174 32.671 151.22 32.6635 151.265L32.6293 151.664C32.5951 152.043 32.5439 152.555 32.4755 153.2C32.3274 154.554 32.1224 156.478 31.8604 158.84C31.2909 163.62 30.5506 170.181 29.7191 177.431C29.6222 178.228 29.5311 179.019 29.44 179.759V179.798V179.827L19.929 194.088C18.7274 195.875 17.7535 197.314 17.0815 198.333C16.7511 198.817 16.4835 199.192 16.2955 199.471L16.0848 199.767C16.0335 199.83 16.0108 199.864 16.0051 199.858C16.019 199.82 16.0381 199.783 16.062 199.75L16.25 199.443L16.9903 198.276L19.7582 193.98L29.1951 179.662V179.724C29.2805 178.979 29.3773 178.188 29.4685 177.391C30.3398 170.147 31.1258 163.586 31.6953 158.811C31.9971 156.449 32.2363 154.532 32.4072 153.177C32.4926 152.534 32.561 152.039 32.6122 151.652C32.6407 151.493 32.6578 151.362 32.6749 151.254C32.6919 151.146 32.6578 151.123 32.6635 151.129Z" fill="#455A64"/>
<g opacity="0.3">
<path d="M52.7877 144.914C52.7877 144.914 40.8279 148.061 32.6496 146.753C21.0827 144.914 14.7553 139.628 14.7553 139.628L15.7862 136.327L53.2832 141.056L52.7877 144.914Z" fill="black"/>
</g>
<path d="M33.9959 76.6371L24.8836 79.2548C24.8836 79.2548 19.5017 117.542 18.169 123.13C16.4946 130.135 14.6095 135.65 14.7519 137.619C14.7519 137.619 18.9037 143.122 31.1426 144.561C43.3816 146.001 55.0681 142.581 55.0681 142.581L56.0704 119.608C56.0704 119.608 61.7201 99.0414 61.8397 95.6099C62.1472 87.1763 60.0969 82.2652 60.0969 82.2652L47.9092 76.8078C44.5149 80.5978 35.807 81.8725 33.9959 76.6371Z" fill="#FF6420"/>
<path d="M17.0975 86.2773C17.841 84.6341 18.9164 83.162 20.2561 81.9536C21.5958 80.7452 23.171 79.8264 24.8828 79.255L24.1026 98.501L19.068 104.789L24.1026 108.204L15.6452 119.17C15.6452 119.17 7.541 115.368 7.18221 111.954C6.82341 108.539 15.7705 89.2707 17.0975 86.2773Z" fill="#FF6420"/>
<path d="M40.3036 107.481L42.3652 114.634C35.252 123.062 15.6548 119.152 15.6548 119.152L23.4515 108.147C27.4951 109.484 40.3036 107.481 40.3036 107.481Z" fill="#FF6420"/>
<path d="M42.0409 106.462C42.0409 106.462 45.6972 99.2636 46.0901 99.1782C46.4831 99.0928 52.2352 97.0726 52.2352 97.0726C52.4089 97.5388 52.4089 98.0519 52.2352 98.5181L54.2969 98.7798C54.2969 98.7798 53.9893 100.055 53.2888 100.231L54.0349 100.885C53.6615 101.383 53.1807 101.789 52.6282 102.075C52.4165 102.179 52.1837 102.233 51.9476 102.233C51.7116 102.233 51.4787 102.179 51.267 102.075C51.267 102.075 51.5347 102.553 50.3501 103.298C49.1655 104.044 46.7736 107.504 46.7736 107.504L42.0409 106.462Z" fill="#FFBF9D"/>
<path d="M52.0527 98.5408C50.8386 99.1287 49.5799 99.6196 48.2882 100.009C47.7643 100.197 47.2403 100.339 46.8303 100.533C46.4673 100.713 46.1675 100.998 45.9703 101.352C45.6286 101.972 45.4976 102.422 45.4463 102.399C45.4706 102 45.5835 101.611 45.7767 101.261C45.9685 100.844 46.2928 100.502 46.6993 100.288C47.1833 100.07 47.6796 99.8795 48.1857 99.7188C49.4429 99.2285 50.7356 98.8347 52.0527 98.5408Z" fill="#FF9A6C"/>
<path d="M53.3926 100.231C53.0747 100.423 52.7228 100.552 52.3561 100.612C51.6954 100.789 50.7671 100.936 49.7818 101.181C48.9419 101.391 48.1508 101.762 47.4525 102.274C46.9286 102.684 46.6951 103.036 46.6495 103.008C46.7775 102.65 47.0071 102.338 47.3101 102.109C47.9974 101.517 48.8151 101.095 49.6964 100.88C50.7102 100.606 51.6442 100.493 52.3105 100.373C52.666 100.292 53.0282 100.245 53.3926 100.231Z" fill="#FF9A6C"/>
<path d="M48.1246 103.264C48.4971 102.841 48.9712 102.52 49.5023 102.331C50.0334 102.142 50.6039 102.091 51.1602 102.183C51.1602 102.274 50.4369 102.325 49.6054 102.627C48.7739 102.928 48.1816 103.338 48.1246 103.264Z" fill="#FF9A6C"/>
<path d="M56.7409 82.3621C54.1382 82.9995 53.3694 86.0554 51.5697 92.1672C49.77 98.279 47.7938 104.573 47.7938 104.573L46.7744 107.504L24.1076 102.035L19.5229 109.291C19.5229 109.291 34.262 120.991 44.8608 121.457C50.0206 120.979 53.4035 119.044 57.5895 112.09C59.9701 108.164 61.5306 104.522 62.2368 100.976C63.222 96.0312 64.8736 91.1941 63.484 86.5163C62.3962 82.8401 60.4599 81.4516 56.7409 82.3621Z" fill="#FF6420"/>
<path d="M23.4704 96.8394C23.5309 95.8092 23.6931 94.7875 23.9545 93.7891C24.1152 92.7688 24.3805 91.7677 24.7461 90.8015C24.6821 91.8313 24.52 92.8527 24.262 93.8517C24.0993 94.8717 23.8341 95.8726 23.4704 96.8394Z" fill="#263238"/>
<g opacity="0.3">
<path d="M39.4801 120.473C38.1589 119.928 36.782 119.529 35.3739 119.284C33.8647 119.056 32.5946 119.505 31.0854 119.739C26.5805 120.444 23.2204 119.91 18.9718 119.739L18.7382 121.042C20.6063 122.499 22.9584 122.965 25.3333 122.92C27.4804 122.88 29.5933 122.18 31.746 122.243C33.438 122.383 35.1082 122.717 36.7236 123.239C39.4454 124.058 42.3061 124.311 45.1297 123.984C52.1746 122.926 54.8912 117.389 56.0645 114.811C55.4846 115.747 54.8335 116.637 54.1167 117.474C49.6346 122.123 43.199 122.038 39.4801 120.473Z" fill="black"/>
</g>
<path d="M18.7365 109.353C18.7695 109.389 18.8057 109.421 18.8447 109.45L19.1751 109.706C19.4712 109.933 19.9097 110.275 20.485 110.662C21.624 111.476 23.3326 112.614 25.4569 113.928C27.9624 115.48 30.552 116.891 33.2137 118.157C33.9654 118.509 34.7343 118.879 35.5487 119.192L36.7732 119.693C37.1889 119.852 37.616 119.995 38.0432 120.143C39.8102 120.773 41.6361 121.225 43.4935 121.491C44.4394 121.589 45.3914 121.614 46.3411 121.565C47.2692 121.472 48.1808 121.256 49.052 120.922C50.6846 120.27 52.1728 119.303 53.4316 118.077C55.518 115.974 57.2405 113.539 58.5287 110.872C59.4161 109.098 60.1774 107.263 60.8068 105.381C61.0346 104.715 61.1884 104.192 61.2852 103.833C61.3232 103.666 61.3574 103.53 61.3877 103.423C61.3968 103.376 61.3968 103.328 61.3877 103.281C61.3643 103.324 61.347 103.37 61.3365 103.418L61.2055 103.816C61.0859 104.169 60.915 104.681 60.6758 105.341C60.0075 107.204 59.2179 109.021 58.3123 110.781C57.0101 113.408 55.2885 115.804 53.2151 117.878C51.9799 119.077 50.5209 120.023 48.921 120.66C48.0744 120.986 47.1872 121.195 46.2841 121.281C45.3496 121.33 44.4127 121.305 43.4821 121.207C41.6451 120.943 39.8386 120.498 38.0888 119.881L36.8301 119.437L35.6113 118.942C34.8026 118.629 34.0338 118.27 33.282 117.923C30.6392 116.663 28.0635 115.267 25.5651 113.741C23.418 112.449 21.7151 111.339 20.5533 110.554L19.2092 109.649L18.8618 109.416C18.7821 109.376 18.7422 109.347 18.7365 109.353Z" fill="#263238"/>
<path d="M52.1719 89.4469C52.1602 89.5729 52.1334 89.6971 52.0921 89.8168C52.0181 90.0786 51.9213 90.4257 51.8074 90.8582L50.7025 94.7051C49.7343 97.983 48.4244 102.484 46.9095 107.543L46.8696 107.674L46.7216 107.634C46.1919 107.504 45.5825 107.373 44.9561 107.242C39.3691 106.047 34.3289 104.88 30.7181 103.924C28.9071 103.457 27.4491 103.031 26.4467 102.729L25.3077 102.359C25.1732 102.322 25.0419 102.274 24.9147 102.217C25.0546 102.231 25.1923 102.261 25.3248 102.308L26.4638 102.621C27.4776 102.888 28.9412 103.281 30.758 103.725C34.3858 104.63 39.4318 105.762 44.9959 106.957C45.6167 107.094 46.1976 107.213 46.8013 107.367L46.6134 107.458L50.5089 94.6482C51.0044 93.0491 51.4087 91.7573 51.6992 90.8297C51.8358 90.4029 51.9498 90.0615 52.0352 89.7997C52.0669 89.6772 52.1127 89.5588 52.1719 89.4469Z" fill="#263238"/>
<path d="M17.6387 107.595L7.90565 107.418C7.43645 107.407 6.9822 107.251 6.60502 106.972C6.22784 106.693 5.94614 106.304 5.79843 105.859L0.103252 88.6276C-0.323885 87.3301 0.632908 86.2774 2.1706 86.192L14.0849 85.5205C15.9985 85.5205 17.0179 86.118 17.3426 87.2277L21.0615 100.8C22.0354 103.93 20.4521 107.481 17.6387 107.595Z" fill="#263238"/>
<path d="M24.5566 101.028L23.0019 97.7328L20.1258 96.9247L21.0427 99.9579C20.0404 100.447 18.7134 100.76 17.8477 100.282C16.9821 99.8042 13.582 96.4296 12.9385 96.754C12.2949 97.0784 11.7254 97.8523 12.312 98.5921C12.8986 99.3319 16.0822 101.631 15.4273 102.308C14.7723 102.985 11.0989 100.032 10.0225 100.231C8.94616 100.43 8.28552 101.079 8.88351 101.54C9.48151 102.001 10.9622 103.475 11.2242 104.123C11.1616 104.932 10.7743 106.081 11.1274 106.28C11.9923 106.689 12.8995 107.002 13.8326 107.214C14.0263 107.214 15.3931 107.783 16.6517 108.266C18.0668 108.839 19.6425 108.875 21.0826 108.369L21.8116 108.113C22.3688 107.915 22.8508 107.55 23.1906 107.066C23.5304 106.583 23.7113 106.006 23.7081 105.415L23.6796 102.985L24.5566 101.028Z" fill="#FFBF9D"/>
</svg>
