<?xml version="1.0" encoding="utf-8"?>
<!-- Generator: Adobe Illustrator 24.1.1, SVG Export Plug-In . SVG Version: 6.00 Build 0)  -->
<svg version="1.1" id="Layer_1" xmlns:serif="http://www.serif.com/"
	 xmlns="http://www.w3.org/2000/svg" xmlns:xlink="http://www.w3.org/1999/xlink" x="0px" y="0px" viewBox="0 0 1080 1080"
	 style="enable-background:new 0 0 1080 1080;" xml:space="preserve">
<style type="text/css">
	.st0{fill:#1877F2;}
	.st1{fill:#FFFFFF;}
</style>
<g>
	<path class="st0" d="M860,540c0-176.7-143.3-320-320-320S220,363.3,220,540c0,159.7,117,292.1,270,316.1V632.5h-81.3V540H490v-70.5
		c0-80.2,47.8-124.5,120.9-124.5c35,0,71.6,6.3,71.6,6.3V430h-40.4c-39.8,0-52.1,24.7-52.1,50v60h88.8l-14.2,92.5H590v223.6
		C743,832.1,860,699.7,860,540z"/>
	<path class="st1" d="M664.6,632.5l14.2-92.5H590v-60c0-25.3,12.4-50,52.1-50h40.4v-78.8c0,0-36.6-6.3-71.6-6.3
		C537.8,345,490,389.3,490,469.5V540h-81.3v92.5H490v223.6c16.3,2.6,33,3.9,50,3.9s33.7-1.3,50-3.9V632.5H664.6z"/>
</g>
</svg>
