<svg width="176" height="26" viewBox="0 0 176 26" fill="none" xmlns="http://www.w3.org/2000/svg">
<g clip-path="url(#clip0_6707_21219)">
<path d="M17.6386 20.7323C16.8551 20.3131 16.2102 19.6873 15.7784 18.9274C15.3157 18.1016 15.0828 17.1731 15.1028 16.2335C15.0824 15.2922 15.3219 14.3627 15.7963 13.5411C16.242 12.7775 16.9 12.1505 17.6953 11.7316C18.5243 11.3126 19.4454 11.0938 20.3803 11.0938C21.3152 11.0938 22.2363 11.3126 23.0653 11.7316C23.8596 12.1496 24.5174 12.7748 24.9643 13.5364C25.438 14.3583 25.6774 15.2876 25.6578 16.2288C25.6783 17.1728 25.4323 18.1043 24.9465 18.9227C24.4881 19.6861 23.8215 20.3122 23.0199 20.7323C22.1842 21.1599 21.2506 21.376 20.3058 21.3606C19.3758 21.3766 18.4573 21.1602 17.6386 20.7323ZM21.6312 18.8473C22.0536 18.6143 22.3974 18.2679 22.6213 17.8499C22.8813 17.3493 23.0083 16.7937 22.9907 16.2335C22.9907 15.291 22.7347 14.5643 22.2227 14.0532C21.9812 13.8064 21.6894 13.6111 21.3658 13.4796C21.0422 13.3482 20.6938 13.2835 20.343 13.2898C19.9953 13.2822 19.6499 13.3458 19.3293 13.4765C19.0088 13.6073 18.7203 13.8022 18.4828 14.0485C17.9827 14.5574 17.7326 15.2842 17.7326 16.2288C17.7326 17.1734 17.9768 17.9006 18.465 18.4106C18.6976 18.6586 18.9825 18.8552 19.3004 18.9869C19.6183 19.1187 19.9618 19.1825 20.3074 19.1741C20.7703 19.1769 21.2261 19.0644 21.6312 18.8473Z" fill="white"/>
<path d="M28.2624 13.5185C28.6399 12.7791 29.2237 12.157 29.9475 11.7231C30.6651 11.3028 31.4896 11.0852 32.3279 11.0948C33.0258 11.0797 33.7165 11.2342 34.3371 11.544C34.8784 11.8167 35.35 12.2031 35.7177 12.675V11.2613H38.3297V21.2045H35.7177V19.7499C35.3597 20.2377 34.8863 20.6353 34.3371 20.9092C33.7109 21.2213 33.0141 21.3768 32.31 21.3615C31.4751 21.3693 30.6554 21.1453 29.9475 20.7159C29.2232 20.2702 28.64 19.6391 28.2624 18.8922C27.8359 18.0532 27.6231 17.1272 27.6418 16.192C27.6242 15.2655 27.8371 14.3484 28.2624 13.5185ZM35.3466 14.6589C35.1176 14.2393 34.771 13.8908 34.3469 13.6536C33.9358 13.4228 33.4689 13.3019 32.9938 13.3033C32.517 13.2977 32.0478 13.4196 31.6379 13.6557C31.228 13.8918 30.8931 14.233 30.6702 14.6416C30.4071 15.1189 30.2764 15.6542 30.2911 16.1952C30.2778 16.7415 30.4083 17.2821 30.6702 17.766C30.9005 18.1926 31.2468 18.55 31.6716 18.7996C32.07 19.0345 32.5275 19.1584 32.9938 19.1577C33.469 19.1599 33.9361 19.039 34.3469 18.8074C34.7714 18.5706 35.118 18.222 35.3466 17.8021C35.606 17.3176 35.7338 16.777 35.7177 16.2313C35.7338 15.6851 35.6061 15.144 35.3466 14.6589Z" fill="white"/>
<path d="M44.1981 7.91797V21.2054H41.6055V7.91797H44.1981Z" fill="white"/>
<path d="M49.1606 20.9237C48.5367 20.6629 47.9918 20.252 47.5775 19.7298C47.1959 19.2489 46.9729 18.6675 46.9375 18.0616H49.5495C49.5734 18.2508 49.6375 18.4332 49.738 18.5971C49.8384 18.7609 49.9729 18.9028 50.1329 19.0136C50.5001 19.2738 50.947 19.4066 51.4016 19.3905C51.8087 19.4132 52.2129 19.3127 52.5586 19.1031C52.6867 19.0246 52.7921 18.9158 52.865 18.7869C52.9378 18.658 52.9757 18.5133 52.975 18.3664C52.9759 18.2097 52.9277 18.0565 52.8369 17.9269C52.746 17.7974 52.6168 17.6975 52.4662 17.6407C51.9438 17.4165 51.4014 17.2388 50.8458 17.1097C50.2058 16.9683 49.5771 16.7824 48.9646 16.5537C48.4786 16.3619 48.0469 16.0603 47.7056 15.674C47.3539 15.2797 47.1789 14.7457 47.1789 14.0765C47.1731 13.5368 47.3432 13.009 47.665 12.5685C48.0217 12.0899 48.5087 11.7168 49.0715 11.491C49.7543 11.2134 50.4897 11.0785 51.2299 11.0951C52.4516 11.0951 53.4271 11.3915 54.1563 11.9842C54.8854 12.5769 55.2867 13.3759 55.3602 14.3812H52.8826C52.8708 14.1983 52.8194 14.0199 52.7318 13.8575C52.6441 13.6951 52.5222 13.5524 52.3738 13.4388C52.0229 13.1901 51.5943 13.0664 51.1602 13.0885C50.7811 13.0661 50.4038 13.1536 50.0762 13.3398C49.9558 13.4148 49.8576 13.5187 49.7911 13.6415C49.7247 13.7644 49.6922 13.9018 49.697 14.0404C49.6964 14.203 49.7452 14.3621 49.8374 14.4979C49.9297 14.6337 50.0612 14.7401 50.2155 14.8038C50.735 15.0347 51.2781 15.2121 51.8359 15.3332C52.4595 15.4763 53.0719 15.6622 53.6685 15.8892C54.1532 16.0837 54.5823 16.3887 54.9194 16.7783C55.2711 17.1789 55.4525 17.7098 55.4655 18.3664C55.4744 18.9177 55.3043 19.4579 54.9794 19.9105C54.6237 20.3885 54.1355 20.7589 53.5713 20.9786C52.8934 21.2488 52.1652 21.3803 51.4324 21.3651C50.6511 21.3791 49.876 21.2285 49.1606 20.9237Z" fill="white"/>
<path d="M11.0419 14.5594H7.74605L10.7324 17.4544C10.3453 17.9399 9.846 18.3305 9.27464 18.5946C8.70327 18.8588 8.07587 18.989 7.44304 18.9749C6.68748 18.9755 5.94364 18.7938 5.27852 18.4463C4.61341 18.0988 4.04791 17.5964 3.63297 16.9843C3.21803 16.3722 2.96669 15.6696 2.90158 14.9399C2.83646 14.2102 2.95963 13.4762 3.25998 12.8041C3.56033 12.132 4.02843 11.5429 4.62212 11.0898C5.2158 10.6368 5.91642 10.334 6.66086 10.2088C7.4053 10.0836 8.17018 10.1399 8.88659 10.3726C9.60301 10.6053 10.2485 11.0071 10.7648 11.5418L12.4435 10.0213C11.5043 9.0473 10.2847 8.3697 8.94298 8.07661C7.6013 7.78351 6.1997 7.88847 4.92038 8.37784C3.64105 8.86721 2.54318 9.71836 1.76948 10.8206C0.995775 11.9229 0.582031 13.2253 0.582031 14.5586C0.582031 15.8918 0.995775 17.1943 1.76948 18.2965C2.54318 19.3988 3.64105 20.2499 4.92038 20.7393C6.1997 21.2287 7.6013 21.3336 8.94298 21.0405C10.2847 20.7475 11.5043 20.0699 12.4435 19.0959C12.9791 18.5541 13.4056 17.9202 13.7009 17.2266L11.0419 14.5594ZM10.8572 17.3554C10.8491 17.3554 10.8491 17.3318 10.8572 17.291C10.8831 17.28 10.8701 17.3318 10.8572 17.3554Z" fill="white"/>
<path d="M10.3459 17.355C10.3378 17.355 10.3378 17.3314 10.3459 17.2906C10.3718 17.2796 10.354 17.3314 10.3459 17.355Z" fill="white"/>
<path d="M71.5267 18.5847H65.8976L64.8605 21.3634H63.0781L67.7432 8.92578H69.6876L74.3429 21.3634H72.5605L71.5267 18.5847ZM71.0406 17.2558L68.7154 10.9364L66.3821 17.2558H71.0406Z" fill="white"/>
<path d="M77.1214 13.7651C77.5193 13.0262 78.1264 12.4126 78.8714 11.9964C79.6531 11.5685 80.5388 11.3515 81.4364 11.3681C82.6841 11.3681 83.7103 11.6618 84.5151 12.2493C85.3341 12.8503 85.9029 13.7166 86.1177 14.6903H84.3029C84.1473 14.1191 83.79 13.6189 83.2934 13.2766C82.7455 12.916 82.0934 12.7339 81.4316 12.7567C80.9938 12.7412 80.558 12.8191 80.1548 12.985C79.7516 13.1508 79.3909 13.4005 79.0982 13.7164C78.5052 14.3573 78.2086 15.2642 78.2086 16.4371C78.2086 17.6099 78.5052 18.5252 79.0982 19.1828C79.389 19.5017 79.7491 19.7541 80.1526 19.922C80.556 20.0898 80.9928 20.1689 81.4316 20.1536C82.0878 20.1768 82.7352 20.0011 83.2836 19.6509C83.786 19.3025 84.1466 18.7945 84.3029 18.2152H86.1177C85.8754 19.1767 85.2999 20.0284 84.4876 20.628C83.6731 21.2343 82.6544 21.5369 81.4316 21.5359C80.534 21.5524 79.6482 21.3355 78.8665 20.9076C78.1205 20.4891 77.5133 19.8728 77.1165 19.131C76.6822 18.2946 76.4684 17.3669 76.4943 16.4308C76.4712 15.5055 76.6868 14.5892 77.1214 13.7651Z" fill="white"/>
<path d="M89.1036 13.7655C89.4982 13.03 90.0985 12.417 90.8358 11.9968C91.5795 11.5753 92.4276 11.358 93.289 11.3685C94.0985 11.3494 94.8984 11.542 95.6045 11.9261C96.2137 12.2551 96.7181 12.7397 97.0629 13.3273V11.5303H98.7659V21.3635H97.0726V19.5367C96.7162 20.1332 96.2014 20.6262 95.5818 20.9645C94.8802 21.3518 94.0833 21.5472 93.2761 21.53C92.4145 21.5408 91.5673 21.3165 90.8309 20.8829C90.0945 20.4451 89.4981 19.8175 89.1085 19.0701C88.6777 18.2479 88.4613 17.3359 88.4781 16.4139C88.4558 15.4944 88.6708 14.584 89.1036 13.7655ZM96.6043 14.4912C96.3183 13.9642 95.8855 13.5255 95.355 13.2252C94.827 12.9393 94.2324 12.7892 93.6277 12.7892C93.023 12.7892 92.4283 12.9393 91.9004 13.2252C91.3728 13.5224 90.9426 13.958 90.6592 14.4818C90.338 15.0801 90.1786 15.7475 90.1957 16.4218C90.1798 17.1014 90.3391 17.7741 90.6592 18.379C90.9419 18.9082 91.3719 19.3501 91.9004 19.6545C92.4235 19.9479 93.0185 20.0993 93.6228 20.0927C94.2301 20.0983 94.828 19.9471 95.355 19.6545C95.8874 19.3523 96.3205 18.91 96.6043 18.379C96.9253 17.7777 97.0862 17.1081 97.0726 16.4312C97.087 15.7567 96.926 15.0895 96.6043 14.4912Z" fill="white"/>
<path d="M102.366 13.7652C102.76 13.0297 103.36 12.4168 104.097 11.9965C104.847 11.5733 105.702 11.3561 106.569 11.3682C107.338 11.3632 108.096 11.5458 108.773 11.8991C109.413 12.216 109.952 12.6974 110.329 13.2908V8.08203H112.033V21.3632H110.329V19.5191C109.979 20.122 109.467 20.6215 108.848 20.9642C108.15 21.3522 107.356 21.5478 106.552 21.5297C105.686 21.541 104.835 21.3164 104.095 20.8815C103.355 20.4466 102.756 19.8188 102.366 19.0698C101.935 18.2479 101.718 17.3357 101.736 16.4136C101.714 15.4936 101.931 14.583 102.366 13.7652ZM109.875 14.4909C109.588 13.9637 109.155 13.5251 108.624 13.2249C108.096 12.939 107.502 12.7889 106.898 12.7889C106.293 12.7889 105.699 12.939 105.171 13.2249C104.643 13.5215 104.213 13.9572 103.93 14.4815C103.609 15.0798 103.449 15.7472 103.466 16.4214C103.448 17.1004 103.604 17.7731 103.922 18.3787C104.204 18.9082 104.634 19.3502 105.163 19.6542C105.686 19.9476 106.281 20.099 106.885 20.0924C107.492 20.098 108.09 19.9467 108.616 19.6542C109.152 19.3532 109.588 18.9108 109.875 18.3787C110.194 17.7768 110.352 17.1073 110.337 16.4309C110.353 15.7569 110.194 15.0898 109.875 14.4909Z" fill="white"/>
<path d="M124.829 17.0561H116.717C116.779 18.0247 117.121 18.7818 117.744 19.3274C118.365 19.8713 119.177 20.1637 120.013 20.1443C120.659 20.167 121.297 19.9946 121.837 19.651C122.318 19.33 122.679 18.8664 122.865 18.33H124.679C124.423 19.2565 123.848 20.0704 123.049 20.6375C122.234 21.2292 121.222 21.5255 120.013 21.5266C119.107 21.5428 118.212 21.326 117.42 20.8982C116.663 20.4789 116.044 19.8588 115.638 19.1107C115.192 18.2838 114.969 17.3608 114.99 16.4277C114.969 15.5009 115.185 14.5835 115.618 13.7574C116.017 13.0124 116.632 12.3973 117.388 11.9886C118.19 11.5617 119.093 11.3451 120.008 11.3603C120.9 11.3435 121.781 11.5542 122.563 11.9714C123.288 12.3619 123.882 12.9443 124.278 13.6505C124.686 14.3929 124.893 15.2237 124.879 16.0649C124.88 16.3959 124.863 16.7267 124.829 17.0561ZM122.722 14.1202C122.445 13.6787 122.043 13.3237 121.564 13.0976C121.059 12.8599 120.504 12.74 119.943 12.7473C119.141 12.7282 118.361 13.0095 117.767 13.5327C117.169 14.0563 116.826 14.7862 116.74 15.7224H123.143C123.158 15.1603 123.01 14.6054 122.717 14.1202H122.722Z" fill="white"/>
<path d="M142.164 11.8236C142.786 12.148 143.294 12.6452 143.622 13.2515C144 13.9669 144.185 14.7634 144.16 15.5669V21.3616H142.497V15.8009C142.497 14.8197 142.247 14.0683 141.747 13.5468C141.247 13.0253 140.571 12.7635 139.718 12.7614C138.841 12.7614 138.144 13.0337 137.627 13.5782C137.109 14.1228 136.85 14.9082 136.849 15.9344V21.3616H135.181V15.8009C135.181 14.8197 134.931 14.0683 134.431 13.5468C133.931 13.0253 133.255 12.7635 132.404 12.7614C131.526 12.7614 130.828 13.0337 130.311 13.5782C129.793 14.1228 129.534 14.9082 129.533 15.9344V21.3616H127.848V11.5283H129.533V12.942C129.859 12.4348 130.324 12.0249 130.876 11.7577C131.454 11.4788 132.091 11.3371 132.736 11.3445C133.528 11.3299 134.309 11.5225 134.997 11.9022C135.653 12.2787 136.165 12.8521 136.455 13.5358C136.723 12.8586 137.219 12.289 137.863 11.9194C138.522 11.5345 139.278 11.3354 140.047 11.3445C140.783 11.3317 141.51 11.4963 142.164 11.8236Z" fill="white"/>
<path d="M156.407 11.5273L150.295 25.9976H148.553L150.554 21.2569L146.461 11.5273H148.331L151.516 19.4976L154.665 11.5273H156.407Z" fill="white"/>
<path d="M10.3459 17.355C10.3378 17.355 10.3378 17.3314 10.3459 17.2906C10.3718 17.2796 10.354 17.3314 10.3459 17.355Z" fill="white"/>
<path d="M175.326 1.31948L174.483 3.17146C174.407 3.33794 174.283 3.4795 174.125 3.57902C173.968 3.67854 173.784 3.73175 173.597 3.73224H171.383C171.222 3.73174 171.064 3.69241 170.922 3.61778C170.78 3.54316 170.66 3.43558 170.572 3.30472C170.484 3.17387 170.431 3.02384 170.417 2.86814C170.404 2.71244 170.431 2.55596 170.495 2.41276L171.336 0.560778C171.412 0.394051 171.537 0.252328 171.694 0.152791C171.852 0.0532546 172.036 0.000179355 172.224 0L174.438 0C174.599 0.00049678 174.757 0.0398275 174.899 0.114454C175.04 0.18908 175.161 0.29666 175.249 0.427516C175.337 0.558372 175.39 0.708398 175.403 0.864097C175.417 1.0198 175.39 1.17628 175.326 1.31948Z" fill="#FF8854"/>
<path d="M168.661 5.05079L165.177 12.721C165.101 12.8888 164.977 13.0316 164.818 13.1317C164.66 13.2319 164.475 13.2851 164.286 13.285H162.074C161.913 13.2842 161.755 13.2447 161.614 13.17C161.472 13.0952 161.352 12.9876 161.264 12.8568C161.176 12.726 161.123 12.5761 161.11 12.4205C161.097 12.2649 161.123 12.1086 161.188 11.9655L161.92 10.346C163.068 7.97092 161.468 7.14782 159.767 7.14782H157.294C157.146 7.14808 157 7.11236 156.87 7.04393C156.74 6.97551 156.63 6.87655 156.549 6.75611C156.468 6.63566 156.42 6.49757 156.409 6.35443C156.398 6.2113 156.423 6.0677 156.484 5.93673L157.252 4.23869C157.321 4.08544 157.434 3.95479 157.578 3.86252C157.722 3.77026 157.89 3.72032 158.062 3.71875H167.784C167.946 3.72015 168.105 3.76071 168.247 3.83677C168.389 3.91283 168.508 4.02197 168.595 4.15429C168.682 4.28661 168.734 4.43791 168.746 4.59447C168.757 4.75103 168.728 4.90788 168.661 5.05079Z" fill="#FF8854"/>
</g>
<defs>
<clipPath id="clip0_6707_21219">
<rect width="175" height="26" fill="white" transform="translate(0.5)"/>
</clipPath>
</defs>
</svg>
