<svg id="Layer_1" data-name="Layer 1" xmlns="http://www.w3.org/2000/svg" viewBox="0 0 866.92 625.36"><defs><style>.cls-1{fill:#ff6420;}</style></defs><path class="cls-1" d="M863.11,62.07l-38.38,87.16a44.24,44.24,0,0,1-40.49,26.41h-101a44.24,44.24,0,0,1-40.49-62.06l38.38-87.17A44.24,44.24,0,0,1,721.62,0h101A44.23,44.23,0,0,1,863.11,62.07Z"/><path class="cls-1" d="M559.29,237.81,400.19,599a44.33,44.33,0,0,1-40.62,26.35H258.52a44.16,44.16,0,0,1-40.41-62l33.49-76.1c52.27-111.82-20.75-150.76-98.35-150.76H40.58c-29.32,0-48.94-30.12-37-56.86L38.6,199.77A40.61,40.61,0,0,1,75.65,175.6h443A44.34,44.34,0,0,1,559.29,237.81Z"/></svg>
