<svg width="1920" height="1028" viewBox="0 0 1920 1028" fill="none" xmlns="http://www.w3.org/2000/svg">
<path d="M115.951 803.907C95.2257 798.114 75.8952 788.165 59.1358 774.665C42.3763 761.166 28.5382 744.399 18.463 725.383C8.38787 706.367 2.28634 685.501 0.529575 664.052C-1.22719 642.604 1.39755 621.023 8.24411 600.621C18.9243 568.943 39.4248 540.93 48.2043 508.663C58.2057 472.006 52.2773 433.087 46.0773 395.525C39.8774 357.963 33.6322 319.27 43 282.387C52.3678 245.505 81.8288 210.975 119.934 208.395C154.916 206.087 187.364 232.335 202.072 264.014C216.779 295.692 216.825 332.802 213.385 368.101C209.946 403.399 203.293 438.201 205.375 473.364C209.629 544.595 249.544 611.618 244.838 682.804C242.394 719.868 228.048 743.582 203.52 771.459C182.34 795.535 147.132 811.329 115.951 803.952" fill="#F5F5F5"/>
<path d="M122.694 981.126C122.151 981.126 121.744 852.601 121.744 694.073C121.744 535.544 122.151 406.975 122.694 406.975C123.238 406.975 123.69 535.544 123.69 693.937C123.69 852.33 123.238 981.126 122.694 981.126Z" fill="#E0E0E0"/>
<path d="M186.503 634.608C186.82 635.015 172.927 646.465 155.368 660.132C137.809 673.799 123.418 684.524 123.101 684.117C122.784 683.71 136.678 672.26 154.191 658.593C171.705 644.926 186.141 634.201 186.503 634.608Z" fill="#E0E0E0"/>
<path d="M122.74 626.326C115.887 622.739 109.334 618.608 103.144 613.971C96.5876 609.845 90.3954 605.167 84.6348 599.987C91.4965 603.609 98.0502 607.786 104.23 612.478C110.776 616.569 116.967 621.201 122.74 626.326Z" fill="#E0E0E0"/>
<path d="M1451.14 581.365C1464.51 524.687 1429.41 467.896 1372.73 454.519C1316.06 441.142 1259.26 476.244 1245.89 532.922C1232.51 589.6 1267.61 646.391 1324.29 659.768C1380.97 673.146 1437.76 638.043 1451.14 581.365Z" fill="#F5F5F5"/>
<path d="M1351.32 793.499C1351.23 792.702 1351.23 791.897 1351.32 791.1C1351.32 789.245 1351.32 786.982 1351.1 784.221C1351.1 777.886 1350.83 769.287 1350.64 758.833C1350.33 737.111 1349.83 707.65 1349.33 675.111C1348.83 642.573 1348.61 612.795 1348.74 591.389C1348.74 580.664 1348.74 571.975 1349.02 566.001C1349.02 563.241 1349.02 560.933 1349.24 559.123C1349.22 558.302 1349.3 557.482 1349.47 556.679C1349.67 557.477 1349.74 558.301 1349.69 559.123C1349.69 560.933 1349.69 563.241 1349.92 566.001C1349.92 572.337 1350.19 580.935 1350.37 591.389C1350.74 613.112 1351.19 642.573 1351.69 675.111C1352.18 707.65 1352.45 737.382 1352.32 758.833C1352.32 769.559 1352.32 778.202 1352 784.221C1352 786.982 1352 789.245 1351.78 791.1C1351.75 791.919 1351.6 792.728 1351.32 793.499Z" fill="#E0E0E0"/>
<path d="M1388.93 570.074C1377.11 585.603 1364.05 600.148 1349.88 613.564C1361.7 598.035 1374.76 583.491 1388.93 570.074Z" fill="#E0E0E0"/>
<path d="M1758.57 366.743L1681.05 523.099L1704.18 524.005L1638.51 648.275H1673L1619.19 758.652H1920L1853.79 648.275L1885.51 646.872L1822.02 522.692L1845.51 521.289L1758.57 366.743Z" fill="#F5F5F5"/>
<path d="M1761.52 547.582C1762.15 547.582 1761.52 628.77 1760.52 728.874C1759.52 828.978 1757.8 910.211 1757.17 910.211C1756.54 910.211 1756.94 829.023 1758.17 728.874C1759.39 628.724 1760.84 547.582 1761.52 547.582Z" fill="#E0E0E0"/>
<path d="M1806.23 594.376C1792.08 608.174 1776.84 620.811 1760.66 632.164C1774.84 618.401 1790.08 605.766 1806.23 594.376Z" fill="#E0E0E0"/>
<path d="M536.596 0.855469L394.767 286.913L437.125 288.497L316.973 515.813H380.059L281.629 717.786H831.931L710.783 515.813L768.845 513.324L652.72 286.098L695.622 283.564L536.596 0.855469Z" fill="#F0F0F0"/>
<path d="M560.581 332.666C561.215 332.666 560.174 463.318 558.274 624.426C556.373 785.534 554.246 916.14 553.748 916.14C553.25 916.14 554.11 785.534 556.056 624.38C558.002 463.227 559.903 332.666 560.581 332.666Z" fill="#E0E0E0"/>
<path d="M557.685 594.738C554.543 593.677 551.512 592.313 548.634 590.666L526.866 579.895L505.008 569.35C501.835 568.083 498.802 566.491 495.957 564.599C499.263 565.261 502.472 566.341 505.506 567.812C511.299 570.165 519.082 573.604 527.726 577.768C536.37 581.931 543.882 586.05 549.268 589.172C552.304 590.653 555.134 592.524 557.685 594.738Z" fill="#E0E0E0"/>
<path d="M625.659 379.143C625.16 380.521 624.458 381.818 623.577 382.989C622.129 385.342 619.911 388.737 617.106 392.855C611.539 401.091 603.529 412.315 594.207 424.533C584.884 436.752 576.105 447.161 569.543 454.719C566.284 458.475 563.569 461.462 561.623 463.453C559.677 465.444 558.591 466.575 558.455 466.44C561.455 461.967 564.735 457.69 568.275 453.632C574.475 445.849 583.074 435.123 592.351 423.085C601.628 411.047 609.82 400.05 615.748 392.086C618.762 387.557 622.073 383.234 625.659 379.143Z" fill="#E0E0E0"/>
<path d="M1495.64 555.729C1589.37 555.729 1665.35 479.748 1665.35 386.022C1665.35 292.296 1589.37 216.315 1495.64 216.315C1401.92 216.315 1325.94 292.296 1325.94 386.022C1325.94 479.748 1401.92 555.729 1495.64 555.729Z" fill="#F0F0F0"/>
<path d="M1496.77 785.081C1496.1 785.081 1495.6 695.476 1495.6 585.009C1495.6 474.541 1496.1 384.891 1496.77 384.891C1497.45 384.891 1497.95 474.45 1497.95 585.009C1497.95 695.567 1497.41 785.081 1496.77 785.081Z" fill="#E0E0E0"/>
<path d="M1560.67 406.703C1561.17 407.11 1547.46 423.176 1530.08 442.5C1512.7 461.824 1498.4 477.165 1497.77 476.758C1507.36 464.303 1517.57 452.34 1528.36 440.916C1538.54 428.964 1549.32 417.545 1560.67 406.703Z" fill="#E0E0E0"/>
<path d="M269.003 335.652L180.349 514.455L206.823 515.451L131.745 657.552H171.162L109.66 783.768H453.599L377.887 657.552L414.136 655.968L341.592 513.957L368.383 512.373L269.003 335.652Z" fill="#E6E6E6"/>
<path d="M283.982 543.057C284.616 543.057 283.982 618.814 282.67 712.175C281.357 805.536 279.683 881.248 279.049 881.248C278.416 881.248 279.049 805.536 280.316 712.13C281.584 618.723 283.349 543.057 283.982 543.057Z" fill="#E0E0E0"/>
<path d="M326.161 589.036C320.278 598.527 313.746 607.6 306.611 616.189C300.097 625.299 292.943 633.934 285.205 642.03C291.083 632.535 297.615 623.462 304.755 614.877C311.258 605.758 318.412 597.122 326.161 589.036Z" fill="#E0E0E0"/>
<path d="M283.167 638.318C276.174 634.347 269.581 629.71 263.481 624.47C256.936 619.855 250.872 614.594 245.379 608.767C252.353 612.745 258.93 617.382 265.02 622.615C271.561 627.251 277.639 632.51 283.167 638.318Z" fill="#E0E0E0"/>
<path d="M280.816 726.023C273.179 720.531 265.837 714.64 258.822 708.374C246.784 698.553 236.737 690.95 237.099 690.271C245.451 694.717 253.245 700.14 260.315 706.428C267.882 712.147 274.761 718.722 280.816 726.023Z" fill="#E0E0E0"/>
<path d="M329.827 671.808C323.307 681.769 316.141 691.293 308.376 700.318C301.247 709.886 293.475 718.958 285.115 727.471C291.636 717.51 298.801 707.986 306.566 698.961C313.695 689.392 321.466 680.32 329.827 671.808Z" fill="#E0E0E0"/>
<path d="M1654.76 145.581H1868.23C1868.23 145.581 1868.23 96.7055 1843.02 96.7055C1834 96.4042 1825.15 99.2646 1818.01 104.793C1810.87 110.321 1805.89 118.169 1803.92 126.981C1803.92 126.981 1803.92 35.7922 1758.03 49.1425C1714.59 61.8139 1709.66 120.193 1709.66 120.193C1709.66 120.193 1701.87 90.8676 1678.34 107.386C1654.81 123.904 1654.76 145.581 1654.76 145.581Z" fill="#F0F0F0"/>
<path d="M1818.22 962.345C1818.22 962.345 1817 961.123 1814.74 958.679L1804.73 947.728C1795.68 938.45 1782.38 924.512 1763.64 908.356C1740.94 888.694 1716.63 870.967 1690.96 855.362C1674.98 845.569 1658.47 836.67 1641.5 828.707C1578.75 799.048 1510.38 783.154 1440.97 782.094C1385.58 781.299 1330.5 790.639 1278.46 809.654C1223.39 829.386 1171.71 863.598 1119.3 899.667C1093.1 917.769 1066.62 936.414 1038.75 953.973C1010.64 972.063 980.9 987.472 949.912 999.997C918.775 1012.49 885.693 1019.44 852.161 1020.54C819.611 1021.16 787.164 1016.68 755.994 1007.28C726.035 998.15 696.795 986.805 668.516 973.342C640.729 960.444 614.21 946.777 587.781 933.834C535.466 908.039 484.237 885.321 433.144 875.229C426.809 873.917 420.428 873.011 414.137 871.971L404.724 870.839C401.605 870.388 398.462 870.116 395.311 870.025L376.757 869.029C370.602 869.029 364.538 869.301 358.654 869.391C355.668 869.391 352.636 869.391 349.603 869.753L340.552 870.658C334.715 871.382 328.877 871.609 323.174 872.695L306.34 875.727C300.728 876.587 295.388 878.306 290.048 879.573C251.506 889.53 214.561 904.871 180.304 925.145C154.344 940.241 129.55 957.259 106.131 976.057C86.943 991.625 72.6876 1004.52 63.2293 1013.44L52.5039 1023.67L48.793 1027.1C48.793 1027.1 49.9696 1025.84 52.3229 1023.48L62.8673 1013.08C72.2804 1004.02 86.4452 991.082 105.543 975.333C128.932 956.38 153.711 939.211 179.671 923.969C213.981 903.534 251.003 888.04 289.64 877.944C295.026 876.677 300.366 874.957 305.978 874.052L322.948 870.975C328.65 869.889 334.534 869.617 340.417 868.893L349.468 867.943C352.455 867.671 355.487 867.717 358.519 867.581C364.583 867.581 370.692 867.083 376.892 867.174L395.583 868.124C398.733 868.215 401.876 868.488 404.996 868.939L414.499 870.07C420.835 871.111 427.261 871.971 433.642 873.328C485.007 883.42 536.462 906.138 588.867 931.888C615.115 944.786 641.815 958.408 669.557 971.306C697.733 984.705 726.867 995.99 756.718 1005.07C787.703 1014.38 819.949 1018.81 852.297 1018.19C885.564 1017.07 918.381 1010.16 949.278 997.78C980.171 985.289 1009.82 969.925 1037.84 951.891C1065.67 934.468 1092.15 915.687 1118.35 897.585C1170.58 861.381 1222.44 827.213 1277.92 807.437C1330.2 788.39 1385.52 779.08 1441.16 779.967C1510.81 781.133 1579.41 797.228 1642.31 827.168C1659.31 835.195 1675.84 844.17 1691.82 854.05C1717.43 869.778 1741.66 887.658 1764.23 907.496C1782.92 923.742 1795.91 937.817 1804.96 947.23L1814.78 958.317C1817.13 960.942 1818.22 962.345 1818.22 962.345Z" fill="#E0E0E0"/>
</svg>
