<svg width="1420" height="59" viewBox="0 0 1420 59" fill="none" xmlns="http://www.w3.org/2000/svg">
<path d="M1420 0L0 0L0 3.04297C0 3.04297 139.419 46.0787 260.5 47.4404C392.028 48.9197 502.464 14.6063 634 14.9406C763.02 15.2684 832.635 64.7727 961.5 58.4406C1055.68 53.8128 1104.71 14.7987 1199 14.9406C1292.52 15.0813 1420 54.2187 1420 54.2187V0Z" fill="white" fill-opacity="0.1"/>
<path d="M251.5 9.44053C146.971 14.0772 0 54.7422 0 54.7422L0 0L1416 0H1418.71C1418.71 0 1297.66 51.3617 1212 57.9405C1104.8 66.1739 1048.45 13.2237 941 9.44053C807.154 4.72788 735.428 57.3777 601.5 57.9405C463.512 58.5204 389.354 3.32561 251.5 9.44053Z" fill="white" fill-opacity="0.13"/>
</svg>
