<svg width="312" height="20" viewBox="0 0 312 20" fill="none" xmlns="http://www.w3.org/2000/svg">
<path d="M312 0L0 0L0 6.17599C0 6.17599 34.7683 17.1447 60.6875 17.4456C88.8431 17.7725 112.483 10.1902 140.641 10.264C168.259 10.3365 183.162 21.2756 210.747 19.8764C230.908 18.8538 241.403 10.2327 261.588 10.264C281.608 10.2951 312 19.8764 312 19.8764V0Z" fill="white" fill-opacity="0.1"/>
<path d="M57.2706 8.074C34.5517 9.10018 0 18.8079 0 18.8079L0 0L312 0V5.4182C312 5.4182 284.648 17.3519 266.031 18.8079C242.732 20.6301 230.484 8.91128 207.131 8.074C178.04 7.03101 162.45 18.6833 133.342 18.8079C103.35 18.9362 87.2326 6.72066 57.2706 8.074Z" fill="white" fill-opacity="0.13"/>
</svg>
