<svg viewBox="0 0 249 240" xmlns="http://www.w3.org/2000/svg">
<path d="M183.735 216.52C171.149 207.712 168.296 191.364 168.791 176.668C168.876 174.219 168.608 171.624 169.768 169.476C170.929 167.327 173.654 165.852 175.878 166.88C177.711 167.743 178.487 169.861 179.507 171.612C180.863 173.955 182.855 175.865 185.25 177.121C186.808 177.928 188.739 178.424 190.272 177.573C192.386 176.411 192.637 173.485 192.618 171.043C192.594 166.497 192.567 161.949 192.539 157.399C192.539 154.951 192.539 152.472 193.272 150.159C194.005 147.845 195.716 145.69 198.019 145.035C200.322 144.38 203.2 145.727 203.689 148.096C203.897 149.087 203.689 150.122 203.762 151.156C203.835 152.191 204.3 153.292 205.259 153.574C206.218 153.855 207.208 153.17 207.935 152.454C210.446 150.005 212.151 146.817 213.745 143.664C215.34 140.512 216.886 137.274 219.171 134.587C221.456 131.9 224.608 129.77 228.091 129.574C231.573 129.378 235.3 131.533 236.18 134.961C237.059 138.388 235.062 141.895 232.881 144.674C229.647 148.806 225.834 152.446 221.559 155.484C220.796 156.034 219.959 156.622 219.665 157.528C219.14 159.15 220.68 160.766 222.28 161.304C224.113 161.917 226.062 161.721 227.962 161.917C229.862 162.112 231.921 162.982 232.636 164.781C233.638 167.272 231.555 169.886 229.508 171.6C225.403 175.025 220.741 177.716 215.725 179.557C213.929 180.218 212.059 180.781 210.599 182.054C209.139 183.327 208.283 185.506 209.157 187.226C210.031 188.946 212.273 189.497 214.148 189.148C216.024 188.799 217.704 187.777 219.494 187.103C222.836 185.836 227.162 186.069 229.306 188.94C230.712 190.843 230.84 193.5 230.125 195.771C229.41 198.041 227.968 199.994 226.459 201.799C221.095 208.104 214.24 213.178 206.463 215.877C198.685 218.577 191.506 219.305 183.79 216.489" fill="#FF6420"/>
<path d="M183.537 227.415C184.221 220.601 185.552 213.868 187.514 207.308C189.951 199.302 192.844 191.443 196.178 183.768L198.768 177.714C199.624 175.731 200.467 173.76 201.414 171.887C203.239 168.294 205.26 164.804 207.468 161.433C209.558 158.201 211.653 155.208 213.639 152.423C215.625 149.638 217.525 147.092 219.358 144.834C222.232 141.261 225.384 137.923 228.785 134.851C230.007 133.761 230.948 132.947 231.601 132.402L232.353 131.79C232.434 131.714 232.524 131.648 232.622 131.594C232.55 131.677 232.47 131.753 232.383 131.821L231.669 132.464C231.027 133.027 230.092 133.859 228.907 134.967C225.566 138.089 222.462 141.457 219.62 145.042C217.788 147.3 215.955 149.859 213.957 152.644C211.959 155.429 209.906 158.428 207.847 161.66C205.655 165.016 203.649 168.489 201.835 172.065C200.894 173.932 200.057 175.878 199.208 177.874L196.624 183.921C193.294 191.579 190.396 199.417 187.942 207.4C185.967 213.932 184.608 220.635 183.885 227.421" fill="#263238"/>
<path d="M201.544 171.869C201.429 171.531 201.349 171.183 201.306 170.828C201.177 170.155 201.025 169.176 200.854 167.958C200.512 165.509 200.151 162.155 199.766 158.44C199.381 154.725 198.972 151.364 198.593 148.947C198.404 147.722 198.245 146.762 198.123 146.088C198.038 145.739 197.993 145.382 197.988 145.023C198.125 145.354 198.228 145.699 198.294 146.051C198.465 146.713 198.679 147.686 198.905 148.892C199.363 151.303 199.827 154.67 200.212 158.391C200.597 162.112 200.915 165.381 201.171 167.921C201.294 169.066 201.397 170.027 201.477 170.804C201.539 171.155 201.561 171.513 201.544 171.869Z" fill="#263238"/>
<path d="M232.859 166.005C232.458 166.094 232.049 166.145 231.637 166.158C230.831 166.232 229.67 166.324 228.234 166.495C225.369 166.801 221.422 167.37 217.097 168.184C212.771 168.998 208.885 169.923 206.099 170.669C204.7 171.03 203.576 171.349 202.8 171.569C202.403 171.708 201.994 171.808 201.578 171.869C201.953 171.675 202.346 171.517 202.751 171.398C203.515 171.128 204.627 170.786 206.014 170.357C208.794 169.537 212.679 168.57 217.011 167.737C221.343 166.905 225.32 166.403 228.204 166.171C229.646 166.048 230.819 165.999 231.625 165.981C232.036 165.952 232.449 165.96 232.859 166.005Z" fill="#263238"/>
<path d="M187.909 206.727C187.909 206.727 187.817 206.604 187.689 206.347C187.561 206.09 187.371 205.668 187.158 205.215C186.693 204.223 186.064 202.767 185.325 200.979C183.816 197.386 181.885 192.355 179.826 186.779C177.767 181.203 175.885 176.153 174.456 172.536C173.753 170.773 173.173 169.329 172.745 168.252C172.562 167.786 172.409 167.401 172.287 167.082C172.224 166.95 172.178 166.81 172.152 166.666C172.239 166.783 172.311 166.911 172.366 167.046C172.513 167.352 172.69 167.725 172.904 168.184C173.362 169.17 173.991 170.633 174.737 172.414C176.246 176.007 178.176 181.038 180.235 186.62C182.294 192.202 184.17 197.24 185.606 200.857C186.308 202.62 186.883 204.064 187.316 205.141C187.5 205.607 187.652 205.992 187.775 206.311C187.834 206.444 187.879 206.584 187.909 206.727Z" fill="#263238"/>
<path d="M229.513 193.292C229.384 193.369 229.244 193.426 229.098 193.463L227.876 193.873L223.416 195.318C219.658 196.542 214.477 198.286 208.753 200.214C203.028 202.142 197.841 203.887 194.047 205.001C192.153 205.576 190.619 206.023 189.55 206.311L188.328 206.635C188.189 206.683 188.042 206.71 187.895 206.714C188.023 206.64 188.161 206.582 188.304 206.543L189.526 206.139L193.961 204.689C197.725 203.464 202.9 201.72 208.624 199.792C214.349 197.864 219.542 196.15 223.33 195.005C225.224 194.43 226.764 193.983 227.833 193.696L229.055 193.371C229.204 193.328 229.358 193.301 229.513 193.292Z" fill="#263238"/>
<path d="M236.613 8.86668V16.7808C236.613 17.6412 236.272 18.4663 235.664 19.0747C235.057 19.6831 234.233 20.0249 233.375 20.0249H219.75V24.5359L217.306 20.2207C216.582 20.1681 215.905 19.8428 215.411 19.3102C214.917 18.7776 214.642 18.0773 214.643 17.3501V8.86668C214.643 8.00794 214.983 7.18437 215.589 6.57715C216.195 5.96993 217.017 5.62879 217.875 5.62879H233.375C233.8 5.62799 234.22 5.71114 234.613 5.8735C235.006 6.03586 235.363 6.27423 235.664 6.57498C235.965 6.87573 236.203 7.23294 236.366 7.62618C236.529 8.01942 236.613 8.44096 236.613 8.86668Z" fill="#455A64"/>
<path d="M230.515 14.5653C231.251 14.5653 231.847 13.9679 231.847 13.2309C231.847 12.494 231.251 11.8966 230.515 11.8966C229.78 11.8966 229.184 12.494 229.184 13.2309C229.184 13.9679 229.78 14.5653 230.515 14.5653Z" fill="#263238"/>
<path d="M225.455 14.5653C226.191 14.5653 226.787 13.9679 226.787 13.2309C226.787 12.494 226.191 11.8966 225.455 11.8966C224.719 11.8966 224.123 12.494 224.123 13.2309C224.123 13.9679 224.719 14.5653 225.455 14.5653Z" fill="#263238"/>
<path d="M219.07 13.2307C219.073 13.4941 219.153 13.7509 219.301 13.9687C219.449 14.1865 219.657 14.3556 219.901 14.4547C220.145 14.5539 220.412 14.5785 220.67 14.5257C220.927 14.4728 221.163 14.3448 221.348 14.1577C221.533 13.9706 221.659 13.7328 221.709 13.4743C221.76 13.2158 221.733 12.9482 221.632 12.7051C221.53 12.462 221.36 12.2543 221.141 12.1082C220.922 11.9621 220.665 11.8842 220.402 11.8842C220.226 11.8833 220.052 11.9177 219.889 11.9852C219.726 12.0528 219.578 12.1521 219.454 12.2775C219.33 12.4028 219.233 12.5517 219.167 12.7154C219.101 12.8791 219.068 13.0543 219.07 13.2307Z" fill="#263238"/>
<path d="M52.274 38.8524C52.2686 38.9393 52.2543 39.0255 52.2312 39.1095C52.1945 39.2992 52.1395 39.5563 52.0723 39.8807C51.9257 40.5784 51.718 41.5822 51.4614 42.8615C50.8993 45.4751 50.0928 49.221 49.1092 53.8116V53.9279L48.987 53.8972L44.8813 53.0036C43.0485 52.8996 41.2156 52.7772 39.2116 52.6303C37.2077 52.4834 35.1732 52.3487 33.0471 52.0488C32.4847 51.9761 31.9435 51.7874 31.4576 51.4945C30.9718 51.2016 30.5519 50.811 30.2244 50.3472C29.5576 49.3918 29.2404 48.2352 29.3263 47.0726C29.3855 46.4967 29.496 45.9272 29.6562 45.371C29.7906 44.814 29.9312 44.257 30.0656 43.6939L30.9331 40.2908C31.2753 38.9687 31.6296 37.6711 32.0084 36.3918C32.2039 35.7492 32.3994 35.1187 32.6194 34.5005C32.6744 34.3414 32.7599 34.1884 32.8332 34.0292C32.8899 33.9377 32.9599 33.8552 33.0409 33.7844C33.1339 33.7415 33.2328 33.7126 33.3342 33.6987C33.6674 33.6651 34.003 33.6651 34.3362 33.6987C36.8264 33.9749 39.2987 34.3939 41.741 34.9535H41.8449V35.0636C41.8419 35.0942 41.8419 35.1249 41.8449 35.1554C41.8449 35.1554 41.8449 35.1554 41.7593 35.1065C41.6738 35.0575 41.6738 35.1432 41.6738 35.1065C41.6897 35.0796 41.702 35.0508 41.7105 35.0208C41.7585 34.8864 41.7992 34.7495 41.8327 34.6107C41.906 34.323 41.9671 34.0353 42.0221 33.7477C42.132 33.1723 42.2359 32.6031 42.3275 32.0338C42.463 30.9185 42.667 29.8126 42.9385 28.7225C43.2372 27.683 43.7894 26.7344 44.5453 25.962C44.9127 25.5948 45.3643 25.3235 45.8607 25.172C46.3571 25.0205 46.8831 24.9933 47.3924 25.0929H47.5085L47.4779 25.2153L46.4149 29.9589V29.8977C48.0095 33.6803 49.2069 36.5387 49.9523 38.3076H49.9157L51.7119 38.7361L52.1457 38.8401L52.2801 38.883H52.1273L51.6752 38.7973L49.8973 38.4301C49.1336 36.6734 47.8934 33.8333 46.2316 30.0629V30.0323C46.5493 28.5817 46.8914 27.0026 47.2641 25.2765L47.3496 25.4173C46.8824 25.3332 46.4017 25.3645 45.9493 25.5085C45.4968 25.6525 45.0862 25.9048 44.753 26.2436C44.0563 27.0133 43.5627 27.9455 43.3173 28.9551C43.0484 30.0375 42.8443 31.1351 42.7063 32.2419C42.6147 32.8112 42.523 33.3865 42.407 33.968C42.352 34.2557 42.2909 34.5801 42.2176 34.8372C42.1833 34.9884 42.1405 35.1376 42.0893 35.284C42.0893 35.3207 42.0893 35.3635 42.0404 35.4064C42.0267 35.4306 42.0103 35.4532 41.9915 35.4737C41.9729 35.5035 41.9467 35.5278 41.9155 35.544C41.8843 35.5601 41.8494 35.5676 41.8143 35.5655C41.6738 35.5227 41.686 35.4615 41.6555 35.437C41.6249 35.4125 41.6555 35.3758 41.6555 35.3574V35.2228L41.7716 35.3574C39.352 34.815 36.9044 34.4064 34.44 34.1333C34.1272 34.1026 33.812 34.1026 33.4992 34.1333C33.4396 34.1387 33.3815 34.1553 33.3281 34.1822C33.2912 34.2216 33.2584 34.2647 33.2303 34.3108C33.1578 34.4501 33.0926 34.5931 33.0348 34.7392C32.7966 35.3513 32.6011 35.9634 32.4239 36.5755C32.0451 37.8425 31.6968 39.1462 31.3486 40.4621C31.0614 41.6067 30.7376 42.7391 30.4871 43.8592C30.3466 44.4223 30.2122 44.9854 30.0717 45.5424C29.9186 46.0813 29.8103 46.632 29.7479 47.1889C29.6694 48.2749 29.9648 49.355 30.5849 50.2493C30.8856 50.6796 31.2722 51.0427 31.7202 51.3155C32.1682 51.5884 32.6679 51.7652 33.1876 51.8345C35.2832 52.1345 37.3482 52.2691 39.2972 52.4466L44.9608 52.8384L49.0603 53.7565L48.9198 53.8483C49.9462 49.3005 50.7893 45.5914 51.3636 42.9961C51.663 41.7169 51.8952 40.707 52.054 40.0031C52.1334 39.6726 52.2006 39.391 52.2434 39.2196C52.2425 39.0965 52.2528 38.9736 52.274 38.8524Z" fill="#263238"/>
<path d="M59.3684 39.0544C59.2313 39.047 59.0947 39.0327 58.9591 39.0115L57.8349 38.8585L53.7476 38.2464L53.8698 38.1607C53.0389 41.9862 51.8414 47.4766 50.5156 53.5851L50.3873 54.1176L50.2651 53.9279L54.3341 54.8337L54.1508 54.9378C55.611 50.4207 56.894 46.4728 57.8166 43.6082C58.2809 42.2127 58.6536 41.0804 58.9224 40.2602C59.0507 39.8929 59.1485 39.593 59.234 39.3543C59.2631 39.2421 59.304 39.1333 59.3562 39.0299C59.3379 39.1299 59.3113 39.2281 59.2768 39.3237L59.0202 40.2112C58.7697 41.0253 58.4092 42.1515 58.006 43.547C57.1079 46.4483 55.8676 50.4513 54.4441 55.0357L54.4074 55.1704H54.2669L50.1979 54.2706L50.0391 54.2339L50.0757 54.0809L50.1918 53.5423L53.6437 38.1424V38.0383H53.7415L57.8838 38.7606L58.9713 38.9626C59.1058 38.9833 59.2385 39.014 59.3684 39.0544Z" fill="#263238"/>
<path d="M195.807 17.2706L197.891 21.5001L202.552 22.1734L199.18 25.4663L199.974 30.1181L195.807 27.9208L191.641 30.1181L192.435 25.4663L189.062 22.1734L193.724 21.5001L195.807 17.2706Z" fill="#FF6420"/>
<path d="M230.499 82.9219L231.538 85.0335L233.872 85.3763L232.186 87.0228L232.583 89.3426L230.499 88.2469L228.416 89.3426L228.813 87.0228L227.127 85.3763L229.461 85.0335L230.499 82.9219Z" fill="#FF6420"/>
<path d="M34.0366 132.714L35.0813 134.832L37.4091 135.169L35.7228 136.815L36.1199 139.141L34.0366 138.046L31.9532 139.141L32.3503 136.815L30.6641 135.169L32.9979 134.832L34.0366 132.714Z" fill="#FF6420"/>
<path d="M168.629 239.498L91.5561 240C89.3524 240.015 87.1673 239.595 85.1256 238.764C83.0838 237.933 81.2255 236.707 79.6568 235.157C78.088 233.606 76.8396 231.761 75.9827 229.727C75.1259 227.693 74.6775 225.51 74.6631 223.302L73.3129 29.7325C73.2836 25.271 75.0243 20.9805 78.1521 17.8045C81.2799 14.6285 85.5387 12.8271 89.9921 12.7964L167.083 12.2883C169.288 12.2763 171.474 12.6996 173.515 13.5342C175.557 14.3688 177.414 15.5982 178.982 17.1523C180.549 18.7064 181.795 20.5546 182.649 22.5914C183.502 24.6281 183.947 26.8135 183.958 29.0225L185.308 222.592C185.329 227.048 183.585 231.331 180.458 234.5C177.331 237.67 173.077 239.467 168.629 239.498Z" fill="#263238"/>
<path d="M167.026 18.9722L152.082 19.0701C151.594 19.0844 151.114 19.1949 150.669 19.3953C150.224 19.5956 149.823 19.882 149.489 20.2379C149.155 20.5939 148.894 21.0124 148.721 21.4695C148.549 21.9266 148.468 22.4133 148.483 22.9017V25.6132C148.511 26.5993 148.147 27.5561 147.471 28.2735C146.795 28.9908 145.863 29.4099 144.878 29.4387L115.76 29.6346C115.272 29.629 114.789 29.5268 114.34 29.3337C113.891 29.1407 113.484 28.8606 113.144 28.5097C112.803 28.1588 112.535 27.7438 112.355 27.2888C112.175 26.8337 112.086 26.3475 112.094 25.8581V23.1466C112.107 22.159 111.729 21.2066 111.041 20.4985C110.354 19.7904 109.414 19.3846 108.429 19.3701L103.174 19.4007L90.0998 19.4925C88.5554 19.5013 87.0279 19.8151 85.6046 20.4159C84.1813 21.0167 82.8903 21.8928 81.8053 22.9939C80.7203 24.0951 79.8627 25.3998 79.2815 26.8333C78.7004 28.2669 78.407 29.8012 78.4183 31.3484L79.7318 220.284C79.7422 221.831 80.0566 223.36 80.657 224.785C81.2573 226.21 82.1319 227.502 83.2308 228.588C84.3298 229.675 85.6315 230.533 87.0617 231.115C88.4918 231.698 90.0224 231.992 91.5661 231.981L168.48 231.479C170.024 231.469 171.552 231.154 172.975 230.552C174.398 229.95 175.688 229.074 176.773 227.972C177.858 226.871 178.715 225.566 179.297 224.132C179.878 222.699 180.172 221.165 180.161 219.617L178.848 30.6812C178.828 27.5584 177.572 24.5711 175.356 22.3756C173.139 20.18 170.143 18.9559 167.026 18.9722Z" fill="#FAFAFA"/>
<path d="M145.193 227.801L146.274 227.966V227.899L144.734 227.734L145.193 227.801Z" fill="#B78876"/>
<path d="M127.662 231.736C127.662 231.583 127.625 231.424 127.613 231.277C127.489 229.969 127.473 228.653 127.564 227.342C127.601 226.883 127.649 226.522 127.692 226.283C127.707 226.167 127.73 226.053 127.759 225.94C125.474 225.695 123.409 225.487 121.723 225.328L118.326 224.985L118.858 231.804L127.662 231.736Z" fill="#B78876"/>
<path d="M133.482 226.571C131.484 226.344 129.584 226.13 127.813 225.958C127.813 226.075 127.776 226.571 127.758 227.372C127.727 228.673 127.787 229.973 127.935 231.265C127.935 231.424 127.978 231.59 128.002 231.749L147.284 231.62C146.71 229.784 146.361 228.633 146.306 228.382C146.302 228.317 146.302 228.252 146.306 228.186L145.201 228.046C142.17 227.629 138.034 227.103 133.482 226.571Z" fill="#B78876"/>
<path d="M127.73 227.336C127.73 226.528 127.798 226.038 127.785 225.922C127.755 226.034 127.733 226.149 127.718 226.265C127.675 226.503 127.626 226.877 127.589 227.323C127.498 228.634 127.514 229.951 127.638 231.259C127.638 231.406 127.675 231.565 127.687 231.718H127.981C127.981 231.559 127.932 231.394 127.914 231.235C127.763 229.941 127.702 228.638 127.73 227.336Z" fill="#A36957"/>
<path d="M103.545 116.464L100.448 112.938L100.747 112.632C98.4927 114.371 96.8187 115.43 96.6721 114.873C93.9655 104.975 94.2955 92.2257 94.5521 87.3658C94.8148 86.9374 95.108 86.4661 95.4624 85.9519C95.8746 85.3544 96.3824 84.8292 96.9653 84.3973C97.6694 83.8308 98.4488 83.3653 99.2809 83.014C100.069 82.763 100.173 81.698 99.4703 81.4593C98.7677 81.2206 96.5743 81.851 94.5826 83.626C92.5909 85.4011 93.2996 81.3001 93.5379 79.8067C93.7761 78.3132 94.2832 73.6431 93.88 73.2146C93.269 72.6025 92.4931 73.1228 92.2915 74.6285C92.0899 76.1342 91.1735 80.5963 90.3853 80.4494C89.5972 80.3025 90.9168 72.6943 90.9168 72.6943C90.9168 72.6943 91.4606 71.1091 90.5564 70.9132C88.9312 70.5643 88.1125 78.7417 88.082 79.5251C88.0453 80.0637 87.1839 79.9413 87.2572 79.3599C87.3305 78.7784 88.7357 71.7885 87.08 71.4029C85.8153 71.1213 86.3713 78.1357 85.2777 79.4394C84.1841 80.7432 85.3999 74.0654 84.1718 73.8389C83.7197 73.7532 83.3654 73.7594 83.2188 77.6766C83.2495 80.8336 83.4535 83.9865 83.8297 87.121C83.0538 97.8997 81.8685 130.866 96.6599 129.318C102.733 128.706 107.126 126.588 110.284 124.127L103.698 116.623L103.545 116.464Z" fill="#B78876"/>
<path d="M137.861 155.227L150.209 155.588C150.264 151.818 150.319 148.145 150.374 144.607C150.306 144.439 150.246 144.268 150.197 144.093V143.548C146.641 143.463 142.56 143.365 138.142 143.248C138.036 147.113 137.943 151.105 137.861 155.227Z" fill="#455A64"/>
<path d="M131.341 143.071L124.254 142.869C124.108 146.725 123.961 150.734 123.814 154.841L130.346 155.013L137.543 155.208C137.628 151.089 137.732 147.086 137.842 143.23L131.341 143.071Z" fill="#455A64"/>
<path d="M149.68 204.995L137.607 204.689C137.607 205.735 137.607 206.77 137.638 207.749C137.687 211.146 137.73 214.158 137.766 216.741L149.802 217.102C149.772 214.8 149.717 212.205 149.704 209.298C149.692 207.945 149.686 206.525 149.68 204.995Z" fill="#455A64"/>
<path d="M150.062 223.222C150.062 224.85 150.105 226.124 150.117 226.999C150.117 227.421 150.117 227.752 150.117 227.984C150.117 228.217 150.117 228.321 150.117 228.321C150.117 228.321 151.143 224 152.451 217.414L150.007 217.359C149.976 219.642 150.031 221.613 150.062 223.222Z" fill="#455A64"/>
<path d="M149.934 209.328C149.934 212.217 149.97 214.837 149.989 217.138L152.494 217.218C153.19 213.705 153.966 209.567 154.712 205.099L149.928 205.001C149.928 206.499 149.93 207.941 149.934 209.328Z" fill="#455A64"/>
<path d="M150.054 227.005C150.054 226.124 149.987 224.857 149.938 223.222C149.889 221.588 149.84 219.642 149.81 217.359C146.449 217.285 142.344 217.187 137.768 217.071C137.768 218.852 137.816 220.431 137.835 221.76C137.835 223.406 137.878 224.679 137.89 225.567C137.89 225.989 137.89 226.32 137.89 226.552V226.791C140.486 227.121 142.814 227.452 144.726 227.733L146.266 227.899L150.109 228.321C150.109 228.321 150.109 228.205 150.109 227.984C150.109 227.764 150.072 227.427 150.054 227.005Z" fill="#455A64"/>
<path d="M155.728 155.759C153.364 148.011 151.629 146.854 150.682 145.232C150.639 148.58 150.59 152.044 150.535 155.6L155.728 155.759Z" fill="#455A64"/>
<path d="M137.343 167.823L129.327 167.609L123.339 167.45C123.174 171.575 123.022 175.572 122.875 179.416L128.325 179.563L137.257 179.808C137.269 175.921 137.3 171.943 137.343 167.823Z" fill="#455A64"/>
<path d="M150.409 163.484C150.385 164.965 150.362 166.434 150.342 167.891L157.96 168.142C157.862 165.254 157.475 162.383 156.806 159.573C156.457 158.226 156.121 157.032 155.792 155.955L150.531 155.839C150.495 158.355 150.452 160.895 150.409 163.484Z" fill="#455A64"/>
<path d="M137.536 155.533L130.333 155.343L123.802 155.166C123.753 156.484 123.704 157.808 123.655 159.138C123.554 161.851 123.45 164.518 123.344 167.138L129.331 167.291L137.347 167.511C137.371 165.577 137.398 163.622 137.426 161.647C137.463 159.587 137.5 157.549 137.536 155.533Z" fill="#455A64"/>
<path d="M150.01 168.129C146.448 168.05 142.251 167.946 137.656 167.829C137.607 171.949 137.577 175.952 137.559 179.814C142.153 179.942 146.326 180.065 149.833 180.175C149.882 176.295 149.973 172.249 150.01 168.129Z" fill="#455A64"/>
<path d="M150.201 155.839C146.609 155.759 142.417 155.655 137.853 155.539C137.817 157.555 137.78 159.595 137.743 161.66C137.711 163.639 137.684 165.595 137.664 167.53L150.018 167.891C150.018 166.428 150.06 164.965 150.091 163.484C150.128 160.888 150.164 158.348 150.201 155.839Z" fill="#455A64"/>
<path d="M150.44 99.944C150.471 100.825 150.508 102.092 150.557 103.727C150.557 104.284 150.593 104.908 150.605 105.563C150.605 105.771 150.636 105.973 150.642 106.175L158.585 106.414C157.216 102.466 154.167 99.9134 150.88 98.2914C150.758 98.5684 150.602 98.8295 150.416 99.0687C150.416 99.2891 150.428 99.5767 150.44 99.944Z" fill="#455A64"/>
<path d="M150.376 99.9501C150.376 99.6013 150.376 99.3381 150.376 99.1055C150.339 99.1544 150.303 99.2095 150.26 99.2585C150.204 99.3187 150.145 99.3759 150.083 99.4299C149.733 100.207 149.223 100.902 148.586 101.468C149.51 102.31 150.161 103.41 150.455 104.626C150.455 104.32 150.455 104.014 150.455 103.727C150.407 102.099 150.388 100.825 150.376 99.9501Z" fill="#455A64"/>
<path d="M124.956 117.278L114.325 116.972C114.191 118.196 114.044 119.42 113.904 120.644C113.781 121.758 113.659 122.854 113.537 123.925C113.633 126.027 114.085 128.097 114.875 130.046L124.455 130.285C124.632 125.59 124.803 121.226 124.956 117.278Z" fill="#455A64"/>
<path d="M139.035 117.345L143.312 117.462C143.523 117.414 143.738 117.381 143.953 117.364C143.856 117.223 143.813 117.1 143.856 117.07C143.869 117.062 143.883 117.058 143.898 117.058C143.913 117.058 143.928 117.062 143.941 117.07C143.437 116.578 143.146 115.908 143.129 115.203C143.129 113.752 144.131 112.467 145.078 111.286C144.178 109.779 143.772 108.028 143.917 106.279L139.548 106.169C139.426 108.831 139.28 111.971 139.115 115.533C139.09 116.127 139.066 116.733 139.035 117.345Z" fill="#455A64"/>
<path d="M132.353 130.805L124.698 130.627C124.563 134.422 124.417 138.425 124.258 142.6L131.351 142.783L137.846 142.961C137.968 138.78 138.096 134.771 138.237 130.989L132.353 130.805Z" fill="#455A64"/>
<path d="M150.514 98.1016C150.514 98.2423 150.447 98.377 150.41 98.5117C150.483 98.3881 150.547 98.2592 150.6 98.126L150.514 98.1016Z" fill="#455A64"/>
<path d="M135.226 128.907C133.848 128.722 132.542 128.179 131.438 127.334C131.105 127.082 130.796 126.799 130.515 126.49C130.405 126.383 130.315 126.259 130.246 126.122C130.289 126.08 130.723 126.569 131.572 127.151C132.544 127.83 133.649 128.295 134.814 128.516C135.978 128.736 137.177 128.707 138.329 128.43C138.482 124.562 138.635 120.944 138.787 117.645L131.352 117.455L125.187 117.284C125.041 121.232 124.882 125.596 124.711 130.285L132.36 130.487L138.25 130.646C138.25 129.991 138.299 129.348 138.323 128.705C137.313 128.974 136.261 129.042 135.226 128.907Z" fill="#455A64"/>
<path d="M150.629 106.573C150.629 107.54 150.672 108.58 150.69 109.701C150.721 112.033 150.776 114.689 150.788 117.621V117.682C154.93 117.811 158.315 117.921 160.606 118.006C160.307 115.772 159.842 112.724 159.133 108.544C159.02 107.9 158.865 107.264 158.669 106.64L150.641 106.457C150.64 106.496 150.636 106.534 150.629 106.573Z" fill="#455A64"/>
<path d="M150.589 122.934C150.589 121.195 150.589 119.524 150.589 117.933L145.934 117.823C145.731 117.855 145.525 117.855 145.323 117.823H144.865C144.907 117.878 144.932 117.921 144.914 117.945C144.895 117.97 144.755 117.945 144.584 117.89C144.597 117.928 144.608 117.967 144.614 118.006C144.675 118.071 144.73 118.141 144.779 118.215C145.08 118.679 145.251 119.216 145.274 119.769C145.298 120.322 145.173 120.872 144.914 121.361C144.833 121.506 144.737 121.641 144.626 121.765C144.541 121.844 144.486 121.881 144.474 121.869C144.461 121.856 144.474 121.795 144.523 121.691C144.571 121.587 144.639 121.446 144.712 121.263C144.892 120.791 144.976 120.287 144.956 119.781C144.936 119.429 144.869 119.081 144.755 118.747C144.875 119.802 144.666 120.868 144.156 121.799C143.646 122.73 142.861 123.479 141.908 123.944L142.213 122.511C142.007 122.743 141.755 122.93 141.473 123.06C141.191 123.189 140.886 123.259 140.576 123.264C140.643 122.615 140.825 121.983 141.113 121.397L140.008 121.844C139.982 120.692 140.405 119.574 141.187 118.729C141.572 118.323 142.033 117.997 142.543 117.768L139.061 117.676C138.926 120.957 138.786 124.543 138.651 128.381C138.865 128.326 139.067 128.265 139.262 128.198C140.234 127.861 140.783 127.5 140.808 127.549C140.832 127.598 140.698 127.677 140.454 127.836C140.102 128.062 139.729 128.255 139.342 128.412C139.134 128.497 138.902 128.577 138.651 128.657C138.651 129.324 138.602 129.991 138.584 130.676L150.418 131.019L150.522 123.258C147.052 122.952 144.504 122.677 144.51 122.603C144.516 122.53 147.076 122.67 150.589 122.934Z" fill="#455A64"/>
<path d="M150.816 122.952L152.649 123.105C157.157 123.484 160.805 123.858 160.799 123.95C160.645 123.97 160.489 123.97 160.334 123.95L161.104 124.005C161.104 124.005 161.355 123.57 160.622 118.135C158.331 118.098 154.94 118.025 150.785 117.927C150.803 119.53 150.81 121.207 150.816 122.952Z" fill="#455A64"/>
<path d="M125.201 116.972L131.366 117.131L138.801 117.339C138.832 116.727 138.862 116.115 138.887 115.503C139.058 111.947 139.223 108.807 139.363 106.144L136.583 106.071L125.586 105.765C125.507 108.078 125.415 110.704 125.317 113.605C125.287 114.713 125.244 115.827 125.201 116.972Z" fill="#455A64"/>
<path d="M115.76 105.257C118.613 105.318 121.869 105.398 125.437 105.489C125.529 103.298 125.608 101.395 125.676 99.8338C125.743 98.273 125.804 96.9509 125.847 96.0817V95.5615C122.725 95.5223 119.628 96.1265 116.75 97.3365C116.585 98.6157 116.377 100.262 116.139 102.233C116.022 103.157 115.888 104.18 115.76 105.257Z" fill="#455A64"/>
<path d="M124.443 130.585L115.01 130.315C115.094 130.494 115.188 130.667 115.291 130.835L119.861 138.401L119.115 142.44L124.003 142.563C124.138 138.388 124.315 134.386 124.443 130.585Z" fill="#455A64"/>
<path d="M138.154 142.942L150.209 143.285L150.361 131.258C146.836 131.178 142.828 131.074 138.521 130.964C138.368 134.747 138.27 138.756 138.154 142.942Z" fill="#455A64"/>
<path d="M123.337 159.126C123.394 157.791 123.445 156.467 123.49 155.153L116.482 154.957C115.384 158.888 114.497 162.874 113.824 166.899L123.044 167.126C123.141 164.506 123.239 161.839 123.337 159.126Z" fill="#455A64"/>
<path d="M143.812 95.9534C142.724 95.7276 141.625 95.5621 140.519 95.4576C140.334 95.5111 140.143 95.5379 139.951 95.5372C139.578 95.5372 139.046 95.5923 138.38 95.6107C137.055 95.6596 135.228 95.678 133.206 95.6719L128.031 95.6351C126.809 95.6351 126.057 95.6351 125.917 95.5739C125.917 95.727 125.917 95.8983 125.917 96.0881C125.917 96.9572 125.856 98.2181 125.807 99.8401C125.758 101.462 125.685 103.304 125.611 105.49L136.609 105.777L139.401 105.851C139.492 104.229 139.578 102.79 139.651 101.566C139.755 99.9258 139.834 98.6527 139.889 97.7713C139.92 97.3428 139.944 97.0184 139.957 96.7859C139.969 96.5533 139.993 96.4492 139.993 96.4492C139.993 96.4492 139.993 96.5655 139.993 96.7859C139.993 97.0062 139.993 97.349 139.951 97.7713C139.914 98.6527 139.853 99.9319 139.773 101.572C139.718 102.796 139.651 104.235 139.578 105.857L143.965 105.979C144.145 104.347 144.78 102.799 145.797 101.511C145.046 100.812 144.473 99.9425 144.127 98.9752C143.782 98.0079 143.673 96.9714 143.812 95.9534Z" fill="#455A64"/>
<path d="M150.585 117.621C150.585 114.689 150.549 112.032 150.536 109.707C150.536 108.972 150.536 108.287 150.536 107.619C150.232 109.065 149.44 110.362 148.294 111.292C148.609 112.079 148.746 112.926 148.696 113.772C148.647 114.619 148.411 115.444 148.007 116.188C147.72 116.756 147.28 117.231 146.736 117.56L150.604 117.676L150.585 117.621Z" fill="#455A64"/>
<path d="M121.743 225.089C124.755 225.334 128.909 225.701 133.491 226.258C135.013 226.43 136.479 226.613 137.884 226.791C137.884 226.734 137.884 226.654 137.884 226.552C137.884 226.319 137.884 225.989 137.848 225.567C137.817 224.685 137.78 223.406 137.732 221.766C137.689 220.437 137.652 218.852 137.609 217.071L126.759 216.789L121.431 216.642C121.431 217.255 121.376 217.867 121.358 218.418C121.285 220.04 121.223 221.3 121.187 222.17C121.162 222.578 121.144 222.902 121.132 223.143C121.132 223.363 121.101 223.473 121.101 223.473C121.101 223.473 121.101 223.363 121.101 223.143C121.101 222.922 121.101 222.586 121.101 222.17C121.132 221.294 121.168 220.033 121.217 218.418C121.217 217.867 121.254 217.267 121.272 216.636L116.293 216.502C117.112 222.58 117.319 224.753 117.319 224.753L117.967 224.82H118.187C119.018 224.887 120.234 224.967 121.743 225.089Z" fill="#455A64"/>
<path d="M123.965 142.869L119.078 142.734L117.343 152.05C117.135 152.711 116.866 153.599 116.561 154.682L123.501 154.854C123.66 150.734 123.819 146.731 123.965 142.869Z" fill="#455A64"/>
<path d="M149.979 192.71C149.942 197.032 149.918 201.084 149.918 204.781L154.726 204.94C155.374 201.084 155.991 196.983 156.516 192.839C154.867 192.815 152.655 192.772 149.979 192.71Z" fill="#455A64"/>
<path d="M121.262 216.318C121.365 213.258 121.5 209.298 121.659 204.616V204.285L114.541 204.077C115.292 209.182 115.848 213.148 116.258 216.178L121.262 216.318Z" fill="#455A64"/>
<path d="M149.707 192.704C146.274 192.631 142.138 192.533 137.537 192.417C137.537 196.732 137.574 200.747 137.604 204.413C142.217 204.542 146.329 204.664 149.683 204.774C149.671 201.077 149.677 197.025 149.707 192.704Z" fill="#455A64"/>
<path d="M122.146 191.694C122.281 187.93 122.427 183.927 122.586 179.722L112.45 179.434C112.248 183.443 112.34 187.461 112.725 191.456L122.146 191.694Z" fill="#455A64"/>
<path d="M121.696 203.979C121.831 200.367 121.977 196.358 122.136 192.006L112.758 191.743C112.868 192.802 112.996 193.861 113.161 194.92C113.656 198.201 114.096 201.145 114.487 203.795L121.696 203.979Z" fill="#455A64"/>
<path d="M127.311 192.147L122.386 192.013C122.215 196.364 122.062 200.374 121.922 203.985L126.309 204.101L137.367 204.407C137.318 200.735 137.281 196.719 137.263 192.41L127.311 192.147Z" fill="#455A64"/>
<path d="M137.37 204.689L126.293 204.401L121.906 204.279C121.906 204.389 121.906 204.505 121.906 204.615C121.711 209.292 121.552 213.24 121.424 216.312L126.745 216.453L137.596 216.747C137.535 214.164 137.48 211.158 137.425 207.768C137.4 206.794 137.382 205.76 137.37 204.689Z" fill="#455A64"/>
<path d="M150.337 168.135C150.276 172.273 150.215 176.301 150.16 180.187C153.319 180.285 155.915 180.371 157.754 180.438C158.05 176.397 158.121 172.343 157.968 168.295L150.337 168.135Z" fill="#455A64"/>
<path d="M150.153 180.42C150.11 183.266 150.067 186.039 150.031 188.72C150.031 189.999 150.031 191.248 149.994 192.484C152.664 192.564 154.882 192.643 156.544 192.704C157.057 188.634 157.478 184.533 157.766 180.573C155.902 180.548 153.312 180.493 150.153 180.42Z" fill="#455A64"/>
<path d="M137.251 180.114L128.319 179.881L122.863 179.734C122.698 183.933 122.545 187.936 122.398 191.7L127.286 191.829L137.226 192.104C137.245 188.316 137.239 184.3 137.251 180.114Z" fill="#455A64"/>
<path d="M122.591 179.41C122.737 175.566 122.884 171.563 123.031 167.438L113.774 167.175C113.109 171.141 112.671 175.142 112.461 179.159L122.591 179.41Z" fill="#455A64"/>
<path d="M149.827 180.414C146.326 180.334 142.153 180.236 137.553 180.12C137.553 184.306 137.553 188.322 137.553 192.11L149.723 192.472C149.723 191.247 149.723 189.993 149.754 188.713C149.76 186.039 149.79 183.266 149.827 180.414Z" fill="#455A64"/>
<path d="M115.499 105.251C115.645 104.161 115.786 103.139 115.92 102.19C116.189 100.262 116.427 98.6463 116.617 97.4038C114.37 98.3837 112.366 99.8464 110.745 101.688C109.688 102.913 108.693 104.033 107.758 105.079C109.707 105.122 112.34 105.177 115.499 105.251Z" fill="#455A64"/>
<path d="M113.593 120.614C113.736 119.39 113.876 118.165 114.015 116.941C109.836 116.813 106.298 116.703 103.689 116.611L110.263 124.139L110.844 124.794L113.41 122.101C113.477 121.605 113.532 121.109 113.593 120.614Z" fill="#455A64"/>
<path d="M103.545 116.464C106.172 116.513 109.783 116.592 114.053 116.696C114.542 112.559 115.031 108.739 115.471 105.489C112.257 105.391 109.587 105.306 107.638 105.232C104.076 109.211 101.565 111.8 100.747 112.632L100.447 112.938L103.545 116.464Z" fill="#455A64"/>
<path d="M114.365 116.703C117.573 116.776 121.153 116.868 124.971 116.966C125.014 115.821 125.057 114.695 125.1 113.618C125.222 110.716 125.332 108.109 125.424 105.783L115.728 105.532C115.318 108.752 114.848 112.565 114.365 116.703Z" fill="#455A64"/>
<path d="M137.66 167.829H137.342C137.299 171.949 137.268 175.952 137.256 179.814H137.562C137.58 175.952 137.611 171.949 137.66 167.829Z" fill="#263238"/>
<path d="M138.325 128.706C138.325 129.348 138.276 129.991 138.252 130.646H138.534C138.534 129.96 138.576 129.293 138.601 128.626L138.325 128.706Z" fill="#263238"/>
<path d="M138.241 130.958C138.101 134.741 137.972 138.75 137.85 142.93H138.156C138.272 138.744 138.394 134.735 138.523 130.952L138.241 130.958Z" fill="#263238"/>
<path d="M137.841 143.242C137.731 147.098 137.627 151.101 137.541 155.221H137.859C137.945 151.099 138.041 147.107 138.147 143.242H137.841Z" fill="#263238"/>
<path d="M139.934 97.7712C139.934 97.3489 139.964 97.0183 139.977 96.7857C139.989 96.5532 139.977 96.4491 139.977 96.4491C139.977 96.4491 139.977 96.5593 139.94 96.7857C139.903 97.0122 139.903 97.3427 139.872 97.7712C139.817 98.6526 139.738 99.9257 139.634 101.566C139.56 102.79 139.475 104.229 139.383 105.851H139.591C139.664 104.229 139.732 102.79 139.787 101.566C139.836 99.9318 139.897 98.6526 139.934 97.7712Z" fill="#263238"/>
<path d="M138.803 117.339H139.035C139.066 116.727 139.09 116.115 139.115 115.503C139.28 111.941 139.427 108.801 139.549 106.138H139.366C139.225 108.801 139.06 111.941 138.888 115.497C138.864 116.115 138.833 116.727 138.803 117.339Z" fill="#263238"/>
<path d="M137.854 155.539H137.535C137.499 157.555 137.462 159.595 137.425 161.66C137.397 163.639 137.37 165.593 137.346 167.523H137.664C137.688 165.589 137.715 163.633 137.744 161.654C137.78 159.593 137.817 157.555 137.854 155.539Z" fill="#263238"/>
<path d="M138.332 128.43L138.614 128.357C138.748 124.519 138.889 120.932 139.024 117.651H138.791C138.638 120.944 138.485 124.562 138.332 128.43Z" fill="#263238"/>
<path d="M137.556 180.12H137.25C137.25 184.306 137.25 188.322 137.25 192.11H137.532C137.532 188.322 137.538 184.306 137.556 180.12Z" fill="#263238"/>
<path d="M137.262 192.41C137.262 196.695 137.317 200.741 137.366 204.407H137.604C137.574 200.735 137.549 196.726 137.537 192.41H137.262Z" fill="#263238"/>
<path d="M137.89 225.567C137.89 224.679 137.859 223.406 137.835 221.76C137.835 220.431 137.792 218.852 137.767 217.071H137.59C137.633 218.852 137.669 220.437 137.712 221.766C137.761 223.406 137.798 224.685 137.829 225.567C137.829 225.989 137.859 226.32 137.865 226.552C137.865 226.654 137.865 226.734 137.865 226.791V226.552C137.896 226.32 137.896 225.989 137.89 225.567Z" fill="#263238"/>
<path d="M137.61 204.689H137.371C137.371 205.741 137.402 206.776 137.414 207.749C137.469 211.14 137.524 214.145 137.585 216.728H137.769C137.732 214.145 137.689 211.134 137.64 207.737C137.628 206.794 137.616 205.76 137.61 204.689Z" fill="#263238"/>
<path d="M150.54 155.6C150.595 152.044 150.644 148.58 150.686 145.232C150.568 145.035 150.464 144.831 150.374 144.62C150.319 148.157 150.264 151.83 150.209 155.6H150.54Z" fill="#263238"/>
<path d="M150.534 155.845H150.203C150.166 158.354 150.13 160.895 150.093 163.484C150.062 164.965 150.038 166.428 150.02 167.891H150.344C150.344 166.434 150.366 164.965 150.411 163.484C150.454 160.895 150.497 158.354 150.534 155.845Z" fill="#263238"/>
<path d="M150.587 117.621V117.676H150.813V117.615C150.813 114.683 150.746 112.026 150.715 109.694C150.715 108.574 150.679 107.534 150.654 106.567C150.637 106.919 150.592 107.268 150.52 107.613C150.52 108.28 150.52 108.966 150.52 109.7C150.526 112.032 150.587 114.713 150.587 117.621Z" fill="#263238"/>
<path d="M150.584 122.934H150.835C150.835 121.189 150.835 119.512 150.804 117.921H150.584C150.584 119.524 150.584 121.195 150.584 122.934Z" fill="#263238"/>
<path d="M150.44 99.9439C150.44 99.5766 150.44 99.289 150.41 99.0625L150.373 99.1053C150.373 99.3257 150.373 99.6011 150.373 99.95C150.373 100.825 150.373 102.098 150.428 103.727C150.428 104.014 150.428 104.339 150.428 104.626C150.501 104.924 150.554 105.227 150.587 105.532C150.587 104.889 150.587 104.265 150.538 103.696C150.508 102.092 150.471 100.825 150.44 99.9439Z" fill="#263238"/>
<path d="M150.338 168.135H150.013C149.946 172.267 149.885 176.301 149.836 180.181H150.16C150.215 176.301 150.277 172.249 150.338 168.135Z" fill="#263238"/>
<path d="M150.119 226.999C150.119 226.124 150.088 224.851 150.063 223.222C150.039 221.594 150.002 219.642 149.99 217.359H149.812C149.812 219.642 149.892 221.613 149.941 223.222C149.99 224.832 150.033 226.124 150.057 227.005C150.057 227.427 150.088 227.752 150.094 227.984C150.1 228.217 150.094 228.321 150.094 228.321C150.094 228.321 150.094 228.205 150.094 227.984C150.094 227.764 150.125 227.421 150.119 226.999Z" fill="#263238"/>
<path d="M149.977 192.71H149.695C149.665 197.032 149.658 201.084 149.695 204.781H149.94C149.928 201.084 149.977 197.032 149.977 192.71Z" fill="#263238"/>
<path d="M149.928 205.001H149.684C149.684 206.501 149.684 207.951 149.684 209.334C149.684 212.223 149.751 214.843 149.782 217.138H149.965C149.965 214.831 149.904 212.242 149.91 209.328C149.922 207.945 149.928 206.503 149.928 205.001Z" fill="#263238"/>
<path d="M150.156 180.42H149.831C149.795 183.266 149.764 186.045 149.74 188.72C149.74 189.999 149.74 191.248 149.709 192.478H149.997C149.997 191.254 149.997 189.993 150.033 188.714C150.07 186.039 150.113 183.266 150.156 180.42Z" fill="#263238"/>
<path d="M123.339 167.45H123.032C122.886 171.575 122.739 175.578 122.592 179.422H122.873C123.02 175.572 123.173 171.575 123.339 167.45Z" fill="#263238"/>
<path d="M124.967 116.966H125.199C125.242 115.821 125.285 114.695 125.322 113.624C125.42 110.723 125.512 108.115 125.591 105.783H125.42C125.328 108.097 125.218 110.717 125.095 113.618C125.052 114.714 125.01 115.821 124.967 116.966Z" fill="#263238"/>
<path d="M123.969 142.869C123.822 146.731 123.663 150.734 123.504 154.841H123.816C123.963 150.734 124.11 146.725 124.257 142.869H123.969Z" fill="#263238"/>
<path d="M124.444 130.585C124.297 134.386 124.138 138.389 123.979 142.563H124.26C124.419 138.389 124.566 134.386 124.701 130.591L124.444 130.585Z" fill="#263238"/>
<path d="M125.672 99.8338C125.605 101.395 125.525 103.298 125.434 105.489H125.599C125.672 103.304 125.74 101.401 125.795 99.8399C125.85 98.2791 125.88 96.957 125.905 96.0879C125.905 95.8981 125.905 95.7267 125.905 95.5737H125.874V96.094C125.801 96.9632 125.746 98.1873 125.672 99.8338Z" fill="#263238"/>
<path d="M124.957 117.278C124.804 121.226 124.633 125.59 124.455 130.279H124.712C124.884 125.59 125.043 121.226 125.19 117.278H124.957Z" fill="#263238"/>
<path d="M123.802 155.166H123.49C123.441 156.484 123.39 157.808 123.337 159.138C123.239 161.851 123.141 164.518 123.043 167.138H123.343C123.449 164.514 123.553 161.847 123.655 159.138C123.688 157.804 123.737 156.479 123.802 155.166Z" fill="#263238"/>
<path d="M121.908 204.297H121.681V204.628C121.522 209.31 121.387 213.258 121.283 216.33H121.424C121.553 213.27 121.712 209.31 121.908 204.634C121.901 204.523 121.901 204.407 121.908 204.297Z" fill="#263238"/>
<path d="M122.134 192.007C121.975 196.358 121.828 200.368 121.693 203.979H121.92C122.061 200.368 122.214 196.358 122.385 192.007H122.134Z" fill="#263238"/>
<path d="M122.587 179.722C122.428 183.927 122.281 187.93 122.146 191.694H122.397C122.544 187.93 122.697 183.927 122.863 179.728L122.587 179.722Z" fill="#263238"/>
<path d="M121.204 218.418C121.155 220.033 121.118 221.294 121.088 222.17C121.088 222.578 121.088 222.902 121.088 223.143C121.088 223.363 121.088 223.473 121.088 223.473C121.088 223.473 121.088 223.363 121.118 223.143C121.149 222.922 121.118 222.586 121.174 222.17C121.21 221.3 121.272 220.04 121.345 218.418C121.345 217.873 121.394 217.267 121.418 216.643H121.259C121.259 217.267 121.223 217.867 121.204 218.418Z" fill="#263238"/>
<path d="M115.502 105.251H115.765C115.899 104.173 116.034 103.151 116.15 102.19C116.407 100.238 116.615 98.5913 116.761 97.2937L116.609 97.361C116.419 98.5852 116.181 100.219 115.912 102.147C115.765 103.139 115.649 104.161 115.502 105.251Z" fill="#263238"/>
<path d="M114.328 116.972H114.016C113.877 118.159 113.736 119.384 113.593 120.644C113.532 121.14 113.477 121.636 113.422 122.132L113.483 122.071C113.483 122.071 113.483 122.836 113.538 123.956C113.661 122.885 113.783 121.789 113.905 120.675C114.046 119.402 114.193 118.172 114.328 116.972Z" fill="#263238"/>
<path d="M115.725 105.532H115.462C115.022 108.788 114.534 112.602 114.045 116.739H114.363C114.845 112.565 115.316 108.752 115.725 105.532Z" fill="#263238"/>
<path d="M150.641 106.456L158.669 106.64L158.577 106.407L150.635 106.169C150.641 106.261 150.647 106.358 150.641 106.456Z" fill="#263238"/>
<path d="M115.461 105.489H115.724L125.42 105.771H125.591L136.588 106.077L139.368 106.15H139.552L143.92 106.261C143.92 106.157 143.92 106.053 143.95 105.955L139.564 105.832H139.387L136.595 105.759L125.597 105.471H125.432C121.876 105.379 118.608 105.3 115.755 105.238H115.498C112.339 105.165 109.706 105.11 107.757 105.079L107.629 105.22C109.578 105.306 112.248 105.392 115.461 105.489Z" fill="#263238"/>
<path d="M131.352 117.456L138.788 117.645H139.02L142.502 117.737C142.761 117.617 143.031 117.523 143.309 117.456L139.032 117.339H138.8L131.364 117.162L125.2 117.003H124.968C121.149 116.905 117.569 116.813 114.361 116.739H114.044C109.767 116.635 106.162 116.556 103.535 116.507L103.688 116.678C106.297 116.77 109.834 116.88 114.013 117.009H114.325L124.955 117.315H125.188L131.352 117.456Z" fill="#263238"/>
<path d="M144.826 117.774H145.285C145.048 117.728 144.819 117.648 144.605 117.535C144.686 117.608 144.76 117.688 144.826 117.774Z" fill="#263238"/>
<path d="M150.587 117.676L146.72 117.56C146.553 117.655 146.374 117.729 146.188 117.78C146.104 117.8 146.018 117.814 145.932 117.823L150.587 117.933H150.813C154.968 118.031 158.359 118.104 160.65 118.141V118C158.359 117.915 154.974 117.804 150.832 117.676H150.587Z" fill="#263238"/>
<path d="M124.701 130.627L132.357 130.836L138.24 130.989H138.521C142.828 131.099 146.836 131.203 150.361 131.282V131.019L138.533 130.627H138.252L132.363 130.468L124.713 130.266H124.457L114.877 130.015C114.92 130.113 114.962 130.199 115.011 130.291L124.445 130.56L124.701 130.627Z" fill="#263238"/>
<path d="M124.253 142.869L131.34 143.059L137.841 143.23H138.146C142.563 143.346 146.645 143.444 150.2 143.53V143.267L138.146 142.924H137.841L131.346 142.746L124.253 142.563H123.972L119.084 142.44L119.029 142.734L123.917 142.869H124.253Z" fill="#263238"/>
<path d="M123.802 155.166L130.333 155.343L137.536 155.533H137.854C142.418 155.649 146.609 155.753 150.201 155.833H150.531L155.792 155.949C155.792 155.882 155.755 155.814 155.73 155.747L150.537 155.588H150.207L137.86 155.227H137.542L130.345 155.031L123.814 154.859H123.502L116.562 154.688C116.531 154.78 116.507 154.878 116.482 154.976L123.49 155.172L123.802 155.166Z" fill="#263238"/>
<path d="M123.339 167.45L129.326 167.609L137.342 167.823H137.66C142.254 167.94 146.451 168.044 150.013 168.123H150.337L157.968 168.282C157.965 168.231 157.965 168.18 157.968 168.129L150.349 167.878H150.025L137.672 167.517H137.354L129.338 167.297L123.351 167.144H123.051L113.832 166.917C113.832 167.009 113.802 167.101 113.783 167.193L123.039 167.456L123.339 167.45Z" fill="#263238"/>
<path d="M122.587 179.722H122.862L128.318 179.869L137.25 180.102H137.555C142.156 180.218 146.329 180.316 149.829 180.395H150.153C153.312 180.469 155.902 180.524 157.747 180.548V180.414C155.915 180.346 153.312 180.261 150.153 180.163H149.829C146.323 180.053 142.15 179.93 137.555 179.802H137.25L128.318 179.557L122.868 179.41H122.587L112.457 179.159C112.457 179.251 112.457 179.343 112.457 179.434L122.587 179.722Z" fill="#263238"/>
<path d="M122.136 192.006H122.387L127.311 192.141L137.263 192.404H137.538C142.139 192.521 146.275 192.619 149.709 192.692H149.978C152.641 192.753 154.865 192.796 156.515 192.82V192.686C154.859 192.625 152.635 192.545 149.965 192.465H149.678L137.508 192.104H137.227L127.317 191.835L122.429 191.707H122.179L112.709 191.456C112.709 191.553 112.709 191.645 112.74 191.743L122.136 192.006Z" fill="#263238"/>
<path d="M121.681 204.291H121.907L126.293 204.413L137.37 204.701H137.608L149.681 204.983H149.925L154.709 205.081C154.712 205.028 154.712 204.974 154.709 204.921L149.901 204.762H149.656C146.302 204.652 142.19 204.53 137.578 204.401H137.339L126.281 204.095L121.894 203.979H121.668L114.459 203.795L114.502 204.095L121.681 204.291Z" fill="#263238"/>
<path d="M121.259 216.636H121.399L126.727 216.783L137.59 217.065H137.755C142.331 217.181 146.436 217.279 149.797 217.353H149.974L152.418 217.408C152.418 217.34 152.418 217.279 152.46 217.212L149.955 217.132H149.772L137.736 216.771H137.553L126.757 216.471L121.436 216.33H121.259L116.23 216.202L116.267 216.508L121.259 216.636Z" fill="#263238"/>
<path d="M128.033 95.6349L133.208 95.6717C135.23 95.6717 137.057 95.6717 138.383 95.6104C139.049 95.6104 139.605 95.5615 139.953 95.537C140.145 95.5377 140.337 95.5109 140.521 95.4574C140.394 95.4224 140.262 95.41 140.13 95.4207V95.4513L128.29 95.4023H128.027C127.361 95.4023 126.805 95.4513 126.457 95.4819C126.263 95.4797 126.07 95.5045 125.883 95.5554H125.913C126.06 95.6105 126.836 95.6227 128.033 95.6349Z" fill="#263238"/>
<path d="M135.268 128.589C133.941 128.406 132.675 127.914 131.572 127.151C130.723 126.569 130.289 126.08 130.246 126.122C130.314 126.259 130.405 126.383 130.515 126.49C130.796 126.799 131.104 127.082 131.437 127.334C132.404 128.076 133.527 128.586 134.721 128.823C135.915 129.061 137.147 129.021 138.323 128.705L138.598 128.632C138.848 128.552 139.081 128.473 139.288 128.387C139.676 128.23 140.048 128.038 140.4 127.812C140.645 127.653 140.767 127.542 140.755 127.524C140.742 127.506 140.18 127.836 139.209 128.173C139.026 128.24 138.824 128.301 138.598 128.356L138.317 128.43C137.318 128.666 136.286 128.72 135.268 128.589Z" fill="#263238"/>
<path d="M160.802 123.95C160.802 123.858 157.136 123.484 152.652 123.105L150.819 122.952H150.569C147.074 122.676 144.459 122.523 144.459 122.597C144.459 122.67 147.001 122.946 150.471 123.252L152.609 123.441C156.177 123.741 159.208 123.95 160.319 123.98C160.481 123.992 160.643 123.982 160.802 123.95Z" fill="#263238"/>
<path d="M140.318 91.791C140.685 93.1804 142.2 94.374 144.387 94.1169C144.099 94.6943 143.905 95.3142 143.813 95.9531C143.673 96.9701 143.779 98.006 144.123 98.9732C144.466 99.9405 145.037 100.811 145.786 101.511C144.769 102.798 144.134 104.347 143.954 105.979C143.954 106.077 143.954 106.181 143.923 106.285C143.779 108.034 144.184 109.785 145.084 111.292C144.137 112.473 143.147 113.74 143.135 115.209C143.152 115.914 143.444 116.584 143.947 117.076C144.125 117.167 144.29 117.283 144.436 117.419L144.613 117.572C144.826 117.684 145.055 117.765 145.292 117.81C145.494 117.843 145.7 117.843 145.903 117.81C145.989 117.802 146.075 117.788 146.159 117.768C146.345 117.717 146.524 117.643 146.691 117.547C147.234 117.219 147.675 116.744 147.961 116.176C148.366 115.431 148.601 114.606 148.651 113.76C148.7 112.914 148.563 112.067 148.249 111.28C149.394 110.349 150.186 109.053 150.491 107.607C150.563 107.262 150.608 106.912 150.625 106.56C150.628 106.522 150.628 106.483 150.625 106.444C150.625 106.346 150.625 106.248 150.625 106.156C150.625 105.948 150.625 105.746 150.589 105.544C150.559 105.233 150.508 104.924 150.436 104.62C150.141 103.404 149.49 102.304 148.566 101.462C149.203 100.896 149.713 100.201 150.063 99.4236C149.734 99.7557 149.344 100.022 148.915 100.207C148.578 100.353 148.218 100.438 147.851 100.458C147.752 100.468 147.652 100.468 147.552 100.458C147.485 100.458 147.448 100.458 147.448 100.458C147.448 100.458 147.485 100.458 147.552 100.421C147.619 100.385 147.711 100.421 147.833 100.366C148.686 100.202 149.458 99.7506 150.02 99.087C150.163 98.9167 150.288 98.7321 150.393 98.5361C150.43 98.4014 150.473 98.2668 150.497 98.126C150.671 97.278 150.671 96.4033 150.497 95.5553C150.293 95.0959 150.003 94.6803 149.642 94.3311C149.275 94.024 148.878 93.7553 148.456 93.5293C148.456 93.5293 148.493 93.5293 148.56 93.5293C148.658 93.5455 148.755 93.5722 148.847 93.6089C149.194 93.7326 149.515 93.9194 149.794 94.1597C149.954 94.2947 150.102 94.4443 150.234 94.6066C149.931 93.759 149.438 92.9926 148.792 92.3664C149.443 90.8541 149.697 89.2001 149.529 87.5619C149.361 85.9237 148.777 84.3559 147.833 83.0077C146.923 86.9433 144.784 90.7137 140.318 91.791ZM147.326 101.652C147.326 101.737 146.978 101.725 146.593 101.762C146.208 101.798 145.884 101.847 145.854 101.762C145.823 101.676 146.122 101.468 146.568 101.437C147.014 101.407 147.351 101.566 147.326 101.652ZM146.214 111.335C145.603 111.237 145.047 111.231 145.035 111.139C145.415 110.953 145.848 110.909 146.257 111.016C146.941 111.12 147.43 111.408 147.393 111.488C147.357 111.567 146.85 111.426 146.214 111.335ZM145.866 92.7642C146.27 92.5926 146.721 92.5667 147.143 92.6908C147.143 92.7826 146.599 92.8805 145.951 93.0702C145.304 93.26 144.791 93.4681 144.729 93.3885C144.668 93.309 145.175 92.9601 145.866 92.7642Z" fill="#263238"/>
<path d="M130.747 66.4264C130.975 67.3963 131.337 68.3296 131.823 69.1992C132.105 69.7126 132.432 70.2001 132.8 70.6559C133.191 71.1486 133.626 71.6035 134.102 72.0147C134.583 72.4174 135.098 72.7778 135.641 73.092C136.151 73.3819 136.684 73.6276 137.236 73.8265C138.17 74.1639 139.147 74.3699 140.138 74.4385H140.407V72.382C140.407 72.382 132.165 71.6597 130.43 64.0699C130.43 64.1618 130.43 64.2719 130.43 64.4005C130.473 65.0841 130.58 65.7623 130.747 66.4264Z" fill="#B78876"/>
<path d="M140.134 95.4208L140.274 91.8034H140.231L140.354 79.4456V79.415C140.298 78.8196 140.312 78.2197 140.396 77.6277L140.427 74.6714H140.152C137.861 74.5698 135.669 73.7086 133.92 72.2231C133.433 71.7975 132.985 71.3283 132.582 70.8214C132.207 70.3484 131.876 69.8424 131.593 69.3096C131.104 68.4127 130.754 67.4469 130.554 66.4451C130.413 65.7732 130.349 65.0872 130.364 64.4007C130.367 64.2145 130.379 64.0286 130.401 63.8437C130.404 63.8275 130.404 63.811 130.401 63.7948C130.401 63.7948 130.401 63.7948 130.401 63.7642L130.352 63.8131C129.87 65.0373 129.026 67.6141 129.644 69.6891L122.153 71.764L121.322 72.5658C121.322 76.1159 121.377 80.1311 121.554 82.6161C121.921 87.8861 127.102 88.3942 127.102 88.3942C129.551 88.2585 131.906 87.4074 133.877 85.9459C133.877 85.9459 132.375 89.8387 127.23 89.6734L127.102 88.3758C127.102 88.3758 127.524 93.9457 127.481 95.3474H128.318L140.158 95.3963L140.134 95.4208ZM123.131 74.7265C122.952 74.7265 122.782 74.6555 122.655 74.5293C122.529 74.403 122.459 74.2318 122.459 74.0532C122.459 73.8746 122.529 73.7034 122.655 73.5771C122.782 73.4508 122.952 73.3799 123.131 73.3799C123.309 73.3799 123.48 73.4508 123.606 73.5771C123.732 73.7034 123.803 73.8746 123.803 74.0532C123.803 74.2318 123.732 74.403 123.606 74.5293C123.48 74.6555 123.309 74.7265 123.131 74.7265ZM124.414 73.1412C124.34 73.2391 123.803 72.8841 123.1 72.9392C122.398 72.9943 121.909 73.4166 121.823 73.3309C121.738 73.2452 121.823 73.1228 122.062 72.927C122.345 72.6644 122.709 72.5068 123.094 72.4801C123.466 72.4492 123.839 72.544 124.151 72.7495C124.359 72.9392 124.45 73.0922 124.414 73.1412ZM125.703 79.4701C125.635 79.4533 125.572 79.4207 125.519 79.375C125.466 79.3293 125.424 79.2717 125.397 79.2069C125.332 78.9521 125.354 78.6829 125.458 78.4418C125.599 77.9582 125.746 77.4502 125.904 76.9177C126.248 75.6052 126.689 74.3203 127.224 73.0739C126.983 74.4122 126.64 75.73 126.198 77.0156C126.033 77.542 125.874 78.0439 125.727 78.5275C125.633 78.7167 125.599 78.9303 125.63 79.1396C125.666 79.2681 125.837 79.2926 126.021 79.3048C126.41 79.3004 126.798 79.3477 127.175 79.4456C126.794 79.5259 126.403 79.5527 126.014 79.5252C125.909 79.5211 125.804 79.5026 125.703 79.4701ZM128.464 81.9857C128.056 82.163 127.599 82.194 127.171 82.0736C126.743 81.9532 126.369 81.6887 126.112 81.3247C127.554 81.3247 130.23 79.5864 129.521 80.1005C129.521 80.0821 129.967 81.3124 128.464 81.9857ZM130.743 74.6408C130.565 74.6408 130.394 74.5698 130.268 74.4436C130.142 74.3173 130.071 74.1461 130.071 73.9675C130.071 73.7889 130.142 73.6177 130.268 73.4914C130.394 73.3651 130.565 73.2942 130.743 73.2942C130.921 73.2942 131.092 73.3651 131.218 73.4914C131.345 73.6177 131.415 73.7889 131.415 73.9675C131.415 74.1461 131.345 74.3173 131.218 74.4436C131.092 74.5698 130.921 74.6408 130.743 74.6408ZM132.258 73.0922C132.185 73.1902 131.647 72.8352 130.945 72.8902C130.242 72.9453 129.754 73.3677 129.668 73.282C129.582 73.1963 129.699 73.0677 129.906 72.878C130.186 72.6276 130.54 72.4769 130.914 72.4495C131.287 72.4236 131.658 72.5203 131.971 72.725C132.197 72.8535 132.289 73.0127 132.258 73.0922Z" fill="#B78876"/>
<path d="M123.097 73.3798C122.963 73.3786 122.832 73.4172 122.721 73.4907C122.609 73.5642 122.522 73.6693 122.47 73.7926C122.419 73.9159 122.405 74.0517 122.431 74.1829C122.456 74.3141 122.521 74.4346 122.615 74.5291C122.709 74.6237 122.83 74.6879 122.961 74.7137C123.092 74.7395 123.228 74.7256 123.351 74.6739C123.474 74.6222 123.579 74.535 123.652 74.4233C123.726 74.3116 123.764 74.1806 123.763 74.047C123.763 73.87 123.693 73.7003 123.568 73.5752C123.443 73.4501 123.273 73.3798 123.097 73.3798Z" fill="#263238"/>
<path d="M124.125 72.7738C123.822 72.5649 123.459 72.4617 123.092 72.48C122.719 72.5052 122.364 72.6537 122.084 72.9023C121.87 73.0982 121.809 73.2696 121.846 73.3063C121.883 73.343 122.414 72.9635 123.123 72.9145C123.832 72.8656 124.345 73.2145 124.436 73.1165C124.528 73.0186 124.357 72.939 124.125 72.7738Z" fill="#263238"/>
<path d="M130.732 73.3003C130.598 73.2979 130.466 73.3354 130.354 73.4082C130.242 73.4809 130.154 73.5856 130.101 73.7087C130.048 73.8319 130.034 73.968 130.059 74.0995C130.084 74.2311 130.147 74.3522 130.242 74.4473C130.336 74.5425 130.456 74.6074 130.587 74.6336C130.719 74.6599 130.855 74.6465 130.978 74.5949C131.102 74.5434 131.207 74.4562 131.281 74.3444C131.354 74.2326 131.393 74.1014 131.392 73.9674C131.392 73.7916 131.323 73.6228 131.199 73.4978C131.075 73.3729 130.907 73.3019 130.732 73.3003Z" fill="#263238"/>
<path d="M131.965 72.6942C131.652 72.4896 131.281 72.3929 130.908 72.4188C130.534 72.4462 130.18 72.5969 129.9 72.8473C129.692 73.037 129.625 73.2084 129.662 73.2512C129.699 73.2941 130.23 72.9085 130.939 72.8595C131.647 72.8105 132.161 73.1594 132.252 73.0615C132.344 72.9635 132.197 72.8534 131.965 72.6942Z" fill="#263238"/>
<path d="M126.021 79.274C125.838 79.274 125.667 79.2373 125.63 79.1088C125.6 78.8995 125.634 78.6859 125.728 78.4967C125.875 78.0132 126.034 77.5113 126.199 76.9849C126.641 75.6992 126.984 74.3814 127.225 73.0431C126.69 74.2895 126.249 75.5744 125.905 76.8869C125.747 77.4194 125.6 77.9275 125.459 78.411C125.355 78.6521 125.333 78.9214 125.398 79.1761C125.425 79.2409 125.467 79.2985 125.52 79.3442C125.573 79.39 125.636 79.4225 125.704 79.4393C125.807 79.4533 125.912 79.4533 126.015 79.4393C126.404 79.4668 126.795 79.44 127.176 79.3597C126.797 79.2804 126.408 79.2516 126.021 79.274Z" fill="#263238"/>
<path d="M126.113 81.3245C126.37 81.6886 126.744 81.9531 127.172 82.0735C127.601 82.1939 128.057 82.1628 128.465 81.9856C129.968 81.3123 129.522 80.082 129.522 80.082C130.231 79.5862 127.555 81.3123 126.113 81.3245Z" fill="white"/>
<path d="M133.854 85.9948C131.882 87.4563 129.527 88.3074 127.078 88.4431L127.206 89.7407C132.351 89.8876 133.854 85.9948 133.854 85.9948Z" fill="#A36957"/>
<path d="M129.621 69.7196C129.01 67.6446 129.847 65.0494 130.33 63.8436L130.378 63.7947C130.378 63.7947 130.378 63.7947 130.378 63.8253C130.381 63.777 130.392 63.7295 130.409 63.6845C130.409 63.6845 130.409 63.7518 130.409 63.8742C130.409 63.9967 130.409 64.015 130.409 64.1007C132.144 71.6905 140.386 72.4127 140.386 72.4127V74.4693C140.967 74.5023 141.549 74.488 142.127 74.4264C142.365 74.4264 142.549 74.3714 142.677 74.3591C142.805 74.3469 142.873 74.3591 142.873 74.3591C142.815 74.3897 142.753 74.4123 142.689 74.4264C142.51 74.477 142.329 74.5179 142.146 74.5489C141.563 74.6524 140.971 74.6975 140.38 74.6835L140.349 77.6399C140.386 77.4492 140.435 77.2611 140.496 77.0767C140.613 76.6967 140.829 76.3549 141.123 76.0869C141.416 75.8189 141.775 75.6345 142.164 75.5527C142.619 75.5188 143.071 75.6534 143.433 75.9309C143.796 76.2084 144.044 76.6096 144.131 77.0584C144.196 77.5113 144.126 77.9734 143.929 78.3863C143.733 78.7992 143.418 79.1444 143.025 79.3782C142.47 79.6956 141.825 79.8184 141.192 79.727C141.192 79.7638 141.192 79.7882 141.192 79.825C141.142 80.122 141.203 80.4271 141.364 80.6819C141.459 80.8343 141.586 80.9638 141.737 81.0613C141.888 81.1587 142.059 81.2216 142.236 81.2456C142.414 81.2695 142.595 81.2539 142.767 81.1999C142.938 81.1458 143.095 81.0546 143.227 80.9328C143.45 80.7314 143.592 80.4547 143.624 80.1555C143.632 79.865 143.591 79.5753 143.502 79.2986C143.502 79.2986 143.844 79.5434 143.85 80.1677C143.845 80.5372 143.693 80.8894 143.429 81.1471C143.27 81.309 143.075 81.4316 142.861 81.5051C142.646 81.5787 142.418 81.6013 142.193 81.571C141.968 81.5407 141.754 81.4584 141.566 81.3306C141.379 81.2029 141.224 81.0331 141.113 80.8349C141.021 80.6763 140.962 80.5011 140.938 80.3195C140.914 80.1378 140.925 79.9531 140.973 79.776C140.97 79.7495 140.97 79.7229 140.973 79.6964C140.764 79.6584 140.559 79.601 140.362 79.5251L140.3 79.4577L140.178 91.8156H140.221H140.264C144.73 90.7383 146.838 86.9679 147.815 83.0261C147.876 82.7629 147.937 82.4998 147.992 82.2366C147.956 82.31 147.919 82.3957 147.876 82.4692C147.607 82.9992 147.292 83.505 146.935 83.981C146.816 84.1668 146.67 84.3339 146.502 84.4768C146.453 84.44 147.039 83.7117 147.675 82.3712C147.88 81.9415 148.059 81.5001 148.212 81.0491C148.545 78.809 148.668 76.5426 148.579 74.2796V73.9184C148.358 72.9722 148.03 72.0543 147.601 71.1824C146.942 69.8481 146.349 69.132 146.379 69.0953C146.546 69.2352 146.692 69.398 146.813 69.5788C147.178 70.0507 147.503 70.5523 147.785 71.0784C148.073 71.6179 148.32 72.1786 148.524 72.7555V72.1434C148.524 72.1067 148.524 72.0577 148.524 71.972C148.447 71.2545 148.333 70.5415 148.182 69.8359C145.268 58.8613 135.84 56.9088 133.983 56.9272C131.985 56.9272 128.484 55.856 123.45 61.3464C118.416 66.8367 121.263 72.6086 121.263 72.6086L122.094 71.8068L129.621 69.7196Z" fill="#263238"/>
<path d="M144.226 117.664C144.12 117.578 144.028 117.477 143.951 117.364C143.736 117.381 143.521 117.414 143.31 117.462C142.489 117.659 141.739 118.083 141.147 118.686C140.365 119.531 139.942 120.649 139.968 121.801L141.074 121.355C140.786 121.94 140.603 122.572 140.536 123.221C140.846 123.216 141.152 123.147 141.434 123.017C141.715 122.887 141.967 122.701 142.173 122.468L141.868 123.901C142.821 123.436 143.607 122.687 144.117 121.756C144.627 120.825 144.836 119.759 144.715 118.704C144.667 118.562 144.61 118.423 144.544 118.288C144.373 117.933 144.22 117.737 144.257 117.676C144.294 117.615 144.41 117.743 144.575 117.939C144.568 117.899 144.558 117.861 144.544 117.823C144.433 117.782 144.326 117.728 144.226 117.664Z" fill="#263238"/>
<path d="M143.866 117.07C143.823 117.101 143.866 117.223 143.964 117.364C144.04 117.477 144.133 117.578 144.239 117.664C144.337 117.743 144.444 117.811 144.557 117.866C144.728 117.945 144.863 117.97 144.887 117.921C144.912 117.872 144.887 117.853 144.838 117.798C144.772 117.717 144.698 117.641 144.618 117.572L144.441 117.419C144.294 117.283 144.13 117.167 143.952 117.076C143.939 117.068 143.925 117.063 143.91 117.061C143.895 117.06 143.88 117.063 143.866 117.07Z" fill="#FF6420"/>
<path d="M146.255 111.041C145.846 110.934 145.413 110.977 145.033 111.163C145.033 111.255 145.577 111.261 146.212 111.359C146.848 111.457 147.355 111.598 147.391 111.512C147.428 111.427 146.921 111.121 146.255 111.041Z" fill="#FF6420"/>
<path d="M145.853 101.768C145.883 101.848 146.207 101.768 146.592 101.768C146.977 101.768 147.307 101.768 147.325 101.658C147.343 101.548 147.013 101.413 146.567 101.45C146.121 101.486 145.816 101.688 145.853 101.768Z" fill="#FF6420"/>
<path d="M145.95 93.0703C146.598 92.8805 147.142 92.7826 147.142 92.6908C146.72 92.5667 146.269 92.5927 145.865 92.7643C145.174 92.9601 144.704 93.3151 144.747 93.3763C144.79 93.4375 145.303 93.2539 145.95 93.0703Z" fill="#FF6420"/>
<path d="M142.166 74.549C142.349 74.518 142.531 74.4771 142.71 74.4266C142.774 74.4124 142.835 74.3898 142.893 74.3592C142.893 74.3592 142.82 74.3592 142.698 74.3592C142.575 74.3592 142.386 74.4082 142.148 74.4266C141.569 74.4881 140.987 74.5024 140.407 74.4694H140.138C139.147 74.4008 138.17 74.1948 137.236 73.8573C136.684 73.6585 136.151 73.4127 135.641 73.1228C135.098 72.8087 134.583 72.4482 134.101 72.0456C133.626 71.6344 133.191 71.1795 132.8 70.6868C132.432 70.231 132.105 69.7435 131.823 69.23C131.337 68.3604 130.975 67.4272 130.747 66.4573C130.592 65.8022 130.496 65.1344 130.46 64.4619C130.46 64.3334 130.46 64.2232 130.46 64.1314C130.46 64.0396 130.46 63.9662 130.46 63.905C130.46 63.8438 130.46 63.7152 130.46 63.7152C130.443 63.7602 130.432 63.8078 130.43 63.856C130.432 63.8722 130.432 63.8887 130.43 63.905C130.407 64.0898 130.395 64.2758 130.393 64.4619C130.377 65.1484 130.441 65.8344 130.582 66.5063C130.782 67.5082 131.132 68.4739 131.621 69.3708C131.905 69.9037 132.236 70.4097 132.611 70.8826C133.013 71.3896 133.461 71.8587 133.949 72.2843C134.444 72.7033 134.978 73.0743 135.543 73.3922C136.964 74.1912 138.553 74.644 140.18 74.7142H140.455C141.03 74.7145 141.602 74.6591 142.166 74.549Z" fill="#263238"/>
<path d="M146.872 69.5542C146.751 69.3734 146.605 69.2106 146.438 69.0707C146.389 69.1074 146.982 69.8235 147.66 71.1579C148.089 72.0298 148.417 72.9477 148.638 73.8939C148.866 74.8257 148.987 75.7806 148.998 76.74C149.001 78.1982 148.76 79.6466 148.283 81.0246C148.13 81.4755 147.951 81.917 147.746 82.3466C147.135 83.6871 146.524 84.4155 146.573 84.4522C146.741 84.3093 146.887 84.1423 147.007 83.9564C147.363 83.4804 147.678 82.9746 147.947 82.4446C147.99 82.3711 148.027 82.2854 148.064 82.212C149.396 79.5139 149.677 76.415 148.852 73.5205C148.778 73.245 148.687 72.9819 148.601 72.7309C148.397 72.154 148.15 71.5933 147.862 71.0538C147.575 70.527 147.243 70.0254 146.872 69.5542Z" fill="#263238"/>
<path d="M149.832 94.1538C149.553 93.9134 149.232 93.7266 148.885 93.6029C148.792 93.5662 148.696 93.5395 148.598 93.5233C148.531 93.5233 148.494 93.5233 148.494 93.5233C148.915 93.7494 149.313 94.018 149.679 94.3251C150.04 94.6743 150.331 95.09 150.535 95.5493V95.5921C150.79 96.1679 150.881 96.8037 150.797 97.4284C150.752 97.6781 150.68 97.9222 150.583 98.1567C150.53 98.2899 150.467 98.4188 150.394 98.5423C150.289 98.7384 150.164 98.923 150.021 99.0932C149.459 99.7569 148.687 100.208 147.834 100.372C147.712 100.372 147.614 100.409 147.553 100.428C147.492 100.446 147.449 100.428 147.449 100.464C147.449 100.501 147.486 100.464 147.553 100.464C147.653 100.474 147.753 100.474 147.852 100.464C148.219 100.445 148.579 100.36 148.916 100.213C149.345 100.028 149.735 99.762 150.064 99.4299C150.126 99.3759 150.185 99.3187 150.241 99.2585C150.284 99.2095 150.321 99.1544 150.357 99.1055L150.394 99.0626C150.58 98.8233 150.736 98.5623 150.858 98.2853C150.977 98.0156 151.062 97.7317 151.109 97.4406C151.174 96.9336 151.132 96.4184 150.985 95.9289C150.837 95.4394 150.588 94.9867 150.254 94.6006C150.127 94.4391 149.986 94.2896 149.832 94.1538Z" fill="#263238"/>
<path d="M144.257 117.719C144.221 117.755 144.374 117.951 144.545 118.331C144.611 118.466 144.668 118.605 144.716 118.747C144.83 119.081 144.898 119.429 144.918 119.781C144.937 120.287 144.854 120.79 144.673 121.263C144.6 121.446 144.533 121.593 144.484 121.691C144.435 121.789 144.416 121.856 144.435 121.869C144.453 121.881 144.502 121.869 144.588 121.764C144.698 121.641 144.795 121.506 144.875 121.36C145.135 120.872 145.26 120.322 145.236 119.769C145.212 119.216 145.041 118.679 144.74 118.214C144.692 118.14 144.636 118.071 144.575 118.006C144.41 117.774 144.276 117.7 144.257 117.719Z" fill="#263238"/>
<path d="M141.018 79.6966C141.201 79.1641 141.55 78.9989 141.556 79.0295C141.425 79.2506 141.316 79.4843 141.232 79.7272C141.865 79.8186 142.51 79.6958 143.065 79.3783C143.457 79.1446 143.772 78.7994 143.969 78.3865C144.166 77.9736 144.236 77.5115 144.171 77.0586C144.084 76.6098 143.835 76.2086 143.473 75.9311C143.11 75.6536 142.658 75.519 142.203 75.5529C141.815 75.6346 141.455 75.8191 141.162 76.0871C140.869 76.3551 140.652 76.6969 140.535 77.0769C140.474 77.2613 140.425 77.4494 140.389 77.64C140.304 78.232 140.29 78.832 140.346 79.4273V79.4579L140.407 79.5252C140.605 79.6012 140.81 79.6586 141.018 79.6966ZM142.24 76.5689C142.375 76.5305 142.517 76.5227 142.655 76.546C142.794 76.5693 142.925 76.6231 143.04 76.7036C143.168 76.8186 143.267 76.9624 143.328 77.123C143.39 77.2837 143.413 77.4567 143.395 77.6278C143.386 77.9559 143.27 78.2721 143.065 78.5276C142.89 78.7383 142.645 78.8777 142.374 78.9193C141.91 78.9744 141.684 78.7295 141.727 78.6989C141.77 78.6683 141.983 78.754 142.338 78.6439C142.544 78.565 142.721 78.4236 142.844 78.2393C142.967 78.055 143.029 77.837 143.022 77.6156C143.034 77.506 143.023 77.3952 142.99 77.2899C142.958 77.1846 142.904 77.0872 142.833 77.0035C142.684 76.8912 142.498 76.8407 142.313 76.8627C141.959 76.9056 141.702 77.0096 141.702 76.9484C141.702 76.8872 141.788 76.7036 142.209 76.5689H142.24Z" fill="#B78876"/>
<path d="M142.261 76.8442C142.446 76.8223 142.632 76.8727 142.781 76.985C142.852 77.0687 142.906 77.1662 142.939 77.2714C142.971 77.3767 142.982 77.4875 142.97 77.5971C142.977 77.8185 142.915 78.0365 142.792 78.2208C142.669 78.4051 142.493 78.5465 142.286 78.6254C141.956 78.7355 141.724 78.6254 141.675 78.6805C141.626 78.7355 141.858 78.9559 142.323 78.9008C142.593 78.8592 142.838 78.7198 143.013 78.5091C143.219 78.2536 143.335 77.9374 143.343 77.6093C143.361 77.4382 143.338 77.2652 143.277 77.1046C143.215 76.9439 143.116 76.8002 142.988 76.6851C142.873 76.6046 142.742 76.5508 142.603 76.5275C142.465 76.5042 142.323 76.512 142.188 76.5504C141.767 76.6851 141.577 76.8687 141.614 76.9116C141.65 76.9544 141.907 76.8871 142.261 76.8442Z" fill="#A36957"/>
<path d="M141.018 79.6963C141.015 79.7228 141.015 79.7494 141.018 79.7759C140.971 79.953 140.959 80.1377 140.983 80.3194C141.007 80.501 141.067 80.6762 141.158 80.8348C141.269 81.0331 141.424 81.2028 141.611 81.3305C141.799 81.4583 142.013 81.5406 142.238 81.5709C142.463 81.6012 142.691 81.5786 142.906 81.505C143.12 81.4315 143.315 81.3089 143.474 81.147C143.738 80.8893 143.89 80.5371 143.895 80.1676C143.895 79.5556 143.559 79.2679 143.547 79.2985C143.636 79.5752 143.677 79.8649 143.669 80.1554C143.637 80.4546 143.495 80.7313 143.272 80.9327C143.14 81.0545 142.983 81.1457 142.812 81.1998C142.641 81.2538 142.46 81.2694 142.282 81.2455C142.104 81.2215 141.933 81.1586 141.782 81.0612C141.632 80.9637 141.504 80.8342 141.409 80.6818C141.248 80.427 141.188 80.1219 141.238 79.8249C141.238 79.7882 141.238 79.7637 141.238 79.7269C141.322 79.484 141.43 79.2503 141.561 79.0292C141.561 79.0292 141.201 79.1638 141.018 79.6963Z" fill="#FF6420"/>
<path d="M127.763 225.94C129.535 226.13 131.429 226.344 133.433 226.552C138.009 227.085 142.145 227.611 145.138 228.009L146.244 228.15L148.688 228.468L149.653 228.578C149.767 228.594 149.882 228.594 149.996 228.578C149.888 228.542 149.778 228.515 149.666 228.499L148.707 228.327C148.096 228.217 147.259 228.083 146.263 227.93L145.181 227.764L144.723 227.697C142.811 227.415 140.483 227.085 137.886 226.754C136.481 226.577 135.015 226.393 133.494 226.222C128.911 225.689 124.757 225.298 121.745 225.053C120.236 224.93 119.02 224.845 118.177 224.796H117.957L117.205 224.759C117.092 224.747 116.977 224.747 116.863 224.759C116.972 224.793 117.085 224.814 117.199 224.82L118.165 224.93H118.33L121.727 225.273C123.413 225.5 125.478 225.695 127.763 225.94Z" fill="#263238"/>
<path d="M109.756 94.7781C109.756 94.7781 101.441 93.1806 89.4908 82.3101C77.5404 71.4396 71.663 56.713 70.2395 56.8232C68.8159 56.9333 62.5169 54.2218 51.428 80.3208C40.3391 106.42 45.1595 112.271 47.5117 112.149C49.8639 112.026 65.7122 107.124 75.7198 107.974C85.7273 108.825 98.698 113.673 98.698 113.673L109.756 94.7781Z" fill="#FF6420"/>
<path opacity="0.4" d="M109.756 94.7781C109.756 94.7781 101.441 93.1806 89.4908 82.3101C77.5404 71.4396 71.663 56.713 70.2395 56.8232C68.8159 56.9333 62.5169 54.2218 51.428 80.3208C40.3391 106.42 45.1595 112.271 47.5117 112.149C49.8639 112.026 65.7122 107.124 75.7198 107.974C85.7273 108.825 98.698 113.673 98.698 113.673L109.756 94.7781Z" fill="white"/>
<path d="M127.715 109.511L125.045 114.958L123.823 117.406C123.035 119.02 121.659 120.269 119.978 120.894C118.298 121.519 116.441 121.474 114.793 120.767L96.9043 115.093L106.551 91.2218L124.52 100.164C126.174 100.986 127.438 102.429 128.036 104.179C128.634 105.929 128.519 107.845 127.715 109.511Z" fill="#FF6420"/>
<path d="M117.742 118.386L112.409 129.63L109.562 128.926L91.5567 144.473L86.1191 134.514C86.1191 134.514 96.8782 129.501 98.7843 125.553C100.691 121.605 98.3322 120.785 98.3322 120.785L103.299 114.805L117.742 118.386Z" fill="#FF6420"/>
<path d="M52.3927 81.9489C46.4969 96.0879 44.2302 108.599 47.3339 109.896C50.4376 111.194 57.7202 100.789 63.6221 86.6374C69.524 72.4862 71.7723 60.0059 68.7175 58.7083C65.6627 57.4107 58.2945 67.816 52.3927 81.9489Z" fill="#263238"/>
<path d="M129.448 117.223L124.609 115.852L127.42 110.104L131.079 112.247L129.448 117.223Z" fill="#455A64"/>
<path d="M101.596 116.868L114.731 124.745L116.253 121.538L101.596 116.868Z" fill="#263238"/>
<path d="M127.42 110.104L124.609 115.852L125.599 116.133L127.854 110.362L127.42 110.104Z" fill="#263238"/>
<path d="M97.6468 113.299C97.6468 113.299 94.2559 112.161 94.3659 112.192C94.4759 112.222 104.874 92.9907 104.874 92.9907L105.699 93.3641L97.9828 112.663" fill="#263238"/>
<path d="M124.146 111.506C124.079 111.665 121.659 110.802 118.739 109.572C115.818 108.342 113.497 107.228 113.564 107.075C113.631 106.922 116.051 107.778 118.977 109.003C121.904 110.227 124.213 111.347 124.146 111.506Z" fill="#263238"/>
<path d="M125.535 108.097C125.468 108.25 123.274 107.393 120.647 106.187C118.02 104.981 115.931 103.873 116.004 103.739C116.077 103.604 118.27 104.443 120.892 105.648C123.513 106.854 125.596 107.938 125.535 108.097Z" fill="#263238"/>
<path d="M122.387 115.093C122.387 115.179 121.776 115.062 120.871 114.805C120.413 114.677 119.87 114.518 119.265 114.328C118.66 114.138 118.043 113.832 117.377 113.557C114.719 112.406 112.679 111.267 112.74 111.108C112.801 110.949 114.982 111.83 117.627 112.944C118.287 113.22 118.904 113.557 119.46 113.752C120.016 113.948 120.56 114.169 120.994 114.364C121.873 114.75 122.405 115.013 122.387 115.093Z" fill="#263238"/>
<path d="M65.1387 78.4845C65.1387 78.4845 57.8072 74.2 54.172 84.0605C50.5368 93.9211 58.1188 95.2738 58.1188 95.2738C61.2355 90.0361 63.5988 84.3839 65.1387 78.4845Z" fill="#FF6420"/>
<path d="M72.4468 66.6775C72.4226 67.2948 72.3469 67.909 72.2207 68.5137C72.0252 69.7379 71.7503 71.4395 71.3531 73.5695C71.0782 74.6223 70.7788 75.773 70.455 77.0032C70.2962 77.6153 70.1251 78.258 69.954 78.9129C69.8685 79.2434 69.7769 79.574 69.6852 79.9106C69.5936 80.2472 69.4592 80.5778 69.3431 80.9144C68.8665 82.2671 68.3594 83.6871 67.8401 85.1561C67.7118 85.5234 67.5774 85.8967 67.443 86.2701C67.3086 86.6435 67.1253 86.9985 66.9665 87.3718L65.9645 89.6182L64.9564 91.8522C64.7853 92.2195 64.6387 92.5928 64.4432 92.9417L63.875 93.9761L61.6939 97.9118C61.5167 98.224 61.3578 98.5239 61.1745 98.836L60.6003 99.693L59.5005 101.339L57.521 104.308C56.1952 106.01 55.0772 107.368 54.3196 108.299C53.949 108.799 53.5405 109.269 53.0977 109.707C53.4007 109.154 53.7546 108.632 54.1546 108.146C54.8878 107.154 55.9264 105.753 57.2094 104.039L59.1095 101.07L60.1665 99.4114L60.7224 98.5545C60.8996 98.2546 61.0585 97.9424 61.2295 97.6302L63.3618 93.7007L63.9239 92.6724C64.1194 92.3297 64.2599 91.9563 64.431 91.589C64.7548 90.8607 65.0908 90.1201 65.4268 89.3733C65.7629 88.6266 66.0989 87.8799 66.4288 87.1515C66.5877 86.7842 66.7709 86.4354 66.8992 86.062C67.0275 85.6886 67.1681 85.3214 67.3025 84.9602C67.8279 83.5035 68.3411 82.0957 68.8299 80.7553C68.946 80.4248 69.0804 80.0942 69.1842 79.7637L69.4592 78.7783L69.9907 76.8869C70.3328 75.6628 70.6566 74.5304 70.9499 73.4899L72.0069 68.4892C72.1013 67.8738 72.2485 67.2676 72.4468 66.6775Z" fill="#263238"/>
<path d="M144.626 122.573C144.626 122.573 137.575 135.653 135.681 135.855C125.222 136.944 114.016 133.504 110.088 132.139C109.691 131.68 109.233 131.135 108.726 130.468C108.292 129.887 107.958 129.237 107.736 128.546C107.429 127.692 107.238 126.801 107.168 125.896C107.19 125.724 107.157 125.548 107.073 125.396C106.989 125.244 106.859 125.123 106.701 125.05C106.543 124.978 106.366 124.958 106.196 124.993C106.026 125.029 105.872 125.118 105.756 125.247C105.304 125.859 105.194 128.161 106.233 130.627C107.271 133.094 103.612 131.16 102.268 130.481C100.924 129.801 96.6591 127.904 96.1215 128.167C95.3395 128.546 95.5838 129.477 96.9463 130.126C98.3087 130.774 102.249 133.002 101.834 133.718C101.418 134.435 94.6429 130.872 94.6429 130.872C94.6429 130.872 93.3111 129.868 92.8101 130.683C91.9486 132.145 99.4634 135.371 100.184 135.659C100.685 135.861 100.288 136.65 99.7628 136.412C99.2374 136.173 93.0422 132.702 92.1625 134.184C91.4843 135.322 98.3209 136.901 99.2068 138.346C100.093 139.79 94.142 136.607 93.531 137.734C93.305 138.15 93.195 138.493 96.873 139.815C99.5633 140.654 102.299 141.34 105.066 141.871V141.908C105.066 141.908 140.379 158.434 149.666 142.037C155.739 131.331 156.307 129.973 158.458 123.925" fill="#B78876"/>
<path d="M1.74736 144.932H70.5475C71.0115 144.933 71.456 145.119 71.7835 145.448C72.111 145.777 72.2949 146.223 72.2949 146.688V160.656C72.7531 166.587 72.2949 168.056 65.5438 168.539V174.844L59.3548 168.643H1.74736C1.28393 168.643 0.839488 168.459 0.511798 168.131C0.184107 167.802 1.06819e-05 167.357 1.06819e-05 166.893V146.694C-0.000793041 146.464 0.0437658 146.235 0.131143 146.022C0.218521 145.808 0.347008 145.614 0.509264 145.45C0.671521 145.287 0.86437 145.157 1.0768 145.068C1.28923 144.979 1.51709 144.932 1.74736 144.932Z" fill="#455A64"/>
<path d="M59.1109 152.35H22.7344V153.911H59.1109V152.35Z" fill="#FF6420"/>
<path d="M59.1109 155.631H22.7344V157.192H59.1109V155.631Z" fill="#FF6420"/>
<path d="M41.1731 159.156H22.7344V160.717H41.1731V159.156Z" fill="#FF6420"/>
<path d="M19.5216 151.652H9.36133V161.831H19.5216V151.652Z" fill="#FF6420"/>
<path d="M243.624 41.9679C243.624 41.1562 243.302 40.3778 242.729 39.8038C242.156 39.2299 241.379 38.9075 240.569 38.9075L164.438 39.2808C163.627 39.2808 162.85 39.6033 162.278 40.1772C161.705 40.7511 161.383 41.5296 161.383 42.3412L161.499 66.402C161.499 66.8065 161.579 67.207 161.734 67.5803C161.89 67.9536 162.117 68.2923 162.404 68.5769C162.691 68.8615 163.032 69.0863 163.406 69.2383C163.78 69.3902 164.181 69.4664 164.584 69.4624H166.234L166.283 78.2702L174.873 69.4195L240.692 69.0951C241.502 69.0951 242.279 68.7727 242.852 68.1988C243.424 67.6248 243.746 66.8464 243.746 66.0347L243.624 41.9679Z" fill="#FF6420"/>
<path d="M220.549 58.3226C220.5 56.9393 220.549 54.9011 220.549 53.0832C220.14 52.0313 220.05 50.8818 220.29 49.7789C220.53 48.6759 221.09 47.6685 221.899 46.8828C224.734 43.9204 226.652 44.5692 227.752 44.5814C228.852 44.5937 233.947 45.8056 235.413 51.8713C235.489 52.2617 235.542 52.6561 235.572 53.0526C235.603 53.3525 235.633 53.6647 235.658 53.8483C235.722 54.9355 236.063 55.9881 236.648 56.9061C237.233 57.8242 238.043 58.5772 239 59.0938C239.701 57.4906 240.057 55.7576 240.044 54.0074C240.036 51.7992 239.449 49.6318 238.342 47.7223C237.235 45.8128 235.647 44.228 233.736 43.1266C231.826 42.0252 229.66 41.4458 227.456 41.4464C225.251 41.447 223.086 42.0275 221.176 43.1299C219.266 44.2323 217.679 45.8179 216.572 47.728C215.466 49.6381 214.88 51.8057 214.873 54.014C214.866 56.2222 215.438 58.3937 216.531 60.311C217.625 62.2283 219.202 63.8242 221.105 64.9391C220.512 62.7871 220.323 60.5435 220.549 58.3226Z" fill="#E0E0E0"/>
<path d="M235.668 53.8544V53.9033H235.6C235.6 56.3516 235.325 64.633 231.244 66.1449C232.963 65.6008 234.546 64.6936 235.886 63.4847C237.225 62.2757 238.29 60.793 239.009 59.1366C238.047 58.6168 237.235 57.858 236.649 56.9331C236.064 56.0081 235.726 54.9479 235.668 53.8544Z" fill="#263238"/>
<path d="M220.565 58.6226C220.565 58.5246 220.565 58.4267 220.565 58.3226C220.339 60.5456 220.528 62.7914 221.121 64.9453C221.953 65.4425 222.841 65.839 223.767 66.1266C223.718 64.37 223.559 61.8421 223.559 61.8421C222.763 61.7415 222.027 61.3642 221.48 60.7758C220.933 60.1875 220.609 59.4254 220.565 58.6226Z" fill="#263238"/>
<path d="M231.101 53.2179C231.101 53.2179 226.445 52.7099 225.669 48.3213C225.388 48.9823 224.887 50.4024 225.205 51.5531L221.05 52.5997L220.586 53.0343C220.543 54.8705 220.525 56.8904 220.586 58.2737C220.586 58.3777 220.586 58.4757 220.586 58.5736C220.622 59.38 220.941 60.1478 221.487 60.7422C222.032 61.3366 222.769 61.7195 223.568 61.8237C224.915 61.793 226.223 61.3674 227.331 60.5996C227.331 60.5996 226.457 62.7235 223.623 62.5705L223.568 61.8543C223.568 61.8543 223.726 64.3516 223.775 66.1389C224.997 66.5201 226.271 66.71 227.551 66.702C228.63 66.6903 229.704 66.5423 230.746 66.2613L231.101 53.2179ZM225.382 53.9524C225.386 53.8816 225.41 53.8135 225.452 53.7564C225.494 53.6994 225.552 53.656 225.618 53.6316C225.685 53.6073 225.757 53.6031 225.826 53.6195C225.895 53.636 225.957 53.6723 226.005 53.7241C226.054 53.7759 226.086 53.8407 226.098 53.9106C226.109 53.9805 226.1 54.0523 226.072 54.1171C226.043 54.1819 225.996 54.2368 225.936 54.275C225.877 54.3132 225.807 54.333 225.737 54.3319C225.688 54.3303 225.641 54.3192 225.597 54.2993C225.553 54.2794 225.514 54.251 225.481 54.2157C225.448 54.1805 225.422 54.1391 225.405 54.0939C225.388 54.0487 225.381 54.0006 225.382 53.9524ZM225.297 53.3403C225.453 53.2075 225.648 53.13 225.853 53.12C226.058 53.1097 226.261 53.1655 226.433 53.2791C226.561 53.3709 226.61 53.4627 226.586 53.4872C226.561 53.5117 226.256 53.3403 225.865 53.3587C225.474 53.377 225.205 53.6096 225.162 53.5607C225.119 53.5117 225.174 53.4321 225.297 53.3281V53.3403ZM220.977 53.2852C221.135 53.1515 221.333 53.0741 221.539 53.0649C221.744 53.0542 221.946 53.1123 222.114 53.2302C222.242 53.322 222.291 53.4077 222.266 53.4321C222.242 53.4566 221.936 53.2852 221.545 53.3036C221.154 53.322 220.886 53.5546 220.843 53.5056C220.8 53.4566 220.843 53.377 220.977 53.273V53.2852ZM221.185 53.8973C221.186 53.8247 221.209 53.7541 221.25 53.6944C221.291 53.6347 221.349 53.5886 221.417 53.5619C221.484 53.5352 221.558 53.5292 221.629 53.5445C221.7 53.5599 221.764 53.596 221.815 53.6482C221.865 53.7004 221.899 53.7664 221.912 53.8378C221.925 53.9093 221.917 53.983 221.888 54.0496C221.859 54.1163 221.811 54.1728 221.75 54.2122C221.689 54.2515 221.618 54.2719 221.545 54.2707C221.449 54.2691 221.357 54.2297 221.29 54.161C221.223 54.0923 221.185 53.9998 221.185 53.9034V53.8973ZM222.902 56.9149C222.864 56.9071 222.828 56.8894 222.799 56.8636C222.771 56.8378 222.749 56.8048 222.737 56.768C222.703 56.6264 222.718 56.4776 222.779 56.3456C222.859 56.0824 222.951 55.807 223.042 55.5132C223.248 54.7949 223.507 54.0931 223.818 53.4138C223.667 54.146 223.463 54.8661 223.207 55.5683C223.109 55.8539 223.018 56.1294 222.932 56.3946C222.881 56.4944 222.859 56.6072 222.871 56.719C222.871 56.7863 222.981 56.8047 223.085 56.8108C223.292 56.816 223.498 56.8489 223.696 56.9087C223.483 56.9335 223.268 56.9335 223.054 56.9087C223.004 56.9192 222.953 56.9233 222.902 56.921V56.9149ZM224.392 58.3349C224.165 58.4288 223.913 58.4411 223.678 58.3697C223.443 58.2983 223.24 58.1476 223.103 57.9431C223.898 57.9431 225.394 57.0373 224.997 57.3311C225.046 57.5451 225.01 57.7696 224.897 57.9578C224.785 58.146 224.604 58.2833 224.392 58.341V58.3349Z" fill="#455A64"/>
<path d="M221.912 53.9095C221.912 53.8368 221.891 53.7658 221.85 53.7055C221.81 53.6451 221.753 53.598 221.686 53.5702C221.618 53.5424 221.545 53.5351 221.473 53.5493C221.402 53.5635 221.337 53.5984 221.285 53.6498C221.234 53.7012 221.199 53.7666 221.185 53.8378C221.171 53.9091 221.178 53.9829 221.206 54.05C221.233 54.1171 221.281 54.1745 221.341 54.2148C221.401 54.2552 221.472 54.2767 221.545 54.2767C221.642 54.2767 221.736 54.238 221.805 54.1692C221.874 54.1003 221.912 54.0069 221.912 53.9095Z" fill="#263238"/>
<path d="M222.267 53.4199C222.267 53.4199 222.267 53.3097 222.114 53.2179C221.946 53.1001 221.744 53.0419 221.54 53.0527C221.333 53.0618 221.135 53.1393 220.977 53.273C220.855 53.3771 220.819 53.4689 220.843 53.4933C220.868 53.5178 221.161 53.3097 221.546 53.2914C221.931 53.273 222.23 53.5056 222.267 53.4199Z" fill="#263238"/>
<path d="M226.103 53.9645C226.103 53.8687 226.065 53.7769 225.997 53.7092C225.93 53.6414 225.838 53.6034 225.742 53.6034C225.646 53.6034 225.554 53.6414 225.487 53.7092C225.419 53.7769 225.381 53.8687 225.381 53.9645C225.381 54.0603 225.419 54.1521 225.487 54.2199C225.554 54.2876 225.646 54.3256 225.742 54.3256C225.838 54.3256 225.93 54.2876 225.997 54.2199C226.065 54.1521 226.103 54.0603 226.103 53.9645Z" fill="#263238"/>
<path d="M226.585 53.5055C226.585 53.5055 226.585 53.3892 226.432 53.2974C226.261 53.1838 226.057 53.128 225.852 53.1383C225.647 53.1483 225.452 53.2258 225.296 53.3586C225.174 53.4627 225.137 53.5545 225.161 53.579C225.186 53.6035 225.473 53.3954 225.864 53.377C226.255 53.3586 226.548 53.5055 226.585 53.5055Z" fill="#263238"/>
<path d="M223.718 56.9148C223.519 56.855 223.313 56.822 223.106 56.8168C223.002 56.8168 222.91 56.8168 222.892 56.725C222.88 56.6132 222.902 56.5004 222.953 56.4006C223.039 56.1395 223.131 55.864 223.228 55.5743C223.485 54.8721 223.689 54.152 223.84 53.4198C223.529 54.0991 223.269 54.8009 223.063 55.5192C222.972 55.813 222.88 56.0885 222.8 56.3516C222.739 56.4836 222.724 56.6324 222.758 56.774C222.77 56.8109 222.791 56.8439 222.82 56.8697C222.849 56.8955 222.885 56.9131 222.923 56.9209C222.979 56.9289 223.037 56.9289 223.094 56.9209C223.301 56.9423 223.511 56.9402 223.718 56.9148Z" fill="#263238"/>
<path d="M223.104 57.9492C223.24 58.1536 223.443 58.3043 223.678 58.3757C223.913 58.4471 224.166 58.4348 224.393 58.3409C224.61 58.2847 224.797 58.1442 224.912 57.9503C225.026 57.7563 225.059 57.5248 225.004 57.3065C225.395 57.0433 223.898 57.9614 223.104 57.9492Z" fill="white"/>
<path d="M227.308 60.6179C226.2 61.3858 224.892 61.8114 223.545 61.8421L223.6 62.5582C226.435 62.7418 227.308 60.6179 227.308 60.6179Z" fill="#263238"/>
<path d="M235.596 53.8911H235.664V53.8422C235.664 53.6341 235.609 53.3464 235.578 53.0465C235.547 52.65 235.494 52.2556 235.419 51.8652C233.953 45.7811 228.784 44.5876 227.758 44.5753C226.731 44.5631 224.74 43.9143 221.905 46.8767C221.096 47.6624 220.536 48.6698 220.296 49.7728C220.055 50.8757 220.146 52.0252 220.555 53.0771L221.019 52.6425L225.173 51.5958C224.856 50.4451 225.357 49.0251 225.638 48.3641C226.414 52.7282 231.069 53.2607 231.069 53.2607L230.69 66.2918C230.861 66.2429 231.039 66.2061 231.21 66.1511C235.321 64.6209 235.621 56.3088 235.596 53.8911Z" fill="#263238"/>
<path d="M210.265 47.9533L170.699 48.147L170.71 50.3321L210.275 50.1384L210.265 47.9533Z" fill="#263238"/>
<path d="M210.296 53.572L170.73 53.7657L170.741 55.9508L210.306 55.7571L210.296 53.572Z" fill="#263238"/>
<path d="M190.364 59.1293L170.752 59.2253L170.763 61.4104L190.374 61.3144L190.364 59.1293Z" fill="#263238"/>
</svg>
